<?xml version="1.0" encoding="UTF-8" standalone="no"?>
<!DOCTYPE svg PUBLIC "-//W3C//DTD SVG 1.1//EN"
 "http://www.w3.org/Graphics/SVG/1.1/DTD/svg11.dtd">
<!-- Generated by graphviz version 2.40.1 (20161225.0304)
 -->
<!-- Title: public.dtb_templates Pages: 1 -->
<svg width="492pt" height="554pt"
 viewBox="0.00 0.00 491.50 554.00" xmlns="http://www.w3.org/2000/svg" xmlns:xlink="http://www.w3.org/1999/xlink">
<g id="graph0" class="graph" transform="scale(1 1) rotate(0) translate(4 550)">
<title>public.dtb_templates</title>
<polygon fill="#ffffff" stroke="transparent" points="-4,4 -4,-550 487.5,-550 487.5,4 -4,4"/>
<!-- public.dtb_templates -->
<g id="node1" class="node">
<title>public.dtb_templates</title>
<polygon fill="#efefef" stroke="transparent" points="97,-454 97,-500 438,-500 438,-454 97,-454"/>
<polygon fill="none" stroke="#000000" points="97,-454 97,-500 438,-500 438,-454 97,-454"/>
<text text-anchor="start" x="136.3503" y="-477.8" font-family="Arial Bold" font-size="18.00" fill="#000000">public.dtb_templates</text>
<text text-anchor="start" x="301.3959" y="-477.8" font-family="Arial" font-size="14.00" fill="#000000"> </text>
<text text-anchor="start" x="305.2865" y="-477.8" font-family="Arial" font-size="14.00" fill="#666666">[BASE TABLE]</text>
<text text-anchor="start" x="207.6171" y="-463.4" font-family="Arial" font-size="14.00" fill="#333333">テンプレート情報</text>
<polygon fill="none" stroke="#000000" points="97,-424 97,-454 438,-454 438,-424 97,-424"/>
<text text-anchor="start" x="104" y="-435.4" font-family="Arial" font-size="14.00" fill="#000000">template_code </text>
<text text-anchor="start" x="199.6998" y="-435.4" font-family="Arial" font-size="14.00" fill="#666666">[text]</text>
<text text-anchor="start" x="230.0448" y="-435.4" font-family="Arial" font-size="14.00" fill="#000000"> テンプレートコード</text>
<polygon fill="none" stroke="#000000" points="97,-394 97,-424 438,-424 438,-394 97,-394"/>
<text text-anchor="start" x="104" y="-405.4" font-family="Arial" font-size="14.00" fill="#000000">device_type_id </text>
<text text-anchor="start" x="201.2552" y="-405.4" font-family="Arial" font-size="14.00" fill="#666666">[integer]</text>
<text text-anchor="start" x="251.8246" y="-405.4" font-family="Arial" font-size="14.00" fill="#000000"> 端末種別ID</text>
<polygon fill="none" stroke="#000000" points="97,-364 97,-394 438,-394 438,-364 97,-364"/>
<text text-anchor="start" x="104" y="-375.4" font-family="Arial" font-size="14.00" fill="#000000">template_name </text>
<text text-anchor="start" x="204.3604" y="-375.4" font-family="Arial" font-size="14.00" fill="#666666">[text]</text>
<text text-anchor="start" x="234.7054" y="-375.4" font-family="Arial" font-size="14.00" fill="#000000"> テンプレート名</text>
<polygon fill="none" stroke="#000000" points="97,-334 97,-364 438,-364 438,-334 97,-334"/>
<text text-anchor="start" x="103.735" y="-345.4" font-family="Arial" font-size="14.00" fill="#000000">create_date </text>
<text text-anchor="start" x="181.5456" y="-345.4" font-family="Arial" font-size="14.00" fill="#666666">[timestamp without time zone]</text>
<text text-anchor="start" x="366.6858" y="-345.4" font-family="Arial" font-size="14.00" fill="#000000"> 作成日時</text>
<polygon fill="none" stroke="#000000" points="97,-304 97,-334 438,-334 438,-304 97,-304"/>
<text text-anchor="start" x="104" y="-315.4" font-family="Arial" font-size="14.00" fill="#000000">update_date </text>
<text text-anchor="start" x="185.7152" y="-315.4" font-family="Arial" font-size="14.00" fill="#666666">[timestamp without time zone]</text>
<text text-anchor="start" x="370.8554" y="-315.4" font-family="Arial" font-size="14.00" fill="#000000"> 更新日時</text>
<polygon fill="none" stroke="#000000" stroke-width="3" points="95,-302.5 95,-501.5 439,-501.5 439,-302.5 95,-302.5"/>
</g>
<!-- public.mtb_device_type -->
<g id="node2" class="node">
<title>public.mtb_device_type</title>
<polygon fill="#efefef" stroke="transparent" points="118,-133 118,-179 417,-179 417,-133 118,-133"/>
<polygon fill="none" stroke="#000000" points="118,-133 118,-179 417,-179 417,-133 118,-133"/>
<text text-anchor="start" x="124.8483" y="-156.8" font-family="Arial Bold" font-size="18.00" fill="#000000">public.mtb_device_type</text>
<text text-anchor="start" x="312.8979" y="-156.8" font-family="Arial" font-size="14.00" fill="#000000"> </text>
<text text-anchor="start" x="316.7885" y="-156.8" font-family="Arial" font-size="14.00" fill="#666666">[BASE TABLE]</text>
<text text-anchor="start" x="233.263" y="-142.4" font-family="Arial" font-size="14.00" fill="#333333">端末種別</text>
<polygon fill="none" stroke="#000000" points="118,-103 118,-133 417,-133 417,-103 118,-103"/>
<text text-anchor="start" x="125" y="-114.4" font-family="Arial" font-size="14.00" fill="#000000">id </text>
<text text-anchor="start" x="139.7798" y="-114.4" font-family="Arial" font-size="14.00" fill="#666666">[smallint]</text>
<text text-anchor="start" x="194.9972" y="-114.4" font-family="Arial" font-size="14.00" fill="#000000"> ID</text>
<polygon fill="none" stroke="#000000" points="118,-73 118,-103 417,-103 417,-73 118,-73"/>
<text text-anchor="start" x="125" y="-84.4" font-family="Arial" font-size="14.00" fill="#000000">name </text>
<text text-anchor="start" x="163.899" y="-84.4" font-family="Arial" font-size="14.00" fill="#666666">[text]</text>
<text text-anchor="start" x="194.244" y="-84.4" font-family="Arial" font-size="14.00" fill="#000000"> 名称</text>
<polygon fill="none" stroke="#000000" points="118,-43 118,-73 417,-73 417,-43 118,-43"/>
<text text-anchor="start" x="125" y="-54.4" font-family="Arial" font-size="14.00" fill="#000000">rank </text>
<text text-anchor="start" x="156.1164" y="-54.4" font-family="Arial" font-size="14.00" fill="#666666">[smallint]</text>
<text text-anchor="start" x="211.3338" y="-54.4" font-family="Arial" font-size="14.00" fill="#000000"> 表示順</text>
</g>
<!-- public.dtb_templates&#45;&gt;public.mtb_device_type -->
<g id="edge1" class="edge">
<title>public.dtb_templates:device_type_id&#45;&gt;public.mtb_device_type:id</title>
<path fill="none" stroke="#000000" stroke-dasharray="5,2" d="M87.1263,-406.4843C34.5931,-378.0422 56.7108,-118 118,-118"/>
<polygon fill="#000000" stroke="#000000" points="87.3096,-406.5309 95.8889,-413.3607 92.1548,-407.7655 97,-409 97,-409 97,-409 92.1548,-407.7655 98.1111,-404.6393 87.3096,-406.5309 87.3096,-406.5309"/>
<text text-anchor="start" x="7.3245" y="-419" font-family="Arial" font-size="10.00" fill="#000000">Additional Relation</text>
</g>
</g>
</svg>
