<?xml version="1.0" encoding="UTF-8" standalone="no"?>
<!DOCTYPE svg PUBLIC "-//W3C//DTD SVG 1.1//EN"
 "http://www.w3.org/Graphics/SVG/1.1/DTD/svg11.dtd">
<!-- Generated by graphviz version 2.40.1 (20161225.0304)
 -->
<!-- Title: public.dtb_kiyaku Pages: 1 -->
<svg width="507pt" height="974pt"
 viewBox="0.00 0.00 506.50 974.00" xmlns="http://www.w3.org/2000/svg" xmlns:xlink="http://www.w3.org/1999/xlink">
<g id="graph0" class="graph" transform="scale(1 1) rotate(0) translate(4 970)">
<title>public.dtb_kiyaku</title>
<polygon fill="#ffffff" stroke="transparent" points="-4,4 -4,-970 502.5,-970 502.5,4 -4,4"/>
<!-- public.dtb_kiyaku -->
<g id="node1" class="node">
<title>public.dtb_kiyaku</title>
<polygon fill="#efefef" stroke="transparent" points="97,-874 97,-920 438,-920 438,-874 97,-874"/>
<polygon fill="none" stroke="#000000" points="97,-874 97,-920 438,-920 438,-874 97,-874"/>
<text text-anchor="start" x="149.8548" y="-897.8" font-family="Arial Bold" font-size="18.00" fill="#000000">public.dtb_kiyaku</text>
<text text-anchor="start" x="287.8914" y="-897.8" font-family="Arial" font-size="14.00" fill="#000000"> </text>
<text text-anchor="start" x="291.782" y="-897.8" font-family="Arial" font-size="14.00" fill="#666666">[BASE TABLE]</text>
<text text-anchor="start" x="238.3184" y="-883.4" font-family="Arial" font-size="14.00" fill="#333333">規約情報</text>
<polygon fill="none" stroke="#000000" points="97,-844 97,-874 438,-874 438,-844 97,-844"/>
<text text-anchor="start" x="104" y="-855.4" font-family="Arial" font-size="14.00" fill="#000000">kiyaku_id </text>
<text text-anchor="start" x="166.2342" y="-855.4" font-family="Arial" font-size="14.00" fill="#666666">[integer]</text>
<text text-anchor="start" x="216.8036" y="-855.4" font-family="Arial" font-size="14.00" fill="#000000"> 規約ID</text>
<polygon fill="none" stroke="#000000" points="97,-814 97,-844 438,-844 438,-814 97,-814"/>
<text text-anchor="start" x="104" y="-825.4" font-family="Arial" font-size="14.00" fill="#000000">kiyaku_title </text>
<text text-anchor="start" x="177.122" y="-825.4" font-family="Arial" font-size="14.00" fill="#666666">[text]</text>
<text text-anchor="start" x="207.467" y="-825.4" font-family="Arial" font-size="14.00" fill="#000000"> 規約タイトル</text>
<polygon fill="none" stroke="#000000" points="97,-784 97,-814 438,-814 438,-784 97,-784"/>
<text text-anchor="start" x="104" y="-795.4" font-family="Arial" font-size="14.00" fill="#000000">kiyaku_text </text>
<text text-anchor="start" x="177.9088" y="-795.4" font-family="Arial" font-size="14.00" fill="#666666">[text]</text>
<text text-anchor="start" x="208.2538" y="-795.4" font-family="Arial" font-size="14.00" fill="#000000"> 規約本文</text>
<polygon fill="none" stroke="#000000" points="97,-754 97,-784 438,-784 438,-754 97,-754"/>
<text text-anchor="start" x="104" y="-765.4" font-family="Arial" font-size="14.00" fill="#000000">rank </text>
<text text-anchor="start" x="135.1164" y="-765.4" font-family="Arial" font-size="14.00" fill="#666666">[integer]</text>
<text text-anchor="start" x="185.6858" y="-765.4" font-family="Arial" font-size="14.00" fill="#000000"> 表示順</text>
<polygon fill="none" stroke="#000000" points="97,-724 97,-754 438,-754 438,-724 97,-724"/>
<text text-anchor="start" x="104" y="-735.4" font-family="Arial" font-size="14.00" fill="#000000">creator_id </text>
<text text-anchor="start" x="170.122" y="-735.4" font-family="Arial" font-size="14.00" fill="#666666">[integer]</text>
<text text-anchor="start" x="220.6914" y="-735.4" font-family="Arial" font-size="14.00" fill="#000000"> 作成者ID</text>
<polygon fill="none" stroke="#000000" points="97,-694 97,-724 438,-724 438,-694 97,-694"/>
<text text-anchor="start" x="103.735" y="-705.4" font-family="Arial" font-size="14.00" fill="#000000">create_date </text>
<text text-anchor="start" x="181.5456" y="-705.4" font-family="Arial" font-size="14.00" fill="#666666">[timestamp without time zone]</text>
<text text-anchor="start" x="366.6858" y="-705.4" font-family="Arial" font-size="14.00" fill="#000000"> 作成日時</text>
<polygon fill="none" stroke="#000000" points="97,-664 97,-694 438,-694 438,-664 97,-664"/>
<text text-anchor="start" x="104" y="-675.4" font-family="Arial" font-size="14.00" fill="#000000">update_date </text>
<text text-anchor="start" x="185.7152" y="-675.4" font-family="Arial" font-size="14.00" fill="#666666">[timestamp without time zone]</text>
<text text-anchor="start" x="370.8554" y="-675.4" font-family="Arial" font-size="14.00" fill="#000000"> 更新日時</text>
<polygon fill="none" stroke="#000000" points="97,-634 97,-664 438,-664 438,-634 97,-634"/>
<text text-anchor="start" x="104" y="-645.4" font-family="Arial" font-size="14.00" fill="#000000">del_flg </text>
<text text-anchor="start" x="149.1248" y="-645.4" font-family="Arial" font-size="14.00" fill="#666666">[smallint]</text>
<text text-anchor="start" x="204.3422" y="-645.4" font-family="Arial" font-size="14.00" fill="#000000"> 削除フラグ</text>
<polygon fill="none" stroke="#000000" stroke-width="3" points="95,-632.5 95,-921.5 439,-921.5 439,-632.5 95,-632.5"/>
</g>
<!-- public.dtb_member -->
<g id="node2" class="node">
<title>public.dtb_member</title>
<polygon fill="#efefef" stroke="transparent" points="79,-463 79,-509 456,-509 456,-463 79,-463"/>
<polygon fill="none" stroke="#000000" points="79,-463 79,-509 456,-509 456,-463 79,-463"/>
<text text-anchor="start" x="142.3605" y="-486.8" font-family="Arial Bold" font-size="18.00" fill="#000000">public.dtb_member</text>
<text text-anchor="start" x="295.3857" y="-486.8" font-family="Arial" font-size="14.00" fill="#000000"> </text>
<text text-anchor="start" x="299.2763" y="-486.8" font-family="Arial" font-size="14.00" fill="#666666">[BASE TABLE]</text>
<text text-anchor="start" x="187.9016" y="-472.4" font-family="Arial" font-size="14.00" fill="#333333">管理画面メンバー情報</text>
<polygon fill="none" stroke="#000000" points="79,-433 79,-463 456,-463 456,-433 79,-433"/>
<text text-anchor="start" x="86" y="-444.4" font-family="Arial" font-size="14.00" fill="#000000">member_id </text>
<text text-anchor="start" x="159.892" y="-444.4" font-family="Arial" font-size="14.00" fill="#666666">[integer]</text>
<text text-anchor="start" x="210.4614" y="-444.4" font-family="Arial" font-size="14.00" fill="#000000"> メンバーID</text>
<polygon fill="none" stroke="#000000" points="79,-403 79,-433 456,-433 456,-403 79,-403"/>
<text text-anchor="start" x="86" y="-414.4" font-family="Arial" font-size="14.00" fill="#000000">name </text>
<text text-anchor="start" x="124.899" y="-414.4" font-family="Arial" font-size="14.00" fill="#666666">[text]</text>
<text text-anchor="start" x="155.244" y="-414.4" font-family="Arial" font-size="14.00" fill="#000000"> 名前</text>
<polygon fill="none" stroke="#000000" points="79,-373 79,-403 456,-403 456,-373 79,-373"/>
<text text-anchor="start" x="86" y="-384.4" font-family="Arial" font-size="14.00" fill="#000000">department </text>
<text text-anchor="start" x="160.6886" y="-384.4" font-family="Arial" font-size="14.00" fill="#666666">[text]</text>
<text text-anchor="start" x="191.0336" y="-384.4" font-family="Arial" font-size="14.00" fill="#000000"> 部門</text>
<polygon fill="none" stroke="#000000" points="79,-343 79,-373 456,-373 456,-343 79,-343"/>
<text text-anchor="start" x="86" y="-354.4" font-family="Arial" font-size="14.00" fill="#000000">login_id </text>
<text text-anchor="start" x="138.1234" y="-354.4" font-family="Arial" font-size="14.00" fill="#666666">[text]</text>
<text text-anchor="start" x="168.4684" y="-354.4" font-family="Arial" font-size="14.00" fill="#000000"> ログインID</text>
<polygon fill="none" stroke="#000000" points="79,-313 79,-343 456,-343 456,-313 79,-313"/>
<text text-anchor="start" x="86" y="-324.4" font-family="Arial" font-size="14.00" fill="#000000">password </text>
<text text-anchor="start" x="149.7882" y="-324.4" font-family="Arial" font-size="14.00" fill="#666666">[text]</text>
<text text-anchor="start" x="180.1332" y="-324.4" font-family="Arial" font-size="14.00" fill="#000000"> パスワード</text>
<polygon fill="none" stroke="#000000" points="79,-283 79,-313 456,-313 456,-283 79,-283"/>
<text text-anchor="start" x="86" y="-294.4" font-family="Arial" font-size="14.00" fill="#000000">salt </text>
<text text-anchor="start" x="111.6704" y="-294.4" font-family="Arial" font-size="14.00" fill="#666666">[text]</text>
<text text-anchor="start" x="142.0154" y="-294.4" font-family="Arial" font-size="14.00" fill="#000000"> 暗号化付与文字列</text>
<polygon fill="none" stroke="#000000" points="79,-253 79,-283 456,-283 456,-253 79,-253"/>
<text text-anchor="start" x="86" y="-264.4" font-family="Arial" font-size="14.00" fill="#000000">authority </text>
<text text-anchor="start" x="143.5694" y="-264.4" font-family="Arial" font-size="14.00" fill="#666666">[smallint]</text>
<text text-anchor="start" x="198.7868" y="-264.4" font-family="Arial" font-size="14.00" fill="#000000"> 権限</text>
<polygon fill="none" stroke="#000000" points="79,-223 79,-253 456,-253 456,-223 79,-223"/>
<text text-anchor="start" x="86" y="-234.4" font-family="Arial" font-size="14.00" fill="#000000">rank </text>
<text text-anchor="start" x="117.1164" y="-234.4" font-family="Arial" font-size="14.00" fill="#666666">[integer]</text>
<text text-anchor="start" x="167.6858" y="-234.4" font-family="Arial" font-size="14.00" fill="#000000"> 表示順</text>
<polygon fill="none" stroke="#000000" points="79,-193 79,-223 456,-223 456,-193 79,-193"/>
<text text-anchor="start" x="86" y="-204.4" font-family="Arial" font-size="14.00" fill="#000000">work </text>
<text text-anchor="start" x="119.4404" y="-204.4" font-family="Arial" font-size="14.00" fill="#666666">[smallint]</text>
<text text-anchor="start" x="174.6578" y="-204.4" font-family="Arial" font-size="14.00" fill="#000000"> 稼動フラグ</text>
<polygon fill="none" stroke="#000000" points="79,-163 79,-193 456,-193 456,-163 79,-163"/>
<text text-anchor="start" x="86" y="-174.4" font-family="Arial" font-size="14.00" fill="#000000">del_flg </text>
<text text-anchor="start" x="131.1248" y="-174.4" font-family="Arial" font-size="14.00" fill="#666666">[smallint]</text>
<text text-anchor="start" x="186.3422" y="-174.4" font-family="Arial" font-size="14.00" fill="#000000"> 削除フラグ</text>
<polygon fill="none" stroke="#000000" points="79,-133 79,-163 456,-163 456,-133 79,-133"/>
<text text-anchor="start" x="86" y="-144.4" font-family="Arial" font-size="14.00" fill="#000000">creator_id </text>
<text text-anchor="start" x="152.122" y="-144.4" font-family="Arial" font-size="14.00" fill="#666666">[integer]</text>
<text text-anchor="start" x="202.6914" y="-144.4" font-family="Arial" font-size="14.00" fill="#000000"> 作成者ID</text>
<polygon fill="none" stroke="#000000" points="79,-103 79,-133 456,-133 456,-103 79,-103"/>
<text text-anchor="start" x="86" y="-114.4" font-family="Arial" font-size="14.00" fill="#000000">create_date </text>
<text text-anchor="start" x="163.8106" y="-114.4" font-family="Arial" font-size="14.00" fill="#666666">[timestamp without time zone]</text>
<text text-anchor="start" x="348.9508" y="-114.4" font-family="Arial" font-size="14.00" fill="#000000"> 作成日時</text>
<polygon fill="none" stroke="#000000" points="79,-73 79,-103 456,-103 456,-73 79,-73"/>
<text text-anchor="start" x="86" y="-84.4" font-family="Arial" font-size="14.00" fill="#000000">update_date </text>
<text text-anchor="start" x="167.7152" y="-84.4" font-family="Arial" font-size="14.00" fill="#666666">[timestamp without time zone]</text>
<text text-anchor="start" x="352.8554" y="-84.4" font-family="Arial" font-size="14.00" fill="#000000"> 更新日付</text>
<polygon fill="none" stroke="#000000" points="79,-43 79,-73 456,-73 456,-43 79,-43"/>
<text text-anchor="start" x="85.9851" y="-54.4" font-family="Arial" font-size="14.00" fill="#000000">login_date </text>
<text text-anchor="start" x="154.4577" y="-54.4" font-family="Arial" font-size="14.00" fill="#666666">[timestamp without time zone]</text>
<text text-anchor="start" x="339.5979" y="-54.4" font-family="Arial" font-size="14.00" fill="#000000"> 最終ログイン日時</text>
</g>
<!-- public.dtb_kiyaku&#45;&gt;public.dtb_member -->
<g id="edge1" class="edge">
<title>public.dtb_kiyaku:creator_id&#45;&gt;public.dtb_member:member_id</title>
<path fill="none" stroke="#000000" stroke-dasharray="5,2" d="M87.1456,-736.6576C30.5415,-709.1178 17.6264,-448 79,-448"/>
<polygon fill="#000000" stroke="#000000" points="87.2711,-736.6874 95.9593,-743.378 92.1355,-737.8437 97,-739 97,-739 97,-739 92.1355,-737.8437 98.0407,-734.622 87.2711,-736.6874 87.2711,-736.6874"/>
<text text-anchor="start" x="7.3245" y="-749" font-family="Arial" font-size="10.00" fill="#000000">Additional Relation</text>
</g>
</g>
</svg>
