<?xml version="1.0" encoding="UTF-8" standalone="no"?>
<!DOCTYPE svg PUBLIC "-//W3C//DTD SVG 1.1//EN"
 "http://www.w3.org/Graphics/SVG/1.1/DTD/svg11.dtd">
<!-- Generated by graphviz version 2.40.1 (20161225.0304)
 -->
<!-- Title: public.dtb_mailtemplate Pages: 1 -->
<svg width="507pt" height="1352pt"
 viewBox="0.00 0.00 506.50 1352.00" xmlns="http://www.w3.org/2000/svg" xmlns:xlink="http://www.w3.org/1999/xlink">
<g id="graph0" class="graph" transform="scale(1 1) rotate(0) translate(4 1348)">
<title>public.dtb_mailtemplate</title>
<polygon fill="#ffffff" stroke="transparent" points="-4,4 -4,-1348 502.5,-1348 502.5,4 -4,4"/>
<!-- public.dtb_mailtemplate -->
<g id="node1" class="node">
<title>public.dtb_mailtemplate</title>
<polygon fill="#efefef" stroke="transparent" points="97,-874 97,-920 438,-920 438,-874 97,-874"/>
<polygon fill="none" stroke="#000000" points="97,-874 97,-920 438,-920 438,-874 97,-874"/>
<text text-anchor="start" x="124.3569" y="-897.8" font-family="Arial Bold" font-size="18.00" fill="#000000">public.dtb_mailtemplate</text>
<text text-anchor="start" x="313.3893" y="-897.8" font-family="Arial" font-size="14.00" fill="#000000"> </text>
<text text-anchor="start" x="317.2799" y="-897.8" font-family="Arial" font-size="14.00" fill="#666666">[BASE TABLE]</text>
<text text-anchor="start" x="180.7917" y="-883.4" font-family="Arial" font-size="14.00" fill="#333333">メールテンプレート情報</text>
<polygon fill="none" stroke="#000000" points="97,-844 97,-874 438,-874 438,-844 97,-844"/>
<text text-anchor="start" x="104" y="-855.4" font-family="Arial" font-size="14.00" fill="#000000">template_id </text>
<text text-anchor="start" x="180.2412" y="-855.4" font-family="Arial" font-size="14.00" fill="#666666">[integer]</text>
<text text-anchor="start" x="230.8106" y="-855.4" font-family="Arial" font-size="14.00" fill="#000000"> テンプレートID</text>
<polygon fill="none" stroke="#000000" points="97,-814 97,-844 438,-844 438,-814 97,-814"/>
<text text-anchor="start" x="104" y="-825.4" font-family="Arial" font-size="14.00" fill="#000000">subject </text>
<text text-anchor="start" x="152.2356" y="-825.4" font-family="Arial" font-size="14.00" fill="#666666">[text]</text>
<text text-anchor="start" x="182.5806" y="-825.4" font-family="Arial" font-size="14.00" fill="#000000"> 件名</text>
<polygon fill="none" stroke="#000000" points="97,-784 97,-814 438,-814 438,-784 97,-784"/>
<text text-anchor="start" x="104" y="-795.4" font-family="Arial" font-size="14.00" fill="#000000">header </text>
<text text-anchor="start" x="151.4642" y="-795.4" font-family="Arial" font-size="14.00" fill="#666666">[text]</text>
<text text-anchor="start" x="181.8092" y="-795.4" font-family="Arial" font-size="14.00" fill="#000000"> ヘッダ</text>
<polygon fill="none" stroke="#000000" points="97,-754 97,-784 438,-784 438,-754 97,-754"/>
<text text-anchor="start" x="104" y="-765.4" font-family="Arial" font-size="14.00" fill="#000000">footer </text>
<text text-anchor="start" x="143.6802" y="-765.4" font-family="Arial" font-size="14.00" fill="#666666">[text]</text>
<text text-anchor="start" x="174.0252" y="-765.4" font-family="Arial" font-size="14.00" fill="#000000"> フッタ</text>
<polygon fill="none" stroke="#000000" points="97,-724 97,-754 438,-754 438,-724 97,-724"/>
<text text-anchor="start" x="104" y="-735.4" font-family="Arial" font-size="14.00" fill="#000000">creator_id </text>
<text text-anchor="start" x="170.122" y="-735.4" font-family="Arial" font-size="14.00" fill="#666666">[integer]</text>
<text text-anchor="start" x="220.6914" y="-735.4" font-family="Arial" font-size="14.00" fill="#000000"> 作成者ID</text>
<polygon fill="none" stroke="#000000" points="97,-694 97,-724 438,-724 438,-694 97,-694"/>
<text text-anchor="start" x="104" y="-705.4" font-family="Arial" font-size="14.00" fill="#000000">del_flg </text>
<text text-anchor="start" x="149.1248" y="-705.4" font-family="Arial" font-size="14.00" fill="#666666">[smallint]</text>
<text text-anchor="start" x="204.3422" y="-705.4" font-family="Arial" font-size="14.00" fill="#000000"> 削除フラグ</text>
<polygon fill="none" stroke="#000000" points="97,-664 97,-694 438,-694 438,-664 97,-664"/>
<text text-anchor="start" x="103.735" y="-675.4" font-family="Arial" font-size="14.00" fill="#000000">create_date </text>
<text text-anchor="start" x="181.5456" y="-675.4" font-family="Arial" font-size="14.00" fill="#666666">[timestamp without time zone]</text>
<text text-anchor="start" x="366.6858" y="-675.4" font-family="Arial" font-size="14.00" fill="#000000"> 作成日時</text>
<polygon fill="none" stroke="#000000" points="97,-634 97,-664 438,-664 438,-634 97,-634"/>
<text text-anchor="start" x="104" y="-645.4" font-family="Arial" font-size="14.00" fill="#000000">update_date </text>
<text text-anchor="start" x="185.7152" y="-645.4" font-family="Arial" font-size="14.00" fill="#666666">[timestamp without time zone]</text>
<text text-anchor="start" x="370.8554" y="-645.4" font-family="Arial" font-size="14.00" fill="#000000"> 更新日時</text>
<polygon fill="none" stroke="#000000" stroke-width="3" points="95,-632.5 95,-921.5 439,-921.5 439,-632.5 95,-632.5"/>
</g>
<!-- public.dtb_member -->
<g id="node3" class="node">
<title>public.dtb_member</title>
<polygon fill="#efefef" stroke="transparent" points="79,-463 79,-509 456,-509 456,-463 79,-463"/>
<polygon fill="none" stroke="#000000" points="79,-463 79,-509 456,-509 456,-463 79,-463"/>
<text text-anchor="start" x="142.3605" y="-486.8" font-family="Arial Bold" font-size="18.00" fill="#000000">public.dtb_member</text>
<text text-anchor="start" x="295.3857" y="-486.8" font-family="Arial" font-size="14.00" fill="#000000"> </text>
<text text-anchor="start" x="299.2763" y="-486.8" font-family="Arial" font-size="14.00" fill="#666666">[BASE TABLE]</text>
<text text-anchor="start" x="187.9016" y="-472.4" font-family="Arial" font-size="14.00" fill="#333333">管理画面メンバー情報</text>
<polygon fill="none" stroke="#000000" points="79,-433 79,-463 456,-463 456,-433 79,-433"/>
<text text-anchor="start" x="86" y="-444.4" font-family="Arial" font-size="14.00" fill="#000000">member_id </text>
<text text-anchor="start" x="159.892" y="-444.4" font-family="Arial" font-size="14.00" fill="#666666">[integer]</text>
<text text-anchor="start" x="210.4614" y="-444.4" font-family="Arial" font-size="14.00" fill="#000000"> メンバーID</text>
<polygon fill="none" stroke="#000000" points="79,-403 79,-433 456,-433 456,-403 79,-403"/>
<text text-anchor="start" x="86" y="-414.4" font-family="Arial" font-size="14.00" fill="#000000">name </text>
<text text-anchor="start" x="124.899" y="-414.4" font-family="Arial" font-size="14.00" fill="#666666">[text]</text>
<text text-anchor="start" x="155.244" y="-414.4" font-family="Arial" font-size="14.00" fill="#000000"> 名前</text>
<polygon fill="none" stroke="#000000" points="79,-373 79,-403 456,-403 456,-373 79,-373"/>
<text text-anchor="start" x="86" y="-384.4" font-family="Arial" font-size="14.00" fill="#000000">department </text>
<text text-anchor="start" x="160.6886" y="-384.4" font-family="Arial" font-size="14.00" fill="#666666">[text]</text>
<text text-anchor="start" x="191.0336" y="-384.4" font-family="Arial" font-size="14.00" fill="#000000"> 部門</text>
<polygon fill="none" stroke="#000000" points="79,-343 79,-373 456,-373 456,-343 79,-343"/>
<text text-anchor="start" x="86" y="-354.4" font-family="Arial" font-size="14.00" fill="#000000">login_id </text>
<text text-anchor="start" x="138.1234" y="-354.4" font-family="Arial" font-size="14.00" fill="#666666">[text]</text>
<text text-anchor="start" x="168.4684" y="-354.4" font-family="Arial" font-size="14.00" fill="#000000"> ログインID</text>
<polygon fill="none" stroke="#000000" points="79,-313 79,-343 456,-343 456,-313 79,-313"/>
<text text-anchor="start" x="86" y="-324.4" font-family="Arial" font-size="14.00" fill="#000000">password </text>
<text text-anchor="start" x="149.7882" y="-324.4" font-family="Arial" font-size="14.00" fill="#666666">[text]</text>
<text text-anchor="start" x="180.1332" y="-324.4" font-family="Arial" font-size="14.00" fill="#000000"> パスワード</text>
<polygon fill="none" stroke="#000000" points="79,-283 79,-313 456,-313 456,-283 79,-283"/>
<text text-anchor="start" x="86" y="-294.4" font-family="Arial" font-size="14.00" fill="#000000">salt </text>
<text text-anchor="start" x="111.6704" y="-294.4" font-family="Arial" font-size="14.00" fill="#666666">[text]</text>
<text text-anchor="start" x="142.0154" y="-294.4" font-family="Arial" font-size="14.00" fill="#000000"> 暗号化付与文字列</text>
<polygon fill="none" stroke="#000000" points="79,-253 79,-283 456,-283 456,-253 79,-253"/>
<text text-anchor="start" x="86" y="-264.4" font-family="Arial" font-size="14.00" fill="#000000">authority </text>
<text text-anchor="start" x="143.5694" y="-264.4" font-family="Arial" font-size="14.00" fill="#666666">[smallint]</text>
<text text-anchor="start" x="198.7868" y="-264.4" font-family="Arial" font-size="14.00" fill="#000000"> 権限</text>
<polygon fill="none" stroke="#000000" points="79,-223 79,-253 456,-253 456,-223 79,-223"/>
<text text-anchor="start" x="86" y="-234.4" font-family="Arial" font-size="14.00" fill="#000000">rank </text>
<text text-anchor="start" x="117.1164" y="-234.4" font-family="Arial" font-size="14.00" fill="#666666">[integer]</text>
<text text-anchor="start" x="167.6858" y="-234.4" font-family="Arial" font-size="14.00" fill="#000000"> 表示順</text>
<polygon fill="none" stroke="#000000" points="79,-193 79,-223 456,-223 456,-193 79,-193"/>
<text text-anchor="start" x="86" y="-204.4" font-family="Arial" font-size="14.00" fill="#000000">work </text>
<text text-anchor="start" x="119.4404" y="-204.4" font-family="Arial" font-size="14.00" fill="#666666">[smallint]</text>
<text text-anchor="start" x="174.6578" y="-204.4" font-family="Arial" font-size="14.00" fill="#000000"> 稼動フラグ</text>
<polygon fill="none" stroke="#000000" points="79,-163 79,-193 456,-193 456,-163 79,-163"/>
<text text-anchor="start" x="86" y="-174.4" font-family="Arial" font-size="14.00" fill="#000000">del_flg </text>
<text text-anchor="start" x="131.1248" y="-174.4" font-family="Arial" font-size="14.00" fill="#666666">[smallint]</text>
<text text-anchor="start" x="186.3422" y="-174.4" font-family="Arial" font-size="14.00" fill="#000000"> 削除フラグ</text>
<polygon fill="none" stroke="#000000" points="79,-133 79,-163 456,-163 456,-133 79,-133"/>
<text text-anchor="start" x="86" y="-144.4" font-family="Arial" font-size="14.00" fill="#000000">creator_id </text>
<text text-anchor="start" x="152.122" y="-144.4" font-family="Arial" font-size="14.00" fill="#666666">[integer]</text>
<text text-anchor="start" x="202.6914" y="-144.4" font-family="Arial" font-size="14.00" fill="#000000"> 作成者ID</text>
<polygon fill="none" stroke="#000000" points="79,-103 79,-133 456,-133 456,-103 79,-103"/>
<text text-anchor="start" x="86" y="-114.4" font-family="Arial" font-size="14.00" fill="#000000">create_date </text>
<text text-anchor="start" x="163.8106" y="-114.4" font-family="Arial" font-size="14.00" fill="#666666">[timestamp without time zone]</text>
<text text-anchor="start" x="348.9508" y="-114.4" font-family="Arial" font-size="14.00" fill="#000000"> 作成日時</text>
<polygon fill="none" stroke="#000000" points="79,-73 79,-103 456,-103 456,-73 79,-73"/>
<text text-anchor="start" x="86" y="-84.4" font-family="Arial" font-size="14.00" fill="#000000">update_date </text>
<text text-anchor="start" x="167.7152" y="-84.4" font-family="Arial" font-size="14.00" fill="#666666">[timestamp without time zone]</text>
<text text-anchor="start" x="352.8554" y="-84.4" font-family="Arial" font-size="14.00" fill="#000000"> 更新日付</text>
<polygon fill="none" stroke="#000000" points="79,-43 79,-73 456,-73 456,-43 79,-43"/>
<text text-anchor="start" x="85.9851" y="-54.4" font-family="Arial" font-size="14.00" fill="#000000">login_date </text>
<text text-anchor="start" x="154.4577" y="-54.4" font-family="Arial" font-size="14.00" fill="#666666">[timestamp without time zone]</text>
<text text-anchor="start" x="339.5979" y="-54.4" font-family="Arial" font-size="14.00" fill="#000000"> 最終ログイン日時</text>
</g>
<!-- public.dtb_mailtemplate&#45;&gt;public.dtb_member -->
<g id="edge2" class="edge">
<title>public.dtb_mailtemplate:creator_id&#45;&gt;public.dtb_member:member_id</title>
<path fill="none" stroke="#000000" stroke-dasharray="5,2" d="M87.1456,-736.6576C30.5415,-709.1178 17.6264,-448 79,-448"/>
<polygon fill="#000000" stroke="#000000" points="87.2711,-736.6874 95.9593,-743.378 92.1355,-737.8437 97,-739 97,-739 97,-739 92.1355,-737.8437 98.0407,-734.622 87.2711,-736.6874 87.2711,-736.6874"/>
<text text-anchor="start" x="7.3245" y="-749" font-family="Arial" font-size="10.00" fill="#000000">Additional Relation</text>
</g>
<!-- public.dtb_mail_history -->
<g id="node2" class="node">
<title>public.dtb_mail_history</title>
<polygon fill="#efefef" stroke="transparent" points="100,-1255 100,-1301 435,-1301 435,-1255 100,-1255"/>
<polygon fill="none" stroke="#000000" points="100,-1255 100,-1301 435,-1301 435,-1255 100,-1255"/>
<text text-anchor="start" x="127.3611" y="-1278.8" font-family="Arial Bold" font-size="18.00" fill="#000000">public.dtb_mail_history</text>
<text text-anchor="start" x="310.3851" y="-1278.8" font-family="Arial" font-size="14.00" fill="#000000"> </text>
<text text-anchor="start" x="314.2757" y="-1278.8" font-family="Arial" font-size="14.00" fill="#666666">[BASE TABLE]</text>
<text text-anchor="start" x="191.2742" y="-1264.4" font-family="Arial" font-size="14.00" fill="#333333">受注メール送信履歴</text>
<polygon fill="none" stroke="#000000" points="100,-1225 100,-1255 435,-1255 435,-1225 100,-1225"/>
<text text-anchor="start" x="107" y="-1236.4" font-family="Arial" font-size="14.00" fill="#000000">send_id </text>
<text text-anchor="start" x="159.9102" y="-1236.4" font-family="Arial" font-size="14.00" fill="#666666">[integer]</text>
<text text-anchor="start" x="210.4796" y="-1236.4" font-family="Arial" font-size="14.00" fill="#000000"> 送信ID</text>
<polygon fill="none" stroke="#000000" points="100,-1195 100,-1225 435,-1225 435,-1195 100,-1195"/>
<text text-anchor="start" x="107" y="-1206.4" font-family="Arial" font-size="14.00" fill="#000000">order_id </text>
<text text-anchor="start" x="162.2314" y="-1206.4" font-family="Arial" font-size="14.00" fill="#666666">[integer]</text>
<text text-anchor="start" x="212.8008" y="-1206.4" font-family="Arial" font-size="14.00" fill="#000000"> 受注ID</text>
<polygon fill="none" stroke="#000000" points="100,-1165 100,-1195 435,-1195 435,-1165 100,-1165"/>
<text text-anchor="start" x="106.8493" y="-1176.4" font-family="Arial" font-size="14.00" fill="#000000">send_date </text>
<text text-anchor="start" x="176.1087" y="-1176.4" font-family="Arial" font-size="14.00" fill="#666666">[timestamp without time zone]</text>
<text text-anchor="start" x="361.2489" y="-1176.4" font-family="Arial" font-size="14.00" fill="#000000"> 送信日時</text>
<polygon fill="none" stroke="#000000" points="100,-1135 100,-1165 435,-1165 435,-1135 100,-1135"/>
<text text-anchor="start" x="107" y="-1146.4" font-family="Arial" font-size="14.00" fill="#000000">template_id </text>
<text text-anchor="start" x="183.2412" y="-1146.4" font-family="Arial" font-size="14.00" fill="#666666">[integer]</text>
<text text-anchor="start" x="233.8106" y="-1146.4" font-family="Arial" font-size="14.00" fill="#000000"> テンプレートID</text>
<polygon fill="none" stroke="#000000" points="100,-1105 100,-1135 435,-1135 435,-1105 100,-1105"/>
<text text-anchor="start" x="107" y="-1116.4" font-family="Arial" font-size="14.00" fill="#000000">creator_id </text>
<text text-anchor="start" x="173.122" y="-1116.4" font-family="Arial" font-size="14.00" fill="#666666">[integer]</text>
<text text-anchor="start" x="223.6914" y="-1116.4" font-family="Arial" font-size="14.00" fill="#000000"> 作成者ID</text>
<polygon fill="none" stroke="#000000" points="100,-1075 100,-1105 435,-1105 435,-1075 100,-1075"/>
<text text-anchor="start" x="107" y="-1086.4" font-family="Arial" font-size="14.00" fill="#000000">subject </text>
<text text-anchor="start" x="155.2356" y="-1086.4" font-family="Arial" font-size="14.00" fill="#666666">[text]</text>
<text text-anchor="start" x="185.5806" y="-1086.4" font-family="Arial" font-size="14.00" fill="#000000"> 件名</text>
<polygon fill="none" stroke="#000000" points="100,-1045 100,-1075 435,-1075 435,-1045 100,-1045"/>
<text text-anchor="start" x="107" y="-1056.4" font-family="Arial" font-size="14.00" fill="#000000">mail_body </text>
<text text-anchor="start" x="174.6774" y="-1056.4" font-family="Arial" font-size="14.00" fill="#666666">[text]</text>
<text text-anchor="start" x="205.0224" y="-1056.4" font-family="Arial" font-size="14.00" fill="#000000"> メール本文</text>
</g>
<!-- public.dtb_mail_history&#45;&gt;public.dtb_mailtemplate -->
<g id="edge1" class="edge">
<title>public.dtb_mail_history:template_id&#45;&gt;public.dtb_mailtemplate:template_id</title>
<path fill="none" stroke="#000000" stroke-dasharray="5,2" d="M89.9444,-1147.4843C35.2042,-1119.0422 35.8665,-859 97,-859"/>
<polygon fill="#000000" stroke="#000000" points="90.299,-1147.5729 98.9078,-1154.3655 95.1495,-1148.7865 100,-1150 100,-1150 100,-1150 95.1495,-1148.7865 101.0922,-1145.6345 90.299,-1147.5729 90.299,-1147.5729"/>
<text text-anchor="start" x="10.3245" y="-1160" font-family="Arial" font-size="10.00" fill="#000000">Additional Relation</text>
</g>
</g>
</svg>
