<?xml version="1.0" encoding="UTF-8" standalone="no"?>
<!DOCTYPE svg PUBLIC "-//W3C//DTD SVG 1.1//EN"
 "http://www.w3.org/Graphics/SVG/1.1/DTD/svg11.dtd">
<!-- Generated by graphviz version 2.40.1 (20161225.0304)
 -->
<!-- Title: public.dtb_order_temp Pages: 1 -->
<svg width="467pt" height="1916pt"
 viewBox="0.00 0.00 467.00 1916.00" xmlns="http://www.w3.org/2000/svg" xmlns:xlink="http://www.w3.org/1999/xlink">
<g id="graph0" class="graph" transform="scale(1 1) rotate(0) translate(4 1912)">
<title>public.dtb_order_temp</title>
<polygon fill="#ffffff" stroke="transparent" points="-4,4 -4,-1912 463,-1912 463,4 -4,4"/>
<!-- public.dtb_order_temp -->
<g id="node1" class="node">
<title>public.dtb_order_temp</title>
<polygon fill="#efefef" stroke="transparent" points="46.5,-1816 46.5,-1862 413.5,-1862 413.5,-1816 46.5,-1816"/>
<polygon fill="none" stroke="#000000" points="46.5,-1816 46.5,-1862 413.5,-1862 413.5,-1816 46.5,-1816"/>
<text text-anchor="start" x="91.8501" y="-1839.8" font-family="Arial Bold" font-size="18.00" fill="#000000">public.dtb_order_temp</text>
<text text-anchor="start" x="270.8961" y="-1839.8" font-family="Arial" font-size="14.00" fill="#000000"> </text>
<text text-anchor="start" x="274.7867" y="-1839.8" font-family="Arial" font-size="14.00" fill="#666666">[BASE TABLE]</text>
<text text-anchor="start" x="189.5386" y="-1825.4" font-family="Arial" font-size="14.00" fill="#333333">受注一時情報</text>
<polygon fill="none" stroke="#000000" points="46.5,-1786 46.5,-1816 413.5,-1816 413.5,-1786 46.5,-1786"/>
<text text-anchor="start" x="53.5" y="-1797.4" font-family="Arial" font-size="14.00" fill="#000000">order_temp_id </text>
<text text-anchor="start" x="147.6304" y="-1797.4" font-family="Arial" font-size="14.00" fill="#666666">[text]</text>
<text text-anchor="start" x="177.9754" y="-1797.4" font-family="Arial" font-size="14.00" fill="#000000"> 受注一時情報ID</text>
<polygon fill="none" stroke="#000000" points="46.5,-1756 46.5,-1786 413.5,-1786 413.5,-1756 46.5,-1756"/>
<text text-anchor="start" x="53.5" y="-1767.4" font-family="Arial" font-size="14.00" fill="#000000">customer_id </text>
<text text-anchor="start" x="133.622" y="-1767.4" font-family="Arial" font-size="14.00" fill="#666666">[integer]</text>
<text text-anchor="start" x="184.1914" y="-1767.4" font-family="Arial" font-size="14.00" fill="#000000"> 顧客ID</text>
<polygon fill="none" stroke="#000000" points="46.5,-1726 46.5,-1756 413.5,-1756 413.5,-1726 46.5,-1726"/>
<text text-anchor="start" x="53.5" y="-1737.4" font-family="Arial" font-size="14.00" fill="#000000">message </text>
<text text-anchor="start" x="114.1816" y="-1737.4" font-family="Arial" font-size="14.00" fill="#666666">[text]</text>
<text text-anchor="start" x="144.5266" y="-1737.4" font-family="Arial" font-size="14.00" fill="#000000"> 要望等</text>
<polygon fill="none" stroke="#000000" points="46.5,-1696 46.5,-1726 413.5,-1726 413.5,-1696 46.5,-1696"/>
<text text-anchor="start" x="53.5" y="-1707.4" font-family="Arial" font-size="14.00" fill="#000000">order_name01 </text>
<text text-anchor="start" x="148.4158" y="-1707.4" font-family="Arial" font-size="14.00" fill="#666666">[text]</text>
<text text-anchor="start" x="178.7608" y="-1707.4" font-family="Arial" font-size="14.00" fill="#000000"> 顧客名(姓)</text>
<polygon fill="none" stroke="#000000" points="46.5,-1666 46.5,-1696 413.5,-1696 413.5,-1666 46.5,-1666"/>
<text text-anchor="start" x="53.5" y="-1677.4" font-family="Arial" font-size="14.00" fill="#000000">order_name02 </text>
<text text-anchor="start" x="148.4158" y="-1677.4" font-family="Arial" font-size="14.00" fill="#666666">[text]</text>
<text text-anchor="start" x="178.7608" y="-1677.4" font-family="Arial" font-size="14.00" fill="#000000"> 顧客名(名)</text>
<polygon fill="none" stroke="#000000" points="46.5,-1636 46.5,-1666 413.5,-1666 413.5,-1636 46.5,-1636"/>
<text text-anchor="start" x="53.5" y="-1647.4" font-family="Arial" font-size="14.00" fill="#000000">order_kana01 </text>
<text text-anchor="start" x="143.7552" y="-1647.4" font-family="Arial" font-size="14.00" fill="#666666">[text]</text>
<text text-anchor="start" x="174.1002" y="-1647.4" font-family="Arial" font-size="14.00" fill="#000000"> 顧客カナ(姓)</text>
<polygon fill="none" stroke="#000000" points="46.5,-1606 46.5,-1636 413.5,-1636 413.5,-1606 46.5,-1606"/>
<text text-anchor="start" x="53.5" y="-1617.4" font-family="Arial" font-size="14.00" fill="#000000">order_kana02 </text>
<text text-anchor="start" x="143.7552" y="-1617.4" font-family="Arial" font-size="14.00" fill="#666666">[text]</text>
<text text-anchor="start" x="174.1002" y="-1617.4" font-family="Arial" font-size="14.00" fill="#000000"> 顧客カナ(名)</text>
<polygon fill="none" stroke="#000000" points="46.5,-1576 46.5,-1606 413.5,-1606 413.5,-1576 46.5,-1576"/>
<text text-anchor="start" x="53.5" y="-1587.4" font-family="Arial" font-size="14.00" fill="#000000">order_company_name </text>
<text text-anchor="start" x="197.4242" y="-1587.4" font-family="Arial" font-size="14.00" fill="#666666">[text]</text>
<text text-anchor="start" x="227.7692" y="-1587.4" font-family="Arial" font-size="14.00" fill="#000000"> 【2.13】会社名</text>
<polygon fill="none" stroke="#000000" points="46.5,-1546 46.5,-1576 413.5,-1576 413.5,-1546 46.5,-1546"/>
<text text-anchor="start" x="53.5" y="-1557.4" font-family="Arial" font-size="14.00" fill="#000000">order_email </text>
<text text-anchor="start" x="131.2812" y="-1557.4" font-family="Arial" font-size="14.00" fill="#666666">[text]</text>
<text text-anchor="start" x="161.6262" y="-1557.4" font-family="Arial" font-size="14.00" fill="#000000"> 顧客メールアドレス</text>
<polygon fill="none" stroke="#000000" points="46.5,-1516 46.5,-1546 413.5,-1546 413.5,-1516 46.5,-1516"/>
<text text-anchor="start" x="53.5" y="-1527.4" font-family="Arial" font-size="14.00" fill="#000000">order_tel01 </text>
<text text-anchor="start" x="128.1872" y="-1527.4" font-family="Arial" font-size="14.00" fill="#666666">[text]</text>
<text text-anchor="start" x="158.5322" y="-1527.4" font-family="Arial" font-size="14.00" fill="#000000"> 顧客電話番号(市外局番)</text>
<polygon fill="none" stroke="#000000" points="46.5,-1486 46.5,-1516 413.5,-1516 413.5,-1486 46.5,-1486"/>
<text text-anchor="start" x="53.5" y="-1497.4" font-family="Arial" font-size="14.00" fill="#000000">order_tel02 </text>
<text text-anchor="start" x="128.1872" y="-1497.4" font-family="Arial" font-size="14.00" fill="#666666">[text]</text>
<text text-anchor="start" x="158.5322" y="-1497.4" font-family="Arial" font-size="14.00" fill="#000000"> 顧客電話番号(市内局番)</text>
<polygon fill="none" stroke="#000000" points="46.5,-1456 46.5,-1486 413.5,-1486 413.5,-1456 46.5,-1456"/>
<text text-anchor="start" x="53.5" y="-1467.4" font-family="Arial" font-size="14.00" fill="#000000">order_tel03 </text>
<text text-anchor="start" x="128.1872" y="-1467.4" font-family="Arial" font-size="14.00" fill="#666666">[text]</text>
<text text-anchor="start" x="158.5322" y="-1467.4" font-family="Arial" font-size="14.00" fill="#000000"> 顧客電話番号(局番)</text>
<polygon fill="none" stroke="#000000" points="46.5,-1426 46.5,-1456 413.5,-1456 413.5,-1426 46.5,-1426"/>
<text text-anchor="start" x="53.5" y="-1437.4" font-family="Arial" font-size="14.00" fill="#000000">order_fax01 </text>
<text text-anchor="start" x="132.0806" y="-1437.4" font-family="Arial" font-size="14.00" fill="#666666">[text]</text>
<text text-anchor="start" x="162.4256" y="-1437.4" font-family="Arial" font-size="14.00" fill="#000000"> 顧客FAX(市外局番)</text>
<polygon fill="none" stroke="#000000" points="46.5,-1396 46.5,-1426 413.5,-1426 413.5,-1396 46.5,-1396"/>
<text text-anchor="start" x="53.5" y="-1407.4" font-family="Arial" font-size="14.00" fill="#000000">order_fax02 </text>
<text text-anchor="start" x="132.0806" y="-1407.4" font-family="Arial" font-size="14.00" fill="#666666">[text]</text>
<text text-anchor="start" x="162.4256" y="-1407.4" font-family="Arial" font-size="14.00" fill="#000000"> 顧客FAX(市内局番)</text>
<polygon fill="none" stroke="#000000" points="46.5,-1366 46.5,-1396 413.5,-1396 413.5,-1366 46.5,-1366"/>
<text text-anchor="start" x="53.5" y="-1377.4" font-family="Arial" font-size="14.00" fill="#000000">order_fax03 </text>
<text text-anchor="start" x="132.0806" y="-1377.4" font-family="Arial" font-size="14.00" fill="#666666">[text]</text>
<text text-anchor="start" x="162.4256" y="-1377.4" font-family="Arial" font-size="14.00" fill="#000000"> 顧客FAX(局番)</text>
<polygon fill="none" stroke="#000000" points="46.5,-1336 46.5,-1366 413.5,-1366 413.5,-1336 46.5,-1336"/>
<text text-anchor="start" x="53.5" y="-1347.4" font-family="Arial" font-size="14.00" fill="#000000">order_zip01 </text>
<text text-anchor="start" x="131.2966" y="-1347.4" font-family="Arial" font-size="14.00" fill="#666666">[text]</text>
<text text-anchor="start" x="161.6416" y="-1347.4" font-family="Arial" font-size="14.00" fill="#000000"> 顧客郵便番号(4桁)</text>
<polygon fill="none" stroke="#000000" points="46.5,-1306 46.5,-1336 413.5,-1336 413.5,-1306 46.5,-1306"/>
<text text-anchor="start" x="53.5" y="-1317.4" font-family="Arial" font-size="14.00" fill="#000000">order_zip02 </text>
<text text-anchor="start" x="131.2966" y="-1317.4" font-family="Arial" font-size="14.00" fill="#666666">[text]</text>
<text text-anchor="start" x="161.6416" y="-1317.4" font-family="Arial" font-size="14.00" fill="#000000"> 顧客郵便番号(3桁)</text>
<polygon fill="none" stroke="#000000" points="46.5,-1276 46.5,-1306 413.5,-1306 413.5,-1276 46.5,-1276"/>
<text text-anchor="start" x="53.5" y="-1287.4" font-family="Arial" font-size="14.00" fill="#000000">order_zipcode </text>
<text text-anchor="start" x="146.0792" y="-1287.4" font-family="Arial" font-size="14.00" fill="#666666">[text]</text>
<text text-anchor="start" x="176.4242" y="-1287.4" font-family="Arial" font-size="14.00" fill="#000000"> 【2.13】顧客郵便番号(海外対応)</text>
<polygon fill="none" stroke="#000000" points="46.5,-1246 46.5,-1276 413.5,-1276 413.5,-1246 46.5,-1246"/>
<text text-anchor="start" x="53.5" y="-1257.4" font-family="Arial" font-size="14.00" fill="#000000">order_country_id </text>
<text text-anchor="start" x="162.413" y="-1257.4" font-family="Arial" font-size="14.00" fill="#666666">[integer]</text>
<text text-anchor="start" x="212.9824" y="-1257.4" font-family="Arial" font-size="14.00" fill="#000000"> 【2.13】顧客国ID</text>
<polygon fill="none" stroke="#000000" points="46.5,-1216 46.5,-1246 413.5,-1246 413.5,-1216 46.5,-1216"/>
<text text-anchor="start" x="53.5" y="-1227.4" font-family="Arial" font-size="14.00" fill="#000000">order_pref </text>
<text text-anchor="start" x="121.9586" y="-1227.4" font-family="Arial" font-size="14.00" fill="#666666">[smallint]</text>
<text text-anchor="start" x="177.176" y="-1227.4" font-family="Arial" font-size="14.00" fill="#000000"> 都道府県ID</text>
<polygon fill="none" stroke="#000000" points="46.5,-1186 46.5,-1216 413.5,-1216 413.5,-1186 46.5,-1186"/>
<text text-anchor="start" x="53.5" y="-1197.4" font-family="Arial" font-size="14.00" fill="#000000">order_addr01 </text>
<text text-anchor="start" x="141.4158" y="-1197.4" font-family="Arial" font-size="14.00" fill="#666666">[text]</text>
<text text-anchor="start" x="171.7608" y="-1197.4" font-family="Arial" font-size="14.00" fill="#000000"> 顧客住所1</text>
<polygon fill="none" stroke="#000000" points="46.5,-1156 46.5,-1186 413.5,-1186 413.5,-1156 46.5,-1156"/>
<text text-anchor="start" x="53.5" y="-1167.4" font-family="Arial" font-size="14.00" fill="#000000">order_addr02 </text>
<text text-anchor="start" x="141.4158" y="-1167.4" font-family="Arial" font-size="14.00" fill="#666666">[text]</text>
<text text-anchor="start" x="171.7608" y="-1167.4" font-family="Arial" font-size="14.00" fill="#000000"> 顧客住所2</text>
<polygon fill="none" stroke="#000000" points="46.5,-1126 46.5,-1156 413.5,-1156 413.5,-1126 46.5,-1126"/>
<text text-anchor="start" x="53.5" y="-1137.4" font-family="Arial" font-size="14.00" fill="#000000">order_sex </text>
<text text-anchor="start" x="119.6248" y="-1137.4" font-family="Arial" font-size="14.00" fill="#666666">[smallint]</text>
<text text-anchor="start" x="174.8422" y="-1137.4" font-family="Arial" font-size="14.00" fill="#000000"> 顧客性別</text>
<polygon fill="none" stroke="#000000" points="46.5,-1096 46.5,-1126 413.5,-1126 413.5,-1096 46.5,-1096"/>
<text text-anchor="start" x="53.0239" y="-1107.4" font-family="Arial" font-size="14.00" fill="#000000">order_birth </text>
<text text-anchor="start" x="124.5891" y="-1107.4" font-family="Arial" font-size="14.00" fill="#666666">[timestamp without time zone]</text>
<text text-anchor="start" x="309.7293" y="-1107.4" font-family="Arial" font-size="14.00" fill="#000000"> 顧客生年月日</text>
<polygon fill="none" stroke="#000000" points="46.5,-1066 46.5,-1096 413.5,-1096 413.5,-1066 46.5,-1066"/>
<text text-anchor="start" x="53.5" y="-1077.4" font-family="Arial" font-size="14.00" fill="#000000">order_job </text>
<text text-anchor="start" x="116.514" y="-1077.4" font-family="Arial" font-size="14.00" fill="#666666">[integer]</text>
<text text-anchor="start" x="167.0834" y="-1077.4" font-family="Arial" font-size="14.00" fill="#000000"> 顧客職業</text>
<polygon fill="none" stroke="#000000" points="46.5,-1036 46.5,-1066 413.5,-1066 413.5,-1036 46.5,-1036"/>
<text text-anchor="start" x="53.5" y="-1047.4" font-family="Arial" font-size="14.00" fill="#000000">subtotal </text>
<text text-anchor="start" x="106.4088" y="-1047.4" font-family="Arial" font-size="14.00" fill="#666666">[numeric]</text>
<text text-anchor="start" x="163.9656" y="-1047.4" font-family="Arial" font-size="14.00" fill="#000000"> 小計</text>
<polygon fill="none" stroke="#000000" points="46.5,-1006 46.5,-1036 413.5,-1036 413.5,-1006 46.5,-1006"/>
<text text-anchor="start" x="53.5" y="-1017.4" font-family="Arial" font-size="14.00" fill="#000000">discount </text>
<text text-anchor="start" x="109.5182" y="-1017.4" font-family="Arial" font-size="14.00" fill="#666666">[numeric]</text>
<text text-anchor="start" x="167.075" y="-1017.4" font-family="Arial" font-size="14.00" fill="#000000"> 値引き</text>
<polygon fill="none" stroke="#000000" points="46.5,-976 46.5,-1006 413.5,-1006 413.5,-976 46.5,-976"/>
<text text-anchor="start" x="53.5" y="-987.4" font-family="Arial" font-size="14.00" fill="#000000">deliv_id </text>
<text text-anchor="start" x="104.8408" y="-987.4" font-family="Arial" font-size="14.00" fill="#666666">[integer]</text>
<text text-anchor="start" x="155.4102" y="-987.4" font-family="Arial" font-size="14.00" fill="#000000"> 配送業者ID</text>
<polygon fill="none" stroke="#000000" points="46.5,-946 46.5,-976 413.5,-976 413.5,-946 46.5,-946"/>
<text text-anchor="start" x="53.5" y="-957.4" font-family="Arial" font-size="14.00" fill="#000000">deliv_fee </text>
<text text-anchor="start" x="113.4074" y="-957.4" font-family="Arial" font-size="14.00" fill="#666666">[numeric]</text>
<text text-anchor="start" x="170.9642" y="-957.4" font-family="Arial" font-size="14.00" fill="#000000"> 送料</text>
<polygon fill="none" stroke="#000000" points="46.5,-916 46.5,-946 413.5,-946 413.5,-916 46.5,-916"/>
<text text-anchor="start" x="53.5" y="-927.4" font-family="Arial" font-size="14.00" fill="#000000">charge </text>
<text text-anchor="start" x="100.1816" y="-927.4" font-family="Arial" font-size="14.00" fill="#666666">[numeric]</text>
<text text-anchor="start" x="157.7384" y="-927.4" font-family="Arial" font-size="14.00" fill="#000000"> 手数料</text>
<polygon fill="none" stroke="#000000" points="46.5,-886 46.5,-916 413.5,-916 413.5,-886 46.5,-886"/>
<text text-anchor="start" x="53.5" y="-897.4" font-family="Arial" font-size="14.00" fill="#000000">use_point </text>
<text text-anchor="start" x="118.0834" y="-897.4" font-family="Arial" font-size="14.00" fill="#666666">[numeric]</text>
<text text-anchor="start" x="175.6402" y="-897.4" font-family="Arial" font-size="14.00" fill="#000000"> 使用ポイント</text>
<polygon fill="none" stroke="#000000" points="46.5,-856 46.5,-886 413.5,-886 413.5,-856 46.5,-856"/>
<text text-anchor="start" x="53.5" y="-867.4" font-family="Arial" font-size="14.00" fill="#000000">add_point </text>
<text text-anchor="start" x="118.866" y="-867.4" font-family="Arial" font-size="14.00" fill="#666666">[numeric]</text>
<text text-anchor="start" x="176.4228" y="-867.4" font-family="Arial" font-size="14.00" fill="#000000"> 加算ポイント</text>
<polygon fill="none" stroke="#000000" points="46.5,-826 46.5,-856 413.5,-856 413.5,-826 46.5,-826"/>
<text text-anchor="start" x="53.5" y="-837.4" font-family="Arial" font-size="14.00" fill="#000000">birth_point </text>
<text text-anchor="start" x="122.7412" y="-837.4" font-family="Arial" font-size="14.00" fill="#666666">[numeric]</text>
<text text-anchor="start" x="180.298" y="-837.4" font-family="Arial" font-size="14.00" fill="#000000"> お誕生日ポイント</text>
<polygon fill="none" stroke="#000000" points="46.5,-796 46.5,-826 413.5,-826 413.5,-796 46.5,-796"/>
<text text-anchor="start" x="53.5" y="-807.4" font-family="Arial" font-size="14.00" fill="#000000">tax </text>
<text text-anchor="start" x="76.0638" y="-807.4" font-family="Arial" font-size="14.00" fill="#666666">[numeric]</text>
<text text-anchor="start" x="133.6206" y="-807.4" font-family="Arial" font-size="14.00" fill="#000000"> 税金</text>
<polygon fill="none" stroke="#000000" points="46.5,-766 46.5,-796 413.5,-796 413.5,-766 46.5,-766"/>
<text text-anchor="start" x="53.5" y="-777.4" font-family="Arial" font-size="14.00" fill="#000000">total </text>
<text text-anchor="start" x="83.8436" y="-777.4" font-family="Arial" font-size="14.00" fill="#666666">[numeric]</text>
<text text-anchor="start" x="141.4004" y="-777.4" font-family="Arial" font-size="14.00" fill="#000000"> 合計</text>
<polygon fill="none" stroke="#000000" points="46.5,-736 46.5,-766 413.5,-766 413.5,-736 46.5,-736"/>
<text text-anchor="start" x="53.5" y="-747.4" font-family="Arial" font-size="14.00" fill="#000000">payment_total </text>
<text text-anchor="start" x="145.3078" y="-747.4" font-family="Arial" font-size="14.00" fill="#666666">[numeric]</text>
<text text-anchor="start" x="202.8646" y="-747.4" font-family="Arial" font-size="14.00" fill="#000000"> 支払い合計</text>
<polygon fill="none" stroke="#000000" points="46.5,-706 46.5,-736 413.5,-736 413.5,-706 46.5,-706"/>
<text text-anchor="start" x="53.5" y="-717.4" font-family="Arial" font-size="14.00" fill="#000000">payment_id </text>
<text text-anchor="start" x="129.744" y="-717.4" font-family="Arial" font-size="14.00" fill="#666666">[integer]</text>
<text text-anchor="start" x="180.3134" y="-717.4" font-family="Arial" font-size="14.00" fill="#000000"> 支払方法ID</text>
<polygon fill="none" stroke="#000000" points="46.5,-676 46.5,-706 413.5,-706 413.5,-676 46.5,-676"/>
<text text-anchor="start" x="53.5" y="-687.4" font-family="Arial" font-size="14.00" fill="#000000">payment_method </text>
<text text-anchor="start" x="165.5364" y="-687.4" font-family="Arial" font-size="14.00" fill="#666666">[text]</text>
<text text-anchor="start" x="195.8814" y="-687.4" font-family="Arial" font-size="14.00" fill="#000000"> 支払方法</text>
<polygon fill="none" stroke="#000000" points="46.5,-646 46.5,-676 413.5,-676 413.5,-646 46.5,-646"/>
<text text-anchor="start" x="53.5" y="-657.4" font-family="Arial" font-size="14.00" fill="#000000">note </text>
<text text-anchor="start" x="84.629" y="-657.4" font-family="Arial" font-size="14.00" fill="#666666">[text]</text>
<text text-anchor="start" x="114.974" y="-657.4" font-family="Arial" font-size="14.00" fill="#000000"> 備考</text>
<polygon fill="none" stroke="#000000" points="46.5,-616 46.5,-646 413.5,-646 413.5,-616 46.5,-616"/>
<text text-anchor="start" x="53.5" y="-627.4" font-family="Arial" font-size="14.00" fill="#000000">mail_flag </text>
<text text-anchor="start" x="113.392" y="-627.4" font-family="Arial" font-size="14.00" fill="#666666">[smallint]</text>
<text text-anchor="start" x="168.6094" y="-627.4" font-family="Arial" font-size="14.00" fill="#000000"> メルマガ希望フラグ</text>
<polygon fill="none" stroke="#000000" points="46.5,-586 46.5,-616 413.5,-616 413.5,-586 46.5,-586"/>
<text text-anchor="start" x="53.5" y="-597.4" font-family="Arial" font-size="14.00" fill="#000000">status </text>
<text text-anchor="start" x="94.737" y="-597.4" font-family="Arial" font-size="14.00" fill="#666666">[smallint]</text>
<text text-anchor="start" x="149.9544" y="-597.4" font-family="Arial" font-size="14.00" fill="#000000"> 受注状態</text>
<polygon fill="none" stroke="#000000" points="46.5,-556 46.5,-586 413.5,-586 413.5,-556 46.5,-556"/>
<text text-anchor="start" x="53.5" y="-567.4" font-family="Arial" font-size="14.00" fill="#000000">deliv_check </text>
<text text-anchor="start" x="130.5168" y="-567.4" font-family="Arial" font-size="14.00" fill="#666666">[smallint]</text>
<text text-anchor="start" x="185.7342" y="-567.4" font-family="Arial" font-size="14.00" fill="#000000"> 属性0</text>
<polygon fill="none" stroke="#000000" points="46.5,-526 46.5,-556 413.5,-556 413.5,-526 46.5,-526"/>
<text text-anchor="start" x="53.5" y="-537.4" font-family="Arial" font-size="14.00" fill="#000000">point_check </text>
<text text-anchor="start" x="132.0834" y="-537.4" font-family="Arial" font-size="14.00" fill="#666666">[smallint]</text>
<text text-anchor="start" x="187.3008" y="-537.4" font-family="Arial" font-size="14.00" fill="#000000"> ポイント使用フラグ</text>
<polygon fill="none" stroke="#000000" points="46.5,-496 46.5,-526 413.5,-526 413.5,-496 46.5,-496"/>
<text text-anchor="start" x="53.5" y="-507.4" font-family="Arial" font-size="14.00" fill="#000000">create_date </text>
<text text-anchor="start" x="131.3106" y="-507.4" font-family="Arial" font-size="14.00" fill="#666666">[timestamp without time zone]</text>
<text text-anchor="start" x="316.4508" y="-507.4" font-family="Arial" font-size="14.00" fill="#000000"> 作成日時</text>
<polygon fill="none" stroke="#000000" points="46.5,-466 46.5,-496 413.5,-496 413.5,-466 46.5,-466"/>
<text text-anchor="start" x="53.5" y="-477.4" font-family="Arial" font-size="14.00" fill="#000000">update_date </text>
<text text-anchor="start" x="135.2152" y="-477.4" font-family="Arial" font-size="14.00" fill="#666666">[timestamp without time zone]</text>
<text text-anchor="start" x="320.3554" y="-477.4" font-family="Arial" font-size="14.00" fill="#000000"> 更新日時</text>
<polygon fill="none" stroke="#000000" points="46.5,-436 46.5,-466 413.5,-466 413.5,-436 46.5,-436"/>
<text text-anchor="start" x="53.5" y="-447.4" font-family="Arial" font-size="14.00" fill="#000000">device_type_id </text>
<text text-anchor="start" x="150.7552" y="-447.4" font-family="Arial" font-size="14.00" fill="#666666">[integer]</text>
<text text-anchor="start" x="201.3246" y="-447.4" font-family="Arial" font-size="14.00" fill="#000000"> 端末種別ID</text>
<polygon fill="none" stroke="#000000" points="46.5,-406 46.5,-436 413.5,-436 413.5,-406 46.5,-406"/>
<text text-anchor="start" x="53.5" y="-417.4" font-family="Arial" font-size="14.00" fill="#000000">del_flg </text>
<text text-anchor="start" x="98.6248" y="-417.4" font-family="Arial" font-size="14.00" fill="#666666">[smallint]</text>
<text text-anchor="start" x="153.8422" y="-417.4" font-family="Arial" font-size="14.00" fill="#000000"> 削除フラグ</text>
<polygon fill="none" stroke="#000000" points="46.5,-376 46.5,-406 413.5,-406 413.5,-376 46.5,-376"/>
<text text-anchor="start" x="53.5" y="-387.4" font-family="Arial" font-size="14.00" fill="#000000">order_id </text>
<text text-anchor="start" x="108.7314" y="-387.4" font-family="Arial" font-size="14.00" fill="#666666">[integer]</text>
<text text-anchor="start" x="159.3008" y="-387.4" font-family="Arial" font-size="14.00" fill="#000000"> 受注ID</text>
<polygon fill="none" stroke="#000000" points="46.5,-346 46.5,-376 413.5,-376 413.5,-346 46.5,-346"/>
<text text-anchor="start" x="53.5" y="-357.4" font-family="Arial" font-size="14.00" fill="#000000">memo01 </text>
<text text-anchor="start" x="111.8422" y="-357.4" font-family="Arial" font-size="14.00" fill="#666666">[text]</text>
<text text-anchor="start" x="142.1872" y="-357.4" font-family="Arial" font-size="14.00" fill="#000000"> 汎用項目1</text>
<polygon fill="none" stroke="#000000" points="46.5,-316 46.5,-346 413.5,-346 413.5,-316 46.5,-316"/>
<text text-anchor="start" x="53.5" y="-327.4" font-family="Arial" font-size="14.00" fill="#000000">memo02 </text>
<text text-anchor="start" x="111.8422" y="-327.4" font-family="Arial" font-size="14.00" fill="#666666">[text]</text>
<text text-anchor="start" x="142.1872" y="-327.4" font-family="Arial" font-size="14.00" fill="#000000"> 汎用項目2</text>
<polygon fill="none" stroke="#000000" points="46.5,-286 46.5,-316 413.5,-316 413.5,-286 46.5,-286"/>
<text text-anchor="start" x="53.5" y="-297.4" font-family="Arial" font-size="14.00" fill="#000000">memo03 </text>
<text text-anchor="start" x="111.8422" y="-297.4" font-family="Arial" font-size="14.00" fill="#666666">[text]</text>
<text text-anchor="start" x="142.1872" y="-297.4" font-family="Arial" font-size="14.00" fill="#000000"> 汎用項目3</text>
<polygon fill="none" stroke="#000000" points="46.5,-256 46.5,-286 413.5,-286 413.5,-256 46.5,-256"/>
<text text-anchor="start" x="53.5" y="-267.4" font-family="Arial" font-size="14.00" fill="#000000">memo04 </text>
<text text-anchor="start" x="111.8422" y="-267.4" font-family="Arial" font-size="14.00" fill="#666666">[text]</text>
<text text-anchor="start" x="142.1872" y="-267.4" font-family="Arial" font-size="14.00" fill="#000000"> 汎用項目4</text>
<polygon fill="none" stroke="#000000" points="46.5,-226 46.5,-256 413.5,-256 413.5,-226 46.5,-226"/>
<text text-anchor="start" x="53.5" y="-237.4" font-family="Arial" font-size="14.00" fill="#000000">memo05 </text>
<text text-anchor="start" x="111.8422" y="-237.4" font-family="Arial" font-size="14.00" fill="#666666">[text]</text>
<text text-anchor="start" x="142.1872" y="-237.4" font-family="Arial" font-size="14.00" fill="#000000"> 汎用項目5</text>
<polygon fill="none" stroke="#000000" points="46.5,-196 46.5,-226 413.5,-226 413.5,-196 46.5,-196"/>
<text text-anchor="start" x="53.5" y="-207.4" font-family="Arial" font-size="14.00" fill="#000000">memo06 </text>
<text text-anchor="start" x="111.8422" y="-207.4" font-family="Arial" font-size="14.00" fill="#666666">[text]</text>
<text text-anchor="start" x="142.1872" y="-207.4" font-family="Arial" font-size="14.00" fill="#000000"> 汎用項目6</text>
<polygon fill="none" stroke="#000000" points="46.5,-166 46.5,-196 413.5,-196 413.5,-166 46.5,-166"/>
<text text-anchor="start" x="53.5" y="-177.4" font-family="Arial" font-size="14.00" fill="#000000">memo07 </text>
<text text-anchor="start" x="111.8422" y="-177.4" font-family="Arial" font-size="14.00" fill="#666666">[text]</text>
<text text-anchor="start" x="142.1872" y="-177.4" font-family="Arial" font-size="14.00" fill="#000000"> 汎用項目7</text>
<polygon fill="none" stroke="#000000" points="46.5,-136 46.5,-166 413.5,-166 413.5,-136 46.5,-136"/>
<text text-anchor="start" x="53.5" y="-147.4" font-family="Arial" font-size="14.00" fill="#000000">memo08 </text>
<text text-anchor="start" x="111.8422" y="-147.4" font-family="Arial" font-size="14.00" fill="#666666">[text]</text>
<text text-anchor="start" x="142.1872" y="-147.4" font-family="Arial" font-size="14.00" fill="#000000"> 汎用項目8</text>
<polygon fill="none" stroke="#000000" points="46.5,-106 46.5,-136 413.5,-136 413.5,-106 46.5,-106"/>
<text text-anchor="start" x="53.5" y="-117.4" font-family="Arial" font-size="14.00" fill="#000000">memo09 </text>
<text text-anchor="start" x="111.8422" y="-117.4" font-family="Arial" font-size="14.00" fill="#666666">[text]</text>
<text text-anchor="start" x="142.1872" y="-117.4" font-family="Arial" font-size="14.00" fill="#000000"> 汎用項目9</text>
<polygon fill="none" stroke="#000000" points="46.5,-76 46.5,-106 413.5,-106 413.5,-76 46.5,-76"/>
<text text-anchor="start" x="53.5" y="-87.4" font-family="Arial" font-size="14.00" fill="#000000">memo10 </text>
<text text-anchor="start" x="111.8422" y="-87.4" font-family="Arial" font-size="14.00" fill="#666666">[text]</text>
<text text-anchor="start" x="142.1872" y="-87.4" font-family="Arial" font-size="14.00" fill="#000000"> 汎用項目10</text>
<polygon fill="none" stroke="#000000" points="46.5,-46 46.5,-76 413.5,-76 413.5,-46 46.5,-46"/>
<text text-anchor="start" x="53.5" y="-57.4" font-family="Arial" font-size="14.00" fill="#000000">session </text>
<text text-anchor="start" x="104.845" y="-57.4" font-family="Arial" font-size="14.00" fill="#666666">[text]</text>
<text text-anchor="start" x="135.19" y="-57.4" font-family="Arial" font-size="14.00" fill="#000000"> セッション情報</text>
<polygon fill="none" stroke="#000000" stroke-width="3" points="44.5,-44.5 44.5,-1863.5 414.5,-1863.5 414.5,-44.5 44.5,-44.5"/>
</g>
</g>
</svg>
