<?xml version="1.0" encoding="UTF-8" standalone="no"?>
<!DOCTYPE svg PUBLIC "-//W3C//DTD SVG 1.1//EN"
 "http://www.w3.org/Graphics/SVG/1.1/DTD/svg11.dtd">
<!-- Generated by graphviz version 2.40.1 (20161225.0304)
 -->
<!-- Title: public.dtb_bloc Pages: 1 -->
<svg width="838pt" height="1502pt"
 viewBox="0.00 0.00 838.00 1502.00" xmlns="http://www.w3.org/2000/svg" xmlns:xlink="http://www.w3.org/1999/xlink">
<g id="graph0" class="graph" transform="scale(1 1) rotate(0) translate(4 1498)">
<title>public.dtb_bloc</title>
<polygon fill="#ffffff" stroke="transparent" points="-4,4 -4,-1498 834,-1498 834,4 -4,4"/>
<!-- public.dtb_bloc -->
<g id="node1" class="node">
<title>public.dtb_bloc</title>
<polygon fill="#efefef" stroke="transparent" points="234.5,-1054 234.5,-1100 575.5,-1100 575.5,-1054 234.5,-1054"/>
<polygon fill="none" stroke="#000000" points="234.5,-1054 234.5,-1100 575.5,-1100 575.5,-1054 234.5,-1054"/>
<text text-anchor="start" x="296.3548" y="-1077.8" font-family="Arial Bold" font-size="18.00" fill="#000000">public.dtb_bloc</text>
<text text-anchor="start" x="416.3914" y="-1077.8" font-family="Arial" font-size="14.00" fill="#000000"> </text>
<text text-anchor="start" x="420.282" y="-1077.8" font-family="Arial" font-size="14.00" fill="#666666">[BASE TABLE]</text>
<text text-anchor="start" x="363.5229" y="-1063.4" font-family="Arial" font-size="14.00" fill="#333333">ブロック情報</text>
<polygon fill="none" stroke="#000000" points="234.5,-1024 234.5,-1054 575.5,-1054 575.5,-1024 234.5,-1024"/>
<text text-anchor="start" x="241.5" y="-1035.4" font-family="Arial" font-size="14.00" fill="#000000">device_type_id </text>
<text text-anchor="start" x="338.7552" y="-1035.4" font-family="Arial" font-size="14.00" fill="#666666">[integer]</text>
<text text-anchor="start" x="389.3246" y="-1035.4" font-family="Arial" font-size="14.00" fill="#000000"> 端末種別ID</text>
<polygon fill="none" stroke="#000000" points="234.5,-994 234.5,-1024 575.5,-1024 575.5,-994 234.5,-994"/>
<text text-anchor="start" x="241.5" y="-1005.4" font-family="Arial" font-size="14.00" fill="#000000">bloc_id </text>
<text text-anchor="start" x="289.7342" y="-1005.4" font-family="Arial" font-size="14.00" fill="#666666">[integer]</text>
<text text-anchor="start" x="340.3036" y="-1005.4" font-family="Arial" font-size="14.00" fill="#000000"> ブロックID</text>
<polygon fill="none" stroke="#000000" points="234.5,-964 234.5,-994 575.5,-994 575.5,-964 234.5,-964"/>
<text text-anchor="start" x="241.5" y="-975.4" font-family="Arial" font-size="14.00" fill="#000000">bloc_name </text>
<text text-anchor="start" x="313.8534" y="-975.4" font-family="Arial" font-size="14.00" fill="#666666">[text]</text>
<text text-anchor="start" x="344.1984" y="-975.4" font-family="Arial" font-size="14.00" fill="#000000"> ブロック名</text>
<polygon fill="none" stroke="#000000" points="234.5,-934 234.5,-964 575.5,-964 575.5,-934 234.5,-934"/>
<text text-anchor="start" x="241.5" y="-945.4" font-family="Arial" font-size="14.00" fill="#000000">tpl_path </text>
<text text-anchor="start" x="295.1914" y="-945.4" font-family="Arial" font-size="14.00" fill="#666666">[text]</text>
<text text-anchor="start" x="325.5364" y="-945.4" font-family="Arial" font-size="14.00" fill="#000000"> Smartyテンプレートパス</text>
<polygon fill="none" stroke="#000000" points="234.5,-904 234.5,-934 575.5,-934 575.5,-904 234.5,-904"/>
<text text-anchor="start" x="241.5" y="-915.4" font-family="Arial" font-size="14.00" fill="#000000">filename </text>
<text text-anchor="start" x="298.2854" y="-915.4" font-family="Arial" font-size="14.00" fill="#666666">[text]</text>
<text text-anchor="start" x="328.6304" y="-915.4" font-family="Arial" font-size="14.00" fill="#000000"> ファイル名</text>
<polygon fill="none" stroke="#000000" points="234.5,-874 234.5,-904 575.5,-904 575.5,-874 234.5,-874"/>
<text text-anchor="start" x="241.235" y="-885.4" font-family="Arial" font-size="14.00" fill="#000000">create_date </text>
<text text-anchor="start" x="319.0456" y="-885.4" font-family="Arial" font-size="14.00" fill="#666666">[timestamp without time zone]</text>
<text text-anchor="start" x="504.1858" y="-885.4" font-family="Arial" font-size="14.00" fill="#000000"> 作成日時</text>
<polygon fill="none" stroke="#000000" points="234.5,-844 234.5,-874 575.5,-874 575.5,-844 234.5,-844"/>
<text text-anchor="start" x="241.5" y="-855.4" font-family="Arial" font-size="14.00" fill="#000000">update_date </text>
<text text-anchor="start" x="323.2152" y="-855.4" font-family="Arial" font-size="14.00" fill="#666666">[timestamp without time zone]</text>
<text text-anchor="start" x="508.3554" y="-855.4" font-family="Arial" font-size="14.00" fill="#000000"> 更新日時</text>
<polygon fill="none" stroke="#000000" points="234.5,-814 234.5,-844 575.5,-844 575.5,-814 234.5,-814"/>
<text text-anchor="start" x="241.5" y="-825.4" font-family="Arial" font-size="14.00" fill="#000000">php_path </text>
<text text-anchor="start" x="303.7594" y="-825.4" font-family="Arial" font-size="14.00" fill="#666666">[text]</text>
<text text-anchor="start" x="334.1044" y="-825.4" font-family="Arial" font-size="14.00" fill="#000000"> PHPパス</text>
<polygon fill="none" stroke="#000000" points="234.5,-784 234.5,-814 575.5,-814 575.5,-784 234.5,-784"/>
<text text-anchor="start" x="241.5" y="-795.4" font-family="Arial" font-size="14.00" fill="#000000">deletable_flg </text>
<text text-anchor="start" x="324.7524" y="-795.4" font-family="Arial" font-size="14.00" fill="#666666">[smallint]</text>
<text text-anchor="start" x="379.9698" y="-795.4" font-family="Arial" font-size="14.00" fill="#000000"> 削除可能フラグ</text>
<polygon fill="none" stroke="#000000" points="234.5,-754 234.5,-784 575.5,-784 575.5,-754 234.5,-754"/>
<text text-anchor="start" x="241.5" y="-765.4" font-family="Arial" font-size="14.00" fill="#000000">plugin_id </text>
<text text-anchor="start" x="301.406" y="-765.4" font-family="Arial" font-size="14.00" fill="#666666">[integer]</text>
<text text-anchor="start" x="351.9754" y="-765.4" font-family="Arial" font-size="14.00" fill="#000000"> プラグインID</text>
<polygon fill="none" stroke="#000000" stroke-width="3" points="232.5,-752.5 232.5,-1101.5 576.5,-1101.5 576.5,-752.5 232.5,-752.5"/>
</g>
<!-- public.mtb_device_type -->
<g id="node2" class="node">
<title>public.mtb_device_type</title>
<polygon fill="#efefef" stroke="transparent" points="43.5,-358 43.5,-404 342.5,-404 342.5,-358 43.5,-358"/>
<polygon fill="none" stroke="#000000" points="43.5,-358 43.5,-404 342.5,-404 342.5,-358 43.5,-358"/>
<text text-anchor="start" x="50.3483" y="-381.8" font-family="Arial Bold" font-size="18.00" fill="#000000">public.mtb_device_type</text>
<text text-anchor="start" x="238.3979" y="-381.8" font-family="Arial" font-size="14.00" fill="#000000"> </text>
<text text-anchor="start" x="242.2885" y="-381.8" font-family="Arial" font-size="14.00" fill="#666666">[BASE TABLE]</text>
<text text-anchor="start" x="158.763" y="-367.4" font-family="Arial" font-size="14.00" fill="#333333">端末種別</text>
<polygon fill="none" stroke="#000000" points="43.5,-328 43.5,-358 342.5,-358 342.5,-328 43.5,-328"/>
<text text-anchor="start" x="50.5" y="-339.4" font-family="Arial" font-size="14.00" fill="#000000">id </text>
<text text-anchor="start" x="65.2798" y="-339.4" font-family="Arial" font-size="14.00" fill="#666666">[smallint]</text>
<text text-anchor="start" x="120.4972" y="-339.4" font-family="Arial" font-size="14.00" fill="#000000"> ID</text>
<polygon fill="none" stroke="#000000" points="43.5,-298 43.5,-328 342.5,-328 342.5,-298 43.5,-298"/>
<text text-anchor="start" x="50.5" y="-309.4" font-family="Arial" font-size="14.00" fill="#000000">name </text>
<text text-anchor="start" x="89.399" y="-309.4" font-family="Arial" font-size="14.00" fill="#666666">[text]</text>
<text text-anchor="start" x="119.744" y="-309.4" font-family="Arial" font-size="14.00" fill="#000000"> 名称</text>
<polygon fill="none" stroke="#000000" points="43.5,-268 43.5,-298 342.5,-298 342.5,-268 43.5,-268"/>
<text text-anchor="start" x="50.5" y="-279.4" font-family="Arial" font-size="14.00" fill="#000000">rank </text>
<text text-anchor="start" x="81.6164" y="-279.4" font-family="Arial" font-size="14.00" fill="#666666">[smallint]</text>
<text text-anchor="start" x="136.8338" y="-279.4" font-family="Arial" font-size="14.00" fill="#000000"> 表示順</text>
</g>
<!-- public.dtb_bloc&#45;&gt;public.mtb_device_type -->
<g id="edge1" class="edge">
<title>public.dtb_bloc:device_type_id&#45;&gt;public.mtb_device_type:id</title>
<path fill="none" stroke="#000000" stroke-dasharray="5,2" d="M224.1949,-1038.6695C93.1184,-1029.9086 206.526,-848.7669 234.5,-708 258.9693,-584.869 318.0307,-570.131 342.5,-447 351.5094,-401.6643 388.7222,-343 342.5,-343"/>
<polygon fill="#000000" stroke="#000000" points="224.5051,-1038.6793 234.3557,-1043.4977 229.5026,-1038.8397 234.5,-1039 234.5,-1039 234.5,-1039 229.5026,-1038.8397 234.6443,-1034.5023 224.5051,-1038.6793 224.5051,-1038.6793"/>
<text text-anchor="start" x="144.8245" y="-1049" font-family="Arial" font-size="10.00" fill="#000000">Additional Relation</text>
</g>
<!-- public.dtb_plugin -->
<g id="node4" class="node">
<title>public.dtb_plugin</title>
<polygon fill="#efefef" stroke="transparent" points="446.5,-583 446.5,-629 787.5,-629 787.5,-583 446.5,-583"/>
<polygon fill="none" stroke="#000000" points="446.5,-583 446.5,-629 787.5,-629 787.5,-583 446.5,-583"/>
<text text-anchor="start" x="500.8515" y="-606.8" font-family="Arial Bold" font-size="18.00" fill="#000000">public.dtb_plugin</text>
<text text-anchor="start" x="635.8947" y="-606.8" font-family="Arial" font-size="14.00" fill="#000000"> </text>
<text text-anchor="start" x="639.7853" y="-606.8" font-family="Arial" font-size="14.00" fill="#666666">[BASE TABLE]</text>
<text text-anchor="start" x="570.4227" y="-592.4" font-family="Arial" font-size="14.00" fill="#333333">プラグイン情報</text>
<polygon fill="none" stroke="#000000" points="446.5,-553 446.5,-583 787.5,-583 787.5,-553 446.5,-553"/>
<text text-anchor="start" x="453.5" y="-564.4" font-family="Arial" font-size="14.00" fill="#000000">plugin_id </text>
<text text-anchor="start" x="513.406" y="-564.4" font-family="Arial" font-size="14.00" fill="#666666">[integer]</text>
<text text-anchor="start" x="563.9754" y="-564.4" font-family="Arial" font-size="14.00" fill="#000000"> プラグインID</text>
<polygon fill="none" stroke="#000000" points="446.5,-523 446.5,-553 787.5,-553 787.5,-523 446.5,-523"/>
<text text-anchor="start" x="453.5" y="-534.4" font-family="Arial" font-size="14.00" fill="#000000">plugin_name </text>
<text text-anchor="start" x="537.5252" y="-534.4" font-family="Arial" font-size="14.00" fill="#666666">[text]</text>
<text text-anchor="start" x="567.8702" y="-534.4" font-family="Arial" font-size="14.00" fill="#000000"> プラグイン名</text>
<polygon fill="none" stroke="#000000" points="446.5,-493 446.5,-523 787.5,-523 787.5,-493 446.5,-493"/>
<text text-anchor="start" x="453.5" y="-504.4" font-family="Arial" font-size="14.00" fill="#000000">plugin_code </text>
<text text-anchor="start" x="532.8646" y="-504.4" font-family="Arial" font-size="14.00" fill="#666666">[text]</text>
<text text-anchor="start" x="563.2096" y="-504.4" font-family="Arial" font-size="14.00" fill="#000000"> プラグインコード</text>
<polygon fill="none" stroke="#000000" points="446.5,-463 446.5,-493 787.5,-493 787.5,-463 446.5,-463"/>
<text text-anchor="start" x="453.5" y="-474.4" font-family="Arial" font-size="14.00" fill="#000000">class_name </text>
<text text-anchor="start" x="532.0708" y="-474.4" font-family="Arial" font-size="14.00" fill="#666666">[text]</text>
<text text-anchor="start" x="562.4158" y="-474.4" font-family="Arial" font-size="14.00" fill="#000000"> クラス名</text>
<polygon fill="none" stroke="#000000" points="446.5,-433 446.5,-463 787.5,-463 787.5,-433 446.5,-433"/>
<text text-anchor="start" x="453.5" y="-444.4" font-family="Arial" font-size="14.00" fill="#000000">author </text>
<text text-anchor="start" x="497.0722" y="-444.4" font-family="Arial" font-size="14.00" fill="#666666">[text]</text>
<text text-anchor="start" x="527.4172" y="-444.4" font-family="Arial" font-size="14.00" fill="#000000"> 作成者</text>
<polygon fill="none" stroke="#000000" points="446.5,-403 446.5,-433 787.5,-433 787.5,-403 446.5,-403"/>
<text text-anchor="start" x="453.5" y="-414.4" font-family="Arial" font-size="14.00" fill="#000000">author_site_url </text>
<text text-anchor="start" x="549.967" y="-414.4" font-family="Arial" font-size="14.00" fill="#666666">[text]</text>
<text text-anchor="start" x="580.312" y="-414.4" font-family="Arial" font-size="14.00" fill="#000000"> 作成者サイトURL</text>
<polygon fill="none" stroke="#000000" points="446.5,-373 446.5,-403 787.5,-403 787.5,-373 446.5,-373"/>
<text text-anchor="start" x="453.5" y="-384.4" font-family="Arial" font-size="14.00" fill="#000000">plugin_site_url </text>
<text text-anchor="start" x="547.629" y="-384.4" font-family="Arial" font-size="14.00" fill="#666666">[text]</text>
<text text-anchor="start" x="577.974" y="-384.4" font-family="Arial" font-size="14.00" fill="#000000"> サイトURL</text>
<polygon fill="none" stroke="#000000" points="446.5,-343 446.5,-373 787.5,-373 787.5,-343 446.5,-343"/>
<text text-anchor="start" x="453.5" y="-354.4" font-family="Arial" font-size="14.00" fill="#000000">plugin_version </text>
<text text-anchor="start" x="547.6318" y="-354.4" font-family="Arial" font-size="14.00" fill="#666666">[text]</text>
<text text-anchor="start" x="577.9768" y="-354.4" font-family="Arial" font-size="14.00" fill="#000000"> バージョン</text>
<polygon fill="none" stroke="#000000" points="446.5,-313 446.5,-343 787.5,-343 787.5,-313 446.5,-313"/>
<text text-anchor="start" x="453.5" y="-324.4" font-family="Arial" font-size="14.00" fill="#000000">compliant_version </text>
<text text-anchor="start" x="570.183" y="-324.4" font-family="Arial" font-size="14.00" fill="#666666">[text]</text>
<text text-anchor="start" x="600.528" y="-324.4" font-family="Arial" font-size="14.00" fill="#000000"> 本体対応バージョン</text>
<polygon fill="none" stroke="#000000" points="446.5,-283 446.5,-313 787.5,-313 787.5,-283 446.5,-283"/>
<text text-anchor="start" x="453.5" y="-294.4" font-family="Arial" font-size="14.00" fill="#000000">plugin_description </text>
<text text-anchor="start" x="570.1942" y="-294.4" font-family="Arial" font-size="14.00" fill="#666666">[text]</text>
<text text-anchor="start" x="600.5392" y="-294.4" font-family="Arial" font-size="14.00" fill="#000000"> 詳細説明</text>
<polygon fill="none" stroke="#000000" points="446.5,-253 446.5,-283 787.5,-283 787.5,-253 446.5,-253"/>
<text text-anchor="start" x="453.5" y="-264.4" font-family="Arial" font-size="14.00" fill="#000000">priority </text>
<text text-anchor="start" x="499.3808" y="-264.4" font-family="Arial" font-size="14.00" fill="#666666">[integer]</text>
<text text-anchor="start" x="549.9502" y="-264.4" font-family="Arial" font-size="14.00" fill="#000000"> 優先度</text>
<polygon fill="none" stroke="#000000" points="446.5,-223 446.5,-253 787.5,-253 787.5,-223 446.5,-223"/>
<text text-anchor="start" x="453.5" y="-234.4" font-family="Arial" font-size="14.00" fill="#000000">enable </text>
<text text-anchor="start" x="499.4102" y="-234.4" font-family="Arial" font-size="14.00" fill="#666666">[smallint]</text>
<text text-anchor="start" x="554.6276" y="-234.4" font-family="Arial" font-size="14.00" fill="#000000"> 有効</text>
<polygon fill="none" stroke="#000000" points="446.5,-193 446.5,-223 787.5,-223 787.5,-193 446.5,-193"/>
<text text-anchor="start" x="453.5" y="-204.4" font-family="Arial" font-size="14.00" fill="#000000">free_field1 </text>
<text text-anchor="start" x="522.7412" y="-204.4" font-family="Arial" font-size="14.00" fill="#666666">[text]</text>
<text text-anchor="start" x="553.0862" y="-204.4" font-family="Arial" font-size="14.00" fill="#000000"> 任意項目１</text>
<polygon fill="none" stroke="#000000" points="446.5,-163 446.5,-193 787.5,-193 787.5,-163 446.5,-163"/>
<text text-anchor="start" x="453.5" y="-174.4" font-family="Arial" font-size="14.00" fill="#000000">free_field2 </text>
<text text-anchor="start" x="522.7412" y="-174.4" font-family="Arial" font-size="14.00" fill="#666666">[text]</text>
<text text-anchor="start" x="553.0862" y="-174.4" font-family="Arial" font-size="14.00" fill="#000000"> 任意項目２</text>
<polygon fill="none" stroke="#000000" points="446.5,-133 446.5,-163 787.5,-163 787.5,-133 446.5,-133"/>
<text text-anchor="start" x="453.5" y="-144.4" font-family="Arial" font-size="14.00" fill="#000000">free_field3 </text>
<text text-anchor="start" x="522.7412" y="-144.4" font-family="Arial" font-size="14.00" fill="#666666">[text]</text>
<text text-anchor="start" x="553.0862" y="-144.4" font-family="Arial" font-size="14.00" fill="#000000"> 任意項目３</text>
<polygon fill="none" stroke="#000000" points="446.5,-103 446.5,-133 787.5,-133 787.5,-103 446.5,-103"/>
<text text-anchor="start" x="453.5" y="-114.4" font-family="Arial" font-size="14.00" fill="#000000">free_field4 </text>
<text text-anchor="start" x="522.7412" y="-114.4" font-family="Arial" font-size="14.00" fill="#666666">[text]</text>
<text text-anchor="start" x="553.0862" y="-114.4" font-family="Arial" font-size="14.00" fill="#000000"> 任意項目４</text>
<polygon fill="none" stroke="#000000" points="446.5,-73 446.5,-103 787.5,-103 787.5,-73 446.5,-73"/>
<text text-anchor="start" x="453.235" y="-84.4" font-family="Arial" font-size="14.00" fill="#000000">create_date </text>
<text text-anchor="start" x="531.0456" y="-84.4" font-family="Arial" font-size="14.00" fill="#666666">[timestamp without time zone]</text>
<text text-anchor="start" x="716.1858" y="-84.4" font-family="Arial" font-size="14.00" fill="#000000"> 作成日時</text>
<polygon fill="none" stroke="#000000" points="446.5,-43 446.5,-73 787.5,-73 787.5,-43 446.5,-43"/>
<text text-anchor="start" x="453.5" y="-54.4" font-family="Arial" font-size="14.00" fill="#000000">update_date </text>
<text text-anchor="start" x="535.2152" y="-54.4" font-family="Arial" font-size="14.00" fill="#666666">[timestamp without time zone]</text>
<text text-anchor="start" x="720.3554" y="-54.4" font-family="Arial" font-size="14.00" fill="#000000"> 更新日時</text>
</g>
<!-- public.dtb_bloc&#45;&gt;public.dtb_plugin -->
<g id="edge3" class="edge">
<title>public.dtb_bloc:plugin_id&#45;&gt;public.dtb_plugin:plugin_id</title>
<path fill="none" stroke="#000000" stroke-dasharray="5,2" d="M585.5603,-766.3321C599.1231,-757.1204 589.3313,-726.2198 575.5,-708 539.5088,-660.5896 482.4912,-719.4104 446.5,-672 418.5518,-635.1844 400.2778,-568 446.5,-568"/>
<polygon fill="#000000" stroke="#000000" points="585.1659,-766.4366 574.3465,-764.6504 580.3329,-767.7183 575.5,-769 575.5,-769 575.5,-769 580.3329,-767.7183 576.6535,-773.3496 585.1659,-766.4366 585.1659,-766.4366"/>
<text text-anchor="start" x="582.8245" y="-779" font-family="Arial" font-size="10.00" fill="#000000">Additional Relation</text>
</g>
<!-- public.dtb_blocposition -->
<g id="node3" class="node">
<title>public.dtb_blocposition</title>
<polygon fill="#efefef" stroke="transparent" points="242.5,-1405 242.5,-1451 567.5,-1451 567.5,-1405 242.5,-1405"/>
<polygon fill="none" stroke="#000000" points="242.5,-1405 242.5,-1451 567.5,-1451 567.5,-1405 242.5,-1405"/>
<text text-anchor="start" x="265.3471" y="-1428.8" font-family="Arial Bold" font-size="18.00" fill="#000000">public.dtb_blocposition</text>
<text text-anchor="start" x="447.3991" y="-1428.8" font-family="Arial" font-size="14.00" fill="#000000"> </text>
<text text-anchor="start" x="451.2897" y="-1428.8" font-family="Arial" font-size="14.00" fill="#666666">[BASE TABLE]</text>
<text text-anchor="start" x="341.7417" y="-1414.4" font-family="Arial" font-size="14.00" fill="#333333">ブロック配置情報</text>
<polygon fill="none" stroke="#000000" points="242.5,-1375 242.5,-1405 567.5,-1405 567.5,-1375 242.5,-1375"/>
<text text-anchor="start" x="249.5" y="-1386.4" font-family="Arial" font-size="14.00" fill="#000000">device_type_id </text>
<text text-anchor="start" x="346.7552" y="-1386.4" font-family="Arial" font-size="14.00" fill="#666666">[integer]</text>
<text text-anchor="start" x="397.3246" y="-1386.4" font-family="Arial" font-size="14.00" fill="#000000"> 端末種別ID</text>
<polygon fill="none" stroke="#000000" points="242.5,-1345 242.5,-1375 567.5,-1375 567.5,-1345 242.5,-1345"/>
<text text-anchor="start" x="249.5" y="-1356.4" font-family="Arial" font-size="14.00" fill="#000000">page_id </text>
<text text-anchor="start" x="303.1928" y="-1356.4" font-family="Arial" font-size="14.00" fill="#666666">[integer]</text>
<text text-anchor="start" x="353.7622" y="-1356.4" font-family="Arial" font-size="14.00" fill="#000000"> ページID</text>
<polygon fill="none" stroke="#000000" points="242.5,-1315 242.5,-1345 567.5,-1345 567.5,-1315 242.5,-1315"/>
<text text-anchor="start" x="249.5" y="-1326.4" font-family="Arial" font-size="14.00" fill="#000000">target_id </text>
<text text-anchor="start" x="307.852" y="-1326.4" font-family="Arial" font-size="14.00" fill="#666666">[integer]</text>
<text text-anchor="start" x="358.4214" y="-1326.4" font-family="Arial" font-size="14.00" fill="#000000"> 配置ID</text>
<polygon fill="none" stroke="#000000" points="242.5,-1285 242.5,-1315 567.5,-1315 567.5,-1285 242.5,-1285"/>
<text text-anchor="start" x="249.5" y="-1296.4" font-family="Arial" font-size="14.00" fill="#000000">bloc_id </text>
<text text-anchor="start" x="297.7342" y="-1296.4" font-family="Arial" font-size="14.00" fill="#666666">[integer]</text>
<text text-anchor="start" x="348.3036" y="-1296.4" font-family="Arial" font-size="14.00" fill="#000000"> ブロックID</text>
<polygon fill="none" stroke="#000000" points="242.5,-1255 242.5,-1285 567.5,-1285 567.5,-1255 242.5,-1255"/>
<text text-anchor="start" x="249.5" y="-1266.4" font-family="Arial" font-size="14.00" fill="#000000">bloc_row </text>
<text text-anchor="start" x="309.3948" y="-1266.4" font-family="Arial" font-size="14.00" fill="#666666">[integer]</text>
<text text-anchor="start" x="359.9642" y="-1266.4" font-family="Arial" font-size="14.00" fill="#000000"> ブロック配置順序</text>
<polygon fill="none" stroke="#000000" points="242.5,-1225 242.5,-1255 567.5,-1255 567.5,-1225 242.5,-1225"/>
<text text-anchor="start" x="249.2787" y="-1236.4" font-family="Arial" font-size="14.00" fill="#000000">anywhere </text>
<text text-anchor="start" x="313.8495" y="-1236.4" font-family="Arial" font-size="14.00" fill="#666666">[smallint]</text>
<text text-anchor="start" x="369.0669" y="-1236.4" font-family="Arial" font-size="14.00" fill="#000000"> 全ページに配置するフラグ</text>
</g>
<!-- public.dtb_blocposition&#45;&gt;public.dtb_bloc -->
<g id="edge2" class="edge">
<title>public.dtb_blocposition:bloc_id&#45;&gt;public.dtb_bloc:bloc_id</title>
<path fill="none" stroke="#000000" stroke-dasharray="5,2" d="M232.1592,-1299.3592C112.783,-1284.3035 108.6556,-1009 234.5,-1009"/>
<polygon fill="#000000" stroke="#000000" points="232.5191,-1299.3814 242.2216,-1304.4914 237.5096,-1299.6907 242.5,-1300 242.5,-1300 242.5,-1300 237.5096,-1299.6907 242.7784,-1295.5086 232.5191,-1299.3814 232.5191,-1299.3814"/>
<text text-anchor="start" x="152.8245" y="-1310" font-family="Arial" font-size="10.00" fill="#000000">Additional Relation</text>
</g>
</g>
</svg>
