<?xml version="1.0" encoding="UTF-8" standalone="no"?>
<!DOCTYPE svg PUBLIC "-//W3C//DTD SVG 1.1//EN"
 "http://www.w3.org/Graphics/SVG/1.1/DTD/svg11.dtd">
<!-- Generated by graphviz version 2.40.1 (20161225.0304)
 -->
<!-- Title: public.dtb_payment Pages: 1 -->
<svg width="441pt" height="1016pt"
 viewBox="0.00 0.00 441.00 1016.00" xmlns="http://www.w3.org/2000/svg" xmlns:xlink="http://www.w3.org/1999/xlink">
<g id="graph0" class="graph" transform="scale(1 1) rotate(0) translate(4 1012)">
<title>public.dtb_payment</title>
<polygon fill="#ffffff" stroke="transparent" points="-4,4 -4,-1012 437,-1012 437,4 -4,4"/>
<!-- public.dtb_payment -->
<g id="node1" class="node">
<title>public.dtb_payment</title>
<polygon fill="#efefef" stroke="transparent" points="46.5,-916 46.5,-962 387.5,-962 387.5,-916 46.5,-916"/>
<polygon fill="none" stroke="#000000" points="46.5,-916 46.5,-962 387.5,-962 387.5,-916 46.5,-916"/>
<text text-anchor="start" x="90.3485" y="-939.8" font-family="Arial Bold" font-size="18.00" fill="#000000">public.dtb_payment</text>
<text text-anchor="start" x="246.3977" y="-939.8" font-family="Arial" font-size="14.00" fill="#000000"> </text>
<text text-anchor="start" x="250.2883" y="-939.8" font-family="Arial" font-size="14.00" fill="#666666">[BASE TABLE]</text>
<text text-anchor="start" x="176.1529" y="-925.4" font-family="Arial" font-size="14.00" fill="#333333">支払方法情報</text>
<polygon fill="none" stroke="#000000" points="46.5,-886 46.5,-916 387.5,-916 387.5,-886 46.5,-886"/>
<text text-anchor="start" x="53.5" y="-897.4" font-family="Arial" font-size="14.00" fill="#000000">payment_id </text>
<text text-anchor="start" x="129.744" y="-897.4" font-family="Arial" font-size="14.00" fill="#666666">[integer]</text>
<text text-anchor="start" x="180.3134" y="-897.4" font-family="Arial" font-size="14.00" fill="#000000"> 支払方法ID</text>
<polygon fill="none" stroke="#000000" points="46.5,-856 46.5,-886 387.5,-886 387.5,-856 46.5,-856"/>
<text text-anchor="start" x="53.5" y="-867.4" font-family="Arial" font-size="14.00" fill="#000000">payment_method </text>
<text text-anchor="start" x="165.5364" y="-867.4" font-family="Arial" font-size="14.00" fill="#666666">[text]</text>
<text text-anchor="start" x="195.8814" y="-867.4" font-family="Arial" font-size="14.00" fill="#000000"> 支払方法</text>
<polygon fill="none" stroke="#000000" points="46.5,-826 46.5,-856 387.5,-856 387.5,-826 46.5,-826"/>
<text text-anchor="start" x="53.5" y="-837.4" font-family="Arial" font-size="14.00" fill="#000000">charge </text>
<text text-anchor="start" x="100.1816" y="-837.4" font-family="Arial" font-size="14.00" fill="#666666">[numeric]</text>
<text text-anchor="start" x="157.7384" y="-837.4" font-family="Arial" font-size="14.00" fill="#000000"> 手数料</text>
<polygon fill="none" stroke="#000000" points="46.5,-796 46.5,-826 387.5,-826 387.5,-796 46.5,-796"/>
<text text-anchor="start" x="53.5" y="-807.4" font-family="Arial" font-size="14.00" fill="#000000">rule_max </text>
<text text-anchor="start" x="114.9488" y="-807.4" font-family="Arial" font-size="14.00" fill="#666666">[numeric]</text>
<text text-anchor="start" x="172.5056" y="-807.4" font-family="Arial" font-size="14.00" fill="#000000"> 利用条件(円以上)</text>
<polygon fill="none" stroke="#000000" points="46.5,-766 46.5,-796 387.5,-796 387.5,-766 46.5,-766"/>
<text text-anchor="start" x="53.5" y="-777.4" font-family="Arial" font-size="14.00" fill="#000000">rank </text>
<text text-anchor="start" x="84.6164" y="-777.4" font-family="Arial" font-size="14.00" fill="#666666">[integer]</text>
<text text-anchor="start" x="135.1858" y="-777.4" font-family="Arial" font-size="14.00" fill="#000000"> 表示順</text>
<polygon fill="none" stroke="#000000" points="46.5,-736 46.5,-766 387.5,-766 387.5,-736 46.5,-736"/>
<text text-anchor="start" x="53.5" y="-747.4" font-family="Arial" font-size="14.00" fill="#000000">note </text>
<text text-anchor="start" x="84.629" y="-747.4" font-family="Arial" font-size="14.00" fill="#666666">[text]</text>
<text text-anchor="start" x="114.974" y="-747.4" font-family="Arial" font-size="14.00" fill="#000000"> 備考</text>
<polygon fill="none" stroke="#000000" points="46.5,-706 46.5,-736 387.5,-736 387.5,-706 46.5,-706"/>
<text text-anchor="start" x="53.5" y="-717.4" font-family="Arial" font-size="14.00" fill="#000000">fix </text>
<text text-anchor="start" x="71.3878" y="-717.4" font-family="Arial" font-size="14.00" fill="#666666">[smallint]</text>
<text text-anchor="start" x="126.6052" y="-717.4" font-family="Arial" font-size="14.00" fill="#000000"> 固定:1　自由設定:2</text>
<polygon fill="none" stroke="#000000" points="46.5,-676 46.5,-706 387.5,-706 387.5,-676 46.5,-676"/>
<text text-anchor="start" x="53.5" y="-687.4" font-family="Arial" font-size="14.00" fill="#000000">status </text>
<text text-anchor="start" x="94.737" y="-687.4" font-family="Arial" font-size="14.00" fill="#666666">[smallint]</text>
<text text-anchor="start" x="149.9544" y="-687.4" font-family="Arial" font-size="14.00" fill="#000000"> 状態</text>
<polygon fill="none" stroke="#000000" points="46.5,-646 46.5,-676 387.5,-676 387.5,-646 46.5,-646"/>
<text text-anchor="start" x="53.5" y="-657.4" font-family="Arial" font-size="14.00" fill="#000000">del_flg </text>
<text text-anchor="start" x="98.6248" y="-657.4" font-family="Arial" font-size="14.00" fill="#666666">[smallint]</text>
<text text-anchor="start" x="153.8422" y="-657.4" font-family="Arial" font-size="14.00" fill="#000000"> 削除フラグ</text>
<polygon fill="none" stroke="#000000" points="46.5,-616 46.5,-646 387.5,-646 387.5,-616 46.5,-616"/>
<text text-anchor="start" x="53.5" y="-627.4" font-family="Arial" font-size="14.00" fill="#000000">creator_id </text>
<text text-anchor="start" x="119.622" y="-627.4" font-family="Arial" font-size="14.00" fill="#666666">[integer]</text>
<text text-anchor="start" x="170.1914" y="-627.4" font-family="Arial" font-size="14.00" fill="#000000"> 作成者ID</text>
<polygon fill="none" stroke="#000000" points="46.5,-586 46.5,-616 387.5,-616 387.5,-586 46.5,-586"/>
<text text-anchor="start" x="53.235" y="-597.4" font-family="Arial" font-size="14.00" fill="#000000">create_date </text>
<text text-anchor="start" x="131.0456" y="-597.4" font-family="Arial" font-size="14.00" fill="#666666">[timestamp without time zone]</text>
<text text-anchor="start" x="316.1858" y="-597.4" font-family="Arial" font-size="14.00" fill="#000000"> 作成日時</text>
<polygon fill="none" stroke="#000000" points="46.5,-556 46.5,-586 387.5,-586 387.5,-556 46.5,-556"/>
<text text-anchor="start" x="53.5" y="-567.4" font-family="Arial" font-size="14.00" fill="#000000">update_date </text>
<text text-anchor="start" x="135.2152" y="-567.4" font-family="Arial" font-size="14.00" fill="#666666">[timestamp without time zone]</text>
<text text-anchor="start" x="320.3554" y="-567.4" font-family="Arial" font-size="14.00" fill="#000000"> 更新日時</text>
<polygon fill="none" stroke="#000000" points="46.5,-526 46.5,-556 387.5,-556 387.5,-526 46.5,-526"/>
<text text-anchor="start" x="53.5" y="-537.4" font-family="Arial" font-size="14.00" fill="#000000">payment_image </text>
<text text-anchor="start" x="156.9698" y="-537.4" font-family="Arial" font-size="14.00" fill="#666666">[text]</text>
<text text-anchor="start" x="187.3148" y="-537.4" font-family="Arial" font-size="14.00" fill="#000000"> 支払方法ロゴ</text>
<polygon fill="none" stroke="#000000" points="46.5,-496 46.5,-526 387.5,-526 387.5,-496 46.5,-496"/>
<text text-anchor="start" x="53.5" y="-507.4" font-family="Arial" font-size="14.00" fill="#000000">upper_rule </text>
<text text-anchor="start" x="124.2966" y="-507.4" font-family="Arial" font-size="14.00" fill="#666666">[numeric]</text>
<text text-anchor="start" x="181.8534" y="-507.4" font-family="Arial" font-size="14.00" fill="#000000"> 利用条件(円以下)</text>
<polygon fill="none" stroke="#000000" points="46.5,-466 46.5,-496 387.5,-496 387.5,-466 46.5,-466"/>
<text text-anchor="start" x="53.5" y="-477.4" font-family="Arial" font-size="14.00" fill="#000000">charge_flg </text>
<text text-anchor="start" x="122.744" y="-477.4" font-family="Arial" font-size="14.00" fill="#666666">[smallint]</text>
<text text-anchor="start" x="177.9614" y="-477.4" font-family="Arial" font-size="14.00" fill="#000000"> 手数料設定フラグ</text>
<polygon fill="none" stroke="#000000" points="46.5,-436 46.5,-466 387.5,-466 387.5,-436 46.5,-436"/>
<text text-anchor="start" x="53.5" y="-447.4" font-family="Arial" font-size="14.00" fill="#000000">rule_min </text>
<text text-anchor="start" x="111.0554" y="-447.4" font-family="Arial" font-size="14.00" fill="#666666">[numeric]</text>
<text text-anchor="start" x="168.6122" y="-447.4" font-family="Arial" font-size="14.00" fill="#000000"> 利用条件(円以上)の下限</text>
<polygon fill="none" stroke="#000000" points="46.5,-406 46.5,-436 387.5,-436 387.5,-406 46.5,-406"/>
<text text-anchor="start" x="53.5" y="-417.4" font-family="Arial" font-size="14.00" fill="#000000">upper_rule_max </text>
<text text-anchor="start" x="158.5224" y="-417.4" font-family="Arial" font-size="14.00" fill="#666666">[numeric]</text>
<text text-anchor="start" x="216.0792" y="-417.4" font-family="Arial" font-size="14.00" fill="#000000"> 利用条件(円以下)の上限</text>
<polygon fill="none" stroke="#000000" points="46.5,-376 46.5,-406 387.5,-406 387.5,-376 46.5,-376"/>
<text text-anchor="start" x="53.5" y="-387.4" font-family="Arial" font-size="14.00" fill="#000000">module_id </text>
<text text-anchor="start" x="121.96" y="-387.4" font-family="Arial" font-size="14.00" fill="#666666">[integer]</text>
<text text-anchor="start" x="172.5294" y="-387.4" font-family="Arial" font-size="14.00" fill="#000000"> 追加モジュールID</text>
<polygon fill="none" stroke="#000000" points="46.5,-346 46.5,-376 387.5,-376 387.5,-346 46.5,-346"/>
<text text-anchor="start" x="53.5" y="-357.4" font-family="Arial" font-size="14.00" fill="#000000">module_path </text>
<text text-anchor="start" x="138.3092" y="-357.4" font-family="Arial" font-size="14.00" fill="#666666">[text]</text>
<text text-anchor="start" x="168.6542" y="-357.4" font-family="Arial" font-size="14.00" fill="#000000"> 追加モジュールパス</text>
<polygon fill="none" stroke="#000000" points="46.5,-316 46.5,-346 387.5,-346 387.5,-316 46.5,-316"/>
<text text-anchor="start" x="53.5" y="-327.4" font-family="Arial" font-size="14.00" fill="#000000">memo01 </text>
<text text-anchor="start" x="111.8422" y="-327.4" font-family="Arial" font-size="14.00" fill="#666666">[text]</text>
<text text-anchor="start" x="142.1872" y="-327.4" font-family="Arial" font-size="14.00" fill="#000000"> 汎用項目1</text>
<polygon fill="none" stroke="#000000" points="46.5,-286 46.5,-316 387.5,-316 387.5,-286 46.5,-286"/>
<text text-anchor="start" x="53.5" y="-297.4" font-family="Arial" font-size="14.00" fill="#000000">memo02 </text>
<text text-anchor="start" x="111.8422" y="-297.4" font-family="Arial" font-size="14.00" fill="#666666">[text]</text>
<text text-anchor="start" x="142.1872" y="-297.4" font-family="Arial" font-size="14.00" fill="#000000"> 汎用項目2</text>
<polygon fill="none" stroke="#000000" points="46.5,-256 46.5,-286 387.5,-286 387.5,-256 46.5,-256"/>
<text text-anchor="start" x="53.5" y="-267.4" font-family="Arial" font-size="14.00" fill="#000000">memo03 </text>
<text text-anchor="start" x="111.8422" y="-267.4" font-family="Arial" font-size="14.00" fill="#666666">[text]</text>
<text text-anchor="start" x="142.1872" y="-267.4" font-family="Arial" font-size="14.00" fill="#000000"> 汎用項目3</text>
<polygon fill="none" stroke="#000000" points="46.5,-226 46.5,-256 387.5,-256 387.5,-226 46.5,-226"/>
<text text-anchor="start" x="53.5" y="-237.4" font-family="Arial" font-size="14.00" fill="#000000">memo04 </text>
<text text-anchor="start" x="111.8422" y="-237.4" font-family="Arial" font-size="14.00" fill="#666666">[text]</text>
<text text-anchor="start" x="142.1872" y="-237.4" font-family="Arial" font-size="14.00" fill="#000000"> 汎用項目4</text>
<polygon fill="none" stroke="#000000" points="46.5,-196 46.5,-226 387.5,-226 387.5,-196 46.5,-196"/>
<text text-anchor="start" x="53.5" y="-207.4" font-family="Arial" font-size="14.00" fill="#000000">memo05 </text>
<text text-anchor="start" x="111.8422" y="-207.4" font-family="Arial" font-size="14.00" fill="#666666">[text]</text>
<text text-anchor="start" x="142.1872" y="-207.4" font-family="Arial" font-size="14.00" fill="#000000"> 汎用項目5</text>
<polygon fill="none" stroke="#000000" points="46.5,-166 46.5,-196 387.5,-196 387.5,-166 46.5,-166"/>
<text text-anchor="start" x="53.5" y="-177.4" font-family="Arial" font-size="14.00" fill="#000000">memo06 </text>
<text text-anchor="start" x="111.8422" y="-177.4" font-family="Arial" font-size="14.00" fill="#666666">[text]</text>
<text text-anchor="start" x="142.1872" y="-177.4" font-family="Arial" font-size="14.00" fill="#000000"> 汎用項目6</text>
<polygon fill="none" stroke="#000000" points="46.5,-136 46.5,-166 387.5,-166 387.5,-136 46.5,-136"/>
<text text-anchor="start" x="53.5" y="-147.4" font-family="Arial" font-size="14.00" fill="#000000">memo07 </text>
<text text-anchor="start" x="111.8422" y="-147.4" font-family="Arial" font-size="14.00" fill="#666666">[text]</text>
<text text-anchor="start" x="142.1872" y="-147.4" font-family="Arial" font-size="14.00" fill="#000000"> 汎用項目7</text>
<polygon fill="none" stroke="#000000" points="46.5,-106 46.5,-136 387.5,-136 387.5,-106 46.5,-106"/>
<text text-anchor="start" x="53.5" y="-117.4" font-family="Arial" font-size="14.00" fill="#000000">memo08 </text>
<text text-anchor="start" x="111.8422" y="-117.4" font-family="Arial" font-size="14.00" fill="#666666">[text]</text>
<text text-anchor="start" x="142.1872" y="-117.4" font-family="Arial" font-size="14.00" fill="#000000"> 汎用項目8</text>
<polygon fill="none" stroke="#000000" points="46.5,-76 46.5,-106 387.5,-106 387.5,-76 46.5,-76"/>
<text text-anchor="start" x="53.5" y="-87.4" font-family="Arial" font-size="14.00" fill="#000000">memo09 </text>
<text text-anchor="start" x="111.8422" y="-87.4" font-family="Arial" font-size="14.00" fill="#666666">[text]</text>
<text text-anchor="start" x="142.1872" y="-87.4" font-family="Arial" font-size="14.00" fill="#000000"> 汎用項目9</text>
<polygon fill="none" stroke="#000000" points="46.5,-46 46.5,-76 387.5,-76 387.5,-46 46.5,-46"/>
<text text-anchor="start" x="53.5" y="-57.4" font-family="Arial" font-size="14.00" fill="#000000">memo10 </text>
<text text-anchor="start" x="111.8422" y="-57.4" font-family="Arial" font-size="14.00" fill="#666666">[text]</text>
<text text-anchor="start" x="142.1872" y="-57.4" font-family="Arial" font-size="14.00" fill="#000000"> 汎用項目10</text>
<polygon fill="none" stroke="#000000" stroke-width="3" points="44.5,-44.5 44.5,-963.5 388.5,-963.5 388.5,-44.5 44.5,-44.5"/>
</g>
</g>
</svg>
