<?xml version="1.0" encoding="UTF-8" standalone="no"?>
<!DOCTYPE svg PUBLIC "-//W3C//DTD SVG 1.1//EN"
 "http://www.w3.org/Graphics/SVG/1.1/DTD/svg11.dtd">
<!-- Generated by graphviz version 2.40.1 (20161225.0304)
 -->
<!-- Title: public.dtb_customer_favorite_products Pages: 1 -->
<svg width="930pt" height="1784pt"
 viewBox="0.00 0.00 929.50 1784.00" xmlns="http://www.w3.org/2000/svg" xmlns:xlink="http://www.w3.org/1999/xlink">
<g id="graph0" class="graph" transform="scale(1 1) rotate(0) translate(4 1780)">
<title>public.dtb_customer_favorite_products</title>
<polygon fill="#ffffff" stroke="transparent" points="-4,4 -4,-1780 925.5,-1780 925.5,4 -4,4"/>
<!-- public.dtb_customer_favorite_products -->
<g id="node1" class="node">
<title>public.dtb_customer_favorite_products</title>
<polygon fill="#efefef" stroke="transparent" points="263,-1684 263,-1730 683,-1730 683,-1684 263,-1684"/>
<polygon fill="none" stroke="#000000" points="263,-1684 263,-1730 683,-1730 683,-1684 263,-1684"/>
<text text-anchor="start" x="269.835" y="-1707.8" font-family="Arial Bold" font-size="18.00" fill="#000000">public.dtb_customer_favorite_products</text>
<text text-anchor="start" x="578.9112" y="-1707.8" font-family="Arial" font-size="14.00" fill="#000000"> </text>
<text text-anchor="start" x="582.8018" y="-1707.8" font-family="Arial" font-size="14.00" fill="#666666">[BASE TABLE]</text>
<text text-anchor="start" x="412.7069" y="-1693.4" font-family="Arial" font-size="14.00" fill="#333333">お気に入り商品情報</text>
<polygon fill="none" stroke="#000000" points="263,-1654 263,-1684 683,-1684 683,-1654 263,-1654"/>
<text text-anchor="start" x="270" y="-1665.4" font-family="Arial" font-size="14.00" fill="#000000">customer_id </text>
<text text-anchor="start" x="350.122" y="-1665.4" font-family="Arial" font-size="14.00" fill="#666666">[integer]</text>
<text text-anchor="start" x="400.6914" y="-1665.4" font-family="Arial" font-size="14.00" fill="#000000"> 顧客ID</text>
<polygon fill="none" stroke="#000000" points="263,-1624 263,-1654 683,-1654 683,-1624 263,-1624"/>
<text text-anchor="start" x="270" y="-1635.4" font-family="Arial" font-size="14.00" fill="#000000">product_id </text>
<text text-anchor="start" x="339.244" y="-1635.4" font-family="Arial" font-size="14.00" fill="#666666">[integer]</text>
<text text-anchor="start" x="389.8134" y="-1635.4" font-family="Arial" font-size="14.00" fill="#000000"> 商品ID</text>
<polygon fill="none" stroke="#000000" points="263,-1594 263,-1624 683,-1624 683,-1594 263,-1594"/>
<text text-anchor="start" x="270" y="-1605.4" font-family="Arial" font-size="14.00" fill="#000000">create_date </text>
<text text-anchor="start" x="347.8106" y="-1605.4" font-family="Arial" font-size="14.00" fill="#666666">[timestamp without time zone]</text>
<text text-anchor="start" x="532.9508" y="-1605.4" font-family="Arial" font-size="14.00" fill="#000000"> 作成日時</text>
<polygon fill="none" stroke="#000000" points="263,-1564 263,-1594 683,-1594 683,-1564 263,-1564"/>
<text text-anchor="start" x="270" y="-1575.4" font-family="Arial" font-size="14.00" fill="#000000">update_date </text>
<text text-anchor="start" x="351.7152" y="-1575.4" font-family="Arial" font-size="14.00" fill="#666666">[timestamp without time zone]</text>
<text text-anchor="start" x="536.8554" y="-1575.4" font-family="Arial" font-size="14.00" fill="#000000"> 更新日時</text>
<polygon fill="none" stroke="#000000" stroke-width="3" points="261.5,-1562.5 261.5,-1731.5 684.5,-1731.5 684.5,-1562.5 261.5,-1562.5"/>
</g>
<!-- public.dtb_customer -->
<g id="node2" class="node">
<title>public.dtb_customer</title>
<polygon fill="#efefef" stroke="transparent" points="43,-1333 43,-1379 433,-1379 433,-1333 43,-1333"/>
<polygon fill="none" stroke="#000000" points="43,-1333 43,-1379 433,-1379 433,-1333 43,-1333"/>
<text text-anchor="start" x="108.8555" y="-1356.8" font-family="Arial Bold" font-size="18.00" fill="#000000">public.dtb_customer</text>
<text text-anchor="start" x="269.8907" y="-1356.8" font-family="Arial" font-size="14.00" fill="#000000"> </text>
<text text-anchor="start" x="273.7813" y="-1356.8" font-family="Arial" font-size="14.00" fill="#666666">[BASE TABLE]</text>
<text text-anchor="start" x="203.3787" y="-1342.4" font-family="Arial" font-size="14.00" fill="#333333">顧客情報</text>
<polygon fill="none" stroke="#000000" points="43,-1303 43,-1333 433,-1333 433,-1303 43,-1303"/>
<text text-anchor="start" x="50" y="-1314.4" font-family="Arial" font-size="14.00" fill="#000000">customer_id </text>
<text text-anchor="start" x="130.122" y="-1314.4" font-family="Arial" font-size="14.00" fill="#666666">[integer]</text>
<text text-anchor="start" x="180.6914" y="-1314.4" font-family="Arial" font-size="14.00" fill="#000000"> 顧客ID</text>
<polygon fill="none" stroke="#000000" points="43,-1273 43,-1303 433,-1303 433,-1273 43,-1273"/>
<text text-anchor="start" x="50" y="-1284.4" font-family="Arial" font-size="14.00" fill="#000000">name01 </text>
<text text-anchor="start" x="104.4642" y="-1284.4" font-family="Arial" font-size="14.00" fill="#666666">[text]</text>
<text text-anchor="start" x="134.8092" y="-1284.4" font-family="Arial" font-size="14.00" fill="#000000"> 姓</text>
<polygon fill="none" stroke="#000000" points="43,-1243 43,-1273 433,-1273 433,-1243 43,-1243"/>
<text text-anchor="start" x="50" y="-1254.4" font-family="Arial" font-size="14.00" fill="#000000">name02 </text>
<text text-anchor="start" x="104.4642" y="-1254.4" font-family="Arial" font-size="14.00" fill="#666666">[text]</text>
<text text-anchor="start" x="134.8092" y="-1254.4" font-family="Arial" font-size="14.00" fill="#000000"> 名</text>
<polygon fill="none" stroke="#000000" points="43,-1213 43,-1243 433,-1243 433,-1213 43,-1213"/>
<text text-anchor="start" x="50" y="-1224.4" font-family="Arial" font-size="14.00" fill="#000000">kana01 </text>
<text text-anchor="start" x="99.8036" y="-1224.4" font-family="Arial" font-size="14.00" fill="#666666">[text]</text>
<text text-anchor="start" x="130.1486" y="-1224.4" font-family="Arial" font-size="14.00" fill="#000000"> 姓(カナ)</text>
<polygon fill="none" stroke="#000000" points="43,-1183 43,-1213 433,-1213 433,-1183 43,-1183"/>
<text text-anchor="start" x="50" y="-1194.4" font-family="Arial" font-size="14.00" fill="#000000">kana02 </text>
<text text-anchor="start" x="99.8036" y="-1194.4" font-family="Arial" font-size="14.00" fill="#666666">[text]</text>
<text text-anchor="start" x="130.1486" y="-1194.4" font-family="Arial" font-size="14.00" fill="#000000"> 名(カナ)</text>
<polygon fill="none" stroke="#000000" points="43,-1153 43,-1183 433,-1183 433,-1153 43,-1153"/>
<text text-anchor="start" x="50" y="-1164.4" font-family="Arial" font-size="14.00" fill="#000000">company_name </text>
<text text-anchor="start" x="153.4726" y="-1164.4" font-family="Arial" font-size="14.00" fill="#666666">[text]</text>
<text text-anchor="start" x="183.8176" y="-1164.4" font-family="Arial" font-size="14.00" fill="#000000"> 【2.13】国名</text>
<polygon fill="none" stroke="#000000" points="43,-1123 43,-1153 433,-1153 433,-1123 43,-1123"/>
<text text-anchor="start" x="50" y="-1134.4" font-family="Arial" font-size="14.00" fill="#000000">zip01 </text>
<text text-anchor="start" x="87.345" y="-1134.4" font-family="Arial" font-size="14.00" fill="#666666">[text]</text>
<text text-anchor="start" x="117.69" y="-1134.4" font-family="Arial" font-size="14.00" fill="#000000"> 郵便番号(4桁)</text>
<polygon fill="none" stroke="#000000" points="43,-1093 43,-1123 433,-1123 433,-1093 43,-1093"/>
<text text-anchor="start" x="50" y="-1104.4" font-family="Arial" font-size="14.00" fill="#000000">zip02 </text>
<text text-anchor="start" x="87.345" y="-1104.4" font-family="Arial" font-size="14.00" fill="#666666">[text]</text>
<text text-anchor="start" x="117.69" y="-1104.4" font-family="Arial" font-size="14.00" fill="#000000"> 郵便番号(3桁)</text>
<polygon fill="none" stroke="#000000" points="43,-1063 43,-1093 433,-1093 433,-1063 43,-1063"/>
<text text-anchor="start" x="50" y="-1074.4" font-family="Arial" font-size="14.00" fill="#000000">zipcode </text>
<text text-anchor="start" x="102.1276" y="-1074.4" font-family="Arial" font-size="14.00" fill="#666666">[text]</text>
<text text-anchor="start" x="132.4726" y="-1074.4" font-family="Arial" font-size="14.00" fill="#000000"> 【2.13】郵便番号(海外対応)</text>
<polygon fill="none" stroke="#000000" points="43,-1033 43,-1063 433,-1063 433,-1033 43,-1033"/>
<text text-anchor="start" x="50" y="-1044.4" font-family="Arial" font-size="14.00" fill="#000000">country_id </text>
<text text-anchor="start" x="118.4614" y="-1044.4" font-family="Arial" font-size="14.00" fill="#666666">[integer]</text>
<text text-anchor="start" x="169.0308" y="-1044.4" font-family="Arial" font-size="14.00" fill="#000000"> 【2.13】国ID</text>
<polygon fill="none" stroke="#000000" points="43,-1003 43,-1033 433,-1033 433,-1003 43,-1003"/>
<text text-anchor="start" x="50" y="-1014.4" font-family="Arial" font-size="14.00" fill="#000000">pref </text>
<text text-anchor="start" x="78.007" y="-1014.4" font-family="Arial" font-size="14.00" fill="#666666">[smallint]</text>
<text text-anchor="start" x="133.2244" y="-1014.4" font-family="Arial" font-size="14.00" fill="#000000"> 都道府県</text>
<polygon fill="none" stroke="#000000" points="43,-973 43,-1003 433,-1003 433,-973 43,-973"/>
<text text-anchor="start" x="50" y="-984.4" font-family="Arial" font-size="14.00" fill="#000000">addr01 </text>
<text text-anchor="start" x="97.4642" y="-984.4" font-family="Arial" font-size="14.00" fill="#666666">[text]</text>
<text text-anchor="start" x="127.8092" y="-984.4" font-family="Arial" font-size="14.00" fill="#000000"> 市区町村</text>
<polygon fill="none" stroke="#000000" points="43,-943 43,-973 433,-973 433,-943 43,-943"/>
<text text-anchor="start" x="50" y="-954.4" font-family="Arial" font-size="14.00" fill="#000000">addr02 </text>
<text text-anchor="start" x="97.4642" y="-954.4" font-family="Arial" font-size="14.00" fill="#666666">[text]</text>
<text text-anchor="start" x="127.8092" y="-954.4" font-family="Arial" font-size="14.00" fill="#000000"> 番地等</text>
<polygon fill="none" stroke="#000000" points="43,-913 43,-943 433,-943 433,-913 43,-913"/>
<text text-anchor="start" x="50" y="-924.4" font-family="Arial" font-size="14.00" fill="#000000">email </text>
<text text-anchor="start" x="87.3296" y="-924.4" font-family="Arial" font-size="14.00" fill="#666666">[text]</text>
<text text-anchor="start" x="117.6746" y="-924.4" font-family="Arial" font-size="14.00" fill="#000000"> メールアドレス</text>
<polygon fill="none" stroke="#000000" points="43,-883 43,-913 433,-913 433,-883 43,-883"/>
<text text-anchor="start" x="50" y="-894.4" font-family="Arial" font-size="14.00" fill="#000000">email_mobile </text>
<text text-anchor="start" x="136.3338" y="-894.4" font-family="Arial" font-size="14.00" fill="#666666">[text]</text>
<text text-anchor="start" x="166.6788" y="-894.4" font-family="Arial" font-size="14.00" fill="#000000"> 携帯メールアドレス</text>
<polygon fill="none" stroke="#000000" points="43,-853 43,-883 433,-883 433,-853 43,-853"/>
<text text-anchor="start" x="50" y="-864.4" font-family="Arial" font-size="14.00" fill="#000000">tel01 </text>
<text text-anchor="start" x="84.2356" y="-864.4" font-family="Arial" font-size="14.00" fill="#666666">[text]</text>
<text text-anchor="start" x="114.5806" y="-864.4" font-family="Arial" font-size="14.00" fill="#000000"> 電話(市外局番)</text>
<polygon fill="none" stroke="#000000" points="43,-823 43,-853 433,-853 433,-823 43,-823"/>
<text text-anchor="start" x="50" y="-834.4" font-family="Arial" font-size="14.00" fill="#000000">tel02 </text>
<text text-anchor="start" x="84.2356" y="-834.4" font-family="Arial" font-size="14.00" fill="#666666">[text]</text>
<text text-anchor="start" x="114.5806" y="-834.4" font-family="Arial" font-size="14.00" fill="#000000"> 電話(市内局番)</text>
<polygon fill="none" stroke="#000000" points="43,-793 43,-823 433,-823 433,-793 43,-793"/>
<text text-anchor="start" x="50" y="-804.4" font-family="Arial" font-size="14.00" fill="#000000">tel03 </text>
<text text-anchor="start" x="84.2356" y="-804.4" font-family="Arial" font-size="14.00" fill="#666666">[text]</text>
<text text-anchor="start" x="114.5806" y="-804.4" font-family="Arial" font-size="14.00" fill="#000000"> 電話(局番)</text>
<polygon fill="none" stroke="#000000" points="43,-763 43,-793 433,-793 433,-763 43,-763"/>
<text text-anchor="start" x="50" y="-774.4" font-family="Arial" font-size="14.00" fill="#000000">fax01 </text>
<text text-anchor="start" x="88.129" y="-774.4" font-family="Arial" font-size="14.00" fill="#666666">[text]</text>
<text text-anchor="start" x="118.474" y="-774.4" font-family="Arial" font-size="14.00" fill="#000000"> FAX(市外局番)</text>
<polygon fill="none" stroke="#000000" points="43,-733 43,-763 433,-763 433,-733 43,-733"/>
<text text-anchor="start" x="50" y="-744.4" font-family="Arial" font-size="14.00" fill="#000000">fax02 </text>
<text text-anchor="start" x="88.129" y="-744.4" font-family="Arial" font-size="14.00" fill="#666666">[text]</text>
<text text-anchor="start" x="118.474" y="-744.4" font-family="Arial" font-size="14.00" fill="#000000"> FAX(市内局番)</text>
<polygon fill="none" stroke="#000000" points="43,-703 43,-733 433,-733 433,-703 43,-703"/>
<text text-anchor="start" x="50" y="-714.4" font-family="Arial" font-size="14.00" fill="#000000">fax03 </text>
<text text-anchor="start" x="88.129" y="-714.4" font-family="Arial" font-size="14.00" fill="#666666">[text]</text>
<text text-anchor="start" x="118.474" y="-714.4" font-family="Arial" font-size="14.00" fill="#000000"> FAX(局番)</text>
<polygon fill="none" stroke="#000000" points="43,-673 43,-703 433,-703 433,-673 43,-673"/>
<text text-anchor="start" x="50" y="-684.4" font-family="Arial" font-size="14.00" fill="#000000">sex </text>
<text text-anchor="start" x="75.6732" y="-684.4" font-family="Arial" font-size="14.00" fill="#666666">[smallint]</text>
<text text-anchor="start" x="130.8906" y="-684.4" font-family="Arial" font-size="14.00" fill="#000000"> 性別</text>
<polygon fill="none" stroke="#000000" points="43,-643 43,-673 433,-673 433,-643 43,-643"/>
<text text-anchor="start" x="50" y="-654.4" font-family="Arial" font-size="14.00" fill="#000000">job </text>
<text text-anchor="start" x="72.5624" y="-654.4" font-family="Arial" font-size="14.00" fill="#666666">[smallint]</text>
<text text-anchor="start" x="127.7798" y="-654.4" font-family="Arial" font-size="14.00" fill="#000000"> 職業</text>
<polygon fill="none" stroke="#000000" points="43,-613 43,-643 433,-643 433,-613 43,-613"/>
<text text-anchor="start" x="50" y="-624.4" font-family="Arial" font-size="14.00" fill="#000000">birth </text>
<text text-anchor="start" x="81.1136" y="-624.4" font-family="Arial" font-size="14.00" fill="#666666">[timestamp without time zone]</text>
<text text-anchor="start" x="266.2538" y="-624.4" font-family="Arial" font-size="14.00" fill="#000000"> 生年月日</text>
<polygon fill="none" stroke="#000000" points="43,-583 43,-613 433,-613 433,-583 43,-583"/>
<text text-anchor="start" x="50" y="-594.4" font-family="Arial" font-size="14.00" fill="#000000">password </text>
<text text-anchor="start" x="113.7882" y="-594.4" font-family="Arial" font-size="14.00" fill="#666666">[text]</text>
<text text-anchor="start" x="144.1332" y="-594.4" font-family="Arial" font-size="14.00" fill="#000000"> パスワード</text>
<polygon fill="none" stroke="#000000" points="43,-553 43,-583 433,-583 433,-553 43,-553"/>
<text text-anchor="start" x="50" y="-564.4" font-family="Arial" font-size="14.00" fill="#000000">reminder </text>
<text text-anchor="start" x="109.1094" y="-564.4" font-family="Arial" font-size="14.00" fill="#666666">[smallint]</text>
<text text-anchor="start" x="164.3268" y="-564.4" font-family="Arial" font-size="14.00" fill="#000000"> パスワードの質問</text>
<polygon fill="none" stroke="#000000" points="43,-523 43,-553 433,-553 433,-523 43,-523"/>
<text text-anchor="start" x="50" y="-534.4" font-family="Arial" font-size="14.00" fill="#000000">reminder_answer </text>
<text text-anchor="start" x="162.007" y="-534.4" font-family="Arial" font-size="14.00" fill="#666666">[text]</text>
<text text-anchor="start" x="192.352" y="-534.4" font-family="Arial" font-size="14.00" fill="#000000"> パスワードの質問の答え</text>
<polygon fill="none" stroke="#000000" points="43,-493 43,-523 433,-523 433,-493 43,-493"/>
<text text-anchor="start" x="50" y="-504.4" font-family="Arial" font-size="14.00" fill="#000000">salt </text>
<text text-anchor="start" x="75.6704" y="-504.4" font-family="Arial" font-size="14.00" fill="#666666">[text]</text>
<text text-anchor="start" x="106.0154" y="-504.4" font-family="Arial" font-size="14.00" fill="#000000"> 暗号化付与文字列</text>
<polygon fill="none" stroke="#000000" points="43,-463 43,-493 433,-493 433,-463 43,-463"/>
<text text-anchor="start" x="50" y="-474.4" font-family="Arial" font-size="14.00" fill="#000000">secret_key </text>
<text text-anchor="start" x="121.5722" y="-474.4" font-family="Arial" font-size="14.00" fill="#666666">[text]</text>
<text text-anchor="start" x="151.9172" y="-474.4" font-family="Arial" font-size="14.00" fill="#000000"> 暗号化キー</text>
<polygon fill="none" stroke="#000000" points="43,-433 43,-463 433,-463 433,-433 43,-433"/>
<text text-anchor="start" x="49.7266" y="-444.4" font-family="Arial" font-size="14.00" fill="#000000">first_buy_date </text>
<text text-anchor="start" x="141.5344" y="-444.4" font-family="Arial" font-size="14.00" fill="#666666">[timestamp without time zone]</text>
<text text-anchor="start" x="326.6746" y="-444.4" font-family="Arial" font-size="14.00" fill="#000000"> 初回購入日時</text>
<polygon fill="none" stroke="#000000" points="43,-403 43,-433 433,-433 433,-403 43,-403"/>
<text text-anchor="start" x="50" y="-414.4" font-family="Arial" font-size="14.00" fill="#000000">last_buy_date </text>
<text text-anchor="start" x="141.0392" y="-414.4" font-family="Arial" font-size="14.00" fill="#666666">[timestamp without time zone]</text>
<text text-anchor="start" x="326.1794" y="-414.4" font-family="Arial" font-size="14.00" fill="#000000"> 最終購入日時</text>
<polygon fill="none" stroke="#000000" points="43,-373 43,-403 433,-403 433,-373 43,-373"/>
<text text-anchor="start" x="50" y="-384.4" font-family="Arial" font-size="14.00" fill="#000000">buy_times </text>
<text text-anchor="start" x="117.6788" y="-384.4" font-family="Arial" font-size="14.00" fill="#666666">[numeric]</text>
<text text-anchor="start" x="175.2356" y="-384.4" font-family="Arial" font-size="14.00" fill="#000000"> 購入回数</text>
<polygon fill="none" stroke="#000000" points="43,-343 43,-373 433,-373 433,-343 43,-343"/>
<text text-anchor="start" x="50" y="-354.4" font-family="Arial" font-size="14.00" fill="#000000">buy_total </text>
<text text-anchor="start" x="110.6914" y="-354.4" font-family="Arial" font-size="14.00" fill="#666666">[numeric]</text>
<text text-anchor="start" x="168.2482" y="-354.4" font-family="Arial" font-size="14.00" fill="#000000"> 購入累計金額</text>
<polygon fill="none" stroke="#000000" points="43,-313 43,-343 433,-343 433,-313 43,-313"/>
<text text-anchor="start" x="50" y="-324.4" font-family="Arial" font-size="14.00" fill="#000000">point </text>
<text text-anchor="start" x="84.2356" y="-324.4" font-family="Arial" font-size="14.00" fill="#666666">[numeric]</text>
<text text-anchor="start" x="141.7924" y="-324.4" font-family="Arial" font-size="14.00" fill="#000000"> 保持ポイント</text>
<polygon fill="none" stroke="#000000" points="43,-283 43,-313 433,-313 433,-283 43,-283"/>
<text text-anchor="start" x="50" y="-294.4" font-family="Arial" font-size="14.00" fill="#000000">note </text>
<text text-anchor="start" x="81.129" y="-294.4" font-family="Arial" font-size="14.00" fill="#666666">[text]</text>
<text text-anchor="start" x="111.474" y="-294.4" font-family="Arial" font-size="14.00" fill="#000000"> 備考</text>
<polygon fill="none" stroke="#000000" points="43,-253 43,-283 433,-283 433,-253 43,-253"/>
<text text-anchor="start" x="50" y="-264.4" font-family="Arial" font-size="14.00" fill="#000000">status </text>
<text text-anchor="start" x="91.237" y="-264.4" font-family="Arial" font-size="14.00" fill="#666666">[smallint]</text>
<text text-anchor="start" x="146.4544" y="-264.4" font-family="Arial" font-size="14.00" fill="#000000"> 状態</text>
<polygon fill="none" stroke="#000000" points="43,-223 43,-253 433,-253 433,-223 43,-223"/>
<text text-anchor="start" x="50" y="-234.4" font-family="Arial" font-size="14.00" fill="#000000">create_date </text>
<text text-anchor="start" x="127.8106" y="-234.4" font-family="Arial" font-size="14.00" fill="#666666">[timestamp without time zone]</text>
<text text-anchor="start" x="312.9508" y="-234.4" font-family="Arial" font-size="14.00" fill="#000000"> 作成日時</text>
<polygon fill="none" stroke="#000000" points="43,-193 43,-223 433,-223 433,-193 43,-193"/>
<text text-anchor="start" x="50" y="-204.4" font-family="Arial" font-size="14.00" fill="#000000">update_date </text>
<text text-anchor="start" x="131.7152" y="-204.4" font-family="Arial" font-size="14.00" fill="#666666">[timestamp without time zone]</text>
<text text-anchor="start" x="316.8554" y="-204.4" font-family="Arial" font-size="14.00" fill="#000000"> 更新日時</text>
<polygon fill="none" stroke="#000000" points="43,-163 43,-193 433,-193 433,-163 43,-163"/>
<text text-anchor="start" x="50" y="-174.4" font-family="Arial" font-size="14.00" fill="#000000">del_flg </text>
<text text-anchor="start" x="95.1248" y="-174.4" font-family="Arial" font-size="14.00" fill="#666666">[smallint]</text>
<text text-anchor="start" x="150.3422" y="-174.4" font-family="Arial" font-size="14.00" fill="#000000"> 削除フラグ</text>
<polygon fill="none" stroke="#000000" points="43,-133 43,-163 433,-163 433,-133 43,-133"/>
<text text-anchor="start" x="50" y="-144.4" font-family="Arial" font-size="14.00" fill="#000000">mobile_phone_id </text>
<text text-anchor="start" x="160.4796" y="-144.4" font-family="Arial" font-size="14.00" fill="#666666">[text]</text>
<text text-anchor="start" x="190.8246" y="-144.4" font-family="Arial" font-size="14.00" fill="#000000"> 携帯端末ID</text>
<polygon fill="none" stroke="#000000" points="43,-103 43,-133 433,-133 433,-103 43,-103"/>
<text text-anchor="start" x="50" y="-114.4" font-family="Arial" font-size="14.00" fill="#000000">mailmaga_flg </text>
<text text-anchor="start" x="137.1178" y="-114.4" font-family="Arial" font-size="14.00" fill="#666666">[smallint]</text>
<text text-anchor="start" x="192.3352" y="-114.4" font-family="Arial" font-size="14.00" fill="#000000"> メールマガジン種別フラグ</text>
</g>
<!-- public.dtb_customer_favorite_products&#45;&gt;public.dtb_customer -->
<g id="edge1" class="edge">
<title>public.dtb_customer_favorite_products:customer_id&#45;&gt;public.dtb_customer:customer_id</title>
<path fill="none" stroke="#000000" stroke-dasharray="5,2" d="M252.874,-1668.1862C199.5304,-1658.9286 231.0179,-1572.7896 263,-1518 306.7429,-1443.0624 389.2571,-1496.9376 433,-1422 456.3017,-1382.081 479.2222,-1318 433,-1318"/>
<polygon fill="#000000" stroke="#000000" points="253.0321,-1668.1988 262.6395,-1673.4855 258.0161,-1668.5994 263,-1669 263,-1669 263,-1669 258.0161,-1668.5994 263.3605,-1664.5145 253.0321,-1668.1988 253.0321,-1668.1988"/>
<text text-anchor="start" x="173.3245" y="-1679" font-family="Arial" font-size="10.00" fill="#000000">Additional Relation</text>
</g>
<!-- public.dtb_products -->
<g id="node3" class="node">
<title>public.dtb_products</title>
<polygon fill="#efefef" stroke="transparent" points="538,-1393 538,-1439 879,-1439 879,-1393 538,-1393"/>
<polygon fill="none" stroke="#000000" points="538,-1393 538,-1439 879,-1439 879,-1393 538,-1393"/>
<text text-anchor="start" x="581.8485" y="-1416.8" font-family="Arial Bold" font-size="18.00" fill="#000000">public.dtb_products</text>
<text text-anchor="start" x="737.8977" y="-1416.8" font-family="Arial" font-size="14.00" fill="#000000"> </text>
<text text-anchor="start" x="741.7883" y="-1416.8" font-family="Arial" font-size="14.00" fill="#666666">[BASE TABLE]</text>
<text text-anchor="start" x="683.2104" y="-1402.4" font-family="Arial" font-size="14.00" fill="#333333">商品情報</text>
<polygon fill="none" stroke="#000000" points="538,-1363 538,-1393 879,-1393 879,-1363 538,-1363"/>
<text text-anchor="start" x="545" y="-1374.4" font-family="Arial" font-size="14.00" fill="#000000">product_id </text>
<text text-anchor="start" x="614.244" y="-1374.4" font-family="Arial" font-size="14.00" fill="#666666">[integer]</text>
<text text-anchor="start" x="664.8134" y="-1374.4" font-family="Arial" font-size="14.00" fill="#000000"> 商品ID</text>
<polygon fill="none" stroke="#000000" points="538,-1333 538,-1363 879,-1363 879,-1333 538,-1333"/>
<text text-anchor="start" x="545" y="-1344.4" font-family="Arial" font-size="14.00" fill="#000000">name </text>
<text text-anchor="start" x="583.899" y="-1344.4" font-family="Arial" font-size="14.00" fill="#666666">[text]</text>
<text text-anchor="start" x="614.244" y="-1344.4" font-family="Arial" font-size="14.00" fill="#000000"> 商品名</text>
<polygon fill="none" stroke="#000000" points="538,-1303 538,-1333 879,-1333 879,-1303 538,-1303"/>
<text text-anchor="start" x="545" y="-1314.4" font-family="Arial" font-size="14.00" fill="#000000">maker_id </text>
<text text-anchor="start" x="606.4488" y="-1314.4" font-family="Arial" font-size="14.00" fill="#666666">[integer]</text>
<text text-anchor="start" x="657.0182" y="-1314.4" font-family="Arial" font-size="14.00" fill="#000000"> メーカーID</text>
<polygon fill="none" stroke="#000000" points="538,-1273 538,-1303 879,-1303 879,-1273 538,-1273"/>
<text text-anchor="start" x="545" y="-1284.4" font-family="Arial" font-size="14.00" fill="#000000">status </text>
<text text-anchor="start" x="586.237" y="-1284.4" font-family="Arial" font-size="14.00" fill="#666666">[smallint]</text>
<text text-anchor="start" x="641.4544" y="-1284.4" font-family="Arial" font-size="14.00" fill="#000000"> 表示ステータス</text>
<polygon fill="none" stroke="#000000" points="538,-1243 538,-1273 879,-1273 879,-1243 538,-1243"/>
<text text-anchor="start" x="545" y="-1254.4" font-family="Arial" font-size="14.00" fill="#000000">comment1 </text>
<text text-anchor="start" x="614.2328" y="-1254.4" font-family="Arial" font-size="14.00" fill="#666666">[text]</text>
<text text-anchor="start" x="644.5778" y="-1254.4" font-family="Arial" font-size="14.00" fill="#000000"> コメント1(メーカーURL)</text>
<polygon fill="none" stroke="#000000" points="538,-1213 538,-1243 879,-1243 879,-1213 538,-1213"/>
<text text-anchor="start" x="545" y="-1224.4" font-family="Arial" font-size="14.00" fill="#000000">comment2 </text>
<text text-anchor="start" x="614.2328" y="-1224.4" font-family="Arial" font-size="14.00" fill="#666666">[text]</text>
<text text-anchor="start" x="644.5778" y="-1224.4" font-family="Arial" font-size="14.00" fill="#000000"> コメント2</text>
<polygon fill="none" stroke="#000000" points="538,-1183 538,-1213 879,-1213 879,-1183 538,-1183"/>
<text text-anchor="start" x="545" y="-1194.4" font-family="Arial" font-size="14.00" fill="#000000">comment3 </text>
<text text-anchor="start" x="614.2328" y="-1194.4" font-family="Arial" font-size="14.00" fill="#666666">[text]</text>
<text text-anchor="start" x="644.5778" y="-1194.4" font-family="Arial" font-size="14.00" fill="#000000"> コメント3(検索ワード)</text>
<polygon fill="none" stroke="#000000" points="538,-1153 538,-1183 879,-1183 879,-1153 538,-1153"/>
<text text-anchor="start" x="545" y="-1164.4" font-family="Arial" font-size="14.00" fill="#000000">comment4 </text>
<text text-anchor="start" x="614.2328" y="-1164.4" font-family="Arial" font-size="14.00" fill="#666666">[text]</text>
<text text-anchor="start" x="644.5778" y="-1164.4" font-family="Arial" font-size="14.00" fill="#000000"> コメント4</text>
<polygon fill="none" stroke="#000000" points="538,-1123 538,-1153 879,-1153 879,-1123 538,-1123"/>
<text text-anchor="start" x="545" y="-1134.4" font-family="Arial" font-size="14.00" fill="#000000">comment5 </text>
<text text-anchor="start" x="614.2328" y="-1134.4" font-family="Arial" font-size="14.00" fill="#666666">[text]</text>
<text text-anchor="start" x="644.5778" y="-1134.4" font-family="Arial" font-size="14.00" fill="#000000"> コメント5</text>
<polygon fill="none" stroke="#000000" points="538,-1093 538,-1123 879,-1123 879,-1093 538,-1093"/>
<text text-anchor="start" x="545" y="-1104.4" font-family="Arial" font-size="14.00" fill="#000000">comment6 </text>
<text text-anchor="start" x="614.2328" y="-1104.4" font-family="Arial" font-size="14.00" fill="#666666">[text]</text>
<text text-anchor="start" x="644.5778" y="-1104.4" font-family="Arial" font-size="14.00" fill="#000000"> コメント6</text>
<polygon fill="none" stroke="#000000" points="538,-1063 538,-1093 879,-1093 879,-1063 538,-1063"/>
<text text-anchor="start" x="545" y="-1074.4" font-family="Arial" font-size="14.00" fill="#000000">note </text>
<text text-anchor="start" x="576.129" y="-1074.4" font-family="Arial" font-size="14.00" fill="#666666">[text]</text>
<text text-anchor="start" x="606.474" y="-1074.4" font-family="Arial" font-size="14.00" fill="#000000"> 備考</text>
<polygon fill="none" stroke="#000000" points="538,-1033 538,-1063 879,-1063 879,-1033 538,-1033"/>
<text text-anchor="start" x="545" y="-1044.4" font-family="Arial" font-size="14.00" fill="#000000">main_list_comment </text>
<text text-anchor="start" x="669.4516" y="-1044.4" font-family="Arial" font-size="14.00" fill="#666666">[text]</text>
<text text-anchor="start" x="699.7966" y="-1044.4" font-family="Arial" font-size="14.00" fill="#000000"> メイン一覧コメント</text>
<polygon fill="none" stroke="#000000" points="538,-1003 538,-1033 879,-1033 879,-1003 538,-1003"/>
<text text-anchor="start" x="545" y="-1014.4" font-family="Arial" font-size="14.00" fill="#000000">main_list_image </text>
<text text-anchor="start" x="650.007" y="-1014.4" font-family="Arial" font-size="14.00" fill="#666666">[text]</text>
<text text-anchor="start" x="680.352" y="-1014.4" font-family="Arial" font-size="14.00" fill="#000000"> メイン一覧画像</text>
<polygon fill="none" stroke="#000000" points="538,-973 538,-1003 879,-1003 879,-973 538,-973"/>
<text text-anchor="start" x="545" y="-984.4" font-family="Arial" font-size="14.00" fill="#000000">main_comment </text>
<text text-anchor="start" x="644.5652" y="-984.4" font-family="Arial" font-size="14.00" fill="#666666">[text]</text>
<text text-anchor="start" x="674.9102" y="-984.4" font-family="Arial" font-size="14.00" fill="#000000"> メインコメント</text>
<polygon fill="none" stroke="#000000" points="538,-943 538,-973 879,-973 879,-943 538,-943"/>
<text text-anchor="start" x="545" y="-954.4" font-family="Arial" font-size="14.00" fill="#000000">main_image </text>
<text text-anchor="start" x="625.1206" y="-954.4" font-family="Arial" font-size="14.00" fill="#666666">[text]</text>
<text text-anchor="start" x="655.4656" y="-954.4" font-family="Arial" font-size="14.00" fill="#000000"> メイン画像</text>
<polygon fill="none" stroke="#000000" points="538,-913 538,-943 879,-943 879,-913 538,-913"/>
<text text-anchor="start" x="545" y="-924.4" font-family="Arial" font-size="14.00" fill="#000000">main_large_image </text>
<text text-anchor="start" x="664.0182" y="-924.4" font-family="Arial" font-size="14.00" fill="#666666">[text]</text>
<text text-anchor="start" x="694.3632" y="-924.4" font-family="Arial" font-size="14.00" fill="#000000"> メイン拡大画像</text>
<polygon fill="none" stroke="#000000" points="538,-883 538,-913 879,-913 879,-883 538,-883"/>
<text text-anchor="start" x="545" y="-894.4" font-family="Arial" font-size="14.00" fill="#000000">sub_title1 </text>
<text text-anchor="start" x="608.798" y="-894.4" font-family="Arial" font-size="14.00" fill="#666666">[text]</text>
<text text-anchor="start" x="639.143" y="-894.4" font-family="Arial" font-size="14.00" fill="#000000"> サブタイトル1</text>
<polygon fill="none" stroke="#000000" points="538,-853 538,-883 879,-883 879,-853 538,-853"/>
<text text-anchor="start" x="545" y="-864.4" font-family="Arial" font-size="14.00" fill="#000000">sub_comment1 </text>
<text text-anchor="start" x="644.5806" y="-864.4" font-family="Arial" font-size="14.00" fill="#666666">[text]</text>
<text text-anchor="start" x="674.9256" y="-864.4" font-family="Arial" font-size="14.00" fill="#000000"> サブコメント1</text>
<polygon fill="none" stroke="#000000" points="538,-823 538,-853 879,-853 879,-823 538,-823"/>
<text text-anchor="start" x="545" y="-834.4" font-family="Arial" font-size="14.00" fill="#000000">sub_image1 </text>
<text text-anchor="start" x="625.136" y="-834.4" font-family="Arial" font-size="14.00" fill="#666666">[text]</text>
<text text-anchor="start" x="655.481" y="-834.4" font-family="Arial" font-size="14.00" fill="#000000"> サブ画像1</text>
<polygon fill="none" stroke="#000000" points="538,-793 538,-823 879,-823 879,-793 538,-793"/>
<text text-anchor="start" x="545" y="-804.4" font-family="Arial" font-size="14.00" fill="#000000">sub_large_image1 </text>
<text text-anchor="start" x="664.0336" y="-804.4" font-family="Arial" font-size="14.00" fill="#666666">[text]</text>
<text text-anchor="start" x="694.3786" y="-804.4" font-family="Arial" font-size="14.00" fill="#000000"> サブ拡大画像1</text>
<polygon fill="none" stroke="#000000" points="538,-763 538,-793 879,-793 879,-763 538,-763"/>
<text text-anchor="start" x="545" y="-774.4" font-family="Arial" font-size="14.00" fill="#000000">sub_title2 </text>
<text text-anchor="start" x="608.798" y="-774.4" font-family="Arial" font-size="14.00" fill="#666666">[text]</text>
<text text-anchor="start" x="639.143" y="-774.4" font-family="Arial" font-size="14.00" fill="#000000"> サブタイトル2</text>
<polygon fill="none" stroke="#000000" points="538,-733 538,-763 879,-763 879,-733 538,-733"/>
<text text-anchor="start" x="545" y="-744.4" font-family="Arial" font-size="14.00" fill="#000000">sub_comment2 </text>
<text text-anchor="start" x="644.5806" y="-744.4" font-family="Arial" font-size="14.00" fill="#666666">[text]</text>
<text text-anchor="start" x="674.9256" y="-744.4" font-family="Arial" font-size="14.00" fill="#000000"> サブコメント2</text>
<polygon fill="none" stroke="#000000" points="538,-703 538,-733 879,-733 879,-703 538,-703"/>
<text text-anchor="start" x="545" y="-714.4" font-family="Arial" font-size="14.00" fill="#000000">sub_image2 </text>
<text text-anchor="start" x="625.136" y="-714.4" font-family="Arial" font-size="14.00" fill="#666666">[text]</text>
<text text-anchor="start" x="655.481" y="-714.4" font-family="Arial" font-size="14.00" fill="#000000"> サブ画像2</text>
<polygon fill="none" stroke="#000000" points="538,-673 538,-703 879,-703 879,-673 538,-673"/>
<text text-anchor="start" x="545" y="-684.4" font-family="Arial" font-size="14.00" fill="#000000">sub_large_image2 </text>
<text text-anchor="start" x="664.0336" y="-684.4" font-family="Arial" font-size="14.00" fill="#666666">[text]</text>
<text text-anchor="start" x="694.3786" y="-684.4" font-family="Arial" font-size="14.00" fill="#000000"> サブ拡大画像2</text>
<polygon fill="none" stroke="#000000" points="538,-643 538,-673 879,-673 879,-643 538,-643"/>
<text text-anchor="start" x="545" y="-654.4" font-family="Arial" font-size="14.00" fill="#000000">sub_title3 </text>
<text text-anchor="start" x="608.798" y="-654.4" font-family="Arial" font-size="14.00" fill="#666666">[text]</text>
<text text-anchor="start" x="639.143" y="-654.4" font-family="Arial" font-size="14.00" fill="#000000"> サブタイトル3</text>
<polygon fill="none" stroke="#000000" points="538,-613 538,-643 879,-643 879,-613 538,-613"/>
<text text-anchor="start" x="545" y="-624.4" font-family="Arial" font-size="14.00" fill="#000000">sub_comment3 </text>
<text text-anchor="start" x="644.5806" y="-624.4" font-family="Arial" font-size="14.00" fill="#666666">[text]</text>
<text text-anchor="start" x="674.9256" y="-624.4" font-family="Arial" font-size="14.00" fill="#000000"> サブコメント3</text>
<polygon fill="none" stroke="#000000" points="538,-583 538,-613 879,-613 879,-583 538,-583"/>
<text text-anchor="start" x="545" y="-594.4" font-family="Arial" font-size="14.00" fill="#000000">sub_image3 </text>
<text text-anchor="start" x="625.136" y="-594.4" font-family="Arial" font-size="14.00" fill="#666666">[text]</text>
<text text-anchor="start" x="655.481" y="-594.4" font-family="Arial" font-size="14.00" fill="#000000"> サブ画像3</text>
<polygon fill="none" stroke="#000000" points="538,-553 538,-583 879,-583 879,-553 538,-553"/>
<text text-anchor="start" x="545" y="-564.4" font-family="Arial" font-size="14.00" fill="#000000">sub_large_image3 </text>
<text text-anchor="start" x="664.0336" y="-564.4" font-family="Arial" font-size="14.00" fill="#666666">[text]</text>
<text text-anchor="start" x="694.3786" y="-564.4" font-family="Arial" font-size="14.00" fill="#000000"> サブ拡大画像3</text>
<polygon fill="none" stroke="#000000" points="538,-523 538,-553 879,-553 879,-523 538,-523"/>
<text text-anchor="start" x="545" y="-534.4" font-family="Arial" font-size="14.00" fill="#000000">sub_title4 </text>
<text text-anchor="start" x="608.798" y="-534.4" font-family="Arial" font-size="14.00" fill="#666666">[text]</text>
<text text-anchor="start" x="639.143" y="-534.4" font-family="Arial" font-size="14.00" fill="#000000"> サブタイトル4</text>
<polygon fill="none" stroke="#000000" points="538,-493 538,-523 879,-523 879,-493 538,-493"/>
<text text-anchor="start" x="545" y="-504.4" font-family="Arial" font-size="14.00" fill="#000000">sub_comment4 </text>
<text text-anchor="start" x="644.5806" y="-504.4" font-family="Arial" font-size="14.00" fill="#666666">[text]</text>
<text text-anchor="start" x="674.9256" y="-504.4" font-family="Arial" font-size="14.00" fill="#000000"> サブコメント4</text>
<polygon fill="none" stroke="#000000" points="538,-463 538,-493 879,-493 879,-463 538,-463"/>
<text text-anchor="start" x="545" y="-474.4" font-family="Arial" font-size="14.00" fill="#000000">sub_image4 </text>
<text text-anchor="start" x="625.136" y="-474.4" font-family="Arial" font-size="14.00" fill="#666666">[text]</text>
<text text-anchor="start" x="655.481" y="-474.4" font-family="Arial" font-size="14.00" fill="#000000"> サブ画像4</text>
<polygon fill="none" stroke="#000000" points="538,-433 538,-463 879,-463 879,-433 538,-433"/>
<text text-anchor="start" x="545" y="-444.4" font-family="Arial" font-size="14.00" fill="#000000">sub_large_image4 </text>
<text text-anchor="start" x="664.0336" y="-444.4" font-family="Arial" font-size="14.00" fill="#666666">[text]</text>
<text text-anchor="start" x="694.3786" y="-444.4" font-family="Arial" font-size="14.00" fill="#000000"> サブ拡大画像4</text>
<polygon fill="none" stroke="#000000" points="538,-403 538,-433 879,-433 879,-403 538,-403"/>
<text text-anchor="start" x="545" y="-414.4" font-family="Arial" font-size="14.00" fill="#000000">sub_title5 </text>
<text text-anchor="start" x="608.798" y="-414.4" font-family="Arial" font-size="14.00" fill="#666666">[text]</text>
<text text-anchor="start" x="639.143" y="-414.4" font-family="Arial" font-size="14.00" fill="#000000"> サブタイトル5</text>
<polygon fill="none" stroke="#000000" points="538,-373 538,-403 879,-403 879,-373 538,-373"/>
<text text-anchor="start" x="545" y="-384.4" font-family="Arial" font-size="14.00" fill="#000000">sub_comment5 </text>
<text text-anchor="start" x="644.5806" y="-384.4" font-family="Arial" font-size="14.00" fill="#666666">[text]</text>
<text text-anchor="start" x="674.9256" y="-384.4" font-family="Arial" font-size="14.00" fill="#000000"> サブコメント5</text>
<polygon fill="none" stroke="#000000" points="538,-343 538,-373 879,-373 879,-343 538,-343"/>
<text text-anchor="start" x="545" y="-354.4" font-family="Arial" font-size="14.00" fill="#000000">sub_image5 </text>
<text text-anchor="start" x="625.136" y="-354.4" font-family="Arial" font-size="14.00" fill="#666666">[text]</text>
<text text-anchor="start" x="655.481" y="-354.4" font-family="Arial" font-size="14.00" fill="#000000"> サブ画像5</text>
<polygon fill="none" stroke="#000000" points="538,-313 538,-343 879,-343 879,-313 538,-313"/>
<text text-anchor="start" x="545" y="-324.4" font-family="Arial" font-size="14.00" fill="#000000">sub_large_image5 </text>
<text text-anchor="start" x="664.0336" y="-324.4" font-family="Arial" font-size="14.00" fill="#666666">[text]</text>
<text text-anchor="start" x="694.3786" y="-324.4" font-family="Arial" font-size="14.00" fill="#000000"> サブ拡大画像5</text>
<polygon fill="none" stroke="#000000" points="538,-283 538,-313 879,-313 879,-283 538,-283"/>
<text text-anchor="start" x="545" y="-294.4" font-family="Arial" font-size="14.00" fill="#000000">sub_title6 </text>
<text text-anchor="start" x="608.798" y="-294.4" font-family="Arial" font-size="14.00" fill="#666666">[text]</text>
<text text-anchor="start" x="639.143" y="-294.4" font-family="Arial" font-size="14.00" fill="#000000"> サブタイトル6</text>
<polygon fill="none" stroke="#000000" points="538,-253 538,-283 879,-283 879,-253 538,-253"/>
<text text-anchor="start" x="545" y="-264.4" font-family="Arial" font-size="14.00" fill="#000000">sub_comment6 </text>
<text text-anchor="start" x="644.5806" y="-264.4" font-family="Arial" font-size="14.00" fill="#666666">[text]</text>
<text text-anchor="start" x="674.9256" y="-264.4" font-family="Arial" font-size="14.00" fill="#000000"> サブコメント6</text>
<polygon fill="none" stroke="#000000" points="538,-223 538,-253 879,-253 879,-223 538,-223"/>
<text text-anchor="start" x="545" y="-234.4" font-family="Arial" font-size="14.00" fill="#000000">sub_image6 </text>
<text text-anchor="start" x="625.136" y="-234.4" font-family="Arial" font-size="14.00" fill="#666666">[text]</text>
<text text-anchor="start" x="655.481" y="-234.4" font-family="Arial" font-size="14.00" fill="#000000"> サブ画像6</text>
<polygon fill="none" stroke="#000000" points="538,-193 538,-223 879,-223 879,-193 538,-193"/>
<text text-anchor="start" x="545" y="-204.4" font-family="Arial" font-size="14.00" fill="#000000">sub_large_image6 </text>
<text text-anchor="start" x="664.0336" y="-204.4" font-family="Arial" font-size="14.00" fill="#666666">[text]</text>
<text text-anchor="start" x="694.3786" y="-204.4" font-family="Arial" font-size="14.00" fill="#000000"> サブ拡大画像6</text>
<polygon fill="none" stroke="#000000" points="538,-163 538,-193 879,-193 879,-163 538,-163"/>
<text text-anchor="start" x="545" y="-174.4" font-family="Arial" font-size="14.00" fill="#000000">del_flg </text>
<text text-anchor="start" x="590.1248" y="-174.4" font-family="Arial" font-size="14.00" fill="#666666">[smallint]</text>
<text text-anchor="start" x="645.3422" y="-174.4" font-family="Arial" font-size="14.00" fill="#000000"> 削除フラグ</text>
<polygon fill="none" stroke="#000000" points="538,-133 538,-163 879,-163 879,-133 538,-133"/>
<text text-anchor="start" x="545" y="-144.4" font-family="Arial" font-size="14.00" fill="#000000">creator_id </text>
<text text-anchor="start" x="611.122" y="-144.4" font-family="Arial" font-size="14.00" fill="#666666">[integer]</text>
<text text-anchor="start" x="661.6914" y="-144.4" font-family="Arial" font-size="14.00" fill="#000000"> 作成者ID</text>
<polygon fill="none" stroke="#000000" points="538,-103 538,-133 879,-133 879,-103 538,-103"/>
<text text-anchor="start" x="544.735" y="-114.4" font-family="Arial" font-size="14.00" fill="#000000">create_date </text>
<text text-anchor="start" x="622.5456" y="-114.4" font-family="Arial" font-size="14.00" fill="#666666">[timestamp without time zone]</text>
<text text-anchor="start" x="807.6858" y="-114.4" font-family="Arial" font-size="14.00" fill="#000000"> 作成日時</text>
<polygon fill="none" stroke="#000000" points="538,-73 538,-103 879,-103 879,-73 538,-73"/>
<text text-anchor="start" x="545" y="-84.4" font-family="Arial" font-size="14.00" fill="#000000">update_date </text>
<text text-anchor="start" x="626.7152" y="-84.4" font-family="Arial" font-size="14.00" fill="#666666">[timestamp without time zone]</text>
<text text-anchor="start" x="811.8554" y="-84.4" font-family="Arial" font-size="14.00" fill="#000000"> 更新日時</text>
<polygon fill="none" stroke="#000000" points="538,-43 538,-73 879,-73 879,-43 538,-43"/>
<text text-anchor="start" x="545" y="-54.4" font-family="Arial" font-size="14.00" fill="#000000">deliv_date_id </text>
<text text-anchor="start" x="631.3618" y="-54.4" font-family="Arial" font-size="14.00" fill="#666666">[integer]</text>
<text text-anchor="start" x="681.9312" y="-54.4" font-family="Arial" font-size="14.00" fill="#000000"> 発送日目安</text>
</g>
<!-- public.dtb_customer_favorite_products&#45;&gt;public.dtb_products -->
<g id="edge2" class="edge">
<title>public.dtb_customer_favorite_products:product_id&#45;&gt;public.dtb_products:product_id</title>
<path fill="none" stroke="#000000" stroke-dasharray="5,2" d="M693.0051,-1637.9343C733.8965,-1628.4181 713.8652,-1557.4653 683,-1518 642.0936,-1465.6956 578.9064,-1534.3044 538,-1482 509.5247,-1445.5905 491.7778,-1378 538,-1378"/>
<polygon fill="#000000" stroke="#000000" points="692.9437,-1637.9407 682.5233,-1634.5253 687.9719,-1638.4704 683,-1639 683,-1639 683,-1639 687.9719,-1638.4704 683.4767,-1643.4747 692.9437,-1637.9407 692.9437,-1637.9407"/>
<text text-anchor="start" x="690.3245" y="-1649" font-family="Arial" font-size="10.00" fill="#000000">Additional Relation</text>
</g>
</g>
</svg>
