<?xml version="1.0" encoding="UTF-8" standalone="no"?>
<!DOCTYPE svg PUBLIC "-//W3C//DTD SVG 1.1//EN"
 "http://www.w3.org/Graphics/SVG/1.1/DTD/svg11.dtd">
<!-- Generated by graphviz version 2.40.1 (20161225.0304)
 -->
<!-- Title: public.dtb_news Pages: 1 -->
<svg width="456pt" height="506pt"
 viewBox="0.00 0.00 456.00 506.00" xmlns="http://www.w3.org/2000/svg" xmlns:xlink="http://www.w3.org/1999/xlink">
<g id="graph0" class="graph" transform="scale(1 1) rotate(0) translate(4 502)">
<title>public.dtb_news</title>
<polygon fill="#ffffff" stroke="transparent" points="-4,4 -4,-502 452,-502 452,4 -4,4"/>
<!-- public.dtb_news -->
<g id="node1" class="node">
<title>public.dtb_news</title>
<polygon fill="#efefef" stroke="transparent" points="46,-406 46,-452 402,-452 402,-406 46,-406"/>
<polygon fill="none" stroke="#000000" points="46,-406 46,-452 402,-452 402,-406 46,-406"/>
<text text-anchor="start" x="110.8548" y="-429.8" font-family="Arial Bold" font-size="18.00" fill="#000000">public.dtb_news</text>
<text text-anchor="start" x="239.8914" y="-429.8" font-family="Arial" font-size="14.00" fill="#000000"> </text>
<text text-anchor="start" x="243.782" y="-429.8" font-family="Arial" font-size="14.00" fill="#666666">[BASE TABLE]</text>
<text text-anchor="start" x="198.7104" y="-415.4" font-family="Arial" font-size="14.00" fill="#333333">新着情報</text>
<polygon fill="none" stroke="#000000" points="46,-376 46,-406 402,-406 402,-376 46,-376"/>
<text text-anchor="start" x="53" y="-387.4" font-family="Arial" font-size="14.00" fill="#000000">news_id </text>
<text text-anchor="start" x="108.2342" y="-387.4" font-family="Arial" font-size="14.00" fill="#666666">[integer]</text>
<text text-anchor="start" x="158.8036" y="-387.4" font-family="Arial" font-size="14.00" fill="#000000"> 新着情報ID</text>
<polygon fill="none" stroke="#000000" points="46,-346 46,-376 402,-376 402,-346 46,-346"/>
<text text-anchor="start" x="52.8395" y="-357.4" font-family="Arial" font-size="14.00" fill="#000000">news_date </text>
<text text-anchor="start" x="124.4229" y="-357.4" font-family="Arial" font-size="14.00" fill="#666666">[timestamp without time zone]</text>
<text text-anchor="start" x="309.5631" y="-357.4" font-family="Arial" font-size="14.00" fill="#000000"> 新着情報日付</text>
<polygon fill="none" stroke="#000000" points="46,-316 46,-346 402,-346 402,-316 46,-316"/>
<text text-anchor="start" x="53" y="-327.4" font-family="Arial" font-size="14.00" fill="#000000">rank </text>
<text text-anchor="start" x="84.1164" y="-327.4" font-family="Arial" font-size="14.00" fill="#666666">[integer]</text>
<text text-anchor="start" x="134.6858" y="-327.4" font-family="Arial" font-size="14.00" fill="#000000"> 表示順</text>
<polygon fill="none" stroke="#000000" points="46,-286 46,-316 402,-316 402,-286 46,-286"/>
<text text-anchor="start" x="53" y="-297.4" font-family="Arial" font-size="14.00" fill="#000000">news_title </text>
<text text-anchor="start" x="119.122" y="-297.4" font-family="Arial" font-size="14.00" fill="#666666">[text]</text>
<text text-anchor="start" x="149.467" y="-297.4" font-family="Arial" font-size="14.00" fill="#000000"> 新着情報タイトル</text>
<polygon fill="none" stroke="#000000" points="46,-256 46,-286 402,-286 402,-256 46,-256"/>
<text text-anchor="start" x="53" y="-267.4" font-family="Arial" font-size="14.00" fill="#000000">news_comment </text>
<text text-anchor="start" x="154.9046" y="-267.4" font-family="Arial" font-size="14.00" fill="#666666">[text]</text>
<text text-anchor="start" x="185.2496" y="-267.4" font-family="Arial" font-size="14.00" fill="#000000"> 新着情報コメント</text>
<polygon fill="none" stroke="#000000" points="46,-226 46,-256 402,-256 402,-226 46,-226"/>
<text text-anchor="start" x="53" y="-237.4" font-family="Arial" font-size="14.00" fill="#000000">news_url </text>
<text text-anchor="start" x="112.8948" y="-237.4" font-family="Arial" font-size="14.00" fill="#666666">[text]</text>
<text text-anchor="start" x="143.2398" y="-237.4" font-family="Arial" font-size="14.00" fill="#000000"> 新着情報URL</text>
<polygon fill="none" stroke="#000000" points="46,-196 46,-226 402,-226 402,-196 46,-196"/>
<text text-anchor="start" x="53" y="-207.4" font-family="Arial" font-size="14.00" fill="#000000">news_select </text>
<text text-anchor="start" x="133.9074" y="-207.4" font-family="Arial" font-size="14.00" fill="#666666">[smallint]</text>
<text text-anchor="start" x="189.1248" y="-207.4" font-family="Arial" font-size="14.00" fill="#000000"> 不明（未使用？）</text>
<polygon fill="none" stroke="#000000" points="46,-166 46,-196 402,-196 402,-166 46,-166"/>
<text text-anchor="start" x="53" y="-177.4" font-family="Arial" font-size="14.00" fill="#000000">link_method </text>
<text text-anchor="start" x="132.3506" y="-177.4" font-family="Arial" font-size="14.00" fill="#666666">[text]</text>
<text text-anchor="start" x="162.6956" y="-177.4" font-family="Arial" font-size="14.00" fill="#000000"> 別ウィンドウで開くフラグ</text>
<polygon fill="none" stroke="#000000" points="46,-136 46,-166 402,-166 402,-136 46,-136"/>
<text text-anchor="start" x="53" y="-147.4" font-family="Arial" font-size="14.00" fill="#000000">creator_id </text>
<text text-anchor="start" x="119.122" y="-147.4" font-family="Arial" font-size="14.00" fill="#666666">[integer]</text>
<text text-anchor="start" x="169.6914" y="-147.4" font-family="Arial" font-size="14.00" fill="#000000"> 作成者ID</text>
<polygon fill="none" stroke="#000000" points="46,-106 46,-136 402,-136 402,-106 46,-106"/>
<text text-anchor="start" x="53" y="-117.4" font-family="Arial" font-size="14.00" fill="#000000">create_date </text>
<text text-anchor="start" x="130.8106" y="-117.4" font-family="Arial" font-size="14.00" fill="#666666">[timestamp without time zone]</text>
<text text-anchor="start" x="315.9508" y="-117.4" font-family="Arial" font-size="14.00" fill="#000000"> 作成日時</text>
<polygon fill="none" stroke="#000000" points="46,-76 46,-106 402,-106 402,-76 46,-76"/>
<text text-anchor="start" x="53" y="-87.4" font-family="Arial" font-size="14.00" fill="#000000">update_date </text>
<text text-anchor="start" x="134.7152" y="-87.4" font-family="Arial" font-size="14.00" fill="#666666">[timestamp without time zone]</text>
<text text-anchor="start" x="319.8554" y="-87.4" font-family="Arial" font-size="14.00" fill="#000000"> 更新日時</text>
<polygon fill="none" stroke="#000000" points="46,-46 46,-76 402,-76 402,-46 46,-46"/>
<text text-anchor="start" x="53" y="-57.4" font-family="Arial" font-size="14.00" fill="#000000">del_flg </text>
<text text-anchor="start" x="98.1248" y="-57.4" font-family="Arial" font-size="14.00" fill="#666666">[smallint]</text>
<text text-anchor="start" x="153.3422" y="-57.4" font-family="Arial" font-size="14.00" fill="#000000"> 削除フラグ</text>
<polygon fill="none" stroke="#000000" stroke-width="3" points="44.5,-44.5 44.5,-453.5 403.5,-453.5 403.5,-44.5 44.5,-44.5"/>
</g>
</g>
</svg>
