<?xml version="1.0" encoding="UTF-8" standalone="no"?>
<!DOCTYPE svg PUBLIC "-//W3C//DTD SVG 1.1//EN"
 "http://www.w3.org/Graphics/SVG/1.1/DTD/svg11.dtd">
<!-- Generated by graphviz version 2.40.1 (20161225.0304)
 -->
<!-- Title: public.dtb_module_update_logs Pages: 1 -->
<svg width="465pt" height="386pt"
 viewBox="0.00 0.00 465.00 386.00" xmlns="http://www.w3.org/2000/svg" xmlns:xlink="http://www.w3.org/1999/xlink">
<g id="graph0" class="graph" transform="scale(1 1) rotate(0) translate(4 382)">
<title>public.dtb_module_update_logs</title>
<polygon fill="#ffffff" stroke="transparent" points="-4,4 -4,-382 461,-382 461,4 -4,4"/>
<!-- public.dtb_module_update_logs -->
<g id="node1" class="node">
<title>public.dtb_module_update_logs</title>
<polygon fill="#efefef" stroke="transparent" points="46.5,-286 46.5,-332 411.5,-332 411.5,-286 46.5,-286"/>
<polygon fill="none" stroke="#000000" points="46.5,-286 46.5,-332 411.5,-332 411.5,-286 46.5,-286"/>
<text text-anchor="start" x="53.3264" y="-309.8" font-family="Arial Bold" font-size="18.00" fill="#000000">public.dtb_module_update_logs</text>
<text text-anchor="start" x="307.4198" y="-309.8" font-family="Arial" font-size="14.00" fill="#000000"> </text>
<text text-anchor="start" x="311.3104" y="-309.8" font-family="Arial" font-size="14.00" fill="#666666">[BASE TABLE]</text>
<text text-anchor="start" x="147.4654" y="-295.4" font-family="Arial" font-size="14.00" fill="#333333">モジュール更新ログ情報</text>
<polygon fill="none" stroke="#000000" points="46.5,-256 46.5,-286 411.5,-286 411.5,-256 46.5,-256"/>
<text text-anchor="start" x="53.5" y="-267.4" font-family="Arial" font-size="14.00" fill="#000000">log_id </text>
<text text-anchor="start" x="94.7342" y="-267.4" font-family="Arial" font-size="14.00" fill="#666666">[integer]</text>
<text text-anchor="start" x="145.3036" y="-267.4" font-family="Arial" font-size="14.00" fill="#000000"> ログID</text>
<polygon fill="none" stroke="#000000" points="46.5,-226 46.5,-256 411.5,-256 411.5,-226 46.5,-226"/>
<text text-anchor="start" x="53.5" y="-237.4" font-family="Arial" font-size="14.00" fill="#000000">module_id </text>
<text text-anchor="start" x="121.96" y="-237.4" font-family="Arial" font-size="14.00" fill="#666666">[integer]</text>
<text text-anchor="start" x="172.5294" y="-237.4" font-family="Arial" font-size="14.00" fill="#000000"> モジュールID</text>
<polygon fill="none" stroke="#000000" points="46.5,-196 46.5,-226 411.5,-226 411.5,-196 46.5,-196"/>
<text text-anchor="start" x="53.5" y="-207.4" font-family="Arial" font-size="14.00" fill="#000000">buckup_path </text>
<text text-anchor="start" x="137.542" y="-207.4" font-family="Arial" font-size="14.00" fill="#666666">[text]</text>
<text text-anchor="start" x="167.887" y="-207.4" font-family="Arial" font-size="14.00" fill="#000000"> バックアップパス</text>
<polygon fill="none" stroke="#000000" points="46.5,-166 46.5,-196 411.5,-196 411.5,-166 46.5,-166"/>
<text text-anchor="start" x="53.5" y="-177.4" font-family="Arial" font-size="14.00" fill="#000000">error_flg </text>
<text text-anchor="start" x="109.5" y="-177.4" font-family="Arial" font-size="14.00" fill="#666666">[smallint]</text>
<text text-anchor="start" x="164.7174" y="-177.4" font-family="Arial" font-size="14.00" fill="#000000"> エラーフラグ</text>
<polygon fill="none" stroke="#000000" points="46.5,-136 46.5,-166 411.5,-166 411.5,-136 46.5,-136"/>
<text text-anchor="start" x="53.5" y="-147.4" font-family="Arial" font-size="14.00" fill="#000000">error </text>
<text text-anchor="start" x="86.9376" y="-147.4" font-family="Arial" font-size="14.00" fill="#666666">[text]</text>
<text text-anchor="start" x="117.2826" y="-147.4" font-family="Arial" font-size="14.00" fill="#000000"> エラーメッセージ</text>
<polygon fill="none" stroke="#000000" points="46.5,-106 46.5,-136 411.5,-136 411.5,-106 46.5,-106"/>
<text text-anchor="start" x="53.5" y="-117.4" font-family="Arial" font-size="14.00" fill="#000000">ok </text>
<text text-anchor="start" x="72.1732" y="-117.4" font-family="Arial" font-size="14.00" fill="#666666">[text]</text>
<text text-anchor="start" x="102.5182" y="-117.4" font-family="Arial" font-size="14.00" fill="#000000"> 正常終了メッセージ</text>
<polygon fill="none" stroke="#000000" points="46.5,-76 46.5,-106 411.5,-106 411.5,-76 46.5,-76"/>
<text text-anchor="start" x="53.5" y="-87.4" font-family="Arial" font-size="14.00" fill="#000000">create_date </text>
<text text-anchor="start" x="131.3106" y="-87.4" font-family="Arial" font-size="14.00" fill="#666666">[timestamp without time zone]</text>
<text text-anchor="start" x="316.4508" y="-87.4" font-family="Arial" font-size="14.00" fill="#000000"> 作成日時</text>
<polygon fill="none" stroke="#000000" points="46.5,-46 46.5,-76 411.5,-76 411.5,-46 46.5,-46"/>
<text text-anchor="start" x="53.5" y="-57.4" font-family="Arial" font-size="14.00" fill="#000000">update_date </text>
<text text-anchor="start" x="135.2152" y="-57.4" font-family="Arial" font-size="14.00" fill="#666666">[timestamp without time zone]</text>
<text text-anchor="start" x="320.3554" y="-57.4" font-family="Arial" font-size="14.00" fill="#000000"> 更新日時</text>
<polygon fill="none" stroke="#000000" stroke-width="3" points="44.5,-44.5 44.5,-333.5 412.5,-333.5 412.5,-44.5 44.5,-44.5"/>
</g>
</g>
</svg>
