<?xml version="1.0" encoding="UTF-8" standalone="no"?>
<!DOCTYPE svg PUBLIC "-//W3C//DTD SVG 1.1//EN"
 "http://www.w3.org/Graphics/SVG/1.1/DTD/svg11.dtd">
<!-- Generated by graphviz version 2.40.1 (20161225.0304)
 -->
<!-- Title: public.dtb_category_count Pages: 1 -->
<svg width="492pt" height="674pt"
 viewBox="0.00 0.00 491.50 674.00" xmlns="http://www.w3.org/2000/svg" xmlns:xlink="http://www.w3.org/1999/xlink">
<g id="graph0" class="graph" transform="scale(1 1) rotate(0) translate(4 670)">
<title>public.dtb_category_count</title>
<polygon fill="#ffffff" stroke="transparent" points="-4,4 -4,-670 487.5,-670 487.5,4 -4,4"/>
<!-- public.dtb_category_count -->
<g id="node1" class="node">
<title>public.dtb_category_count</title>
<polygon fill="#efefef" stroke="transparent" points="97,-574 97,-620 438,-620 438,-574 97,-574"/>
<polygon fill="none" stroke="#000000" points="97,-574 97,-620 438,-620 438,-574 97,-574"/>
<text text-anchor="start" x="113.835" y="-597.8" font-family="Arial Bold" font-size="18.00" fill="#000000">public.dtb_category_count</text>
<text text-anchor="start" x="323.9112" y="-597.8" font-family="Arial" font-size="14.00" fill="#000000"> </text>
<text text-anchor="start" x="327.8018" y="-597.8" font-family="Arial" font-size="14.00" fill="#666666">[BASE TABLE]</text>
<text text-anchor="start" x="208.1239" y="-583.4" font-family="Arial" font-size="14.00" fill="#333333">カテゴリ商品数情報</text>
<polygon fill="none" stroke="#000000" points="97,-544 97,-574 438,-574 438,-544 97,-544"/>
<text text-anchor="start" x="104" y="-555.4" font-family="Arial" font-size="14.00" fill="#000000">category_id </text>
<text text-anchor="start" x="180.244" y="-555.4" font-family="Arial" font-size="14.00" fill="#666666">[integer]</text>
<text text-anchor="start" x="230.8134" y="-555.4" font-family="Arial" font-size="14.00" fill="#000000"> カテゴリID</text>
<polygon fill="none" stroke="#000000" points="97,-514 97,-544 438,-544 438,-514 97,-514"/>
<text text-anchor="start" x="104" y="-525.4" font-family="Arial" font-size="14.00" fill="#000000">product_count </text>
<text text-anchor="start" x="196.5932" y="-525.4" font-family="Arial" font-size="14.00" fill="#666666">[integer]</text>
<text text-anchor="start" x="247.1626" y="-525.4" font-family="Arial" font-size="14.00" fill="#000000"> 商品数</text>
<polygon fill="none" stroke="#000000" points="97,-484 97,-514 438,-514 438,-484 97,-484"/>
<text text-anchor="start" x="103.735" y="-495.4" font-family="Arial" font-size="14.00" fill="#000000">create_date </text>
<text text-anchor="start" x="181.5456" y="-495.4" font-family="Arial" font-size="14.00" fill="#666666">[timestamp without time zone]</text>
<text text-anchor="start" x="366.6858" y="-495.4" font-family="Arial" font-size="14.00" fill="#000000"> 作成日時</text>
<polygon fill="none" stroke="#000000" stroke-width="3" points="95,-482.5 95,-621.5 439,-621.5 439,-482.5 95,-482.5"/>
</g>
<!-- public.dtb_category -->
<g id="node2" class="node">
<title>public.dtb_category</title>
<polygon fill="#efefef" stroke="transparent" points="97,-313 97,-359 438,-359 438,-313 97,-313"/>
<polygon fill="none" stroke="#000000" points="97,-313 97,-359 438,-359 438,-313 97,-313"/>
<text text-anchor="start" x="140.8485" y="-336.8" font-family="Arial Bold" font-size="18.00" fill="#000000">public.dtb_category</text>
<text text-anchor="start" x="296.8977" y="-336.8" font-family="Arial" font-size="14.00" fill="#000000"> </text>
<text text-anchor="start" x="300.7883" y="-336.8" font-family="Arial" font-size="14.00" fill="#666666">[BASE TABLE]</text>
<text text-anchor="start" x="225.6316" y="-322.4" font-family="Arial" font-size="14.00" fill="#333333">カテゴリ情報</text>
<polygon fill="none" stroke="#000000" points="97,-283 97,-313 438,-313 438,-283 97,-283"/>
<text text-anchor="start" x="104" y="-294.4" font-family="Arial" font-size="14.00" fill="#000000">category_id </text>
<text text-anchor="start" x="180.244" y="-294.4" font-family="Arial" font-size="14.00" fill="#666666">[integer]</text>
<text text-anchor="start" x="230.8134" y="-294.4" font-family="Arial" font-size="14.00" fill="#000000"> カテゴリID</text>
<polygon fill="none" stroke="#000000" points="97,-253 97,-283 438,-283 438,-253 97,-253"/>
<text text-anchor="start" x="104" y="-264.4" font-family="Arial" font-size="14.00" fill="#000000">category_name </text>
<text text-anchor="start" x="204.3632" y="-264.4" font-family="Arial" font-size="14.00" fill="#666666">[text]</text>
<text text-anchor="start" x="234.7082" y="-264.4" font-family="Arial" font-size="14.00" fill="#000000"> カテゴリ名</text>
<polygon fill="none" stroke="#000000" points="97,-223 97,-253 438,-253 438,-223 97,-223"/>
<text text-anchor="start" x="104" y="-234.4" font-family="Arial" font-size="14.00" fill="#000000">parent_category_id </text>
<text text-anchor="start" x="227.7082" y="-234.4" font-family="Arial" font-size="14.00" fill="#666666">[integer]</text>
<text text-anchor="start" x="278.2776" y="-234.4" font-family="Arial" font-size="14.00" fill="#000000"> 親カテゴリID</text>
<polygon fill="none" stroke="#000000" points="97,-193 97,-223 438,-223 438,-193 97,-193"/>
<text text-anchor="start" x="104" y="-204.4" font-family="Arial" font-size="14.00" fill="#000000">level </text>
<text text-anchor="start" x="136.669" y="-204.4" font-family="Arial" font-size="14.00" fill="#666666">[integer]</text>
<text text-anchor="start" x="187.2384" y="-204.4" font-family="Arial" font-size="14.00" fill="#000000"> 階層</text>
<polygon fill="none" stroke="#000000" points="97,-163 97,-193 438,-193 438,-163 97,-163"/>
<text text-anchor="start" x="104" y="-174.4" font-family="Arial" font-size="14.00" fill="#000000">rank </text>
<text text-anchor="start" x="135.1164" y="-174.4" font-family="Arial" font-size="14.00" fill="#666666">[integer]</text>
<text text-anchor="start" x="185.6858" y="-174.4" font-family="Arial" font-size="14.00" fill="#000000"> 表示順</text>
<polygon fill="none" stroke="#000000" points="97,-133 97,-163 438,-163 438,-133 97,-133"/>
<text text-anchor="start" x="104" y="-144.4" font-family="Arial" font-size="14.00" fill="#000000">creator_id </text>
<text text-anchor="start" x="170.122" y="-144.4" font-family="Arial" font-size="14.00" fill="#666666">[integer]</text>
<text text-anchor="start" x="220.6914" y="-144.4" font-family="Arial" font-size="14.00" fill="#000000"> 作成者ID</text>
<polygon fill="none" stroke="#000000" points="97,-103 97,-133 438,-133 438,-103 97,-103"/>
<text text-anchor="start" x="103.735" y="-114.4" font-family="Arial" font-size="14.00" fill="#000000">create_date </text>
<text text-anchor="start" x="181.5456" y="-114.4" font-family="Arial" font-size="14.00" fill="#666666">[timestamp without time zone]</text>
<text text-anchor="start" x="366.6858" y="-114.4" font-family="Arial" font-size="14.00" fill="#000000"> 作成日時</text>
<polygon fill="none" stroke="#000000" points="97,-73 97,-103 438,-103 438,-73 97,-73"/>
<text text-anchor="start" x="104" y="-84.4" font-family="Arial" font-size="14.00" fill="#000000">update_date </text>
<text text-anchor="start" x="185.7152" y="-84.4" font-family="Arial" font-size="14.00" fill="#666666">[timestamp without time zone]</text>
<text text-anchor="start" x="370.8554" y="-84.4" font-family="Arial" font-size="14.00" fill="#000000"> 更新日時</text>
<polygon fill="none" stroke="#000000" points="97,-43 97,-73 438,-73 438,-43 97,-43"/>
<text text-anchor="start" x="104" y="-54.4" font-family="Arial" font-size="14.00" fill="#000000">del_flg </text>
<text text-anchor="start" x="149.1248" y="-54.4" font-family="Arial" font-size="14.00" fill="#666666">[smallint]</text>
<text text-anchor="start" x="204.3422" y="-54.4" font-family="Arial" font-size="14.00" fill="#000000"> 削除フラグ</text>
</g>
<!-- public.dtb_category_count&#45;&gt;public.dtb_category -->
<g id="edge1" class="edge">
<title>public.dtb_category_count:category_id&#45;&gt;public.dtb_category:category_id</title>
<path fill="none" stroke="#000000" stroke-dasharray="5,2" d="M87.1027,-556.2454C39.2126,-528.3513 42.5117,-298 97,-298"/>
<polygon fill="#000000" stroke="#000000" points="87.3662,-556.3187 95.7934,-563.3352 92.1831,-557.6593 97,-559 97,-559 97,-559 92.1831,-557.6593 98.2066,-554.6648 87.3662,-556.3187 87.3662,-556.3187"/>
<text text-anchor="start" x="7.3245" y="-569" font-family="Arial" font-size="10.00" fill="#000000">Additional Relation</text>
</g>
</g>
</svg>
