<?xml version="1.0" encoding="UTF-8" standalone="no"?>
<!DOCTYPE svg PUBLIC "-//W3C//DTD SVG 1.1//EN"
 "http://www.w3.org/Graphics/SVG/1.1/DTD/svg11.dtd">
<!-- Generated by graphviz version 2.40.1 (20161225.0304)
 -->
<!-- Title: public.dtb_maker Pages: 1 -->
<svg width="880pt" height="2462pt"
 viewBox="0.00 0.00 880.00 2462.00" xmlns="http://www.w3.org/2000/svg" xmlns:xlink="http://www.w3.org/1999/xlink">
<g id="graph0" class="graph" transform="scale(1 1) rotate(0) translate(4 2458)">
<title>public.dtb_maker</title>
<polygon fill="#ffffff" stroke="transparent" points="-4,4 -4,-2458 876,-2458 876,4 -4,4"/>
<!-- public.dtb_maker -->
<g id="node1" class="node">
<title>public.dtb_maker</title>
<polygon fill="#efefef" stroke="transparent" points="265.5,-844 265.5,-890 606.5,-890 606.5,-844 265.5,-844"/>
<polygon fill="none" stroke="#000000" points="265.5,-844 265.5,-890 606.5,-890 606.5,-844 265.5,-844"/>
<text text-anchor="start" x="318.8597" y="-867.8" font-family="Arial Bold" font-size="18.00" fill="#000000">public.dtb_maker</text>
<text text-anchor="start" x="455.8865" y="-867.8" font-family="Arial" font-size="14.00" fill="#000000"> </text>
<text text-anchor="start" x="459.7771" y="-867.8" font-family="Arial" font-size="14.00" fill="#666666">[BASE TABLE]</text>
<text text-anchor="start" x="397.64" y="-853.4" font-family="Arial" font-size="14.00" fill="#333333">メーカー</text>
<polygon fill="none" stroke="#000000" points="265.5,-814 265.5,-844 606.5,-844 606.5,-814 265.5,-814"/>
<text text-anchor="start" x="272.5" y="-825.4" font-family="Arial" font-size="14.00" fill="#000000">maker_id </text>
<text text-anchor="start" x="333.9488" y="-825.4" font-family="Arial" font-size="14.00" fill="#666666">[integer]</text>
<text text-anchor="start" x="384.5182" y="-825.4" font-family="Arial" font-size="14.00" fill="#000000"> メーカーID</text>
<polygon fill="none" stroke="#000000" points="265.5,-784 265.5,-814 606.5,-814 606.5,-784 265.5,-784"/>
<text text-anchor="start" x="272.5" y="-795.4" font-family="Arial" font-size="14.00" fill="#000000">name </text>
<text text-anchor="start" x="311.399" y="-795.4" font-family="Arial" font-size="14.00" fill="#666666">[text]</text>
<text text-anchor="start" x="341.744" y="-795.4" font-family="Arial" font-size="14.00" fill="#000000"> メーカー名</text>
<polygon fill="none" stroke="#000000" points="265.5,-754 265.5,-784 606.5,-784 606.5,-754 265.5,-754"/>
<text text-anchor="start" x="272.5" y="-765.4" font-family="Arial" font-size="14.00" fill="#000000">rank </text>
<text text-anchor="start" x="303.6164" y="-765.4" font-family="Arial" font-size="14.00" fill="#666666">[integer]</text>
<text text-anchor="start" x="354.1858" y="-765.4" font-family="Arial" font-size="14.00" fill="#000000"> 表示順</text>
<polygon fill="none" stroke="#000000" points="265.5,-724 265.5,-754 606.5,-754 606.5,-724 265.5,-724"/>
<text text-anchor="start" x="272.5" y="-735.4" font-family="Arial" font-size="14.00" fill="#000000">creator_id </text>
<text text-anchor="start" x="338.622" y="-735.4" font-family="Arial" font-size="14.00" fill="#666666">[integer]</text>
<text text-anchor="start" x="389.1914" y="-735.4" font-family="Arial" font-size="14.00" fill="#000000"> 作成者ID</text>
<polygon fill="none" stroke="#000000" points="265.5,-694 265.5,-724 606.5,-724 606.5,-694 265.5,-694"/>
<text text-anchor="start" x="272.235" y="-705.4" font-family="Arial" font-size="14.00" fill="#000000">create_date </text>
<text text-anchor="start" x="350.0456" y="-705.4" font-family="Arial" font-size="14.00" fill="#666666">[timestamp without time zone]</text>
<text text-anchor="start" x="535.1858" y="-705.4" font-family="Arial" font-size="14.00" fill="#000000"> 作成日時</text>
<polygon fill="none" stroke="#000000" points="265.5,-664 265.5,-694 606.5,-694 606.5,-664 265.5,-664"/>
<text text-anchor="start" x="272.5" y="-675.4" font-family="Arial" font-size="14.00" fill="#000000">update_date </text>
<text text-anchor="start" x="354.2152" y="-675.4" font-family="Arial" font-size="14.00" fill="#666666">[timestamp without time zone]</text>
<text text-anchor="start" x="539.3554" y="-675.4" font-family="Arial" font-size="14.00" fill="#000000"> 更新日時</text>
<polygon fill="none" stroke="#000000" points="265.5,-634 265.5,-664 606.5,-664 606.5,-634 265.5,-634"/>
<text text-anchor="start" x="272.5" y="-645.4" font-family="Arial" font-size="14.00" fill="#000000">del_flg </text>
<text text-anchor="start" x="317.6248" y="-645.4" font-family="Arial" font-size="14.00" fill="#666666">[smallint]</text>
<text text-anchor="start" x="372.8422" y="-645.4" font-family="Arial" font-size="14.00" fill="#000000"> 削除フラグ</text>
<polygon fill="none" stroke="#000000" stroke-width="3" points="263.5,-632.5 263.5,-891.5 607.5,-891.5 607.5,-632.5 263.5,-632.5"/>
</g>
<!-- public.dtb_member -->
<g id="node4" class="node">
<title>public.dtb_member</title>
<polygon fill="#efefef" stroke="transparent" points="247.5,-463 247.5,-509 624.5,-509 624.5,-463 247.5,-463"/>
<polygon fill="none" stroke="#000000" points="247.5,-463 247.5,-509 624.5,-509 624.5,-463 247.5,-463"/>
<text text-anchor="start" x="310.8605" y="-486.8" font-family="Arial Bold" font-size="18.00" fill="#000000">public.dtb_member</text>
<text text-anchor="start" x="463.8857" y="-486.8" font-family="Arial" font-size="14.00" fill="#000000"> </text>
<text text-anchor="start" x="467.7763" y="-486.8" font-family="Arial" font-size="14.00" fill="#666666">[BASE TABLE]</text>
<text text-anchor="start" x="356.4016" y="-472.4" font-family="Arial" font-size="14.00" fill="#333333">管理画面メンバー情報</text>
<polygon fill="none" stroke="#000000" points="247.5,-433 247.5,-463 624.5,-463 624.5,-433 247.5,-433"/>
<text text-anchor="start" x="254.5" y="-444.4" font-family="Arial" font-size="14.00" fill="#000000">member_id </text>
<text text-anchor="start" x="328.392" y="-444.4" font-family="Arial" font-size="14.00" fill="#666666">[integer]</text>
<text text-anchor="start" x="378.9614" y="-444.4" font-family="Arial" font-size="14.00" fill="#000000"> メンバーID</text>
<polygon fill="none" stroke="#000000" points="247.5,-403 247.5,-433 624.5,-433 624.5,-403 247.5,-403"/>
<text text-anchor="start" x="254.5" y="-414.4" font-family="Arial" font-size="14.00" fill="#000000">name </text>
<text text-anchor="start" x="293.399" y="-414.4" font-family="Arial" font-size="14.00" fill="#666666">[text]</text>
<text text-anchor="start" x="323.744" y="-414.4" font-family="Arial" font-size="14.00" fill="#000000"> 名前</text>
<polygon fill="none" stroke="#000000" points="247.5,-373 247.5,-403 624.5,-403 624.5,-373 247.5,-373"/>
<text text-anchor="start" x="254.5" y="-384.4" font-family="Arial" font-size="14.00" fill="#000000">department </text>
<text text-anchor="start" x="329.1886" y="-384.4" font-family="Arial" font-size="14.00" fill="#666666">[text]</text>
<text text-anchor="start" x="359.5336" y="-384.4" font-family="Arial" font-size="14.00" fill="#000000"> 部門</text>
<polygon fill="none" stroke="#000000" points="247.5,-343 247.5,-373 624.5,-373 624.5,-343 247.5,-343"/>
<text text-anchor="start" x="254.5" y="-354.4" font-family="Arial" font-size="14.00" fill="#000000">login_id </text>
<text text-anchor="start" x="306.6234" y="-354.4" font-family="Arial" font-size="14.00" fill="#666666">[text]</text>
<text text-anchor="start" x="336.9684" y="-354.4" font-family="Arial" font-size="14.00" fill="#000000"> ログインID</text>
<polygon fill="none" stroke="#000000" points="247.5,-313 247.5,-343 624.5,-343 624.5,-313 247.5,-313"/>
<text text-anchor="start" x="254.5" y="-324.4" font-family="Arial" font-size="14.00" fill="#000000">password </text>
<text text-anchor="start" x="318.2882" y="-324.4" font-family="Arial" font-size="14.00" fill="#666666">[text]</text>
<text text-anchor="start" x="348.6332" y="-324.4" font-family="Arial" font-size="14.00" fill="#000000"> パスワード</text>
<polygon fill="none" stroke="#000000" points="247.5,-283 247.5,-313 624.5,-313 624.5,-283 247.5,-283"/>
<text text-anchor="start" x="254.5" y="-294.4" font-family="Arial" font-size="14.00" fill="#000000">salt </text>
<text text-anchor="start" x="280.1704" y="-294.4" font-family="Arial" font-size="14.00" fill="#666666">[text]</text>
<text text-anchor="start" x="310.5154" y="-294.4" font-family="Arial" font-size="14.00" fill="#000000"> 暗号化付与文字列</text>
<polygon fill="none" stroke="#000000" points="247.5,-253 247.5,-283 624.5,-283 624.5,-253 247.5,-253"/>
<text text-anchor="start" x="254.5" y="-264.4" font-family="Arial" font-size="14.00" fill="#000000">authority </text>
<text text-anchor="start" x="312.0694" y="-264.4" font-family="Arial" font-size="14.00" fill="#666666">[smallint]</text>
<text text-anchor="start" x="367.2868" y="-264.4" font-family="Arial" font-size="14.00" fill="#000000"> 権限</text>
<polygon fill="none" stroke="#000000" points="247.5,-223 247.5,-253 624.5,-253 624.5,-223 247.5,-223"/>
<text text-anchor="start" x="254.5" y="-234.4" font-family="Arial" font-size="14.00" fill="#000000">rank </text>
<text text-anchor="start" x="285.6164" y="-234.4" font-family="Arial" font-size="14.00" fill="#666666">[integer]</text>
<text text-anchor="start" x="336.1858" y="-234.4" font-family="Arial" font-size="14.00" fill="#000000"> 表示順</text>
<polygon fill="none" stroke="#000000" points="247.5,-193 247.5,-223 624.5,-223 624.5,-193 247.5,-193"/>
<text text-anchor="start" x="254.5" y="-204.4" font-family="Arial" font-size="14.00" fill="#000000">work </text>
<text text-anchor="start" x="287.9404" y="-204.4" font-family="Arial" font-size="14.00" fill="#666666">[smallint]</text>
<text text-anchor="start" x="343.1578" y="-204.4" font-family="Arial" font-size="14.00" fill="#000000"> 稼動フラグ</text>
<polygon fill="none" stroke="#000000" points="247.5,-163 247.5,-193 624.5,-193 624.5,-163 247.5,-163"/>
<text text-anchor="start" x="254.5" y="-174.4" font-family="Arial" font-size="14.00" fill="#000000">del_flg </text>
<text text-anchor="start" x="299.6248" y="-174.4" font-family="Arial" font-size="14.00" fill="#666666">[smallint]</text>
<text text-anchor="start" x="354.8422" y="-174.4" font-family="Arial" font-size="14.00" fill="#000000"> 削除フラグ</text>
<polygon fill="none" stroke="#000000" points="247.5,-133 247.5,-163 624.5,-163 624.5,-133 247.5,-133"/>
<text text-anchor="start" x="254.5" y="-144.4" font-family="Arial" font-size="14.00" fill="#000000">creator_id </text>
<text text-anchor="start" x="320.622" y="-144.4" font-family="Arial" font-size="14.00" fill="#666666">[integer]</text>
<text text-anchor="start" x="371.1914" y="-144.4" font-family="Arial" font-size="14.00" fill="#000000"> 作成者ID</text>
<polygon fill="none" stroke="#000000" points="247.5,-103 247.5,-133 624.5,-133 624.5,-103 247.5,-103"/>
<text text-anchor="start" x="254.5" y="-114.4" font-family="Arial" font-size="14.00" fill="#000000">create_date </text>
<text text-anchor="start" x="332.3106" y="-114.4" font-family="Arial" font-size="14.00" fill="#666666">[timestamp without time zone]</text>
<text text-anchor="start" x="517.4508" y="-114.4" font-family="Arial" font-size="14.00" fill="#000000"> 作成日時</text>
<polygon fill="none" stroke="#000000" points="247.5,-73 247.5,-103 624.5,-103 624.5,-73 247.5,-73"/>
<text text-anchor="start" x="254.5" y="-84.4" font-family="Arial" font-size="14.00" fill="#000000">update_date </text>
<text text-anchor="start" x="336.2152" y="-84.4" font-family="Arial" font-size="14.00" fill="#666666">[timestamp without time zone]</text>
<text text-anchor="start" x="521.3554" y="-84.4" font-family="Arial" font-size="14.00" fill="#000000"> 更新日付</text>
<polygon fill="none" stroke="#000000" points="247.5,-43 247.5,-73 624.5,-73 624.5,-43 247.5,-43"/>
<text text-anchor="start" x="254.4851" y="-54.4" font-family="Arial" font-size="14.00" fill="#000000">login_date </text>
<text text-anchor="start" x="322.9577" y="-54.4" font-family="Arial" font-size="14.00" fill="#666666">[timestamp without time zone]</text>
<text text-anchor="start" x="508.0979" y="-54.4" font-family="Arial" font-size="14.00" fill="#000000"> 最終ログイン日時</text>
</g>
<!-- public.dtb_maker&#45;&gt;public.dtb_member -->
<g id="edge3" class="edge">
<title>public.dtb_maker:creator_id&#45;&gt;public.dtb_member:member_id</title>
<path fill="none" stroke="#000000" stroke-dasharray="5,2" d="M255.4834,-738.4037C135.0729,-723.8566 121.3362,-448 247.5,-448"/>
<polygon fill="#000000" stroke="#000000" points="255.5177,-738.4057 265.2326,-743.492 260.5088,-738.7028 265.5,-739 265.5,-739 265.5,-739 260.5088,-738.7028 265.7674,-734.508 255.5177,-738.4057 255.5177,-738.4057"/>
<text text-anchor="start" x="175.8245" y="-749" font-family="Arial" font-size="10.00" fill="#000000">Additional Relation</text>
</g>
<!-- public.dtb_products -->
<g id="node2" class="node">
<title>public.dtb_products</title>
<polygon fill="#efefef" stroke="transparent" points="43.5,-2365 43.5,-2411 384.5,-2411 384.5,-2365 43.5,-2365"/>
<polygon fill="none" stroke="#000000" points="43.5,-2365 43.5,-2411 384.5,-2411 384.5,-2365 43.5,-2365"/>
<text text-anchor="start" x="87.3485" y="-2388.8" font-family="Arial Bold" font-size="18.00" fill="#000000">public.dtb_products</text>
<text text-anchor="start" x="243.3977" y="-2388.8" font-family="Arial" font-size="14.00" fill="#000000"> </text>
<text text-anchor="start" x="247.2883" y="-2388.8" font-family="Arial" font-size="14.00" fill="#666666">[BASE TABLE]</text>
<text text-anchor="start" x="188.7104" y="-2374.4" font-family="Arial" font-size="14.00" fill="#333333">商品情報</text>
<polygon fill="none" stroke="#000000" points="43.5,-2335 43.5,-2365 384.5,-2365 384.5,-2335 43.5,-2335"/>
<text text-anchor="start" x="50.5" y="-2346.4" font-family="Arial" font-size="14.00" fill="#000000">product_id </text>
<text text-anchor="start" x="119.744" y="-2346.4" font-family="Arial" font-size="14.00" fill="#666666">[integer]</text>
<text text-anchor="start" x="170.3134" y="-2346.4" font-family="Arial" font-size="14.00" fill="#000000"> 商品ID</text>
<polygon fill="none" stroke="#000000" points="43.5,-2305 43.5,-2335 384.5,-2335 384.5,-2305 43.5,-2305"/>
<text text-anchor="start" x="50.5" y="-2316.4" font-family="Arial" font-size="14.00" fill="#000000">name </text>
<text text-anchor="start" x="89.399" y="-2316.4" font-family="Arial" font-size="14.00" fill="#666666">[text]</text>
<text text-anchor="start" x="119.744" y="-2316.4" font-family="Arial" font-size="14.00" fill="#000000"> 商品名</text>
<polygon fill="none" stroke="#000000" points="43.5,-2275 43.5,-2305 384.5,-2305 384.5,-2275 43.5,-2275"/>
<text text-anchor="start" x="50.5" y="-2286.4" font-family="Arial" font-size="14.00" fill="#000000">maker_id </text>
<text text-anchor="start" x="111.9488" y="-2286.4" font-family="Arial" font-size="14.00" fill="#666666">[integer]</text>
<text text-anchor="start" x="162.5182" y="-2286.4" font-family="Arial" font-size="14.00" fill="#000000"> メーカーID</text>
<polygon fill="none" stroke="#000000" points="43.5,-2245 43.5,-2275 384.5,-2275 384.5,-2245 43.5,-2245"/>
<text text-anchor="start" x="50.5" y="-2256.4" font-family="Arial" font-size="14.00" fill="#000000">status </text>
<text text-anchor="start" x="91.737" y="-2256.4" font-family="Arial" font-size="14.00" fill="#666666">[smallint]</text>
<text text-anchor="start" x="146.9544" y="-2256.4" font-family="Arial" font-size="14.00" fill="#000000"> 表示ステータス</text>
<polygon fill="none" stroke="#000000" points="43.5,-2215 43.5,-2245 384.5,-2245 384.5,-2215 43.5,-2215"/>
<text text-anchor="start" x="50.5" y="-2226.4" font-family="Arial" font-size="14.00" fill="#000000">comment1 </text>
<text text-anchor="start" x="119.7328" y="-2226.4" font-family="Arial" font-size="14.00" fill="#666666">[text]</text>
<text text-anchor="start" x="150.0778" y="-2226.4" font-family="Arial" font-size="14.00" fill="#000000"> コメント1(メーカーURL)</text>
<polygon fill="none" stroke="#000000" points="43.5,-2185 43.5,-2215 384.5,-2215 384.5,-2185 43.5,-2185"/>
<text text-anchor="start" x="50.5" y="-2196.4" font-family="Arial" font-size="14.00" fill="#000000">comment2 </text>
<text text-anchor="start" x="119.7328" y="-2196.4" font-family="Arial" font-size="14.00" fill="#666666">[text]</text>
<text text-anchor="start" x="150.0778" y="-2196.4" font-family="Arial" font-size="14.00" fill="#000000"> コメント2</text>
<polygon fill="none" stroke="#000000" points="43.5,-2155 43.5,-2185 384.5,-2185 384.5,-2155 43.5,-2155"/>
<text text-anchor="start" x="50.5" y="-2166.4" font-family="Arial" font-size="14.00" fill="#000000">comment3 </text>
<text text-anchor="start" x="119.7328" y="-2166.4" font-family="Arial" font-size="14.00" fill="#666666">[text]</text>
<text text-anchor="start" x="150.0778" y="-2166.4" font-family="Arial" font-size="14.00" fill="#000000"> コメント3(検索ワード)</text>
<polygon fill="none" stroke="#000000" points="43.5,-2125 43.5,-2155 384.5,-2155 384.5,-2125 43.5,-2125"/>
<text text-anchor="start" x="50.5" y="-2136.4" font-family="Arial" font-size="14.00" fill="#000000">comment4 </text>
<text text-anchor="start" x="119.7328" y="-2136.4" font-family="Arial" font-size="14.00" fill="#666666">[text]</text>
<text text-anchor="start" x="150.0778" y="-2136.4" font-family="Arial" font-size="14.00" fill="#000000"> コメント4</text>
<polygon fill="none" stroke="#000000" points="43.5,-2095 43.5,-2125 384.5,-2125 384.5,-2095 43.5,-2095"/>
<text text-anchor="start" x="50.5" y="-2106.4" font-family="Arial" font-size="14.00" fill="#000000">comment5 </text>
<text text-anchor="start" x="119.7328" y="-2106.4" font-family="Arial" font-size="14.00" fill="#666666">[text]</text>
<text text-anchor="start" x="150.0778" y="-2106.4" font-family="Arial" font-size="14.00" fill="#000000"> コメント5</text>
<polygon fill="none" stroke="#000000" points="43.5,-2065 43.5,-2095 384.5,-2095 384.5,-2065 43.5,-2065"/>
<text text-anchor="start" x="50.5" y="-2076.4" font-family="Arial" font-size="14.00" fill="#000000">comment6 </text>
<text text-anchor="start" x="119.7328" y="-2076.4" font-family="Arial" font-size="14.00" fill="#666666">[text]</text>
<text text-anchor="start" x="150.0778" y="-2076.4" font-family="Arial" font-size="14.00" fill="#000000"> コメント6</text>
<polygon fill="none" stroke="#000000" points="43.5,-2035 43.5,-2065 384.5,-2065 384.5,-2035 43.5,-2035"/>
<text text-anchor="start" x="50.5" y="-2046.4" font-family="Arial" font-size="14.00" fill="#000000">note </text>
<text text-anchor="start" x="81.629" y="-2046.4" font-family="Arial" font-size="14.00" fill="#666666">[text]</text>
<text text-anchor="start" x="111.974" y="-2046.4" font-family="Arial" font-size="14.00" fill="#000000"> 備考</text>
<polygon fill="none" stroke="#000000" points="43.5,-2005 43.5,-2035 384.5,-2035 384.5,-2005 43.5,-2005"/>
<text text-anchor="start" x="50.5" y="-2016.4" font-family="Arial" font-size="14.00" fill="#000000">main_list_comment </text>
<text text-anchor="start" x="174.9516" y="-2016.4" font-family="Arial" font-size="14.00" fill="#666666">[text]</text>
<text text-anchor="start" x="205.2966" y="-2016.4" font-family="Arial" font-size="14.00" fill="#000000"> メイン一覧コメント</text>
<polygon fill="none" stroke="#000000" points="43.5,-1975 43.5,-2005 384.5,-2005 384.5,-1975 43.5,-1975"/>
<text text-anchor="start" x="50.5" y="-1986.4" font-family="Arial" font-size="14.00" fill="#000000">main_list_image </text>
<text text-anchor="start" x="155.507" y="-1986.4" font-family="Arial" font-size="14.00" fill="#666666">[text]</text>
<text text-anchor="start" x="185.852" y="-1986.4" font-family="Arial" font-size="14.00" fill="#000000"> メイン一覧画像</text>
<polygon fill="none" stroke="#000000" points="43.5,-1945 43.5,-1975 384.5,-1975 384.5,-1945 43.5,-1945"/>
<text text-anchor="start" x="50.5" y="-1956.4" font-family="Arial" font-size="14.00" fill="#000000">main_comment </text>
<text text-anchor="start" x="150.0652" y="-1956.4" font-family="Arial" font-size="14.00" fill="#666666">[text]</text>
<text text-anchor="start" x="180.4102" y="-1956.4" font-family="Arial" font-size="14.00" fill="#000000"> メインコメント</text>
<polygon fill="none" stroke="#000000" points="43.5,-1915 43.5,-1945 384.5,-1945 384.5,-1915 43.5,-1915"/>
<text text-anchor="start" x="50.5" y="-1926.4" font-family="Arial" font-size="14.00" fill="#000000">main_image </text>
<text text-anchor="start" x="130.6206" y="-1926.4" font-family="Arial" font-size="14.00" fill="#666666">[text]</text>
<text text-anchor="start" x="160.9656" y="-1926.4" font-family="Arial" font-size="14.00" fill="#000000"> メイン画像</text>
<polygon fill="none" stroke="#000000" points="43.5,-1885 43.5,-1915 384.5,-1915 384.5,-1885 43.5,-1885"/>
<text text-anchor="start" x="50.5" y="-1896.4" font-family="Arial" font-size="14.00" fill="#000000">main_large_image </text>
<text text-anchor="start" x="169.5182" y="-1896.4" font-family="Arial" font-size="14.00" fill="#666666">[text]</text>
<text text-anchor="start" x="199.8632" y="-1896.4" font-family="Arial" font-size="14.00" fill="#000000"> メイン拡大画像</text>
<polygon fill="none" stroke="#000000" points="43.5,-1855 43.5,-1885 384.5,-1885 384.5,-1855 43.5,-1855"/>
<text text-anchor="start" x="50.5" y="-1866.4" font-family="Arial" font-size="14.00" fill="#000000">sub_title1 </text>
<text text-anchor="start" x="114.298" y="-1866.4" font-family="Arial" font-size="14.00" fill="#666666">[text]</text>
<text text-anchor="start" x="144.643" y="-1866.4" font-family="Arial" font-size="14.00" fill="#000000"> サブタイトル1</text>
<polygon fill="none" stroke="#000000" points="43.5,-1825 43.5,-1855 384.5,-1855 384.5,-1825 43.5,-1825"/>
<text text-anchor="start" x="50.5" y="-1836.4" font-family="Arial" font-size="14.00" fill="#000000">sub_comment1 </text>
<text text-anchor="start" x="150.0806" y="-1836.4" font-family="Arial" font-size="14.00" fill="#666666">[text]</text>
<text text-anchor="start" x="180.4256" y="-1836.4" font-family="Arial" font-size="14.00" fill="#000000"> サブコメント1</text>
<polygon fill="none" stroke="#000000" points="43.5,-1795 43.5,-1825 384.5,-1825 384.5,-1795 43.5,-1795"/>
<text text-anchor="start" x="50.5" y="-1806.4" font-family="Arial" font-size="14.00" fill="#000000">sub_image1 </text>
<text text-anchor="start" x="130.636" y="-1806.4" font-family="Arial" font-size="14.00" fill="#666666">[text]</text>
<text text-anchor="start" x="160.981" y="-1806.4" font-family="Arial" font-size="14.00" fill="#000000"> サブ画像1</text>
<polygon fill="none" stroke="#000000" points="43.5,-1765 43.5,-1795 384.5,-1795 384.5,-1765 43.5,-1765"/>
<text text-anchor="start" x="50.5" y="-1776.4" font-family="Arial" font-size="14.00" fill="#000000">sub_large_image1 </text>
<text text-anchor="start" x="169.5336" y="-1776.4" font-family="Arial" font-size="14.00" fill="#666666">[text]</text>
<text text-anchor="start" x="199.8786" y="-1776.4" font-family="Arial" font-size="14.00" fill="#000000"> サブ拡大画像1</text>
<polygon fill="none" stroke="#000000" points="43.5,-1735 43.5,-1765 384.5,-1765 384.5,-1735 43.5,-1735"/>
<text text-anchor="start" x="50.5" y="-1746.4" font-family="Arial" font-size="14.00" fill="#000000">sub_title2 </text>
<text text-anchor="start" x="114.298" y="-1746.4" font-family="Arial" font-size="14.00" fill="#666666">[text]</text>
<text text-anchor="start" x="144.643" y="-1746.4" font-family="Arial" font-size="14.00" fill="#000000"> サブタイトル2</text>
<polygon fill="none" stroke="#000000" points="43.5,-1705 43.5,-1735 384.5,-1735 384.5,-1705 43.5,-1705"/>
<text text-anchor="start" x="50.5" y="-1716.4" font-family="Arial" font-size="14.00" fill="#000000">sub_comment2 </text>
<text text-anchor="start" x="150.0806" y="-1716.4" font-family="Arial" font-size="14.00" fill="#666666">[text]</text>
<text text-anchor="start" x="180.4256" y="-1716.4" font-family="Arial" font-size="14.00" fill="#000000"> サブコメント2</text>
<polygon fill="none" stroke="#000000" points="43.5,-1675 43.5,-1705 384.5,-1705 384.5,-1675 43.5,-1675"/>
<text text-anchor="start" x="50.5" y="-1686.4" font-family="Arial" font-size="14.00" fill="#000000">sub_image2 </text>
<text text-anchor="start" x="130.636" y="-1686.4" font-family="Arial" font-size="14.00" fill="#666666">[text]</text>
<text text-anchor="start" x="160.981" y="-1686.4" font-family="Arial" font-size="14.00" fill="#000000"> サブ画像2</text>
<polygon fill="none" stroke="#000000" points="43.5,-1645 43.5,-1675 384.5,-1675 384.5,-1645 43.5,-1645"/>
<text text-anchor="start" x="50.5" y="-1656.4" font-family="Arial" font-size="14.00" fill="#000000">sub_large_image2 </text>
<text text-anchor="start" x="169.5336" y="-1656.4" font-family="Arial" font-size="14.00" fill="#666666">[text]</text>
<text text-anchor="start" x="199.8786" y="-1656.4" font-family="Arial" font-size="14.00" fill="#000000"> サブ拡大画像2</text>
<polygon fill="none" stroke="#000000" points="43.5,-1615 43.5,-1645 384.5,-1645 384.5,-1615 43.5,-1615"/>
<text text-anchor="start" x="50.5" y="-1626.4" font-family="Arial" font-size="14.00" fill="#000000">sub_title3 </text>
<text text-anchor="start" x="114.298" y="-1626.4" font-family="Arial" font-size="14.00" fill="#666666">[text]</text>
<text text-anchor="start" x="144.643" y="-1626.4" font-family="Arial" font-size="14.00" fill="#000000"> サブタイトル3</text>
<polygon fill="none" stroke="#000000" points="43.5,-1585 43.5,-1615 384.5,-1615 384.5,-1585 43.5,-1585"/>
<text text-anchor="start" x="50.5" y="-1596.4" font-family="Arial" font-size="14.00" fill="#000000">sub_comment3 </text>
<text text-anchor="start" x="150.0806" y="-1596.4" font-family="Arial" font-size="14.00" fill="#666666">[text]</text>
<text text-anchor="start" x="180.4256" y="-1596.4" font-family="Arial" font-size="14.00" fill="#000000"> サブコメント3</text>
<polygon fill="none" stroke="#000000" points="43.5,-1555 43.5,-1585 384.5,-1585 384.5,-1555 43.5,-1555"/>
<text text-anchor="start" x="50.5" y="-1566.4" font-family="Arial" font-size="14.00" fill="#000000">sub_image3 </text>
<text text-anchor="start" x="130.636" y="-1566.4" font-family="Arial" font-size="14.00" fill="#666666">[text]</text>
<text text-anchor="start" x="160.981" y="-1566.4" font-family="Arial" font-size="14.00" fill="#000000"> サブ画像3</text>
<polygon fill="none" stroke="#000000" points="43.5,-1525 43.5,-1555 384.5,-1555 384.5,-1525 43.5,-1525"/>
<text text-anchor="start" x="50.5" y="-1536.4" font-family="Arial" font-size="14.00" fill="#000000">sub_large_image3 </text>
<text text-anchor="start" x="169.5336" y="-1536.4" font-family="Arial" font-size="14.00" fill="#666666">[text]</text>
<text text-anchor="start" x="199.8786" y="-1536.4" font-family="Arial" font-size="14.00" fill="#000000"> サブ拡大画像3</text>
<polygon fill="none" stroke="#000000" points="43.5,-1495 43.5,-1525 384.5,-1525 384.5,-1495 43.5,-1495"/>
<text text-anchor="start" x="50.5" y="-1506.4" font-family="Arial" font-size="14.00" fill="#000000">sub_title4 </text>
<text text-anchor="start" x="114.298" y="-1506.4" font-family="Arial" font-size="14.00" fill="#666666">[text]</text>
<text text-anchor="start" x="144.643" y="-1506.4" font-family="Arial" font-size="14.00" fill="#000000"> サブタイトル4</text>
<polygon fill="none" stroke="#000000" points="43.5,-1465 43.5,-1495 384.5,-1495 384.5,-1465 43.5,-1465"/>
<text text-anchor="start" x="50.5" y="-1476.4" font-family="Arial" font-size="14.00" fill="#000000">sub_comment4 </text>
<text text-anchor="start" x="150.0806" y="-1476.4" font-family="Arial" font-size="14.00" fill="#666666">[text]</text>
<text text-anchor="start" x="180.4256" y="-1476.4" font-family="Arial" font-size="14.00" fill="#000000"> サブコメント4</text>
<polygon fill="none" stroke="#000000" points="43.5,-1435 43.5,-1465 384.5,-1465 384.5,-1435 43.5,-1435"/>
<text text-anchor="start" x="50.5" y="-1446.4" font-family="Arial" font-size="14.00" fill="#000000">sub_image4 </text>
<text text-anchor="start" x="130.636" y="-1446.4" font-family="Arial" font-size="14.00" fill="#666666">[text]</text>
<text text-anchor="start" x="160.981" y="-1446.4" font-family="Arial" font-size="14.00" fill="#000000"> サブ画像4</text>
<polygon fill="none" stroke="#000000" points="43.5,-1405 43.5,-1435 384.5,-1435 384.5,-1405 43.5,-1405"/>
<text text-anchor="start" x="50.5" y="-1416.4" font-family="Arial" font-size="14.00" fill="#000000">sub_large_image4 </text>
<text text-anchor="start" x="169.5336" y="-1416.4" font-family="Arial" font-size="14.00" fill="#666666">[text]</text>
<text text-anchor="start" x="199.8786" y="-1416.4" font-family="Arial" font-size="14.00" fill="#000000"> サブ拡大画像4</text>
<polygon fill="none" stroke="#000000" points="43.5,-1375 43.5,-1405 384.5,-1405 384.5,-1375 43.5,-1375"/>
<text text-anchor="start" x="50.5" y="-1386.4" font-family="Arial" font-size="14.00" fill="#000000">sub_title5 </text>
<text text-anchor="start" x="114.298" y="-1386.4" font-family="Arial" font-size="14.00" fill="#666666">[text]</text>
<text text-anchor="start" x="144.643" y="-1386.4" font-family="Arial" font-size="14.00" fill="#000000"> サブタイトル5</text>
<polygon fill="none" stroke="#000000" points="43.5,-1345 43.5,-1375 384.5,-1375 384.5,-1345 43.5,-1345"/>
<text text-anchor="start" x="50.5" y="-1356.4" font-family="Arial" font-size="14.00" fill="#000000">sub_comment5 </text>
<text text-anchor="start" x="150.0806" y="-1356.4" font-family="Arial" font-size="14.00" fill="#666666">[text]</text>
<text text-anchor="start" x="180.4256" y="-1356.4" font-family="Arial" font-size="14.00" fill="#000000"> サブコメント5</text>
<polygon fill="none" stroke="#000000" points="43.5,-1315 43.5,-1345 384.5,-1345 384.5,-1315 43.5,-1315"/>
<text text-anchor="start" x="50.5" y="-1326.4" font-family="Arial" font-size="14.00" fill="#000000">sub_image5 </text>
<text text-anchor="start" x="130.636" y="-1326.4" font-family="Arial" font-size="14.00" fill="#666666">[text]</text>
<text text-anchor="start" x="160.981" y="-1326.4" font-family="Arial" font-size="14.00" fill="#000000"> サブ画像5</text>
<polygon fill="none" stroke="#000000" points="43.5,-1285 43.5,-1315 384.5,-1315 384.5,-1285 43.5,-1285"/>
<text text-anchor="start" x="50.5" y="-1296.4" font-family="Arial" font-size="14.00" fill="#000000">sub_large_image5 </text>
<text text-anchor="start" x="169.5336" y="-1296.4" font-family="Arial" font-size="14.00" fill="#666666">[text]</text>
<text text-anchor="start" x="199.8786" y="-1296.4" font-family="Arial" font-size="14.00" fill="#000000"> サブ拡大画像5</text>
<polygon fill="none" stroke="#000000" points="43.5,-1255 43.5,-1285 384.5,-1285 384.5,-1255 43.5,-1255"/>
<text text-anchor="start" x="50.5" y="-1266.4" font-family="Arial" font-size="14.00" fill="#000000">sub_title6 </text>
<text text-anchor="start" x="114.298" y="-1266.4" font-family="Arial" font-size="14.00" fill="#666666">[text]</text>
<text text-anchor="start" x="144.643" y="-1266.4" font-family="Arial" font-size="14.00" fill="#000000"> サブタイトル6</text>
<polygon fill="none" stroke="#000000" points="43.5,-1225 43.5,-1255 384.5,-1255 384.5,-1225 43.5,-1225"/>
<text text-anchor="start" x="50.5" y="-1236.4" font-family="Arial" font-size="14.00" fill="#000000">sub_comment6 </text>
<text text-anchor="start" x="150.0806" y="-1236.4" font-family="Arial" font-size="14.00" fill="#666666">[text]</text>
<text text-anchor="start" x="180.4256" y="-1236.4" font-family="Arial" font-size="14.00" fill="#000000"> サブコメント6</text>
<polygon fill="none" stroke="#000000" points="43.5,-1195 43.5,-1225 384.5,-1225 384.5,-1195 43.5,-1195"/>
<text text-anchor="start" x="50.5" y="-1206.4" font-family="Arial" font-size="14.00" fill="#000000">sub_image6 </text>
<text text-anchor="start" x="130.636" y="-1206.4" font-family="Arial" font-size="14.00" fill="#666666">[text]</text>
<text text-anchor="start" x="160.981" y="-1206.4" font-family="Arial" font-size="14.00" fill="#000000"> サブ画像6</text>
<polygon fill="none" stroke="#000000" points="43.5,-1165 43.5,-1195 384.5,-1195 384.5,-1165 43.5,-1165"/>
<text text-anchor="start" x="50.5" y="-1176.4" font-family="Arial" font-size="14.00" fill="#000000">sub_large_image6 </text>
<text text-anchor="start" x="169.5336" y="-1176.4" font-family="Arial" font-size="14.00" fill="#666666">[text]</text>
<text text-anchor="start" x="199.8786" y="-1176.4" font-family="Arial" font-size="14.00" fill="#000000"> サブ拡大画像6</text>
<polygon fill="none" stroke="#000000" points="43.5,-1135 43.5,-1165 384.5,-1165 384.5,-1135 43.5,-1135"/>
<text text-anchor="start" x="50.5" y="-1146.4" font-family="Arial" font-size="14.00" fill="#000000">del_flg </text>
<text text-anchor="start" x="95.6248" y="-1146.4" font-family="Arial" font-size="14.00" fill="#666666">[smallint]</text>
<text text-anchor="start" x="150.8422" y="-1146.4" font-family="Arial" font-size="14.00" fill="#000000"> 削除フラグ</text>
<polygon fill="none" stroke="#000000" points="43.5,-1105 43.5,-1135 384.5,-1135 384.5,-1105 43.5,-1105"/>
<text text-anchor="start" x="50.5" y="-1116.4" font-family="Arial" font-size="14.00" fill="#000000">creator_id </text>
<text text-anchor="start" x="116.622" y="-1116.4" font-family="Arial" font-size="14.00" fill="#666666">[integer]</text>
<text text-anchor="start" x="167.1914" y="-1116.4" font-family="Arial" font-size="14.00" fill="#000000"> 作成者ID</text>
<polygon fill="none" stroke="#000000" points="43.5,-1075 43.5,-1105 384.5,-1105 384.5,-1075 43.5,-1075"/>
<text text-anchor="start" x="50.235" y="-1086.4" font-family="Arial" font-size="14.00" fill="#000000">create_date </text>
<text text-anchor="start" x="128.0456" y="-1086.4" font-family="Arial" font-size="14.00" fill="#666666">[timestamp without time zone]</text>
<text text-anchor="start" x="313.1858" y="-1086.4" font-family="Arial" font-size="14.00" fill="#000000"> 作成日時</text>
<polygon fill="none" stroke="#000000" points="43.5,-1045 43.5,-1075 384.5,-1075 384.5,-1045 43.5,-1045"/>
<text text-anchor="start" x="50.5" y="-1056.4" font-family="Arial" font-size="14.00" fill="#000000">update_date </text>
<text text-anchor="start" x="132.2152" y="-1056.4" font-family="Arial" font-size="14.00" fill="#666666">[timestamp without time zone]</text>
<text text-anchor="start" x="317.3554" y="-1056.4" font-family="Arial" font-size="14.00" fill="#000000"> 更新日時</text>
<polygon fill="none" stroke="#000000" points="43.5,-1015 43.5,-1045 384.5,-1045 384.5,-1015 43.5,-1015"/>
<text text-anchor="start" x="50.5" y="-1026.4" font-family="Arial" font-size="14.00" fill="#000000">deliv_date_id </text>
<text text-anchor="start" x="136.8618" y="-1026.4" font-family="Arial" font-size="14.00" fill="#666666">[integer]</text>
<text text-anchor="start" x="187.4312" y="-1026.4" font-family="Arial" font-size="14.00" fill="#000000"> 発送日目安</text>
</g>
<!-- public.dtb_products&#45;&gt;public.dtb_maker -->
<g id="edge1" class="edge">
<title>public.dtb_products:maker_id&#45;&gt;public.dtb_maker:maker_id</title>
<path fill="none" stroke="#000000" stroke-dasharray="5,2" d="M392.8065,-2284.1019C455.3308,-2191.0897 426.3933,-1028.442 384.5,-972 351.5672,-927.6303 298.4328,-980.3697 265.5,-936 237.1567,-897.8137 217.9444,-829 265.5,-829"/>
<polygon fill="#000000" stroke="#000000" points="392.6536,-2284.2104 381.8947,-2286.3309 388.5768,-2287.1052 384.5,-2290 384.5,-2290 384.5,-2290 388.5768,-2287.1052 387.1053,-2293.6691 392.6536,-2284.2104 392.6536,-2284.2104"/>
<text text-anchor="start" x="391.8245" y="-2300" font-family="Arial" font-size="10.00" fill="#000000">Additional Relation</text>
</g>
<!-- public.dtb_maker_count -->
<g id="node3" class="node">
<title>public.dtb_maker_count</title>
<polygon fill="#efefef" stroke="transparent" points="488.5,-1735 488.5,-1781 829.5,-1781 829.5,-1735 488.5,-1735"/>
<polygon fill="none" stroke="#000000" points="488.5,-1735 488.5,-1781 829.5,-1781 829.5,-1735 488.5,-1735"/>
<text text-anchor="start" x="514.8462" y="-1758.8" font-family="Arial Bold" font-size="18.00" fill="#000000">public.dtb_maker_count</text>
<text text-anchor="start" x="705.9" y="-1758.8" font-family="Arial" font-size="14.00" fill="#000000"> </text>
<text text-anchor="start" x="709.7906" y="-1758.8" font-family="Arial" font-size="14.00" fill="#666666">[BASE TABLE]</text>
<text text-anchor="start" x="588.8824" y="-1744.4" font-family="Arial" font-size="14.00" fill="#333333">メーカーカウント</text>
<polygon fill="none" stroke="#000000" points="488.5,-1705 488.5,-1735 829.5,-1735 829.5,-1705 488.5,-1705"/>
<text text-anchor="start" x="495.5" y="-1716.4" font-family="Arial" font-size="14.00" fill="#000000">maker_id </text>
<text text-anchor="start" x="556.9488" y="-1716.4" font-family="Arial" font-size="14.00" fill="#666666">[integer]</text>
<text text-anchor="start" x="607.5182" y="-1716.4" font-family="Arial" font-size="14.00" fill="#000000"> メーカーID</text>
<polygon fill="none" stroke="#000000" points="488.5,-1675 488.5,-1705 829.5,-1705 829.5,-1675 488.5,-1675"/>
<text text-anchor="start" x="495.5" y="-1686.4" font-family="Arial" font-size="14.00" fill="#000000">product_count </text>
<text text-anchor="start" x="588.0932" y="-1686.4" font-family="Arial" font-size="14.00" fill="#666666">[integer]</text>
<text text-anchor="start" x="638.6626" y="-1686.4" font-family="Arial" font-size="14.00" fill="#000000"> 登録商品数</text>
<polygon fill="none" stroke="#000000" points="488.5,-1645 488.5,-1675 829.5,-1675 829.5,-1645 488.5,-1645"/>
<text text-anchor="start" x="495.235" y="-1656.4" font-family="Arial" font-size="14.00" fill="#000000">create_date </text>
<text text-anchor="start" x="573.0456" y="-1656.4" font-family="Arial" font-size="14.00" fill="#666666">[timestamp without time zone]</text>
<text text-anchor="start" x="758.1858" y="-1656.4" font-family="Arial" font-size="14.00" fill="#000000"> 作成日時</text>
</g>
<!-- public.dtb_maker_count&#45;&gt;public.dtb_maker -->
<g id="edge2" class="edge">
<title>public.dtb_maker_count:maker_id&#45;&gt;public.dtb_maker:maker_id</title>
<path fill="none" stroke="#000000" stroke-dasharray="5,2" d="M478.3687,-1719.1381C307.2343,-1688.0965 802.6204,-829 606.5,-829"/>
<polygon fill="#000000" stroke="#000000" points="478.536,-1719.1522 488.1185,-1724.4838 483.518,-1719.5761 488.5,-1720 488.5,-1720 488.5,-1720 483.518,-1719.5761 488.8815,-1715.5162 478.536,-1719.1522 478.536,-1719.1522"/>
<text text-anchor="start" x="398.8245" y="-1730" font-family="Arial" font-size="10.00" fill="#000000">Additional Relation</text>
</g>
</g>
</svg>
