<?xml version="1.0" encoding="UTF-8" standalone="no"?>
<!DOCTYPE svg PUBLIC "-//W3C//DTD SVG 1.1//EN"
 "http://www.w3.org/Graphics/SVG/1.1/DTD/svg11.dtd">
<!-- Generated by graphviz version 2.40.1 (20161225.0304)
 -->
<!-- Title: public.dtb_order_temp Pages: 1 -->
<svg width="390pt" height="1905pt"
 viewBox="0.00 0.00 390.00 1905.00" xmlns="http://www.w3.org/2000/svg" xmlns:xlink="http://www.w3.org/1999/xlink">
<g id="graph0" class="graph" transform="scale(1 1) rotate(0) translate(4 1901)">
<title>public.dtb_order_temp</title>
<polygon fill="#ffffff" stroke="transparent" points="-4,4 -4,-1901 386,-1901 386,4 -4,4"/>
<!-- public.dtb_order_temp -->
<g id="node1" class="node">
<title>public.dtb_order_temp</title>
<polygon fill="#efefef" stroke="transparent" points="46,-1815.5 46,-1850.5 336,-1850.5 336,-1815.5 46,-1815.5"/>
<polygon fill="none" stroke="#000000" points="46,-1815.5 46,-1850.5 336,-1850.5 336,-1815.5 46,-1815.5"/>
<text text-anchor="start" x="52.8501" y="-1828.3" font-family="Arial Bold" font-size="18.00" fill="#000000">public.dtb_order_temp</text>
<text text-anchor="start" x="231.8961" y="-1828.3" font-family="Arial" font-size="14.00" fill="#000000"> </text>
<text text-anchor="start" x="235.7867" y="-1828.3" font-family="Arial" font-size="14.00" fill="#666666">[BASE TABLE]</text>
<polygon fill="none" stroke="#000000" points="46,-1785.5 46,-1815.5 336,-1815.5 336,-1785.5 46,-1785.5"/>
<text text-anchor="start" x="53" y="-1796.9" font-family="Arial" font-size="14.00" fill="#000000">order_temp_id </text>
<text text-anchor="start" x="147.1304" y="-1796.9" font-family="Arial" font-size="14.00" fill="#666666">[text]</text>
<polygon fill="none" stroke="#000000" points="46,-1755.5 46,-1785.5 336,-1785.5 336,-1755.5 46,-1755.5"/>
<text text-anchor="start" x="53" y="-1766.9" font-family="Arial" font-size="14.00" fill="#000000">customer_id </text>
<text text-anchor="start" x="133.122" y="-1766.9" font-family="Arial" font-size="14.00" fill="#666666">[integer]</text>
<polygon fill="none" stroke="#000000" points="46,-1725.5 46,-1755.5 336,-1755.5 336,-1725.5 46,-1725.5"/>
<text text-anchor="start" x="53" y="-1736.9" font-family="Arial" font-size="14.00" fill="#000000">message </text>
<text text-anchor="start" x="113.6816" y="-1736.9" font-family="Arial" font-size="14.00" fill="#666666">[text]</text>
<polygon fill="none" stroke="#000000" points="46,-1695.5 46,-1725.5 336,-1725.5 336,-1695.5 46,-1695.5"/>
<text text-anchor="start" x="53" y="-1706.9" font-family="Arial" font-size="14.00" fill="#000000">order_name01 </text>
<text text-anchor="start" x="147.9158" y="-1706.9" font-family="Arial" font-size="14.00" fill="#666666">[text]</text>
<polygon fill="none" stroke="#000000" points="46,-1665.5 46,-1695.5 336,-1695.5 336,-1665.5 46,-1665.5"/>
<text text-anchor="start" x="53" y="-1676.9" font-family="Arial" font-size="14.00" fill="#000000">order_name02 </text>
<text text-anchor="start" x="147.9158" y="-1676.9" font-family="Arial" font-size="14.00" fill="#666666">[text]</text>
<polygon fill="none" stroke="#000000" points="46,-1635.5 46,-1665.5 336,-1665.5 336,-1635.5 46,-1635.5"/>
<text text-anchor="start" x="53" y="-1646.9" font-family="Arial" font-size="14.00" fill="#000000">order_kana01 </text>
<text text-anchor="start" x="143.2552" y="-1646.9" font-family="Arial" font-size="14.00" fill="#666666">[text]</text>
<polygon fill="none" stroke="#000000" points="46,-1605.5 46,-1635.5 336,-1635.5 336,-1605.5 46,-1605.5"/>
<text text-anchor="start" x="53" y="-1616.9" font-family="Arial" font-size="14.00" fill="#000000">order_kana02 </text>
<text text-anchor="start" x="143.2552" y="-1616.9" font-family="Arial" font-size="14.00" fill="#666666">[text]</text>
<polygon fill="none" stroke="#000000" points="46,-1575.5 46,-1605.5 336,-1605.5 336,-1575.5 46,-1575.5"/>
<text text-anchor="start" x="53" y="-1586.9" font-family="Arial" font-size="14.00" fill="#000000">order_company_name </text>
<text text-anchor="start" x="196.9242" y="-1586.9" font-family="Arial" font-size="14.00" fill="#666666">[text]</text>
<polygon fill="none" stroke="#000000" points="46,-1545.5 46,-1575.5 336,-1575.5 336,-1545.5 46,-1545.5"/>
<text text-anchor="start" x="53" y="-1556.9" font-family="Arial" font-size="14.00" fill="#000000">order_email </text>
<text text-anchor="start" x="130.7812" y="-1556.9" font-family="Arial" font-size="14.00" fill="#666666">[text]</text>
<polygon fill="none" stroke="#000000" points="46,-1515.5 46,-1545.5 336,-1545.5 336,-1515.5 46,-1515.5"/>
<text text-anchor="start" x="53" y="-1526.9" font-family="Arial" font-size="14.00" fill="#000000">order_tel01 </text>
<text text-anchor="start" x="127.6872" y="-1526.9" font-family="Arial" font-size="14.00" fill="#666666">[text]</text>
<polygon fill="none" stroke="#000000" points="46,-1485.5 46,-1515.5 336,-1515.5 336,-1485.5 46,-1485.5"/>
<text text-anchor="start" x="53" y="-1496.9" font-family="Arial" font-size="14.00" fill="#000000">order_tel02 </text>
<text text-anchor="start" x="127.6872" y="-1496.9" font-family="Arial" font-size="14.00" fill="#666666">[text]</text>
<polygon fill="none" stroke="#000000" points="46,-1455.5 46,-1485.5 336,-1485.5 336,-1455.5 46,-1455.5"/>
<text text-anchor="start" x="53" y="-1466.9" font-family="Arial" font-size="14.00" fill="#000000">order_tel03 </text>
<text text-anchor="start" x="127.6872" y="-1466.9" font-family="Arial" font-size="14.00" fill="#666666">[text]</text>
<polygon fill="none" stroke="#000000" points="46,-1425.5 46,-1455.5 336,-1455.5 336,-1425.5 46,-1425.5"/>
<text text-anchor="start" x="53" y="-1436.9" font-family="Arial" font-size="14.00" fill="#000000">order_fax01 </text>
<text text-anchor="start" x="131.5806" y="-1436.9" font-family="Arial" font-size="14.00" fill="#666666">[text]</text>
<polygon fill="none" stroke="#000000" points="46,-1395.5 46,-1425.5 336,-1425.5 336,-1395.5 46,-1395.5"/>
<text text-anchor="start" x="53" y="-1406.9" font-family="Arial" font-size="14.00" fill="#000000">order_fax02 </text>
<text text-anchor="start" x="131.5806" y="-1406.9" font-family="Arial" font-size="14.00" fill="#666666">[text]</text>
<polygon fill="none" stroke="#000000" points="46,-1365.5 46,-1395.5 336,-1395.5 336,-1365.5 46,-1365.5"/>
<text text-anchor="start" x="53" y="-1376.9" font-family="Arial" font-size="14.00" fill="#000000">order_fax03 </text>
<text text-anchor="start" x="131.5806" y="-1376.9" font-family="Arial" font-size="14.00" fill="#666666">[text]</text>
<polygon fill="none" stroke="#000000" points="46,-1335.5 46,-1365.5 336,-1365.5 336,-1335.5 46,-1335.5"/>
<text text-anchor="start" x="53" y="-1346.9" font-family="Arial" font-size="14.00" fill="#000000">order_zip01 </text>
<text text-anchor="start" x="130.7966" y="-1346.9" font-family="Arial" font-size="14.00" fill="#666666">[text]</text>
<polygon fill="none" stroke="#000000" points="46,-1305.5 46,-1335.5 336,-1335.5 336,-1305.5 46,-1305.5"/>
<text text-anchor="start" x="53" y="-1316.9" font-family="Arial" font-size="14.00" fill="#000000">order_zip02 </text>
<text text-anchor="start" x="130.7966" y="-1316.9" font-family="Arial" font-size="14.00" fill="#666666">[text]</text>
<polygon fill="none" stroke="#000000" points="46,-1275.5 46,-1305.5 336,-1305.5 336,-1275.5 46,-1275.5"/>
<text text-anchor="start" x="53" y="-1286.9" font-family="Arial" font-size="14.00" fill="#000000">order_zipcode </text>
<text text-anchor="start" x="145.5792" y="-1286.9" font-family="Arial" font-size="14.00" fill="#666666">[text]</text>
<polygon fill="none" stroke="#000000" points="46,-1245.5 46,-1275.5 336,-1275.5 336,-1245.5 46,-1245.5"/>
<text text-anchor="start" x="53" y="-1256.9" font-family="Arial" font-size="14.00" fill="#000000">order_country_id </text>
<text text-anchor="start" x="161.913" y="-1256.9" font-family="Arial" font-size="14.00" fill="#666666">[integer]</text>
<polygon fill="none" stroke="#000000" points="46,-1215.5 46,-1245.5 336,-1245.5 336,-1215.5 46,-1215.5"/>
<text text-anchor="start" x="53" y="-1226.9" font-family="Arial" font-size="14.00" fill="#000000">order_pref </text>
<text text-anchor="start" x="121.4586" y="-1226.9" font-family="Arial" font-size="14.00" fill="#666666">[smallint]</text>
<polygon fill="none" stroke="#000000" points="46,-1185.5 46,-1215.5 336,-1215.5 336,-1185.5 46,-1185.5"/>
<text text-anchor="start" x="53" y="-1196.9" font-family="Arial" font-size="14.00" fill="#000000">order_addr01 </text>
<text text-anchor="start" x="140.9158" y="-1196.9" font-family="Arial" font-size="14.00" fill="#666666">[text]</text>
<polygon fill="none" stroke="#000000" points="46,-1155.5 46,-1185.5 336,-1185.5 336,-1155.5 46,-1155.5"/>
<text text-anchor="start" x="53" y="-1166.9" font-family="Arial" font-size="14.00" fill="#000000">order_addr02 </text>
<text text-anchor="start" x="140.9158" y="-1166.9" font-family="Arial" font-size="14.00" fill="#666666">[text]</text>
<polygon fill="none" stroke="#000000" points="46,-1125.5 46,-1155.5 336,-1155.5 336,-1125.5 46,-1125.5"/>
<text text-anchor="start" x="53" y="-1136.9" font-family="Arial" font-size="14.00" fill="#000000">order_sex </text>
<text text-anchor="start" x="119.1248" y="-1136.9" font-family="Arial" font-size="14.00" fill="#666666">[smallint]</text>
<polygon fill="none" stroke="#000000" points="46,-1095.5 46,-1125.5 336,-1125.5 336,-1095.5 46,-1095.5"/>
<text text-anchor="start" x="53" y="-1106.9" font-family="Arial" font-size="14.00" fill="#000000">order_birth </text>
<text text-anchor="start" x="124.5652" y="-1106.9" font-family="Arial" font-size="14.00" fill="#666666">[timestamp without time zone]</text>
<polygon fill="none" stroke="#000000" points="46,-1065.5 46,-1095.5 336,-1095.5 336,-1065.5 46,-1065.5"/>
<text text-anchor="start" x="53" y="-1076.9" font-family="Arial" font-size="14.00" fill="#000000">order_job </text>
<text text-anchor="start" x="116.014" y="-1076.9" font-family="Arial" font-size="14.00" fill="#666666">[integer]</text>
<polygon fill="none" stroke="#000000" points="46,-1035.5 46,-1065.5 336,-1065.5 336,-1035.5 46,-1035.5"/>
<text text-anchor="start" x="53" y="-1046.9" font-family="Arial" font-size="14.00" fill="#000000">subtotal </text>
<text text-anchor="start" x="105.9088" y="-1046.9" font-family="Arial" font-size="14.00" fill="#666666">[numeric]</text>
<polygon fill="none" stroke="#000000" points="46,-1005.5 46,-1035.5 336,-1035.5 336,-1005.5 46,-1005.5"/>
<text text-anchor="start" x="53" y="-1016.9" font-family="Arial" font-size="14.00" fill="#000000">discount </text>
<text text-anchor="start" x="109.0182" y="-1016.9" font-family="Arial" font-size="14.00" fill="#666666">[numeric]</text>
<polygon fill="none" stroke="#000000" points="46,-975.5 46,-1005.5 336,-1005.5 336,-975.5 46,-975.5"/>
<text text-anchor="start" x="53" y="-986.9" font-family="Arial" font-size="14.00" fill="#000000">deliv_id </text>
<text text-anchor="start" x="104.3408" y="-986.9" font-family="Arial" font-size="14.00" fill="#666666">[integer]</text>
<polygon fill="none" stroke="#000000" points="46,-945.5 46,-975.5 336,-975.5 336,-945.5 46,-945.5"/>
<text text-anchor="start" x="53" y="-956.9" font-family="Arial" font-size="14.00" fill="#000000">deliv_fee </text>
<text text-anchor="start" x="112.9074" y="-956.9" font-family="Arial" font-size="14.00" fill="#666666">[numeric]</text>
<polygon fill="none" stroke="#000000" points="46,-915.5 46,-945.5 336,-945.5 336,-915.5 46,-915.5"/>
<text text-anchor="start" x="53" y="-926.9" font-family="Arial" font-size="14.00" fill="#000000">charge </text>
<text text-anchor="start" x="99.6816" y="-926.9" font-family="Arial" font-size="14.00" fill="#666666">[numeric]</text>
<polygon fill="none" stroke="#000000" points="46,-885.5 46,-915.5 336,-915.5 336,-885.5 46,-885.5"/>
<text text-anchor="start" x="53" y="-896.9" font-family="Arial" font-size="14.00" fill="#000000">use_point </text>
<text text-anchor="start" x="117.5834" y="-896.9" font-family="Arial" font-size="14.00" fill="#666666">[numeric]</text>
<polygon fill="none" stroke="#000000" points="46,-855.5 46,-885.5 336,-885.5 336,-855.5 46,-855.5"/>
<text text-anchor="start" x="53" y="-866.9" font-family="Arial" font-size="14.00" fill="#000000">add_point </text>
<text text-anchor="start" x="118.366" y="-866.9" font-family="Arial" font-size="14.00" fill="#666666">[numeric]</text>
<polygon fill="none" stroke="#000000" points="46,-825.5 46,-855.5 336,-855.5 336,-825.5 46,-825.5"/>
<text text-anchor="start" x="53" y="-836.9" font-family="Arial" font-size="14.00" fill="#000000">birth_point </text>
<text text-anchor="start" x="122.2412" y="-836.9" font-family="Arial" font-size="14.00" fill="#666666">[numeric]</text>
<polygon fill="none" stroke="#000000" points="46,-795.5 46,-825.5 336,-825.5 336,-795.5 46,-795.5"/>
<text text-anchor="start" x="53" y="-806.9" font-family="Arial" font-size="14.00" fill="#000000">tax </text>
<text text-anchor="start" x="75.5638" y="-806.9" font-family="Arial" font-size="14.00" fill="#666666">[numeric]</text>
<polygon fill="none" stroke="#000000" points="46,-765.5 46,-795.5 336,-795.5 336,-765.5 46,-765.5"/>
<text text-anchor="start" x="53" y="-776.9" font-family="Arial" font-size="14.00" fill="#000000">total </text>
<text text-anchor="start" x="83.3436" y="-776.9" font-family="Arial" font-size="14.00" fill="#666666">[numeric]</text>
<polygon fill="none" stroke="#000000" points="46,-735.5 46,-765.5 336,-765.5 336,-735.5 46,-735.5"/>
<text text-anchor="start" x="53" y="-746.9" font-family="Arial" font-size="14.00" fill="#000000">payment_total </text>
<text text-anchor="start" x="144.8078" y="-746.9" font-family="Arial" font-size="14.00" fill="#666666">[numeric]</text>
<polygon fill="none" stroke="#000000" points="46,-705.5 46,-735.5 336,-735.5 336,-705.5 46,-705.5"/>
<text text-anchor="start" x="53" y="-716.9" font-family="Arial" font-size="14.00" fill="#000000">payment_id </text>
<text text-anchor="start" x="129.244" y="-716.9" font-family="Arial" font-size="14.00" fill="#666666">[integer]</text>
<polygon fill="none" stroke="#000000" points="46,-675.5 46,-705.5 336,-705.5 336,-675.5 46,-675.5"/>
<text text-anchor="start" x="53" y="-686.9" font-family="Arial" font-size="14.00" fill="#000000">payment_method </text>
<text text-anchor="start" x="165.0364" y="-686.9" font-family="Arial" font-size="14.00" fill="#666666">[text]</text>
<polygon fill="none" stroke="#000000" points="46,-645.5 46,-675.5 336,-675.5 336,-645.5 46,-645.5"/>
<text text-anchor="start" x="53" y="-656.9" font-family="Arial" font-size="14.00" fill="#000000">note </text>
<text text-anchor="start" x="84.129" y="-656.9" font-family="Arial" font-size="14.00" fill="#666666">[text]</text>
<polygon fill="none" stroke="#000000" points="46,-615.5 46,-645.5 336,-645.5 336,-615.5 46,-615.5"/>
<text text-anchor="start" x="53" y="-626.9" font-family="Arial" font-size="14.00" fill="#000000">mail_flag </text>
<text text-anchor="start" x="112.892" y="-626.9" font-family="Arial" font-size="14.00" fill="#666666">[smallint]</text>
<polygon fill="none" stroke="#000000" points="46,-585.5 46,-615.5 336,-615.5 336,-585.5 46,-585.5"/>
<text text-anchor="start" x="53" y="-596.9" font-family="Arial" font-size="14.00" fill="#000000">status </text>
<text text-anchor="start" x="94.237" y="-596.9" font-family="Arial" font-size="14.00" fill="#666666">[smallint]</text>
<polygon fill="none" stroke="#000000" points="46,-555.5 46,-585.5 336,-585.5 336,-555.5 46,-555.5"/>
<text text-anchor="start" x="53" y="-566.9" font-family="Arial" font-size="14.00" fill="#000000">deliv_check </text>
<text text-anchor="start" x="130.0168" y="-566.9" font-family="Arial" font-size="14.00" fill="#666666">[smallint]</text>
<polygon fill="none" stroke="#000000" points="46,-525.5 46,-555.5 336,-555.5 336,-525.5 46,-525.5"/>
<text text-anchor="start" x="53" y="-536.9" font-family="Arial" font-size="14.00" fill="#000000">point_check </text>
<text text-anchor="start" x="131.5834" y="-536.9" font-family="Arial" font-size="14.00" fill="#666666">[smallint]</text>
<polygon fill="none" stroke="#000000" points="46,-495.5 46,-525.5 336,-525.5 336,-495.5 46,-495.5"/>
<text text-anchor="start" x="53" y="-506.9" font-family="Arial" font-size="14.00" fill="#000000">create_date </text>
<text text-anchor="start" x="130.8106" y="-506.9" font-family="Arial" font-size="14.00" fill="#666666">[timestamp without time zone]</text>
<polygon fill="none" stroke="#000000" points="46,-465.5 46,-495.5 336,-495.5 336,-465.5 46,-465.5"/>
<text text-anchor="start" x="53" y="-476.9" font-family="Arial" font-size="14.00" fill="#000000">update_date </text>
<text text-anchor="start" x="134.7152" y="-476.9" font-family="Arial" font-size="14.00" fill="#666666">[timestamp without time zone]</text>
<polygon fill="none" stroke="#000000" points="46,-435.5 46,-465.5 336,-465.5 336,-435.5 46,-435.5"/>
<text text-anchor="start" x="53" y="-446.9" font-family="Arial" font-size="14.00" fill="#000000">device_type_id </text>
<text text-anchor="start" x="150.2552" y="-446.9" font-family="Arial" font-size="14.00" fill="#666666">[integer]</text>
<polygon fill="none" stroke="#000000" points="46,-405.5 46,-435.5 336,-435.5 336,-405.5 46,-405.5"/>
<text text-anchor="start" x="53" y="-416.9" font-family="Arial" font-size="14.00" fill="#000000">del_flg </text>
<text text-anchor="start" x="98.1248" y="-416.9" font-family="Arial" font-size="14.00" fill="#666666">[smallint]</text>
<polygon fill="none" stroke="#000000" points="46,-375.5 46,-405.5 336,-405.5 336,-375.5 46,-375.5"/>
<text text-anchor="start" x="53" y="-386.9" font-family="Arial" font-size="14.00" fill="#000000">order_id </text>
<text text-anchor="start" x="108.2314" y="-386.9" font-family="Arial" font-size="14.00" fill="#666666">[integer]</text>
<polygon fill="none" stroke="#000000" points="46,-345.5 46,-375.5 336,-375.5 336,-345.5 46,-345.5"/>
<text text-anchor="start" x="53" y="-356.9" font-family="Arial" font-size="14.00" fill="#000000">memo01 </text>
<text text-anchor="start" x="111.3422" y="-356.9" font-family="Arial" font-size="14.00" fill="#666666">[text]</text>
<polygon fill="none" stroke="#000000" points="46,-315.5 46,-345.5 336,-345.5 336,-315.5 46,-315.5"/>
<text text-anchor="start" x="53" y="-326.9" font-family="Arial" font-size="14.00" fill="#000000">memo02 </text>
<text text-anchor="start" x="111.3422" y="-326.9" font-family="Arial" font-size="14.00" fill="#666666">[text]</text>
<polygon fill="none" stroke="#000000" points="46,-285.5 46,-315.5 336,-315.5 336,-285.5 46,-285.5"/>
<text text-anchor="start" x="53" y="-296.9" font-family="Arial" font-size="14.00" fill="#000000">memo03 </text>
<text text-anchor="start" x="111.3422" y="-296.9" font-family="Arial" font-size="14.00" fill="#666666">[text]</text>
<polygon fill="none" stroke="#000000" points="46,-255.5 46,-285.5 336,-285.5 336,-255.5 46,-255.5"/>
<text text-anchor="start" x="53" y="-266.9" font-family="Arial" font-size="14.00" fill="#000000">memo04 </text>
<text text-anchor="start" x="111.3422" y="-266.9" font-family="Arial" font-size="14.00" fill="#666666">[text]</text>
<polygon fill="none" stroke="#000000" points="46,-225.5 46,-255.5 336,-255.5 336,-225.5 46,-225.5"/>
<text text-anchor="start" x="53" y="-236.9" font-family="Arial" font-size="14.00" fill="#000000">memo05 </text>
<text text-anchor="start" x="111.3422" y="-236.9" font-family="Arial" font-size="14.00" fill="#666666">[text]</text>
<polygon fill="none" stroke="#000000" points="46,-195.5 46,-225.5 336,-225.5 336,-195.5 46,-195.5"/>
<text text-anchor="start" x="53" y="-206.9" font-family="Arial" font-size="14.00" fill="#000000">memo06 </text>
<text text-anchor="start" x="111.3422" y="-206.9" font-family="Arial" font-size="14.00" fill="#666666">[text]</text>
<polygon fill="none" stroke="#000000" points="46,-165.5 46,-195.5 336,-195.5 336,-165.5 46,-165.5"/>
<text text-anchor="start" x="53" y="-176.9" font-family="Arial" font-size="14.00" fill="#000000">memo07 </text>
<text text-anchor="start" x="111.3422" y="-176.9" font-family="Arial" font-size="14.00" fill="#666666">[text]</text>
<polygon fill="none" stroke="#000000" points="46,-135.5 46,-165.5 336,-165.5 336,-135.5 46,-135.5"/>
<text text-anchor="start" x="53" y="-146.9" font-family="Arial" font-size="14.00" fill="#000000">memo08 </text>
<text text-anchor="start" x="111.3422" y="-146.9" font-family="Arial" font-size="14.00" fill="#666666">[text]</text>
<polygon fill="none" stroke="#000000" points="46,-105.5 46,-135.5 336,-135.5 336,-105.5 46,-105.5"/>
<text text-anchor="start" x="53" y="-116.9" font-family="Arial" font-size="14.00" fill="#000000">memo09 </text>
<text text-anchor="start" x="111.3422" y="-116.9" font-family="Arial" font-size="14.00" fill="#666666">[text]</text>
<polygon fill="none" stroke="#000000" points="46,-75.5 46,-105.5 336,-105.5 336,-75.5 46,-75.5"/>
<text text-anchor="start" x="53" y="-86.9" font-family="Arial" font-size="14.00" fill="#000000">memo10 </text>
<text text-anchor="start" x="111.3422" y="-86.9" font-family="Arial" font-size="14.00" fill="#666666">[text]</text>
<polygon fill="none" stroke="#000000" points="46,-45.5 46,-75.5 336,-75.5 336,-45.5 46,-45.5"/>
<text text-anchor="start" x="53" y="-56.9" font-family="Arial" font-size="14.00" fill="#000000">session </text>
<text text-anchor="start" x="104.345" y="-56.9" font-family="Arial" font-size="14.00" fill="#666666">[text]</text>
<polygon fill="none" stroke="#000000" stroke-width="3" points="44.5,-44.5 44.5,-1852.5 337.5,-1852.5 337.5,-44.5 44.5,-44.5"/>
</g>
</g>
</svg>
