<?xml version="1.0" encoding="UTF-8" standalone="no"?>
<!DOCTYPE svg PUBLIC "-//W3C//DTD SVG 1.1//EN"
 "http://www.w3.org/Graphics/SVG/1.1/DTD/svg11.dtd">
<!-- Generated by graphviz version 2.40.1 (20161225.0304)
 -->
<!-- Title: public.dtb_pagelayout Pages: 1 -->
<svg width="492pt" height="1202pt"
 viewBox="0.00 0.00 491.50 1202.00" xmlns="http://www.w3.org/2000/svg" xmlns:xlink="http://www.w3.org/1999/xlink">
<g id="graph0" class="graph" transform="scale(1 1) rotate(0) translate(4 1198)">
<title>public.dtb_pagelayout</title>
<polygon fill="#ffffff" stroke="transparent" points="-4,4 -4,-1198 487.5,-1198 487.5,4 -4,4"/>
<!-- public.dtb_pagelayout -->
<g id="node1" class="node">
<title>public.dtb_pagelayout</title>
<polygon fill="#efefef" stroke="transparent" points="97,-754 97,-800 438,-800 438,-754 97,-754"/>
<polygon fill="none" stroke="#000000" points="97,-754 97,-800 438,-800 438,-754 97,-754"/>
<text text-anchor="start" x="131.3382" y="-777.8" font-family="Arial Bold" font-size="18.00" fill="#000000">public.dtb_pagelayout</text>
<text text-anchor="start" x="306.408" y="-777.8" font-family="Arial" font-size="14.00" fill="#000000"> </text>
<text text-anchor="start" x="310.2986" y="-777.8" font-family="Arial" font-size="14.00" fill="#666666">[BASE TABLE]</text>
<text text-anchor="start" x="193.8803" y="-763.4" font-family="Arial" font-size="14.00" fill="#333333">ページレイアウト情報</text>
<polygon fill="none" stroke="#000000" points="97,-724 97,-754 438,-754 438,-724 97,-724"/>
<text text-anchor="start" x="104" y="-735.4" font-family="Arial" font-size="14.00" fill="#000000">device_type_id </text>
<text text-anchor="start" x="201.2552" y="-735.4" font-family="Arial" font-size="14.00" fill="#666666">[integer]</text>
<text text-anchor="start" x="251.8246" y="-735.4" font-family="Arial" font-size="14.00" fill="#000000"> 端末種別ID</text>
<polygon fill="none" stroke="#000000" points="97,-694 97,-724 438,-724 438,-694 97,-694"/>
<text text-anchor="start" x="104" y="-705.4" font-family="Arial" font-size="14.00" fill="#000000">page_id </text>
<text text-anchor="start" x="157.6928" y="-705.4" font-family="Arial" font-size="14.00" fill="#666666">[integer]</text>
<text text-anchor="start" x="208.2622" y="-705.4" font-family="Arial" font-size="14.00" fill="#000000"> ページID</text>
<polygon fill="none" stroke="#000000" points="97,-664 97,-694 438,-694 438,-664 97,-664"/>
<text text-anchor="start" x="104" y="-675.4" font-family="Arial" font-size="14.00" fill="#000000">page_name </text>
<text text-anchor="start" x="181.812" y="-675.4" font-family="Arial" font-size="14.00" fill="#666666">[text]</text>
<text text-anchor="start" x="212.157" y="-675.4" font-family="Arial" font-size="14.00" fill="#000000"> ページ名</text>
<polygon fill="none" stroke="#000000" points="97,-634 97,-664 438,-664 438,-634 97,-634"/>
<text text-anchor="start" x="104" y="-645.4" font-family="Arial" font-size="14.00" fill="#000000">url </text>
<text text-anchor="start" x="123.4404" y="-645.4" font-family="Arial" font-size="14.00" fill="#666666">[text]</text>
<text text-anchor="start" x="153.7854" y="-645.4" font-family="Arial" font-size="14.00" fill="#000000"> ページURL</text>
<polygon fill="none" stroke="#000000" points="97,-604 97,-634 438,-634 438,-604 97,-604"/>
<text text-anchor="start" x="104" y="-615.4" font-family="Arial" font-size="14.00" fill="#000000">filename </text>
<text text-anchor="start" x="160.7854" y="-615.4" font-family="Arial" font-size="14.00" fill="#666666">[text]</text>
<text text-anchor="start" x="191.1304" y="-615.4" font-family="Arial" font-size="14.00" fill="#000000"> ファイル名</text>
<polygon fill="none" stroke="#000000" points="97,-574 97,-604 438,-604 438,-574 97,-574"/>
<text text-anchor="start" x="104" y="-585.4" font-family="Arial" font-size="14.00" fill="#000000">header_chk </text>
<text text-anchor="start" x="181.0294" y="-585.4" font-family="Arial" font-size="14.00" fill="#666666">[smallint]</text>
<text text-anchor="start" x="236.2468" y="-585.4" font-family="Arial" font-size="14.00" fill="#000000"> ヘッダチェックフラグ</text>
<polygon fill="none" stroke="#000000" points="97,-544 97,-574 438,-574 438,-544 97,-544"/>
<text text-anchor="start" x="104" y="-555.4" font-family="Arial" font-size="14.00" fill="#000000">footer_chk </text>
<text text-anchor="start" x="173.2454" y="-555.4" font-family="Arial" font-size="14.00" fill="#666666">[smallint]</text>
<text text-anchor="start" x="228.4628" y="-555.4" font-family="Arial" font-size="14.00" fill="#000000"> フッタチェックフラグ</text>
<polygon fill="none" stroke="#000000" points="97,-514 97,-544 438,-544 438,-514 97,-514"/>
<text text-anchor="start" x="104" y="-525.4" font-family="Arial" font-size="14.00" fill="#000000">edit_flg </text>
<text text-anchor="start" x="153.0154" y="-525.4" font-family="Arial" font-size="14.00" fill="#666666">[smallint]</text>
<text text-anchor="start" x="208.2328" y="-525.4" font-family="Arial" font-size="14.00" fill="#000000"> 修正フラグ</text>
<polygon fill="none" stroke="#000000" points="97,-484 97,-514 438,-514 438,-484 97,-484"/>
<text text-anchor="start" x="104" y="-495.4" font-family="Arial" font-size="14.00" fill="#000000">author </text>
<text text-anchor="start" x="147.5722" y="-495.4" font-family="Arial" font-size="14.00" fill="#666666">[text]</text>
<text text-anchor="start" x="177.9172" y="-495.4" font-family="Arial" font-size="14.00" fill="#000000"> meta タグ(Author)</text>
<polygon fill="none" stroke="#000000" points="97,-454 97,-484 438,-484 438,-454 97,-454"/>
<text text-anchor="start" x="104" y="-465.4" font-family="Arial" font-size="14.00" fill="#000000">description </text>
<text text-anchor="start" x="175.568" y="-465.4" font-family="Arial" font-size="14.00" fill="#666666">[text]</text>
<text text-anchor="start" x="205.913" y="-465.4" font-family="Arial" font-size="14.00" fill="#000000"> meta タグ(Description)</text>
<polygon fill="none" stroke="#000000" points="97,-424 97,-454 438,-454 438,-424 97,-424"/>
<text text-anchor="start" x="104" y="-435.4" font-family="Arial" font-size="14.00" fill="#000000">keyword </text>
<text text-anchor="start" x="160.0056" y="-435.4" font-family="Arial" font-size="14.00" fill="#666666">[text]</text>
<text text-anchor="start" x="190.3506" y="-435.4" font-family="Arial" font-size="14.00" fill="#000000"> meta タグ(keyword)</text>
<polygon fill="none" stroke="#000000" points="97,-394 97,-424 438,-424 438,-394 97,-394"/>
<text text-anchor="start" x="104" y="-405.4" font-family="Arial" font-size="14.00" fill="#000000">update_url </text>
<text text-anchor="start" x="174.0266" y="-405.4" font-family="Arial" font-size="14.00" fill="#666666">[text]</text>
<text text-anchor="start" x="204.3716" y="-405.4" font-family="Arial" font-size="14.00" fill="#000000"> 更新実施URL</text>
<polygon fill="none" stroke="#000000" points="97,-364 97,-394 438,-394 438,-364 97,-364"/>
<text text-anchor="start" x="103.735" y="-375.4" font-family="Arial" font-size="14.00" fill="#000000">create_date </text>
<text text-anchor="start" x="181.5456" y="-375.4" font-family="Arial" font-size="14.00" fill="#666666">[timestamp without time zone]</text>
<text text-anchor="start" x="366.6858" y="-375.4" font-family="Arial" font-size="14.00" fill="#000000"> 作成日時</text>
<polygon fill="none" stroke="#000000" points="97,-334 97,-364 438,-364 438,-334 97,-334"/>
<text text-anchor="start" x="104" y="-345.4" font-family="Arial" font-size="14.00" fill="#000000">update_date </text>
<text text-anchor="start" x="185.7152" y="-345.4" font-family="Arial" font-size="14.00" fill="#666666">[timestamp without time zone]</text>
<text text-anchor="start" x="370.8554" y="-345.4" font-family="Arial" font-size="14.00" fill="#000000"> 更新日時</text>
<polygon fill="none" stroke="#000000" points="97,-304 97,-334 438,-334 438,-304 97,-304"/>
<text text-anchor="start" x="104" y="-315.4" font-family="Arial" font-size="14.00" fill="#000000">meta_robots </text>
<text text-anchor="start" x="185.6886" y="-315.4" font-family="Arial" font-size="14.00" fill="#666666">[text]</text>
<text text-anchor="start" x="216.0336" y="-315.4" font-family="Arial" font-size="14.00" fill="#000000"> 【2.13】meta タグ(robots)</text>
<polygon fill="none" stroke="#000000" stroke-width="3" points="95,-302.5 95,-801.5 439,-801.5 439,-302.5 95,-302.5"/>
</g>
<!-- public.mtb_device_type -->
<g id="node2" class="node">
<title>public.mtb_device_type</title>
<polygon fill="#efefef" stroke="transparent" points="118,-133 118,-179 417,-179 417,-133 118,-133"/>
<polygon fill="none" stroke="#000000" points="118,-133 118,-179 417,-179 417,-133 118,-133"/>
<text text-anchor="start" x="124.8483" y="-156.8" font-family="Arial Bold" font-size="18.00" fill="#000000">public.mtb_device_type</text>
<text text-anchor="start" x="312.8979" y="-156.8" font-family="Arial" font-size="14.00" fill="#000000"> </text>
<text text-anchor="start" x="316.7885" y="-156.8" font-family="Arial" font-size="14.00" fill="#666666">[BASE TABLE]</text>
<text text-anchor="start" x="233.263" y="-142.4" font-family="Arial" font-size="14.00" fill="#333333">端末種別</text>
<polygon fill="none" stroke="#000000" points="118,-103 118,-133 417,-133 417,-103 118,-103"/>
<text text-anchor="start" x="125" y="-114.4" font-family="Arial" font-size="14.00" fill="#000000">id </text>
<text text-anchor="start" x="139.7798" y="-114.4" font-family="Arial" font-size="14.00" fill="#666666">[smallint]</text>
<text text-anchor="start" x="194.9972" y="-114.4" font-family="Arial" font-size="14.00" fill="#000000"> ID</text>
<polygon fill="none" stroke="#000000" points="118,-73 118,-103 417,-103 417,-73 118,-73"/>
<text text-anchor="start" x="125" y="-84.4" font-family="Arial" font-size="14.00" fill="#000000">name </text>
<text text-anchor="start" x="163.899" y="-84.4" font-family="Arial" font-size="14.00" fill="#666666">[text]</text>
<text text-anchor="start" x="194.244" y="-84.4" font-family="Arial" font-size="14.00" fill="#000000"> 名称</text>
<polygon fill="none" stroke="#000000" points="118,-43 118,-73 417,-73 417,-43 118,-43"/>
<text text-anchor="start" x="125" y="-54.4" font-family="Arial" font-size="14.00" fill="#000000">rank </text>
<text text-anchor="start" x="156.1164" y="-54.4" font-family="Arial" font-size="14.00" fill="#666666">[smallint]</text>
<text text-anchor="start" x="211.3338" y="-54.4" font-family="Arial" font-size="14.00" fill="#000000"> 表示順</text>
</g>
<!-- public.dtb_pagelayout&#45;&gt;public.mtb_device_type -->
<g id="edge1" class="edge">
<title>public.dtb_pagelayout:device_type_id&#45;&gt;public.mtb_device_type:id</title>
<path fill="none" stroke="#000000" stroke-dasharray="5,2" d="M87.5259,-734.7028C30.1259,-679.836 52.3316,-118 118,-118"/>
<polygon fill="#000000" stroke="#000000" points="87.893,-734.8693 95.1412,-743.0982 92.4465,-736.9346 97,-739 97,-739 97,-739 92.4465,-736.9346 98.8588,-734.9018 87.893,-734.8693 87.893,-734.8693"/>
<text text-anchor="start" x="7.3245" y="-749" font-family="Arial" font-size="10.00" fill="#000000">Additional Relation</text>
</g>
<!-- public.dtb_blocposition -->
<g id="node3" class="node">
<title>public.dtb_blocposition</title>
<polygon fill="#efefef" stroke="transparent" points="105,-1105 105,-1151 430,-1151 430,-1105 105,-1105"/>
<polygon fill="none" stroke="#000000" points="105,-1105 105,-1151 430,-1151 430,-1105 105,-1105"/>
<text text-anchor="start" x="127.8471" y="-1128.8" font-family="Arial Bold" font-size="18.00" fill="#000000">public.dtb_blocposition</text>
<text text-anchor="start" x="309.8991" y="-1128.8" font-family="Arial" font-size="14.00" fill="#000000"> </text>
<text text-anchor="start" x="313.7897" y="-1128.8" font-family="Arial" font-size="14.00" fill="#666666">[BASE TABLE]</text>
<text text-anchor="start" x="204.2417" y="-1114.4" font-family="Arial" font-size="14.00" fill="#333333">ブロック配置情報</text>
<polygon fill="none" stroke="#000000" points="105,-1075 105,-1105 430,-1105 430,-1075 105,-1075"/>
<text text-anchor="start" x="112" y="-1086.4" font-family="Arial" font-size="14.00" fill="#000000">device_type_id </text>
<text text-anchor="start" x="209.2552" y="-1086.4" font-family="Arial" font-size="14.00" fill="#666666">[integer]</text>
<text text-anchor="start" x="259.8246" y="-1086.4" font-family="Arial" font-size="14.00" fill="#000000"> 端末種別ID</text>
<polygon fill="none" stroke="#000000" points="105,-1045 105,-1075 430,-1075 430,-1045 105,-1045"/>
<text text-anchor="start" x="112" y="-1056.4" font-family="Arial" font-size="14.00" fill="#000000">page_id </text>
<text text-anchor="start" x="165.6928" y="-1056.4" font-family="Arial" font-size="14.00" fill="#666666">[integer]</text>
<text text-anchor="start" x="216.2622" y="-1056.4" font-family="Arial" font-size="14.00" fill="#000000"> ページID</text>
<polygon fill="none" stroke="#000000" points="105,-1015 105,-1045 430,-1045 430,-1015 105,-1015"/>
<text text-anchor="start" x="112" y="-1026.4" font-family="Arial" font-size="14.00" fill="#000000">target_id </text>
<text text-anchor="start" x="170.352" y="-1026.4" font-family="Arial" font-size="14.00" fill="#666666">[integer]</text>
<text text-anchor="start" x="220.9214" y="-1026.4" font-family="Arial" font-size="14.00" fill="#000000"> 配置ID</text>
<polygon fill="none" stroke="#000000" points="105,-985 105,-1015 430,-1015 430,-985 105,-985"/>
<text text-anchor="start" x="112" y="-996.4" font-family="Arial" font-size="14.00" fill="#000000">bloc_id </text>
<text text-anchor="start" x="160.2342" y="-996.4" font-family="Arial" font-size="14.00" fill="#666666">[integer]</text>
<text text-anchor="start" x="210.8036" y="-996.4" font-family="Arial" font-size="14.00" fill="#000000"> ブロックID</text>
<polygon fill="none" stroke="#000000" points="105,-955 105,-985 430,-985 430,-955 105,-955"/>
<text text-anchor="start" x="112" y="-966.4" font-family="Arial" font-size="14.00" fill="#000000">bloc_row </text>
<text text-anchor="start" x="171.8948" y="-966.4" font-family="Arial" font-size="14.00" fill="#666666">[integer]</text>
<text text-anchor="start" x="222.4642" y="-966.4" font-family="Arial" font-size="14.00" fill="#000000"> ブロック配置順序</text>
<polygon fill="none" stroke="#000000" points="105,-925 105,-955 430,-955 430,-925 105,-925"/>
<text text-anchor="start" x="111.7787" y="-936.4" font-family="Arial" font-size="14.00" fill="#000000">anywhere </text>
<text text-anchor="start" x="176.3495" y="-936.4" font-family="Arial" font-size="14.00" fill="#666666">[smallint]</text>
<text text-anchor="start" x="231.5669" y="-936.4" font-family="Arial" font-size="14.00" fill="#000000"> 全ページに配置するフラグ</text>
</g>
<!-- public.dtb_blocposition&#45;&gt;public.dtb_pagelayout -->
<g id="edge2" class="edge">
<title>public.dtb_blocposition:page_id&#45;&gt;public.dtb_pagelayout:page_id</title>
<path fill="none" stroke="#000000" stroke-dasharray="5,2" d="M94.9109,-1057.9387C26.4346,-1029.1732 22.4846,-709 97,-709"/>
<polygon fill="#000000" stroke="#000000" points="95.2024,-1057.9982 104.0992,-1064.4089 100.1012,-1058.9991 105,-1060 105,-1060 105,-1060 100.1012,-1058.9991 105.9008,-1055.5911 95.2024,-1057.9982 95.2024,-1057.9982"/>
<text text-anchor="start" x="15.3245" y="-1070" font-family="Arial" font-size="10.00" fill="#000000">Additional Relation</text>
</g>
</g>
</svg>
