<?xml version="1.0" encoding="UTF-8" standalone="no"?>
<!DOCTYPE svg PUBLIC "-//W3C//DTD SVG 1.1//EN"
 "http://www.w3.org/Graphics/SVG/1.1/DTD/svg11.dtd">
<!-- Generated by graphviz version 2.40.1 (20161225.0304)
 -->
<!-- Title: public.mtb_target Pages: 1 -->
<svg width="473pt" height="584pt"
 viewBox="0.00 0.00 472.50 584.00" xmlns="http://www.w3.org/2000/svg" xmlns:xlink="http://www.w3.org/1999/xlink">
<g id="graph0" class="graph" transform="scale(1 1) rotate(0) translate(4 580)">
<title>public.mtb_target</title>
<polygon fill="#ffffff" stroke="transparent" points="-4,4 -4,-580 468.5,-580 468.5,4 -4,4"/>
<!-- public.mtb_target -->
<g id="node1" class="node">
<title>public.mtb_target</title>
<polygon fill="#efefef" stroke="transparent" points="135,-136 135,-182 384,-182 384,-136 135,-136"/>
<polygon fill="none" stroke="#000000" points="135,-136 135,-182 384,-182 384,-136 135,-136"/>
<text text-anchor="start" x="141.8575" y="-159.8" font-family="Arial Bold" font-size="18.00" fill="#000000">public.mtb_target</text>
<text text-anchor="start" x="279.8887" y="-159.8" font-family="Arial" font-size="14.00" fill="#000000"> </text>
<text text-anchor="start" x="283.7793" y="-159.8" font-family="Arial" font-size="14.00" fill="#666666">[BASE TABLE]</text>
<text text-anchor="start" x="189.9095" y="-145.4" font-family="Arial" font-size="14.00" fill="#333333">ブロックターゲット</text>
<polygon fill="none" stroke="#000000" points="135,-106 135,-136 384,-136 384,-106 135,-106"/>
<text text-anchor="start" x="142" y="-117.4" font-family="Arial" font-size="14.00" fill="#000000">id </text>
<text text-anchor="start" x="156.7798" y="-117.4" font-family="Arial" font-size="14.00" fill="#666666">[smallint]</text>
<text text-anchor="start" x="211.9972" y="-117.4" font-family="Arial" font-size="14.00" fill="#000000"> ID</text>
<polygon fill="none" stroke="#000000" points="135,-76 135,-106 384,-106 384,-76 135,-76"/>
<text text-anchor="start" x="142" y="-87.4" font-family="Arial" font-size="14.00" fill="#000000">name </text>
<text text-anchor="start" x="180.899" y="-87.4" font-family="Arial" font-size="14.00" fill="#666666">[text]</text>
<text text-anchor="start" x="211.244" y="-87.4" font-family="Arial" font-size="14.00" fill="#000000"> 名称</text>
<polygon fill="none" stroke="#000000" points="135,-46 135,-76 384,-76 384,-46 135,-46"/>
<text text-anchor="start" x="142" y="-57.4" font-family="Arial" font-size="14.00" fill="#000000">rank </text>
<text text-anchor="start" x="173.1164" y="-57.4" font-family="Arial" font-size="14.00" fill="#666666">[smallint]</text>
<text text-anchor="start" x="228.3338" y="-57.4" font-family="Arial" font-size="14.00" fill="#000000"> 表示順</text>
<polygon fill="none" stroke="#000000" stroke-width="3" points="133,-44.5 133,-183.5 385,-183.5 385,-44.5 133,-44.5"/>
</g>
<!-- public.dtb_blocposition -->
<g id="node2" class="node">
<title>public.dtb_blocposition</title>
<polygon fill="#efefef" stroke="transparent" points="97,-487 97,-533 422,-533 422,-487 97,-487"/>
<polygon fill="none" stroke="#000000" points="97,-487 97,-533 422,-533 422,-487 97,-487"/>
<text text-anchor="start" x="119.8471" y="-510.8" font-family="Arial Bold" font-size="18.00" fill="#000000">public.dtb_blocposition</text>
<text text-anchor="start" x="301.8991" y="-510.8" font-family="Arial" font-size="14.00" fill="#000000"> </text>
<text text-anchor="start" x="305.7897" y="-510.8" font-family="Arial" font-size="14.00" fill="#666666">[BASE TABLE]</text>
<text text-anchor="start" x="196.2417" y="-496.4" font-family="Arial" font-size="14.00" fill="#333333">ブロック配置情報</text>
<polygon fill="none" stroke="#000000" points="97,-457 97,-487 422,-487 422,-457 97,-457"/>
<text text-anchor="start" x="104" y="-468.4" font-family="Arial" font-size="14.00" fill="#000000">device_type_id </text>
<text text-anchor="start" x="201.2552" y="-468.4" font-family="Arial" font-size="14.00" fill="#666666">[integer]</text>
<text text-anchor="start" x="251.8246" y="-468.4" font-family="Arial" font-size="14.00" fill="#000000"> 端末種別ID</text>
<polygon fill="none" stroke="#000000" points="97,-427 97,-457 422,-457 422,-427 97,-427"/>
<text text-anchor="start" x="104" y="-438.4" font-family="Arial" font-size="14.00" fill="#000000">page_id </text>
<text text-anchor="start" x="157.6928" y="-438.4" font-family="Arial" font-size="14.00" fill="#666666">[integer]</text>
<text text-anchor="start" x="208.2622" y="-438.4" font-family="Arial" font-size="14.00" fill="#000000"> ページID</text>
<polygon fill="none" stroke="#000000" points="97,-397 97,-427 422,-427 422,-397 97,-397"/>
<text text-anchor="start" x="104" y="-408.4" font-family="Arial" font-size="14.00" fill="#000000">target_id </text>
<text text-anchor="start" x="162.352" y="-408.4" font-family="Arial" font-size="14.00" fill="#666666">[integer]</text>
<text text-anchor="start" x="212.9214" y="-408.4" font-family="Arial" font-size="14.00" fill="#000000"> 配置ID</text>
<polygon fill="none" stroke="#000000" points="97,-367 97,-397 422,-397 422,-367 97,-367"/>
<text text-anchor="start" x="104" y="-378.4" font-family="Arial" font-size="14.00" fill="#000000">bloc_id </text>
<text text-anchor="start" x="152.2342" y="-378.4" font-family="Arial" font-size="14.00" fill="#666666">[integer]</text>
<text text-anchor="start" x="202.8036" y="-378.4" font-family="Arial" font-size="14.00" fill="#000000"> ブロックID</text>
<polygon fill="none" stroke="#000000" points="97,-337 97,-367 422,-367 422,-337 97,-337"/>
<text text-anchor="start" x="104" y="-348.4" font-family="Arial" font-size="14.00" fill="#000000">bloc_row </text>
<text text-anchor="start" x="163.8948" y="-348.4" font-family="Arial" font-size="14.00" fill="#666666">[integer]</text>
<text text-anchor="start" x="214.4642" y="-348.4" font-family="Arial" font-size="14.00" fill="#000000"> ブロック配置順序</text>
<polygon fill="none" stroke="#000000" points="97,-307 97,-337 422,-337 422,-307 97,-307"/>
<text text-anchor="start" x="103.7787" y="-318.4" font-family="Arial" font-size="14.00" fill="#000000">anywhere </text>
<text text-anchor="start" x="168.3495" y="-318.4" font-family="Arial" font-size="14.00" fill="#666666">[smallint]</text>
<text text-anchor="start" x="223.5669" y="-318.4" font-family="Arial" font-size="14.00" fill="#000000"> 全ページに配置するフラグ</text>
</g>
<!-- public.dtb_blocposition&#45;&gt;public.mtb_target -->
<g id="edge1" class="edge">
<title>public.dtb_blocposition:target_id&#45;&gt;public.mtb_target:id</title>
<path fill="none" stroke="#000000" stroke-dasharray="5,2" d="M87.2142,-409.4843C36.022,-381.0422 73.3508,-121 135,-121"/>
<polygon fill="#000000" stroke="#000000" points="87.3149,-409.5101 95.8795,-416.3583 92.1575,-410.7551 97,-412 97,-412 97,-412 92.1575,-410.7551 98.1205,-407.6417 87.3149,-409.5101 87.3149,-409.5101"/>
<text text-anchor="start" x="7.3245" y="-422" font-family="Arial" font-size="10.00" fill="#000000">Additional Relation</text>
</g>
</g>
</svg>
