<?xml version="1.0" encoding="UTF-8" standalone="no"?>
<!DOCTYPE svg PUBLIC "-//W3C//DTD SVG 1.1//EN"
 "http://www.w3.org/Graphics/SVG/1.1/DTD/svg11.dtd">
<!-- Generated by graphviz version 2.40.1 (20161225.0304)
 -->
<!-- Title: public.dtb_baseinfo Pages: 1 -->
<svg width="822pt" height="2384pt"
 viewBox="0.00 0.00 822.00 2384.00" xmlns="http://www.w3.org/2000/svg" xmlns:xlink="http://www.w3.org/1999/xlink">
<g id="graph0" class="graph" transform="scale(1 1) rotate(0) translate(4 2380)">
<title>public.dtb_baseinfo</title>
<polygon fill="#ffffff" stroke="transparent" points="-4,4 -4,-2380 818,-2380 818,4 -4,4"/>
<!-- public.dtb_baseinfo -->
<g id="node1" class="node">
<title>public.dtb_baseinfo</title>
<polygon fill="#efefef" stroke="transparent" points="46,-2284 46,-2330 558,-2330 558,-2284 46,-2284"/>
<polygon fill="none" stroke="#000000" points="46,-2284 46,-2330 558,-2330 558,-2284 46,-2284"/>
<text text-anchor="start" x="175.8444" y="-2307.8" font-family="Arial Bold" font-size="18.00" fill="#000000">public.dtb_baseinfo</text>
<text text-anchor="start" x="330.9018" y="-2307.8" font-family="Arial" font-size="14.00" fill="#000000"> </text>
<text text-anchor="start" x="334.7924" y="-2307.8" font-family="Arial" font-size="14.00" fill="#666666">[BASE TABLE]</text>
<text text-anchor="start" x="261.9376" y="-2293.4" font-family="Arial" font-size="14.00" fill="#333333">店舗基本情報</text>
<polygon fill="none" stroke="#000000" points="46,-2254 46,-2284 558,-2284 558,-2254 46,-2254"/>
<text text-anchor="start" x="53" y="-2265.4" font-family="Arial" font-size="14.00" fill="#000000">id </text>
<text text-anchor="start" x="67.7798" y="-2265.4" font-family="Arial" font-size="14.00" fill="#666666">[integer]</text>
<text text-anchor="start" x="118.3492" y="-2265.4" font-family="Arial" font-size="14.00" fill="#000000"> 店舗基本情報ID</text>
<polygon fill="none" stroke="#000000" points="46,-2224 46,-2254 558,-2254 558,-2224 46,-2224"/>
<text text-anchor="start" x="53" y="-2235.4" font-family="Arial" font-size="14.00" fill="#000000">company_name </text>
<text text-anchor="start" x="156.4726" y="-2235.4" font-family="Arial" font-size="14.00" fill="#666666">[text]</text>
<text text-anchor="start" x="186.8176" y="-2235.4" font-family="Arial" font-size="14.00" fill="#000000"> 会社名</text>
<polygon fill="none" stroke="#000000" points="46,-2194 46,-2224 558,-2224 558,-2194 46,-2194"/>
<text text-anchor="start" x="53" y="-2205.4" font-family="Arial" font-size="14.00" fill="#000000">company_kana </text>
<text text-anchor="start" x="151.812" y="-2205.4" font-family="Arial" font-size="14.00" fill="#666666">[text]</text>
<text text-anchor="start" x="182.157" y="-2205.4" font-family="Arial" font-size="14.00" fill="#000000"> 会社名(カナ)</text>
<polygon fill="none" stroke="#000000" points="46,-2164 46,-2194 558,-2194 558,-2164 46,-2164"/>
<text text-anchor="start" x="53" y="-2175.4" font-family="Arial" font-size="14.00" fill="#000000">zip01 </text>
<text text-anchor="start" x="90.345" y="-2175.4" font-family="Arial" font-size="14.00" fill="#666666">[text]</text>
<text text-anchor="start" x="120.69" y="-2175.4" font-family="Arial" font-size="14.00" fill="#000000"> 郵便番号(4桁)</text>
<polygon fill="none" stroke="#000000" points="46,-2134 46,-2164 558,-2164 558,-2134 46,-2134"/>
<text text-anchor="start" x="53" y="-2145.4" font-family="Arial" font-size="14.00" fill="#000000">zip02 </text>
<text text-anchor="start" x="90.345" y="-2145.4" font-family="Arial" font-size="14.00" fill="#666666">[text]</text>
<text text-anchor="start" x="120.69" y="-2145.4" font-family="Arial" font-size="14.00" fill="#000000"> 郵便番号(3桁)</text>
<polygon fill="none" stroke="#000000" points="46,-2104 46,-2134 558,-2134 558,-2104 46,-2104"/>
<text text-anchor="start" x="53" y="-2115.4" font-family="Arial" font-size="14.00" fill="#000000">zipcode </text>
<text text-anchor="start" x="105.1276" y="-2115.4" font-family="Arial" font-size="14.00" fill="#666666">[text]</text>
<text text-anchor="start" x="135.4726" y="-2115.4" font-family="Arial" font-size="14.00" fill="#000000"> 【2.13】郵便番号(海外対応)</text>
<polygon fill="none" stroke="#000000" points="46,-2074 46,-2104 558,-2104 558,-2074 46,-2074"/>
<text text-anchor="start" x="53" y="-2085.4" font-family="Arial" font-size="14.00" fill="#000000">country_id </text>
<text text-anchor="start" x="121.4614" y="-2085.4" font-family="Arial" font-size="14.00" fill="#666666">[integer]</text>
<text text-anchor="start" x="172.0308" y="-2085.4" font-family="Arial" font-size="14.00" fill="#000000"> 【2.13】国ID</text>
<polygon fill="none" stroke="#000000" points="46,-2044 46,-2074 558,-2074 558,-2044 46,-2044"/>
<text text-anchor="start" x="53" y="-2055.4" font-family="Arial" font-size="14.00" fill="#000000">pref </text>
<text text-anchor="start" x="81.007" y="-2055.4" font-family="Arial" font-size="14.00" fill="#666666">[smallint]</text>
<text text-anchor="start" x="136.2244" y="-2055.4" font-family="Arial" font-size="14.00" fill="#000000"> 都道府県</text>
<polygon fill="none" stroke="#000000" points="46,-2014 46,-2044 558,-2044 558,-2014 46,-2014"/>
<text text-anchor="start" x="53" y="-2025.4" font-family="Arial" font-size="14.00" fill="#000000">addr01 </text>
<text text-anchor="start" x="100.4642" y="-2025.4" font-family="Arial" font-size="14.00" fill="#666666">[text]</text>
<text text-anchor="start" x="130.8092" y="-2025.4" font-family="Arial" font-size="14.00" fill="#000000"> 住所1</text>
<polygon fill="none" stroke="#000000" points="46,-1984 46,-2014 558,-2014 558,-1984 46,-1984"/>
<text text-anchor="start" x="53" y="-1995.4" font-family="Arial" font-size="14.00" fill="#000000">addr02 </text>
<text text-anchor="start" x="100.4642" y="-1995.4" font-family="Arial" font-size="14.00" fill="#666666">[text]</text>
<text text-anchor="start" x="130.8092" y="-1995.4" font-family="Arial" font-size="14.00" fill="#000000"> 住所2</text>
<polygon fill="none" stroke="#000000" points="46,-1954 46,-1984 558,-1984 558,-1954 46,-1954"/>
<text text-anchor="start" x="53" y="-1965.4" font-family="Arial" font-size="14.00" fill="#000000">tel01 </text>
<text text-anchor="start" x="87.2356" y="-1965.4" font-family="Arial" font-size="14.00" fill="#666666">[text]</text>
<text text-anchor="start" x="117.5806" y="-1965.4" font-family="Arial" font-size="14.00" fill="#000000"> 電話番号(市外局番)</text>
<polygon fill="none" stroke="#000000" points="46,-1924 46,-1954 558,-1954 558,-1924 46,-1924"/>
<text text-anchor="start" x="53" y="-1935.4" font-family="Arial" font-size="14.00" fill="#000000">tel02 </text>
<text text-anchor="start" x="87.2356" y="-1935.4" font-family="Arial" font-size="14.00" fill="#666666">[text]</text>
<text text-anchor="start" x="117.5806" y="-1935.4" font-family="Arial" font-size="14.00" fill="#000000"> 電話番号(市内局番)</text>
<polygon fill="none" stroke="#000000" points="46,-1894 46,-1924 558,-1924 558,-1894 46,-1894"/>
<text text-anchor="start" x="53" y="-1905.4" font-family="Arial" font-size="14.00" fill="#000000">tel03 </text>
<text text-anchor="start" x="87.2356" y="-1905.4" font-family="Arial" font-size="14.00" fill="#666666">[text]</text>
<text text-anchor="start" x="117.5806" y="-1905.4" font-family="Arial" font-size="14.00" fill="#000000"> 電話番号(局番)</text>
<polygon fill="none" stroke="#000000" points="46,-1864 46,-1894 558,-1894 558,-1864 46,-1864"/>
<text text-anchor="start" x="53" y="-1875.4" font-family="Arial" font-size="14.00" fill="#000000">fax01 </text>
<text text-anchor="start" x="91.129" y="-1875.4" font-family="Arial" font-size="14.00" fill="#666666">[text]</text>
<text text-anchor="start" x="121.474" y="-1875.4" font-family="Arial" font-size="14.00" fill="#000000"> FAX番号(市外局番)</text>
<polygon fill="none" stroke="#000000" points="46,-1834 46,-1864 558,-1864 558,-1834 46,-1834"/>
<text text-anchor="start" x="53" y="-1845.4" font-family="Arial" font-size="14.00" fill="#000000">fax02 </text>
<text text-anchor="start" x="91.129" y="-1845.4" font-family="Arial" font-size="14.00" fill="#666666">[text]</text>
<text text-anchor="start" x="121.474" y="-1845.4" font-family="Arial" font-size="14.00" fill="#000000"> FAX番号(市内局番)</text>
<polygon fill="none" stroke="#000000" points="46,-1804 46,-1834 558,-1834 558,-1804 46,-1804"/>
<text text-anchor="start" x="53" y="-1815.4" font-family="Arial" font-size="14.00" fill="#000000">fax03 </text>
<text text-anchor="start" x="91.129" y="-1815.4" font-family="Arial" font-size="14.00" fill="#666666">[text]</text>
<text text-anchor="start" x="121.474" y="-1815.4" font-family="Arial" font-size="14.00" fill="#000000"> FAX番号(局番)</text>
<polygon fill="none" stroke="#000000" points="46,-1774 46,-1804 558,-1804 558,-1774 46,-1774"/>
<text text-anchor="start" x="53" y="-1785.4" font-family="Arial" font-size="14.00" fill="#000000">business_hour </text>
<text text-anchor="start" x="147.9186" y="-1785.4" font-family="Arial" font-size="14.00" fill="#666666">[text]</text>
<text text-anchor="start" x="178.2636" y="-1785.4" font-family="Arial" font-size="14.00" fill="#000000"> 営業時間</text>
<polygon fill="none" stroke="#000000" points="46,-1744 46,-1774 558,-1774 558,-1744 46,-1744"/>
<text text-anchor="start" x="53" y="-1755.4" font-family="Arial" font-size="14.00" fill="#000000">law_company </text>
<text text-anchor="start" x="142.46" y="-1755.4" font-family="Arial" font-size="14.00" fill="#666666">[text]</text>
<text text-anchor="start" x="172.805" y="-1755.4" font-family="Arial" font-size="14.00" fill="#000000"> 販売業者(特定商取引)</text>
<polygon fill="none" stroke="#000000" points="46,-1714 46,-1744 558,-1744 558,-1714 46,-1714"/>
<text text-anchor="start" x="53" y="-1725.4" font-family="Arial" font-size="14.00" fill="#000000">law_manager </text>
<text text-anchor="start" x="140.9032" y="-1725.4" font-family="Arial" font-size="14.00" fill="#666666">[text]</text>
<text text-anchor="start" x="171.2482" y="-1725.4" font-family="Arial" font-size="14.00" fill="#000000"> 販売責任者(特定商取引)</text>
<polygon fill="none" stroke="#000000" points="46,-1684 46,-1714 558,-1714 558,-1684 46,-1684"/>
<text text-anchor="start" x="53" y="-1695.4" font-family="Arial" font-size="14.00" fill="#000000">law_zip01 </text>
<text text-anchor="start" x="119.1234" y="-1695.4" font-family="Arial" font-size="14.00" fill="#666666">[text]</text>
<text text-anchor="start" x="149.4684" y="-1695.4" font-family="Arial" font-size="14.00" fill="#000000"> 郵便番号4桁(特定商取引)</text>
<polygon fill="none" stroke="#000000" points="46,-1654 46,-1684 558,-1684 558,-1654 46,-1654"/>
<text text-anchor="start" x="53" y="-1665.4" font-family="Arial" font-size="14.00" fill="#000000">law_zip02 </text>
<text text-anchor="start" x="119.1234" y="-1665.4" font-family="Arial" font-size="14.00" fill="#666666">[text]</text>
<text text-anchor="start" x="149.4684" y="-1665.4" font-family="Arial" font-size="14.00" fill="#000000"> 郵便番号3桁(特定商取引)</text>
<polygon fill="none" stroke="#000000" points="46,-1624 46,-1654 558,-1654 558,-1624 46,-1624"/>
<text text-anchor="start" x="53" y="-1635.4" font-family="Arial" font-size="14.00" fill="#000000">law_zipcode </text>
<text text-anchor="start" x="133.906" y="-1635.4" font-family="Arial" font-size="14.00" fill="#666666">[text]</text>
<text text-anchor="start" x="164.251" y="-1635.4" font-family="Arial" font-size="14.00" fill="#000000"> 【2.13】郵便番号(海外対応)(特定商取引)</text>
<polygon fill="none" stroke="#000000" points="46,-1594 46,-1624 558,-1624 558,-1594 46,-1594"/>
<text text-anchor="start" x="53" y="-1605.4" font-family="Arial" font-size="14.00" fill="#000000">law_country_id </text>
<text text-anchor="start" x="150.2398" y="-1605.4" font-family="Arial" font-size="14.00" fill="#666666">[integer]</text>
<text text-anchor="start" x="200.8092" y="-1605.4" font-family="Arial" font-size="14.00" fill="#000000"> 【2.13】国ID(特定商取引)</text>
<polygon fill="none" stroke="#000000" points="46,-1564 46,-1594 558,-1594 558,-1564 46,-1564"/>
<text text-anchor="start" x="53" y="-1575.4" font-family="Arial" font-size="14.00" fill="#000000">law_pref </text>
<text text-anchor="start" x="109.7854" y="-1575.4" font-family="Arial" font-size="14.00" fill="#666666">[smallint]</text>
<text text-anchor="start" x="165.0028" y="-1575.4" font-family="Arial" font-size="14.00" fill="#000000"> 都道府県(特定商取引)</text>
<polygon fill="none" stroke="#000000" points="46,-1534 46,-1564 558,-1564 558,-1534 46,-1534"/>
<text text-anchor="start" x="53" y="-1545.4" font-family="Arial" font-size="14.00" fill="#000000">law_addr01 </text>
<text text-anchor="start" x="129.2426" y="-1545.4" font-family="Arial" font-size="14.00" fill="#666666">[text]</text>
<text text-anchor="start" x="159.5876" y="-1545.4" font-family="Arial" font-size="14.00" fill="#000000"> 住所1(特定商取引)</text>
<polygon fill="none" stroke="#000000" points="46,-1504 46,-1534 558,-1534 558,-1504 46,-1504"/>
<text text-anchor="start" x="53" y="-1515.4" font-family="Arial" font-size="14.00" fill="#000000">law_addr02 </text>
<text text-anchor="start" x="129.2426" y="-1515.4" font-family="Arial" font-size="14.00" fill="#666666">[text]</text>
<text text-anchor="start" x="159.5876" y="-1515.4" font-family="Arial" font-size="14.00" fill="#000000"> 住所2(特定商取引)</text>
<polygon fill="none" stroke="#000000" points="46,-1474 46,-1504 558,-1504 558,-1474 46,-1474"/>
<text text-anchor="start" x="53" y="-1485.4" font-family="Arial" font-size="14.00" fill="#000000">law_tel01 </text>
<text text-anchor="start" x="116.014" y="-1485.4" font-family="Arial" font-size="14.00" fill="#666666">[text]</text>
<text text-anchor="start" x="146.359" y="-1485.4" font-family="Arial" font-size="14.00" fill="#000000"> 電話番号(市外局番)(特定商取引)</text>
<polygon fill="none" stroke="#000000" points="46,-1444 46,-1474 558,-1474 558,-1444 46,-1444"/>
<text text-anchor="start" x="53" y="-1455.4" font-family="Arial" font-size="14.00" fill="#000000">law_tel02 </text>
<text text-anchor="start" x="116.014" y="-1455.4" font-family="Arial" font-size="14.00" fill="#666666">[text]</text>
<text text-anchor="start" x="146.359" y="-1455.4" font-family="Arial" font-size="14.00" fill="#000000"> 電話番号(市内局番)(特定商取引)</text>
<polygon fill="none" stroke="#000000" points="46,-1414 46,-1444 558,-1444 558,-1414 46,-1414"/>
<text text-anchor="start" x="53" y="-1425.4" font-family="Arial" font-size="14.00" fill="#000000">law_tel03 </text>
<text text-anchor="start" x="116.014" y="-1425.4" font-family="Arial" font-size="14.00" fill="#666666">[text]</text>
<text text-anchor="start" x="146.359" y="-1425.4" font-family="Arial" font-size="14.00" fill="#000000"> 電話番号(局番)(特定商取引)</text>
<polygon fill="none" stroke="#000000" points="46,-1384 46,-1414 558,-1414 558,-1384 46,-1384"/>
<text text-anchor="start" x="53" y="-1395.4" font-family="Arial" font-size="14.00" fill="#000000">law_fax01 </text>
<text text-anchor="start" x="119.9074" y="-1395.4" font-family="Arial" font-size="14.00" fill="#666666">[text]</text>
<text text-anchor="start" x="150.2524" y="-1395.4" font-family="Arial" font-size="14.00" fill="#000000"> FAX番号(市外局番)(特定商取引)</text>
<polygon fill="none" stroke="#000000" points="46,-1354 46,-1384 558,-1384 558,-1354 46,-1354"/>
<text text-anchor="start" x="53" y="-1365.4" font-family="Arial" font-size="14.00" fill="#000000">law_fax02 </text>
<text text-anchor="start" x="119.9074" y="-1365.4" font-family="Arial" font-size="14.00" fill="#666666">[text]</text>
<text text-anchor="start" x="150.2524" y="-1365.4" font-family="Arial" font-size="14.00" fill="#000000"> FAX番号(市内局番)(特定商取引)</text>
<polygon fill="none" stroke="#000000" points="46,-1324 46,-1354 558,-1354 558,-1324 46,-1324"/>
<text text-anchor="start" x="53" y="-1335.4" font-family="Arial" font-size="14.00" fill="#000000">law_fax03 </text>
<text text-anchor="start" x="119.9074" y="-1335.4" font-family="Arial" font-size="14.00" fill="#666666">[text]</text>
<text text-anchor="start" x="150.2524" y="-1335.4" font-family="Arial" font-size="14.00" fill="#000000"> FAX番号(局番)(特定商取引)</text>
<polygon fill="none" stroke="#000000" points="46,-1294 46,-1324 558,-1324 558,-1294 46,-1294"/>
<text text-anchor="start" x="53" y="-1305.4" font-family="Arial" font-size="14.00" fill="#000000">law_email </text>
<text text-anchor="start" x="119.108" y="-1305.4" font-family="Arial" font-size="14.00" fill="#666666">[text]</text>
<text text-anchor="start" x="149.453" y="-1305.4" font-family="Arial" font-size="14.00" fill="#000000"> メールアドレス(特定商取引)</text>
<polygon fill="none" stroke="#000000" points="46,-1264 46,-1294 558,-1294 558,-1264 46,-1264"/>
<text text-anchor="start" x="53" y="-1275.4" font-family="Arial" font-size="14.00" fill="#000000">law_url </text>
<text text-anchor="start" x="101.2188" y="-1275.4" font-family="Arial" font-size="14.00" fill="#666666">[text]</text>
<text text-anchor="start" x="131.5638" y="-1275.4" font-family="Arial" font-size="14.00" fill="#000000"> URL(特定商取引)</text>
<polygon fill="none" stroke="#000000" points="46,-1234 46,-1264 558,-1264 558,-1234 46,-1234"/>
<text text-anchor="start" x="53" y="-1245.4" font-family="Arial" font-size="14.00" fill="#000000">law_term01 </text>
<text text-anchor="start" x="129.2286" y="-1245.4" font-family="Arial" font-size="14.00" fill="#666666">[text]</text>
<text text-anchor="start" x="159.5736" y="-1245.4" font-family="Arial" font-size="14.00" fill="#000000"> 商品代金以外の必要料金(特定商取引)</text>
<polygon fill="none" stroke="#000000" points="46,-1204 46,-1234 558,-1234 558,-1204 46,-1204"/>
<text text-anchor="start" x="53" y="-1215.4" font-family="Arial" font-size="14.00" fill="#000000">law_term02 </text>
<text text-anchor="start" x="129.2286" y="-1215.4" font-family="Arial" font-size="14.00" fill="#666666">[text]</text>
<text text-anchor="start" x="159.5736" y="-1215.4" font-family="Arial" font-size="14.00" fill="#000000"> 注文方法(特定商取引)</text>
<polygon fill="none" stroke="#000000" points="46,-1174 46,-1204 558,-1204 558,-1174 46,-1174"/>
<text text-anchor="start" x="53" y="-1185.4" font-family="Arial" font-size="14.00" fill="#000000">law_term03 </text>
<text text-anchor="start" x="129.2286" y="-1185.4" font-family="Arial" font-size="14.00" fill="#666666">[text]</text>
<text text-anchor="start" x="159.5736" y="-1185.4" font-family="Arial" font-size="14.00" fill="#000000"> 支払方法(特定商取引)</text>
<polygon fill="none" stroke="#000000" points="46,-1144 46,-1174 558,-1174 558,-1144 46,-1144"/>
<text text-anchor="start" x="53" y="-1155.4" font-family="Arial" font-size="14.00" fill="#000000">law_term04 </text>
<text text-anchor="start" x="129.2286" y="-1155.4" font-family="Arial" font-size="14.00" fill="#666666">[text]</text>
<text text-anchor="start" x="159.5736" y="-1155.4" font-family="Arial" font-size="14.00" fill="#000000"> 支払期限(特定商取引)</text>
<polygon fill="none" stroke="#000000" points="46,-1114 46,-1144 558,-1144 558,-1114 46,-1114"/>
<text text-anchor="start" x="53" y="-1125.4" font-family="Arial" font-size="14.00" fill="#000000">law_term05 </text>
<text text-anchor="start" x="129.2286" y="-1125.4" font-family="Arial" font-size="14.00" fill="#666666">[text]</text>
<text text-anchor="start" x="159.5736" y="-1125.4" font-family="Arial" font-size="14.00" fill="#000000"> 引き渡し時期(特定商取引)</text>
<polygon fill="none" stroke="#000000" points="46,-1084 46,-1114 558,-1114 558,-1084 46,-1084"/>
<text text-anchor="start" x="53" y="-1095.4" font-family="Arial" font-size="14.00" fill="#000000">law_term06 </text>
<text text-anchor="start" x="129.2286" y="-1095.4" font-family="Arial" font-size="14.00" fill="#666666">[text]</text>
<text text-anchor="start" x="159.5736" y="-1095.4" font-family="Arial" font-size="14.00" fill="#000000"> 返品・交換について(特定商取引)</text>
<polygon fill="none" stroke="#000000" points="46,-1054 46,-1084 558,-1084 558,-1054 46,-1054"/>
<text text-anchor="start" x="53" y="-1065.4" font-family="Arial" font-size="14.00" fill="#000000">law_term07 </text>
<text text-anchor="start" x="129.2286" y="-1065.4" font-family="Arial" font-size="14.00" fill="#666666">[text]</text>
<text text-anchor="start" x="159.5736" y="-1065.4" font-family="Arial" font-size="14.00" fill="#000000"> 予備1(特定商取引)</text>
<polygon fill="none" stroke="#000000" points="46,-1024 46,-1054 558,-1054 558,-1024 46,-1024"/>
<text text-anchor="start" x="53" y="-1035.4" font-family="Arial" font-size="14.00" fill="#000000">law_term08 </text>
<text text-anchor="start" x="129.2286" y="-1035.4" font-family="Arial" font-size="14.00" fill="#666666">[text]</text>
<text text-anchor="start" x="159.5736" y="-1035.4" font-family="Arial" font-size="14.00" fill="#000000"> 予備2(特定商取引)</text>
<polygon fill="none" stroke="#000000" points="46,-994 46,-1024 558,-1024 558,-994 46,-994"/>
<text text-anchor="start" x="53" y="-1005.4" font-family="Arial" font-size="14.00" fill="#000000">law_term09 </text>
<text text-anchor="start" x="129.2286" y="-1005.4" font-family="Arial" font-size="14.00" fill="#666666">[text]</text>
<text text-anchor="start" x="159.5736" y="-1005.4" font-family="Arial" font-size="14.00" fill="#000000"> 予備3(特定商取引)</text>
<polygon fill="none" stroke="#000000" points="46,-964 46,-994 558,-994 558,-964 46,-964"/>
<text text-anchor="start" x="53" y="-975.4" font-family="Arial" font-size="14.00" fill="#000000">law_term10 </text>
<text text-anchor="start" x="129.2286" y="-975.4" font-family="Arial" font-size="14.00" fill="#666666">[text]</text>
<text text-anchor="start" x="159.5736" y="-975.4" font-family="Arial" font-size="14.00" fill="#000000"> 予備4(特定商取引)</text>
<polygon fill="none" stroke="#000000" points="46,-934 46,-964 558,-964 558,-934 46,-934"/>
<text text-anchor="start" x="53" y="-945.4" font-family="Arial" font-size="14.00" fill="#000000">email01 </text>
<text text-anchor="start" x="105.8948" y="-945.4" font-family="Arial" font-size="14.00" fill="#666666">[text]</text>
<text text-anchor="start" x="136.2398" y="-945.4" font-family="Arial" font-size="14.00" fill="#000000"> 受注情報受付メールアドレス</text>
<polygon fill="none" stroke="#000000" points="46,-904 46,-934 558,-934 558,-904 46,-904"/>
<text text-anchor="start" x="53" y="-915.4" font-family="Arial" font-size="14.00" fill="#000000">email02 </text>
<text text-anchor="start" x="105.8948" y="-915.4" font-family="Arial" font-size="14.00" fill="#666666">[text]</text>
<text text-anchor="start" x="136.2398" y="-915.4" font-family="Arial" font-size="14.00" fill="#000000"> 問い合わせ受付メールアドレス</text>
<polygon fill="none" stroke="#000000" points="46,-874 46,-904 558,-904 558,-874 46,-874"/>
<text text-anchor="start" x="53" y="-885.4" font-family="Arial" font-size="14.00" fill="#000000">email03 </text>
<text text-anchor="start" x="105.8948" y="-885.4" font-family="Arial" font-size="14.00" fill="#666666">[text]</text>
<text text-anchor="start" x="136.2398" y="-885.4" font-family="Arial" font-size="14.00" fill="#000000"> 送信エラー受付メールアドレス</text>
<polygon fill="none" stroke="#000000" points="46,-844 46,-874 558,-874 558,-844 46,-844"/>
<text text-anchor="start" x="53" y="-855.4" font-family="Arial" font-size="14.00" fill="#000000">email04 </text>
<text text-anchor="start" x="105.8948" y="-855.4" font-family="Arial" font-size="14.00" fill="#666666">[text]</text>
<text text-anchor="start" x="136.2398" y="-855.4" font-family="Arial" font-size="14.00" fill="#000000"> メール送信元メールアドレス</text>
<polygon fill="none" stroke="#000000" points="46,-814 46,-844 558,-844 558,-814 46,-814"/>
<text text-anchor="start" x="53" y="-825.4" font-family="Arial" font-size="14.00" fill="#000000">free_rule </text>
<text text-anchor="start" x="112.122" y="-825.4" font-family="Arial" font-size="14.00" fill="#666666">[numeric]</text>
<text text-anchor="start" x="169.6788" y="-825.4" font-family="Arial" font-size="14.00" fill="#000000"> 送料・手数料無料条件(円以上)</text>
<polygon fill="none" stroke="#000000" points="46,-784 46,-814 558,-814 558,-784 46,-784"/>
<text text-anchor="start" x="53" y="-795.4" font-family="Arial" font-size="14.00" fill="#000000">shop_name </text>
<text text-anchor="start" x="130.0294" y="-795.4" font-family="Arial" font-size="14.00" fill="#666666">[text]</text>
<text text-anchor="start" x="160.3744" y="-795.4" font-family="Arial" font-size="14.00" fill="#000000"> 店舗名</text>
<polygon fill="none" stroke="#000000" points="46,-754 46,-784 558,-784 558,-754 46,-754"/>
<text text-anchor="start" x="53" y="-765.4" font-family="Arial" font-size="14.00" fill="#000000">shop_kana </text>
<text text-anchor="start" x="125.3688" y="-765.4" font-family="Arial" font-size="14.00" fill="#666666">[text]</text>
<text text-anchor="start" x="155.7138" y="-765.4" font-family="Arial" font-size="14.00" fill="#000000"> 店舗名(カナ)</text>
<polygon fill="none" stroke="#000000" points="46,-724 46,-754 558,-754 558,-724 46,-724"/>
<text text-anchor="start" x="53" y="-735.4" font-family="Arial" font-size="14.00" fill="#000000">shop_name_eng </text>
<text text-anchor="start" x="161.1598" y="-735.4" font-family="Arial" font-size="14.00" fill="#666666">[text]</text>
<text text-anchor="start" x="191.5048" y="-735.4" font-family="Arial" font-size="14.00" fill="#000000"> 店舗名(英語）</text>
<polygon fill="none" stroke="#000000" points="46,-694 46,-724 558,-724 558,-694 46,-694"/>
<text text-anchor="start" x="53" y="-705.4" font-family="Arial" font-size="14.00" fill="#000000">point_rate </text>
<text text-anchor="start" x="119.1346" y="-705.4" font-family="Arial" font-size="14.00" fill="#666666">[numeric]</text>
<text text-anchor="start" x="176.6914" y="-705.4" font-family="Arial" font-size="14.00" fill="#000000"> ポイント付与率</text>
<polygon fill="none" stroke="#000000" points="46,-664 46,-694 558,-694 558,-664 46,-664"/>
<text text-anchor="start" x="53" y="-675.4" font-family="Arial" font-size="14.00" fill="#000000">welcome_point </text>
<text text-anchor="start" x="150.2398" y="-675.4" font-family="Arial" font-size="14.00" fill="#666666">[numeric]</text>
<text text-anchor="start" x="207.7966" y="-675.4" font-family="Arial" font-size="14.00" fill="#000000"> 会員登録時付与ポイント</text>
<polygon fill="none" stroke="#000000" points="46,-634 46,-664 558,-664 558,-634 46,-634"/>
<text text-anchor="start" x="53" y="-645.4" font-family="Arial" font-size="14.00" fill="#000000">update_date </text>
<text text-anchor="start" x="134.7152" y="-645.4" font-family="Arial" font-size="14.00" fill="#666666">[timestamp without time zone]</text>
<text text-anchor="start" x="319.8554" y="-645.4" font-family="Arial" font-size="14.00" fill="#000000"> 更新日時</text>
<polygon fill="none" stroke="#000000" points="46,-604 46,-634 558,-634 558,-604 46,-604"/>
<text text-anchor="start" x="53" y="-615.4" font-family="Arial" font-size="14.00" fill="#000000">top_tpl </text>
<text text-anchor="start" x="98.9088" y="-615.4" font-family="Arial" font-size="14.00" fill="#666666">[text]</text>
<text text-anchor="start" x="129.2538" y="-615.4" font-family="Arial" font-size="14.00" fill="#000000"> トップページテンプレート</text>
<polygon fill="none" stroke="#000000" points="46,-574 46,-604 558,-604 558,-574 46,-574"/>
<text text-anchor="start" x="53" y="-585.4" font-family="Arial" font-size="14.00" fill="#000000">product_tpl </text>
<text text-anchor="start" x="126.1346" y="-585.4" font-family="Arial" font-size="14.00" fill="#666666">[text]</text>
<text text-anchor="start" x="156.4796" y="-585.4" font-family="Arial" font-size="14.00" fill="#000000"> 商品一覧テンプレート</text>
<polygon fill="none" stroke="#000000" points="46,-544 46,-574 558,-574 558,-544 46,-544"/>
<text text-anchor="start" x="53" y="-555.4" font-family="Arial" font-size="14.00" fill="#000000">detail_tpl </text>
<text text-anchor="start" x="112.9046" y="-555.4" font-family="Arial" font-size="14.00" fill="#666666">[text]</text>
<text text-anchor="start" x="143.2496" y="-555.4" font-family="Arial" font-size="14.00" fill="#000000"> 商品詳細テンプレート</text>
<polygon fill="none" stroke="#000000" points="46,-514 46,-544 558,-544 558,-514 46,-514"/>
<text text-anchor="start" x="53" y="-525.4" font-family="Arial" font-size="14.00" fill="#000000">mypage_tpl </text>
<text text-anchor="start" x="129.244" y="-525.4" font-family="Arial" font-size="14.00" fill="#666666">[text]</text>
<text text-anchor="start" x="159.589" y="-525.4" font-family="Arial" font-size="14.00" fill="#000000"> Myページテンプレート</text>
<polygon fill="none" stroke="#000000" points="46,-484 46,-514 558,-514 558,-484 46,-484"/>
<text text-anchor="start" x="53" y="-495.4" font-family="Arial" font-size="14.00" fill="#000000">good_traded </text>
<text text-anchor="start" x="135.4852" y="-495.4" font-family="Arial" font-size="14.00" fill="#666666">[text]</text>
<text text-anchor="start" x="165.8302" y="-495.4" font-family="Arial" font-size="14.00" fill="#000000"> 取扱商品</text>
<polygon fill="none" stroke="#000000" points="46,-454 46,-484 558,-484 558,-454 46,-454"/>
<text text-anchor="start" x="53" y="-465.4" font-family="Arial" font-size="14.00" fill="#000000">message </text>
<text text-anchor="start" x="113.6816" y="-465.4" font-family="Arial" font-size="14.00" fill="#666666">[text]</text>
<text text-anchor="start" x="144.0266" y="-465.4" font-family="Arial" font-size="14.00" fill="#000000"> メッセージ</text>
<polygon fill="none" stroke="#000000" points="46,-424 46,-454 558,-454 558,-424 46,-424"/>
<text text-anchor="start" x="53" y="-435.4" font-family="Arial" font-size="14.00" fill="#000000">regular_holiday_ids </text>
<text text-anchor="start" x="178.2468" y="-435.4" font-family="Arial" font-size="14.00" fill="#666666">[text]</text>
<text text-anchor="start" x="208.5918" y="-435.4" font-family="Arial" font-size="14.00" fill="#000000"> 定休日の曜日</text>
<polygon fill="none" stroke="#000000" points="46,-394 46,-424 558,-424 558,-394 46,-394"/>
<text text-anchor="start" x="53" y="-405.4" font-family="Arial" font-size="14.00" fill="#000000">latitude </text>
<text text-anchor="start" x="102.0154" y="-405.4" font-family="Arial" font-size="14.00" fill="#666666">[text]</text>
<text text-anchor="start" x="132.3604" y="-405.4" font-family="Arial" font-size="14.00" fill="#000000"> 緯度</text>
<polygon fill="none" stroke="#000000" points="46,-364 46,-394 558,-394 558,-364 46,-364"/>
<text text-anchor="start" x="53" y="-375.4" font-family="Arial" font-size="14.00" fill="#000000">longitude </text>
<text text-anchor="start" x="113.69" y="-375.4" font-family="Arial" font-size="14.00" fill="#666666">[text]</text>
<text text-anchor="start" x="144.035" y="-375.4" font-family="Arial" font-size="14.00" fill="#000000"> 経度</text>
<polygon fill="none" stroke="#000000" points="46,-334 46,-364 558,-364 558,-334 46,-334"/>
<text text-anchor="start" x="53" y="-345.4" font-family="Arial" font-size="14.00" fill="#000000">downloadable_days </text>
<text text-anchor="start" x="180.6016" y="-345.4" font-family="Arial" font-size="14.00" fill="#666666">[numeric]</text>
<text text-anchor="start" x="238.1584" y="-345.4" font-family="Arial" font-size="14.00" fill="#000000"> ダウンロード可能日数</text>
<polygon fill="none" stroke="#000000" points="46,-304 46,-334 558,-334 558,-304 46,-304"/>
<text text-anchor="start" x="52.6607" y="-315.4" font-family="Arial" font-size="14.00" fill="#000000">downloadable_days_unlimited </text>
<text text-anchor="start" x="244.0463" y="-315.4" font-family="Arial" font-size="14.00" fill="#666666">[smallint]</text>
<text text-anchor="start" x="299.2637" y="-315.4" font-family="Arial" font-size="14.00" fill="#000000"> ダウンロード可能日数無制限フラグ</text>
<polygon fill="none" stroke="#000000" stroke-width="3" points="44.5,-302.5 44.5,-2331.5 559.5,-2331.5 559.5,-302.5 44.5,-302.5"/>
</g>
<!-- public.mtb_country -->
<g id="node2" class="node">
<title>public.mtb_country</title>
<polygon fill="#efefef" stroke="transparent" points="171,-133 171,-179 433,-179 433,-133 171,-133"/>
<polygon fill="none" stroke="#000000" points="171,-133 171,-179 433,-179 433,-133 171,-133"/>
<text text-anchor="start" x="177.8586" y="-156.8" font-family="Arial Bold" font-size="18.00" fill="#000000">public.mtb_country</text>
<text text-anchor="start" x="328.8876" y="-156.8" font-family="Arial" font-size="14.00" fill="#000000"> </text>
<text text-anchor="start" x="332.7782" y="-156.8" font-family="Arial" font-size="14.00" fill="#666666">[BASE TABLE]</text>
<text text-anchor="start" x="242.3747" y="-142.4" font-family="Arial" font-size="14.00" fill="#333333">【2.13】国マスタ</text>
<polygon fill="none" stroke="#000000" points="171,-103 171,-133 433,-133 433,-103 171,-103"/>
<text text-anchor="start" x="178" y="-114.4" font-family="Arial" font-size="14.00" fill="#000000">id </text>
<text text-anchor="start" x="192.7798" y="-114.4" font-family="Arial" font-size="14.00" fill="#666666">[integer]</text>
<text text-anchor="start" x="243.3492" y="-114.4" font-family="Arial" font-size="14.00" fill="#000000"> ID</text>
<polygon fill="none" stroke="#000000" points="171,-73 171,-103 433,-103 433,-73 171,-73"/>
<text text-anchor="start" x="178" y="-84.4" font-family="Arial" font-size="14.00" fill="#000000">name </text>
<text text-anchor="start" x="216.899" y="-84.4" font-family="Arial" font-size="14.00" fill="#666666">[text]</text>
<text text-anchor="start" x="247.244" y="-84.4" font-family="Arial" font-size="14.00" fill="#000000"> 名称</text>
<polygon fill="none" stroke="#000000" points="171,-43 171,-73 433,-73 433,-43 171,-43"/>
<text text-anchor="start" x="178" y="-54.4" font-family="Arial" font-size="14.00" fill="#000000">rank </text>
<text text-anchor="start" x="209.1164" y="-54.4" font-family="Arial" font-size="14.00" fill="#666666">[integer]</text>
<text text-anchor="start" x="259.6858" y="-54.4" font-family="Arial" font-size="14.00" fill="#000000"> 表示順</text>
</g>
<!-- public.dtb_baseinfo&#45;&gt;public.mtb_country -->
<g id="edge1" class="edge">
<title>public.dtb_baseinfo:country_id&#45;&gt;public.mtb_country:id</title>
<path fill="none" stroke="#000000" stroke-dasharray="5,2" d="M568.009,-2088.6944C961.6994,-2064.4174 771.0807,-600.6632 558,-258 538.8971,-227.2799 510.6499,-247.5093 485,-222 448.3579,-185.5587 484.678,-118 433,-118"/>
<polygon fill="#000000" stroke="#000000" points="567.9953,-2088.6948 557.8626,-2084.5021 562.9977,-2088.8474 558,-2089 558,-2089 558,-2089 562.9977,-2088.8474 558.1374,-2093.4979 567.9953,-2088.6948 567.9953,-2088.6948"/>
<text text-anchor="start" x="565.3245" y="-2099" font-family="Arial" font-size="10.00" fill="#000000">Additional Relation</text>
</g>
<!-- public.dtb_baseinfo&#45;&gt;public.mtb_country -->
<g id="edge3" class="edge">
<title>public.dtb_baseinfo:law_country_id&#45;&gt;public.mtb_country:id</title>
<path fill="none" stroke="#000000" stroke-dasharray="5,2" d="M568.3733,-1608.5516C854.8992,-1583.4268 714.6793,-509.962 558,-258 538.8971,-227.2799 510.6499,-247.5093 485,-222 448.3579,-185.5587 484.678,-118 433,-118"/>
<polygon fill="#000000" stroke="#000000" points="567.9907,-1608.568 557.8056,-1604.5042 562.9953,-1608.784 558,-1609 558,-1609 558,-1609 562.9953,-1608.784 558.1944,-1613.4958 567.9907,-1608.568 567.9907,-1608.568"/>
<text text-anchor="start" x="565.3245" y="-1619" font-family="Arial" font-size="10.00" fill="#000000">Additional Relation</text>
</g>
<!-- public.mtb_pref -->
<g id="node3" class="node">
<title>public.mtb_pref</title>
<polygon fill="#efefef" stroke="transparent" points="537,-133 537,-179 771,-179 771,-133 537,-133"/>
<polygon fill="none" stroke="#000000" points="537,-133 537,-179 771,-179 771,-133 537,-133"/>
<text text-anchor="start" x="543.8617" y="-156.8" font-family="Arial Bold" font-size="18.00" fill="#000000">public.mtb_pref</text>
<text text-anchor="start" x="666.8845" y="-156.8" font-family="Arial" font-size="14.00" fill="#000000"> </text>
<text text-anchor="start" x="670.7751" y="-156.8" font-family="Arial" font-size="14.00" fill="#666666">[BASE TABLE]</text>
<text text-anchor="start" x="596.061" y="-142.4" font-family="Arial" font-size="14.00" fill="#333333">都道府県マスタ</text>
<polygon fill="none" stroke="#000000" points="537,-103 537,-133 771,-133 771,-103 537,-103"/>
<text text-anchor="start" x="544" y="-114.4" font-family="Arial" font-size="14.00" fill="#000000">id </text>
<text text-anchor="start" x="558.7798" y="-114.4" font-family="Arial" font-size="14.00" fill="#666666">[smallint]</text>
<text text-anchor="start" x="613.9972" y="-114.4" font-family="Arial" font-size="14.00" fill="#000000"> ID</text>
<polygon fill="none" stroke="#000000" points="537,-73 537,-103 771,-103 771,-73 537,-73"/>
<text text-anchor="start" x="544" y="-84.4" font-family="Arial" font-size="14.00" fill="#000000">name </text>
<text text-anchor="start" x="582.899" y="-84.4" font-family="Arial" font-size="14.00" fill="#666666">[text]</text>
<text text-anchor="start" x="613.244" y="-84.4" font-family="Arial" font-size="14.00" fill="#000000"> 名称</text>
<polygon fill="none" stroke="#000000" points="537,-43 537,-73 771,-73 771,-43 537,-43"/>
<text text-anchor="start" x="544" y="-54.4" font-family="Arial" font-size="14.00" fill="#000000">rank </text>
<text text-anchor="start" x="575.1164" y="-54.4" font-family="Arial" font-size="14.00" fill="#666666">[smallint]</text>
<text text-anchor="start" x="630.3338" y="-54.4" font-family="Arial" font-size="14.00" fill="#000000"> 表示順</text>
</g>
<!-- public.dtb_baseinfo&#45;&gt;public.mtb_pref -->
<g id="edge2" class="edge">
<title>public.dtb_baseinfo:pref&#45;&gt;public.mtb_pref:id</title>
<path fill="none" stroke="#000000" stroke-dasharray="5,2" d="M568.1077,-2058.6916C953.1815,-2034.899 661.5575,-641.0509 558,-258 553.1658,-240.1187 541.8342,-239.8813 537,-222 524.9369,-177.3796 490.7778,-118 537,-118"/>
<polygon fill="#000000" stroke="#000000" points="567.9954,-2058.695 557.8627,-2054.5021 562.9977,-2058.8475 558,-2059 558,-2059 558,-2059 562.9977,-2058.8475 558.1373,-2063.4979 567.9954,-2058.695 567.9954,-2058.695"/>
<text text-anchor="start" x="565.3245" y="-2069" font-family="Arial" font-size="10.00" fill="#000000">Additional Relation</text>
</g>
</g>
</svg>
