<?xml version="1.0" encoding="UTF-8" standalone="no"?>
<!DOCTYPE svg PUBLIC "-//W3C//DTD SVG 1.1//EN"
 "http://www.w3.org/Graphics/SVG/1.1/DTD/svg11.dtd">
<!-- Generated by graphviz version 2.40.1 (20161225.0304)
 -->
<!-- Title: public.dtb_order Pages: 1 -->
<svg width="391pt" height="1845pt"
 viewBox="0.00 0.00 391.00 1845.00" xmlns="http://www.w3.org/2000/svg" xmlns:xlink="http://www.w3.org/1999/xlink">
<g id="graph0" class="graph" transform="scale(1 1) rotate(0) translate(4 1841)">
<title>public.dtb_order</title>
<polygon fill="#ffffff" stroke="transparent" points="-4,4 -4,-1841 387,-1841 387,4 -4,4"/>
<!-- public.dtb_order -->
<g id="node1" class="node">
<title>public.dtb_order</title>
<polygon fill="#efefef" stroke="transparent" points="46.5,-1755.5 46.5,-1790.5 337.5,-1790.5 337.5,-1755.5 46.5,-1755.5"/>
<polygon fill="none" stroke="#000000" points="46.5,-1755.5 46.5,-1790.5 337.5,-1790.5 337.5,-1755.5 46.5,-1755.5"/>
<text text-anchor="start" x="78.8566" y="-1768.3" font-family="Arial Bold" font-size="18.00" fill="#000000">public.dtb_order</text>
<text text-anchor="start" x="207.8896" y="-1768.3" font-family="Arial" font-size="14.00" fill="#000000"> </text>
<text text-anchor="start" x="211.7802" y="-1768.3" font-family="Arial" font-size="14.00" fill="#666666">[BASE TABLE]</text>
<polygon fill="none" stroke="#000000" points="46.5,-1725.5 46.5,-1755.5 337.5,-1755.5 337.5,-1725.5 46.5,-1725.5"/>
<text text-anchor="start" x="53.5" y="-1736.9" font-family="Arial" font-size="14.00" fill="#000000">order_id </text>
<text text-anchor="start" x="108.7314" y="-1736.9" font-family="Arial" font-size="14.00" fill="#666666">[integer]</text>
<polygon fill="none" stroke="#000000" points="46.5,-1695.5 46.5,-1725.5 337.5,-1725.5 337.5,-1695.5 46.5,-1695.5"/>
<text text-anchor="start" x="53.5" y="-1706.9" font-family="Arial" font-size="14.00" fill="#000000">order_temp_id </text>
<text text-anchor="start" x="147.6304" y="-1706.9" font-family="Arial" font-size="14.00" fill="#666666">[text]</text>
<polygon fill="none" stroke="#000000" points="46.5,-1665.5 46.5,-1695.5 337.5,-1695.5 337.5,-1665.5 46.5,-1665.5"/>
<text text-anchor="start" x="53.5" y="-1676.9" font-family="Arial" font-size="14.00" fill="#000000">customer_id </text>
<text text-anchor="start" x="133.622" y="-1676.9" font-family="Arial" font-size="14.00" fill="#666666">[integer]</text>
<polygon fill="none" stroke="#000000" points="46.5,-1635.5 46.5,-1665.5 337.5,-1665.5 337.5,-1635.5 46.5,-1635.5"/>
<text text-anchor="start" x="53.5" y="-1646.9" font-family="Arial" font-size="14.00" fill="#000000">message </text>
<text text-anchor="start" x="114.1816" y="-1646.9" font-family="Arial" font-size="14.00" fill="#666666">[text]</text>
<polygon fill="none" stroke="#000000" points="46.5,-1605.5 46.5,-1635.5 337.5,-1635.5 337.5,-1605.5 46.5,-1605.5"/>
<text text-anchor="start" x="53.5" y="-1616.9" font-family="Arial" font-size="14.00" fill="#000000">order_name01 </text>
<text text-anchor="start" x="148.4158" y="-1616.9" font-family="Arial" font-size="14.00" fill="#666666">[text]</text>
<polygon fill="none" stroke="#000000" points="46.5,-1575.5 46.5,-1605.5 337.5,-1605.5 337.5,-1575.5 46.5,-1575.5"/>
<text text-anchor="start" x="53.5" y="-1586.9" font-family="Arial" font-size="14.00" fill="#000000">order_name02 </text>
<text text-anchor="start" x="148.4158" y="-1586.9" font-family="Arial" font-size="14.00" fill="#666666">[text]</text>
<polygon fill="none" stroke="#000000" points="46.5,-1545.5 46.5,-1575.5 337.5,-1575.5 337.5,-1545.5 46.5,-1545.5"/>
<text text-anchor="start" x="53.5" y="-1556.9" font-family="Arial" font-size="14.00" fill="#000000">order_kana01 </text>
<text text-anchor="start" x="143.7552" y="-1556.9" font-family="Arial" font-size="14.00" fill="#666666">[text]</text>
<polygon fill="none" stroke="#000000" points="46.5,-1515.5 46.5,-1545.5 337.5,-1545.5 337.5,-1515.5 46.5,-1515.5"/>
<text text-anchor="start" x="53.5" y="-1526.9" font-family="Arial" font-size="14.00" fill="#000000">order_kana02 </text>
<text text-anchor="start" x="143.7552" y="-1526.9" font-family="Arial" font-size="14.00" fill="#666666">[text]</text>
<polygon fill="none" stroke="#000000" points="46.5,-1485.5 46.5,-1515.5 337.5,-1515.5 337.5,-1485.5 46.5,-1485.5"/>
<text text-anchor="start" x="53.5" y="-1496.9" font-family="Arial" font-size="14.00" fill="#000000">order_company_name </text>
<text text-anchor="start" x="197.4242" y="-1496.9" font-family="Arial" font-size="14.00" fill="#666666">[text]</text>
<polygon fill="none" stroke="#000000" points="46.5,-1455.5 46.5,-1485.5 337.5,-1485.5 337.5,-1455.5 46.5,-1455.5"/>
<text text-anchor="start" x="53.5" y="-1466.9" font-family="Arial" font-size="14.00" fill="#000000">order_email </text>
<text text-anchor="start" x="131.2812" y="-1466.9" font-family="Arial" font-size="14.00" fill="#666666">[text]</text>
<polygon fill="none" stroke="#000000" points="46.5,-1425.5 46.5,-1455.5 337.5,-1455.5 337.5,-1425.5 46.5,-1425.5"/>
<text text-anchor="start" x="53.5" y="-1436.9" font-family="Arial" font-size="14.00" fill="#000000">order_tel01 </text>
<text text-anchor="start" x="128.1872" y="-1436.9" font-family="Arial" font-size="14.00" fill="#666666">[text]</text>
<polygon fill="none" stroke="#000000" points="46.5,-1395.5 46.5,-1425.5 337.5,-1425.5 337.5,-1395.5 46.5,-1395.5"/>
<text text-anchor="start" x="53.5" y="-1406.9" font-family="Arial" font-size="14.00" fill="#000000">order_tel02 </text>
<text text-anchor="start" x="128.1872" y="-1406.9" font-family="Arial" font-size="14.00" fill="#666666">[text]</text>
<polygon fill="none" stroke="#000000" points="46.5,-1365.5 46.5,-1395.5 337.5,-1395.5 337.5,-1365.5 46.5,-1365.5"/>
<text text-anchor="start" x="53.5" y="-1376.9" font-family="Arial" font-size="14.00" fill="#000000">order_tel03 </text>
<text text-anchor="start" x="128.1872" y="-1376.9" font-family="Arial" font-size="14.00" fill="#666666">[text]</text>
<polygon fill="none" stroke="#000000" points="46.5,-1335.5 46.5,-1365.5 337.5,-1365.5 337.5,-1335.5 46.5,-1335.5"/>
<text text-anchor="start" x="53.5" y="-1346.9" font-family="Arial" font-size="14.00" fill="#000000">order_fax01 </text>
<text text-anchor="start" x="132.0806" y="-1346.9" font-family="Arial" font-size="14.00" fill="#666666">[text]</text>
<polygon fill="none" stroke="#000000" points="46.5,-1305.5 46.5,-1335.5 337.5,-1335.5 337.5,-1305.5 46.5,-1305.5"/>
<text text-anchor="start" x="53.5" y="-1316.9" font-family="Arial" font-size="14.00" fill="#000000">order_fax02 </text>
<text text-anchor="start" x="132.0806" y="-1316.9" font-family="Arial" font-size="14.00" fill="#666666">[text]</text>
<polygon fill="none" stroke="#000000" points="46.5,-1275.5 46.5,-1305.5 337.5,-1305.5 337.5,-1275.5 46.5,-1275.5"/>
<text text-anchor="start" x="53.5" y="-1286.9" font-family="Arial" font-size="14.00" fill="#000000">order_fax03 </text>
<text text-anchor="start" x="132.0806" y="-1286.9" font-family="Arial" font-size="14.00" fill="#666666">[text]</text>
<polygon fill="none" stroke="#000000" points="46.5,-1245.5 46.5,-1275.5 337.5,-1275.5 337.5,-1245.5 46.5,-1245.5"/>
<text text-anchor="start" x="53.5" y="-1256.9" font-family="Arial" font-size="14.00" fill="#000000">order_zip01 </text>
<text text-anchor="start" x="131.2966" y="-1256.9" font-family="Arial" font-size="14.00" fill="#666666">[text]</text>
<polygon fill="none" stroke="#000000" points="46.5,-1215.5 46.5,-1245.5 337.5,-1245.5 337.5,-1215.5 46.5,-1215.5"/>
<text text-anchor="start" x="53.5" y="-1226.9" font-family="Arial" font-size="14.00" fill="#000000">order_zip02 </text>
<text text-anchor="start" x="131.2966" y="-1226.9" font-family="Arial" font-size="14.00" fill="#666666">[text]</text>
<polygon fill="none" stroke="#000000" points="46.5,-1185.5 46.5,-1215.5 337.5,-1215.5 337.5,-1185.5 46.5,-1185.5"/>
<text text-anchor="start" x="53.5" y="-1196.9" font-family="Arial" font-size="14.00" fill="#000000">order_zipcode </text>
<text text-anchor="start" x="146.0792" y="-1196.9" font-family="Arial" font-size="14.00" fill="#666666">[text]</text>
<polygon fill="none" stroke="#000000" points="46.5,-1155.5 46.5,-1185.5 337.5,-1185.5 337.5,-1155.5 46.5,-1155.5"/>
<text text-anchor="start" x="53.5" y="-1166.9" font-family="Arial" font-size="14.00" fill="#000000">order_country_id </text>
<text text-anchor="start" x="162.413" y="-1166.9" font-family="Arial" font-size="14.00" fill="#666666">[integer]</text>
<polygon fill="none" stroke="#000000" points="46.5,-1125.5 46.5,-1155.5 337.5,-1155.5 337.5,-1125.5 46.5,-1125.5"/>
<text text-anchor="start" x="53.5" y="-1136.9" font-family="Arial" font-size="14.00" fill="#000000">order_pref </text>
<text text-anchor="start" x="121.9586" y="-1136.9" font-family="Arial" font-size="14.00" fill="#666666">[smallint]</text>
<polygon fill="none" stroke="#000000" points="46.5,-1095.5 46.5,-1125.5 337.5,-1125.5 337.5,-1095.5 46.5,-1095.5"/>
<text text-anchor="start" x="53.5" y="-1106.9" font-family="Arial" font-size="14.00" fill="#000000">order_addr01 </text>
<text text-anchor="start" x="141.4158" y="-1106.9" font-family="Arial" font-size="14.00" fill="#666666">[text]</text>
<polygon fill="none" stroke="#000000" points="46.5,-1065.5 46.5,-1095.5 337.5,-1095.5 337.5,-1065.5 46.5,-1065.5"/>
<text text-anchor="start" x="53.5" y="-1076.9" font-family="Arial" font-size="14.00" fill="#000000">order_addr02 </text>
<text text-anchor="start" x="141.4158" y="-1076.9" font-family="Arial" font-size="14.00" fill="#666666">[text]</text>
<polygon fill="none" stroke="#000000" points="46.5,-1035.5 46.5,-1065.5 337.5,-1065.5 337.5,-1035.5 46.5,-1035.5"/>
<text text-anchor="start" x="53.5" y="-1046.9" font-family="Arial" font-size="14.00" fill="#000000">order_sex </text>
<text text-anchor="start" x="119.6248" y="-1046.9" font-family="Arial" font-size="14.00" fill="#666666">[smallint]</text>
<polygon fill="none" stroke="#000000" points="46.5,-1005.5 46.5,-1035.5 337.5,-1035.5 337.5,-1005.5 46.5,-1005.5"/>
<text text-anchor="start" x="53.5" y="-1016.9" font-family="Arial" font-size="14.00" fill="#000000">order_birth </text>
<text text-anchor="start" x="125.0652" y="-1016.9" font-family="Arial" font-size="14.00" fill="#666666">[timestamp without time zone]</text>
<polygon fill="none" stroke="#000000" points="46.5,-975.5 46.5,-1005.5 337.5,-1005.5 337.5,-975.5 46.5,-975.5"/>
<text text-anchor="start" x="53.5" y="-986.9" font-family="Arial" font-size="14.00" fill="#000000">order_job </text>
<text text-anchor="start" x="116.514" y="-986.9" font-family="Arial" font-size="14.00" fill="#666666">[integer]</text>
<polygon fill="none" stroke="#000000" points="46.5,-945.5 46.5,-975.5 337.5,-975.5 337.5,-945.5 46.5,-945.5"/>
<text text-anchor="start" x="53.5" y="-956.9" font-family="Arial" font-size="14.00" fill="#000000">subtotal </text>
<text text-anchor="start" x="106.4088" y="-956.9" font-family="Arial" font-size="14.00" fill="#666666">[numeric]</text>
<polygon fill="none" stroke="#000000" points="46.5,-915.5 46.5,-945.5 337.5,-945.5 337.5,-915.5 46.5,-915.5"/>
<text text-anchor="start" x="53.5" y="-926.9" font-family="Arial" font-size="14.00" fill="#000000">discount </text>
<text text-anchor="start" x="109.5182" y="-926.9" font-family="Arial" font-size="14.00" fill="#666666">[numeric]</text>
<polygon fill="none" stroke="#000000" points="46.5,-885.5 46.5,-915.5 337.5,-915.5 337.5,-885.5 46.5,-885.5"/>
<text text-anchor="start" x="53.5" y="-896.9" font-family="Arial" font-size="14.00" fill="#000000">deliv_id </text>
<text text-anchor="start" x="104.8408" y="-896.9" font-family="Arial" font-size="14.00" fill="#666666">[integer]</text>
<polygon fill="none" stroke="#000000" points="46.5,-855.5 46.5,-885.5 337.5,-885.5 337.5,-855.5 46.5,-855.5"/>
<text text-anchor="start" x="53.5" y="-866.9" font-family="Arial" font-size="14.00" fill="#000000">deliv_fee </text>
<text text-anchor="start" x="113.4074" y="-866.9" font-family="Arial" font-size="14.00" fill="#666666">[numeric]</text>
<polygon fill="none" stroke="#000000" points="46.5,-825.5 46.5,-855.5 337.5,-855.5 337.5,-825.5 46.5,-825.5"/>
<text text-anchor="start" x="53.5" y="-836.9" font-family="Arial" font-size="14.00" fill="#000000">charge </text>
<text text-anchor="start" x="100.1816" y="-836.9" font-family="Arial" font-size="14.00" fill="#666666">[numeric]</text>
<polygon fill="none" stroke="#000000" points="46.5,-795.5 46.5,-825.5 337.5,-825.5 337.5,-795.5 46.5,-795.5"/>
<text text-anchor="start" x="53.5" y="-806.9" font-family="Arial" font-size="14.00" fill="#000000">use_point </text>
<text text-anchor="start" x="118.0834" y="-806.9" font-family="Arial" font-size="14.00" fill="#666666">[numeric]</text>
<polygon fill="none" stroke="#000000" points="46.5,-765.5 46.5,-795.5 337.5,-795.5 337.5,-765.5 46.5,-765.5"/>
<text text-anchor="start" x="53.5" y="-776.9" font-family="Arial" font-size="14.00" fill="#000000">add_point </text>
<text text-anchor="start" x="118.866" y="-776.9" font-family="Arial" font-size="14.00" fill="#666666">[numeric]</text>
<polygon fill="none" stroke="#000000" points="46.5,-735.5 46.5,-765.5 337.5,-765.5 337.5,-735.5 46.5,-735.5"/>
<text text-anchor="start" x="53.5" y="-746.9" font-family="Arial" font-size="14.00" fill="#000000">birth_point </text>
<text text-anchor="start" x="122.7412" y="-746.9" font-family="Arial" font-size="14.00" fill="#666666">[numeric]</text>
<polygon fill="none" stroke="#000000" points="46.5,-705.5 46.5,-735.5 337.5,-735.5 337.5,-705.5 46.5,-705.5"/>
<text text-anchor="start" x="53.5" y="-716.9" font-family="Arial" font-size="14.00" fill="#000000">tax </text>
<text text-anchor="start" x="76.0638" y="-716.9" font-family="Arial" font-size="14.00" fill="#666666">[numeric]</text>
<polygon fill="none" stroke="#000000" points="46.5,-675.5 46.5,-705.5 337.5,-705.5 337.5,-675.5 46.5,-675.5"/>
<text text-anchor="start" x="53.5" y="-686.9" font-family="Arial" font-size="14.00" fill="#000000">total </text>
<text text-anchor="start" x="83.8436" y="-686.9" font-family="Arial" font-size="14.00" fill="#666666">[numeric]</text>
<polygon fill="none" stroke="#000000" points="46.5,-645.5 46.5,-675.5 337.5,-675.5 337.5,-645.5 46.5,-645.5"/>
<text text-anchor="start" x="53.5" y="-656.9" font-family="Arial" font-size="14.00" fill="#000000">payment_total </text>
<text text-anchor="start" x="145.3078" y="-656.9" font-family="Arial" font-size="14.00" fill="#666666">[numeric]</text>
<polygon fill="none" stroke="#000000" points="46.5,-615.5 46.5,-645.5 337.5,-645.5 337.5,-615.5 46.5,-615.5"/>
<text text-anchor="start" x="53.5" y="-626.9" font-family="Arial" font-size="14.00" fill="#000000">payment_id </text>
<text text-anchor="start" x="129.744" y="-626.9" font-family="Arial" font-size="14.00" fill="#666666">[integer]</text>
<polygon fill="none" stroke="#000000" points="46.5,-585.5 46.5,-615.5 337.5,-615.5 337.5,-585.5 46.5,-585.5"/>
<text text-anchor="start" x="53.5" y="-596.9" font-family="Arial" font-size="14.00" fill="#000000">payment_method </text>
<text text-anchor="start" x="165.5364" y="-596.9" font-family="Arial" font-size="14.00" fill="#666666">[text]</text>
<polygon fill="none" stroke="#000000" points="46.5,-555.5 46.5,-585.5 337.5,-585.5 337.5,-555.5 46.5,-555.5"/>
<text text-anchor="start" x="53.5" y="-566.9" font-family="Arial" font-size="14.00" fill="#000000">note </text>
<text text-anchor="start" x="84.629" y="-566.9" font-family="Arial" font-size="14.00" fill="#666666">[text]</text>
<polygon fill="none" stroke="#000000" points="46.5,-525.5 46.5,-555.5 337.5,-555.5 337.5,-525.5 46.5,-525.5"/>
<text text-anchor="start" x="53.5" y="-536.9" font-family="Arial" font-size="14.00" fill="#000000">status </text>
<text text-anchor="start" x="94.737" y="-536.9" font-family="Arial" font-size="14.00" fill="#666666">[smallint]</text>
<polygon fill="none" stroke="#000000" points="46.5,-495.5 46.5,-525.5 337.5,-525.5 337.5,-495.5 46.5,-495.5"/>
<text text-anchor="start" x="53.5" y="-506.9" font-family="Arial" font-size="14.00" fill="#000000">create_date </text>
<text text-anchor="start" x="131.3106" y="-506.9" font-family="Arial" font-size="14.00" fill="#666666">[timestamp without time zone]</text>
<polygon fill="none" stroke="#000000" points="46.5,-465.5 46.5,-495.5 337.5,-495.5 337.5,-465.5 46.5,-465.5"/>
<text text-anchor="start" x="53.5" y="-476.9" font-family="Arial" font-size="14.00" fill="#000000">update_date </text>
<text text-anchor="start" x="135.2152" y="-476.9" font-family="Arial" font-size="14.00" fill="#666666">[timestamp without time zone]</text>
<polygon fill="none" stroke="#000000" points="46.5,-435.5 46.5,-465.5 337.5,-465.5 337.5,-435.5 46.5,-435.5"/>
<text text-anchor="start" x="53.5" y="-446.9" font-family="Arial" font-size="14.00" fill="#000000">commit_date </text>
<text text-anchor="start" x="137.5126" y="-446.9" font-family="Arial" font-size="14.00" fill="#666666">[timestamp without time zone]</text>
<polygon fill="none" stroke="#000000" points="46.5,-405.5 46.5,-435.5 337.5,-435.5 337.5,-405.5 46.5,-405.5"/>
<text text-anchor="start" x="53.1333" y="-416.9" font-family="Arial" font-size="14.00" fill="#000000">payment_date </text>
<text text-anchor="start" x="145.7265" y="-416.9" font-family="Arial" font-size="14.00" fill="#666666">[timestamp without time zone]</text>
<polygon fill="none" stroke="#000000" points="46.5,-375.5 46.5,-405.5 337.5,-405.5 337.5,-375.5 46.5,-375.5"/>
<text text-anchor="start" x="53.5" y="-386.9" font-family="Arial" font-size="14.00" fill="#000000">device_type_id </text>
<text text-anchor="start" x="150.7552" y="-386.9" font-family="Arial" font-size="14.00" fill="#666666">[integer]</text>
<polygon fill="none" stroke="#000000" points="46.5,-345.5 46.5,-375.5 337.5,-375.5 337.5,-345.5 46.5,-345.5"/>
<text text-anchor="start" x="53.5" y="-356.9" font-family="Arial" font-size="14.00" fill="#000000">del_flg </text>
<text text-anchor="start" x="98.6248" y="-356.9" font-family="Arial" font-size="14.00" fill="#666666">[smallint]</text>
<polygon fill="none" stroke="#000000" points="46.5,-315.5 46.5,-345.5 337.5,-345.5 337.5,-315.5 46.5,-315.5"/>
<text text-anchor="start" x="53.5" y="-326.9" font-family="Arial" font-size="14.00" fill="#000000">memo01 </text>
<text text-anchor="start" x="111.8422" y="-326.9" font-family="Arial" font-size="14.00" fill="#666666">[text]</text>
<polygon fill="none" stroke="#000000" points="46.5,-285.5 46.5,-315.5 337.5,-315.5 337.5,-285.5 46.5,-285.5"/>
<text text-anchor="start" x="53.5" y="-296.9" font-family="Arial" font-size="14.00" fill="#000000">memo02 </text>
<text text-anchor="start" x="111.8422" y="-296.9" font-family="Arial" font-size="14.00" fill="#666666">[text]</text>
<polygon fill="none" stroke="#000000" points="46.5,-255.5 46.5,-285.5 337.5,-285.5 337.5,-255.5 46.5,-255.5"/>
<text text-anchor="start" x="53.5" y="-266.9" font-family="Arial" font-size="14.00" fill="#000000">memo03 </text>
<text text-anchor="start" x="111.8422" y="-266.9" font-family="Arial" font-size="14.00" fill="#666666">[text]</text>
<polygon fill="none" stroke="#000000" points="46.5,-225.5 46.5,-255.5 337.5,-255.5 337.5,-225.5 46.5,-225.5"/>
<text text-anchor="start" x="53.5" y="-236.9" font-family="Arial" font-size="14.00" fill="#000000">memo04 </text>
<text text-anchor="start" x="111.8422" y="-236.9" font-family="Arial" font-size="14.00" fill="#666666">[text]</text>
<polygon fill="none" stroke="#000000" points="46.5,-195.5 46.5,-225.5 337.5,-225.5 337.5,-195.5 46.5,-195.5"/>
<text text-anchor="start" x="53.5" y="-206.9" font-family="Arial" font-size="14.00" fill="#000000">memo05 </text>
<text text-anchor="start" x="111.8422" y="-206.9" font-family="Arial" font-size="14.00" fill="#666666">[text]</text>
<polygon fill="none" stroke="#000000" points="46.5,-165.5 46.5,-195.5 337.5,-195.5 337.5,-165.5 46.5,-165.5"/>
<text text-anchor="start" x="53.5" y="-176.9" font-family="Arial" font-size="14.00" fill="#000000">memo06 </text>
<text text-anchor="start" x="111.8422" y="-176.9" font-family="Arial" font-size="14.00" fill="#666666">[text]</text>
<polygon fill="none" stroke="#000000" points="46.5,-135.5 46.5,-165.5 337.5,-165.5 337.5,-135.5 46.5,-135.5"/>
<text text-anchor="start" x="53.5" y="-146.9" font-family="Arial" font-size="14.00" fill="#000000">memo07 </text>
<text text-anchor="start" x="111.8422" y="-146.9" font-family="Arial" font-size="14.00" fill="#666666">[text]</text>
<polygon fill="none" stroke="#000000" points="46.5,-105.5 46.5,-135.5 337.5,-135.5 337.5,-105.5 46.5,-105.5"/>
<text text-anchor="start" x="53.5" y="-116.9" font-family="Arial" font-size="14.00" fill="#000000">memo08 </text>
<text text-anchor="start" x="111.8422" y="-116.9" font-family="Arial" font-size="14.00" fill="#666666">[text]</text>
<polygon fill="none" stroke="#000000" points="46.5,-75.5 46.5,-105.5 337.5,-105.5 337.5,-75.5 46.5,-75.5"/>
<text text-anchor="start" x="53.5" y="-86.9" font-family="Arial" font-size="14.00" fill="#000000">memo09 </text>
<text text-anchor="start" x="111.8422" y="-86.9" font-family="Arial" font-size="14.00" fill="#666666">[text]</text>
<polygon fill="none" stroke="#000000" points="46.5,-45.5 46.5,-75.5 337.5,-75.5 337.5,-45.5 46.5,-45.5"/>
<text text-anchor="start" x="53.5" y="-56.9" font-family="Arial" font-size="14.00" fill="#000000">memo10 </text>
<text text-anchor="start" x="111.8422" y="-56.9" font-family="Arial" font-size="14.00" fill="#666666">[text]</text>
<polygon fill="none" stroke="#000000" stroke-width="3" points="44.5,-44.5 44.5,-1792.5 338.5,-1792.5 338.5,-44.5 44.5,-44.5"/>
</g>
</g>
</svg>
