<?xml version="1.0" encoding="UTF-8" standalone="no"?>
<!DOCTYPE svg PUBLIC "-//W3C//DTD SVG 1.1//EN"
 "http://www.w3.org/Graphics/SVG/1.1/DTD/svg11.dtd">
<!-- Generated by graphviz version 2.40.1 (20161225.0304)
 -->
<!-- Title: public.mtb_product_type Pages: 1 -->
<svg width="886pt" height="974pt"
 viewBox="0.00 0.00 886.00 974.00" xmlns="http://www.w3.org/2000/svg" xmlns:xlink="http://www.w3.org/1999/xlink">
<g id="graph0" class="graph" transform="scale(1 1) rotate(0) translate(4 970)">
<title>public.mtb_product_type</title>
<polygon fill="#ffffff" stroke="transparent" points="-4,4 -4,-970 882,-970 882,4 -4,4"/>
<!-- public.mtb_product_type -->
<g id="node1" class="node">
<title>public.mtb_product_type</title>
<polygon fill="#efefef" stroke="transparent" points="287.5,-136 287.5,-182 594.5,-182 594.5,-136 287.5,-136"/>
<polygon fill="none" stroke="#000000" points="287.5,-136 287.5,-182 594.5,-182 594.5,-136 287.5,-136"/>
<text text-anchor="start" x="294.3451" y="-159.8" font-family="Arial Bold" font-size="18.00" fill="#000000">public.mtb_product_type</text>
<text text-anchor="start" x="490.4011" y="-159.8" font-family="Arial" font-size="14.00" fill="#000000"> </text>
<text text-anchor="start" x="494.2917" y="-159.8" font-family="Arial" font-size="14.00" fill="#666666">[BASE TABLE]</text>
<text text-anchor="start" x="390.054" y="-145.4" font-family="Arial" font-size="14.00" fill="#333333">商品種別マスタ</text>
<polygon fill="none" stroke="#000000" points="287.5,-106 287.5,-136 594.5,-136 594.5,-106 287.5,-106"/>
<text text-anchor="start" x="294.5" y="-117.4" font-family="Arial" font-size="14.00" fill="#000000">id </text>
<text text-anchor="start" x="309.2798" y="-117.4" font-family="Arial" font-size="14.00" fill="#666666">[smallint]</text>
<text text-anchor="start" x="364.4972" y="-117.4" font-family="Arial" font-size="14.00" fill="#000000"> ID</text>
<polygon fill="none" stroke="#000000" points="287.5,-76 287.5,-106 594.5,-106 594.5,-76 287.5,-76"/>
<text text-anchor="start" x="294.5" y="-87.4" font-family="Arial" font-size="14.00" fill="#000000">name </text>
<text text-anchor="start" x="333.399" y="-87.4" font-family="Arial" font-size="14.00" fill="#666666">[text]</text>
<text text-anchor="start" x="363.744" y="-87.4" font-family="Arial" font-size="14.00" fill="#000000"> 名称</text>
<polygon fill="none" stroke="#000000" points="287.5,-46 287.5,-76 594.5,-76 594.5,-46 287.5,-46"/>
<text text-anchor="start" x="294.5" y="-57.4" font-family="Arial" font-size="14.00" fill="#000000">rank </text>
<text text-anchor="start" x="325.6164" y="-57.4" font-family="Arial" font-size="14.00" fill="#666666">[smallint]</text>
<text text-anchor="start" x="380.8338" y="-57.4" font-family="Arial" font-size="14.00" fill="#000000"> 表示順</text>
<polygon fill="none" stroke="#000000" stroke-width="3" points="285.5,-44.5 285.5,-183.5 595.5,-183.5 595.5,-44.5 285.5,-44.5"/>
</g>
<!-- public.dtb_products_class -->
<g id="node2" class="node">
<title>public.dtb_products_class</title>
<polygon fill="#efefef" stroke="transparent" points="43.5,-877 43.5,-923 390.5,-923 390.5,-877 43.5,-877"/>
<polygon fill="none" stroke="#000000" points="43.5,-877 43.5,-923 390.5,-923 390.5,-877 43.5,-877"/>
<text text-anchor="start" x="64.8452" y="-900.8" font-family="Arial Bold" font-size="18.00" fill="#000000">public.dtb_products_class</text>
<text text-anchor="start" x="271.901" y="-900.8" font-family="Arial" font-size="14.00" fill="#000000"> </text>
<text text-anchor="start" x="275.7916" y="-900.8" font-family="Arial" font-size="14.00" fill="#666666">[BASE TABLE]</text>
<text text-anchor="start" x="171.0919" y="-886.4" font-family="Arial" font-size="14.00" fill="#333333">商品規格情報</text>
<polygon fill="none" stroke="#000000" points="43.5,-847 43.5,-877 390.5,-877 390.5,-847 43.5,-847"/>
<text text-anchor="start" x="50.5" y="-858.4" font-family="Arial" font-size="14.00" fill="#000000">product_class_id </text>
<text text-anchor="start" x="159.4158" y="-858.4" font-family="Arial" font-size="14.00" fill="#666666">[integer]</text>
<text text-anchor="start" x="209.9852" y="-858.4" font-family="Arial" font-size="14.00" fill="#000000"> 商品規格ID</text>
<polygon fill="none" stroke="#000000" points="43.5,-817 43.5,-847 390.5,-847 390.5,-817 43.5,-817"/>
<text text-anchor="start" x="50.5" y="-828.4" font-family="Arial" font-size="14.00" fill="#000000">product_id </text>
<text text-anchor="start" x="119.744" y="-828.4" font-family="Arial" font-size="14.00" fill="#666666">[integer]</text>
<text text-anchor="start" x="170.3134" y="-828.4" font-family="Arial" font-size="14.00" fill="#000000"> 商品ID</text>
<polygon fill="none" stroke="#000000" points="43.5,-787 43.5,-817 390.5,-817 390.5,-787 43.5,-787"/>
<text text-anchor="start" x="50.5" y="-798.4" font-family="Arial" font-size="14.00" fill="#000000">classcategory_id1 </text>
<text text-anchor="start" x="166.4158" y="-798.4" font-family="Arial" font-size="14.00" fill="#666666">[integer]</text>
<text text-anchor="start" x="216.9852" y="-798.4" font-family="Arial" font-size="14.00" fill="#000000"> 規格分類ID1</text>
<polygon fill="none" stroke="#000000" points="43.5,-757 43.5,-787 390.5,-787 390.5,-757 43.5,-757"/>
<text text-anchor="start" x="50.5" y="-768.4" font-family="Arial" font-size="14.00" fill="#000000">classcategory_id2 </text>
<text text-anchor="start" x="166.4158" y="-768.4" font-family="Arial" font-size="14.00" fill="#666666">[integer]</text>
<text text-anchor="start" x="216.9852" y="-768.4" font-family="Arial" font-size="14.00" fill="#000000"> 規格分類ID2</text>
<polygon fill="none" stroke="#000000" points="43.5,-727 43.5,-757 390.5,-757 390.5,-727 43.5,-727"/>
<text text-anchor="start" x="50.5" y="-738.4" font-family="Arial" font-size="14.00" fill="#000000">product_type_id </text>
<text text-anchor="start" x="153.9824" y="-738.4" font-family="Arial" font-size="14.00" fill="#666666">[integer]</text>
<text text-anchor="start" x="204.5518" y="-738.4" font-family="Arial" font-size="14.00" fill="#000000"> 商品種別ID</text>
<polygon fill="none" stroke="#000000" points="43.5,-697 43.5,-727 390.5,-727 390.5,-697 43.5,-697"/>
<text text-anchor="start" x="50.5" y="-708.4" font-family="Arial" font-size="14.00" fill="#000000">product_code </text>
<text text-anchor="start" x="139.2026" y="-708.4" font-family="Arial" font-size="14.00" fill="#666666">[text]</text>
<text text-anchor="start" x="169.5476" y="-708.4" font-family="Arial" font-size="14.00" fill="#000000"> 商品コード</text>
<polygon fill="none" stroke="#000000" points="43.5,-667 43.5,-697 390.5,-697 390.5,-667 43.5,-667"/>
<text text-anchor="start" x="50.5" y="-678.4" font-family="Arial" font-size="14.00" fill="#000000">stock </text>
<text text-anchor="start" x="87.0638" y="-678.4" font-family="Arial" font-size="14.00" fill="#666666">[numeric]</text>
<text text-anchor="start" x="144.6206" y="-678.4" font-family="Arial" font-size="14.00" fill="#000000"> 在庫数</text>
<polygon fill="none" stroke="#000000" points="43.5,-637 43.5,-667 390.5,-667 390.5,-637 43.5,-637"/>
<text text-anchor="start" x="50.5" y="-648.4" font-family="Arial" font-size="14.00" fill="#000000">stock_unlimited </text>
<text text-anchor="start" x="150.8478" y="-648.4" font-family="Arial" font-size="14.00" fill="#666666">[smallint]</text>
<text text-anchor="start" x="206.0652" y="-648.4" font-family="Arial" font-size="14.00" fill="#000000"> 在庫制限</text>
<polygon fill="none" stroke="#000000" points="43.5,-607 43.5,-637 390.5,-637 390.5,-607 43.5,-607"/>
<text text-anchor="start" x="50.5" y="-618.4" font-family="Arial" font-size="14.00" fill="#000000">sale_limit </text>
<text text-anchor="start" x="112.716" y="-618.4" font-family="Arial" font-size="14.00" fill="#666666">[numeric]</text>
<text text-anchor="start" x="170.2728" y="-618.4" font-family="Arial" font-size="14.00" fill="#000000"> 販売制限数</text>
<polygon fill="none" stroke="#000000" points="43.5,-577 43.5,-607 390.5,-607 390.5,-577 43.5,-577"/>
<text text-anchor="start" x="50.5" y="-588.4" font-family="Arial" font-size="14.00" fill="#000000">price01 </text>
<text text-anchor="start" x="100.2882" y="-588.4" font-family="Arial" font-size="14.00" fill="#666666">[numeric]</text>
<text text-anchor="start" x="157.845" y="-588.4" font-family="Arial" font-size="14.00" fill="#000000"> 価格</text>
<polygon fill="none" stroke="#000000" points="43.5,-547 43.5,-577 390.5,-577 390.5,-547 43.5,-547"/>
<text text-anchor="start" x="50.5" y="-558.4" font-family="Arial" font-size="14.00" fill="#000000">price02 </text>
<text text-anchor="start" x="100.2882" y="-558.4" font-family="Arial" font-size="14.00" fill="#666666">[numeric]</text>
<text text-anchor="start" x="157.845" y="-558.4" font-family="Arial" font-size="14.00" fill="#000000"> 特別価格</text>
<polygon fill="none" stroke="#000000" points="43.5,-517 43.5,-547 390.5,-547 390.5,-517 43.5,-517"/>
<text text-anchor="start" x="50.5" y="-528.4" font-family="Arial" font-size="14.00" fill="#000000">deliv_fee </text>
<text text-anchor="start" x="110.4074" y="-528.4" font-family="Arial" font-size="14.00" fill="#666666">[numeric]</text>
<text text-anchor="start" x="167.9642" y="-528.4" font-family="Arial" font-size="14.00" fill="#000000"> 商品送料</text>
<polygon fill="none" stroke="#000000" points="43.5,-487 43.5,-517 390.5,-517 390.5,-487 43.5,-487"/>
<text text-anchor="start" x="50.5" y="-498.4" font-family="Arial" font-size="14.00" fill="#000000">point_rate </text>
<text text-anchor="start" x="116.6346" y="-498.4" font-family="Arial" font-size="14.00" fill="#666666">[numeric]</text>
<text text-anchor="start" x="174.1914" y="-498.4" font-family="Arial" font-size="14.00" fill="#000000"> ポイント付与率</text>
<polygon fill="none" stroke="#000000" points="43.5,-457 43.5,-487 390.5,-487 390.5,-457 43.5,-457"/>
<text text-anchor="start" x="50.5" y="-468.4" font-family="Arial" font-size="14.00" fill="#000000">creator_id </text>
<text text-anchor="start" x="116.622" y="-468.4" font-family="Arial" font-size="14.00" fill="#666666">[integer]</text>
<text text-anchor="start" x="167.1914" y="-468.4" font-family="Arial" font-size="14.00" fill="#000000"> 作成者ID</text>
<polygon fill="none" stroke="#000000" points="43.5,-427 43.5,-457 390.5,-457 390.5,-427 43.5,-427"/>
<text text-anchor="start" x="50.5" y="-438.4" font-family="Arial" font-size="14.00" fill="#000000">create_date </text>
<text text-anchor="start" x="128.3106" y="-438.4" font-family="Arial" font-size="14.00" fill="#666666">[timestamp without time zone]</text>
<text text-anchor="start" x="313.4508" y="-438.4" font-family="Arial" font-size="14.00" fill="#000000"> 作成日時</text>
<polygon fill="none" stroke="#000000" points="43.5,-397 43.5,-427 390.5,-427 390.5,-397 43.5,-397"/>
<text text-anchor="start" x="50.5" y="-408.4" font-family="Arial" font-size="14.00" fill="#000000">update_date </text>
<text text-anchor="start" x="132.2152" y="-408.4" font-family="Arial" font-size="14.00" fill="#666666">[timestamp without time zone]</text>
<text text-anchor="start" x="317.3554" y="-408.4" font-family="Arial" font-size="14.00" fill="#000000"> 更新日時</text>
<polygon fill="none" stroke="#000000" points="43.5,-367 43.5,-397 390.5,-397 390.5,-367 43.5,-367"/>
<text text-anchor="start" x="50.5" y="-378.4" font-family="Arial" font-size="14.00" fill="#000000">down_filename </text>
<text text-anchor="start" x="148.5224" y="-378.4" font-family="Arial" font-size="14.00" fill="#666666">[text]</text>
<text text-anchor="start" x="178.8674" y="-378.4" font-family="Arial" font-size="14.00" fill="#000000"> ダウンロードファイル名</text>
<polygon fill="none" stroke="#000000" points="43.5,-337 43.5,-367 390.5,-367 390.5,-337 43.5,-337"/>
<text text-anchor="start" x="50.2936" y="-348.4" font-family="Arial" font-size="14.00" fill="#000000">down_realfilename </text>
<text text-anchor="start" x="171.6484" y="-348.4" font-family="Arial" font-size="14.00" fill="#666666">[text]</text>
<text text-anchor="start" x="201.9934" y="-348.4" font-family="Arial" font-size="14.00" fill="#000000"> ダウンロード実ファイル名</text>
<polygon fill="none" stroke="#000000" points="43.5,-307 43.5,-337 390.5,-337 390.5,-307 43.5,-307"/>
<text text-anchor="start" x="50.5" y="-318.4" font-family="Arial" font-size="14.00" fill="#000000">del_flg </text>
<text text-anchor="start" x="95.6248" y="-318.4" font-family="Arial" font-size="14.00" fill="#666666">[smallint]</text>
<text text-anchor="start" x="150.8422" y="-318.4" font-family="Arial" font-size="14.00" fill="#000000"> 削除フラグ</text>
</g>
<!-- public.dtb_products_class&#45;&gt;public.mtb_product_type -->
<g id="edge1" class="edge">
<title>public.dtb_products_class:product_type_id&#45;&gt;public.mtb_product_type:id</title>
<path fill="none" stroke="#000000" stroke-dasharray="5,2" d="M399.5902,-737.1077C440.7822,-689.1926 419.3203,-304.603 390.5,-264 362.4312,-224.4557 315.5688,-267.5443 287.5,-228 259.974,-189.2205 239.9444,-121 287.5,-121"/>
<polygon fill="#000000" stroke="#000000" points="399.3057,-737.2607 388.3673,-738.0374 394.9028,-739.6304 390.5,-742 390.5,-742 390.5,-742 394.9028,-739.6304 392.6327,-745.9626 399.3057,-737.2607 399.3057,-737.2607"/>
<text text-anchor="start" x="397.8245" y="-752" font-family="Arial" font-size="10.00" fill="#000000">Additional Relation</text>
</g>
<!-- public.dtb_deliv -->
<g id="node3" class="node">
<title>public.dtb_deliv</title>
<polygon fill="#efefef" stroke="transparent" points="494.5,-772 494.5,-818 835.5,-818 835.5,-772 494.5,-772"/>
<polygon fill="none" stroke="#000000" points="494.5,-772 494.5,-818 835.5,-818 835.5,-772 494.5,-772"/>
<text text-anchor="start" x="554.3577" y="-795.8" font-family="Arial Bold" font-size="18.00" fill="#000000">public.dtb_deliv</text>
<text text-anchor="start" x="678.3885" y="-795.8" font-family="Arial" font-size="14.00" fill="#000000"> </text>
<text text-anchor="start" x="682.2791" y="-795.8" font-family="Arial" font-size="14.00" fill="#666666">[BASE TABLE]</text>
<text text-anchor="start" x="616.7616" y="-781.4" font-family="Arial" font-size="14.00" fill="#333333">配送業者情報</text>
<polygon fill="none" stroke="#000000" points="494.5,-742 494.5,-772 835.5,-772 835.5,-742 494.5,-742"/>
<text text-anchor="start" x="501.5" y="-753.4" font-family="Arial" font-size="14.00" fill="#000000">deliv_id </text>
<text text-anchor="start" x="552.8408" y="-753.4" font-family="Arial" font-size="14.00" fill="#666666">[integer]</text>
<text text-anchor="start" x="603.4102" y="-753.4" font-family="Arial" font-size="14.00" fill="#000000"> 配送業者ID</text>
<polygon fill="none" stroke="#000000" points="494.5,-712 494.5,-742 835.5,-742 835.5,-712 494.5,-712"/>
<text text-anchor="start" x="501.5" y="-723.4" font-family="Arial" font-size="14.00" fill="#000000">product_type_id </text>
<text text-anchor="start" x="604.9824" y="-723.4" font-family="Arial" font-size="14.00" fill="#666666">[integer]</text>
<text text-anchor="start" x="655.5518" y="-723.4" font-family="Arial" font-size="14.00" fill="#000000"> 商品種別ID</text>
<polygon fill="none" stroke="#000000" points="494.5,-682 494.5,-712 835.5,-712 835.5,-682 494.5,-682"/>
<text text-anchor="start" x="501.5" y="-693.4" font-family="Arial" font-size="14.00" fill="#000000">name </text>
<text text-anchor="start" x="540.399" y="-693.4" font-family="Arial" font-size="14.00" fill="#666666">[text]</text>
<text text-anchor="start" x="570.744" y="-693.4" font-family="Arial" font-size="14.00" fill="#000000"> 配送業者名</text>
<polygon fill="none" stroke="#000000" points="494.5,-652 494.5,-682 835.5,-682 835.5,-652 494.5,-652"/>
<text text-anchor="start" x="501.5" y="-663.4" font-family="Arial" font-size="14.00" fill="#000000">service_name </text>
<text text-anchor="start" x="592.514" y="-663.4" font-family="Arial" font-size="14.00" fill="#666666">[text]</text>
<text text-anchor="start" x="622.859" y="-663.4" font-family="Arial" font-size="14.00" fill="#000000"> 配送サービス名</text>
<polygon fill="none" stroke="#000000" points="494.5,-622 494.5,-652 835.5,-652 835.5,-622 494.5,-622"/>
<text text-anchor="start" x="501.5" y="-633.4" font-family="Arial" font-size="14.00" fill="#000000">remark </text>
<text text-anchor="start" x="548.9376" y="-633.4" font-family="Arial" font-size="14.00" fill="#666666">[text]</text>
<text text-anchor="start" x="579.2826" y="-633.4" font-family="Arial" font-size="14.00" fill="#000000"> 説明</text>
<polygon fill="none" stroke="#000000" points="494.5,-592 494.5,-622 835.5,-622 835.5,-592 494.5,-592"/>
<text text-anchor="start" x="501.5" y="-603.4" font-family="Arial" font-size="14.00" fill="#000000">confirm_url </text>
<text text-anchor="start" x="574.6066" y="-603.4" font-family="Arial" font-size="14.00" fill="#666666">[text]</text>
<text text-anchor="start" x="604.9516" y="-603.4" font-family="Arial" font-size="14.00" fill="#000000"> 伝票確認URL</text>
<polygon fill="none" stroke="#000000" points="494.5,-562 494.5,-592 835.5,-592 835.5,-562 494.5,-562"/>
<text text-anchor="start" x="501.5" y="-573.4" font-family="Arial" font-size="14.00" fill="#000000">rank </text>
<text text-anchor="start" x="532.6164" y="-573.4" font-family="Arial" font-size="14.00" fill="#666666">[integer]</text>
<text text-anchor="start" x="583.1858" y="-573.4" font-family="Arial" font-size="14.00" fill="#000000"> 表示順</text>
<polygon fill="none" stroke="#000000" points="494.5,-532 494.5,-562 835.5,-562 835.5,-532 494.5,-532"/>
<text text-anchor="start" x="501.5" y="-543.4" font-family="Arial" font-size="14.00" fill="#000000">status </text>
<text text-anchor="start" x="542.737" y="-543.4" font-family="Arial" font-size="14.00" fill="#666666">[smallint]</text>
<text text-anchor="start" x="597.9544" y="-543.4" font-family="Arial" font-size="14.00" fill="#000000"> 状態</text>
<polygon fill="none" stroke="#000000" points="494.5,-502 494.5,-532 835.5,-532 835.5,-502 494.5,-502"/>
<text text-anchor="start" x="501.5" y="-513.4" font-family="Arial" font-size="14.00" fill="#000000">del_flg </text>
<text text-anchor="start" x="546.6248" y="-513.4" font-family="Arial" font-size="14.00" fill="#666666">[smallint]</text>
<text text-anchor="start" x="601.8422" y="-513.4" font-family="Arial" font-size="14.00" fill="#000000"> 削除フラグ</text>
<polygon fill="none" stroke="#000000" points="494.5,-472 494.5,-502 835.5,-502 835.5,-472 494.5,-472"/>
<text text-anchor="start" x="501.5" y="-483.4" font-family="Arial" font-size="14.00" fill="#000000">creator_id </text>
<text text-anchor="start" x="567.622" y="-483.4" font-family="Arial" font-size="14.00" fill="#666666">[integer]</text>
<text text-anchor="start" x="618.1914" y="-483.4" font-family="Arial" font-size="14.00" fill="#000000"> 作成者ID</text>
<polygon fill="none" stroke="#000000" points="494.5,-442 494.5,-472 835.5,-472 835.5,-442 494.5,-442"/>
<text text-anchor="start" x="501.235" y="-453.4" font-family="Arial" font-size="14.00" fill="#000000">create_date </text>
<text text-anchor="start" x="579.0456" y="-453.4" font-family="Arial" font-size="14.00" fill="#666666">[timestamp without time zone]</text>
<text text-anchor="start" x="764.1858" y="-453.4" font-family="Arial" font-size="14.00" fill="#000000"> 作成日時</text>
<polygon fill="none" stroke="#000000" points="494.5,-412 494.5,-442 835.5,-442 835.5,-412 494.5,-412"/>
<text text-anchor="start" x="501.5" y="-423.4" font-family="Arial" font-size="14.00" fill="#000000">update_date </text>
<text text-anchor="start" x="583.2152" y="-423.4" font-family="Arial" font-size="14.00" fill="#666666">[timestamp without time zone]</text>
<text text-anchor="start" x="768.3554" y="-423.4" font-family="Arial" font-size="14.00" fill="#000000"> 更新日時</text>
</g>
<!-- public.dtb_deliv&#45;&gt;public.mtb_product_type -->
<g id="edge2" class="edge">
<title>public.dtb_deliv:product_type_id&#45;&gt;public.mtb_product_type:id</title>
<path fill="none" stroke="#000000" stroke-dasharray="5,2" d="M484.5806,-725.3359C419.8591,-702.0627 471.4338,-441.396 494.5,-369 517.8229,-295.7985 571.1771,-301.2015 594.5,-228 608.9367,-182.6887 642.0556,-121 594.5,-121"/>
<polygon fill="#000000" stroke="#000000" points="484.6378,-725.3454 493.7554,-731.438 489.5689,-726.1727 494.5,-727 494.5,-727 494.5,-727 489.5689,-726.1727 495.2446,-722.562 484.6378,-725.3454 484.6378,-725.3454"/>
<text text-anchor="start" x="404.8245" y="-711" font-family="Arial" font-size="10.00" fill="#000000">Additional Relation</text>
</g>
</g>
</svg>
