<?xml version="1.0" encoding="UTF-8" standalone="no"?>
<!DOCTYPE svg PUBLIC "-//W3C//DTD SVG 1.1//EN"
 "http://www.w3.org/Graphics/SVG/1.1/DTD/svg11.dtd">
<!-- Generated by graphviz version 2.40.1 (20161225.0304)
 -->
<!-- Title: public.mtb_work Pages: 1 -->
<svg width="525pt" height="824pt"
 viewBox="0.00 0.00 524.50 824.00" xmlns="http://www.w3.org/2000/svg" xmlns:xlink="http://www.w3.org/1999/xlink">
<g id="graph0" class="graph" transform="scale(1 1) rotate(0) translate(4 820)">
<title>public.mtb_work</title>
<polygon fill="#ffffff" stroke="transparent" points="-4,4 -4,-820 520.5,-820 520.5,4 -4,4"/>
<!-- public.mtb_work -->
<g id="node1" class="node">
<title>public.mtb_work</title>
<polygon fill="#efefef" stroke="transparent" points="165,-136 165,-182 406,-182 406,-136 165,-136"/>
<polygon fill="none" stroke="#000000" points="165,-136 165,-182 406,-182 406,-136 165,-136"/>
<text text-anchor="start" x="171.8688" y="-159.8" font-family="Arial Bold" font-size="18.00" fill="#000000">public.mtb_work</text>
<text text-anchor="start" x="301.8774" y="-159.8" font-family="Arial" font-size="14.00" fill="#000000"> </text>
<text text-anchor="start" x="305.768" y="-159.8" font-family="Arial" font-size="14.00" fill="#666666">[BASE TABLE]</text>
<text text-anchor="start" x="253.3427" y="-145.4" font-family="Arial" font-size="14.00" fill="#333333">稼動状態</text>
<polygon fill="none" stroke="#000000" points="165,-106 165,-136 406,-136 406,-106 165,-106"/>
<text text-anchor="start" x="172" y="-117.4" font-family="Arial" font-size="14.00" fill="#000000">id </text>
<text text-anchor="start" x="186.7798" y="-117.4" font-family="Arial" font-size="14.00" fill="#666666">[smallint]</text>
<text text-anchor="start" x="241.9972" y="-117.4" font-family="Arial" font-size="14.00" fill="#000000"> ID</text>
<polygon fill="none" stroke="#000000" points="165,-76 165,-106 406,-106 406,-76 165,-76"/>
<text text-anchor="start" x="172" y="-87.4" font-family="Arial" font-size="14.00" fill="#000000">name </text>
<text text-anchor="start" x="210.899" y="-87.4" font-family="Arial" font-size="14.00" fill="#666666">[text]</text>
<text text-anchor="start" x="241.244" y="-87.4" font-family="Arial" font-size="14.00" fill="#000000"> 名称</text>
<polygon fill="none" stroke="#000000" points="165,-46 165,-76 406,-76 406,-46 165,-46"/>
<text text-anchor="start" x="172" y="-57.4" font-family="Arial" font-size="14.00" fill="#000000">rank </text>
<text text-anchor="start" x="203.1164" y="-57.4" font-family="Arial" font-size="14.00" fill="#666666">[smallint]</text>
<text text-anchor="start" x="258.3338" y="-57.4" font-family="Arial" font-size="14.00" fill="#000000"> 表示順</text>
<polygon fill="none" stroke="#000000" stroke-width="3" points="163,-44.5 163,-183.5 407,-183.5 407,-44.5 163,-44.5"/>
</g>
<!-- public.dtb_member -->
<g id="node2" class="node">
<title>public.dtb_member</title>
<polygon fill="#efefef" stroke="transparent" points="97,-727 97,-773 474,-773 474,-727 97,-727"/>
<polygon fill="none" stroke="#000000" points="97,-727 97,-773 474,-773 474,-727 97,-727"/>
<text text-anchor="start" x="160.3605" y="-750.8" font-family="Arial Bold" font-size="18.00" fill="#000000">public.dtb_member</text>
<text text-anchor="start" x="313.3857" y="-750.8" font-family="Arial" font-size="14.00" fill="#000000"> </text>
<text text-anchor="start" x="317.2763" y="-750.8" font-family="Arial" font-size="14.00" fill="#666666">[BASE TABLE]</text>
<text text-anchor="start" x="205.9016" y="-736.4" font-family="Arial" font-size="14.00" fill="#333333">管理画面メンバー情報</text>
<polygon fill="none" stroke="#000000" points="97,-697 97,-727 474,-727 474,-697 97,-697"/>
<text text-anchor="start" x="104" y="-708.4" font-family="Arial" font-size="14.00" fill="#000000">member_id </text>
<text text-anchor="start" x="177.892" y="-708.4" font-family="Arial" font-size="14.00" fill="#666666">[integer]</text>
<text text-anchor="start" x="228.4614" y="-708.4" font-family="Arial" font-size="14.00" fill="#000000"> メンバーID</text>
<polygon fill="none" stroke="#000000" points="97,-667 97,-697 474,-697 474,-667 97,-667"/>
<text text-anchor="start" x="104" y="-678.4" font-family="Arial" font-size="14.00" fill="#000000">name </text>
<text text-anchor="start" x="142.899" y="-678.4" font-family="Arial" font-size="14.00" fill="#666666">[text]</text>
<text text-anchor="start" x="173.244" y="-678.4" font-family="Arial" font-size="14.00" fill="#000000"> 名前</text>
<polygon fill="none" stroke="#000000" points="97,-637 97,-667 474,-667 474,-637 97,-637"/>
<text text-anchor="start" x="104" y="-648.4" font-family="Arial" font-size="14.00" fill="#000000">department </text>
<text text-anchor="start" x="178.6886" y="-648.4" font-family="Arial" font-size="14.00" fill="#666666">[text]</text>
<text text-anchor="start" x="209.0336" y="-648.4" font-family="Arial" font-size="14.00" fill="#000000"> 部門</text>
<polygon fill="none" stroke="#000000" points="97,-607 97,-637 474,-637 474,-607 97,-607"/>
<text text-anchor="start" x="104" y="-618.4" font-family="Arial" font-size="14.00" fill="#000000">login_id </text>
<text text-anchor="start" x="156.1234" y="-618.4" font-family="Arial" font-size="14.00" fill="#666666">[text]</text>
<text text-anchor="start" x="186.4684" y="-618.4" font-family="Arial" font-size="14.00" fill="#000000"> ログインID</text>
<polygon fill="none" stroke="#000000" points="97,-577 97,-607 474,-607 474,-577 97,-577"/>
<text text-anchor="start" x="104" y="-588.4" font-family="Arial" font-size="14.00" fill="#000000">password </text>
<text text-anchor="start" x="167.7882" y="-588.4" font-family="Arial" font-size="14.00" fill="#666666">[text]</text>
<text text-anchor="start" x="198.1332" y="-588.4" font-family="Arial" font-size="14.00" fill="#000000"> パスワード</text>
<polygon fill="none" stroke="#000000" points="97,-547 97,-577 474,-577 474,-547 97,-547"/>
<text text-anchor="start" x="104" y="-558.4" font-family="Arial" font-size="14.00" fill="#000000">salt </text>
<text text-anchor="start" x="129.6704" y="-558.4" font-family="Arial" font-size="14.00" fill="#666666">[text]</text>
<text text-anchor="start" x="160.0154" y="-558.4" font-family="Arial" font-size="14.00" fill="#000000"> 暗号化付与文字列</text>
<polygon fill="none" stroke="#000000" points="97,-517 97,-547 474,-547 474,-517 97,-517"/>
<text text-anchor="start" x="104" y="-528.4" font-family="Arial" font-size="14.00" fill="#000000">authority </text>
<text text-anchor="start" x="161.5694" y="-528.4" font-family="Arial" font-size="14.00" fill="#666666">[smallint]</text>
<text text-anchor="start" x="216.7868" y="-528.4" font-family="Arial" font-size="14.00" fill="#000000"> 権限</text>
<polygon fill="none" stroke="#000000" points="97,-487 97,-517 474,-517 474,-487 97,-487"/>
<text text-anchor="start" x="104" y="-498.4" font-family="Arial" font-size="14.00" fill="#000000">rank </text>
<text text-anchor="start" x="135.1164" y="-498.4" font-family="Arial" font-size="14.00" fill="#666666">[integer]</text>
<text text-anchor="start" x="185.6858" y="-498.4" font-family="Arial" font-size="14.00" fill="#000000"> 表示順</text>
<polygon fill="none" stroke="#000000" points="97,-457 97,-487 474,-487 474,-457 97,-457"/>
<text text-anchor="start" x="104" y="-468.4" font-family="Arial" font-size="14.00" fill="#000000">work </text>
<text text-anchor="start" x="137.4404" y="-468.4" font-family="Arial" font-size="14.00" fill="#666666">[smallint]</text>
<text text-anchor="start" x="192.6578" y="-468.4" font-family="Arial" font-size="14.00" fill="#000000"> 稼動フラグ</text>
<polygon fill="none" stroke="#000000" points="97,-427 97,-457 474,-457 474,-427 97,-427"/>
<text text-anchor="start" x="104" y="-438.4" font-family="Arial" font-size="14.00" fill="#000000">del_flg </text>
<text text-anchor="start" x="149.1248" y="-438.4" font-family="Arial" font-size="14.00" fill="#666666">[smallint]</text>
<text text-anchor="start" x="204.3422" y="-438.4" font-family="Arial" font-size="14.00" fill="#000000"> 削除フラグ</text>
<polygon fill="none" stroke="#000000" points="97,-397 97,-427 474,-427 474,-397 97,-397"/>
<text text-anchor="start" x="104" y="-408.4" font-family="Arial" font-size="14.00" fill="#000000">creator_id </text>
<text text-anchor="start" x="170.122" y="-408.4" font-family="Arial" font-size="14.00" fill="#666666">[integer]</text>
<text text-anchor="start" x="220.6914" y="-408.4" font-family="Arial" font-size="14.00" fill="#000000"> 作成者ID</text>
<polygon fill="none" stroke="#000000" points="97,-367 97,-397 474,-397 474,-367 97,-367"/>
<text text-anchor="start" x="104" y="-378.4" font-family="Arial" font-size="14.00" fill="#000000">create_date </text>
<text text-anchor="start" x="181.8106" y="-378.4" font-family="Arial" font-size="14.00" fill="#666666">[timestamp without time zone]</text>
<text text-anchor="start" x="366.9508" y="-378.4" font-family="Arial" font-size="14.00" fill="#000000"> 作成日時</text>
<polygon fill="none" stroke="#000000" points="97,-337 97,-367 474,-367 474,-337 97,-337"/>
<text text-anchor="start" x="104" y="-348.4" font-family="Arial" font-size="14.00" fill="#000000">update_date </text>
<text text-anchor="start" x="185.7152" y="-348.4" font-family="Arial" font-size="14.00" fill="#666666">[timestamp without time zone]</text>
<text text-anchor="start" x="370.8554" y="-348.4" font-family="Arial" font-size="14.00" fill="#000000"> 更新日付</text>
<polygon fill="none" stroke="#000000" points="97,-307 97,-337 474,-337 474,-307 97,-307"/>
<text text-anchor="start" x="103.9851" y="-318.4" font-family="Arial" font-size="14.00" fill="#000000">login_date </text>
<text text-anchor="start" x="172.4577" y="-318.4" font-family="Arial" font-size="14.00" fill="#666666">[timestamp without time zone]</text>
<text text-anchor="start" x="357.5979" y="-318.4" font-family="Arial" font-size="14.00" fill="#000000"> 最終ログイン日時</text>
</g>
<!-- public.dtb_member&#45;&gt;public.mtb_work -->
<g id="edge1" class="edge">
<title>public.dtb_member:work&#45;&gt;public.mtb_work:id</title>
<path fill="none" stroke="#000000" stroke-dasharray="5,2" d="M87.1732,-469.9387C23.6822,-441.1732 89.1188,-121 165,-121"/>
<polygon fill="#000000" stroke="#000000" points="87.213,-469.947 96.0761,-476.4042 92.1065,-470.9735 97,-472 97,-472 97,-472 92.1065,-470.9735 97.9239,-467.5958 87.213,-469.947 87.213,-469.947"/>
<text text-anchor="start" x="7.3245" y="-482" font-family="Arial" font-size="10.00" fill="#000000">Additional Relation</text>
</g>
</g>
</svg>
