<?xml version="1.0" encoding="UTF-8" standalone="no"?>
<!DOCTYPE svg PUBLIC "-//W3C//DTD SVG 1.1//EN"
 "http://www.w3.org/Graphics/SVG/1.1/DTD/svg11.dtd">
<!-- Generated by graphviz version 2.40.1 (20161225.0304)
 -->
<!-- Title: public.dtb_api_config Pages: 1 -->
<svg width="441pt" height="446pt"
 viewBox="0.00 0.00 441.00 446.00" xmlns="http://www.w3.org/2000/svg" xmlns:xlink="http://www.w3.org/1999/xlink">
<g id="graph0" class="graph" transform="scale(1 1) rotate(0) translate(4 442)">
<title>public.dtb_api_config</title>
<polygon fill="#ffffff" stroke="transparent" points="-4,4 -4,-442 437,-442 437,4 -4,4"/>
<!-- public.dtb_api_config -->
<g id="node1" class="node">
<title>public.dtb_api_config</title>
<polygon fill="#efefef" stroke="transparent" points="46.5,-346 46.5,-392 387.5,-392 387.5,-346 46.5,-346"/>
<polygon fill="none" stroke="#000000" points="46.5,-346 46.5,-392 387.5,-392 387.5,-346 46.5,-346"/>
<text text-anchor="start" x="83.8442" y="-369.8" font-family="Arial Bold" font-size="18.00" fill="#000000">public.dtb_api_config</text>
<text text-anchor="start" x="252.902" y="-369.8" font-family="Arial" font-size="14.00" fill="#000000"> </text>
<text text-anchor="start" x="256.7926" y="-369.8" font-family="Arial" font-size="14.00" fill="#666666">[BASE TABLE]</text>
<text text-anchor="start" x="188.2146" y="-355.4" font-family="Arial" font-size="14.00" fill="#333333">API設定</text>
<polygon fill="none" stroke="#000000" points="46.5,-316 46.5,-346 387.5,-346 387.5,-316 46.5,-316"/>
<text text-anchor="start" x="53.5" y="-327.4" font-family="Arial" font-size="14.00" fill="#000000">api_config_id </text>
<text text-anchor="start" x="139.8618" y="-327.4" font-family="Arial" font-size="14.00" fill="#666666">[integer]</text>
<text text-anchor="start" x="190.4312" y="-327.4" font-family="Arial" font-size="14.00" fill="#000000"> API設定ID</text>
<polygon fill="none" stroke="#000000" points="46.5,-286 46.5,-316 387.5,-316 387.5,-286 46.5,-286"/>
<text text-anchor="start" x="53.5" y="-297.4" font-family="Arial" font-size="14.00" fill="#000000">operation_name </text>
<text text-anchor="start" x="158.535" y="-297.4" font-family="Arial" font-size="14.00" fill="#666666">[text]</text>
<text text-anchor="start" x="188.88" y="-297.4" font-family="Arial" font-size="14.00" fill="#000000"> オペレーション名</text>
<polygon fill="none" stroke="#000000" points="46.5,-256 46.5,-286 387.5,-286 387.5,-256 46.5,-256"/>
<text text-anchor="start" x="53.5" y="-267.4" font-family="Arial" font-size="14.00" fill="#000000">operation_description </text>
<text text-anchor="start" x="191.204" y="-267.4" font-family="Arial" font-size="14.00" fill="#666666">[text]</text>
<text text-anchor="start" x="221.549" y="-267.4" font-family="Arial" font-size="14.00" fill="#000000"> 説明</text>
<polygon fill="none" stroke="#000000" points="46.5,-226 46.5,-256 387.5,-256 387.5,-226 46.5,-226"/>
<text text-anchor="start" x="53.5" y="-237.4" font-family="Arial" font-size="14.00" fill="#000000">auth_types </text>
<text text-anchor="start" x="125.8674" y="-237.4" font-family="Arial" font-size="14.00" fill="#666666">[text]</text>
<text text-anchor="start" x="156.2124" y="-237.4" font-family="Arial" font-size="14.00" fill="#000000"> 認証タイプ</text>
<polygon fill="none" stroke="#000000" points="46.5,-196 46.5,-226 387.5,-226 387.5,-196 46.5,-196"/>
<text text-anchor="start" x="53.5" y="-207.4" font-family="Arial" font-size="14.00" fill="#000000">enable </text>
<text text-anchor="start" x="99.4102" y="-207.4" font-family="Arial" font-size="14.00" fill="#666666">[smallint]</text>
<text text-anchor="start" x="154.6276" y="-207.4" font-family="Arial" font-size="14.00" fill="#000000"> 有効フラグ</text>
<polygon fill="none" stroke="#000000" points="46.5,-166 46.5,-196 387.5,-196 387.5,-166 46.5,-166"/>
<text text-anchor="start" x="53.5" y="-177.4" font-family="Arial" font-size="14.00" fill="#000000">is_log </text>
<text text-anchor="start" x="93.9516" y="-177.4" font-family="Arial" font-size="14.00" fill="#666666">[smallint]</text>
<text text-anchor="start" x="149.169" y="-177.4" font-family="Arial" font-size="14.00" fill="#000000"> ログ出力フラグ</text>
<polygon fill="none" stroke="#000000" points="46.5,-136 46.5,-166 387.5,-166 387.5,-136 46.5,-136"/>
<text text-anchor="start" x="53.5" y="-147.4" font-family="Arial" font-size="14.00" fill="#000000">sub_data </text>
<text text-anchor="start" x="114.9768" y="-147.4" font-family="Arial" font-size="14.00" fill="#666666">[text]</text>
<text text-anchor="start" x="145.3218" y="-147.4" font-family="Arial" font-size="14.00" fill="#000000"> 追加の設定情報</text>
<polygon fill="none" stroke="#000000" points="46.5,-106 46.5,-136 387.5,-136 387.5,-106 46.5,-106"/>
<text text-anchor="start" x="53.5" y="-117.4" font-family="Arial" font-size="14.00" fill="#000000">del_flg </text>
<text text-anchor="start" x="98.6248" y="-117.4" font-family="Arial" font-size="14.00" fill="#666666">[smallint]</text>
<text text-anchor="start" x="153.8422" y="-117.4" font-family="Arial" font-size="14.00" fill="#000000"> 削除フラグ</text>
<polygon fill="none" stroke="#000000" points="46.5,-76 46.5,-106 387.5,-106 387.5,-76 46.5,-76"/>
<text text-anchor="start" x="53.235" y="-87.4" font-family="Arial" font-size="14.00" fill="#000000">create_date </text>
<text text-anchor="start" x="131.0456" y="-87.4" font-family="Arial" font-size="14.00" fill="#666666">[timestamp without time zone]</text>
<text text-anchor="start" x="316.1858" y="-87.4" font-family="Arial" font-size="14.00" fill="#000000"> 作成日時</text>
<polygon fill="none" stroke="#000000" points="46.5,-46 46.5,-76 387.5,-76 387.5,-46 46.5,-46"/>
<text text-anchor="start" x="53.5" y="-57.4" font-family="Arial" font-size="14.00" fill="#000000">update_date </text>
<text text-anchor="start" x="135.2152" y="-57.4" font-family="Arial" font-size="14.00" fill="#666666">[timestamp without time zone]</text>
<text text-anchor="start" x="320.3554" y="-57.4" font-family="Arial" font-size="14.00" fill="#000000"> 更新日時</text>
<polygon fill="none" stroke="#000000" stroke-width="3" points="44.5,-44.5 44.5,-393.5 388.5,-393.5 388.5,-44.5 44.5,-44.5"/>
</g>
</g>
</svg>
