<?xml version="1.0" encoding="UTF-8" standalone="no"?>
<!DOCTYPE svg PUBLIC "-//W3C//DTD SVG 1.1//EN"
 "http://www.w3.org/Graphics/SVG/1.1/DTD/svg11.dtd">
<!-- Generated by graphviz version 2.40.1 (20161225.0304)
 -->
<!-- Title: public.mtb_reminder Pages: 1 -->
<svg width="538pt" height="1634pt"
 viewBox="0.00 0.00 538.00 1634.00" xmlns="http://www.w3.org/2000/svg" xmlns:xlink="http://www.w3.org/1999/xlink">
<g id="graph0" class="graph" transform="scale(1 1) rotate(0) translate(4 1630)">
<title>public.mtb_reminder</title>
<polygon fill="#ffffff" stroke="transparent" points="-4,4 -4,-1630 534,-1630 534,4 -4,4"/>
<!-- public.mtb_reminder -->
<g id="node1" class="node">
<title>public.mtb_reminder</title>
<polygon fill="#efefef" stroke="transparent" points="101,-136 101,-182 375,-182 375,-136 101,-136"/>
<polygon fill="none" stroke="#000000" points="101,-136 101,-182 375,-182 375,-136 101,-136"/>
<text text-anchor="start" x="107.8673" y="-159.8" font-family="Arial Bold" font-size="18.00" fill="#000000">public.mtb_reminder</text>
<text text-anchor="start" x="270.8789" y="-159.8" font-family="Arial" font-size="14.00" fill="#000000"> </text>
<text text-anchor="start" x="274.7695" y="-159.8" font-family="Arial" font-size="14.00" fill="#666666">[BASE TABLE]</text>
<text text-anchor="start" x="160.5016" y="-145.4" font-family="Arial" font-size="14.00" fill="#333333">パスワード質問マスタ</text>
<polygon fill="none" stroke="#000000" points="101,-106 101,-136 375,-136 375,-106 101,-106"/>
<text text-anchor="start" x="108" y="-117.4" font-family="Arial" font-size="14.00" fill="#000000">id </text>
<text text-anchor="start" x="122.7798" y="-117.4" font-family="Arial" font-size="14.00" fill="#666666">[smallint]</text>
<text text-anchor="start" x="177.9972" y="-117.4" font-family="Arial" font-size="14.00" fill="#000000"> ID</text>
<polygon fill="none" stroke="#000000" points="101,-76 101,-106 375,-106 375,-76 101,-76"/>
<text text-anchor="start" x="108" y="-87.4" font-family="Arial" font-size="14.00" fill="#000000">name </text>
<text text-anchor="start" x="146.899" y="-87.4" font-family="Arial" font-size="14.00" fill="#666666">[text]</text>
<text text-anchor="start" x="177.244" y="-87.4" font-family="Arial" font-size="14.00" fill="#000000"> 名称</text>
<polygon fill="none" stroke="#000000" points="101,-46 101,-76 375,-76 375,-46 101,-46"/>
<text text-anchor="start" x="108" y="-57.4" font-family="Arial" font-size="14.00" fill="#000000">rank </text>
<text text-anchor="start" x="139.1164" y="-57.4" font-family="Arial" font-size="14.00" fill="#666666">[smallint]</text>
<text text-anchor="start" x="194.3338" y="-57.4" font-family="Arial" font-size="14.00" fill="#000000"> 表示順</text>
<polygon fill="none" stroke="#000000" stroke-width="3" points="99.5,-44.5 99.5,-183.5 376.5,-183.5 376.5,-44.5 99.5,-44.5"/>
</g>
<!-- public.dtb_customer -->
<g id="node2" class="node">
<title>public.dtb_customer</title>
<polygon fill="#efefef" stroke="transparent" points="43,-1537 43,-1583 433,-1583 433,-1537 43,-1537"/>
<polygon fill="none" stroke="#000000" points="43,-1537 43,-1583 433,-1583 433,-1537 43,-1537"/>
<text text-anchor="start" x="108.8555" y="-1560.8" font-family="Arial Bold" font-size="18.00" fill="#000000">public.dtb_customer</text>
<text text-anchor="start" x="269.8907" y="-1560.8" font-family="Arial" font-size="14.00" fill="#000000"> </text>
<text text-anchor="start" x="273.7813" y="-1560.8" font-family="Arial" font-size="14.00" fill="#666666">[BASE TABLE]</text>
<text text-anchor="start" x="203.3787" y="-1546.4" font-family="Arial" font-size="14.00" fill="#333333">顧客情報</text>
<polygon fill="none" stroke="#000000" points="43,-1507 43,-1537 433,-1537 433,-1507 43,-1507"/>
<text text-anchor="start" x="50" y="-1518.4" font-family="Arial" font-size="14.00" fill="#000000">customer_id </text>
<text text-anchor="start" x="130.122" y="-1518.4" font-family="Arial" font-size="14.00" fill="#666666">[integer]</text>
<text text-anchor="start" x="180.6914" y="-1518.4" font-family="Arial" font-size="14.00" fill="#000000"> 顧客ID</text>
<polygon fill="none" stroke="#000000" points="43,-1477 43,-1507 433,-1507 433,-1477 43,-1477"/>
<text text-anchor="start" x="50" y="-1488.4" font-family="Arial" font-size="14.00" fill="#000000">name01 </text>
<text text-anchor="start" x="104.4642" y="-1488.4" font-family="Arial" font-size="14.00" fill="#666666">[text]</text>
<text text-anchor="start" x="134.8092" y="-1488.4" font-family="Arial" font-size="14.00" fill="#000000"> 姓</text>
<polygon fill="none" stroke="#000000" points="43,-1447 43,-1477 433,-1477 433,-1447 43,-1447"/>
<text text-anchor="start" x="50" y="-1458.4" font-family="Arial" font-size="14.00" fill="#000000">name02 </text>
<text text-anchor="start" x="104.4642" y="-1458.4" font-family="Arial" font-size="14.00" fill="#666666">[text]</text>
<text text-anchor="start" x="134.8092" y="-1458.4" font-family="Arial" font-size="14.00" fill="#000000"> 名</text>
<polygon fill="none" stroke="#000000" points="43,-1417 43,-1447 433,-1447 433,-1417 43,-1417"/>
<text text-anchor="start" x="50" y="-1428.4" font-family="Arial" font-size="14.00" fill="#000000">kana01 </text>
<text text-anchor="start" x="99.8036" y="-1428.4" font-family="Arial" font-size="14.00" fill="#666666">[text]</text>
<text text-anchor="start" x="130.1486" y="-1428.4" font-family="Arial" font-size="14.00" fill="#000000"> 姓(カナ)</text>
<polygon fill="none" stroke="#000000" points="43,-1387 43,-1417 433,-1417 433,-1387 43,-1387"/>
<text text-anchor="start" x="50" y="-1398.4" font-family="Arial" font-size="14.00" fill="#000000">kana02 </text>
<text text-anchor="start" x="99.8036" y="-1398.4" font-family="Arial" font-size="14.00" fill="#666666">[text]</text>
<text text-anchor="start" x="130.1486" y="-1398.4" font-family="Arial" font-size="14.00" fill="#000000"> 名(カナ)</text>
<polygon fill="none" stroke="#000000" points="43,-1357 43,-1387 433,-1387 433,-1357 43,-1357"/>
<text text-anchor="start" x="50" y="-1368.4" font-family="Arial" font-size="14.00" fill="#000000">company_name </text>
<text text-anchor="start" x="153.4726" y="-1368.4" font-family="Arial" font-size="14.00" fill="#666666">[text]</text>
<text text-anchor="start" x="183.8176" y="-1368.4" font-family="Arial" font-size="14.00" fill="#000000"> 【2.13】国名</text>
<polygon fill="none" stroke="#000000" points="43,-1327 43,-1357 433,-1357 433,-1327 43,-1327"/>
<text text-anchor="start" x="50" y="-1338.4" font-family="Arial" font-size="14.00" fill="#000000">zip01 </text>
<text text-anchor="start" x="87.345" y="-1338.4" font-family="Arial" font-size="14.00" fill="#666666">[text]</text>
<text text-anchor="start" x="117.69" y="-1338.4" font-family="Arial" font-size="14.00" fill="#000000"> 郵便番号(4桁)</text>
<polygon fill="none" stroke="#000000" points="43,-1297 43,-1327 433,-1327 433,-1297 43,-1297"/>
<text text-anchor="start" x="50" y="-1308.4" font-family="Arial" font-size="14.00" fill="#000000">zip02 </text>
<text text-anchor="start" x="87.345" y="-1308.4" font-family="Arial" font-size="14.00" fill="#666666">[text]</text>
<text text-anchor="start" x="117.69" y="-1308.4" font-family="Arial" font-size="14.00" fill="#000000"> 郵便番号(3桁)</text>
<polygon fill="none" stroke="#000000" points="43,-1267 43,-1297 433,-1297 433,-1267 43,-1267"/>
<text text-anchor="start" x="50" y="-1278.4" font-family="Arial" font-size="14.00" fill="#000000">zipcode </text>
<text text-anchor="start" x="102.1276" y="-1278.4" font-family="Arial" font-size="14.00" fill="#666666">[text]</text>
<text text-anchor="start" x="132.4726" y="-1278.4" font-family="Arial" font-size="14.00" fill="#000000"> 【2.13】郵便番号(海外対応)</text>
<polygon fill="none" stroke="#000000" points="43,-1237 43,-1267 433,-1267 433,-1237 43,-1237"/>
<text text-anchor="start" x="50" y="-1248.4" font-family="Arial" font-size="14.00" fill="#000000">country_id </text>
<text text-anchor="start" x="118.4614" y="-1248.4" font-family="Arial" font-size="14.00" fill="#666666">[integer]</text>
<text text-anchor="start" x="169.0308" y="-1248.4" font-family="Arial" font-size="14.00" fill="#000000"> 【2.13】国ID</text>
<polygon fill="none" stroke="#000000" points="43,-1207 43,-1237 433,-1237 433,-1207 43,-1207"/>
<text text-anchor="start" x="50" y="-1218.4" font-family="Arial" font-size="14.00" fill="#000000">pref </text>
<text text-anchor="start" x="78.007" y="-1218.4" font-family="Arial" font-size="14.00" fill="#666666">[smallint]</text>
<text text-anchor="start" x="133.2244" y="-1218.4" font-family="Arial" font-size="14.00" fill="#000000"> 都道府県</text>
<polygon fill="none" stroke="#000000" points="43,-1177 43,-1207 433,-1207 433,-1177 43,-1177"/>
<text text-anchor="start" x="50" y="-1188.4" font-family="Arial" font-size="14.00" fill="#000000">addr01 </text>
<text text-anchor="start" x="97.4642" y="-1188.4" font-family="Arial" font-size="14.00" fill="#666666">[text]</text>
<text text-anchor="start" x="127.8092" y="-1188.4" font-family="Arial" font-size="14.00" fill="#000000"> 市区町村</text>
<polygon fill="none" stroke="#000000" points="43,-1147 43,-1177 433,-1177 433,-1147 43,-1147"/>
<text text-anchor="start" x="50" y="-1158.4" font-family="Arial" font-size="14.00" fill="#000000">addr02 </text>
<text text-anchor="start" x="97.4642" y="-1158.4" font-family="Arial" font-size="14.00" fill="#666666">[text]</text>
<text text-anchor="start" x="127.8092" y="-1158.4" font-family="Arial" font-size="14.00" fill="#000000"> 番地等</text>
<polygon fill="none" stroke="#000000" points="43,-1117 43,-1147 433,-1147 433,-1117 43,-1117"/>
<text text-anchor="start" x="50" y="-1128.4" font-family="Arial" font-size="14.00" fill="#000000">email </text>
<text text-anchor="start" x="87.3296" y="-1128.4" font-family="Arial" font-size="14.00" fill="#666666">[text]</text>
<text text-anchor="start" x="117.6746" y="-1128.4" font-family="Arial" font-size="14.00" fill="#000000"> メールアドレス</text>
<polygon fill="none" stroke="#000000" points="43,-1087 43,-1117 433,-1117 433,-1087 43,-1087"/>
<text text-anchor="start" x="50" y="-1098.4" font-family="Arial" font-size="14.00" fill="#000000">email_mobile </text>
<text text-anchor="start" x="136.3338" y="-1098.4" font-family="Arial" font-size="14.00" fill="#666666">[text]</text>
<text text-anchor="start" x="166.6788" y="-1098.4" font-family="Arial" font-size="14.00" fill="#000000"> 携帯メールアドレス</text>
<polygon fill="none" stroke="#000000" points="43,-1057 43,-1087 433,-1087 433,-1057 43,-1057"/>
<text text-anchor="start" x="50" y="-1068.4" font-family="Arial" font-size="14.00" fill="#000000">tel01 </text>
<text text-anchor="start" x="84.2356" y="-1068.4" font-family="Arial" font-size="14.00" fill="#666666">[text]</text>
<text text-anchor="start" x="114.5806" y="-1068.4" font-family="Arial" font-size="14.00" fill="#000000"> 電話(市外局番)</text>
<polygon fill="none" stroke="#000000" points="43,-1027 43,-1057 433,-1057 433,-1027 43,-1027"/>
<text text-anchor="start" x="50" y="-1038.4" font-family="Arial" font-size="14.00" fill="#000000">tel02 </text>
<text text-anchor="start" x="84.2356" y="-1038.4" font-family="Arial" font-size="14.00" fill="#666666">[text]</text>
<text text-anchor="start" x="114.5806" y="-1038.4" font-family="Arial" font-size="14.00" fill="#000000"> 電話(市内局番)</text>
<polygon fill="none" stroke="#000000" points="43,-997 43,-1027 433,-1027 433,-997 43,-997"/>
<text text-anchor="start" x="50" y="-1008.4" font-family="Arial" font-size="14.00" fill="#000000">tel03 </text>
<text text-anchor="start" x="84.2356" y="-1008.4" font-family="Arial" font-size="14.00" fill="#666666">[text]</text>
<text text-anchor="start" x="114.5806" y="-1008.4" font-family="Arial" font-size="14.00" fill="#000000"> 電話(局番)</text>
<polygon fill="none" stroke="#000000" points="43,-967 43,-997 433,-997 433,-967 43,-967"/>
<text text-anchor="start" x="50" y="-978.4" font-family="Arial" font-size="14.00" fill="#000000">fax01 </text>
<text text-anchor="start" x="88.129" y="-978.4" font-family="Arial" font-size="14.00" fill="#666666">[text]</text>
<text text-anchor="start" x="118.474" y="-978.4" font-family="Arial" font-size="14.00" fill="#000000"> FAX(市外局番)</text>
<polygon fill="none" stroke="#000000" points="43,-937 43,-967 433,-967 433,-937 43,-937"/>
<text text-anchor="start" x="50" y="-948.4" font-family="Arial" font-size="14.00" fill="#000000">fax02 </text>
<text text-anchor="start" x="88.129" y="-948.4" font-family="Arial" font-size="14.00" fill="#666666">[text]</text>
<text text-anchor="start" x="118.474" y="-948.4" font-family="Arial" font-size="14.00" fill="#000000"> FAX(市内局番)</text>
<polygon fill="none" stroke="#000000" points="43,-907 43,-937 433,-937 433,-907 43,-907"/>
<text text-anchor="start" x="50" y="-918.4" font-family="Arial" font-size="14.00" fill="#000000">fax03 </text>
<text text-anchor="start" x="88.129" y="-918.4" font-family="Arial" font-size="14.00" fill="#666666">[text]</text>
<text text-anchor="start" x="118.474" y="-918.4" font-family="Arial" font-size="14.00" fill="#000000"> FAX(局番)</text>
<polygon fill="none" stroke="#000000" points="43,-877 43,-907 433,-907 433,-877 43,-877"/>
<text text-anchor="start" x="50" y="-888.4" font-family="Arial" font-size="14.00" fill="#000000">sex </text>
<text text-anchor="start" x="75.6732" y="-888.4" font-family="Arial" font-size="14.00" fill="#666666">[smallint]</text>
<text text-anchor="start" x="130.8906" y="-888.4" font-family="Arial" font-size="14.00" fill="#000000"> 性別</text>
<polygon fill="none" stroke="#000000" points="43,-847 43,-877 433,-877 433,-847 43,-847"/>
<text text-anchor="start" x="50" y="-858.4" font-family="Arial" font-size="14.00" fill="#000000">job </text>
<text text-anchor="start" x="72.5624" y="-858.4" font-family="Arial" font-size="14.00" fill="#666666">[smallint]</text>
<text text-anchor="start" x="127.7798" y="-858.4" font-family="Arial" font-size="14.00" fill="#000000"> 職業</text>
<polygon fill="none" stroke="#000000" points="43,-817 43,-847 433,-847 433,-817 43,-817"/>
<text text-anchor="start" x="50" y="-828.4" font-family="Arial" font-size="14.00" fill="#000000">birth </text>
<text text-anchor="start" x="81.1136" y="-828.4" font-family="Arial" font-size="14.00" fill="#666666">[timestamp without time zone]</text>
<text text-anchor="start" x="266.2538" y="-828.4" font-family="Arial" font-size="14.00" fill="#000000"> 生年月日</text>
<polygon fill="none" stroke="#000000" points="43,-787 43,-817 433,-817 433,-787 43,-787"/>
<text text-anchor="start" x="50" y="-798.4" font-family="Arial" font-size="14.00" fill="#000000">password </text>
<text text-anchor="start" x="113.7882" y="-798.4" font-family="Arial" font-size="14.00" fill="#666666">[text]</text>
<text text-anchor="start" x="144.1332" y="-798.4" font-family="Arial" font-size="14.00" fill="#000000"> パスワード</text>
<polygon fill="none" stroke="#000000" points="43,-757 43,-787 433,-787 433,-757 43,-757"/>
<text text-anchor="start" x="50" y="-768.4" font-family="Arial" font-size="14.00" fill="#000000">reminder </text>
<text text-anchor="start" x="109.1094" y="-768.4" font-family="Arial" font-size="14.00" fill="#666666">[smallint]</text>
<text text-anchor="start" x="164.3268" y="-768.4" font-family="Arial" font-size="14.00" fill="#000000"> パスワードの質問</text>
<polygon fill="none" stroke="#000000" points="43,-727 43,-757 433,-757 433,-727 43,-727"/>
<text text-anchor="start" x="50" y="-738.4" font-family="Arial" font-size="14.00" fill="#000000">reminder_answer </text>
<text text-anchor="start" x="162.007" y="-738.4" font-family="Arial" font-size="14.00" fill="#666666">[text]</text>
<text text-anchor="start" x="192.352" y="-738.4" font-family="Arial" font-size="14.00" fill="#000000"> パスワードの質問の答え</text>
<polygon fill="none" stroke="#000000" points="43,-697 43,-727 433,-727 433,-697 43,-697"/>
<text text-anchor="start" x="50" y="-708.4" font-family="Arial" font-size="14.00" fill="#000000">salt </text>
<text text-anchor="start" x="75.6704" y="-708.4" font-family="Arial" font-size="14.00" fill="#666666">[text]</text>
<text text-anchor="start" x="106.0154" y="-708.4" font-family="Arial" font-size="14.00" fill="#000000"> 暗号化付与文字列</text>
<polygon fill="none" stroke="#000000" points="43,-667 43,-697 433,-697 433,-667 43,-667"/>
<text text-anchor="start" x="50" y="-678.4" font-family="Arial" font-size="14.00" fill="#000000">secret_key </text>
<text text-anchor="start" x="121.5722" y="-678.4" font-family="Arial" font-size="14.00" fill="#666666">[text]</text>
<text text-anchor="start" x="151.9172" y="-678.4" font-family="Arial" font-size="14.00" fill="#000000"> 暗号化キー</text>
<polygon fill="none" stroke="#000000" points="43,-637 43,-667 433,-667 433,-637 43,-637"/>
<text text-anchor="start" x="49.7266" y="-648.4" font-family="Arial" font-size="14.00" fill="#000000">first_buy_date </text>
<text text-anchor="start" x="141.5344" y="-648.4" font-family="Arial" font-size="14.00" fill="#666666">[timestamp without time zone]</text>
<text text-anchor="start" x="326.6746" y="-648.4" font-family="Arial" font-size="14.00" fill="#000000"> 初回購入日時</text>
<polygon fill="none" stroke="#000000" points="43,-607 43,-637 433,-637 433,-607 43,-607"/>
<text text-anchor="start" x="50" y="-618.4" font-family="Arial" font-size="14.00" fill="#000000">last_buy_date </text>
<text text-anchor="start" x="141.0392" y="-618.4" font-family="Arial" font-size="14.00" fill="#666666">[timestamp without time zone]</text>
<text text-anchor="start" x="326.1794" y="-618.4" font-family="Arial" font-size="14.00" fill="#000000"> 最終購入日時</text>
<polygon fill="none" stroke="#000000" points="43,-577 43,-607 433,-607 433,-577 43,-577"/>
<text text-anchor="start" x="50" y="-588.4" font-family="Arial" font-size="14.00" fill="#000000">buy_times </text>
<text text-anchor="start" x="117.6788" y="-588.4" font-family="Arial" font-size="14.00" fill="#666666">[numeric]</text>
<text text-anchor="start" x="175.2356" y="-588.4" font-family="Arial" font-size="14.00" fill="#000000"> 購入回数</text>
<polygon fill="none" stroke="#000000" points="43,-547 43,-577 433,-577 433,-547 43,-547"/>
<text text-anchor="start" x="50" y="-558.4" font-family="Arial" font-size="14.00" fill="#000000">buy_total </text>
<text text-anchor="start" x="110.6914" y="-558.4" font-family="Arial" font-size="14.00" fill="#666666">[numeric]</text>
<text text-anchor="start" x="168.2482" y="-558.4" font-family="Arial" font-size="14.00" fill="#000000"> 購入累計金額</text>
<polygon fill="none" stroke="#000000" points="43,-517 43,-547 433,-547 433,-517 43,-517"/>
<text text-anchor="start" x="50" y="-528.4" font-family="Arial" font-size="14.00" fill="#000000">point </text>
<text text-anchor="start" x="84.2356" y="-528.4" font-family="Arial" font-size="14.00" fill="#666666">[numeric]</text>
<text text-anchor="start" x="141.7924" y="-528.4" font-family="Arial" font-size="14.00" fill="#000000"> 保持ポイント</text>
<polygon fill="none" stroke="#000000" points="43,-487 43,-517 433,-517 433,-487 43,-487"/>
<text text-anchor="start" x="50" y="-498.4" font-family="Arial" font-size="14.00" fill="#000000">note </text>
<text text-anchor="start" x="81.129" y="-498.4" font-family="Arial" font-size="14.00" fill="#666666">[text]</text>
<text text-anchor="start" x="111.474" y="-498.4" font-family="Arial" font-size="14.00" fill="#000000"> 備考</text>
<polygon fill="none" stroke="#000000" points="43,-457 43,-487 433,-487 433,-457 43,-457"/>
<text text-anchor="start" x="50" y="-468.4" font-family="Arial" font-size="14.00" fill="#000000">status </text>
<text text-anchor="start" x="91.237" y="-468.4" font-family="Arial" font-size="14.00" fill="#666666">[smallint]</text>
<text text-anchor="start" x="146.4544" y="-468.4" font-family="Arial" font-size="14.00" fill="#000000"> 状態</text>
<polygon fill="none" stroke="#000000" points="43,-427 43,-457 433,-457 433,-427 43,-427"/>
<text text-anchor="start" x="50" y="-438.4" font-family="Arial" font-size="14.00" fill="#000000">create_date </text>
<text text-anchor="start" x="127.8106" y="-438.4" font-family="Arial" font-size="14.00" fill="#666666">[timestamp without time zone]</text>
<text text-anchor="start" x="312.9508" y="-438.4" font-family="Arial" font-size="14.00" fill="#000000"> 作成日時</text>
<polygon fill="none" stroke="#000000" points="43,-397 43,-427 433,-427 433,-397 43,-397"/>
<text text-anchor="start" x="50" y="-408.4" font-family="Arial" font-size="14.00" fill="#000000">update_date </text>
<text text-anchor="start" x="131.7152" y="-408.4" font-family="Arial" font-size="14.00" fill="#666666">[timestamp without time zone]</text>
<text text-anchor="start" x="316.8554" y="-408.4" font-family="Arial" font-size="14.00" fill="#000000"> 更新日時</text>
<polygon fill="none" stroke="#000000" points="43,-367 43,-397 433,-397 433,-367 43,-367"/>
<text text-anchor="start" x="50" y="-378.4" font-family="Arial" font-size="14.00" fill="#000000">del_flg </text>
<text text-anchor="start" x="95.1248" y="-378.4" font-family="Arial" font-size="14.00" fill="#666666">[smallint]</text>
<text text-anchor="start" x="150.3422" y="-378.4" font-family="Arial" font-size="14.00" fill="#000000"> 削除フラグ</text>
<polygon fill="none" stroke="#000000" points="43,-337 43,-367 433,-367 433,-337 43,-337"/>
<text text-anchor="start" x="50" y="-348.4" font-family="Arial" font-size="14.00" fill="#000000">mobile_phone_id </text>
<text text-anchor="start" x="160.4796" y="-348.4" font-family="Arial" font-size="14.00" fill="#666666">[text]</text>
<text text-anchor="start" x="190.8246" y="-348.4" font-family="Arial" font-size="14.00" fill="#000000"> 携帯端末ID</text>
<polygon fill="none" stroke="#000000" points="43,-307 43,-337 433,-337 433,-307 43,-307"/>
<text text-anchor="start" x="50" y="-318.4" font-family="Arial" font-size="14.00" fill="#000000">mailmaga_flg </text>
<text text-anchor="start" x="137.1178" y="-318.4" font-family="Arial" font-size="14.00" fill="#666666">[smallint]</text>
<text text-anchor="start" x="192.3352" y="-318.4" font-family="Arial" font-size="14.00" fill="#000000"> メールマガジン種別フラグ</text>
</g>
<!-- public.dtb_customer&#45;&gt;public.mtb_reminder -->
<g id="edge1" class="edge">
<title>public.dtb_customer:reminder&#45;&gt;public.mtb_reminder:id</title>
<path fill="none" stroke="#000000" stroke-dasharray="5,2" d="M442.3631,-767.8428C500.1502,-712.3992 444.2158,-121 375,-121"/>
<polygon fill="#000000" stroke="#000000" points="442.1397,-767.942 431.1739,-767.8872 437.5698,-769.971 433,-772 433,-772 433,-772 437.5698,-769.971 434.8261,-776.1128 442.1397,-767.942 442.1397,-767.942"/>
<text text-anchor="start" x="440.3245" y="-782" font-family="Arial" font-size="10.00" fill="#000000">Additional Relation</text>
</g>
</g>
</svg>
