<?xml version="1.0" encoding="UTF-8" standalone="no"?>
<!DOCTYPE svg PUBLIC "-//W3C//DTD SVG 1.1//EN"
 "http://www.w3.org/Graphics/SVG/1.1/DTD/svg11.dtd">
<!-- Generated by graphviz version 2.40.1 (20161225.0304)
 -->
<!-- Title: public.mtb_customer_status Pages: 1 -->
<svg width="538pt" height="1634pt"
 viewBox="0.00 0.00 538.00 1634.00" xmlns="http://www.w3.org/2000/svg" xmlns:xlink="http://www.w3.org/1999/xlink">
<g id="graph0" class="graph" transform="scale(1 1) rotate(0) translate(4 1630)">
<title>public.mtb_customer_status</title>
<polygon fill="#ffffff" stroke="transparent" points="-4,4 -4,-1630 534,-1630 534,4 -4,4"/>
<!-- public.mtb_customer_status -->
<g id="node1" class="node">
<title>public.mtb_customer_status</title>
<polygon fill="#efefef" stroke="transparent" points="124,-136 124,-182 459,-182 459,-136 124,-136"/>
<polygon fill="none" stroke="#000000" points="124,-136 124,-182 459,-182 459,-136 124,-136"/>
<text text-anchor="start" x="130.851" y="-159.8" font-family="Arial Bold" font-size="18.00" fill="#000000">public.mtb_customer_status</text>
<text text-anchor="start" x="354.8952" y="-159.8" font-family="Arial" font-size="14.00" fill="#000000"> </text>
<text text-anchor="start" x="358.7858" y="-159.8" font-family="Arial" font-size="14.00" fill="#666666">[BASE TABLE]</text>
<text text-anchor="start" x="229.9413" y="-145.4" font-family="Arial" font-size="14.00" fill="#333333">顧客ステータス</text>
<polygon fill="none" stroke="#000000" points="124,-106 124,-136 459,-136 459,-106 124,-106"/>
<text text-anchor="start" x="131" y="-117.4" font-family="Arial" font-size="14.00" fill="#000000">id </text>
<text text-anchor="start" x="145.7798" y="-117.4" font-family="Arial" font-size="14.00" fill="#666666">[smallint]</text>
<text text-anchor="start" x="200.9972" y="-117.4" font-family="Arial" font-size="14.00" fill="#000000"> ID</text>
<polygon fill="none" stroke="#000000" points="124,-76 124,-106 459,-106 459,-76 124,-76"/>
<text text-anchor="start" x="131" y="-87.4" font-family="Arial" font-size="14.00" fill="#000000">name </text>
<text text-anchor="start" x="169.899" y="-87.4" font-family="Arial" font-size="14.00" fill="#666666">[text]</text>
<text text-anchor="start" x="200.244" y="-87.4" font-family="Arial" font-size="14.00" fill="#000000"> 名称</text>
<polygon fill="none" stroke="#000000" points="124,-46 124,-76 459,-76 459,-46 124,-46"/>
<text text-anchor="start" x="131" y="-57.4" font-family="Arial" font-size="14.00" fill="#000000">rank </text>
<text text-anchor="start" x="162.1164" y="-57.4" font-family="Arial" font-size="14.00" fill="#666666">[smallint]</text>
<text text-anchor="start" x="217.3338" y="-57.4" font-family="Arial" font-size="14.00" fill="#000000"> 表示順</text>
<polygon fill="none" stroke="#000000" stroke-width="3" points="122,-44.5 122,-183.5 460,-183.5 460,-44.5 122,-44.5"/>
</g>
<!-- public.dtb_customer -->
<g id="node2" class="node">
<title>public.dtb_customer</title>
<polygon fill="#efefef" stroke="transparent" points="97,-1537 97,-1583 487,-1583 487,-1537 97,-1537"/>
<polygon fill="none" stroke="#000000" points="97,-1537 97,-1583 487,-1583 487,-1537 97,-1537"/>
<text text-anchor="start" x="162.8555" y="-1560.8" font-family="Arial Bold" font-size="18.00" fill="#000000">public.dtb_customer</text>
<text text-anchor="start" x="323.8907" y="-1560.8" font-family="Arial" font-size="14.00" fill="#000000"> </text>
<text text-anchor="start" x="327.7813" y="-1560.8" font-family="Arial" font-size="14.00" fill="#666666">[BASE TABLE]</text>
<text text-anchor="start" x="257.3787" y="-1546.4" font-family="Arial" font-size="14.00" fill="#333333">顧客情報</text>
<polygon fill="none" stroke="#000000" points="97,-1507 97,-1537 487,-1537 487,-1507 97,-1507"/>
<text text-anchor="start" x="104" y="-1518.4" font-family="Arial" font-size="14.00" fill="#000000">customer_id </text>
<text text-anchor="start" x="184.122" y="-1518.4" font-family="Arial" font-size="14.00" fill="#666666">[integer]</text>
<text text-anchor="start" x="234.6914" y="-1518.4" font-family="Arial" font-size="14.00" fill="#000000"> 顧客ID</text>
<polygon fill="none" stroke="#000000" points="97,-1477 97,-1507 487,-1507 487,-1477 97,-1477"/>
<text text-anchor="start" x="104" y="-1488.4" font-family="Arial" font-size="14.00" fill="#000000">name01 </text>
<text text-anchor="start" x="158.4642" y="-1488.4" font-family="Arial" font-size="14.00" fill="#666666">[text]</text>
<text text-anchor="start" x="188.8092" y="-1488.4" font-family="Arial" font-size="14.00" fill="#000000"> 姓</text>
<polygon fill="none" stroke="#000000" points="97,-1447 97,-1477 487,-1477 487,-1447 97,-1447"/>
<text text-anchor="start" x="104" y="-1458.4" font-family="Arial" font-size="14.00" fill="#000000">name02 </text>
<text text-anchor="start" x="158.4642" y="-1458.4" font-family="Arial" font-size="14.00" fill="#666666">[text]</text>
<text text-anchor="start" x="188.8092" y="-1458.4" font-family="Arial" font-size="14.00" fill="#000000"> 名</text>
<polygon fill="none" stroke="#000000" points="97,-1417 97,-1447 487,-1447 487,-1417 97,-1417"/>
<text text-anchor="start" x="104" y="-1428.4" font-family="Arial" font-size="14.00" fill="#000000">kana01 </text>
<text text-anchor="start" x="153.8036" y="-1428.4" font-family="Arial" font-size="14.00" fill="#666666">[text]</text>
<text text-anchor="start" x="184.1486" y="-1428.4" font-family="Arial" font-size="14.00" fill="#000000"> 姓(カナ)</text>
<polygon fill="none" stroke="#000000" points="97,-1387 97,-1417 487,-1417 487,-1387 97,-1387"/>
<text text-anchor="start" x="104" y="-1398.4" font-family="Arial" font-size="14.00" fill="#000000">kana02 </text>
<text text-anchor="start" x="153.8036" y="-1398.4" font-family="Arial" font-size="14.00" fill="#666666">[text]</text>
<text text-anchor="start" x="184.1486" y="-1398.4" font-family="Arial" font-size="14.00" fill="#000000"> 名(カナ)</text>
<polygon fill="none" stroke="#000000" points="97,-1357 97,-1387 487,-1387 487,-1357 97,-1357"/>
<text text-anchor="start" x="104" y="-1368.4" font-family="Arial" font-size="14.00" fill="#000000">company_name </text>
<text text-anchor="start" x="207.4726" y="-1368.4" font-family="Arial" font-size="14.00" fill="#666666">[text]</text>
<text text-anchor="start" x="237.8176" y="-1368.4" font-family="Arial" font-size="14.00" fill="#000000"> 【2.13】国名</text>
<polygon fill="none" stroke="#000000" points="97,-1327 97,-1357 487,-1357 487,-1327 97,-1327"/>
<text text-anchor="start" x="104" y="-1338.4" font-family="Arial" font-size="14.00" fill="#000000">zip01 </text>
<text text-anchor="start" x="141.345" y="-1338.4" font-family="Arial" font-size="14.00" fill="#666666">[text]</text>
<text text-anchor="start" x="171.69" y="-1338.4" font-family="Arial" font-size="14.00" fill="#000000"> 郵便番号(4桁)</text>
<polygon fill="none" stroke="#000000" points="97,-1297 97,-1327 487,-1327 487,-1297 97,-1297"/>
<text text-anchor="start" x="104" y="-1308.4" font-family="Arial" font-size="14.00" fill="#000000">zip02 </text>
<text text-anchor="start" x="141.345" y="-1308.4" font-family="Arial" font-size="14.00" fill="#666666">[text]</text>
<text text-anchor="start" x="171.69" y="-1308.4" font-family="Arial" font-size="14.00" fill="#000000"> 郵便番号(3桁)</text>
<polygon fill="none" stroke="#000000" points="97,-1267 97,-1297 487,-1297 487,-1267 97,-1267"/>
<text text-anchor="start" x="104" y="-1278.4" font-family="Arial" font-size="14.00" fill="#000000">zipcode </text>
<text text-anchor="start" x="156.1276" y="-1278.4" font-family="Arial" font-size="14.00" fill="#666666">[text]</text>
<text text-anchor="start" x="186.4726" y="-1278.4" font-family="Arial" font-size="14.00" fill="#000000"> 【2.13】郵便番号(海外対応)</text>
<polygon fill="none" stroke="#000000" points="97,-1237 97,-1267 487,-1267 487,-1237 97,-1237"/>
<text text-anchor="start" x="104" y="-1248.4" font-family="Arial" font-size="14.00" fill="#000000">country_id </text>
<text text-anchor="start" x="172.4614" y="-1248.4" font-family="Arial" font-size="14.00" fill="#666666">[integer]</text>
<text text-anchor="start" x="223.0308" y="-1248.4" font-family="Arial" font-size="14.00" fill="#000000"> 【2.13】国ID</text>
<polygon fill="none" stroke="#000000" points="97,-1207 97,-1237 487,-1237 487,-1207 97,-1207"/>
<text text-anchor="start" x="104" y="-1218.4" font-family="Arial" font-size="14.00" fill="#000000">pref </text>
<text text-anchor="start" x="132.007" y="-1218.4" font-family="Arial" font-size="14.00" fill="#666666">[smallint]</text>
<text text-anchor="start" x="187.2244" y="-1218.4" font-family="Arial" font-size="14.00" fill="#000000"> 都道府県</text>
<polygon fill="none" stroke="#000000" points="97,-1177 97,-1207 487,-1207 487,-1177 97,-1177"/>
<text text-anchor="start" x="104" y="-1188.4" font-family="Arial" font-size="14.00" fill="#000000">addr01 </text>
<text text-anchor="start" x="151.4642" y="-1188.4" font-family="Arial" font-size="14.00" fill="#666666">[text]</text>
<text text-anchor="start" x="181.8092" y="-1188.4" font-family="Arial" font-size="14.00" fill="#000000"> 市区町村</text>
<polygon fill="none" stroke="#000000" points="97,-1147 97,-1177 487,-1177 487,-1147 97,-1147"/>
<text text-anchor="start" x="104" y="-1158.4" font-family="Arial" font-size="14.00" fill="#000000">addr02 </text>
<text text-anchor="start" x="151.4642" y="-1158.4" font-family="Arial" font-size="14.00" fill="#666666">[text]</text>
<text text-anchor="start" x="181.8092" y="-1158.4" font-family="Arial" font-size="14.00" fill="#000000"> 番地等</text>
<polygon fill="none" stroke="#000000" points="97,-1117 97,-1147 487,-1147 487,-1117 97,-1117"/>
<text text-anchor="start" x="104" y="-1128.4" font-family="Arial" font-size="14.00" fill="#000000">email </text>
<text text-anchor="start" x="141.3296" y="-1128.4" font-family="Arial" font-size="14.00" fill="#666666">[text]</text>
<text text-anchor="start" x="171.6746" y="-1128.4" font-family="Arial" font-size="14.00" fill="#000000"> メールアドレス</text>
<polygon fill="none" stroke="#000000" points="97,-1087 97,-1117 487,-1117 487,-1087 97,-1087"/>
<text text-anchor="start" x="104" y="-1098.4" font-family="Arial" font-size="14.00" fill="#000000">email_mobile </text>
<text text-anchor="start" x="190.3338" y="-1098.4" font-family="Arial" font-size="14.00" fill="#666666">[text]</text>
<text text-anchor="start" x="220.6788" y="-1098.4" font-family="Arial" font-size="14.00" fill="#000000"> 携帯メールアドレス</text>
<polygon fill="none" stroke="#000000" points="97,-1057 97,-1087 487,-1087 487,-1057 97,-1057"/>
<text text-anchor="start" x="104" y="-1068.4" font-family="Arial" font-size="14.00" fill="#000000">tel01 </text>
<text text-anchor="start" x="138.2356" y="-1068.4" font-family="Arial" font-size="14.00" fill="#666666">[text]</text>
<text text-anchor="start" x="168.5806" y="-1068.4" font-family="Arial" font-size="14.00" fill="#000000"> 電話(市外局番)</text>
<polygon fill="none" stroke="#000000" points="97,-1027 97,-1057 487,-1057 487,-1027 97,-1027"/>
<text text-anchor="start" x="104" y="-1038.4" font-family="Arial" font-size="14.00" fill="#000000">tel02 </text>
<text text-anchor="start" x="138.2356" y="-1038.4" font-family="Arial" font-size="14.00" fill="#666666">[text]</text>
<text text-anchor="start" x="168.5806" y="-1038.4" font-family="Arial" font-size="14.00" fill="#000000"> 電話(市内局番)</text>
<polygon fill="none" stroke="#000000" points="97,-997 97,-1027 487,-1027 487,-997 97,-997"/>
<text text-anchor="start" x="104" y="-1008.4" font-family="Arial" font-size="14.00" fill="#000000">tel03 </text>
<text text-anchor="start" x="138.2356" y="-1008.4" font-family="Arial" font-size="14.00" fill="#666666">[text]</text>
<text text-anchor="start" x="168.5806" y="-1008.4" font-family="Arial" font-size="14.00" fill="#000000"> 電話(局番)</text>
<polygon fill="none" stroke="#000000" points="97,-967 97,-997 487,-997 487,-967 97,-967"/>
<text text-anchor="start" x="104" y="-978.4" font-family="Arial" font-size="14.00" fill="#000000">fax01 </text>
<text text-anchor="start" x="142.129" y="-978.4" font-family="Arial" font-size="14.00" fill="#666666">[text]</text>
<text text-anchor="start" x="172.474" y="-978.4" font-family="Arial" font-size="14.00" fill="#000000"> FAX(市外局番)</text>
<polygon fill="none" stroke="#000000" points="97,-937 97,-967 487,-967 487,-937 97,-937"/>
<text text-anchor="start" x="104" y="-948.4" font-family="Arial" font-size="14.00" fill="#000000">fax02 </text>
<text text-anchor="start" x="142.129" y="-948.4" font-family="Arial" font-size="14.00" fill="#666666">[text]</text>
<text text-anchor="start" x="172.474" y="-948.4" font-family="Arial" font-size="14.00" fill="#000000"> FAX(市内局番)</text>
<polygon fill="none" stroke="#000000" points="97,-907 97,-937 487,-937 487,-907 97,-907"/>
<text text-anchor="start" x="104" y="-918.4" font-family="Arial" font-size="14.00" fill="#000000">fax03 </text>
<text text-anchor="start" x="142.129" y="-918.4" font-family="Arial" font-size="14.00" fill="#666666">[text]</text>
<text text-anchor="start" x="172.474" y="-918.4" font-family="Arial" font-size="14.00" fill="#000000"> FAX(局番)</text>
<polygon fill="none" stroke="#000000" points="97,-877 97,-907 487,-907 487,-877 97,-877"/>
<text text-anchor="start" x="104" y="-888.4" font-family="Arial" font-size="14.00" fill="#000000">sex </text>
<text text-anchor="start" x="129.6732" y="-888.4" font-family="Arial" font-size="14.00" fill="#666666">[smallint]</text>
<text text-anchor="start" x="184.8906" y="-888.4" font-family="Arial" font-size="14.00" fill="#000000"> 性別</text>
<polygon fill="none" stroke="#000000" points="97,-847 97,-877 487,-877 487,-847 97,-847"/>
<text text-anchor="start" x="104" y="-858.4" font-family="Arial" font-size="14.00" fill="#000000">job </text>
<text text-anchor="start" x="126.5624" y="-858.4" font-family="Arial" font-size="14.00" fill="#666666">[smallint]</text>
<text text-anchor="start" x="181.7798" y="-858.4" font-family="Arial" font-size="14.00" fill="#000000"> 職業</text>
<polygon fill="none" stroke="#000000" points="97,-817 97,-847 487,-847 487,-817 97,-817"/>
<text text-anchor="start" x="104" y="-828.4" font-family="Arial" font-size="14.00" fill="#000000">birth </text>
<text text-anchor="start" x="135.1136" y="-828.4" font-family="Arial" font-size="14.00" fill="#666666">[timestamp without time zone]</text>
<text text-anchor="start" x="320.2538" y="-828.4" font-family="Arial" font-size="14.00" fill="#000000"> 生年月日</text>
<polygon fill="none" stroke="#000000" points="97,-787 97,-817 487,-817 487,-787 97,-787"/>
<text text-anchor="start" x="104" y="-798.4" font-family="Arial" font-size="14.00" fill="#000000">password </text>
<text text-anchor="start" x="167.7882" y="-798.4" font-family="Arial" font-size="14.00" fill="#666666">[text]</text>
<text text-anchor="start" x="198.1332" y="-798.4" font-family="Arial" font-size="14.00" fill="#000000"> パスワード</text>
<polygon fill="none" stroke="#000000" points="97,-757 97,-787 487,-787 487,-757 97,-757"/>
<text text-anchor="start" x="104" y="-768.4" font-family="Arial" font-size="14.00" fill="#000000">reminder </text>
<text text-anchor="start" x="163.1094" y="-768.4" font-family="Arial" font-size="14.00" fill="#666666">[smallint]</text>
<text text-anchor="start" x="218.3268" y="-768.4" font-family="Arial" font-size="14.00" fill="#000000"> パスワードの質問</text>
<polygon fill="none" stroke="#000000" points="97,-727 97,-757 487,-757 487,-727 97,-727"/>
<text text-anchor="start" x="104" y="-738.4" font-family="Arial" font-size="14.00" fill="#000000">reminder_answer </text>
<text text-anchor="start" x="216.007" y="-738.4" font-family="Arial" font-size="14.00" fill="#666666">[text]</text>
<text text-anchor="start" x="246.352" y="-738.4" font-family="Arial" font-size="14.00" fill="#000000"> パスワードの質問の答え</text>
<polygon fill="none" stroke="#000000" points="97,-697 97,-727 487,-727 487,-697 97,-697"/>
<text text-anchor="start" x="104" y="-708.4" font-family="Arial" font-size="14.00" fill="#000000">salt </text>
<text text-anchor="start" x="129.6704" y="-708.4" font-family="Arial" font-size="14.00" fill="#666666">[text]</text>
<text text-anchor="start" x="160.0154" y="-708.4" font-family="Arial" font-size="14.00" fill="#000000"> 暗号化付与文字列</text>
<polygon fill="none" stroke="#000000" points="97,-667 97,-697 487,-697 487,-667 97,-667"/>
<text text-anchor="start" x="104" y="-678.4" font-family="Arial" font-size="14.00" fill="#000000">secret_key </text>
<text text-anchor="start" x="175.5722" y="-678.4" font-family="Arial" font-size="14.00" fill="#666666">[text]</text>
<text text-anchor="start" x="205.9172" y="-678.4" font-family="Arial" font-size="14.00" fill="#000000"> 暗号化キー</text>
<polygon fill="none" stroke="#000000" points="97,-637 97,-667 487,-667 487,-637 97,-637"/>
<text text-anchor="start" x="103.7266" y="-648.4" font-family="Arial" font-size="14.00" fill="#000000">first_buy_date </text>
<text text-anchor="start" x="195.5344" y="-648.4" font-family="Arial" font-size="14.00" fill="#666666">[timestamp without time zone]</text>
<text text-anchor="start" x="380.6746" y="-648.4" font-family="Arial" font-size="14.00" fill="#000000"> 初回購入日時</text>
<polygon fill="none" stroke="#000000" points="97,-607 97,-637 487,-637 487,-607 97,-607"/>
<text text-anchor="start" x="104" y="-618.4" font-family="Arial" font-size="14.00" fill="#000000">last_buy_date </text>
<text text-anchor="start" x="195.0392" y="-618.4" font-family="Arial" font-size="14.00" fill="#666666">[timestamp without time zone]</text>
<text text-anchor="start" x="380.1794" y="-618.4" font-family="Arial" font-size="14.00" fill="#000000"> 最終購入日時</text>
<polygon fill="none" stroke="#000000" points="97,-577 97,-607 487,-607 487,-577 97,-577"/>
<text text-anchor="start" x="104" y="-588.4" font-family="Arial" font-size="14.00" fill="#000000">buy_times </text>
<text text-anchor="start" x="171.6788" y="-588.4" font-family="Arial" font-size="14.00" fill="#666666">[numeric]</text>
<text text-anchor="start" x="229.2356" y="-588.4" font-family="Arial" font-size="14.00" fill="#000000"> 購入回数</text>
<polygon fill="none" stroke="#000000" points="97,-547 97,-577 487,-577 487,-547 97,-547"/>
<text text-anchor="start" x="104" y="-558.4" font-family="Arial" font-size="14.00" fill="#000000">buy_total </text>
<text text-anchor="start" x="164.6914" y="-558.4" font-family="Arial" font-size="14.00" fill="#666666">[numeric]</text>
<text text-anchor="start" x="222.2482" y="-558.4" font-family="Arial" font-size="14.00" fill="#000000"> 購入累計金額</text>
<polygon fill="none" stroke="#000000" points="97,-517 97,-547 487,-547 487,-517 97,-517"/>
<text text-anchor="start" x="104" y="-528.4" font-family="Arial" font-size="14.00" fill="#000000">point </text>
<text text-anchor="start" x="138.2356" y="-528.4" font-family="Arial" font-size="14.00" fill="#666666">[numeric]</text>
<text text-anchor="start" x="195.7924" y="-528.4" font-family="Arial" font-size="14.00" fill="#000000"> 保持ポイント</text>
<polygon fill="none" stroke="#000000" points="97,-487 97,-517 487,-517 487,-487 97,-487"/>
<text text-anchor="start" x="104" y="-498.4" font-family="Arial" font-size="14.00" fill="#000000">note </text>
<text text-anchor="start" x="135.129" y="-498.4" font-family="Arial" font-size="14.00" fill="#666666">[text]</text>
<text text-anchor="start" x="165.474" y="-498.4" font-family="Arial" font-size="14.00" fill="#000000"> 備考</text>
<polygon fill="none" stroke="#000000" points="97,-457 97,-487 487,-487 487,-457 97,-457"/>
<text text-anchor="start" x="104" y="-468.4" font-family="Arial" font-size="14.00" fill="#000000">status </text>
<text text-anchor="start" x="145.237" y="-468.4" font-family="Arial" font-size="14.00" fill="#666666">[smallint]</text>
<text text-anchor="start" x="200.4544" y="-468.4" font-family="Arial" font-size="14.00" fill="#000000"> 状態</text>
<polygon fill="none" stroke="#000000" points="97,-427 97,-457 487,-457 487,-427 97,-427"/>
<text text-anchor="start" x="104" y="-438.4" font-family="Arial" font-size="14.00" fill="#000000">create_date </text>
<text text-anchor="start" x="181.8106" y="-438.4" font-family="Arial" font-size="14.00" fill="#666666">[timestamp without time zone]</text>
<text text-anchor="start" x="366.9508" y="-438.4" font-family="Arial" font-size="14.00" fill="#000000"> 作成日時</text>
<polygon fill="none" stroke="#000000" points="97,-397 97,-427 487,-427 487,-397 97,-397"/>
<text text-anchor="start" x="104" y="-408.4" font-family="Arial" font-size="14.00" fill="#000000">update_date </text>
<text text-anchor="start" x="185.7152" y="-408.4" font-family="Arial" font-size="14.00" fill="#666666">[timestamp without time zone]</text>
<text text-anchor="start" x="370.8554" y="-408.4" font-family="Arial" font-size="14.00" fill="#000000"> 更新日時</text>
<polygon fill="none" stroke="#000000" points="97,-367 97,-397 487,-397 487,-367 97,-367"/>
<text text-anchor="start" x="104" y="-378.4" font-family="Arial" font-size="14.00" fill="#000000">del_flg </text>
<text text-anchor="start" x="149.1248" y="-378.4" font-family="Arial" font-size="14.00" fill="#666666">[smallint]</text>
<text text-anchor="start" x="204.3422" y="-378.4" font-family="Arial" font-size="14.00" fill="#000000"> 削除フラグ</text>
<polygon fill="none" stroke="#000000" points="97,-337 97,-367 487,-367 487,-337 97,-337"/>
<text text-anchor="start" x="104" y="-348.4" font-family="Arial" font-size="14.00" fill="#000000">mobile_phone_id </text>
<text text-anchor="start" x="214.4796" y="-348.4" font-family="Arial" font-size="14.00" fill="#666666">[text]</text>
<text text-anchor="start" x="244.8246" y="-348.4" font-family="Arial" font-size="14.00" fill="#000000"> 携帯端末ID</text>
<polygon fill="none" stroke="#000000" points="97,-307 97,-337 487,-337 487,-307 97,-307"/>
<text text-anchor="start" x="104" y="-318.4" font-family="Arial" font-size="14.00" fill="#000000">mailmaga_flg </text>
<text text-anchor="start" x="191.1178" y="-318.4" font-family="Arial" font-size="14.00" fill="#666666">[smallint]</text>
<text text-anchor="start" x="246.3352" y="-318.4" font-family="Arial" font-size="14.00" fill="#000000"> メールマガジン種別フラグ</text>
</g>
<!-- public.dtb_customer&#45;&gt;public.mtb_customer_status -->
<g id="edge1" class="edge">
<title>public.dtb_customer:status&#45;&gt;public.mtb_customer_status:id</title>
<path fill="none" stroke="#000000" stroke-dasharray="5,2" d="M86.7235,-471.3741C6.9785,-461.2119 37.3743,-329.8494 97,-264 151.2613,-204.0749 404.7387,-287.9251 459,-228 490.9197,-192.7485 506.5556,-121 459,-121"/>
<polygon fill="#000000" stroke="#000000" points="87.0185,-471.392 96.7264,-476.4917 92.0092,-471.696 97,-472 97,-472 97,-472 92.0092,-471.696 97.2736,-467.5083 87.0185,-471.392 87.0185,-471.392"/>
<text text-anchor="start" x="7.3245" y="-482" font-family="Arial" font-size="10.00" fill="#000000">Additional Relation</text>
</g>
</g>
</svg>
