<?xml version="1.0" encoding="UTF-8" standalone="no"?>
<!DOCTYPE svg PUBLIC "-//W3C//DTD SVG 1.1//EN"
 "http://www.w3.org/Graphics/SVG/1.1/DTD/svg11.dtd">
<!-- Generated by graphviz version 2.40.1 (20161225.0304)
 -->
<!-- Title: public.dtb_customer Pages: 1 -->
<svg width="490pt" height="1376pt"
 viewBox="0.00 0.00 490.00 1376.00" xmlns="http://www.w3.org/2000/svg" xmlns:xlink="http://www.w3.org/1999/xlink">
<g id="graph0" class="graph" transform="scale(1 1) rotate(0) translate(4 1372)">
<title>public.dtb_customer</title>
<polygon fill="#ffffff" stroke="transparent" points="-4,4 -4,-1372 486,-1372 486,4 -4,4"/>
<!-- public.dtb_customer -->
<g id="node1" class="node">
<title>public.dtb_customer</title>
<polygon fill="#efefef" stroke="transparent" points="46,-1276 46,-1322 436,-1322 436,-1276 46,-1276"/>
<polygon fill="none" stroke="#000000" points="46,-1276 46,-1322 436,-1322 436,-1276 46,-1276"/>
<text text-anchor="start" x="111.8555" y="-1299.8" font-family="Arial Bold" font-size="18.00" fill="#000000">public.dtb_customer</text>
<text text-anchor="start" x="272.8907" y="-1299.8" font-family="Arial" font-size="14.00" fill="#000000"> </text>
<text text-anchor="start" x="276.7813" y="-1299.8" font-family="Arial" font-size="14.00" fill="#666666">[BASE TABLE]</text>
<text text-anchor="start" x="206.3787" y="-1285.4" font-family="Arial" font-size="14.00" fill="#333333">顧客情報</text>
<polygon fill="none" stroke="#000000" points="46,-1246 46,-1276 436,-1276 436,-1246 46,-1246"/>
<text text-anchor="start" x="53" y="-1257.4" font-family="Arial" font-size="14.00" fill="#000000">customer_id </text>
<text text-anchor="start" x="133.122" y="-1257.4" font-family="Arial" font-size="14.00" fill="#666666">[integer]</text>
<text text-anchor="start" x="183.6914" y="-1257.4" font-family="Arial" font-size="14.00" fill="#000000"> 顧客ID</text>
<polygon fill="none" stroke="#000000" points="46,-1216 46,-1246 436,-1246 436,-1216 46,-1216"/>
<text text-anchor="start" x="53" y="-1227.4" font-family="Arial" font-size="14.00" fill="#000000">name01 </text>
<text text-anchor="start" x="107.4642" y="-1227.4" font-family="Arial" font-size="14.00" fill="#666666">[text]</text>
<text text-anchor="start" x="137.8092" y="-1227.4" font-family="Arial" font-size="14.00" fill="#000000"> 姓</text>
<polygon fill="none" stroke="#000000" points="46,-1186 46,-1216 436,-1216 436,-1186 46,-1186"/>
<text text-anchor="start" x="53" y="-1197.4" font-family="Arial" font-size="14.00" fill="#000000">name02 </text>
<text text-anchor="start" x="107.4642" y="-1197.4" font-family="Arial" font-size="14.00" fill="#666666">[text]</text>
<text text-anchor="start" x="137.8092" y="-1197.4" font-family="Arial" font-size="14.00" fill="#000000"> 名</text>
<polygon fill="none" stroke="#000000" points="46,-1156 46,-1186 436,-1186 436,-1156 46,-1156"/>
<text text-anchor="start" x="53" y="-1167.4" font-family="Arial" font-size="14.00" fill="#000000">kana01 </text>
<text text-anchor="start" x="102.8036" y="-1167.4" font-family="Arial" font-size="14.00" fill="#666666">[text]</text>
<text text-anchor="start" x="133.1486" y="-1167.4" font-family="Arial" font-size="14.00" fill="#000000"> 姓(カナ)</text>
<polygon fill="none" stroke="#000000" points="46,-1126 46,-1156 436,-1156 436,-1126 46,-1126"/>
<text text-anchor="start" x="53" y="-1137.4" font-family="Arial" font-size="14.00" fill="#000000">kana02 </text>
<text text-anchor="start" x="102.8036" y="-1137.4" font-family="Arial" font-size="14.00" fill="#666666">[text]</text>
<text text-anchor="start" x="133.1486" y="-1137.4" font-family="Arial" font-size="14.00" fill="#000000"> 名(カナ)</text>
<polygon fill="none" stroke="#000000" points="46,-1096 46,-1126 436,-1126 436,-1096 46,-1096"/>
<text text-anchor="start" x="53" y="-1107.4" font-family="Arial" font-size="14.00" fill="#000000">company_name </text>
<text text-anchor="start" x="156.4726" y="-1107.4" font-family="Arial" font-size="14.00" fill="#666666">[text]</text>
<text text-anchor="start" x="186.8176" y="-1107.4" font-family="Arial" font-size="14.00" fill="#000000"> 【2.13】国名</text>
<polygon fill="none" stroke="#000000" points="46,-1066 46,-1096 436,-1096 436,-1066 46,-1066"/>
<text text-anchor="start" x="53" y="-1077.4" font-family="Arial" font-size="14.00" fill="#000000">zip01 </text>
<text text-anchor="start" x="90.345" y="-1077.4" font-family="Arial" font-size="14.00" fill="#666666">[text]</text>
<text text-anchor="start" x="120.69" y="-1077.4" font-family="Arial" font-size="14.00" fill="#000000"> 郵便番号(4桁)</text>
<polygon fill="none" stroke="#000000" points="46,-1036 46,-1066 436,-1066 436,-1036 46,-1036"/>
<text text-anchor="start" x="53" y="-1047.4" font-family="Arial" font-size="14.00" fill="#000000">zip02 </text>
<text text-anchor="start" x="90.345" y="-1047.4" font-family="Arial" font-size="14.00" fill="#666666">[text]</text>
<text text-anchor="start" x="120.69" y="-1047.4" font-family="Arial" font-size="14.00" fill="#000000"> 郵便番号(3桁)</text>
<polygon fill="none" stroke="#000000" points="46,-1006 46,-1036 436,-1036 436,-1006 46,-1006"/>
<text text-anchor="start" x="53" y="-1017.4" font-family="Arial" font-size="14.00" fill="#000000">zipcode </text>
<text text-anchor="start" x="105.1276" y="-1017.4" font-family="Arial" font-size="14.00" fill="#666666">[text]</text>
<text text-anchor="start" x="135.4726" y="-1017.4" font-family="Arial" font-size="14.00" fill="#000000"> 【2.13】郵便番号(海外対応)</text>
<polygon fill="none" stroke="#000000" points="46,-976 46,-1006 436,-1006 436,-976 46,-976"/>
<text text-anchor="start" x="53" y="-987.4" font-family="Arial" font-size="14.00" fill="#000000">country_id </text>
<text text-anchor="start" x="121.4614" y="-987.4" font-family="Arial" font-size="14.00" fill="#666666">[integer]</text>
<text text-anchor="start" x="172.0308" y="-987.4" font-family="Arial" font-size="14.00" fill="#000000"> 【2.13】国ID</text>
<polygon fill="none" stroke="#000000" points="46,-946 46,-976 436,-976 436,-946 46,-946"/>
<text text-anchor="start" x="53" y="-957.4" font-family="Arial" font-size="14.00" fill="#000000">pref </text>
<text text-anchor="start" x="81.007" y="-957.4" font-family="Arial" font-size="14.00" fill="#666666">[smallint]</text>
<text text-anchor="start" x="136.2244" y="-957.4" font-family="Arial" font-size="14.00" fill="#000000"> 都道府県</text>
<polygon fill="none" stroke="#000000" points="46,-916 46,-946 436,-946 436,-916 46,-916"/>
<text text-anchor="start" x="53" y="-927.4" font-family="Arial" font-size="14.00" fill="#000000">addr01 </text>
<text text-anchor="start" x="100.4642" y="-927.4" font-family="Arial" font-size="14.00" fill="#666666">[text]</text>
<text text-anchor="start" x="130.8092" y="-927.4" font-family="Arial" font-size="14.00" fill="#000000"> 市区町村</text>
<polygon fill="none" stroke="#000000" points="46,-886 46,-916 436,-916 436,-886 46,-886"/>
<text text-anchor="start" x="53" y="-897.4" font-family="Arial" font-size="14.00" fill="#000000">addr02 </text>
<text text-anchor="start" x="100.4642" y="-897.4" font-family="Arial" font-size="14.00" fill="#666666">[text]</text>
<text text-anchor="start" x="130.8092" y="-897.4" font-family="Arial" font-size="14.00" fill="#000000"> 番地等</text>
<polygon fill="none" stroke="#000000" points="46,-856 46,-886 436,-886 436,-856 46,-856"/>
<text text-anchor="start" x="53" y="-867.4" font-family="Arial" font-size="14.00" fill="#000000">email </text>
<text text-anchor="start" x="90.3296" y="-867.4" font-family="Arial" font-size="14.00" fill="#666666">[text]</text>
<text text-anchor="start" x="120.6746" y="-867.4" font-family="Arial" font-size="14.00" fill="#000000"> メールアドレス</text>
<polygon fill="none" stroke="#000000" points="46,-826 46,-856 436,-856 436,-826 46,-826"/>
<text text-anchor="start" x="53" y="-837.4" font-family="Arial" font-size="14.00" fill="#000000">email_mobile </text>
<text text-anchor="start" x="139.3338" y="-837.4" font-family="Arial" font-size="14.00" fill="#666666">[text]</text>
<text text-anchor="start" x="169.6788" y="-837.4" font-family="Arial" font-size="14.00" fill="#000000"> 携帯メールアドレス</text>
<polygon fill="none" stroke="#000000" points="46,-796 46,-826 436,-826 436,-796 46,-796"/>
<text text-anchor="start" x="53" y="-807.4" font-family="Arial" font-size="14.00" fill="#000000">tel01 </text>
<text text-anchor="start" x="87.2356" y="-807.4" font-family="Arial" font-size="14.00" fill="#666666">[text]</text>
<text text-anchor="start" x="117.5806" y="-807.4" font-family="Arial" font-size="14.00" fill="#000000"> 電話(市外局番)</text>
<polygon fill="none" stroke="#000000" points="46,-766 46,-796 436,-796 436,-766 46,-766"/>
<text text-anchor="start" x="53" y="-777.4" font-family="Arial" font-size="14.00" fill="#000000">tel02 </text>
<text text-anchor="start" x="87.2356" y="-777.4" font-family="Arial" font-size="14.00" fill="#666666">[text]</text>
<text text-anchor="start" x="117.5806" y="-777.4" font-family="Arial" font-size="14.00" fill="#000000"> 電話(市内局番)</text>
<polygon fill="none" stroke="#000000" points="46,-736 46,-766 436,-766 436,-736 46,-736"/>
<text text-anchor="start" x="53" y="-747.4" font-family="Arial" font-size="14.00" fill="#000000">tel03 </text>
<text text-anchor="start" x="87.2356" y="-747.4" font-family="Arial" font-size="14.00" fill="#666666">[text]</text>
<text text-anchor="start" x="117.5806" y="-747.4" font-family="Arial" font-size="14.00" fill="#000000"> 電話(局番)</text>
<polygon fill="none" stroke="#000000" points="46,-706 46,-736 436,-736 436,-706 46,-706"/>
<text text-anchor="start" x="53" y="-717.4" font-family="Arial" font-size="14.00" fill="#000000">fax01 </text>
<text text-anchor="start" x="91.129" y="-717.4" font-family="Arial" font-size="14.00" fill="#666666">[text]</text>
<text text-anchor="start" x="121.474" y="-717.4" font-family="Arial" font-size="14.00" fill="#000000"> FAX(市外局番)</text>
<polygon fill="none" stroke="#000000" points="46,-676 46,-706 436,-706 436,-676 46,-676"/>
<text text-anchor="start" x="53" y="-687.4" font-family="Arial" font-size="14.00" fill="#000000">fax02 </text>
<text text-anchor="start" x="91.129" y="-687.4" font-family="Arial" font-size="14.00" fill="#666666">[text]</text>
<text text-anchor="start" x="121.474" y="-687.4" font-family="Arial" font-size="14.00" fill="#000000"> FAX(市内局番)</text>
<polygon fill="none" stroke="#000000" points="46,-646 46,-676 436,-676 436,-646 46,-646"/>
<text text-anchor="start" x="53" y="-657.4" font-family="Arial" font-size="14.00" fill="#000000">fax03 </text>
<text text-anchor="start" x="91.129" y="-657.4" font-family="Arial" font-size="14.00" fill="#666666">[text]</text>
<text text-anchor="start" x="121.474" y="-657.4" font-family="Arial" font-size="14.00" fill="#000000"> FAX(局番)</text>
<polygon fill="none" stroke="#000000" points="46,-616 46,-646 436,-646 436,-616 46,-616"/>
<text text-anchor="start" x="53" y="-627.4" font-family="Arial" font-size="14.00" fill="#000000">sex </text>
<text text-anchor="start" x="78.6732" y="-627.4" font-family="Arial" font-size="14.00" fill="#666666">[smallint]</text>
<text text-anchor="start" x="133.8906" y="-627.4" font-family="Arial" font-size="14.00" fill="#000000"> 性別</text>
<polygon fill="none" stroke="#000000" points="46,-586 46,-616 436,-616 436,-586 46,-586"/>
<text text-anchor="start" x="53" y="-597.4" font-family="Arial" font-size="14.00" fill="#000000">job </text>
<text text-anchor="start" x="75.5624" y="-597.4" font-family="Arial" font-size="14.00" fill="#666666">[smallint]</text>
<text text-anchor="start" x="130.7798" y="-597.4" font-family="Arial" font-size="14.00" fill="#000000"> 職業</text>
<polygon fill="none" stroke="#000000" points="46,-556 46,-586 436,-586 436,-556 46,-556"/>
<text text-anchor="start" x="53" y="-567.4" font-family="Arial" font-size="14.00" fill="#000000">birth </text>
<text text-anchor="start" x="84.1136" y="-567.4" font-family="Arial" font-size="14.00" fill="#666666">[timestamp without time zone]</text>
<text text-anchor="start" x="269.2538" y="-567.4" font-family="Arial" font-size="14.00" fill="#000000"> 生年月日</text>
<polygon fill="none" stroke="#000000" points="46,-526 46,-556 436,-556 436,-526 46,-526"/>
<text text-anchor="start" x="53" y="-537.4" font-family="Arial" font-size="14.00" fill="#000000">password </text>
<text text-anchor="start" x="116.7882" y="-537.4" font-family="Arial" font-size="14.00" fill="#666666">[text]</text>
<text text-anchor="start" x="147.1332" y="-537.4" font-family="Arial" font-size="14.00" fill="#000000"> パスワード</text>
<polygon fill="none" stroke="#000000" points="46,-496 46,-526 436,-526 436,-496 46,-496"/>
<text text-anchor="start" x="53" y="-507.4" font-family="Arial" font-size="14.00" fill="#000000">reminder </text>
<text text-anchor="start" x="112.1094" y="-507.4" font-family="Arial" font-size="14.00" fill="#666666">[smallint]</text>
<text text-anchor="start" x="167.3268" y="-507.4" font-family="Arial" font-size="14.00" fill="#000000"> パスワードの質問</text>
<polygon fill="none" stroke="#000000" points="46,-466 46,-496 436,-496 436,-466 46,-466"/>
<text text-anchor="start" x="53" y="-477.4" font-family="Arial" font-size="14.00" fill="#000000">reminder_answer </text>
<text text-anchor="start" x="165.007" y="-477.4" font-family="Arial" font-size="14.00" fill="#666666">[text]</text>
<text text-anchor="start" x="195.352" y="-477.4" font-family="Arial" font-size="14.00" fill="#000000"> パスワードの質問の答え</text>
<polygon fill="none" stroke="#000000" points="46,-436 46,-466 436,-466 436,-436 46,-436"/>
<text text-anchor="start" x="53" y="-447.4" font-family="Arial" font-size="14.00" fill="#000000">salt </text>
<text text-anchor="start" x="78.6704" y="-447.4" font-family="Arial" font-size="14.00" fill="#666666">[text]</text>
<text text-anchor="start" x="109.0154" y="-447.4" font-family="Arial" font-size="14.00" fill="#000000"> 暗号化付与文字列</text>
<polygon fill="none" stroke="#000000" points="46,-406 46,-436 436,-436 436,-406 46,-406"/>
<text text-anchor="start" x="53" y="-417.4" font-family="Arial" font-size="14.00" fill="#000000">secret_key </text>
<text text-anchor="start" x="124.5722" y="-417.4" font-family="Arial" font-size="14.00" fill="#666666">[text]</text>
<text text-anchor="start" x="154.9172" y="-417.4" font-family="Arial" font-size="14.00" fill="#000000"> 暗号化キー</text>
<polygon fill="none" stroke="#000000" points="46,-376 46,-406 436,-406 436,-376 46,-376"/>
<text text-anchor="start" x="52.7266" y="-387.4" font-family="Arial" font-size="14.00" fill="#000000">first_buy_date </text>
<text text-anchor="start" x="144.5344" y="-387.4" font-family="Arial" font-size="14.00" fill="#666666">[timestamp without time zone]</text>
<text text-anchor="start" x="329.6746" y="-387.4" font-family="Arial" font-size="14.00" fill="#000000"> 初回購入日時</text>
<polygon fill="none" stroke="#000000" points="46,-346 46,-376 436,-376 436,-346 46,-346"/>
<text text-anchor="start" x="53" y="-357.4" font-family="Arial" font-size="14.00" fill="#000000">last_buy_date </text>
<text text-anchor="start" x="144.0392" y="-357.4" font-family="Arial" font-size="14.00" fill="#666666">[timestamp without time zone]</text>
<text text-anchor="start" x="329.1794" y="-357.4" font-family="Arial" font-size="14.00" fill="#000000"> 最終購入日時</text>
<polygon fill="none" stroke="#000000" points="46,-316 46,-346 436,-346 436,-316 46,-316"/>
<text text-anchor="start" x="53" y="-327.4" font-family="Arial" font-size="14.00" fill="#000000">buy_times </text>
<text text-anchor="start" x="120.6788" y="-327.4" font-family="Arial" font-size="14.00" fill="#666666">[numeric]</text>
<text text-anchor="start" x="178.2356" y="-327.4" font-family="Arial" font-size="14.00" fill="#000000"> 購入回数</text>
<polygon fill="none" stroke="#000000" points="46,-286 46,-316 436,-316 436,-286 46,-286"/>
<text text-anchor="start" x="53" y="-297.4" font-family="Arial" font-size="14.00" fill="#000000">buy_total </text>
<text text-anchor="start" x="113.6914" y="-297.4" font-family="Arial" font-size="14.00" fill="#666666">[numeric]</text>
<text text-anchor="start" x="171.2482" y="-297.4" font-family="Arial" font-size="14.00" fill="#000000"> 購入累計金額</text>
<polygon fill="none" stroke="#000000" points="46,-256 46,-286 436,-286 436,-256 46,-256"/>
<text text-anchor="start" x="53" y="-267.4" font-family="Arial" font-size="14.00" fill="#000000">point </text>
<text text-anchor="start" x="87.2356" y="-267.4" font-family="Arial" font-size="14.00" fill="#666666">[numeric]</text>
<text text-anchor="start" x="144.7924" y="-267.4" font-family="Arial" font-size="14.00" fill="#000000"> 保持ポイント</text>
<polygon fill="none" stroke="#000000" points="46,-226 46,-256 436,-256 436,-226 46,-226"/>
<text text-anchor="start" x="53" y="-237.4" font-family="Arial" font-size="14.00" fill="#000000">note </text>
<text text-anchor="start" x="84.129" y="-237.4" font-family="Arial" font-size="14.00" fill="#666666">[text]</text>
<text text-anchor="start" x="114.474" y="-237.4" font-family="Arial" font-size="14.00" fill="#000000"> 備考</text>
<polygon fill="none" stroke="#000000" points="46,-196 46,-226 436,-226 436,-196 46,-196"/>
<text text-anchor="start" x="53" y="-207.4" font-family="Arial" font-size="14.00" fill="#000000">status </text>
<text text-anchor="start" x="94.237" y="-207.4" font-family="Arial" font-size="14.00" fill="#666666">[smallint]</text>
<text text-anchor="start" x="149.4544" y="-207.4" font-family="Arial" font-size="14.00" fill="#000000"> 状態</text>
<polygon fill="none" stroke="#000000" points="46,-166 46,-196 436,-196 436,-166 46,-166"/>
<text text-anchor="start" x="53" y="-177.4" font-family="Arial" font-size="14.00" fill="#000000">create_date </text>
<text text-anchor="start" x="130.8106" y="-177.4" font-family="Arial" font-size="14.00" fill="#666666">[timestamp without time zone]</text>
<text text-anchor="start" x="315.9508" y="-177.4" font-family="Arial" font-size="14.00" fill="#000000"> 作成日時</text>
<polygon fill="none" stroke="#000000" points="46,-136 46,-166 436,-166 436,-136 46,-136"/>
<text text-anchor="start" x="53" y="-147.4" font-family="Arial" font-size="14.00" fill="#000000">update_date </text>
<text text-anchor="start" x="134.7152" y="-147.4" font-family="Arial" font-size="14.00" fill="#666666">[timestamp without time zone]</text>
<text text-anchor="start" x="319.8554" y="-147.4" font-family="Arial" font-size="14.00" fill="#000000"> 更新日時</text>
<polygon fill="none" stroke="#000000" points="46,-106 46,-136 436,-136 436,-106 46,-106"/>
<text text-anchor="start" x="53" y="-117.4" font-family="Arial" font-size="14.00" fill="#000000">del_flg </text>
<text text-anchor="start" x="98.1248" y="-117.4" font-family="Arial" font-size="14.00" fill="#666666">[smallint]</text>
<text text-anchor="start" x="153.3422" y="-117.4" font-family="Arial" font-size="14.00" fill="#000000"> 削除フラグ</text>
<polygon fill="none" stroke="#000000" points="46,-76 46,-106 436,-106 436,-76 46,-76"/>
<text text-anchor="start" x="53" y="-87.4" font-family="Arial" font-size="14.00" fill="#000000">mobile_phone_id </text>
<text text-anchor="start" x="163.4796" y="-87.4" font-family="Arial" font-size="14.00" fill="#666666">[text]</text>
<text text-anchor="start" x="193.8246" y="-87.4" font-family="Arial" font-size="14.00" fill="#000000"> 携帯端末ID</text>
<polygon fill="none" stroke="#000000" points="46,-46 46,-76 436,-76 436,-46 46,-46"/>
<text text-anchor="start" x="53" y="-57.4" font-family="Arial" font-size="14.00" fill="#000000">mailmaga_flg </text>
<text text-anchor="start" x="140.1178" y="-57.4" font-family="Arial" font-size="14.00" fill="#666666">[smallint]</text>
<text text-anchor="start" x="195.3352" y="-57.4" font-family="Arial" font-size="14.00" fill="#000000"> メールマガジン種別フラグ</text>
<polygon fill="none" stroke="#000000" stroke-width="3" points="44.5,-44.5 44.5,-1323.5 437.5,-1323.5 437.5,-44.5 44.5,-44.5"/>
</g>
</g>
</svg>
