<?xml version="1.0" encoding="UTF-8" standalone="no"?>
<!DOCTYPE svg PUBLIC "-//W3C//DTD SVG 1.1//EN"
 "http://www.w3.org/Graphics/SVG/1.1/DTD/svg11.dtd">
<!-- Generated by graphviz version 2.40.1 (20161225.0304)
 -->
<!-- Title: public.dtb_tax_rule Pages: 1 -->
<svg width="530pt" height="536pt"
 viewBox="0.00 0.00 530.00 536.00" xmlns="http://www.w3.org/2000/svg" xmlns:xlink="http://www.w3.org/1999/xlink">
<g id="graph0" class="graph" transform="scale(1 1) rotate(0) translate(4 532)">
<title>public.dtb_tax_rule</title>
<polygon fill="#ffffff" stroke="transparent" points="-4,4 -4,-532 526,-532 526,4 -4,4"/>
<!-- public.dtb_tax_rule -->
<g id="node1" class="node">
<title>public.dtb_tax_rule</title>
<polygon fill="#efefef" stroke="transparent" points="46,-436 46,-482 476,-482 476,-436 46,-436"/>
<polygon fill="none" stroke="#000000" points="46,-436 46,-482 476,-482 476,-436 46,-436"/>
<text text-anchor="start" x="136.8514" y="-459.8" font-family="Arial Bold" font-size="18.00" fill="#000000">public.dtb_tax_rule</text>
<text text-anchor="start" x="287.8948" y="-459.8" font-family="Arial" font-size="14.00" fill="#000000"> </text>
<text text-anchor="start" x="291.7854" y="-459.8" font-family="Arial" font-size="14.00" fill="#666666">[BASE TABLE]</text>
<text text-anchor="start" x="178.9299" y="-445.4" font-family="Arial" font-size="14.00" fill="#333333">【2.13】消費税ルール</text>
<polygon fill="none" stroke="#000000" points="46,-406 46,-436 476,-436 476,-406 46,-406"/>
<text text-anchor="start" x="53" y="-417.4" font-family="Arial" font-size="14.00" fill="#000000">tax_rule_id </text>
<text text-anchor="start" x="125.3506" y="-417.4" font-family="Arial" font-size="14.00" fill="#666666">[integer]</text>
<text text-anchor="start" x="175.92" y="-417.4" font-family="Arial" font-size="14.00" fill="#000000"> 税率ID</text>
<polygon fill="none" stroke="#000000" points="46,-376 46,-406 476,-406 476,-376 46,-376"/>
<text text-anchor="start" x="53" y="-387.4" font-family="Arial" font-size="14.00" fill="#000000">country_id </text>
<text text-anchor="start" x="121.4614" y="-387.4" font-family="Arial" font-size="14.00" fill="#666666">[integer]</text>
<text text-anchor="start" x="172.0308" y="-387.4" font-family="Arial" font-size="14.00" fill="#000000"> 国ID</text>
<polygon fill="none" stroke="#000000" points="46,-346 46,-376 476,-376 476,-346 46,-346"/>
<text text-anchor="start" x="53" y="-357.4" font-family="Arial" font-size="14.00" fill="#000000">pref_id </text>
<text text-anchor="start" x="99.6788" y="-357.4" font-family="Arial" font-size="14.00" fill="#666666">[integer]</text>
<text text-anchor="start" x="150.2482" y="-357.4" font-family="Arial" font-size="14.00" fill="#000000"> 地域ID</text>
<polygon fill="none" stroke="#000000" points="46,-316 46,-346 476,-346 476,-316 46,-316"/>
<text text-anchor="start" x="53" y="-327.4" font-family="Arial" font-size="14.00" fill="#000000">product_id </text>
<text text-anchor="start" x="122.244" y="-327.4" font-family="Arial" font-size="14.00" fill="#666666">[integer]</text>
<text text-anchor="start" x="172.8134" y="-327.4" font-family="Arial" font-size="14.00" fill="#000000"> 商品ID</text>
<polygon fill="none" stroke="#000000" points="46,-286 46,-316 476,-316 476,-286 46,-286"/>
<text text-anchor="start" x="53" y="-297.4" font-family="Arial" font-size="14.00" fill="#000000">product_class_id </text>
<text text-anchor="start" x="161.9158" y="-297.4" font-family="Arial" font-size="14.00" fill="#666666">[integer]</text>
<text text-anchor="start" x="212.4852" y="-297.4" font-family="Arial" font-size="14.00" fill="#000000"> 商品規格ID</text>
<polygon fill="none" stroke="#000000" points="46,-256 46,-286 476,-286 476,-256 46,-256"/>
<text text-anchor="start" x="52.9152" y="-267.4" font-family="Arial" font-size="14.00" fill="#000000">calc_rule </text>
<text text-anchor="start" x="112.81" y="-267.4" font-family="Arial" font-size="14.00" fill="#666666">[smallint]</text>
<text text-anchor="start" x="168.0274" y="-267.4" font-family="Arial" font-size="14.00" fill="#000000"> 課税規則（四捨五入、切り上げ、切り捨て）</text>
<polygon fill="none" stroke="#000000" points="46,-226 46,-256 476,-256 476,-226 46,-226"/>
<text text-anchor="start" x="53" y="-237.4" font-family="Arial" font-size="14.00" fill="#000000">tax_rate </text>
<text text-anchor="start" x="107.4628" y="-237.4" font-family="Arial" font-size="14.00" fill="#666666">[numeric]</text>
<text text-anchor="start" x="165.0196" y="-237.4" font-family="Arial" font-size="14.00" fill="#000000"> 消費税率</text>
<polygon fill="none" stroke="#000000" points="46,-196 46,-226 476,-226 476,-196 46,-196"/>
<text text-anchor="start" x="53" y="-207.4" font-family="Arial" font-size="14.00" fill="#000000">tax_adjust </text>
<text text-anchor="start" x="120.6914" y="-207.4" font-family="Arial" font-size="14.00" fill="#666666">[numeric]</text>
<text text-anchor="start" x="178.2482" y="-207.4" font-family="Arial" font-size="14.00" fill="#000000"> 固定金額</text>
<polygon fill="none" stroke="#000000" points="46,-166 46,-196 476,-196 476,-166 46,-166"/>
<text text-anchor="start" x="53" y="-177.4" font-family="Arial" font-size="14.00" fill="#000000">apply_date </text>
<text text-anchor="start" x="125.366" y="-177.4" font-family="Arial" font-size="14.00" fill="#666666">[timestamp without time zone]</text>
<text text-anchor="start" x="310.5062" y="-177.4" font-family="Arial" font-size="14.00" fill="#000000"> 適用日</text>
<polygon fill="none" stroke="#000000" points="46,-136 46,-166 476,-166 476,-136 46,-136"/>
<text text-anchor="start" x="53" y="-147.4" font-family="Arial" font-size="14.00" fill="#000000">member_id </text>
<text text-anchor="start" x="126.892" y="-147.4" font-family="Arial" font-size="14.00" fill="#666666">[integer]</text>
<text text-anchor="start" x="177.4614" y="-147.4" font-family="Arial" font-size="14.00" fill="#000000"> 作成者ID</text>
<polygon fill="none" stroke="#000000" points="46,-106 46,-136 476,-136 476,-106 46,-106"/>
<text text-anchor="start" x="53" y="-117.4" font-family="Arial" font-size="14.00" fill="#000000">del_flg </text>
<text text-anchor="start" x="98.1248" y="-117.4" font-family="Arial" font-size="14.00" fill="#666666">[smallint]</text>
<text text-anchor="start" x="153.3422" y="-117.4" font-family="Arial" font-size="14.00" fill="#000000"> 削除フラグ</text>
<polygon fill="none" stroke="#000000" points="46,-76 46,-106 476,-106 476,-76 46,-76"/>
<text text-anchor="start" x="53" y="-87.4" font-family="Arial" font-size="14.00" fill="#000000">create_date </text>
<text text-anchor="start" x="130.8106" y="-87.4" font-family="Arial" font-size="14.00" fill="#666666">[timestamp without time zone]</text>
<text text-anchor="start" x="315.9508" y="-87.4" font-family="Arial" font-size="14.00" fill="#000000"> 作成日時</text>
<polygon fill="none" stroke="#000000" points="46,-46 46,-76 476,-76 476,-46 46,-46"/>
<text text-anchor="start" x="53" y="-57.4" font-family="Arial" font-size="14.00" fill="#000000">update_date </text>
<text text-anchor="start" x="134.7152" y="-57.4" font-family="Arial" font-size="14.00" fill="#666666">[timestamp without time zone]</text>
<text text-anchor="start" x="319.8554" y="-57.4" font-family="Arial" font-size="14.00" fill="#000000"> 更新日時</text>
<polygon fill="none" stroke="#000000" stroke-width="3" points="44.5,-44.5 44.5,-483.5 477.5,-483.5 477.5,-44.5 44.5,-44.5"/>
</g>
</g>
</svg>
