<?xml version="1.0" encoding="UTF-8" standalone="no"?>
<!DOCTYPE svg PUBLIC "-//W3C//DTD SVG 1.1//EN"
 "http://www.w3.org/Graphics/SVG/1.1/DTD/svg11.dtd">
<!-- Generated by graphviz version 2.40.1 (20161225.0304)
 -->
<!-- Title: public.dtb_module Pages: 1 -->
<svg width="1387pt" height="1424pt"
 viewBox="0.00 0.00 1387.00 1424.00" xmlns="http://www.w3.org/2000/svg" xmlns:xlink="http://www.w3.org/1999/xlink">
<g id="graph0" class="graph" transform="scale(1 1) rotate(0) translate(4 1420)">
<title>public.dtb_module</title>
<polygon fill="#ffffff" stroke="transparent" points="-4,4 -4,-1420 1383,-1420 1383,4 -4,4"/>
<!-- public.dtb_module -->
<g id="node1" class="node">
<title>public.dtb_module</title>
<polygon fill="#efefef" stroke="transparent" points="507.5,-286 507.5,-332 848.5,-332 848.5,-286 507.5,-286"/>
<polygon fill="none" stroke="#000000" points="507.5,-286 507.5,-332 848.5,-332 848.5,-286 507.5,-286"/>
<text text-anchor="start" x="556.3525" y="-309.8" font-family="Arial Bold" font-size="18.00" fill="#000000">public.dtb_module</text>
<text text-anchor="start" x="702.3937" y="-309.8" font-family="Arial" font-size="14.00" fill="#000000"> </text>
<text text-anchor="start" x="706.2843" y="-309.8" font-family="Arial" font-size="14.00" fill="#666666">[BASE TABLE]</text>
<text text-anchor="start" x="621.482" y="-295.4" font-family="Arial" font-size="14.00" fill="#333333">モジュール情報</text>
<polygon fill="none" stroke="#000000" points="507.5,-256 507.5,-286 848.5,-286 848.5,-256 507.5,-256"/>
<text text-anchor="start" x="514.5" y="-267.4" font-family="Arial" font-size="14.00" fill="#000000">module_id </text>
<text text-anchor="start" x="582.96" y="-267.4" font-family="Arial" font-size="14.00" fill="#666666">[integer]</text>
<text text-anchor="start" x="633.5294" y="-267.4" font-family="Arial" font-size="14.00" fill="#000000"> モジュールID</text>
<polygon fill="none" stroke="#000000" points="507.5,-226 507.5,-256 848.5,-256 848.5,-226 507.5,-226"/>
<text text-anchor="start" x="514.5" y="-237.4" font-family="Arial" font-size="14.00" fill="#000000">module_code </text>
<text text-anchor="start" x="602.4186" y="-237.4" font-family="Arial" font-size="14.00" fill="#666666">[text]</text>
<text text-anchor="start" x="632.7636" y="-237.4" font-family="Arial" font-size="14.00" fill="#000000"> モジュールコード</text>
<polygon fill="none" stroke="#000000" points="507.5,-196 507.5,-226 848.5,-226 848.5,-196 507.5,-196"/>
<text text-anchor="start" x="514.5" y="-207.4" font-family="Arial" font-size="14.00" fill="#000000">module_name </text>
<text text-anchor="start" x="607.0792" y="-207.4" font-family="Arial" font-size="14.00" fill="#666666">[text]</text>
<text text-anchor="start" x="637.4242" y="-207.4" font-family="Arial" font-size="14.00" fill="#000000"> モジュール名</text>
<polygon fill="none" stroke="#000000" points="507.5,-166 507.5,-196 848.5,-196 848.5,-166 507.5,-166"/>
<text text-anchor="start" x="514.5" y="-177.4" font-family="Arial" font-size="14.00" fill="#000000">sub_data </text>
<text text-anchor="start" x="575.9768" y="-177.4" font-family="Arial" font-size="14.00" fill="#666666">[text]</text>
<text text-anchor="start" x="606.3218" y="-177.4" font-family="Arial" font-size="14.00" fill="#000000"> データ</text>
<polygon fill="none" stroke="#000000" points="507.5,-136 507.5,-166 848.5,-166 848.5,-136 507.5,-136"/>
<text text-anchor="start" x="514.5" y="-147.4" font-family="Arial" font-size="14.00" fill="#000000">auto_update_flg </text>
<text text-anchor="start" x="618.7776" y="-147.4" font-family="Arial" font-size="14.00" fill="#666666">[smallint]</text>
<text text-anchor="start" x="673.995" y="-147.4" font-family="Arial" font-size="14.00" fill="#000000"> 自動更新フラグ</text>
<polygon fill="none" stroke="#000000" points="507.5,-106 507.5,-136 848.5,-136 848.5,-106 507.5,-106"/>
<text text-anchor="start" x="514.5" y="-117.4" font-family="Arial" font-size="14.00" fill="#000000">del_flg </text>
<text text-anchor="start" x="559.6248" y="-117.4" font-family="Arial" font-size="14.00" fill="#666666">[smallint]</text>
<text text-anchor="start" x="614.8422" y="-117.4" font-family="Arial" font-size="14.00" fill="#000000"> 削除フラグ</text>
<polygon fill="none" stroke="#000000" points="507.5,-76 507.5,-106 848.5,-106 848.5,-76 507.5,-76"/>
<text text-anchor="start" x="514.235" y="-87.4" font-family="Arial" font-size="14.00" fill="#000000">create_date </text>
<text text-anchor="start" x="592.0456" y="-87.4" font-family="Arial" font-size="14.00" fill="#666666">[timestamp without time zone]</text>
<text text-anchor="start" x="777.1858" y="-87.4" font-family="Arial" font-size="14.00" fill="#000000"> 作成日時</text>
<polygon fill="none" stroke="#000000" points="507.5,-46 507.5,-76 848.5,-76 848.5,-46 507.5,-46"/>
<text text-anchor="start" x="514.5" y="-57.4" font-family="Arial" font-size="14.00" fill="#000000">update_date </text>
<text text-anchor="start" x="596.2152" y="-57.4" font-family="Arial" font-size="14.00" fill="#666666">[timestamp without time zone]</text>
<text text-anchor="start" x="781.3554" y="-57.4" font-family="Arial" font-size="14.00" fill="#000000"> 更新日時</text>
<polygon fill="none" stroke="#000000" stroke-width="3" points="505.5,-44.5 505.5,-333.5 849.5,-333.5 849.5,-44.5 505.5,-44.5"/>
</g>
<!-- public.dtb_payment -->
<g id="node2" class="node">
<title>public.dtb_payment</title>
<polygon fill="#efefef" stroke="transparent" points="43.5,-1327 43.5,-1373 384.5,-1373 384.5,-1327 43.5,-1327"/>
<polygon fill="none" stroke="#000000" points="43.5,-1327 43.5,-1373 384.5,-1373 384.5,-1327 43.5,-1327"/>
<text text-anchor="start" x="87.3485" y="-1350.8" font-family="Arial Bold" font-size="18.00" fill="#000000">public.dtb_payment</text>
<text text-anchor="start" x="243.3977" y="-1350.8" font-family="Arial" font-size="14.00" fill="#000000"> </text>
<text text-anchor="start" x="247.2883" y="-1350.8" font-family="Arial" font-size="14.00" fill="#666666">[BASE TABLE]</text>
<text text-anchor="start" x="173.1529" y="-1336.4" font-family="Arial" font-size="14.00" fill="#333333">支払方法情報</text>
<polygon fill="none" stroke="#000000" points="43.5,-1297 43.5,-1327 384.5,-1327 384.5,-1297 43.5,-1297"/>
<text text-anchor="start" x="50.5" y="-1308.4" font-family="Arial" font-size="14.00" fill="#000000">payment_id </text>
<text text-anchor="start" x="126.744" y="-1308.4" font-family="Arial" font-size="14.00" fill="#666666">[integer]</text>
<text text-anchor="start" x="177.3134" y="-1308.4" font-family="Arial" font-size="14.00" fill="#000000"> 支払方法ID</text>
<polygon fill="none" stroke="#000000" points="43.5,-1267 43.5,-1297 384.5,-1297 384.5,-1267 43.5,-1267"/>
<text text-anchor="start" x="50.5" y="-1278.4" font-family="Arial" font-size="14.00" fill="#000000">payment_method </text>
<text text-anchor="start" x="162.5364" y="-1278.4" font-family="Arial" font-size="14.00" fill="#666666">[text]</text>
<text text-anchor="start" x="192.8814" y="-1278.4" font-family="Arial" font-size="14.00" fill="#000000"> 支払方法</text>
<polygon fill="none" stroke="#000000" points="43.5,-1237 43.5,-1267 384.5,-1267 384.5,-1237 43.5,-1237"/>
<text text-anchor="start" x="50.5" y="-1248.4" font-family="Arial" font-size="14.00" fill="#000000">charge </text>
<text text-anchor="start" x="97.1816" y="-1248.4" font-family="Arial" font-size="14.00" fill="#666666">[numeric]</text>
<text text-anchor="start" x="154.7384" y="-1248.4" font-family="Arial" font-size="14.00" fill="#000000"> 手数料</text>
<polygon fill="none" stroke="#000000" points="43.5,-1207 43.5,-1237 384.5,-1237 384.5,-1207 43.5,-1207"/>
<text text-anchor="start" x="50.5" y="-1218.4" font-family="Arial" font-size="14.00" fill="#000000">rule_max </text>
<text text-anchor="start" x="111.9488" y="-1218.4" font-family="Arial" font-size="14.00" fill="#666666">[numeric]</text>
<text text-anchor="start" x="169.5056" y="-1218.4" font-family="Arial" font-size="14.00" fill="#000000"> 利用条件(円以上)</text>
<polygon fill="none" stroke="#000000" points="43.5,-1177 43.5,-1207 384.5,-1207 384.5,-1177 43.5,-1177"/>
<text text-anchor="start" x="50.5" y="-1188.4" font-family="Arial" font-size="14.00" fill="#000000">rank </text>
<text text-anchor="start" x="81.6164" y="-1188.4" font-family="Arial" font-size="14.00" fill="#666666">[integer]</text>
<text text-anchor="start" x="132.1858" y="-1188.4" font-family="Arial" font-size="14.00" fill="#000000"> 表示順</text>
<polygon fill="none" stroke="#000000" points="43.5,-1147 43.5,-1177 384.5,-1177 384.5,-1147 43.5,-1147"/>
<text text-anchor="start" x="50.5" y="-1158.4" font-family="Arial" font-size="14.00" fill="#000000">note </text>
<text text-anchor="start" x="81.629" y="-1158.4" font-family="Arial" font-size="14.00" fill="#666666">[text]</text>
<text text-anchor="start" x="111.974" y="-1158.4" font-family="Arial" font-size="14.00" fill="#000000"> 備考</text>
<polygon fill="none" stroke="#000000" points="43.5,-1117 43.5,-1147 384.5,-1147 384.5,-1117 43.5,-1117"/>
<text text-anchor="start" x="50.5" y="-1128.4" font-family="Arial" font-size="14.00" fill="#000000">fix </text>
<text text-anchor="start" x="68.3878" y="-1128.4" font-family="Arial" font-size="14.00" fill="#666666">[smallint]</text>
<text text-anchor="start" x="123.6052" y="-1128.4" font-family="Arial" font-size="14.00" fill="#000000"> 固定:1　自由設定:2</text>
<polygon fill="none" stroke="#000000" points="43.5,-1087 43.5,-1117 384.5,-1117 384.5,-1087 43.5,-1087"/>
<text text-anchor="start" x="50.5" y="-1098.4" font-family="Arial" font-size="14.00" fill="#000000">status </text>
<text text-anchor="start" x="91.737" y="-1098.4" font-family="Arial" font-size="14.00" fill="#666666">[smallint]</text>
<text text-anchor="start" x="146.9544" y="-1098.4" font-family="Arial" font-size="14.00" fill="#000000"> 状態</text>
<polygon fill="none" stroke="#000000" points="43.5,-1057 43.5,-1087 384.5,-1087 384.5,-1057 43.5,-1057"/>
<text text-anchor="start" x="50.5" y="-1068.4" font-family="Arial" font-size="14.00" fill="#000000">del_flg </text>
<text text-anchor="start" x="95.6248" y="-1068.4" font-family="Arial" font-size="14.00" fill="#666666">[smallint]</text>
<text text-anchor="start" x="150.8422" y="-1068.4" font-family="Arial" font-size="14.00" fill="#000000"> 削除フラグ</text>
<polygon fill="none" stroke="#000000" points="43.5,-1027 43.5,-1057 384.5,-1057 384.5,-1027 43.5,-1027"/>
<text text-anchor="start" x="50.5" y="-1038.4" font-family="Arial" font-size="14.00" fill="#000000">creator_id </text>
<text text-anchor="start" x="116.622" y="-1038.4" font-family="Arial" font-size="14.00" fill="#666666">[integer]</text>
<text text-anchor="start" x="167.1914" y="-1038.4" font-family="Arial" font-size="14.00" fill="#000000"> 作成者ID</text>
<polygon fill="none" stroke="#000000" points="43.5,-997 43.5,-1027 384.5,-1027 384.5,-997 43.5,-997"/>
<text text-anchor="start" x="50.235" y="-1008.4" font-family="Arial" font-size="14.00" fill="#000000">create_date </text>
<text text-anchor="start" x="128.0456" y="-1008.4" font-family="Arial" font-size="14.00" fill="#666666">[timestamp without time zone]</text>
<text text-anchor="start" x="313.1858" y="-1008.4" font-family="Arial" font-size="14.00" fill="#000000"> 作成日時</text>
<polygon fill="none" stroke="#000000" points="43.5,-967 43.5,-997 384.5,-997 384.5,-967 43.5,-967"/>
<text text-anchor="start" x="50.5" y="-978.4" font-family="Arial" font-size="14.00" fill="#000000">update_date </text>
<text text-anchor="start" x="132.2152" y="-978.4" font-family="Arial" font-size="14.00" fill="#666666">[timestamp without time zone]</text>
<text text-anchor="start" x="317.3554" y="-978.4" font-family="Arial" font-size="14.00" fill="#000000"> 更新日時</text>
<polygon fill="none" stroke="#000000" points="43.5,-937 43.5,-967 384.5,-967 384.5,-937 43.5,-937"/>
<text text-anchor="start" x="50.5" y="-948.4" font-family="Arial" font-size="14.00" fill="#000000">payment_image </text>
<text text-anchor="start" x="153.9698" y="-948.4" font-family="Arial" font-size="14.00" fill="#666666">[text]</text>
<text text-anchor="start" x="184.3148" y="-948.4" font-family="Arial" font-size="14.00" fill="#000000"> 支払方法ロゴ</text>
<polygon fill="none" stroke="#000000" points="43.5,-907 43.5,-937 384.5,-937 384.5,-907 43.5,-907"/>
<text text-anchor="start" x="50.5" y="-918.4" font-family="Arial" font-size="14.00" fill="#000000">upper_rule </text>
<text text-anchor="start" x="121.2966" y="-918.4" font-family="Arial" font-size="14.00" fill="#666666">[numeric]</text>
<text text-anchor="start" x="178.8534" y="-918.4" font-family="Arial" font-size="14.00" fill="#000000"> 利用条件(円以下)</text>
<polygon fill="none" stroke="#000000" points="43.5,-877 43.5,-907 384.5,-907 384.5,-877 43.5,-877"/>
<text text-anchor="start" x="50.5" y="-888.4" font-family="Arial" font-size="14.00" fill="#000000">charge_flg </text>
<text text-anchor="start" x="119.744" y="-888.4" font-family="Arial" font-size="14.00" fill="#666666">[smallint]</text>
<text text-anchor="start" x="174.9614" y="-888.4" font-family="Arial" font-size="14.00" fill="#000000"> 手数料設定フラグ</text>
<polygon fill="none" stroke="#000000" points="43.5,-847 43.5,-877 384.5,-877 384.5,-847 43.5,-847"/>
<text text-anchor="start" x="50.5" y="-858.4" font-family="Arial" font-size="14.00" fill="#000000">rule_min </text>
<text text-anchor="start" x="108.0554" y="-858.4" font-family="Arial" font-size="14.00" fill="#666666">[numeric]</text>
<text text-anchor="start" x="165.6122" y="-858.4" font-family="Arial" font-size="14.00" fill="#000000"> 利用条件(円以上)の下限</text>
<polygon fill="none" stroke="#000000" points="43.5,-817 43.5,-847 384.5,-847 384.5,-817 43.5,-817"/>
<text text-anchor="start" x="50.5" y="-828.4" font-family="Arial" font-size="14.00" fill="#000000">upper_rule_max </text>
<text text-anchor="start" x="155.5224" y="-828.4" font-family="Arial" font-size="14.00" fill="#666666">[numeric]</text>
<text text-anchor="start" x="213.0792" y="-828.4" font-family="Arial" font-size="14.00" fill="#000000"> 利用条件(円以下)の上限</text>
<polygon fill="none" stroke="#000000" points="43.5,-787 43.5,-817 384.5,-817 384.5,-787 43.5,-787"/>
<text text-anchor="start" x="50.5" y="-798.4" font-family="Arial" font-size="14.00" fill="#000000">module_id </text>
<text text-anchor="start" x="118.96" y="-798.4" font-family="Arial" font-size="14.00" fill="#666666">[integer]</text>
<text text-anchor="start" x="169.5294" y="-798.4" font-family="Arial" font-size="14.00" fill="#000000"> 追加モジュールID</text>
<polygon fill="none" stroke="#000000" points="43.5,-757 43.5,-787 384.5,-787 384.5,-757 43.5,-757"/>
<text text-anchor="start" x="50.5" y="-768.4" font-family="Arial" font-size="14.00" fill="#000000">module_path </text>
<text text-anchor="start" x="135.3092" y="-768.4" font-family="Arial" font-size="14.00" fill="#666666">[text]</text>
<text text-anchor="start" x="165.6542" y="-768.4" font-family="Arial" font-size="14.00" fill="#000000"> 追加モジュールパス</text>
<polygon fill="none" stroke="#000000" points="43.5,-727 43.5,-757 384.5,-757 384.5,-727 43.5,-727"/>
<text text-anchor="start" x="50.5" y="-738.4" font-family="Arial" font-size="14.00" fill="#000000">memo01 </text>
<text text-anchor="start" x="108.8422" y="-738.4" font-family="Arial" font-size="14.00" fill="#666666">[text]</text>
<text text-anchor="start" x="139.1872" y="-738.4" font-family="Arial" font-size="14.00" fill="#000000"> 汎用項目1</text>
<polygon fill="none" stroke="#000000" points="43.5,-697 43.5,-727 384.5,-727 384.5,-697 43.5,-697"/>
<text text-anchor="start" x="50.5" y="-708.4" font-family="Arial" font-size="14.00" fill="#000000">memo02 </text>
<text text-anchor="start" x="108.8422" y="-708.4" font-family="Arial" font-size="14.00" fill="#666666">[text]</text>
<text text-anchor="start" x="139.1872" y="-708.4" font-family="Arial" font-size="14.00" fill="#000000"> 汎用項目2</text>
<polygon fill="none" stroke="#000000" points="43.5,-667 43.5,-697 384.5,-697 384.5,-667 43.5,-667"/>
<text text-anchor="start" x="50.5" y="-678.4" font-family="Arial" font-size="14.00" fill="#000000">memo03 </text>
<text text-anchor="start" x="108.8422" y="-678.4" font-family="Arial" font-size="14.00" fill="#666666">[text]</text>
<text text-anchor="start" x="139.1872" y="-678.4" font-family="Arial" font-size="14.00" fill="#000000"> 汎用項目3</text>
<polygon fill="none" stroke="#000000" points="43.5,-637 43.5,-667 384.5,-667 384.5,-637 43.5,-637"/>
<text text-anchor="start" x="50.5" y="-648.4" font-family="Arial" font-size="14.00" fill="#000000">memo04 </text>
<text text-anchor="start" x="108.8422" y="-648.4" font-family="Arial" font-size="14.00" fill="#666666">[text]</text>
<text text-anchor="start" x="139.1872" y="-648.4" font-family="Arial" font-size="14.00" fill="#000000"> 汎用項目4</text>
<polygon fill="none" stroke="#000000" points="43.5,-607 43.5,-637 384.5,-637 384.5,-607 43.5,-607"/>
<text text-anchor="start" x="50.5" y="-618.4" font-family="Arial" font-size="14.00" fill="#000000">memo05 </text>
<text text-anchor="start" x="108.8422" y="-618.4" font-family="Arial" font-size="14.00" fill="#666666">[text]</text>
<text text-anchor="start" x="139.1872" y="-618.4" font-family="Arial" font-size="14.00" fill="#000000"> 汎用項目5</text>
<polygon fill="none" stroke="#000000" points="43.5,-577 43.5,-607 384.5,-607 384.5,-577 43.5,-577"/>
<text text-anchor="start" x="50.5" y="-588.4" font-family="Arial" font-size="14.00" fill="#000000">memo06 </text>
<text text-anchor="start" x="108.8422" y="-588.4" font-family="Arial" font-size="14.00" fill="#666666">[text]</text>
<text text-anchor="start" x="139.1872" y="-588.4" font-family="Arial" font-size="14.00" fill="#000000"> 汎用項目6</text>
<polygon fill="none" stroke="#000000" points="43.5,-547 43.5,-577 384.5,-577 384.5,-547 43.5,-547"/>
<text text-anchor="start" x="50.5" y="-558.4" font-family="Arial" font-size="14.00" fill="#000000">memo07 </text>
<text text-anchor="start" x="108.8422" y="-558.4" font-family="Arial" font-size="14.00" fill="#666666">[text]</text>
<text text-anchor="start" x="139.1872" y="-558.4" font-family="Arial" font-size="14.00" fill="#000000"> 汎用項目7</text>
<polygon fill="none" stroke="#000000" points="43.5,-517 43.5,-547 384.5,-547 384.5,-517 43.5,-517"/>
<text text-anchor="start" x="50.5" y="-528.4" font-family="Arial" font-size="14.00" fill="#000000">memo08 </text>
<text text-anchor="start" x="108.8422" y="-528.4" font-family="Arial" font-size="14.00" fill="#666666">[text]</text>
<text text-anchor="start" x="139.1872" y="-528.4" font-family="Arial" font-size="14.00" fill="#000000"> 汎用項目8</text>
<polygon fill="none" stroke="#000000" points="43.5,-487 43.5,-517 384.5,-517 384.5,-487 43.5,-487"/>
<text text-anchor="start" x="50.5" y="-498.4" font-family="Arial" font-size="14.00" fill="#000000">memo09 </text>
<text text-anchor="start" x="108.8422" y="-498.4" font-family="Arial" font-size="14.00" fill="#666666">[text]</text>
<text text-anchor="start" x="139.1872" y="-498.4" font-family="Arial" font-size="14.00" fill="#000000"> 汎用項目9</text>
<polygon fill="none" stroke="#000000" points="43.5,-457 43.5,-487 384.5,-487 384.5,-457 43.5,-457"/>
<text text-anchor="start" x="50.5" y="-468.4" font-family="Arial" font-size="14.00" fill="#000000">memo10 </text>
<text text-anchor="start" x="108.8422" y="-468.4" font-family="Arial" font-size="14.00" fill="#666666">[text]</text>
<text text-anchor="start" x="139.1872" y="-468.4" font-family="Arial" font-size="14.00" fill="#000000"> 汎用項目10</text>
</g>
<!-- public.dtb_payment&#45;&gt;public.dtb_module -->
<g id="edge1" class="edge">
<title>public.dtb_payment:module_id&#45;&gt;public.dtb_module:module_id</title>
<path fill="none" stroke="#000000" stroke-dasharray="5,2" d="M394.4674,-800.4976C466.5619,-777.3631 410.9687,-493.7074 435.5,-414 456.4309,-345.9911 436.3431,-271 507.5,-271"/>
<polygon fill="#000000" stroke="#000000" points="394.3883,-800.5095 383.8293,-797.5503 389.4442,-801.2547 384.5,-802 384.5,-802 384.5,-802 389.4442,-801.2547 385.1707,-806.4497 394.3883,-800.5095 394.3883,-800.5095"/>
<text text-anchor="start" x="391.8245" y="-812" font-family="Arial" font-size="10.00" fill="#000000">Additional Relation</text>
</g>
<!-- public.dtb_update -->
<g id="node3" class="node">
<title>public.dtb_update</title>
<polygon fill="#efefef" stroke="transparent" points="488.5,-1102 488.5,-1148 867.5,-1148 867.5,-1102 488.5,-1102"/>
<polygon fill="none" stroke="#000000" points="488.5,-1102 488.5,-1148 867.5,-1148 867.5,-1102 488.5,-1102"/>
<text text-anchor="start" x="558.3415" y="-1125.8" font-family="Arial Bold" font-size="18.00" fill="#000000">public.dtb_update</text>
<text text-anchor="start" x="700.4047" y="-1125.8" font-family="Arial" font-size="14.00" fill="#000000"> </text>
<text text-anchor="start" x="704.2953" y="-1125.8" font-family="Arial" font-size="14.00" fill="#666666">[BASE TABLE]</text>
<text text-anchor="start" x="609.8102" y="-1111.4" font-family="Arial" font-size="14.00" fill="#333333">モジュール更新情報</text>
<polygon fill="none" stroke="#000000" points="488.5,-1072 488.5,-1102 867.5,-1102 867.5,-1072 488.5,-1072"/>
<text text-anchor="start" x="495.5" y="-1083.4" font-family="Arial" font-size="14.00" fill="#000000">module_id </text>
<text text-anchor="start" x="563.96" y="-1083.4" font-family="Arial" font-size="14.00" fill="#666666">[integer]</text>
<text text-anchor="start" x="614.5294" y="-1083.4" font-family="Arial" font-size="14.00" fill="#000000"> モジュールID</text>
<polygon fill="none" stroke="#000000" points="488.5,-1042 488.5,-1072 867.5,-1072 867.5,-1042 488.5,-1042"/>
<text text-anchor="start" x="495.5" y="-1053.4" font-family="Arial" font-size="14.00" fill="#000000">module_name </text>
<text text-anchor="start" x="588.0792" y="-1053.4" font-family="Arial" font-size="14.00" fill="#666666">[text]</text>
<text text-anchor="start" x="618.4242" y="-1053.4" font-family="Arial" font-size="14.00" fill="#000000"> モジュール名</text>
<polygon fill="none" stroke="#000000" points="488.5,-1012 488.5,-1042 867.5,-1042 867.5,-1012 488.5,-1012"/>
<text text-anchor="start" x="495.5" y="-1023.4" font-family="Arial" font-size="14.00" fill="#000000">now_version </text>
<text text-anchor="start" x="577.96" y="-1023.4" font-family="Arial" font-size="14.00" fill="#666666">[text]</text>
<text text-anchor="start" x="608.305" y="-1023.4" font-family="Arial" font-size="14.00" fill="#000000"> インストールバージョン</text>
<polygon fill="none" stroke="#000000" points="488.5,-982 488.5,-1012 867.5,-1012 867.5,-982 488.5,-982"/>
<text text-anchor="start" x="495.5" y="-993.4" font-family="Arial" font-size="14.00" fill="#000000">latest_version </text>
<text text-anchor="start" x="585.7412" y="-993.4" font-family="Arial" font-size="14.00" fill="#666666">[text]</text>
<text text-anchor="start" x="616.0862" y="-993.4" font-family="Arial" font-size="14.00" fill="#000000"> 最新バージョン</text>
<polygon fill="none" stroke="#000000" points="488.5,-952 488.5,-982 867.5,-982 867.5,-952 488.5,-952"/>
<text text-anchor="start" x="495.5" y="-963.4" font-family="Arial" font-size="14.00" fill="#000000">module_explain </text>
<text text-anchor="start" x="597.4144" y="-963.4" font-family="Arial" font-size="14.00" fill="#666666">[text]</text>
<text text-anchor="start" x="627.7594" y="-963.4" font-family="Arial" font-size="14.00" fill="#000000"> 機能説明</text>
<polygon fill="none" stroke="#000000" points="488.5,-922 488.5,-952 867.5,-952 867.5,-922 488.5,-922"/>
<text text-anchor="start" x="495.5" y="-933.4" font-family="Arial" font-size="14.00" fill="#000000">main_php </text>
<text text-anchor="start" x="560.8534" y="-933.4" font-family="Arial" font-size="14.00" fill="#666666">[text]</text>
<text text-anchor="start" x="591.1984" y="-933.4" font-family="Arial" font-size="14.00" fill="#000000"> 更新対象パス</text>
<polygon fill="none" stroke="#000000" points="488.5,-892 488.5,-922 867.5,-922 867.5,-892 488.5,-892"/>
<text text-anchor="start" x="495.5" y="-903.4" font-family="Arial" font-size="14.00" fill="#000000">extern_php </text>
<text text-anchor="start" x="569.42" y="-903.4" font-family="Arial" font-size="14.00" fill="#666666">[text]</text>
<text text-anchor="start" x="599.765" y="-903.4" font-family="Arial" font-size="14.00" fill="#000000"> 拡張対象パス</text>
<polygon fill="none" stroke="#000000" points="488.5,-862 488.5,-892 867.5,-892 867.5,-862 488.5,-862"/>
<text text-anchor="start" x="495.5" y="-873.4" font-family="Arial" font-size="14.00" fill="#000000">install_sql </text>
<text text-anchor="start" x="560.838" y="-873.4" font-family="Arial" font-size="14.00" fill="#666666">[text]</text>
<text text-anchor="start" x="591.183" y="-873.4" font-family="Arial" font-size="14.00" fill="#000000"> インストールSQL</text>
<polygon fill="none" stroke="#000000" points="488.5,-832 488.5,-862 867.5,-862 867.5,-832 488.5,-832"/>
<text text-anchor="start" x="495.5" y="-843.4" font-family="Arial" font-size="14.00" fill="#000000">uninstall_sql </text>
<text text-anchor="start" x="576.4032" y="-843.4" font-family="Arial" font-size="14.00" fill="#666666">[text]</text>
<text text-anchor="start" x="606.7482" y="-843.4" font-family="Arial" font-size="14.00" fill="#000000"> アンインストールSQL</text>
<polygon fill="none" stroke="#000000" points="488.5,-802 488.5,-832 867.5,-832 867.5,-802 488.5,-802"/>
<text text-anchor="start" x="495.5" y="-813.4" font-family="Arial" font-size="14.00" fill="#000000">other_files </text>
<text text-anchor="start" x="563.9586" y="-813.4" font-family="Arial" font-size="14.00" fill="#666666">[text]</text>
<text text-anchor="start" x="594.3036" y="-813.4" font-family="Arial" font-size="14.00" fill="#000000"> その他拡張ファイル名</text>
<polygon fill="none" stroke="#000000" points="488.5,-772 488.5,-802 867.5,-802 867.5,-772 488.5,-772"/>
<text text-anchor="start" x="495.5" y="-783.4" font-family="Arial" font-size="14.00" fill="#000000">del_flg </text>
<text text-anchor="start" x="540.6248" y="-783.4" font-family="Arial" font-size="14.00" fill="#666666">[smallint]</text>
<text text-anchor="start" x="595.8422" y="-783.4" font-family="Arial" font-size="14.00" fill="#000000"> 削除フラグ</text>
<polygon fill="none" stroke="#000000" points="488.5,-742 488.5,-772 867.5,-772 867.5,-742 488.5,-742"/>
<text text-anchor="start" x="495.5" y="-753.4" font-family="Arial" font-size="14.00" fill="#000000">create_date </text>
<text text-anchor="start" x="573.3106" y="-753.4" font-family="Arial" font-size="14.00" fill="#666666">[timestamp without time zone]</text>
<text text-anchor="start" x="758.4508" y="-753.4" font-family="Arial" font-size="14.00" fill="#000000"> 作成日時</text>
<polygon fill="none" stroke="#000000" points="488.5,-712 488.5,-742 867.5,-742 867.5,-712 488.5,-712"/>
<text text-anchor="start" x="495.5" y="-723.4" font-family="Arial" font-size="14.00" fill="#000000">update_date </text>
<text text-anchor="start" x="577.2152" y="-723.4" font-family="Arial" font-size="14.00" fill="#666666">[timestamp without time zone]</text>
<text text-anchor="start" x="762.3554" y="-723.4" font-family="Arial" font-size="14.00" fill="#000000"> 更新日時</text>
<polygon fill="none" stroke="#000000" points="488.5,-682 488.5,-712 867.5,-712 867.5,-682 488.5,-682"/>
<text text-anchor="start" x="495.3329" y="-693.4" font-family="Arial" font-size="14.00" fill="#000000">release_date </text>
<text text-anchor="start" x="580.1421" y="-693.4" font-family="Arial" font-size="14.00" fill="#666666">[timestamp without time zone]</text>
<text text-anchor="start" x="765.2823" y="-693.4" font-family="Arial" font-size="14.00" fill="#000000"> リリース日時</text>
</g>
<!-- public.dtb_update&#45;&gt;public.dtb_module -->
<g id="edge2" class="edge">
<title>public.dtb_update:module_id&#45;&gt;public.dtb_module:module_id</title>
<path fill="none" stroke="#000000" stroke-dasharray="5,2" d="M481.5192,-1079.6964C445.3512,-998.6846 464.6785,-271 507.5,-271"/>
<polygon fill="#000000" stroke="#000000" points="481.5905,-1079.7709 485.2469,-1090.1093 485.0452,-1083.3855 488.5,-1087 488.5,-1087 488.5,-1087 485.0452,-1083.3855 491.7531,-1083.8907 481.5905,-1079.7709 481.5905,-1079.7709"/>
<text text-anchor="start" x="398.8245" y="-1097" font-family="Arial" font-size="10.00" fill="#000000">Additional Relation</text>
</g>
<!-- public.dtb_module_update_logs -->
<g id="node4" class="node">
<title>public.dtb_module_update_logs</title>
<polygon fill="#efefef" stroke="transparent" points="971.5,-1012 971.5,-1058 1336.5,-1058 1336.5,-1012 971.5,-1012"/>
<polygon fill="none" stroke="#000000" points="971.5,-1012 971.5,-1058 1336.5,-1058 1336.5,-1012 971.5,-1012"/>
<text text-anchor="start" x="978.3264" y="-1035.8" font-family="Arial Bold" font-size="18.00" fill="#000000">public.dtb_module_update_logs</text>
<text text-anchor="start" x="1232.4198" y="-1035.8" font-family="Arial" font-size="14.00" fill="#000000"> </text>
<text text-anchor="start" x="1236.3104" y="-1035.8" font-family="Arial" font-size="14.00" fill="#666666">[BASE TABLE]</text>
<text text-anchor="start" x="1072.4654" y="-1021.4" font-family="Arial" font-size="14.00" fill="#333333">モジュール更新ログ情報</text>
<polygon fill="none" stroke="#000000" points="971.5,-982 971.5,-1012 1336.5,-1012 1336.5,-982 971.5,-982"/>
<text text-anchor="start" x="978.5" y="-993.4" font-family="Arial" font-size="14.00" fill="#000000">log_id </text>
<text text-anchor="start" x="1019.7342" y="-993.4" font-family="Arial" font-size="14.00" fill="#666666">[integer]</text>
<text text-anchor="start" x="1070.3036" y="-993.4" font-family="Arial" font-size="14.00" fill="#000000"> ログID</text>
<polygon fill="none" stroke="#000000" points="971.5,-952 971.5,-982 1336.5,-982 1336.5,-952 971.5,-952"/>
<text text-anchor="start" x="978.5" y="-963.4" font-family="Arial" font-size="14.00" fill="#000000">module_id </text>
<text text-anchor="start" x="1046.96" y="-963.4" font-family="Arial" font-size="14.00" fill="#666666">[integer]</text>
<text text-anchor="start" x="1097.5294" y="-963.4" font-family="Arial" font-size="14.00" fill="#000000"> モジュールID</text>
<polygon fill="none" stroke="#000000" points="971.5,-922 971.5,-952 1336.5,-952 1336.5,-922 971.5,-922"/>
<text text-anchor="start" x="978.5" y="-933.4" font-family="Arial" font-size="14.00" fill="#000000">buckup_path </text>
<text text-anchor="start" x="1062.542" y="-933.4" font-family="Arial" font-size="14.00" fill="#666666">[text]</text>
<text text-anchor="start" x="1092.887" y="-933.4" font-family="Arial" font-size="14.00" fill="#000000"> バックアップパス</text>
<polygon fill="none" stroke="#000000" points="971.5,-892 971.5,-922 1336.5,-922 1336.5,-892 971.5,-892"/>
<text text-anchor="start" x="978.5" y="-903.4" font-family="Arial" font-size="14.00" fill="#000000">error_flg </text>
<text text-anchor="start" x="1034.5" y="-903.4" font-family="Arial" font-size="14.00" fill="#666666">[smallint]</text>
<text text-anchor="start" x="1089.7174" y="-903.4" font-family="Arial" font-size="14.00" fill="#000000"> エラーフラグ</text>
<polygon fill="none" stroke="#000000" points="971.5,-862 971.5,-892 1336.5,-892 1336.5,-862 971.5,-862"/>
<text text-anchor="start" x="978.5" y="-873.4" font-family="Arial" font-size="14.00" fill="#000000">error </text>
<text text-anchor="start" x="1011.9376" y="-873.4" font-family="Arial" font-size="14.00" fill="#666666">[text]</text>
<text text-anchor="start" x="1042.2826" y="-873.4" font-family="Arial" font-size="14.00" fill="#000000"> エラーメッセージ</text>
<polygon fill="none" stroke="#000000" points="971.5,-832 971.5,-862 1336.5,-862 1336.5,-832 971.5,-832"/>
<text text-anchor="start" x="978.5" y="-843.4" font-family="Arial" font-size="14.00" fill="#000000">ok </text>
<text text-anchor="start" x="997.1732" y="-843.4" font-family="Arial" font-size="14.00" fill="#666666">[text]</text>
<text text-anchor="start" x="1027.5182" y="-843.4" font-family="Arial" font-size="14.00" fill="#000000"> 正常終了メッセージ</text>
<polygon fill="none" stroke="#000000" points="971.5,-802 971.5,-832 1336.5,-832 1336.5,-802 971.5,-802"/>
<text text-anchor="start" x="978.5" y="-813.4" font-family="Arial" font-size="14.00" fill="#000000">create_date </text>
<text text-anchor="start" x="1056.3106" y="-813.4" font-family="Arial" font-size="14.00" fill="#666666">[timestamp without time zone]</text>
<text text-anchor="start" x="1241.4508" y="-813.4" font-family="Arial" font-size="14.00" fill="#000000"> 作成日時</text>
<polygon fill="none" stroke="#000000" points="971.5,-772 971.5,-802 1336.5,-802 1336.5,-772 971.5,-772"/>
<text text-anchor="start" x="978.5" y="-783.4" font-family="Arial" font-size="14.00" fill="#000000">update_date </text>
<text text-anchor="start" x="1060.2152" y="-783.4" font-family="Arial" font-size="14.00" fill="#666666">[timestamp without time zone]</text>
<text text-anchor="start" x="1245.3554" y="-783.4" font-family="Arial" font-size="14.00" fill="#000000"> 更新日時</text>
</g>
<!-- public.dtb_module_update_logs&#45;&gt;public.dtb_module -->
<g id="edge3" class="edge">
<title>public.dtb_module_update_logs:module_id&#45;&gt;public.dtb_module:module_id</title>
<path fill="none" stroke="#000000" stroke-dasharray="5,2" d="M962.1457,-962.7227C912.5649,-914.3067 935.4714,-470.1117 919.5,-414 900.0744,-345.7526 919.4582,-271 848.5,-271"/>
<polygon fill="#000000" stroke="#000000" points="962.4056,-962.8415 969.6287,-971.0925 966.9528,-964.9208 971.5,-967 971.5,-967 971.5,-967 966.9528,-964.9208 973.3713,-962.9075 962.4056,-962.8415 962.4056,-962.8415"/>
<text text-anchor="start" x="881.8245" y="-977" font-family="Arial" font-size="10.00" fill="#000000">Additional Relation</text>
</g>
</g>
</svg>
