<?xml version="1.0" encoding="UTF-8" standalone="no"?>
<!DOCTYPE svg PUBLIC "-//W3C//DTD SVG 1.1//EN"
 "http://www.w3.org/Graphics/SVG/1.1/DTD/svg11.dtd">
<!-- Generated by graphviz version 2.40.1 (20161225.0304)
 -->
<!-- Title: public.dtb_pagelayout Pages: 1 -->
<svg width="441pt" height="596pt"
 viewBox="0.00 0.00 441.00 596.00" xmlns="http://www.w3.org/2000/svg" xmlns:xlink="http://www.w3.org/1999/xlink">
<g id="graph0" class="graph" transform="scale(1 1) rotate(0) translate(4 592)">
<title>public.dtb_pagelayout</title>
<polygon fill="#ffffff" stroke="transparent" points="-4,4 -4,-592 437,-592 437,4 -4,4"/>
<!-- public.dtb_pagelayout -->
<g id="node1" class="node">
<title>public.dtb_pagelayout</title>
<polygon fill="#efefef" stroke="transparent" points="46.5,-496 46.5,-542 387.5,-542 387.5,-496 46.5,-496"/>
<polygon fill="none" stroke="#000000" points="46.5,-496 46.5,-542 387.5,-542 387.5,-496 46.5,-496"/>
<text text-anchor="start" x="80.8382" y="-519.8" font-family="Arial Bold" font-size="18.00" fill="#000000">public.dtb_pagelayout</text>
<text text-anchor="start" x="255.908" y="-519.8" font-family="Arial" font-size="14.00" fill="#000000"> </text>
<text text-anchor="start" x="259.7986" y="-519.8" font-family="Arial" font-size="14.00" fill="#666666">[BASE TABLE]</text>
<text text-anchor="start" x="143.3803" y="-505.4" font-family="Arial" font-size="14.00" fill="#333333">ページレイアウト情報</text>
<polygon fill="none" stroke="#000000" points="46.5,-466 46.5,-496 387.5,-496 387.5,-466 46.5,-466"/>
<text text-anchor="start" x="53.5" y="-477.4" font-family="Arial" font-size="14.00" fill="#000000">device_type_id </text>
<text text-anchor="start" x="150.7552" y="-477.4" font-family="Arial" font-size="14.00" fill="#666666">[integer]</text>
<text text-anchor="start" x="201.3246" y="-477.4" font-family="Arial" font-size="14.00" fill="#000000"> 端末種別ID</text>
<polygon fill="none" stroke="#000000" points="46.5,-436 46.5,-466 387.5,-466 387.5,-436 46.5,-436"/>
<text text-anchor="start" x="53.5" y="-447.4" font-family="Arial" font-size="14.00" fill="#000000">page_id </text>
<text text-anchor="start" x="107.1928" y="-447.4" font-family="Arial" font-size="14.00" fill="#666666">[integer]</text>
<text text-anchor="start" x="157.7622" y="-447.4" font-family="Arial" font-size="14.00" fill="#000000"> ページID</text>
<polygon fill="none" stroke="#000000" points="46.5,-406 46.5,-436 387.5,-436 387.5,-406 46.5,-406"/>
<text text-anchor="start" x="53.5" y="-417.4" font-family="Arial" font-size="14.00" fill="#000000">page_name </text>
<text text-anchor="start" x="131.312" y="-417.4" font-family="Arial" font-size="14.00" fill="#666666">[text]</text>
<text text-anchor="start" x="161.657" y="-417.4" font-family="Arial" font-size="14.00" fill="#000000"> ページ名</text>
<polygon fill="none" stroke="#000000" points="46.5,-376 46.5,-406 387.5,-406 387.5,-376 46.5,-376"/>
<text text-anchor="start" x="53.5" y="-387.4" font-family="Arial" font-size="14.00" fill="#000000">url </text>
<text text-anchor="start" x="72.9404" y="-387.4" font-family="Arial" font-size="14.00" fill="#666666">[text]</text>
<text text-anchor="start" x="103.2854" y="-387.4" font-family="Arial" font-size="14.00" fill="#000000"> ページURL</text>
<polygon fill="none" stroke="#000000" points="46.5,-346 46.5,-376 387.5,-376 387.5,-346 46.5,-346"/>
<text text-anchor="start" x="53.5" y="-357.4" font-family="Arial" font-size="14.00" fill="#000000">filename </text>
<text text-anchor="start" x="110.2854" y="-357.4" font-family="Arial" font-size="14.00" fill="#666666">[text]</text>
<text text-anchor="start" x="140.6304" y="-357.4" font-family="Arial" font-size="14.00" fill="#000000"> ファイル名</text>
<polygon fill="none" stroke="#000000" points="46.5,-316 46.5,-346 387.5,-346 387.5,-316 46.5,-316"/>
<text text-anchor="start" x="53.5" y="-327.4" font-family="Arial" font-size="14.00" fill="#000000">header_chk </text>
<text text-anchor="start" x="130.5294" y="-327.4" font-family="Arial" font-size="14.00" fill="#666666">[smallint]</text>
<text text-anchor="start" x="185.7468" y="-327.4" font-family="Arial" font-size="14.00" fill="#000000"> ヘッダチェックフラグ</text>
<polygon fill="none" stroke="#000000" points="46.5,-286 46.5,-316 387.5,-316 387.5,-286 46.5,-286"/>
<text text-anchor="start" x="53.5" y="-297.4" font-family="Arial" font-size="14.00" fill="#000000">footer_chk </text>
<text text-anchor="start" x="122.7454" y="-297.4" font-family="Arial" font-size="14.00" fill="#666666">[smallint]</text>
<text text-anchor="start" x="177.9628" y="-297.4" font-family="Arial" font-size="14.00" fill="#000000"> フッタチェックフラグ</text>
<polygon fill="none" stroke="#000000" points="46.5,-256 46.5,-286 387.5,-286 387.5,-256 46.5,-256"/>
<text text-anchor="start" x="53.5" y="-267.4" font-family="Arial" font-size="14.00" fill="#000000">edit_flg </text>
<text text-anchor="start" x="102.5154" y="-267.4" font-family="Arial" font-size="14.00" fill="#666666">[smallint]</text>
<text text-anchor="start" x="157.7328" y="-267.4" font-family="Arial" font-size="14.00" fill="#000000"> 修正フラグ</text>
<polygon fill="none" stroke="#000000" points="46.5,-226 46.5,-256 387.5,-256 387.5,-226 46.5,-226"/>
<text text-anchor="start" x="53.5" y="-237.4" font-family="Arial" font-size="14.00" fill="#000000">author </text>
<text text-anchor="start" x="97.0722" y="-237.4" font-family="Arial" font-size="14.00" fill="#666666">[text]</text>
<text text-anchor="start" x="127.4172" y="-237.4" font-family="Arial" font-size="14.00" fill="#000000"> meta タグ(Author)</text>
<polygon fill="none" stroke="#000000" points="46.5,-196 46.5,-226 387.5,-226 387.5,-196 46.5,-196"/>
<text text-anchor="start" x="53.5" y="-207.4" font-family="Arial" font-size="14.00" fill="#000000">description </text>
<text text-anchor="start" x="125.068" y="-207.4" font-family="Arial" font-size="14.00" fill="#666666">[text]</text>
<text text-anchor="start" x="155.413" y="-207.4" font-family="Arial" font-size="14.00" fill="#000000"> meta タグ(Description)</text>
<polygon fill="none" stroke="#000000" points="46.5,-166 46.5,-196 387.5,-196 387.5,-166 46.5,-166"/>
<text text-anchor="start" x="53.5" y="-177.4" font-family="Arial" font-size="14.00" fill="#000000">keyword </text>
<text text-anchor="start" x="109.5056" y="-177.4" font-family="Arial" font-size="14.00" fill="#666666">[text]</text>
<text text-anchor="start" x="139.8506" y="-177.4" font-family="Arial" font-size="14.00" fill="#000000"> meta タグ(keyword)</text>
<polygon fill="none" stroke="#000000" points="46.5,-136 46.5,-166 387.5,-166 387.5,-136 46.5,-136"/>
<text text-anchor="start" x="53.5" y="-147.4" font-family="Arial" font-size="14.00" fill="#000000">update_url </text>
<text text-anchor="start" x="123.5266" y="-147.4" font-family="Arial" font-size="14.00" fill="#666666">[text]</text>
<text text-anchor="start" x="153.8716" y="-147.4" font-family="Arial" font-size="14.00" fill="#000000"> 更新実施URL</text>
<polygon fill="none" stroke="#000000" points="46.5,-106 46.5,-136 387.5,-136 387.5,-106 46.5,-106"/>
<text text-anchor="start" x="53.235" y="-117.4" font-family="Arial" font-size="14.00" fill="#000000">create_date </text>
<text text-anchor="start" x="131.0456" y="-117.4" font-family="Arial" font-size="14.00" fill="#666666">[timestamp without time zone]</text>
<text text-anchor="start" x="316.1858" y="-117.4" font-family="Arial" font-size="14.00" fill="#000000"> 作成日時</text>
<polygon fill="none" stroke="#000000" points="46.5,-76 46.5,-106 387.5,-106 387.5,-76 46.5,-76"/>
<text text-anchor="start" x="53.5" y="-87.4" font-family="Arial" font-size="14.00" fill="#000000">update_date </text>
<text text-anchor="start" x="135.2152" y="-87.4" font-family="Arial" font-size="14.00" fill="#666666">[timestamp without time zone]</text>
<text text-anchor="start" x="320.3554" y="-87.4" font-family="Arial" font-size="14.00" fill="#000000"> 更新日時</text>
<polygon fill="none" stroke="#000000" points="46.5,-46 46.5,-76 387.5,-76 387.5,-46 46.5,-46"/>
<text text-anchor="start" x="53.5" y="-57.4" font-family="Arial" font-size="14.00" fill="#000000">meta_robots </text>
<text text-anchor="start" x="135.1886" y="-57.4" font-family="Arial" font-size="14.00" fill="#666666">[text]</text>
<text text-anchor="start" x="165.5336" y="-57.4" font-family="Arial" font-size="14.00" fill="#000000"> 【2.13】meta タグ(robots)</text>
<polygon fill="none" stroke="#000000" stroke-width="3" points="44.5,-44.5 44.5,-543.5 388.5,-543.5 388.5,-44.5 44.5,-44.5"/>
</g>
</g>
</svg>
