<?xml version="1.0" encoding="UTF-8" standalone="no"?>
<!DOCTYPE svg PUBLIC "-//W3C//DTD SVG 1.1//EN"
 "http://www.w3.org/Graphics/SVG/1.1/DTD/svg11.dtd">
<!-- Generated by graphviz version 2.40.1 (20161225.0304)
 -->
<!-- Title: public.dtb_send_customer Pages: 1 -->
<svg width="503pt" height="1694pt"
 viewBox="0.00 0.00 503.00 1694.00" xmlns="http://www.w3.org/2000/svg" xmlns:xlink="http://www.w3.org/1999/xlink">
<g id="graph0" class="graph" transform="scale(1 1) rotate(0) translate(4 1690)">
<title>public.dtb_send_customer</title>
<polygon fill="#ffffff" stroke="transparent" points="-4,4 -4,-1690 499,-1690 499,4 -4,4"/>
<!-- public.dtb_send_customer -->
<g id="node1" class="node">
<title>public.dtb_send_customer</title>
<polygon fill="#efefef" stroke="transparent" points="77,-1594 77,-1640 398,-1640 398,-1594 77,-1594"/>
<polygon fill="none" stroke="#000000" points="77,-1594 77,-1640 398,-1640 398,-1594 77,-1594"/>
<text text-anchor="start" x="83.8431" y="-1617.8" font-family="Arial Bold" font-size="18.00" fill="#000000">public.dtb_send_customer</text>
<text text-anchor="start" x="293.9031" y="-1617.8" font-family="Arial" font-size="14.00" fill="#000000"> </text>
<text text-anchor="start" x="297.7937" y="-1617.8" font-family="Arial" font-size="14.00" fill="#666666">[BASE TABLE]</text>
<text text-anchor="start" x="155.8345" y="-1603.4" font-family="Arial" font-size="14.00" fill="#333333">顧客メール送信履歴</text>
<polygon fill="none" stroke="#000000" points="77,-1564 77,-1594 398,-1594 398,-1564 77,-1564"/>
<text text-anchor="start" x="84" y="-1575.4" font-family="Arial" font-size="14.00" fill="#000000">customer_id </text>
<text text-anchor="start" x="164.122" y="-1575.4" font-family="Arial" font-size="14.00" fill="#666666">[integer]</text>
<text text-anchor="start" x="214.6914" y="-1575.4" font-family="Arial" font-size="14.00" fill="#000000"> 顧客ID</text>
<polygon fill="none" stroke="#000000" points="77,-1534 77,-1564 398,-1564 398,-1534 77,-1534"/>
<text text-anchor="start" x="84" y="-1545.4" font-family="Arial" font-size="14.00" fill="#000000">send_id </text>
<text text-anchor="start" x="136.9102" y="-1545.4" font-family="Arial" font-size="14.00" fill="#666666">[integer]</text>
<text text-anchor="start" x="187.4796" y="-1545.4" font-family="Arial" font-size="14.00" fill="#000000"> 送信ID</text>
<polygon fill="none" stroke="#000000" points="77,-1504 77,-1534 398,-1534 398,-1504 77,-1504"/>
<text text-anchor="start" x="84" y="-1515.4" font-family="Arial" font-size="14.00" fill="#000000">email </text>
<text text-anchor="start" x="121.3296" y="-1515.4" font-family="Arial" font-size="14.00" fill="#666666">[text]</text>
<text text-anchor="start" x="151.6746" y="-1515.4" font-family="Arial" font-size="14.00" fill="#000000"> メールアドレス</text>
<polygon fill="none" stroke="#000000" points="77,-1474 77,-1504 398,-1504 398,-1474 77,-1474"/>
<text text-anchor="start" x="84" y="-1485.4" font-family="Arial" font-size="14.00" fill="#000000">name </text>
<text text-anchor="start" x="122.899" y="-1485.4" font-family="Arial" font-size="14.00" fill="#666666">[text]</text>
<text text-anchor="start" x="153.244" y="-1485.4" font-family="Arial" font-size="14.00" fill="#000000"> 名前</text>
<polygon fill="none" stroke="#000000" points="77,-1444 77,-1474 398,-1474 398,-1444 77,-1444"/>
<text text-anchor="start" x="84" y="-1455.4" font-family="Arial" font-size="14.00" fill="#000000">send_flag </text>
<text text-anchor="start" x="148.5834" y="-1455.4" font-family="Arial" font-size="14.00" fill="#666666">[smallint]</text>
<text text-anchor="start" x="203.8008" y="-1455.4" font-family="Arial" font-size="14.00" fill="#000000"> 送信フラグ</text>
<polygon fill="none" stroke="#000000" stroke-width="3" points="75,-1442.5 75,-1641.5 399,-1641.5 399,-1442.5 75,-1442.5"/>
</g>
<!-- public.dtb_customer -->
<g id="node2" class="node">
<title>public.dtb_customer</title>
<polygon fill="#efefef" stroke="transparent" points="43,-1273 43,-1319 433,-1319 433,-1273 43,-1273"/>
<polygon fill="none" stroke="#000000" points="43,-1273 43,-1319 433,-1319 433,-1273 43,-1273"/>
<text text-anchor="start" x="108.8555" y="-1296.8" font-family="Arial Bold" font-size="18.00" fill="#000000">public.dtb_customer</text>
<text text-anchor="start" x="269.8907" y="-1296.8" font-family="Arial" font-size="14.00" fill="#000000"> </text>
<text text-anchor="start" x="273.7813" y="-1296.8" font-family="Arial" font-size="14.00" fill="#666666">[BASE TABLE]</text>
<text text-anchor="start" x="203.3787" y="-1282.4" font-family="Arial" font-size="14.00" fill="#333333">顧客情報</text>
<polygon fill="none" stroke="#000000" points="43,-1243 43,-1273 433,-1273 433,-1243 43,-1243"/>
<text text-anchor="start" x="50" y="-1254.4" font-family="Arial" font-size="14.00" fill="#000000">customer_id </text>
<text text-anchor="start" x="130.122" y="-1254.4" font-family="Arial" font-size="14.00" fill="#666666">[integer]</text>
<text text-anchor="start" x="180.6914" y="-1254.4" font-family="Arial" font-size="14.00" fill="#000000"> 顧客ID</text>
<polygon fill="none" stroke="#000000" points="43,-1213 43,-1243 433,-1243 433,-1213 43,-1213"/>
<text text-anchor="start" x="50" y="-1224.4" font-family="Arial" font-size="14.00" fill="#000000">name01 </text>
<text text-anchor="start" x="104.4642" y="-1224.4" font-family="Arial" font-size="14.00" fill="#666666">[text]</text>
<text text-anchor="start" x="134.8092" y="-1224.4" font-family="Arial" font-size="14.00" fill="#000000"> 姓</text>
<polygon fill="none" stroke="#000000" points="43,-1183 43,-1213 433,-1213 433,-1183 43,-1183"/>
<text text-anchor="start" x="50" y="-1194.4" font-family="Arial" font-size="14.00" fill="#000000">name02 </text>
<text text-anchor="start" x="104.4642" y="-1194.4" font-family="Arial" font-size="14.00" fill="#666666">[text]</text>
<text text-anchor="start" x="134.8092" y="-1194.4" font-family="Arial" font-size="14.00" fill="#000000"> 名</text>
<polygon fill="none" stroke="#000000" points="43,-1153 43,-1183 433,-1183 433,-1153 43,-1153"/>
<text text-anchor="start" x="50" y="-1164.4" font-family="Arial" font-size="14.00" fill="#000000">kana01 </text>
<text text-anchor="start" x="99.8036" y="-1164.4" font-family="Arial" font-size="14.00" fill="#666666">[text]</text>
<text text-anchor="start" x="130.1486" y="-1164.4" font-family="Arial" font-size="14.00" fill="#000000"> 姓(カナ)</text>
<polygon fill="none" stroke="#000000" points="43,-1123 43,-1153 433,-1153 433,-1123 43,-1123"/>
<text text-anchor="start" x="50" y="-1134.4" font-family="Arial" font-size="14.00" fill="#000000">kana02 </text>
<text text-anchor="start" x="99.8036" y="-1134.4" font-family="Arial" font-size="14.00" fill="#666666">[text]</text>
<text text-anchor="start" x="130.1486" y="-1134.4" font-family="Arial" font-size="14.00" fill="#000000"> 名(カナ)</text>
<polygon fill="none" stroke="#000000" points="43,-1093 43,-1123 433,-1123 433,-1093 43,-1093"/>
<text text-anchor="start" x="50" y="-1104.4" font-family="Arial" font-size="14.00" fill="#000000">company_name </text>
<text text-anchor="start" x="153.4726" y="-1104.4" font-family="Arial" font-size="14.00" fill="#666666">[text]</text>
<text text-anchor="start" x="183.8176" y="-1104.4" font-family="Arial" font-size="14.00" fill="#000000"> 【2.13】国名</text>
<polygon fill="none" stroke="#000000" points="43,-1063 43,-1093 433,-1093 433,-1063 43,-1063"/>
<text text-anchor="start" x="50" y="-1074.4" font-family="Arial" font-size="14.00" fill="#000000">zip01 </text>
<text text-anchor="start" x="87.345" y="-1074.4" font-family="Arial" font-size="14.00" fill="#666666">[text]</text>
<text text-anchor="start" x="117.69" y="-1074.4" font-family="Arial" font-size="14.00" fill="#000000"> 郵便番号(4桁)</text>
<polygon fill="none" stroke="#000000" points="43,-1033 43,-1063 433,-1063 433,-1033 43,-1033"/>
<text text-anchor="start" x="50" y="-1044.4" font-family="Arial" font-size="14.00" fill="#000000">zip02 </text>
<text text-anchor="start" x="87.345" y="-1044.4" font-family="Arial" font-size="14.00" fill="#666666">[text]</text>
<text text-anchor="start" x="117.69" y="-1044.4" font-family="Arial" font-size="14.00" fill="#000000"> 郵便番号(3桁)</text>
<polygon fill="none" stroke="#000000" points="43,-1003 43,-1033 433,-1033 433,-1003 43,-1003"/>
<text text-anchor="start" x="50" y="-1014.4" font-family="Arial" font-size="14.00" fill="#000000">zipcode </text>
<text text-anchor="start" x="102.1276" y="-1014.4" font-family="Arial" font-size="14.00" fill="#666666">[text]</text>
<text text-anchor="start" x="132.4726" y="-1014.4" font-family="Arial" font-size="14.00" fill="#000000"> 【2.13】郵便番号(海外対応)</text>
<polygon fill="none" stroke="#000000" points="43,-973 43,-1003 433,-1003 433,-973 43,-973"/>
<text text-anchor="start" x="50" y="-984.4" font-family="Arial" font-size="14.00" fill="#000000">country_id </text>
<text text-anchor="start" x="118.4614" y="-984.4" font-family="Arial" font-size="14.00" fill="#666666">[integer]</text>
<text text-anchor="start" x="169.0308" y="-984.4" font-family="Arial" font-size="14.00" fill="#000000"> 【2.13】国ID</text>
<polygon fill="none" stroke="#000000" points="43,-943 43,-973 433,-973 433,-943 43,-943"/>
<text text-anchor="start" x="50" y="-954.4" font-family="Arial" font-size="14.00" fill="#000000">pref </text>
<text text-anchor="start" x="78.007" y="-954.4" font-family="Arial" font-size="14.00" fill="#666666">[smallint]</text>
<text text-anchor="start" x="133.2244" y="-954.4" font-family="Arial" font-size="14.00" fill="#000000"> 都道府県</text>
<polygon fill="none" stroke="#000000" points="43,-913 43,-943 433,-943 433,-913 43,-913"/>
<text text-anchor="start" x="50" y="-924.4" font-family="Arial" font-size="14.00" fill="#000000">addr01 </text>
<text text-anchor="start" x="97.4642" y="-924.4" font-family="Arial" font-size="14.00" fill="#666666">[text]</text>
<text text-anchor="start" x="127.8092" y="-924.4" font-family="Arial" font-size="14.00" fill="#000000"> 市区町村</text>
<polygon fill="none" stroke="#000000" points="43,-883 43,-913 433,-913 433,-883 43,-883"/>
<text text-anchor="start" x="50" y="-894.4" font-family="Arial" font-size="14.00" fill="#000000">addr02 </text>
<text text-anchor="start" x="97.4642" y="-894.4" font-family="Arial" font-size="14.00" fill="#666666">[text]</text>
<text text-anchor="start" x="127.8092" y="-894.4" font-family="Arial" font-size="14.00" fill="#000000"> 番地等</text>
<polygon fill="none" stroke="#000000" points="43,-853 43,-883 433,-883 433,-853 43,-853"/>
<text text-anchor="start" x="50" y="-864.4" font-family="Arial" font-size="14.00" fill="#000000">email </text>
<text text-anchor="start" x="87.3296" y="-864.4" font-family="Arial" font-size="14.00" fill="#666666">[text]</text>
<text text-anchor="start" x="117.6746" y="-864.4" font-family="Arial" font-size="14.00" fill="#000000"> メールアドレス</text>
<polygon fill="none" stroke="#000000" points="43,-823 43,-853 433,-853 433,-823 43,-823"/>
<text text-anchor="start" x="50" y="-834.4" font-family="Arial" font-size="14.00" fill="#000000">email_mobile </text>
<text text-anchor="start" x="136.3338" y="-834.4" font-family="Arial" font-size="14.00" fill="#666666">[text]</text>
<text text-anchor="start" x="166.6788" y="-834.4" font-family="Arial" font-size="14.00" fill="#000000"> 携帯メールアドレス</text>
<polygon fill="none" stroke="#000000" points="43,-793 43,-823 433,-823 433,-793 43,-793"/>
<text text-anchor="start" x="50" y="-804.4" font-family="Arial" font-size="14.00" fill="#000000">tel01 </text>
<text text-anchor="start" x="84.2356" y="-804.4" font-family="Arial" font-size="14.00" fill="#666666">[text]</text>
<text text-anchor="start" x="114.5806" y="-804.4" font-family="Arial" font-size="14.00" fill="#000000"> 電話(市外局番)</text>
<polygon fill="none" stroke="#000000" points="43,-763 43,-793 433,-793 433,-763 43,-763"/>
<text text-anchor="start" x="50" y="-774.4" font-family="Arial" font-size="14.00" fill="#000000">tel02 </text>
<text text-anchor="start" x="84.2356" y="-774.4" font-family="Arial" font-size="14.00" fill="#666666">[text]</text>
<text text-anchor="start" x="114.5806" y="-774.4" font-family="Arial" font-size="14.00" fill="#000000"> 電話(市内局番)</text>
<polygon fill="none" stroke="#000000" points="43,-733 43,-763 433,-763 433,-733 43,-733"/>
<text text-anchor="start" x="50" y="-744.4" font-family="Arial" font-size="14.00" fill="#000000">tel03 </text>
<text text-anchor="start" x="84.2356" y="-744.4" font-family="Arial" font-size="14.00" fill="#666666">[text]</text>
<text text-anchor="start" x="114.5806" y="-744.4" font-family="Arial" font-size="14.00" fill="#000000"> 電話(局番)</text>
<polygon fill="none" stroke="#000000" points="43,-703 43,-733 433,-733 433,-703 43,-703"/>
<text text-anchor="start" x="50" y="-714.4" font-family="Arial" font-size="14.00" fill="#000000">fax01 </text>
<text text-anchor="start" x="88.129" y="-714.4" font-family="Arial" font-size="14.00" fill="#666666">[text]</text>
<text text-anchor="start" x="118.474" y="-714.4" font-family="Arial" font-size="14.00" fill="#000000"> FAX(市外局番)</text>
<polygon fill="none" stroke="#000000" points="43,-673 43,-703 433,-703 433,-673 43,-673"/>
<text text-anchor="start" x="50" y="-684.4" font-family="Arial" font-size="14.00" fill="#000000">fax02 </text>
<text text-anchor="start" x="88.129" y="-684.4" font-family="Arial" font-size="14.00" fill="#666666">[text]</text>
<text text-anchor="start" x="118.474" y="-684.4" font-family="Arial" font-size="14.00" fill="#000000"> FAX(市内局番)</text>
<polygon fill="none" stroke="#000000" points="43,-643 43,-673 433,-673 433,-643 43,-643"/>
<text text-anchor="start" x="50" y="-654.4" font-family="Arial" font-size="14.00" fill="#000000">fax03 </text>
<text text-anchor="start" x="88.129" y="-654.4" font-family="Arial" font-size="14.00" fill="#666666">[text]</text>
<text text-anchor="start" x="118.474" y="-654.4" font-family="Arial" font-size="14.00" fill="#000000"> FAX(局番)</text>
<polygon fill="none" stroke="#000000" points="43,-613 43,-643 433,-643 433,-613 43,-613"/>
<text text-anchor="start" x="50" y="-624.4" font-family="Arial" font-size="14.00" fill="#000000">sex </text>
<text text-anchor="start" x="75.6732" y="-624.4" font-family="Arial" font-size="14.00" fill="#666666">[smallint]</text>
<text text-anchor="start" x="130.8906" y="-624.4" font-family="Arial" font-size="14.00" fill="#000000"> 性別</text>
<polygon fill="none" stroke="#000000" points="43,-583 43,-613 433,-613 433,-583 43,-583"/>
<text text-anchor="start" x="50" y="-594.4" font-family="Arial" font-size="14.00" fill="#000000">job </text>
<text text-anchor="start" x="72.5624" y="-594.4" font-family="Arial" font-size="14.00" fill="#666666">[smallint]</text>
<text text-anchor="start" x="127.7798" y="-594.4" font-family="Arial" font-size="14.00" fill="#000000"> 職業</text>
<polygon fill="none" stroke="#000000" points="43,-553 43,-583 433,-583 433,-553 43,-553"/>
<text text-anchor="start" x="50" y="-564.4" font-family="Arial" font-size="14.00" fill="#000000">birth </text>
<text text-anchor="start" x="81.1136" y="-564.4" font-family="Arial" font-size="14.00" fill="#666666">[timestamp without time zone]</text>
<text text-anchor="start" x="266.2538" y="-564.4" font-family="Arial" font-size="14.00" fill="#000000"> 生年月日</text>
<polygon fill="none" stroke="#000000" points="43,-523 43,-553 433,-553 433,-523 43,-523"/>
<text text-anchor="start" x="50" y="-534.4" font-family="Arial" font-size="14.00" fill="#000000">password </text>
<text text-anchor="start" x="113.7882" y="-534.4" font-family="Arial" font-size="14.00" fill="#666666">[text]</text>
<text text-anchor="start" x="144.1332" y="-534.4" font-family="Arial" font-size="14.00" fill="#000000"> パスワード</text>
<polygon fill="none" stroke="#000000" points="43,-493 43,-523 433,-523 433,-493 43,-493"/>
<text text-anchor="start" x="50" y="-504.4" font-family="Arial" font-size="14.00" fill="#000000">reminder </text>
<text text-anchor="start" x="109.1094" y="-504.4" font-family="Arial" font-size="14.00" fill="#666666">[smallint]</text>
<text text-anchor="start" x="164.3268" y="-504.4" font-family="Arial" font-size="14.00" fill="#000000"> パスワードの質問</text>
<polygon fill="none" stroke="#000000" points="43,-463 43,-493 433,-493 433,-463 43,-463"/>
<text text-anchor="start" x="50" y="-474.4" font-family="Arial" font-size="14.00" fill="#000000">reminder_answer </text>
<text text-anchor="start" x="162.007" y="-474.4" font-family="Arial" font-size="14.00" fill="#666666">[text]</text>
<text text-anchor="start" x="192.352" y="-474.4" font-family="Arial" font-size="14.00" fill="#000000"> パスワードの質問の答え</text>
<polygon fill="none" stroke="#000000" points="43,-433 43,-463 433,-463 433,-433 43,-433"/>
<text text-anchor="start" x="50" y="-444.4" font-family="Arial" font-size="14.00" fill="#000000">salt </text>
<text text-anchor="start" x="75.6704" y="-444.4" font-family="Arial" font-size="14.00" fill="#666666">[text]</text>
<text text-anchor="start" x="106.0154" y="-444.4" font-family="Arial" font-size="14.00" fill="#000000"> 暗号化付与文字列</text>
<polygon fill="none" stroke="#000000" points="43,-403 43,-433 433,-433 433,-403 43,-403"/>
<text text-anchor="start" x="50" y="-414.4" font-family="Arial" font-size="14.00" fill="#000000">secret_key </text>
<text text-anchor="start" x="121.5722" y="-414.4" font-family="Arial" font-size="14.00" fill="#666666">[text]</text>
<text text-anchor="start" x="151.9172" y="-414.4" font-family="Arial" font-size="14.00" fill="#000000"> 暗号化キー</text>
<polygon fill="none" stroke="#000000" points="43,-373 43,-403 433,-403 433,-373 43,-373"/>
<text text-anchor="start" x="49.7266" y="-384.4" font-family="Arial" font-size="14.00" fill="#000000">first_buy_date </text>
<text text-anchor="start" x="141.5344" y="-384.4" font-family="Arial" font-size="14.00" fill="#666666">[timestamp without time zone]</text>
<text text-anchor="start" x="326.6746" y="-384.4" font-family="Arial" font-size="14.00" fill="#000000"> 初回購入日時</text>
<polygon fill="none" stroke="#000000" points="43,-343 43,-373 433,-373 433,-343 43,-343"/>
<text text-anchor="start" x="50" y="-354.4" font-family="Arial" font-size="14.00" fill="#000000">last_buy_date </text>
<text text-anchor="start" x="141.0392" y="-354.4" font-family="Arial" font-size="14.00" fill="#666666">[timestamp without time zone]</text>
<text text-anchor="start" x="326.1794" y="-354.4" font-family="Arial" font-size="14.00" fill="#000000"> 最終購入日時</text>
<polygon fill="none" stroke="#000000" points="43,-313 43,-343 433,-343 433,-313 43,-313"/>
<text text-anchor="start" x="50" y="-324.4" font-family="Arial" font-size="14.00" fill="#000000">buy_times </text>
<text text-anchor="start" x="117.6788" y="-324.4" font-family="Arial" font-size="14.00" fill="#666666">[numeric]</text>
<text text-anchor="start" x="175.2356" y="-324.4" font-family="Arial" font-size="14.00" fill="#000000"> 購入回数</text>
<polygon fill="none" stroke="#000000" points="43,-283 43,-313 433,-313 433,-283 43,-283"/>
<text text-anchor="start" x="50" y="-294.4" font-family="Arial" font-size="14.00" fill="#000000">buy_total </text>
<text text-anchor="start" x="110.6914" y="-294.4" font-family="Arial" font-size="14.00" fill="#666666">[numeric]</text>
<text text-anchor="start" x="168.2482" y="-294.4" font-family="Arial" font-size="14.00" fill="#000000"> 購入累計金額</text>
<polygon fill="none" stroke="#000000" points="43,-253 43,-283 433,-283 433,-253 43,-253"/>
<text text-anchor="start" x="50" y="-264.4" font-family="Arial" font-size="14.00" fill="#000000">point </text>
<text text-anchor="start" x="84.2356" y="-264.4" font-family="Arial" font-size="14.00" fill="#666666">[numeric]</text>
<text text-anchor="start" x="141.7924" y="-264.4" font-family="Arial" font-size="14.00" fill="#000000"> 保持ポイント</text>
<polygon fill="none" stroke="#000000" points="43,-223 43,-253 433,-253 433,-223 43,-223"/>
<text text-anchor="start" x="50" y="-234.4" font-family="Arial" font-size="14.00" fill="#000000">note </text>
<text text-anchor="start" x="81.129" y="-234.4" font-family="Arial" font-size="14.00" fill="#666666">[text]</text>
<text text-anchor="start" x="111.474" y="-234.4" font-family="Arial" font-size="14.00" fill="#000000"> 備考</text>
<polygon fill="none" stroke="#000000" points="43,-193 43,-223 433,-223 433,-193 43,-193"/>
<text text-anchor="start" x="50" y="-204.4" font-family="Arial" font-size="14.00" fill="#000000">status </text>
<text text-anchor="start" x="91.237" y="-204.4" font-family="Arial" font-size="14.00" fill="#666666">[smallint]</text>
<text text-anchor="start" x="146.4544" y="-204.4" font-family="Arial" font-size="14.00" fill="#000000"> 状態</text>
<polygon fill="none" stroke="#000000" points="43,-163 43,-193 433,-193 433,-163 43,-163"/>
<text text-anchor="start" x="50" y="-174.4" font-family="Arial" font-size="14.00" fill="#000000">create_date </text>
<text text-anchor="start" x="127.8106" y="-174.4" font-family="Arial" font-size="14.00" fill="#666666">[timestamp without time zone]</text>
<text text-anchor="start" x="312.9508" y="-174.4" font-family="Arial" font-size="14.00" fill="#000000"> 作成日時</text>
<polygon fill="none" stroke="#000000" points="43,-133 43,-163 433,-163 433,-133 43,-133"/>
<text text-anchor="start" x="50" y="-144.4" font-family="Arial" font-size="14.00" fill="#000000">update_date </text>
<text text-anchor="start" x="131.7152" y="-144.4" font-family="Arial" font-size="14.00" fill="#666666">[timestamp without time zone]</text>
<text text-anchor="start" x="316.8554" y="-144.4" font-family="Arial" font-size="14.00" fill="#000000"> 更新日時</text>
<polygon fill="none" stroke="#000000" points="43,-103 43,-133 433,-133 433,-103 43,-103"/>
<text text-anchor="start" x="50" y="-114.4" font-family="Arial" font-size="14.00" fill="#000000">del_flg </text>
<text text-anchor="start" x="95.1248" y="-114.4" font-family="Arial" font-size="14.00" fill="#666666">[smallint]</text>
<text text-anchor="start" x="150.3422" y="-114.4" font-family="Arial" font-size="14.00" fill="#000000"> 削除フラグ</text>
<polygon fill="none" stroke="#000000" points="43,-73 43,-103 433,-103 433,-73 43,-73"/>
<text text-anchor="start" x="50" y="-84.4" font-family="Arial" font-size="14.00" fill="#000000">mobile_phone_id </text>
<text text-anchor="start" x="160.4796" y="-84.4" font-family="Arial" font-size="14.00" fill="#666666">[text]</text>
<text text-anchor="start" x="190.8246" y="-84.4" font-family="Arial" font-size="14.00" fill="#000000"> 携帯端末ID</text>
<polygon fill="none" stroke="#000000" points="43,-43 43,-73 433,-73 433,-43 43,-43"/>
<text text-anchor="start" x="50" y="-54.4" font-family="Arial" font-size="14.00" fill="#000000">mailmaga_flg </text>
<text text-anchor="start" x="137.1178" y="-54.4" font-family="Arial" font-size="14.00" fill="#666666">[smallint]</text>
<text text-anchor="start" x="192.3352" y="-54.4" font-family="Arial" font-size="14.00" fill="#000000"> メールマガジン種別フラグ</text>
</g>
<!-- public.dtb_send_customer&#45;&gt;public.dtb_customer -->
<g id="edge1" class="edge">
<title>public.dtb_send_customer:customer_id&#45;&gt;public.dtb_customer:customer_id</title>
<path fill="none" stroke="#000000" stroke-dasharray="5,2" d="M408.2009,-1578.2821C476.0076,-1568.2248 449.5141,-1455.0023 398,-1398 344.8346,-1339.1706 96.1654,-1420.8294 43,-1362 12.0085,-1327.7068 -3.2222,-1258 43,-1258"/>
<polygon fill="#000000" stroke="#000000" points="407.9753,-1578.2979 397.6841,-1574.5111 402.9877,-1578.649 398,-1579 398,-1579 398,-1579 402.9877,-1578.649 398.3159,-1583.4889 407.9753,-1578.2979 407.9753,-1578.2979"/>
<text text-anchor="start" x="405.3245" y="-1589" font-family="Arial" font-size="10.00" fill="#000000">Additional Relation</text>
</g>
</g>
</svg>
