<?xml version="1.0" encoding="UTF-8" standalone="no"?>
<!DOCTYPE svg PUBLIC "-//W3C//DTD SVG 1.1//EN"
 "http://www.w3.org/Graphics/SVG/1.1/DTD/svg11.dtd">
<!-- Generated by graphviz version 2.40.1 (20161225.0304)
 -->
<!-- Title: public.dtb_csv Pages: 1 -->
<svg width="498pt" height="506pt"
 viewBox="0.00 0.00 498.00 506.00" xmlns="http://www.w3.org/2000/svg" xmlns:xlink="http://www.w3.org/1999/xlink">
<g id="graph0" class="graph" transform="scale(1 1) rotate(0) translate(4 502)">
<title>public.dtb_csv</title>
<polygon fill="#ffffff" stroke="transparent" points="-4,4 -4,-502 494,-502 494,4 -4,4"/>
<!-- public.dtb_csv -->
<g id="node1" class="node">
<title>public.dtb_csv</title>
<polygon fill="#efefef" stroke="transparent" points="46,-406 46,-452 444,-452 444,-406 46,-406"/>
<polygon fill="none" stroke="#000000" points="46,-406 46,-452 444,-452 444,-406 46,-406"/>
<text text-anchor="start" x="139.3581" y="-429.8" font-family="Arial Bold" font-size="18.00" fill="#000000">public.dtb_csv</text>
<text text-anchor="start" x="253.3881" y="-429.8" font-family="Arial" font-size="14.00" fill="#000000"> </text>
<text text-anchor="start" x="257.2787" y="-429.8" font-family="Arial" font-size="14.00" fill="#666666">[BASE TABLE]</text>
<text text-anchor="start" x="216.9923" y="-415.4" font-family="Arial" font-size="14.00" fill="#333333">CSV情報</text>
<polygon fill="none" stroke="#000000" points="46,-376 46,-406 444,-406 444,-376 46,-376"/>
<text text-anchor="start" x="53" y="-387.4" font-family="Arial" font-size="14.00" fill="#000000">no </text>
<text text-anchor="start" x="72.4558" y="-387.4" font-family="Arial" font-size="14.00" fill="#666666">[integer]</text>
<text text-anchor="start" x="123.0252" y="-387.4" font-family="Arial" font-size="14.00" fill="#000000"> 番号</text>
<polygon fill="none" stroke="#000000" points="46,-346 46,-376 444,-376 444,-346 46,-346"/>
<text text-anchor="start" x="53" y="-357.4" font-family="Arial" font-size="14.00" fill="#000000">csv_id </text>
<text text-anchor="start" x="96.5624" y="-357.4" font-family="Arial" font-size="14.00" fill="#666666">[integer]</text>
<text text-anchor="start" x="147.1318" y="-357.4" font-family="Arial" font-size="14.00" fill="#000000"> CSVマスタ種別ID</text>
<polygon fill="none" stroke="#000000" points="46,-316 46,-346 444,-346 444,-316 46,-316"/>
<text text-anchor="start" x="53" y="-327.4" font-family="Arial" font-size="14.00" fill="#000000">col </text>
<text text-anchor="start" x="74.7798" y="-327.4" font-family="Arial" font-size="14.00" fill="#666666">[text]</text>
<text text-anchor="start" x="105.1248" y="-327.4" font-family="Arial" font-size="14.00" fill="#000000"> カラム名</text>
<polygon fill="none" stroke="#000000" points="46,-286 46,-316 444,-316 444,-286 46,-286"/>
<text text-anchor="start" x="53" y="-297.4" font-family="Arial" font-size="14.00" fill="#000000">disp_name </text>
<text text-anchor="start" x="125.3534" y="-297.4" font-family="Arial" font-size="14.00" fill="#666666">[text]</text>
<text text-anchor="start" x="155.6984" y="-297.4" font-family="Arial" font-size="14.00" fill="#000000"> 表示名</text>
<polygon fill="none" stroke="#000000" points="46,-256 46,-286 444,-286 444,-256 46,-256"/>
<text text-anchor="start" x="53" y="-267.4" font-family="Arial" font-size="14.00" fill="#000000">rank </text>
<text text-anchor="start" x="84.1164" y="-267.4" font-family="Arial" font-size="14.00" fill="#666666">[integer]</text>
<text text-anchor="start" x="134.6858" y="-267.4" font-family="Arial" font-size="14.00" fill="#000000"> 表示順</text>
<polygon fill="none" stroke="#000000" points="46,-226 46,-256 444,-256 444,-226 46,-226"/>
<text text-anchor="start" x="53" y="-237.4" font-family="Arial" font-size="14.00" fill="#000000">rw_flg </text>
<text text-anchor="start" x="94.2202" y="-237.4" font-family="Arial" font-size="14.00" fill="#666666">[smallint]</text>
<text text-anchor="start" x="149.4376" y="-237.4" font-family="Arial" font-size="14.00" fill="#000000"> 読み書きフラグ</text>
<polygon fill="none" stroke="#000000" points="46,-196 46,-226 444,-226 444,-196 46,-196"/>
<text text-anchor="start" x="53" y="-207.4" font-family="Arial" font-size="14.00" fill="#000000">status </text>
<text text-anchor="start" x="94.237" y="-207.4" font-family="Arial" font-size="14.00" fill="#666666">[smallint]</text>
<text text-anchor="start" x="149.4544" y="-207.4" font-family="Arial" font-size="14.00" fill="#000000"> 状態</text>
<polygon fill="none" stroke="#000000" points="46,-166 46,-196 444,-196 444,-166 46,-166"/>
<text text-anchor="start" x="53" y="-177.4" font-family="Arial" font-size="14.00" fill="#000000">create_date </text>
<text text-anchor="start" x="130.8106" y="-177.4" font-family="Arial" font-size="14.00" fill="#666666">[timestamp without time zone]</text>
<text text-anchor="start" x="315.9508" y="-177.4" font-family="Arial" font-size="14.00" fill="#000000"> 作成日時</text>
<polygon fill="none" stroke="#000000" points="46,-136 46,-166 444,-166 444,-136 46,-136"/>
<text text-anchor="start" x="53" y="-147.4" font-family="Arial" font-size="14.00" fill="#000000">update_date </text>
<text text-anchor="start" x="134.7152" y="-147.4" font-family="Arial" font-size="14.00" fill="#666666">[timestamp without time zone]</text>
<text text-anchor="start" x="319.8554" y="-147.4" font-family="Arial" font-size="14.00" fill="#000000"> 更新日時</text>
<polygon fill="none" stroke="#000000" points="46,-106 46,-136 444,-136 444,-106 46,-106"/>
<text text-anchor="start" x="52.6008" y="-117.4" font-family="Arial" font-size="14.00" fill="#000000">mb_convert_kana_option </text>
<text text-anchor="start" x="213.6568" y="-117.4" font-family="Arial" font-size="14.00" fill="#666666">[text]</text>
<text text-anchor="start" x="244.0018" y="-117.4" font-family="Arial" font-size="14.00" fill="#000000"> mb_convert_kana オプション</text>
<polygon fill="none" stroke="#000000" points="46,-76 46,-106 444,-106 444,-76 46,-76"/>
<text text-anchor="start" x="53" y="-87.4" font-family="Arial" font-size="14.00" fill="#000000">size_const_type </text>
<text text-anchor="start" x="157.2566" y="-87.4" font-family="Arial" font-size="14.00" fill="#666666">[text]</text>
<text text-anchor="start" x="187.6016" y="-87.4" font-family="Arial" font-size="14.00" fill="#000000"> 文字長タイプ</text>
<polygon fill="none" stroke="#000000" points="46,-46 46,-76 444,-76 444,-46 46,-46"/>
<text text-anchor="start" x="53" y="-57.4" font-family="Arial" font-size="14.00" fill="#000000">error_check_types </text>
<text text-anchor="start" x="172.0238" y="-57.4" font-family="Arial" font-size="14.00" fill="#666666">[text]</text>
<text text-anchor="start" x="202.3688" y="-57.4" font-family="Arial" font-size="14.00" fill="#000000"> エラーチェックタイプ</text>
<polygon fill="none" stroke="#000000" stroke-width="3" points="44.5,-44.5 44.5,-453.5 445.5,-453.5 445.5,-44.5 44.5,-44.5"/>
</g>
</g>
</svg>
