<?xml version="1.0" encoding="UTF-8" standalone="no"?>
<!DOCTYPE svg PUBLIC "-//W3C//DTD SVG 1.1//EN"
 "http://www.w3.org/Graphics/SVG/1.1/DTD/svg11.dtd">
<!-- Generated by graphviz version 2.40.1 (20161225.0304)
 -->
<!-- Title: public.dtb_customer_favorite_products Pages: 1 -->
<svg width="520pt" height="266pt"
 viewBox="0.00 0.00 520.00 266.00" xmlns="http://www.w3.org/2000/svg" xmlns:xlink="http://www.w3.org/1999/xlink">
<g id="graph0" class="graph" transform="scale(1 1) rotate(0) translate(4 262)">
<title>public.dtb_customer_favorite_products</title>
<polygon fill="#ffffff" stroke="transparent" points="-4,4 -4,-262 516,-262 516,4 -4,4"/>
<!-- public.dtb_customer_favorite_products -->
<g id="node1" class="node">
<title>public.dtb_customer_favorite_products</title>
<polygon fill="#efefef" stroke="transparent" points="46,-166 46,-212 466,-212 466,-166 46,-166"/>
<polygon fill="none" stroke="#000000" points="46,-166 46,-212 466,-212 466,-166 46,-166"/>
<text text-anchor="start" x="52.835" y="-189.8" font-family="Arial Bold" font-size="18.00" fill="#000000">public.dtb_customer_favorite_products</text>
<text text-anchor="start" x="361.9112" y="-189.8" font-family="Arial" font-size="14.00" fill="#000000"> </text>
<text text-anchor="start" x="365.8018" y="-189.8" font-family="Arial" font-size="14.00" fill="#666666">[BASE TABLE]</text>
<text text-anchor="start" x="195.7069" y="-175.4" font-family="Arial" font-size="14.00" fill="#333333">お気に入り商品情報</text>
<polygon fill="none" stroke="#000000" points="46,-136 46,-166 466,-166 466,-136 46,-136"/>
<text text-anchor="start" x="53" y="-147.4" font-family="Arial" font-size="14.00" fill="#000000">customer_id </text>
<text text-anchor="start" x="133.122" y="-147.4" font-family="Arial" font-size="14.00" fill="#666666">[integer]</text>
<text text-anchor="start" x="183.6914" y="-147.4" font-family="Arial" font-size="14.00" fill="#000000"> 顧客ID</text>
<polygon fill="none" stroke="#000000" points="46,-106 46,-136 466,-136 466,-106 46,-106"/>
<text text-anchor="start" x="53" y="-117.4" font-family="Arial" font-size="14.00" fill="#000000">product_id </text>
<text text-anchor="start" x="122.244" y="-117.4" font-family="Arial" font-size="14.00" fill="#666666">[integer]</text>
<text text-anchor="start" x="172.8134" y="-117.4" font-family="Arial" font-size="14.00" fill="#000000"> 商品ID</text>
<polygon fill="none" stroke="#000000" points="46,-76 46,-106 466,-106 466,-76 46,-76"/>
<text text-anchor="start" x="53" y="-87.4" font-family="Arial" font-size="14.00" fill="#000000">create_date </text>
<text text-anchor="start" x="130.8106" y="-87.4" font-family="Arial" font-size="14.00" fill="#666666">[timestamp without time zone]</text>
<text text-anchor="start" x="315.9508" y="-87.4" font-family="Arial" font-size="14.00" fill="#000000"> 作成日時</text>
<polygon fill="none" stroke="#000000" points="46,-46 46,-76 466,-76 466,-46 46,-46"/>
<text text-anchor="start" x="53" y="-57.4" font-family="Arial" font-size="14.00" fill="#000000">update_date </text>
<text text-anchor="start" x="134.7152" y="-57.4" font-family="Arial" font-size="14.00" fill="#666666">[timestamp without time zone]</text>
<text text-anchor="start" x="319.8554" y="-57.4" font-family="Arial" font-size="14.00" fill="#000000"> 更新日時</text>
<polygon fill="none" stroke="#000000" stroke-width="3" points="44.5,-44.5 44.5,-213.5 467.5,-213.5 467.5,-44.5 44.5,-44.5"/>
</g>
</g>
</svg>
