<?xml version="1.0" encoding="UTF-8" standalone="no"?>
<!DOCTYPE svg PUBLIC "-//W3C//DTD SVG 1.1//EN"
 "http://www.w3.org/Graphics/SVG/1.1/DTD/svg11.dtd">
<!-- Generated by graphviz version 2.40.1 (20161225.0304)
 -->
<!-- Title: public.dtb_products_class Pages: 1 -->
<svg width="447pt" height="716pt"
 viewBox="0.00 0.00 447.00 716.00" xmlns="http://www.w3.org/2000/svg" xmlns:xlink="http://www.w3.org/1999/xlink">
<g id="graph0" class="graph" transform="scale(1 1) rotate(0) translate(4 712)">
<title>public.dtb_products_class</title>
<polygon fill="#ffffff" stroke="transparent" points="-4,4 -4,-712 443,-712 443,4 -4,4"/>
<!-- public.dtb_products_class -->
<g id="node1" class="node">
<title>public.dtb_products_class</title>
<polygon fill="#efefef" stroke="transparent" points="46.5,-616 46.5,-662 393.5,-662 393.5,-616 46.5,-616"/>
<polygon fill="none" stroke="#000000" points="46.5,-616 46.5,-662 393.5,-662 393.5,-616 46.5,-616"/>
<text text-anchor="start" x="67.8452" y="-639.8" font-family="Arial Bold" font-size="18.00" fill="#000000">public.dtb_products_class</text>
<text text-anchor="start" x="274.901" y="-639.8" font-family="Arial" font-size="14.00" fill="#000000"> </text>
<text text-anchor="start" x="278.7916" y="-639.8" font-family="Arial" font-size="14.00" fill="#666666">[BASE TABLE]</text>
<text text-anchor="start" x="174.0919" y="-625.4" font-family="Arial" font-size="14.00" fill="#333333">商品規格情報</text>
<polygon fill="none" stroke="#000000" points="46.5,-586 46.5,-616 393.5,-616 393.5,-586 46.5,-586"/>
<text text-anchor="start" x="53.5" y="-597.4" font-family="Arial" font-size="14.00" fill="#000000">product_class_id </text>
<text text-anchor="start" x="162.4158" y="-597.4" font-family="Arial" font-size="14.00" fill="#666666">[integer]</text>
<text text-anchor="start" x="212.9852" y="-597.4" font-family="Arial" font-size="14.00" fill="#000000"> 商品規格ID</text>
<polygon fill="none" stroke="#000000" points="46.5,-556 46.5,-586 393.5,-586 393.5,-556 46.5,-556"/>
<text text-anchor="start" x="53.5" y="-567.4" font-family="Arial" font-size="14.00" fill="#000000">product_id </text>
<text text-anchor="start" x="122.744" y="-567.4" font-family="Arial" font-size="14.00" fill="#666666">[integer]</text>
<text text-anchor="start" x="173.3134" y="-567.4" font-family="Arial" font-size="14.00" fill="#000000"> 商品ID</text>
<polygon fill="none" stroke="#000000" points="46.5,-526 46.5,-556 393.5,-556 393.5,-526 46.5,-526"/>
<text text-anchor="start" x="53.5" y="-537.4" font-family="Arial" font-size="14.00" fill="#000000">classcategory_id1 </text>
<text text-anchor="start" x="169.4158" y="-537.4" font-family="Arial" font-size="14.00" fill="#666666">[integer]</text>
<text text-anchor="start" x="219.9852" y="-537.4" font-family="Arial" font-size="14.00" fill="#000000"> 規格分類ID1</text>
<polygon fill="none" stroke="#000000" points="46.5,-496 46.5,-526 393.5,-526 393.5,-496 46.5,-496"/>
<text text-anchor="start" x="53.5" y="-507.4" font-family="Arial" font-size="14.00" fill="#000000">classcategory_id2 </text>
<text text-anchor="start" x="169.4158" y="-507.4" font-family="Arial" font-size="14.00" fill="#666666">[integer]</text>
<text text-anchor="start" x="219.9852" y="-507.4" font-family="Arial" font-size="14.00" fill="#000000"> 規格分類ID2</text>
<polygon fill="none" stroke="#000000" points="46.5,-466 46.5,-496 393.5,-496 393.5,-466 46.5,-466"/>
<text text-anchor="start" x="53.5" y="-477.4" font-family="Arial" font-size="14.00" fill="#000000">product_type_id </text>
<text text-anchor="start" x="156.9824" y="-477.4" font-family="Arial" font-size="14.00" fill="#666666">[integer]</text>
<text text-anchor="start" x="207.5518" y="-477.4" font-family="Arial" font-size="14.00" fill="#000000"> 商品種別ID</text>
<polygon fill="none" stroke="#000000" points="46.5,-436 46.5,-466 393.5,-466 393.5,-436 46.5,-436"/>
<text text-anchor="start" x="53.5" y="-447.4" font-family="Arial" font-size="14.00" fill="#000000">product_code </text>
<text text-anchor="start" x="142.2026" y="-447.4" font-family="Arial" font-size="14.00" fill="#666666">[text]</text>
<text text-anchor="start" x="172.5476" y="-447.4" font-family="Arial" font-size="14.00" fill="#000000"> 商品コード</text>
<polygon fill="none" stroke="#000000" points="46.5,-406 46.5,-436 393.5,-436 393.5,-406 46.5,-406"/>
<text text-anchor="start" x="53.5" y="-417.4" font-family="Arial" font-size="14.00" fill="#000000">stock </text>
<text text-anchor="start" x="90.0638" y="-417.4" font-family="Arial" font-size="14.00" fill="#666666">[numeric]</text>
<text text-anchor="start" x="147.6206" y="-417.4" font-family="Arial" font-size="14.00" fill="#000000"> 在庫数</text>
<polygon fill="none" stroke="#000000" points="46.5,-376 46.5,-406 393.5,-406 393.5,-376 46.5,-376"/>
<text text-anchor="start" x="53.5" y="-387.4" font-family="Arial" font-size="14.00" fill="#000000">stock_unlimited </text>
<text text-anchor="start" x="153.8478" y="-387.4" font-family="Arial" font-size="14.00" fill="#666666">[smallint]</text>
<text text-anchor="start" x="209.0652" y="-387.4" font-family="Arial" font-size="14.00" fill="#000000"> 在庫制限</text>
<polygon fill="none" stroke="#000000" points="46.5,-346 46.5,-376 393.5,-376 393.5,-346 46.5,-346"/>
<text text-anchor="start" x="53.5" y="-357.4" font-family="Arial" font-size="14.00" fill="#000000">sale_limit </text>
<text text-anchor="start" x="115.716" y="-357.4" font-family="Arial" font-size="14.00" fill="#666666">[numeric]</text>
<text text-anchor="start" x="173.2728" y="-357.4" font-family="Arial" font-size="14.00" fill="#000000"> 販売制限数</text>
<polygon fill="none" stroke="#000000" points="46.5,-316 46.5,-346 393.5,-346 393.5,-316 46.5,-316"/>
<text text-anchor="start" x="53.5" y="-327.4" font-family="Arial" font-size="14.00" fill="#000000">price01 </text>
<text text-anchor="start" x="103.2882" y="-327.4" font-family="Arial" font-size="14.00" fill="#666666">[numeric]</text>
<text text-anchor="start" x="160.845" y="-327.4" font-family="Arial" font-size="14.00" fill="#000000"> 価格</text>
<polygon fill="none" stroke="#000000" points="46.5,-286 46.5,-316 393.5,-316 393.5,-286 46.5,-286"/>
<text text-anchor="start" x="53.5" y="-297.4" font-family="Arial" font-size="14.00" fill="#000000">price02 </text>
<text text-anchor="start" x="103.2882" y="-297.4" font-family="Arial" font-size="14.00" fill="#666666">[numeric]</text>
<text text-anchor="start" x="160.845" y="-297.4" font-family="Arial" font-size="14.00" fill="#000000"> 特別価格</text>
<polygon fill="none" stroke="#000000" points="46.5,-256 46.5,-286 393.5,-286 393.5,-256 46.5,-256"/>
<text text-anchor="start" x="53.5" y="-267.4" font-family="Arial" font-size="14.00" fill="#000000">deliv_fee </text>
<text text-anchor="start" x="113.4074" y="-267.4" font-family="Arial" font-size="14.00" fill="#666666">[numeric]</text>
<text text-anchor="start" x="170.9642" y="-267.4" font-family="Arial" font-size="14.00" fill="#000000"> 商品送料</text>
<polygon fill="none" stroke="#000000" points="46.5,-226 46.5,-256 393.5,-256 393.5,-226 46.5,-226"/>
<text text-anchor="start" x="53.5" y="-237.4" font-family="Arial" font-size="14.00" fill="#000000">point_rate </text>
<text text-anchor="start" x="119.6346" y="-237.4" font-family="Arial" font-size="14.00" fill="#666666">[numeric]</text>
<text text-anchor="start" x="177.1914" y="-237.4" font-family="Arial" font-size="14.00" fill="#000000"> ポイント付与率</text>
<polygon fill="none" stroke="#000000" points="46.5,-196 46.5,-226 393.5,-226 393.5,-196 46.5,-196"/>
<text text-anchor="start" x="53.5" y="-207.4" font-family="Arial" font-size="14.00" fill="#000000">creator_id </text>
<text text-anchor="start" x="119.622" y="-207.4" font-family="Arial" font-size="14.00" fill="#666666">[integer]</text>
<text text-anchor="start" x="170.1914" y="-207.4" font-family="Arial" font-size="14.00" fill="#000000"> 作成者ID</text>
<polygon fill="none" stroke="#000000" points="46.5,-166 46.5,-196 393.5,-196 393.5,-166 46.5,-166"/>
<text text-anchor="start" x="53.5" y="-177.4" font-family="Arial" font-size="14.00" fill="#000000">create_date </text>
<text text-anchor="start" x="131.3106" y="-177.4" font-family="Arial" font-size="14.00" fill="#666666">[timestamp without time zone]</text>
<text text-anchor="start" x="316.4508" y="-177.4" font-family="Arial" font-size="14.00" fill="#000000"> 作成日時</text>
<polygon fill="none" stroke="#000000" points="46.5,-136 46.5,-166 393.5,-166 393.5,-136 46.5,-136"/>
<text text-anchor="start" x="53.5" y="-147.4" font-family="Arial" font-size="14.00" fill="#000000">update_date </text>
<text text-anchor="start" x="135.2152" y="-147.4" font-family="Arial" font-size="14.00" fill="#666666">[timestamp without time zone]</text>
<text text-anchor="start" x="320.3554" y="-147.4" font-family="Arial" font-size="14.00" fill="#000000"> 更新日時</text>
<polygon fill="none" stroke="#000000" points="46.5,-106 46.5,-136 393.5,-136 393.5,-106 46.5,-106"/>
<text text-anchor="start" x="53.5" y="-117.4" font-family="Arial" font-size="14.00" fill="#000000">down_filename </text>
<text text-anchor="start" x="151.5224" y="-117.4" font-family="Arial" font-size="14.00" fill="#666666">[text]</text>
<text text-anchor="start" x="181.8674" y="-117.4" font-family="Arial" font-size="14.00" fill="#000000"> ダウンロードファイル名</text>
<polygon fill="none" stroke="#000000" points="46.5,-76 46.5,-106 393.5,-106 393.5,-76 46.5,-76"/>
<text text-anchor="start" x="53.2936" y="-87.4" font-family="Arial" font-size="14.00" fill="#000000">down_realfilename </text>
<text text-anchor="start" x="174.6484" y="-87.4" font-family="Arial" font-size="14.00" fill="#666666">[text]</text>
<text text-anchor="start" x="204.9934" y="-87.4" font-family="Arial" font-size="14.00" fill="#000000"> ダウンロード実ファイル名</text>
<polygon fill="none" stroke="#000000" points="46.5,-46 46.5,-76 393.5,-76 393.5,-46 46.5,-46"/>
<text text-anchor="start" x="53.5" y="-57.4" font-family="Arial" font-size="14.00" fill="#000000">del_flg </text>
<text text-anchor="start" x="98.6248" y="-57.4" font-family="Arial" font-size="14.00" fill="#666666">[smallint]</text>
<text text-anchor="start" x="153.8422" y="-57.4" font-family="Arial" font-size="14.00" fill="#000000"> 削除フラグ</text>
<polygon fill="none" stroke="#000000" stroke-width="3" points="44.5,-44.5 44.5,-663.5 394.5,-663.5 394.5,-44.5 44.5,-44.5"/>
</g>
</g>
</svg>
