<?xml version="1.0" encoding="UTF-8" standalone="no"?>
<!DOCTYPE svg PUBLIC "-//W3C//DTD SVG 1.1//EN"
 "http://www.w3.org/Graphics/SVG/1.1/DTD/svg11.dtd">
<!-- Generated by graphviz version 2.40.1 (20161225.0304)
 -->
<!-- Title: public.dtb_mail_history Pages: 1 -->
<svg width="435pt" height="356pt"
 viewBox="0.00 0.00 435.00 356.00" xmlns="http://www.w3.org/2000/svg" xmlns:xlink="http://www.w3.org/1999/xlink">
<g id="graph0" class="graph" transform="scale(1 1) rotate(0) translate(4 352)">
<title>public.dtb_mail_history</title>
<polygon fill="#ffffff" stroke="transparent" points="-4,4 -4,-352 431,-352 431,4 -4,4"/>
<!-- public.dtb_mail_history -->
<g id="node1" class="node">
<title>public.dtb_mail_history</title>
<polygon fill="#efefef" stroke="transparent" points="46.5,-256 46.5,-302 381.5,-302 381.5,-256 46.5,-256"/>
<polygon fill="none" stroke="#000000" points="46.5,-256 46.5,-302 381.5,-302 381.5,-256 46.5,-256"/>
<text text-anchor="start" x="73.8611" y="-279.8" font-family="Arial Bold" font-size="18.00" fill="#000000">public.dtb_mail_history</text>
<text text-anchor="start" x="256.8851" y="-279.8" font-family="Arial" font-size="14.00" fill="#000000"> </text>
<text text-anchor="start" x="260.7757" y="-279.8" font-family="Arial" font-size="14.00" fill="#666666">[BASE TABLE]</text>
<text text-anchor="start" x="137.7742" y="-265.4" font-family="Arial" font-size="14.00" fill="#333333">受注メール送信履歴</text>
<polygon fill="none" stroke="#000000" points="46.5,-226 46.5,-256 381.5,-256 381.5,-226 46.5,-226"/>
<text text-anchor="start" x="53.5" y="-237.4" font-family="Arial" font-size="14.00" fill="#000000">send_id </text>
<text text-anchor="start" x="106.4102" y="-237.4" font-family="Arial" font-size="14.00" fill="#666666">[integer]</text>
<text text-anchor="start" x="156.9796" y="-237.4" font-family="Arial" font-size="14.00" fill="#000000"> 送信ID</text>
<polygon fill="none" stroke="#000000" points="46.5,-196 46.5,-226 381.5,-226 381.5,-196 46.5,-196"/>
<text text-anchor="start" x="53.5" y="-207.4" font-family="Arial" font-size="14.00" fill="#000000">order_id </text>
<text text-anchor="start" x="108.7314" y="-207.4" font-family="Arial" font-size="14.00" fill="#666666">[integer]</text>
<text text-anchor="start" x="159.3008" y="-207.4" font-family="Arial" font-size="14.00" fill="#000000"> 受注ID</text>
<polygon fill="none" stroke="#000000" points="46.5,-166 46.5,-196 381.5,-196 381.5,-166 46.5,-166"/>
<text text-anchor="start" x="53.3493" y="-177.4" font-family="Arial" font-size="14.00" fill="#000000">send_date </text>
<text text-anchor="start" x="122.6087" y="-177.4" font-family="Arial" font-size="14.00" fill="#666666">[timestamp without time zone]</text>
<text text-anchor="start" x="307.7489" y="-177.4" font-family="Arial" font-size="14.00" fill="#000000"> 送信日時</text>
<polygon fill="none" stroke="#000000" points="46.5,-136 46.5,-166 381.5,-166 381.5,-136 46.5,-136"/>
<text text-anchor="start" x="53.5" y="-147.4" font-family="Arial" font-size="14.00" fill="#000000">template_id </text>
<text text-anchor="start" x="129.7412" y="-147.4" font-family="Arial" font-size="14.00" fill="#666666">[integer]</text>
<text text-anchor="start" x="180.3106" y="-147.4" font-family="Arial" font-size="14.00" fill="#000000"> テンプレートID</text>
<polygon fill="none" stroke="#000000" points="46.5,-106 46.5,-136 381.5,-136 381.5,-106 46.5,-106"/>
<text text-anchor="start" x="53.5" y="-117.4" font-family="Arial" font-size="14.00" fill="#000000">creator_id </text>
<text text-anchor="start" x="119.622" y="-117.4" font-family="Arial" font-size="14.00" fill="#666666">[integer]</text>
<text text-anchor="start" x="170.1914" y="-117.4" font-family="Arial" font-size="14.00" fill="#000000"> 作成者ID</text>
<polygon fill="none" stroke="#000000" points="46.5,-76 46.5,-106 381.5,-106 381.5,-76 46.5,-76"/>
<text text-anchor="start" x="53.5" y="-87.4" font-family="Arial" font-size="14.00" fill="#000000">subject </text>
<text text-anchor="start" x="101.7356" y="-87.4" font-family="Arial" font-size="14.00" fill="#666666">[text]</text>
<text text-anchor="start" x="132.0806" y="-87.4" font-family="Arial" font-size="14.00" fill="#000000"> 件名</text>
<polygon fill="none" stroke="#000000" points="46.5,-46 46.5,-76 381.5,-76 381.5,-46 46.5,-46"/>
<text text-anchor="start" x="53.5" y="-57.4" font-family="Arial" font-size="14.00" fill="#000000">mail_body </text>
<text text-anchor="start" x="121.1774" y="-57.4" font-family="Arial" font-size="14.00" fill="#666666">[text]</text>
<text text-anchor="start" x="151.5224" y="-57.4" font-family="Arial" font-size="14.00" fill="#000000"> メール本文</text>
<polygon fill="none" stroke="#000000" stroke-width="3" points="44.5,-44.5 44.5,-303.5 382.5,-303.5 382.5,-44.5 44.5,-44.5"/>
</g>
</g>
</svg>
