<?xml version="1.0" encoding="UTF-8" standalone="no"?>
<!DOCTYPE svg PUBLIC "-//W3C//DTD SVG 1.1//EN"
 "http://www.w3.org/Graphics/SVG/1.1/DTD/svg11.dtd">
<!-- Generated by graphviz version 2.40.1 (20161225.0304)
 -->
<!-- Title: public.dtb_category_total_count Pages: 1 -->
<svg width="516pt" height="674pt"
 viewBox="0.00 0.00 515.50 674.00" xmlns="http://www.w3.org/2000/svg" xmlns:xlink="http://www.w3.org/1999/xlink">
<g id="graph0" class="graph" transform="scale(1 1) rotate(0) translate(4 670)">
<title>public.dtb_category_total_count</title>
<polygon fill="#ffffff" stroke="transparent" points="-4,4 -4,-670 511.5,-670 511.5,4 -4,4"/>
<!-- public.dtb_category_total_count -->
<g id="node1" class="node">
<title>public.dtb_category_total_count</title>
<polygon fill="#efefef" stroke="transparent" points="97,-574 97,-620 462,-620 462,-574 97,-574"/>
<polygon fill="none" stroke="#000000" points="97,-574 97,-620 462,-620 462,-574 97,-574"/>
<text text-anchor="start" x="103.8264" y="-597.8" font-family="Arial Bold" font-size="18.00" fill="#000000">public.dtb_category_total_count</text>
<text text-anchor="start" x="357.9198" y="-597.8" font-family="Arial" font-size="14.00" fill="#000000"> </text>
<text text-anchor="start" x="361.8104" y="-597.8" font-family="Arial" font-size="14.00" fill="#666666">[BASE TABLE]</text>
<text text-anchor="start" x="204.5601" y="-583.4" font-family="Arial" font-size="14.00" fill="#333333">カテゴリ商品合計数情報</text>
<polygon fill="none" stroke="#000000" points="97,-544 97,-574 462,-574 462,-544 97,-544"/>
<text text-anchor="start" x="104" y="-555.4" font-family="Arial" font-size="14.00" fill="#000000">category_id </text>
<text text-anchor="start" x="180.244" y="-555.4" font-family="Arial" font-size="14.00" fill="#666666">[integer]</text>
<text text-anchor="start" x="230.8134" y="-555.4" font-family="Arial" font-size="14.00" fill="#000000"> カテゴリID</text>
<polygon fill="none" stroke="#000000" points="97,-514 97,-544 462,-544 462,-514 97,-514"/>
<text text-anchor="start" x="104" y="-525.4" font-family="Arial" font-size="14.00" fill="#000000">product_count </text>
<text text-anchor="start" x="196.5932" y="-525.4" font-family="Arial" font-size="14.00" fill="#666666">[integer]</text>
<text text-anchor="start" x="247.1626" y="-525.4" font-family="Arial" font-size="14.00" fill="#000000"> 商品合計数</text>
<polygon fill="none" stroke="#000000" points="97,-484 97,-514 462,-514 462,-484 97,-484"/>
<text text-anchor="start" x="104" y="-495.4" font-family="Arial" font-size="14.00" fill="#000000">create_date </text>
<text text-anchor="start" x="181.8106" y="-495.4" font-family="Arial" font-size="14.00" fill="#666666">[timestamp without time zone]</text>
<text text-anchor="start" x="366.9508" y="-495.4" font-family="Arial" font-size="14.00" fill="#000000"> 作成日時</text>
<polygon fill="none" stroke="#000000" stroke-width="3" points="95,-482.5 95,-621.5 463,-621.5 463,-482.5 95,-482.5"/>
</g>
<!-- public.dtb_category -->
<g id="node2" class="node">
<title>public.dtb_category</title>
<polygon fill="#efefef" stroke="transparent" points="109,-313 109,-359 450,-359 450,-313 109,-313"/>
<polygon fill="none" stroke="#000000" points="109,-313 109,-359 450,-359 450,-313 109,-313"/>
<text text-anchor="start" x="152.8485" y="-336.8" font-family="Arial Bold" font-size="18.00" fill="#000000">public.dtb_category</text>
<text text-anchor="start" x="308.8977" y="-336.8" font-family="Arial" font-size="14.00" fill="#000000"> </text>
<text text-anchor="start" x="312.7883" y="-336.8" font-family="Arial" font-size="14.00" fill="#666666">[BASE TABLE]</text>
<text text-anchor="start" x="237.6316" y="-322.4" font-family="Arial" font-size="14.00" fill="#333333">カテゴリ情報</text>
<polygon fill="none" stroke="#000000" points="109,-283 109,-313 450,-313 450,-283 109,-283"/>
<text text-anchor="start" x="116" y="-294.4" font-family="Arial" font-size="14.00" fill="#000000">category_id </text>
<text text-anchor="start" x="192.244" y="-294.4" font-family="Arial" font-size="14.00" fill="#666666">[integer]</text>
<text text-anchor="start" x="242.8134" y="-294.4" font-family="Arial" font-size="14.00" fill="#000000"> カテゴリID</text>
<polygon fill="none" stroke="#000000" points="109,-253 109,-283 450,-283 450,-253 109,-253"/>
<text text-anchor="start" x="116" y="-264.4" font-family="Arial" font-size="14.00" fill="#000000">category_name </text>
<text text-anchor="start" x="216.3632" y="-264.4" font-family="Arial" font-size="14.00" fill="#666666">[text]</text>
<text text-anchor="start" x="246.7082" y="-264.4" font-family="Arial" font-size="14.00" fill="#000000"> カテゴリ名</text>
<polygon fill="none" stroke="#000000" points="109,-223 109,-253 450,-253 450,-223 109,-223"/>
<text text-anchor="start" x="116" y="-234.4" font-family="Arial" font-size="14.00" fill="#000000">parent_category_id </text>
<text text-anchor="start" x="239.7082" y="-234.4" font-family="Arial" font-size="14.00" fill="#666666">[integer]</text>
<text text-anchor="start" x="290.2776" y="-234.4" font-family="Arial" font-size="14.00" fill="#000000"> 親カテゴリID</text>
<polygon fill="none" stroke="#000000" points="109,-193 109,-223 450,-223 450,-193 109,-193"/>
<text text-anchor="start" x="116" y="-204.4" font-family="Arial" font-size="14.00" fill="#000000">level </text>
<text text-anchor="start" x="148.669" y="-204.4" font-family="Arial" font-size="14.00" fill="#666666">[integer]</text>
<text text-anchor="start" x="199.2384" y="-204.4" font-family="Arial" font-size="14.00" fill="#000000"> 階層</text>
<polygon fill="none" stroke="#000000" points="109,-163 109,-193 450,-193 450,-163 109,-163"/>
<text text-anchor="start" x="116" y="-174.4" font-family="Arial" font-size="14.00" fill="#000000">rank </text>
<text text-anchor="start" x="147.1164" y="-174.4" font-family="Arial" font-size="14.00" fill="#666666">[integer]</text>
<text text-anchor="start" x="197.6858" y="-174.4" font-family="Arial" font-size="14.00" fill="#000000"> 表示順</text>
<polygon fill="none" stroke="#000000" points="109,-133 109,-163 450,-163 450,-133 109,-133"/>
<text text-anchor="start" x="116" y="-144.4" font-family="Arial" font-size="14.00" fill="#000000">creator_id </text>
<text text-anchor="start" x="182.122" y="-144.4" font-family="Arial" font-size="14.00" fill="#666666">[integer]</text>
<text text-anchor="start" x="232.6914" y="-144.4" font-family="Arial" font-size="14.00" fill="#000000"> 作成者ID</text>
<polygon fill="none" stroke="#000000" points="109,-103 109,-133 450,-133 450,-103 109,-103"/>
<text text-anchor="start" x="115.735" y="-114.4" font-family="Arial" font-size="14.00" fill="#000000">create_date </text>
<text text-anchor="start" x="193.5456" y="-114.4" font-family="Arial" font-size="14.00" fill="#666666">[timestamp without time zone]</text>
<text text-anchor="start" x="378.6858" y="-114.4" font-family="Arial" font-size="14.00" fill="#000000"> 作成日時</text>
<polygon fill="none" stroke="#000000" points="109,-73 109,-103 450,-103 450,-73 109,-73"/>
<text text-anchor="start" x="116" y="-84.4" font-family="Arial" font-size="14.00" fill="#000000">update_date </text>
<text text-anchor="start" x="197.7152" y="-84.4" font-family="Arial" font-size="14.00" fill="#666666">[timestamp without time zone]</text>
<text text-anchor="start" x="382.8554" y="-84.4" font-family="Arial" font-size="14.00" fill="#000000"> 更新日時</text>
<polygon fill="none" stroke="#000000" points="109,-43 109,-73 450,-73 450,-43 109,-43"/>
<text text-anchor="start" x="116" y="-54.4" font-family="Arial" font-size="14.00" fill="#000000">del_flg </text>
<text text-anchor="start" x="161.1248" y="-54.4" font-family="Arial" font-size="14.00" fill="#666666">[smallint]</text>
<text text-anchor="start" x="216.3422" y="-54.4" font-family="Arial" font-size="14.00" fill="#000000"> 削除フラグ</text>
</g>
<!-- public.dtb_category_total_count&#45;&gt;public.dtb_category -->
<g id="edge1" class="edge">
<title>public.dtb_category_total_count:category_id&#45;&gt;public.dtb_category:category_id</title>
<path fill="none" stroke="#000000" stroke-dasharray="5,2" d="M87.2189,-556.2454C40.5607,-528.3513 54.4542,-298 109,-298"/>
<polygon fill="#000000" stroke="#000000" points="87.3744,-556.2892 95.7801,-563.3315 92.1872,-557.6446 97,-559 97,-559 97,-559 92.1872,-557.6446 98.2199,-554.6685 87.3744,-556.2892 87.3744,-556.2892"/>
<text text-anchor="start" x="7.3245" y="-569" font-family="Arial" font-size="10.00" fill="#000000">Additional Relation</text>
</g>
</g>
</svg>
