<?xml version="1.0" encoding="UTF-8" standalone="no"?>
<!DOCTYPE svg PUBLIC "-//W3C//DTD SVG 1.1//EN"
 "http://www.w3.org/Graphics/SVG/1.1/DTD/svg11.dtd">
<!-- Generated by graphviz version 2.40.1 (20161225.0304)
 -->
<!-- Title: public.dtb_classcategory Pages: 1 -->
<svg width="916pt" height="1712pt"
 viewBox="0.00 0.00 916.00 1712.00" xmlns="http://www.w3.org/2000/svg" xmlns:xlink="http://www.w3.org/1999/xlink">
<g id="graph0" class="graph" transform="scale(1 1) rotate(0) translate(4 1708)">
<title>public.dtb_classcategory</title>
<polygon fill="#ffffff" stroke="transparent" points="-4,4 -4,-1708 912,-1708 912,4 -4,4"/>
<!-- public.dtb_classcategory -->
<g id="node1" class="node">
<title>public.dtb_classcategory</title>
<polygon fill="#efefef" stroke="transparent" points="274.5,-874 274.5,-920 615.5,-920 615.5,-874 274.5,-874"/>
<polygon fill="none" stroke="#000000" points="274.5,-874 274.5,-920 615.5,-920 615.5,-874 274.5,-874"/>
<text text-anchor="start" x="297.8483" y="-897.8" font-family="Arial Bold" font-size="18.00" fill="#000000">public.dtb_classcategory</text>
<text text-anchor="start" x="494.8979" y="-897.8" font-family="Arial" font-size="14.00" fill="#000000"> </text>
<text text-anchor="start" x="498.7885" y="-897.8" font-family="Arial" font-size="14.00" fill="#666666">[BASE TABLE]</text>
<text text-anchor="start" x="395.2069" y="-883.4" font-family="Arial" font-size="14.00" fill="#333333">規格分類情報</text>
<polygon fill="none" stroke="#000000" points="274.5,-844 274.5,-874 615.5,-874 615.5,-844 274.5,-844"/>
<text text-anchor="start" x="281.5" y="-855.4" font-family="Arial" font-size="14.00" fill="#000000">classcategory_id </text>
<text text-anchor="start" x="389.6332" y="-855.4" font-family="Arial" font-size="14.00" fill="#666666">[integer]</text>
<text text-anchor="start" x="440.2026" y="-855.4" font-family="Arial" font-size="14.00" fill="#000000"> 規格分類情報ID</text>
<polygon fill="none" stroke="#000000" points="274.5,-814 274.5,-844 615.5,-844 615.5,-814 274.5,-814"/>
<text text-anchor="start" x="281.5" y="-825.4" font-family="Arial" font-size="14.00" fill="#000000">name </text>
<text text-anchor="start" x="320.399" y="-825.4" font-family="Arial" font-size="14.00" fill="#666666">[text]</text>
<text text-anchor="start" x="350.744" y="-825.4" font-family="Arial" font-size="14.00" fill="#000000"> 規格分類名</text>
<polygon fill="none" stroke="#000000" points="274.5,-784 274.5,-814 615.5,-814 615.5,-784 274.5,-784"/>
<text text-anchor="start" x="281.5" y="-795.4" font-family="Arial" font-size="14.00" fill="#000000">class_id </text>
<text text-anchor="start" x="335.9516" y="-795.4" font-family="Arial" font-size="14.00" fill="#666666">[integer]</text>
<text text-anchor="start" x="386.521" y="-795.4" font-family="Arial" font-size="14.00" fill="#000000"> 規格ID</text>
<polygon fill="none" stroke="#000000" points="274.5,-754 274.5,-784 615.5,-784 615.5,-754 274.5,-754"/>
<text text-anchor="start" x="281.5" y="-765.4" font-family="Arial" font-size="14.00" fill="#000000">rank </text>
<text text-anchor="start" x="312.6164" y="-765.4" font-family="Arial" font-size="14.00" fill="#666666">[integer]</text>
<text text-anchor="start" x="363.1858" y="-765.4" font-family="Arial" font-size="14.00" fill="#000000"> 表示順</text>
<polygon fill="none" stroke="#000000" points="274.5,-724 274.5,-754 615.5,-754 615.5,-724 274.5,-724"/>
<text text-anchor="start" x="281.5" y="-735.4" font-family="Arial" font-size="14.00" fill="#000000">creator_id </text>
<text text-anchor="start" x="347.622" y="-735.4" font-family="Arial" font-size="14.00" fill="#666666">[integer]</text>
<text text-anchor="start" x="398.1914" y="-735.4" font-family="Arial" font-size="14.00" fill="#000000"> 作成者ID</text>
<polygon fill="none" stroke="#000000" points="274.5,-694 274.5,-724 615.5,-724 615.5,-694 274.5,-694"/>
<text text-anchor="start" x="281.235" y="-705.4" font-family="Arial" font-size="14.00" fill="#000000">create_date </text>
<text text-anchor="start" x="359.0456" y="-705.4" font-family="Arial" font-size="14.00" fill="#666666">[timestamp without time zone]</text>
<text text-anchor="start" x="544.1858" y="-705.4" font-family="Arial" font-size="14.00" fill="#000000"> 作成日時</text>
<polygon fill="none" stroke="#000000" points="274.5,-664 274.5,-694 615.5,-694 615.5,-664 274.5,-664"/>
<text text-anchor="start" x="281.5" y="-675.4" font-family="Arial" font-size="14.00" fill="#000000">update_date </text>
<text text-anchor="start" x="363.2152" y="-675.4" font-family="Arial" font-size="14.00" fill="#666666">[timestamp without time zone]</text>
<text text-anchor="start" x="548.3554" y="-675.4" font-family="Arial" font-size="14.00" fill="#000000"> 更新日時</text>
<polygon fill="none" stroke="#000000" points="274.5,-634 274.5,-664 615.5,-664 615.5,-634 274.5,-634"/>
<text text-anchor="start" x="281.5" y="-645.4" font-family="Arial" font-size="14.00" fill="#000000">del_flg </text>
<text text-anchor="start" x="326.6248" y="-645.4" font-family="Arial" font-size="14.00" fill="#666666">[smallint]</text>
<text text-anchor="start" x="381.8422" y="-645.4" font-family="Arial" font-size="14.00" fill="#000000"> 削除フラグ</text>
<polygon fill="none" stroke="#000000" stroke-width="3" points="272.5,-632.5 272.5,-921.5 616.5,-921.5 616.5,-632.5 272.5,-632.5"/>
</g>
<!-- public.dtb_class -->
<g id="node3" class="node">
<title>public.dtb_class</title>
<polygon fill="#efefef" stroke="transparent" points="43.5,-358 43.5,-404 384.5,-404 384.5,-358 43.5,-358"/>
<polygon fill="none" stroke="#000000" points="43.5,-358 43.5,-404 384.5,-404 384.5,-358 43.5,-358"/>
<text text-anchor="start" x="101.3579" y="-381.8" font-family="Arial Bold" font-size="18.00" fill="#000000">public.dtb_class</text>
<text text-anchor="start" x="229.3883" y="-381.8" font-family="Arial" font-size="14.00" fill="#000000"> </text>
<text text-anchor="start" x="233.2789" y="-381.8" font-family="Arial" font-size="14.00" fill="#666666">[BASE TABLE]</text>
<text text-anchor="start" x="179.7637" y="-367.4" font-family="Arial" font-size="14.00" fill="#333333">規格情報</text>
<polygon fill="none" stroke="#000000" points="43.5,-328 43.5,-358 384.5,-358 384.5,-328 43.5,-328"/>
<text text-anchor="start" x="50.5" y="-339.4" font-family="Arial" font-size="14.00" fill="#000000">class_id </text>
<text text-anchor="start" x="104.9516" y="-339.4" font-family="Arial" font-size="14.00" fill="#666666">[integer]</text>
<text text-anchor="start" x="155.521" y="-339.4" font-family="Arial" font-size="14.00" fill="#000000"> 規格ID</text>
<polygon fill="none" stroke="#000000" points="43.5,-298 43.5,-328 384.5,-328 384.5,-298 43.5,-298"/>
<text text-anchor="start" x="50.5" y="-309.4" font-family="Arial" font-size="14.00" fill="#000000">name </text>
<text text-anchor="start" x="89.399" y="-309.4" font-family="Arial" font-size="14.00" fill="#666666">[text]</text>
<text text-anchor="start" x="119.744" y="-309.4" font-family="Arial" font-size="14.00" fill="#000000"> 規格名</text>
<polygon fill="none" stroke="#000000" points="43.5,-268 43.5,-298 384.5,-298 384.5,-268 43.5,-268"/>
<text text-anchor="start" x="50.5" y="-279.4" font-family="Arial" font-size="14.00" fill="#000000">rank </text>
<text text-anchor="start" x="81.6164" y="-279.4" font-family="Arial" font-size="14.00" fill="#666666">[integer]</text>
<text text-anchor="start" x="132.1858" y="-279.4" font-family="Arial" font-size="14.00" fill="#000000"> 表示順</text>
<polygon fill="none" stroke="#000000" points="43.5,-238 43.5,-268 384.5,-268 384.5,-238 43.5,-238"/>
<text text-anchor="start" x="50.5" y="-249.4" font-family="Arial" font-size="14.00" fill="#000000">creator_id </text>
<text text-anchor="start" x="116.622" y="-249.4" font-family="Arial" font-size="14.00" fill="#666666">[integer]</text>
<text text-anchor="start" x="167.1914" y="-249.4" font-family="Arial" font-size="14.00" fill="#000000"> 作成者ID</text>
<polygon fill="none" stroke="#000000" points="43.5,-208 43.5,-238 384.5,-238 384.5,-208 43.5,-208"/>
<text text-anchor="start" x="50.235" y="-219.4" font-family="Arial" font-size="14.00" fill="#000000">create_date </text>
<text text-anchor="start" x="128.0456" y="-219.4" font-family="Arial" font-size="14.00" fill="#666666">[timestamp without time zone]</text>
<text text-anchor="start" x="313.1858" y="-219.4" font-family="Arial" font-size="14.00" fill="#000000"> 作成日時</text>
<polygon fill="none" stroke="#000000" points="43.5,-178 43.5,-208 384.5,-208 384.5,-178 43.5,-178"/>
<text text-anchor="start" x="50.5" y="-189.4" font-family="Arial" font-size="14.00" fill="#000000">update_date </text>
<text text-anchor="start" x="132.2152" y="-189.4" font-family="Arial" font-size="14.00" fill="#666666">[timestamp without time zone]</text>
<text text-anchor="start" x="317.3554" y="-189.4" font-family="Arial" font-size="14.00" fill="#000000"> 更新日時</text>
<polygon fill="none" stroke="#000000" points="43.5,-148 43.5,-178 384.5,-178 384.5,-148 43.5,-148"/>
<text text-anchor="start" x="50.5" y="-159.4" font-family="Arial" font-size="14.00" fill="#000000">del_flg </text>
<text text-anchor="start" x="95.6248" y="-159.4" font-family="Arial" font-size="14.00" fill="#666666">[smallint]</text>
<text text-anchor="start" x="150.8422" y="-159.4" font-family="Arial" font-size="14.00" fill="#000000"> 削除フラグ</text>
</g>
<!-- public.dtb_classcategory&#45;&gt;public.dtb_class -->
<g id="edge3" class="edge">
<title>public.dtb_classcategory:class_id&#45;&gt;public.dtb_class:class_id</title>
<path fill="none" stroke="#000000" stroke-dasharray="5,2" d="M264.2219,-798.8287C25.2029,-790.6239 369.6187,-490.2683 384.5,-447 399.533,-403.2907 430.7222,-343 384.5,-343"/>
<polygon fill="#000000" stroke="#000000" points="264.5014,-798.8332 274.425,-803.4994 269.5007,-798.9166 274.5,-799 274.5,-799 274.5,-799 269.5007,-798.9166 274.575,-794.5006 264.5014,-798.8332 264.5014,-798.8332"/>
<text text-anchor="start" x="184.8245" y="-809" font-family="Arial" font-size="10.00" fill="#000000">Additional Relation</text>
</g>
<!-- public.dtb_member -->
<g id="node4" class="node">
<title>public.dtb_member</title>
<polygon fill="#efefef" stroke="transparent" points="488.5,-463 488.5,-509 865.5,-509 865.5,-463 488.5,-463"/>
<polygon fill="none" stroke="#000000" points="488.5,-463 488.5,-509 865.5,-509 865.5,-463 488.5,-463"/>
<text text-anchor="start" x="551.8605" y="-486.8" font-family="Arial Bold" font-size="18.00" fill="#000000">public.dtb_member</text>
<text text-anchor="start" x="704.8857" y="-486.8" font-family="Arial" font-size="14.00" fill="#000000"> </text>
<text text-anchor="start" x="708.7763" y="-486.8" font-family="Arial" font-size="14.00" fill="#666666">[BASE TABLE]</text>
<text text-anchor="start" x="597.4016" y="-472.4" font-family="Arial" font-size="14.00" fill="#333333">管理画面メンバー情報</text>
<polygon fill="none" stroke="#000000" points="488.5,-433 488.5,-463 865.5,-463 865.5,-433 488.5,-433"/>
<text text-anchor="start" x="495.5" y="-444.4" font-family="Arial" font-size="14.00" fill="#000000">member_id </text>
<text text-anchor="start" x="569.392" y="-444.4" font-family="Arial" font-size="14.00" fill="#666666">[integer]</text>
<text text-anchor="start" x="619.9614" y="-444.4" font-family="Arial" font-size="14.00" fill="#000000"> メンバーID</text>
<polygon fill="none" stroke="#000000" points="488.5,-403 488.5,-433 865.5,-433 865.5,-403 488.5,-403"/>
<text text-anchor="start" x="495.5" y="-414.4" font-family="Arial" font-size="14.00" fill="#000000">name </text>
<text text-anchor="start" x="534.399" y="-414.4" font-family="Arial" font-size="14.00" fill="#666666">[text]</text>
<text text-anchor="start" x="564.744" y="-414.4" font-family="Arial" font-size="14.00" fill="#000000"> 名前</text>
<polygon fill="none" stroke="#000000" points="488.5,-373 488.5,-403 865.5,-403 865.5,-373 488.5,-373"/>
<text text-anchor="start" x="495.5" y="-384.4" font-family="Arial" font-size="14.00" fill="#000000">department </text>
<text text-anchor="start" x="570.1886" y="-384.4" font-family="Arial" font-size="14.00" fill="#666666">[text]</text>
<text text-anchor="start" x="600.5336" y="-384.4" font-family="Arial" font-size="14.00" fill="#000000"> 部門</text>
<polygon fill="none" stroke="#000000" points="488.5,-343 488.5,-373 865.5,-373 865.5,-343 488.5,-343"/>
<text text-anchor="start" x="495.5" y="-354.4" font-family="Arial" font-size="14.00" fill="#000000">login_id </text>
<text text-anchor="start" x="547.6234" y="-354.4" font-family="Arial" font-size="14.00" fill="#666666">[text]</text>
<text text-anchor="start" x="577.9684" y="-354.4" font-family="Arial" font-size="14.00" fill="#000000"> ログインID</text>
<polygon fill="none" stroke="#000000" points="488.5,-313 488.5,-343 865.5,-343 865.5,-313 488.5,-313"/>
<text text-anchor="start" x="495.5" y="-324.4" font-family="Arial" font-size="14.00" fill="#000000">password </text>
<text text-anchor="start" x="559.2882" y="-324.4" font-family="Arial" font-size="14.00" fill="#666666">[text]</text>
<text text-anchor="start" x="589.6332" y="-324.4" font-family="Arial" font-size="14.00" fill="#000000"> パスワード</text>
<polygon fill="none" stroke="#000000" points="488.5,-283 488.5,-313 865.5,-313 865.5,-283 488.5,-283"/>
<text text-anchor="start" x="495.5" y="-294.4" font-family="Arial" font-size="14.00" fill="#000000">salt </text>
<text text-anchor="start" x="521.1704" y="-294.4" font-family="Arial" font-size="14.00" fill="#666666">[text]</text>
<text text-anchor="start" x="551.5154" y="-294.4" font-family="Arial" font-size="14.00" fill="#000000"> 暗号化付与文字列</text>
<polygon fill="none" stroke="#000000" points="488.5,-253 488.5,-283 865.5,-283 865.5,-253 488.5,-253"/>
<text text-anchor="start" x="495.5" y="-264.4" font-family="Arial" font-size="14.00" fill="#000000">authority </text>
<text text-anchor="start" x="553.0694" y="-264.4" font-family="Arial" font-size="14.00" fill="#666666">[smallint]</text>
<text text-anchor="start" x="608.2868" y="-264.4" font-family="Arial" font-size="14.00" fill="#000000"> 権限</text>
<polygon fill="none" stroke="#000000" points="488.5,-223 488.5,-253 865.5,-253 865.5,-223 488.5,-223"/>
<text text-anchor="start" x="495.5" y="-234.4" font-family="Arial" font-size="14.00" fill="#000000">rank </text>
<text text-anchor="start" x="526.6164" y="-234.4" font-family="Arial" font-size="14.00" fill="#666666">[integer]</text>
<text text-anchor="start" x="577.1858" y="-234.4" font-family="Arial" font-size="14.00" fill="#000000"> 表示順</text>
<polygon fill="none" stroke="#000000" points="488.5,-193 488.5,-223 865.5,-223 865.5,-193 488.5,-193"/>
<text text-anchor="start" x="495.5" y="-204.4" font-family="Arial" font-size="14.00" fill="#000000">work </text>
<text text-anchor="start" x="528.9404" y="-204.4" font-family="Arial" font-size="14.00" fill="#666666">[smallint]</text>
<text text-anchor="start" x="584.1578" y="-204.4" font-family="Arial" font-size="14.00" fill="#000000"> 稼動フラグ</text>
<polygon fill="none" stroke="#000000" points="488.5,-163 488.5,-193 865.5,-193 865.5,-163 488.5,-163"/>
<text text-anchor="start" x="495.5" y="-174.4" font-family="Arial" font-size="14.00" fill="#000000">del_flg </text>
<text text-anchor="start" x="540.6248" y="-174.4" font-family="Arial" font-size="14.00" fill="#666666">[smallint]</text>
<text text-anchor="start" x="595.8422" y="-174.4" font-family="Arial" font-size="14.00" fill="#000000"> 削除フラグ</text>
<polygon fill="none" stroke="#000000" points="488.5,-133 488.5,-163 865.5,-163 865.5,-133 488.5,-133"/>
<text text-anchor="start" x="495.5" y="-144.4" font-family="Arial" font-size="14.00" fill="#000000">creator_id </text>
<text text-anchor="start" x="561.622" y="-144.4" font-family="Arial" font-size="14.00" fill="#666666">[integer]</text>
<text text-anchor="start" x="612.1914" y="-144.4" font-family="Arial" font-size="14.00" fill="#000000"> 作成者ID</text>
<polygon fill="none" stroke="#000000" points="488.5,-103 488.5,-133 865.5,-133 865.5,-103 488.5,-103"/>
<text text-anchor="start" x="495.5" y="-114.4" font-family="Arial" font-size="14.00" fill="#000000">create_date </text>
<text text-anchor="start" x="573.3106" y="-114.4" font-family="Arial" font-size="14.00" fill="#666666">[timestamp without time zone]</text>
<text text-anchor="start" x="758.4508" y="-114.4" font-family="Arial" font-size="14.00" fill="#000000"> 作成日時</text>
<polygon fill="none" stroke="#000000" points="488.5,-73 488.5,-103 865.5,-103 865.5,-73 488.5,-73"/>
<text text-anchor="start" x="495.5" y="-84.4" font-family="Arial" font-size="14.00" fill="#000000">update_date </text>
<text text-anchor="start" x="577.2152" y="-84.4" font-family="Arial" font-size="14.00" fill="#666666">[timestamp without time zone]</text>
<text text-anchor="start" x="762.3554" y="-84.4" font-family="Arial" font-size="14.00" fill="#000000"> 更新日付</text>
<polygon fill="none" stroke="#000000" points="488.5,-43 488.5,-73 865.5,-73 865.5,-43 488.5,-43"/>
<text text-anchor="start" x="495.4851" y="-54.4" font-family="Arial" font-size="14.00" fill="#000000">login_date </text>
<text text-anchor="start" x="563.9577" y="-54.4" font-family="Arial" font-size="14.00" fill="#666666">[timestamp without time zone]</text>
<text text-anchor="start" x="749.0979" y="-54.4" font-family="Arial" font-size="14.00" fill="#000000"> 最終ログイン日時</text>
</g>
<!-- public.dtb_classcategory&#45;&gt;public.dtb_member -->
<g id="edge4" class="edge">
<title>public.dtb_classcategory:creator_id&#45;&gt;public.dtb_member:member_id</title>
<path fill="none" stroke="#000000" stroke-dasharray="5,2" d="M625.6823,-738.1487C679.6559,-728.4712 653.7566,-638.6082 615.5,-588 580.1215,-541.199 523.8785,-598.801 488.5,-552 460.6268,-515.1275 442.2778,-448 488.5,-448"/>
<polygon fill="#000000" stroke="#000000" points="625.4652,-738.1667 615.125,-734.5156 620.4826,-738.5834 615.5,-739 615.5,-739 615.5,-739 620.4826,-738.5834 615.875,-743.4844 625.4652,-738.1667 625.4652,-738.1667"/>
<text text-anchor="start" x="622.8245" y="-749" font-family="Arial" font-size="10.00" fill="#000000">Additional Relation</text>
</g>
<!-- public.dtb_products_class -->
<g id="node2" class="node">
<title>public.dtb_products_class</title>
<polygon fill="#efefef" stroke="transparent" points="271.5,-1615 271.5,-1661 618.5,-1661 618.5,-1615 271.5,-1615"/>
<polygon fill="none" stroke="#000000" points="271.5,-1615 271.5,-1661 618.5,-1661 618.5,-1615 271.5,-1615"/>
<text text-anchor="start" x="292.8452" y="-1638.8" font-family="Arial Bold" font-size="18.00" fill="#000000">public.dtb_products_class</text>
<text text-anchor="start" x="499.901" y="-1638.8" font-family="Arial" font-size="14.00" fill="#000000"> </text>
<text text-anchor="start" x="503.7916" y="-1638.8" font-family="Arial" font-size="14.00" fill="#666666">[BASE TABLE]</text>
<text text-anchor="start" x="399.0919" y="-1624.4" font-family="Arial" font-size="14.00" fill="#333333">商品規格情報</text>
<polygon fill="none" stroke="#000000" points="271.5,-1585 271.5,-1615 618.5,-1615 618.5,-1585 271.5,-1585"/>
<text text-anchor="start" x="278.5" y="-1596.4" font-family="Arial" font-size="14.00" fill="#000000">product_class_id </text>
<text text-anchor="start" x="387.4158" y="-1596.4" font-family="Arial" font-size="14.00" fill="#666666">[integer]</text>
<text text-anchor="start" x="437.9852" y="-1596.4" font-family="Arial" font-size="14.00" fill="#000000"> 商品規格ID</text>
<polygon fill="none" stroke="#000000" points="271.5,-1555 271.5,-1585 618.5,-1585 618.5,-1555 271.5,-1555"/>
<text text-anchor="start" x="278.5" y="-1566.4" font-family="Arial" font-size="14.00" fill="#000000">product_id </text>
<text text-anchor="start" x="347.744" y="-1566.4" font-family="Arial" font-size="14.00" fill="#666666">[integer]</text>
<text text-anchor="start" x="398.3134" y="-1566.4" font-family="Arial" font-size="14.00" fill="#000000"> 商品ID</text>
<polygon fill="none" stroke="#000000" points="271.5,-1525 271.5,-1555 618.5,-1555 618.5,-1525 271.5,-1525"/>
<text text-anchor="start" x="278.5" y="-1536.4" font-family="Arial" font-size="14.00" fill="#000000">classcategory_id1 </text>
<text text-anchor="start" x="394.4158" y="-1536.4" font-family="Arial" font-size="14.00" fill="#666666">[integer]</text>
<text text-anchor="start" x="444.9852" y="-1536.4" font-family="Arial" font-size="14.00" fill="#000000"> 規格分類ID1</text>
<polygon fill="none" stroke="#000000" points="271.5,-1495 271.5,-1525 618.5,-1525 618.5,-1495 271.5,-1495"/>
<text text-anchor="start" x="278.5" y="-1506.4" font-family="Arial" font-size="14.00" fill="#000000">classcategory_id2 </text>
<text text-anchor="start" x="394.4158" y="-1506.4" font-family="Arial" font-size="14.00" fill="#666666">[integer]</text>
<text text-anchor="start" x="444.9852" y="-1506.4" font-family="Arial" font-size="14.00" fill="#000000"> 規格分類ID2</text>
<polygon fill="none" stroke="#000000" points="271.5,-1465 271.5,-1495 618.5,-1495 618.5,-1465 271.5,-1465"/>
<text text-anchor="start" x="278.5" y="-1476.4" font-family="Arial" font-size="14.00" fill="#000000">product_type_id </text>
<text text-anchor="start" x="381.9824" y="-1476.4" font-family="Arial" font-size="14.00" fill="#666666">[integer]</text>
<text text-anchor="start" x="432.5518" y="-1476.4" font-family="Arial" font-size="14.00" fill="#000000"> 商品種別ID</text>
<polygon fill="none" stroke="#000000" points="271.5,-1435 271.5,-1465 618.5,-1465 618.5,-1435 271.5,-1435"/>
<text text-anchor="start" x="278.5" y="-1446.4" font-family="Arial" font-size="14.00" fill="#000000">product_code </text>
<text text-anchor="start" x="367.2026" y="-1446.4" font-family="Arial" font-size="14.00" fill="#666666">[text]</text>
<text text-anchor="start" x="397.5476" y="-1446.4" font-family="Arial" font-size="14.00" fill="#000000"> 商品コード</text>
<polygon fill="none" stroke="#000000" points="271.5,-1405 271.5,-1435 618.5,-1435 618.5,-1405 271.5,-1405"/>
<text text-anchor="start" x="278.5" y="-1416.4" font-family="Arial" font-size="14.00" fill="#000000">stock </text>
<text text-anchor="start" x="315.0638" y="-1416.4" font-family="Arial" font-size="14.00" fill="#666666">[numeric]</text>
<text text-anchor="start" x="372.6206" y="-1416.4" font-family="Arial" font-size="14.00" fill="#000000"> 在庫数</text>
<polygon fill="none" stroke="#000000" points="271.5,-1375 271.5,-1405 618.5,-1405 618.5,-1375 271.5,-1375"/>
<text text-anchor="start" x="278.5" y="-1386.4" font-family="Arial" font-size="14.00" fill="#000000">stock_unlimited </text>
<text text-anchor="start" x="378.8478" y="-1386.4" font-family="Arial" font-size="14.00" fill="#666666">[smallint]</text>
<text text-anchor="start" x="434.0652" y="-1386.4" font-family="Arial" font-size="14.00" fill="#000000"> 在庫制限</text>
<polygon fill="none" stroke="#000000" points="271.5,-1345 271.5,-1375 618.5,-1375 618.5,-1345 271.5,-1345"/>
<text text-anchor="start" x="278.5" y="-1356.4" font-family="Arial" font-size="14.00" fill="#000000">sale_limit </text>
<text text-anchor="start" x="340.716" y="-1356.4" font-family="Arial" font-size="14.00" fill="#666666">[numeric]</text>
<text text-anchor="start" x="398.2728" y="-1356.4" font-family="Arial" font-size="14.00" fill="#000000"> 販売制限数</text>
<polygon fill="none" stroke="#000000" points="271.5,-1315 271.5,-1345 618.5,-1345 618.5,-1315 271.5,-1315"/>
<text text-anchor="start" x="278.5" y="-1326.4" font-family="Arial" font-size="14.00" fill="#000000">price01 </text>
<text text-anchor="start" x="328.2882" y="-1326.4" font-family="Arial" font-size="14.00" fill="#666666">[numeric]</text>
<text text-anchor="start" x="385.845" y="-1326.4" font-family="Arial" font-size="14.00" fill="#000000"> 価格</text>
<polygon fill="none" stroke="#000000" points="271.5,-1285 271.5,-1315 618.5,-1315 618.5,-1285 271.5,-1285"/>
<text text-anchor="start" x="278.5" y="-1296.4" font-family="Arial" font-size="14.00" fill="#000000">price02 </text>
<text text-anchor="start" x="328.2882" y="-1296.4" font-family="Arial" font-size="14.00" fill="#666666">[numeric]</text>
<text text-anchor="start" x="385.845" y="-1296.4" font-family="Arial" font-size="14.00" fill="#000000"> 特別価格</text>
<polygon fill="none" stroke="#000000" points="271.5,-1255 271.5,-1285 618.5,-1285 618.5,-1255 271.5,-1255"/>
<text text-anchor="start" x="278.5" y="-1266.4" font-family="Arial" font-size="14.00" fill="#000000">deliv_fee </text>
<text text-anchor="start" x="338.4074" y="-1266.4" font-family="Arial" font-size="14.00" fill="#666666">[numeric]</text>
<text text-anchor="start" x="395.9642" y="-1266.4" font-family="Arial" font-size="14.00" fill="#000000"> 商品送料</text>
<polygon fill="none" stroke="#000000" points="271.5,-1225 271.5,-1255 618.5,-1255 618.5,-1225 271.5,-1225"/>
<text text-anchor="start" x="278.5" y="-1236.4" font-family="Arial" font-size="14.00" fill="#000000">point_rate </text>
<text text-anchor="start" x="344.6346" y="-1236.4" font-family="Arial" font-size="14.00" fill="#666666">[numeric]</text>
<text text-anchor="start" x="402.1914" y="-1236.4" font-family="Arial" font-size="14.00" fill="#000000"> ポイント付与率</text>
<polygon fill="none" stroke="#000000" points="271.5,-1195 271.5,-1225 618.5,-1225 618.5,-1195 271.5,-1195"/>
<text text-anchor="start" x="278.5" y="-1206.4" font-family="Arial" font-size="14.00" fill="#000000">creator_id </text>
<text text-anchor="start" x="344.622" y="-1206.4" font-family="Arial" font-size="14.00" fill="#666666">[integer]</text>
<text text-anchor="start" x="395.1914" y="-1206.4" font-family="Arial" font-size="14.00" fill="#000000"> 作成者ID</text>
<polygon fill="none" stroke="#000000" points="271.5,-1165 271.5,-1195 618.5,-1195 618.5,-1165 271.5,-1165"/>
<text text-anchor="start" x="278.5" y="-1176.4" font-family="Arial" font-size="14.00" fill="#000000">create_date </text>
<text text-anchor="start" x="356.3106" y="-1176.4" font-family="Arial" font-size="14.00" fill="#666666">[timestamp without time zone]</text>
<text text-anchor="start" x="541.4508" y="-1176.4" font-family="Arial" font-size="14.00" fill="#000000"> 作成日時</text>
<polygon fill="none" stroke="#000000" points="271.5,-1135 271.5,-1165 618.5,-1165 618.5,-1135 271.5,-1135"/>
<text text-anchor="start" x="278.5" y="-1146.4" font-family="Arial" font-size="14.00" fill="#000000">update_date </text>
<text text-anchor="start" x="360.2152" y="-1146.4" font-family="Arial" font-size="14.00" fill="#666666">[timestamp without time zone]</text>
<text text-anchor="start" x="545.3554" y="-1146.4" font-family="Arial" font-size="14.00" fill="#000000"> 更新日時</text>
<polygon fill="none" stroke="#000000" points="271.5,-1105 271.5,-1135 618.5,-1135 618.5,-1105 271.5,-1105"/>
<text text-anchor="start" x="278.5" y="-1116.4" font-family="Arial" font-size="14.00" fill="#000000">down_filename </text>
<text text-anchor="start" x="376.5224" y="-1116.4" font-family="Arial" font-size="14.00" fill="#666666">[text]</text>
<text text-anchor="start" x="406.8674" y="-1116.4" font-family="Arial" font-size="14.00" fill="#000000"> ダウンロードファイル名</text>
<polygon fill="none" stroke="#000000" points="271.5,-1075 271.5,-1105 618.5,-1105 618.5,-1075 271.5,-1075"/>
<text text-anchor="start" x="278.2936" y="-1086.4" font-family="Arial" font-size="14.00" fill="#000000">down_realfilename </text>
<text text-anchor="start" x="399.6484" y="-1086.4" font-family="Arial" font-size="14.00" fill="#666666">[text]</text>
<text text-anchor="start" x="429.9934" y="-1086.4" font-family="Arial" font-size="14.00" fill="#000000"> ダウンロード実ファイル名</text>
<polygon fill="none" stroke="#000000" points="271.5,-1045 271.5,-1075 618.5,-1075 618.5,-1045 271.5,-1045"/>
<text text-anchor="start" x="278.5" y="-1056.4" font-family="Arial" font-size="14.00" fill="#000000">del_flg </text>
<text text-anchor="start" x="323.6248" y="-1056.4" font-family="Arial" font-size="14.00" fill="#666666">[smallint]</text>
<text text-anchor="start" x="378.8422" y="-1056.4" font-family="Arial" font-size="14.00" fill="#000000"> 削除フラグ</text>
</g>
<!-- public.dtb_products_class&#45;&gt;public.dtb_classcategory -->
<g id="edge1" class="edge">
<title>public.dtb_products_class:classcategory_id1&#45;&gt;public.dtb_classcategory:classcategory_id</title>
<path fill="none" stroke="#000000" stroke-dasharray="5,2" d="M261.4183,-1539.7443C-31.0644,-1524.79 -24.7705,-859 274.5,-859"/>
<polygon fill="#000000" stroke="#000000" points="261.5032,-1539.7463 271.3858,-1544.4986 266.5016,-1539.8732 271.5,-1540 271.5,-1540 271.5,-1540 266.5016,-1539.8732 271.6142,-1535.5014 261.5032,-1539.7463 261.5032,-1539.7463"/>
<text text-anchor="start" x="181.8245" y="-1550" font-family="Arial" font-size="10.00" fill="#000000">Additional Relation</text>
</g>
<!-- public.dtb_products_class&#45;&gt;public.dtb_classcategory -->
<g id="edge2" class="edge">
<title>public.dtb_products_class:classcategory_id2&#45;&gt;public.dtb_classcategory:classcategory_id</title>
<path fill="none" stroke="#000000" stroke-dasharray="5,2" d="M261.4484,-1509.7339C-17.7268,-1494.8316 -11.4457,-859 274.5,-859"/>
<polygon fill="#000000" stroke="#000000" points="261.5035,-1509.7353 271.3809,-1514.4984 266.5018,-1509.8676 271.5,-1510 271.5,-1510 271.5,-1510 266.5018,-1509.8676 271.6191,-1505.5016 261.5035,-1509.7353 261.5035,-1509.7353"/>
<text text-anchor="start" x="181.8245" y="-1520" font-family="Arial" font-size="10.00" fill="#000000">Additional Relation</text>
</g>
</g>
</svg>
