<?xml version="1.0" encoding="UTF-8" standalone="no"?>
<!DOCTYPE svg PUBLIC "-//W3C//DTD SVG 1.1//EN"
 "http://www.w3.org/Graphics/SVG/1.1/DTD/svg11.dtd">
<!-- Generated by graphviz version 2.40.1 (20161225.0304)
 -->
<!-- Title: public.dtb_product_status Pages: 1 -->
<svg width="1686pt" height="1844pt"
 viewBox="0.00 0.00 1686.00 1844.00" xmlns="http://www.w3.org/2000/svg" xmlns:xlink="http://www.w3.org/1999/xlink">
<g id="graph0" class="graph" transform="scale(1 1) rotate(0) translate(4 1840)">
<title>public.dtb_product_status</title>
<polygon fill="#ffffff" stroke="transparent" points="-4,4 -4,-1840 1682,-1840 1682,4 -4,4"/>
<!-- public.dtb_product_status -->
<g id="node1" class="node">
<title>public.dtb_product_status</title>
<polygon fill="#efefef" stroke="transparent" points="597.5,-1744 597.5,-1790 938.5,-1790 938.5,-1744 597.5,-1744"/>
<polygon fill="none" stroke="#000000" points="597.5,-1744 597.5,-1790 938.5,-1790 938.5,-1744 597.5,-1744"/>
<text text-anchor="start" x="616.837" y="-1767.8" font-family="Arial Bold" font-size="18.00" fill="#000000">public.dtb_product_status</text>
<text text-anchor="start" x="821.9092" y="-1767.8" font-family="Arial" font-size="14.00" fill="#000000"> </text>
<text text-anchor="start" x="825.7998" y="-1767.8" font-family="Arial" font-size="14.00" fill="#666666">[BASE TABLE]</text>
<text text-anchor="start" x="702.1552" y="-1753.4" font-family="Arial" font-size="14.00" fill="#333333">商品ステータス情報</text>
<polygon fill="none" stroke="#000000" points="597.5,-1714 597.5,-1744 938.5,-1744 938.5,-1714 597.5,-1714"/>
<text text-anchor="start" x="604.5" y="-1725.4" font-family="Arial" font-size="14.00" fill="#000000">product_status_id </text>
<text text-anchor="start" x="718.873" y="-1725.4" font-family="Arial" font-size="14.00" fill="#666666">[smallint]</text>
<text text-anchor="start" x="774.0904" y="-1725.4" font-family="Arial" font-size="14.00" fill="#000000"> 商品ステータスID</text>
<polygon fill="none" stroke="#000000" points="597.5,-1684 597.5,-1714 938.5,-1714 938.5,-1684 597.5,-1684"/>
<text text-anchor="start" x="604.5" y="-1695.4" font-family="Arial" font-size="14.00" fill="#000000">product_id </text>
<text text-anchor="start" x="673.744" y="-1695.4" font-family="Arial" font-size="14.00" fill="#666666">[integer]</text>
<text text-anchor="start" x="724.3134" y="-1695.4" font-family="Arial" font-size="14.00" fill="#000000"> 商品ID</text>
<polygon fill="none" stroke="#000000" points="597.5,-1654 597.5,-1684 938.5,-1684 938.5,-1654 597.5,-1654"/>
<text text-anchor="start" x="604.5" y="-1665.4" font-family="Arial" font-size="14.00" fill="#000000">creator_id </text>
<text text-anchor="start" x="670.622" y="-1665.4" font-family="Arial" font-size="14.00" fill="#666666">[integer]</text>
<text text-anchor="start" x="721.1914" y="-1665.4" font-family="Arial" font-size="14.00" fill="#000000"> 作成者ID</text>
<polygon fill="none" stroke="#000000" points="597.5,-1624 597.5,-1654 938.5,-1654 938.5,-1624 597.5,-1624"/>
<text text-anchor="start" x="604.235" y="-1635.4" font-family="Arial" font-size="14.00" fill="#000000">create_date </text>
<text text-anchor="start" x="682.0456" y="-1635.4" font-family="Arial" font-size="14.00" fill="#666666">[timestamp without time zone]</text>
<text text-anchor="start" x="867.1858" y="-1635.4" font-family="Arial" font-size="14.00" fill="#000000"> 作成日時</text>
<polygon fill="none" stroke="#000000" points="597.5,-1594 597.5,-1624 938.5,-1624 938.5,-1594 597.5,-1594"/>
<text text-anchor="start" x="604.5" y="-1605.4" font-family="Arial" font-size="14.00" fill="#000000">update_date </text>
<text text-anchor="start" x="686.2152" y="-1605.4" font-family="Arial" font-size="14.00" fill="#666666">[timestamp without time zone]</text>
<text text-anchor="start" x="871.3554" y="-1605.4" font-family="Arial" font-size="14.00" fill="#000000"> 更新日時</text>
<polygon fill="none" stroke="#000000" points="597.5,-1564 597.5,-1594 938.5,-1594 938.5,-1564 597.5,-1564"/>
<text text-anchor="start" x="604.5" y="-1575.4" font-family="Arial" font-size="14.00" fill="#000000">del_flg </text>
<text text-anchor="start" x="649.6248" y="-1575.4" font-family="Arial" font-size="14.00" fill="#666666">[smallint]</text>
<text text-anchor="start" x="704.8422" y="-1575.4" font-family="Arial" font-size="14.00" fill="#000000"> 削除フラグ</text>
<polygon fill="none" stroke="#000000" stroke-width="3" points="595.5,-1562.5 595.5,-1791.5 939.5,-1791.5 939.5,-1562.5 595.5,-1562.5"/>
</g>
<!-- public.mtb_status -->
<g id="node2" class="node">
<title>public.mtb_status</title>
<polygon fill="#efefef" stroke="transparent" points="43.5,-763 43.5,-809 294.5,-809 294.5,-763 43.5,-763"/>
<polygon fill="none" stroke="#000000" points="43.5,-763 43.5,-809 294.5,-809 294.5,-763 43.5,-763"/>
<text text-anchor="start" x="50.3567" y="-786.8" font-family="Arial Bold" font-size="18.00" fill="#000000">public.mtb_status</text>
<text text-anchor="start" x="190.3895" y="-786.8" font-family="Arial" font-size="14.00" fill="#000000"> </text>
<text text-anchor="start" x="194.2801" y="-786.8" font-family="Arial" font-size="14.00" fill="#666666">[BASE TABLE]</text>
<text text-anchor="start" x="116.773" y="-772.4" font-family="Arial" font-size="14.00" fill="#333333">商品ステータス</text>
<polygon fill="none" stroke="#000000" points="43.5,-733 43.5,-763 294.5,-763 294.5,-733 43.5,-733"/>
<text text-anchor="start" x="50.5" y="-744.4" font-family="Arial" font-size="14.00" fill="#000000">id </text>
<text text-anchor="start" x="65.2798" y="-744.4" font-family="Arial" font-size="14.00" fill="#666666">[smallint]</text>
<text text-anchor="start" x="120.4972" y="-744.4" font-family="Arial" font-size="14.00" fill="#000000"> ID</text>
<polygon fill="none" stroke="#000000" points="43.5,-703 43.5,-733 294.5,-733 294.5,-703 43.5,-703"/>
<text text-anchor="start" x="50.5" y="-714.4" font-family="Arial" font-size="14.00" fill="#000000">name </text>
<text text-anchor="start" x="89.399" y="-714.4" font-family="Arial" font-size="14.00" fill="#666666">[text]</text>
<text text-anchor="start" x="119.744" y="-714.4" font-family="Arial" font-size="14.00" fill="#000000"> 名称</text>
<polygon fill="none" stroke="#000000" points="43.5,-673 43.5,-703 294.5,-703 294.5,-673 43.5,-673"/>
<text text-anchor="start" x="50.5" y="-684.4" font-family="Arial" font-size="14.00" fill="#000000">rank </text>
<text text-anchor="start" x="81.6164" y="-684.4" font-family="Arial" font-size="14.00" fill="#666666">[smallint]</text>
<text text-anchor="start" x="136.8338" y="-684.4" font-family="Arial" font-size="14.00" fill="#000000"> 表示順</text>
</g>
<!-- public.dtb_product_status&#45;&gt;public.mtb_status -->
<g id="edge1" class="edge">
<title>public.dtb_product_status:product_status_id&#45;&gt;public.mtb_status:id</title>
<path fill="none" stroke="#000000" stroke-dasharray="5,2" d="M587.145,-1728.842C439.6698,-1724.2701 410.5684,-1620.9352 346.5,-1482 312.2623,-1407.754 376.26,-748 294.5,-748"/>
<polygon fill="#000000" stroke="#000000" points="587.5012,-1728.8474 597.4313,-1733.4995 592.5006,-1728.9237 597.5,-1729 597.5,-1729 597.5,-1729 592.5006,-1728.9237 597.5687,-1724.5005 587.5012,-1728.8474 587.5012,-1728.8474"/>
<text text-anchor="start" x="507.8245" y="-1739" font-family="Arial" font-size="10.00" fill="#000000">Additional Relation</text>
</g>
<!-- public.mtb_status_image -->
<g id="node3" class="node">
<title>public.mtb_status_image</title>
<polygon fill="#efefef" stroke="transparent" points="398.5,-763 398.5,-809 708.5,-809 708.5,-763 398.5,-763"/>
<polygon fill="none" stroke="#000000" points="398.5,-763 398.5,-809 708.5,-809 708.5,-763 398.5,-763"/>
<text text-anchor="start" x="405.3511" y="-786.8" font-family="Arial Bold" font-size="18.00" fill="#000000">public.mtb_status_image</text>
<text text-anchor="start" x="604.3951" y="-786.8" font-family="Arial" font-size="14.00" fill="#000000"> </text>
<text text-anchor="start" x="608.2857" y="-786.8" font-family="Arial" font-size="14.00" fill="#666666">[BASE TABLE]</text>
<text text-anchor="start" x="499.327" y="-772.4" font-family="Arial" font-size="14.00" fill="#333333">ステータス画像</text>
<polygon fill="none" stroke="#000000" points="398.5,-733 398.5,-763 708.5,-763 708.5,-733 398.5,-733"/>
<text text-anchor="start" x="405.5" y="-744.4" font-family="Arial" font-size="14.00" fill="#000000">id </text>
<text text-anchor="start" x="420.2798" y="-744.4" font-family="Arial" font-size="14.00" fill="#666666">[smallint]</text>
<text text-anchor="start" x="475.4972" y="-744.4" font-family="Arial" font-size="14.00" fill="#000000"> ID</text>
<polygon fill="none" stroke="#000000" points="398.5,-703 398.5,-733 708.5,-733 708.5,-703 398.5,-703"/>
<text text-anchor="start" x="405.5" y="-714.4" font-family="Arial" font-size="14.00" fill="#000000">name </text>
<text text-anchor="start" x="444.399" y="-714.4" font-family="Arial" font-size="14.00" fill="#666666">[text]</text>
<text text-anchor="start" x="474.744" y="-714.4" font-family="Arial" font-size="14.00" fill="#000000"> 名称</text>
<polygon fill="none" stroke="#000000" points="398.5,-673 398.5,-703 708.5,-703 708.5,-673 398.5,-673"/>
<text text-anchor="start" x="405.5" y="-684.4" font-family="Arial" font-size="14.00" fill="#000000">rank </text>
<text text-anchor="start" x="436.6164" y="-684.4" font-family="Arial" font-size="14.00" fill="#666666">[smallint]</text>
<text text-anchor="start" x="491.8338" y="-684.4" font-family="Arial" font-size="14.00" fill="#000000"> 表示順</text>
</g>
<!-- public.dtb_product_status&#45;&gt;public.mtb_status_image -->
<g id="edge2" class="edge">
<title>public.dtb_product_status:product_status_id&#45;&gt;public.mtb_status_image:id</title>
<path fill="none" stroke="#000000" stroke-dasharray="5,2" d="M587.9966,-1725.8273C509.2593,-1664.937 814.5533,-748 708.5,-748"/>
<polygon fill="#000000" stroke="#000000" points="588.0146,-1725.8333 596.075,-1733.2684 592.7573,-1727.4166 597.5,-1729 597.5,-1729 597.5,-1729 592.7573,-1727.4166 598.925,-1724.7316 588.0146,-1725.8333 588.0146,-1725.8333"/>
<text text-anchor="start" x="507.8245" y="-1713" font-family="Arial" font-size="10.00" fill="#000000">Additional Relation</text>
</g>
<!-- public.dtb_products -->
<g id="node4" class="node">
<title>public.dtb_products</title>
<polygon fill="#efefef" stroke="transparent" points="813.5,-1393 813.5,-1439 1154.5,-1439 1154.5,-1393 813.5,-1393"/>
<polygon fill="none" stroke="#000000" points="813.5,-1393 813.5,-1439 1154.5,-1439 1154.5,-1393 813.5,-1393"/>
<text text-anchor="start" x="857.3485" y="-1416.8" font-family="Arial Bold" font-size="18.00" fill="#000000">public.dtb_products</text>
<text text-anchor="start" x="1013.3977" y="-1416.8" font-family="Arial" font-size="14.00" fill="#000000"> </text>
<text text-anchor="start" x="1017.2883" y="-1416.8" font-family="Arial" font-size="14.00" fill="#666666">[BASE TABLE]</text>
<text text-anchor="start" x="958.7104" y="-1402.4" font-family="Arial" font-size="14.00" fill="#333333">商品情報</text>
<polygon fill="none" stroke="#000000" points="813.5,-1363 813.5,-1393 1154.5,-1393 1154.5,-1363 813.5,-1363"/>
<text text-anchor="start" x="820.5" y="-1374.4" font-family="Arial" font-size="14.00" fill="#000000">product_id </text>
<text text-anchor="start" x="889.744" y="-1374.4" font-family="Arial" font-size="14.00" fill="#666666">[integer]</text>
<text text-anchor="start" x="940.3134" y="-1374.4" font-family="Arial" font-size="14.00" fill="#000000"> 商品ID</text>
<polygon fill="none" stroke="#000000" points="813.5,-1333 813.5,-1363 1154.5,-1363 1154.5,-1333 813.5,-1333"/>
<text text-anchor="start" x="820.5" y="-1344.4" font-family="Arial" font-size="14.00" fill="#000000">name </text>
<text text-anchor="start" x="859.399" y="-1344.4" font-family="Arial" font-size="14.00" fill="#666666">[text]</text>
<text text-anchor="start" x="889.744" y="-1344.4" font-family="Arial" font-size="14.00" fill="#000000"> 商品名</text>
<polygon fill="none" stroke="#000000" points="813.5,-1303 813.5,-1333 1154.5,-1333 1154.5,-1303 813.5,-1303"/>
<text text-anchor="start" x="820.5" y="-1314.4" font-family="Arial" font-size="14.00" fill="#000000">maker_id </text>
<text text-anchor="start" x="881.9488" y="-1314.4" font-family="Arial" font-size="14.00" fill="#666666">[integer]</text>
<text text-anchor="start" x="932.5182" y="-1314.4" font-family="Arial" font-size="14.00" fill="#000000"> メーカーID</text>
<polygon fill="none" stroke="#000000" points="813.5,-1273 813.5,-1303 1154.5,-1303 1154.5,-1273 813.5,-1273"/>
<text text-anchor="start" x="820.5" y="-1284.4" font-family="Arial" font-size="14.00" fill="#000000">status </text>
<text text-anchor="start" x="861.737" y="-1284.4" font-family="Arial" font-size="14.00" fill="#666666">[smallint]</text>
<text text-anchor="start" x="916.9544" y="-1284.4" font-family="Arial" font-size="14.00" fill="#000000"> 表示ステータス</text>
<polygon fill="none" stroke="#000000" points="813.5,-1243 813.5,-1273 1154.5,-1273 1154.5,-1243 813.5,-1243"/>
<text text-anchor="start" x="820.5" y="-1254.4" font-family="Arial" font-size="14.00" fill="#000000">comment1 </text>
<text text-anchor="start" x="889.7328" y="-1254.4" font-family="Arial" font-size="14.00" fill="#666666">[text]</text>
<text text-anchor="start" x="920.0778" y="-1254.4" font-family="Arial" font-size="14.00" fill="#000000"> コメント1(メーカーURL)</text>
<polygon fill="none" stroke="#000000" points="813.5,-1213 813.5,-1243 1154.5,-1243 1154.5,-1213 813.5,-1213"/>
<text text-anchor="start" x="820.5" y="-1224.4" font-family="Arial" font-size="14.00" fill="#000000">comment2 </text>
<text text-anchor="start" x="889.7328" y="-1224.4" font-family="Arial" font-size="14.00" fill="#666666">[text]</text>
<text text-anchor="start" x="920.0778" y="-1224.4" font-family="Arial" font-size="14.00" fill="#000000"> コメント2</text>
<polygon fill="none" stroke="#000000" points="813.5,-1183 813.5,-1213 1154.5,-1213 1154.5,-1183 813.5,-1183"/>
<text text-anchor="start" x="820.5" y="-1194.4" font-family="Arial" font-size="14.00" fill="#000000">comment3 </text>
<text text-anchor="start" x="889.7328" y="-1194.4" font-family="Arial" font-size="14.00" fill="#666666">[text]</text>
<text text-anchor="start" x="920.0778" y="-1194.4" font-family="Arial" font-size="14.00" fill="#000000"> コメント3(検索ワード)</text>
<polygon fill="none" stroke="#000000" points="813.5,-1153 813.5,-1183 1154.5,-1183 1154.5,-1153 813.5,-1153"/>
<text text-anchor="start" x="820.5" y="-1164.4" font-family="Arial" font-size="14.00" fill="#000000">comment4 </text>
<text text-anchor="start" x="889.7328" y="-1164.4" font-family="Arial" font-size="14.00" fill="#666666">[text]</text>
<text text-anchor="start" x="920.0778" y="-1164.4" font-family="Arial" font-size="14.00" fill="#000000"> コメント4</text>
<polygon fill="none" stroke="#000000" points="813.5,-1123 813.5,-1153 1154.5,-1153 1154.5,-1123 813.5,-1123"/>
<text text-anchor="start" x="820.5" y="-1134.4" font-family="Arial" font-size="14.00" fill="#000000">comment5 </text>
<text text-anchor="start" x="889.7328" y="-1134.4" font-family="Arial" font-size="14.00" fill="#666666">[text]</text>
<text text-anchor="start" x="920.0778" y="-1134.4" font-family="Arial" font-size="14.00" fill="#000000"> コメント5</text>
<polygon fill="none" stroke="#000000" points="813.5,-1093 813.5,-1123 1154.5,-1123 1154.5,-1093 813.5,-1093"/>
<text text-anchor="start" x="820.5" y="-1104.4" font-family="Arial" font-size="14.00" fill="#000000">comment6 </text>
<text text-anchor="start" x="889.7328" y="-1104.4" font-family="Arial" font-size="14.00" fill="#666666">[text]</text>
<text text-anchor="start" x="920.0778" y="-1104.4" font-family="Arial" font-size="14.00" fill="#000000"> コメント6</text>
<polygon fill="none" stroke="#000000" points="813.5,-1063 813.5,-1093 1154.5,-1093 1154.5,-1063 813.5,-1063"/>
<text text-anchor="start" x="820.5" y="-1074.4" font-family="Arial" font-size="14.00" fill="#000000">note </text>
<text text-anchor="start" x="851.629" y="-1074.4" font-family="Arial" font-size="14.00" fill="#666666">[text]</text>
<text text-anchor="start" x="881.974" y="-1074.4" font-family="Arial" font-size="14.00" fill="#000000"> 備考</text>
<polygon fill="none" stroke="#000000" points="813.5,-1033 813.5,-1063 1154.5,-1063 1154.5,-1033 813.5,-1033"/>
<text text-anchor="start" x="820.5" y="-1044.4" font-family="Arial" font-size="14.00" fill="#000000">main_list_comment </text>
<text text-anchor="start" x="944.9516" y="-1044.4" font-family="Arial" font-size="14.00" fill="#666666">[text]</text>
<text text-anchor="start" x="975.2966" y="-1044.4" font-family="Arial" font-size="14.00" fill="#000000"> メイン一覧コメント</text>
<polygon fill="none" stroke="#000000" points="813.5,-1003 813.5,-1033 1154.5,-1033 1154.5,-1003 813.5,-1003"/>
<text text-anchor="start" x="820.5" y="-1014.4" font-family="Arial" font-size="14.00" fill="#000000">main_list_image </text>
<text text-anchor="start" x="925.507" y="-1014.4" font-family="Arial" font-size="14.00" fill="#666666">[text]</text>
<text text-anchor="start" x="955.852" y="-1014.4" font-family="Arial" font-size="14.00" fill="#000000"> メイン一覧画像</text>
<polygon fill="none" stroke="#000000" points="813.5,-973 813.5,-1003 1154.5,-1003 1154.5,-973 813.5,-973"/>
<text text-anchor="start" x="820.5" y="-984.4" font-family="Arial" font-size="14.00" fill="#000000">main_comment </text>
<text text-anchor="start" x="920.0652" y="-984.4" font-family="Arial" font-size="14.00" fill="#666666">[text]</text>
<text text-anchor="start" x="950.4102" y="-984.4" font-family="Arial" font-size="14.00" fill="#000000"> メインコメント</text>
<polygon fill="none" stroke="#000000" points="813.5,-943 813.5,-973 1154.5,-973 1154.5,-943 813.5,-943"/>
<text text-anchor="start" x="820.5" y="-954.4" font-family="Arial" font-size="14.00" fill="#000000">main_image </text>
<text text-anchor="start" x="900.6206" y="-954.4" font-family="Arial" font-size="14.00" fill="#666666">[text]</text>
<text text-anchor="start" x="930.9656" y="-954.4" font-family="Arial" font-size="14.00" fill="#000000"> メイン画像</text>
<polygon fill="none" stroke="#000000" points="813.5,-913 813.5,-943 1154.5,-943 1154.5,-913 813.5,-913"/>
<text text-anchor="start" x="820.5" y="-924.4" font-family="Arial" font-size="14.00" fill="#000000">main_large_image </text>
<text text-anchor="start" x="939.5182" y="-924.4" font-family="Arial" font-size="14.00" fill="#666666">[text]</text>
<text text-anchor="start" x="969.8632" y="-924.4" font-family="Arial" font-size="14.00" fill="#000000"> メイン拡大画像</text>
<polygon fill="none" stroke="#000000" points="813.5,-883 813.5,-913 1154.5,-913 1154.5,-883 813.5,-883"/>
<text text-anchor="start" x="820.5" y="-894.4" font-family="Arial" font-size="14.00" fill="#000000">sub_title1 </text>
<text text-anchor="start" x="884.298" y="-894.4" font-family="Arial" font-size="14.00" fill="#666666">[text]</text>
<text text-anchor="start" x="914.643" y="-894.4" font-family="Arial" font-size="14.00" fill="#000000"> サブタイトル1</text>
<polygon fill="none" stroke="#000000" points="813.5,-853 813.5,-883 1154.5,-883 1154.5,-853 813.5,-853"/>
<text text-anchor="start" x="820.5" y="-864.4" font-family="Arial" font-size="14.00" fill="#000000">sub_comment1 </text>
<text text-anchor="start" x="920.0806" y="-864.4" font-family="Arial" font-size="14.00" fill="#666666">[text]</text>
<text text-anchor="start" x="950.4256" y="-864.4" font-family="Arial" font-size="14.00" fill="#000000"> サブコメント1</text>
<polygon fill="none" stroke="#000000" points="813.5,-823 813.5,-853 1154.5,-853 1154.5,-823 813.5,-823"/>
<text text-anchor="start" x="820.5" y="-834.4" font-family="Arial" font-size="14.00" fill="#000000">sub_image1 </text>
<text text-anchor="start" x="900.636" y="-834.4" font-family="Arial" font-size="14.00" fill="#666666">[text]</text>
<text text-anchor="start" x="930.981" y="-834.4" font-family="Arial" font-size="14.00" fill="#000000"> サブ画像1</text>
<polygon fill="none" stroke="#000000" points="813.5,-793 813.5,-823 1154.5,-823 1154.5,-793 813.5,-793"/>
<text text-anchor="start" x="820.5" y="-804.4" font-family="Arial" font-size="14.00" fill="#000000">sub_large_image1 </text>
<text text-anchor="start" x="939.5336" y="-804.4" font-family="Arial" font-size="14.00" fill="#666666">[text]</text>
<text text-anchor="start" x="969.8786" y="-804.4" font-family="Arial" font-size="14.00" fill="#000000"> サブ拡大画像1</text>
<polygon fill="none" stroke="#000000" points="813.5,-763 813.5,-793 1154.5,-793 1154.5,-763 813.5,-763"/>
<text text-anchor="start" x="820.5" y="-774.4" font-family="Arial" font-size="14.00" fill="#000000">sub_title2 </text>
<text text-anchor="start" x="884.298" y="-774.4" font-family="Arial" font-size="14.00" fill="#666666">[text]</text>
<text text-anchor="start" x="914.643" y="-774.4" font-family="Arial" font-size="14.00" fill="#000000"> サブタイトル2</text>
<polygon fill="none" stroke="#000000" points="813.5,-733 813.5,-763 1154.5,-763 1154.5,-733 813.5,-733"/>
<text text-anchor="start" x="820.5" y="-744.4" font-family="Arial" font-size="14.00" fill="#000000">sub_comment2 </text>
<text text-anchor="start" x="920.0806" y="-744.4" font-family="Arial" font-size="14.00" fill="#666666">[text]</text>
<text text-anchor="start" x="950.4256" y="-744.4" font-family="Arial" font-size="14.00" fill="#000000"> サブコメント2</text>
<polygon fill="none" stroke="#000000" points="813.5,-703 813.5,-733 1154.5,-733 1154.5,-703 813.5,-703"/>
<text text-anchor="start" x="820.5" y="-714.4" font-family="Arial" font-size="14.00" fill="#000000">sub_image2 </text>
<text text-anchor="start" x="900.636" y="-714.4" font-family="Arial" font-size="14.00" fill="#666666">[text]</text>
<text text-anchor="start" x="930.981" y="-714.4" font-family="Arial" font-size="14.00" fill="#000000"> サブ画像2</text>
<polygon fill="none" stroke="#000000" points="813.5,-673 813.5,-703 1154.5,-703 1154.5,-673 813.5,-673"/>
<text text-anchor="start" x="820.5" y="-684.4" font-family="Arial" font-size="14.00" fill="#000000">sub_large_image2 </text>
<text text-anchor="start" x="939.5336" y="-684.4" font-family="Arial" font-size="14.00" fill="#666666">[text]</text>
<text text-anchor="start" x="969.8786" y="-684.4" font-family="Arial" font-size="14.00" fill="#000000"> サブ拡大画像2</text>
<polygon fill="none" stroke="#000000" points="813.5,-643 813.5,-673 1154.5,-673 1154.5,-643 813.5,-643"/>
<text text-anchor="start" x="820.5" y="-654.4" font-family="Arial" font-size="14.00" fill="#000000">sub_title3 </text>
<text text-anchor="start" x="884.298" y="-654.4" font-family="Arial" font-size="14.00" fill="#666666">[text]</text>
<text text-anchor="start" x="914.643" y="-654.4" font-family="Arial" font-size="14.00" fill="#000000"> サブタイトル3</text>
<polygon fill="none" stroke="#000000" points="813.5,-613 813.5,-643 1154.5,-643 1154.5,-613 813.5,-613"/>
<text text-anchor="start" x="820.5" y="-624.4" font-family="Arial" font-size="14.00" fill="#000000">sub_comment3 </text>
<text text-anchor="start" x="920.0806" y="-624.4" font-family="Arial" font-size="14.00" fill="#666666">[text]</text>
<text text-anchor="start" x="950.4256" y="-624.4" font-family="Arial" font-size="14.00" fill="#000000"> サブコメント3</text>
<polygon fill="none" stroke="#000000" points="813.5,-583 813.5,-613 1154.5,-613 1154.5,-583 813.5,-583"/>
<text text-anchor="start" x="820.5" y="-594.4" font-family="Arial" font-size="14.00" fill="#000000">sub_image3 </text>
<text text-anchor="start" x="900.636" y="-594.4" font-family="Arial" font-size="14.00" fill="#666666">[text]</text>
<text text-anchor="start" x="930.981" y="-594.4" font-family="Arial" font-size="14.00" fill="#000000"> サブ画像3</text>
<polygon fill="none" stroke="#000000" points="813.5,-553 813.5,-583 1154.5,-583 1154.5,-553 813.5,-553"/>
<text text-anchor="start" x="820.5" y="-564.4" font-family="Arial" font-size="14.00" fill="#000000">sub_large_image3 </text>
<text text-anchor="start" x="939.5336" y="-564.4" font-family="Arial" font-size="14.00" fill="#666666">[text]</text>
<text text-anchor="start" x="969.8786" y="-564.4" font-family="Arial" font-size="14.00" fill="#000000"> サブ拡大画像3</text>
<polygon fill="none" stroke="#000000" points="813.5,-523 813.5,-553 1154.5,-553 1154.5,-523 813.5,-523"/>
<text text-anchor="start" x="820.5" y="-534.4" font-family="Arial" font-size="14.00" fill="#000000">sub_title4 </text>
<text text-anchor="start" x="884.298" y="-534.4" font-family="Arial" font-size="14.00" fill="#666666">[text]</text>
<text text-anchor="start" x="914.643" y="-534.4" font-family="Arial" font-size="14.00" fill="#000000"> サブタイトル4</text>
<polygon fill="none" stroke="#000000" points="813.5,-493 813.5,-523 1154.5,-523 1154.5,-493 813.5,-493"/>
<text text-anchor="start" x="820.5" y="-504.4" font-family="Arial" font-size="14.00" fill="#000000">sub_comment4 </text>
<text text-anchor="start" x="920.0806" y="-504.4" font-family="Arial" font-size="14.00" fill="#666666">[text]</text>
<text text-anchor="start" x="950.4256" y="-504.4" font-family="Arial" font-size="14.00" fill="#000000"> サブコメント4</text>
<polygon fill="none" stroke="#000000" points="813.5,-463 813.5,-493 1154.5,-493 1154.5,-463 813.5,-463"/>
<text text-anchor="start" x="820.5" y="-474.4" font-family="Arial" font-size="14.00" fill="#000000">sub_image4 </text>
<text text-anchor="start" x="900.636" y="-474.4" font-family="Arial" font-size="14.00" fill="#666666">[text]</text>
<text text-anchor="start" x="930.981" y="-474.4" font-family="Arial" font-size="14.00" fill="#000000"> サブ画像4</text>
<polygon fill="none" stroke="#000000" points="813.5,-433 813.5,-463 1154.5,-463 1154.5,-433 813.5,-433"/>
<text text-anchor="start" x="820.5" y="-444.4" font-family="Arial" font-size="14.00" fill="#000000">sub_large_image4 </text>
<text text-anchor="start" x="939.5336" y="-444.4" font-family="Arial" font-size="14.00" fill="#666666">[text]</text>
<text text-anchor="start" x="969.8786" y="-444.4" font-family="Arial" font-size="14.00" fill="#000000"> サブ拡大画像4</text>
<polygon fill="none" stroke="#000000" points="813.5,-403 813.5,-433 1154.5,-433 1154.5,-403 813.5,-403"/>
<text text-anchor="start" x="820.5" y="-414.4" font-family="Arial" font-size="14.00" fill="#000000">sub_title5 </text>
<text text-anchor="start" x="884.298" y="-414.4" font-family="Arial" font-size="14.00" fill="#666666">[text]</text>
<text text-anchor="start" x="914.643" y="-414.4" font-family="Arial" font-size="14.00" fill="#000000"> サブタイトル5</text>
<polygon fill="none" stroke="#000000" points="813.5,-373 813.5,-403 1154.5,-403 1154.5,-373 813.5,-373"/>
<text text-anchor="start" x="820.5" y="-384.4" font-family="Arial" font-size="14.00" fill="#000000">sub_comment5 </text>
<text text-anchor="start" x="920.0806" y="-384.4" font-family="Arial" font-size="14.00" fill="#666666">[text]</text>
<text text-anchor="start" x="950.4256" y="-384.4" font-family="Arial" font-size="14.00" fill="#000000"> サブコメント5</text>
<polygon fill="none" stroke="#000000" points="813.5,-343 813.5,-373 1154.5,-373 1154.5,-343 813.5,-343"/>
<text text-anchor="start" x="820.5" y="-354.4" font-family="Arial" font-size="14.00" fill="#000000">sub_image5 </text>
<text text-anchor="start" x="900.636" y="-354.4" font-family="Arial" font-size="14.00" fill="#666666">[text]</text>
<text text-anchor="start" x="930.981" y="-354.4" font-family="Arial" font-size="14.00" fill="#000000"> サブ画像5</text>
<polygon fill="none" stroke="#000000" points="813.5,-313 813.5,-343 1154.5,-343 1154.5,-313 813.5,-313"/>
<text text-anchor="start" x="820.5" y="-324.4" font-family="Arial" font-size="14.00" fill="#000000">sub_large_image5 </text>
<text text-anchor="start" x="939.5336" y="-324.4" font-family="Arial" font-size="14.00" fill="#666666">[text]</text>
<text text-anchor="start" x="969.8786" y="-324.4" font-family="Arial" font-size="14.00" fill="#000000"> サブ拡大画像5</text>
<polygon fill="none" stroke="#000000" points="813.5,-283 813.5,-313 1154.5,-313 1154.5,-283 813.5,-283"/>
<text text-anchor="start" x="820.5" y="-294.4" font-family="Arial" font-size="14.00" fill="#000000">sub_title6 </text>
<text text-anchor="start" x="884.298" y="-294.4" font-family="Arial" font-size="14.00" fill="#666666">[text]</text>
<text text-anchor="start" x="914.643" y="-294.4" font-family="Arial" font-size="14.00" fill="#000000"> サブタイトル6</text>
<polygon fill="none" stroke="#000000" points="813.5,-253 813.5,-283 1154.5,-283 1154.5,-253 813.5,-253"/>
<text text-anchor="start" x="820.5" y="-264.4" font-family="Arial" font-size="14.00" fill="#000000">sub_comment6 </text>
<text text-anchor="start" x="920.0806" y="-264.4" font-family="Arial" font-size="14.00" fill="#666666">[text]</text>
<text text-anchor="start" x="950.4256" y="-264.4" font-family="Arial" font-size="14.00" fill="#000000"> サブコメント6</text>
<polygon fill="none" stroke="#000000" points="813.5,-223 813.5,-253 1154.5,-253 1154.5,-223 813.5,-223"/>
<text text-anchor="start" x="820.5" y="-234.4" font-family="Arial" font-size="14.00" fill="#000000">sub_image6 </text>
<text text-anchor="start" x="900.636" y="-234.4" font-family="Arial" font-size="14.00" fill="#666666">[text]</text>
<text text-anchor="start" x="930.981" y="-234.4" font-family="Arial" font-size="14.00" fill="#000000"> サブ画像6</text>
<polygon fill="none" stroke="#000000" points="813.5,-193 813.5,-223 1154.5,-223 1154.5,-193 813.5,-193"/>
<text text-anchor="start" x="820.5" y="-204.4" font-family="Arial" font-size="14.00" fill="#000000">sub_large_image6 </text>
<text text-anchor="start" x="939.5336" y="-204.4" font-family="Arial" font-size="14.00" fill="#666666">[text]</text>
<text text-anchor="start" x="969.8786" y="-204.4" font-family="Arial" font-size="14.00" fill="#000000"> サブ拡大画像6</text>
<polygon fill="none" stroke="#000000" points="813.5,-163 813.5,-193 1154.5,-193 1154.5,-163 813.5,-163"/>
<text text-anchor="start" x="820.5" y="-174.4" font-family="Arial" font-size="14.00" fill="#000000">del_flg </text>
<text text-anchor="start" x="865.6248" y="-174.4" font-family="Arial" font-size="14.00" fill="#666666">[smallint]</text>
<text text-anchor="start" x="920.8422" y="-174.4" font-family="Arial" font-size="14.00" fill="#000000"> 削除フラグ</text>
<polygon fill="none" stroke="#000000" points="813.5,-133 813.5,-163 1154.5,-163 1154.5,-133 813.5,-133"/>
<text text-anchor="start" x="820.5" y="-144.4" font-family="Arial" font-size="14.00" fill="#000000">creator_id </text>
<text text-anchor="start" x="886.622" y="-144.4" font-family="Arial" font-size="14.00" fill="#666666">[integer]</text>
<text text-anchor="start" x="937.1914" y="-144.4" font-family="Arial" font-size="14.00" fill="#000000"> 作成者ID</text>
<polygon fill="none" stroke="#000000" points="813.5,-103 813.5,-133 1154.5,-133 1154.5,-103 813.5,-103"/>
<text text-anchor="start" x="820.235" y="-114.4" font-family="Arial" font-size="14.00" fill="#000000">create_date </text>
<text text-anchor="start" x="898.0456" y="-114.4" font-family="Arial" font-size="14.00" fill="#666666">[timestamp without time zone]</text>
<text text-anchor="start" x="1083.1858" y="-114.4" font-family="Arial" font-size="14.00" fill="#000000"> 作成日時</text>
<polygon fill="none" stroke="#000000" points="813.5,-73 813.5,-103 1154.5,-103 1154.5,-73 813.5,-73"/>
<text text-anchor="start" x="820.5" y="-84.4" font-family="Arial" font-size="14.00" fill="#000000">update_date </text>
<text text-anchor="start" x="902.2152" y="-84.4" font-family="Arial" font-size="14.00" fill="#666666">[timestamp without time zone]</text>
<text text-anchor="start" x="1087.3554" y="-84.4" font-family="Arial" font-size="14.00" fill="#000000"> 更新日時</text>
<polygon fill="none" stroke="#000000" points="813.5,-43 813.5,-73 1154.5,-73 1154.5,-43 813.5,-43"/>
<text text-anchor="start" x="820.5" y="-54.4" font-family="Arial" font-size="14.00" fill="#000000">deliv_date_id </text>
<text text-anchor="start" x="906.8618" y="-54.4" font-family="Arial" font-size="14.00" fill="#666666">[integer]</text>
<text text-anchor="start" x="957.4312" y="-54.4" font-family="Arial" font-size="14.00" fill="#000000"> 発送日目安</text>
</g>
<!-- public.dtb_product_status&#45;&gt;public.dtb_products -->
<g id="edge3" class="edge">
<title>public.dtb_product_status:product_id&#45;&gt;public.dtb_products:product_id</title>
<path fill="none" stroke="#000000" stroke-dasharray="5,2" d="M948.6687,-1698.3087C1016.0303,-1688.6187 984.7023,-1579.3865 938.5,-1518 903.7336,-1471.8078 848.2664,-1528.1922 813.5,-1482 785.7042,-1445.0692 767.2778,-1378 813.5,-1378"/>
<polygon fill="#000000" stroke="#000000" points="948.477,-1698.3216 938.1947,-1694.5104 943.4885,-1698.6608 938.5,-1699 938.5,-1699 938.5,-1699 943.4885,-1698.6608 938.8053,-1703.4896 948.477,-1698.3216 948.477,-1698.3216"/>
<text text-anchor="start" x="945.8245" y="-1709" font-family="Arial" font-size="10.00" fill="#000000">Additional Relation</text>
</g>
<!-- public.dtb_member -->
<g id="node5" class="node">
<title>public.dtb_member</title>
<polygon fill="#efefef" stroke="transparent" points="1258.5,-928 1258.5,-974 1635.5,-974 1635.5,-928 1258.5,-928"/>
<polygon fill="none" stroke="#000000" points="1258.5,-928 1258.5,-974 1635.5,-974 1635.5,-928 1258.5,-928"/>
<text text-anchor="start" x="1321.8605" y="-951.8" font-family="Arial Bold" font-size="18.00" fill="#000000">public.dtb_member</text>
<text text-anchor="start" x="1474.8857" y="-951.8" font-family="Arial" font-size="14.00" fill="#000000"> </text>
<text text-anchor="start" x="1478.7763" y="-951.8" font-family="Arial" font-size="14.00" fill="#666666">[BASE TABLE]</text>
<text text-anchor="start" x="1367.4016" y="-937.4" font-family="Arial" font-size="14.00" fill="#333333">管理画面メンバー情報</text>
<polygon fill="none" stroke="#000000" points="1258.5,-898 1258.5,-928 1635.5,-928 1635.5,-898 1258.5,-898"/>
<text text-anchor="start" x="1265.5" y="-909.4" font-family="Arial" font-size="14.00" fill="#000000">member_id </text>
<text text-anchor="start" x="1339.392" y="-909.4" font-family="Arial" font-size="14.00" fill="#666666">[integer]</text>
<text text-anchor="start" x="1389.9614" y="-909.4" font-family="Arial" font-size="14.00" fill="#000000"> メンバーID</text>
<polygon fill="none" stroke="#000000" points="1258.5,-868 1258.5,-898 1635.5,-898 1635.5,-868 1258.5,-868"/>
<text text-anchor="start" x="1265.5" y="-879.4" font-family="Arial" font-size="14.00" fill="#000000">name </text>
<text text-anchor="start" x="1304.399" y="-879.4" font-family="Arial" font-size="14.00" fill="#666666">[text]</text>
<text text-anchor="start" x="1334.744" y="-879.4" font-family="Arial" font-size="14.00" fill="#000000"> 名前</text>
<polygon fill="none" stroke="#000000" points="1258.5,-838 1258.5,-868 1635.5,-868 1635.5,-838 1258.5,-838"/>
<text text-anchor="start" x="1265.5" y="-849.4" font-family="Arial" font-size="14.00" fill="#000000">department </text>
<text text-anchor="start" x="1340.1886" y="-849.4" font-family="Arial" font-size="14.00" fill="#666666">[text]</text>
<text text-anchor="start" x="1370.5336" y="-849.4" font-family="Arial" font-size="14.00" fill="#000000"> 部門</text>
<polygon fill="none" stroke="#000000" points="1258.5,-808 1258.5,-838 1635.5,-838 1635.5,-808 1258.5,-808"/>
<text text-anchor="start" x="1265.5" y="-819.4" font-family="Arial" font-size="14.00" fill="#000000">login_id </text>
<text text-anchor="start" x="1317.6234" y="-819.4" font-family="Arial" font-size="14.00" fill="#666666">[text]</text>
<text text-anchor="start" x="1347.9684" y="-819.4" font-family="Arial" font-size="14.00" fill="#000000"> ログインID</text>
<polygon fill="none" stroke="#000000" points="1258.5,-778 1258.5,-808 1635.5,-808 1635.5,-778 1258.5,-778"/>
<text text-anchor="start" x="1265.5" y="-789.4" font-family="Arial" font-size="14.00" fill="#000000">password </text>
<text text-anchor="start" x="1329.2882" y="-789.4" font-family="Arial" font-size="14.00" fill="#666666">[text]</text>
<text text-anchor="start" x="1359.6332" y="-789.4" font-family="Arial" font-size="14.00" fill="#000000"> パスワード</text>
<polygon fill="none" stroke="#000000" points="1258.5,-748 1258.5,-778 1635.5,-778 1635.5,-748 1258.5,-748"/>
<text text-anchor="start" x="1265.5" y="-759.4" font-family="Arial" font-size="14.00" fill="#000000">salt </text>
<text text-anchor="start" x="1291.1704" y="-759.4" font-family="Arial" font-size="14.00" fill="#666666">[text]</text>
<text text-anchor="start" x="1321.5154" y="-759.4" font-family="Arial" font-size="14.00" fill="#000000"> 暗号化付与文字列</text>
<polygon fill="none" stroke="#000000" points="1258.5,-718 1258.5,-748 1635.5,-748 1635.5,-718 1258.5,-718"/>
<text text-anchor="start" x="1265.5" y="-729.4" font-family="Arial" font-size="14.00" fill="#000000">authority </text>
<text text-anchor="start" x="1323.0694" y="-729.4" font-family="Arial" font-size="14.00" fill="#666666">[smallint]</text>
<text text-anchor="start" x="1378.2868" y="-729.4" font-family="Arial" font-size="14.00" fill="#000000"> 権限</text>
<polygon fill="none" stroke="#000000" points="1258.5,-688 1258.5,-718 1635.5,-718 1635.5,-688 1258.5,-688"/>
<text text-anchor="start" x="1265.5" y="-699.4" font-family="Arial" font-size="14.00" fill="#000000">rank </text>
<text text-anchor="start" x="1296.6164" y="-699.4" font-family="Arial" font-size="14.00" fill="#666666">[integer]</text>
<text text-anchor="start" x="1347.1858" y="-699.4" font-family="Arial" font-size="14.00" fill="#000000"> 表示順</text>
<polygon fill="none" stroke="#000000" points="1258.5,-658 1258.5,-688 1635.5,-688 1635.5,-658 1258.5,-658"/>
<text text-anchor="start" x="1265.5" y="-669.4" font-family="Arial" font-size="14.00" fill="#000000">work </text>
<text text-anchor="start" x="1298.9404" y="-669.4" font-family="Arial" font-size="14.00" fill="#666666">[smallint]</text>
<text text-anchor="start" x="1354.1578" y="-669.4" font-family="Arial" font-size="14.00" fill="#000000"> 稼動フラグ</text>
<polygon fill="none" stroke="#000000" points="1258.5,-628 1258.5,-658 1635.5,-658 1635.5,-628 1258.5,-628"/>
<text text-anchor="start" x="1265.5" y="-639.4" font-family="Arial" font-size="14.00" fill="#000000">del_flg </text>
<text text-anchor="start" x="1310.6248" y="-639.4" font-family="Arial" font-size="14.00" fill="#666666">[smallint]</text>
<text text-anchor="start" x="1365.8422" y="-639.4" font-family="Arial" font-size="14.00" fill="#000000"> 削除フラグ</text>
<polygon fill="none" stroke="#000000" points="1258.5,-598 1258.5,-628 1635.5,-628 1635.5,-598 1258.5,-598"/>
<text text-anchor="start" x="1265.5" y="-609.4" font-family="Arial" font-size="14.00" fill="#000000">creator_id </text>
<text text-anchor="start" x="1331.622" y="-609.4" font-family="Arial" font-size="14.00" fill="#666666">[integer]</text>
<text text-anchor="start" x="1382.1914" y="-609.4" font-family="Arial" font-size="14.00" fill="#000000"> 作成者ID</text>
<polygon fill="none" stroke="#000000" points="1258.5,-568 1258.5,-598 1635.5,-598 1635.5,-568 1258.5,-568"/>
<text text-anchor="start" x="1265.5" y="-579.4" font-family="Arial" font-size="14.00" fill="#000000">create_date </text>
<text text-anchor="start" x="1343.3106" y="-579.4" font-family="Arial" font-size="14.00" fill="#666666">[timestamp without time zone]</text>
<text text-anchor="start" x="1528.4508" y="-579.4" font-family="Arial" font-size="14.00" fill="#000000"> 作成日時</text>
<polygon fill="none" stroke="#000000" points="1258.5,-538 1258.5,-568 1635.5,-568 1635.5,-538 1258.5,-538"/>
<text text-anchor="start" x="1265.5" y="-549.4" font-family="Arial" font-size="14.00" fill="#000000">update_date </text>
<text text-anchor="start" x="1347.2152" y="-549.4" font-family="Arial" font-size="14.00" fill="#666666">[timestamp without time zone]</text>
<text text-anchor="start" x="1532.3554" y="-549.4" font-family="Arial" font-size="14.00" fill="#000000"> 更新日付</text>
<polygon fill="none" stroke="#000000" points="1258.5,-508 1258.5,-538 1635.5,-538 1635.5,-508 1258.5,-508"/>
<text text-anchor="start" x="1265.4851" y="-519.4" font-family="Arial" font-size="14.00" fill="#000000">login_date </text>
<text text-anchor="start" x="1333.9577" y="-519.4" font-family="Arial" font-size="14.00" fill="#666666">[timestamp without time zone]</text>
<text text-anchor="start" x="1519.0979" y="-519.4" font-family="Arial" font-size="14.00" fill="#000000"> 最終ログイン日時</text>
</g>
<!-- public.dtb_product_status&#45;&gt;public.dtb_member -->
<g id="edge4" class="edge">
<title>public.dtb_product_status:creator_id&#45;&gt;public.dtb_member:member_id</title>
<path fill="none" stroke="#000000" stroke-dasharray="5,2" d="M948.5565,-1668.8988C1086.0876,-1666.0858 1135.2433,-1604.6383 1206.5,-1482 1238.3943,-1427.1075 1195.0143,-913 1258.5,-913"/>
<polygon fill="#000000" stroke="#000000" points="948.4995,-1668.8992 938.4547,-1664.5002 943.4997,-1668.9496 938.5,-1669 938.5,-1669 938.5,-1669 943.4997,-1668.9496 938.5453,-1673.4998 948.4995,-1668.8992 948.4995,-1668.8992"/>
<text text-anchor="start" x="945.8245" y="-1679" font-family="Arial" font-size="10.00" fill="#000000">Additional Relation</text>
</g>
</g>
</svg>
