<?xml version="1.0" encoding="UTF-8" standalone="no"?>
<!DOCTYPE svg PUBLIC "-//W3C//DTD SVG 1.1//EN"
 "http://www.w3.org/Graphics/SVG/1.1/DTD/svg11.dtd">
<!-- Generated by graphviz version 2.40.1 (20161225.0304)
 -->
<!-- Title: public.dtb_update Pages: 1 -->
<svg width="530pt" height="974pt"
 viewBox="0.00 0.00 529.50 974.00" xmlns="http://www.w3.org/2000/svg" xmlns:xlink="http://www.w3.org/1999/xlink">
<g id="graph0" class="graph" transform="scale(1 1) rotate(0) translate(4 970)">
<title>public.dtb_update</title>
<polygon fill="#ffffff" stroke="transparent" points="-4,4 -4,-970 525.5,-970 525.5,4 -4,4"/>
<!-- public.dtb_update -->
<g id="node1" class="node">
<title>public.dtb_update</title>
<polygon fill="#efefef" stroke="transparent" points="97,-874 97,-920 476,-920 476,-874 97,-874"/>
<polygon fill="none" stroke="#000000" points="97,-874 97,-920 476,-920 476,-874 97,-874"/>
<text text-anchor="start" x="166.8415" y="-897.8" font-family="Arial Bold" font-size="18.00" fill="#000000">public.dtb_update</text>
<text text-anchor="start" x="308.9047" y="-897.8" font-family="Arial" font-size="14.00" fill="#000000"> </text>
<text text-anchor="start" x="312.7953" y="-897.8" font-family="Arial" font-size="14.00" fill="#666666">[BASE TABLE]</text>
<text text-anchor="start" x="218.3102" y="-883.4" font-family="Arial" font-size="14.00" fill="#333333">モジュール更新情報</text>
<polygon fill="none" stroke="#000000" points="97,-844 97,-874 476,-874 476,-844 97,-844"/>
<text text-anchor="start" x="104" y="-855.4" font-family="Arial" font-size="14.00" fill="#000000">module_id </text>
<text text-anchor="start" x="172.46" y="-855.4" font-family="Arial" font-size="14.00" fill="#666666">[integer]</text>
<text text-anchor="start" x="223.0294" y="-855.4" font-family="Arial" font-size="14.00" fill="#000000"> モジュールID</text>
<polygon fill="none" stroke="#000000" points="97,-814 97,-844 476,-844 476,-814 97,-814"/>
<text text-anchor="start" x="104" y="-825.4" font-family="Arial" font-size="14.00" fill="#000000">module_name </text>
<text text-anchor="start" x="196.5792" y="-825.4" font-family="Arial" font-size="14.00" fill="#666666">[text]</text>
<text text-anchor="start" x="226.9242" y="-825.4" font-family="Arial" font-size="14.00" fill="#000000"> モジュール名</text>
<polygon fill="none" stroke="#000000" points="97,-784 97,-814 476,-814 476,-784 97,-784"/>
<text text-anchor="start" x="104" y="-795.4" font-family="Arial" font-size="14.00" fill="#000000">now_version </text>
<text text-anchor="start" x="186.46" y="-795.4" font-family="Arial" font-size="14.00" fill="#666666">[text]</text>
<text text-anchor="start" x="216.805" y="-795.4" font-family="Arial" font-size="14.00" fill="#000000"> インストールバージョン</text>
<polygon fill="none" stroke="#000000" points="97,-754 97,-784 476,-784 476,-754 97,-754"/>
<text text-anchor="start" x="104" y="-765.4" font-family="Arial" font-size="14.00" fill="#000000">latest_version </text>
<text text-anchor="start" x="194.2412" y="-765.4" font-family="Arial" font-size="14.00" fill="#666666">[text]</text>
<text text-anchor="start" x="224.5862" y="-765.4" font-family="Arial" font-size="14.00" fill="#000000"> 最新バージョン</text>
<polygon fill="none" stroke="#000000" points="97,-724 97,-754 476,-754 476,-724 97,-724"/>
<text text-anchor="start" x="104" y="-735.4" font-family="Arial" font-size="14.00" fill="#000000">module_explain </text>
<text text-anchor="start" x="205.9144" y="-735.4" font-family="Arial" font-size="14.00" fill="#666666">[text]</text>
<text text-anchor="start" x="236.2594" y="-735.4" font-family="Arial" font-size="14.00" fill="#000000"> 機能説明</text>
<polygon fill="none" stroke="#000000" points="97,-694 97,-724 476,-724 476,-694 97,-694"/>
<text text-anchor="start" x="104" y="-705.4" font-family="Arial" font-size="14.00" fill="#000000">main_php </text>
<text text-anchor="start" x="169.3534" y="-705.4" font-family="Arial" font-size="14.00" fill="#666666">[text]</text>
<text text-anchor="start" x="199.6984" y="-705.4" font-family="Arial" font-size="14.00" fill="#000000"> 更新対象パス</text>
<polygon fill="none" stroke="#000000" points="97,-664 97,-694 476,-694 476,-664 97,-664"/>
<text text-anchor="start" x="104" y="-675.4" font-family="Arial" font-size="14.00" fill="#000000">extern_php </text>
<text text-anchor="start" x="177.92" y="-675.4" font-family="Arial" font-size="14.00" fill="#666666">[text]</text>
<text text-anchor="start" x="208.265" y="-675.4" font-family="Arial" font-size="14.00" fill="#000000"> 拡張対象パス</text>
<polygon fill="none" stroke="#000000" points="97,-634 97,-664 476,-664 476,-634 97,-634"/>
<text text-anchor="start" x="104" y="-645.4" font-family="Arial" font-size="14.00" fill="#000000">install_sql </text>
<text text-anchor="start" x="169.338" y="-645.4" font-family="Arial" font-size="14.00" fill="#666666">[text]</text>
<text text-anchor="start" x="199.683" y="-645.4" font-family="Arial" font-size="14.00" fill="#000000"> インストールSQL</text>
<polygon fill="none" stroke="#000000" points="97,-604 97,-634 476,-634 476,-604 97,-604"/>
<text text-anchor="start" x="104" y="-615.4" font-family="Arial" font-size="14.00" fill="#000000">uninstall_sql </text>
<text text-anchor="start" x="184.9032" y="-615.4" font-family="Arial" font-size="14.00" fill="#666666">[text]</text>
<text text-anchor="start" x="215.2482" y="-615.4" font-family="Arial" font-size="14.00" fill="#000000"> アンインストールSQL</text>
<polygon fill="none" stroke="#000000" points="97,-574 97,-604 476,-604 476,-574 97,-574"/>
<text text-anchor="start" x="104" y="-585.4" font-family="Arial" font-size="14.00" fill="#000000">other_files </text>
<text text-anchor="start" x="172.4586" y="-585.4" font-family="Arial" font-size="14.00" fill="#666666">[text]</text>
<text text-anchor="start" x="202.8036" y="-585.4" font-family="Arial" font-size="14.00" fill="#000000"> その他拡張ファイル名</text>
<polygon fill="none" stroke="#000000" points="97,-544 97,-574 476,-574 476,-544 97,-544"/>
<text text-anchor="start" x="104" y="-555.4" font-family="Arial" font-size="14.00" fill="#000000">del_flg </text>
<text text-anchor="start" x="149.1248" y="-555.4" font-family="Arial" font-size="14.00" fill="#666666">[smallint]</text>
<text text-anchor="start" x="204.3422" y="-555.4" font-family="Arial" font-size="14.00" fill="#000000"> 削除フラグ</text>
<polygon fill="none" stroke="#000000" points="97,-514 97,-544 476,-544 476,-514 97,-514"/>
<text text-anchor="start" x="104" y="-525.4" font-family="Arial" font-size="14.00" fill="#000000">create_date </text>
<text text-anchor="start" x="181.8106" y="-525.4" font-family="Arial" font-size="14.00" fill="#666666">[timestamp without time zone]</text>
<text text-anchor="start" x="366.9508" y="-525.4" font-family="Arial" font-size="14.00" fill="#000000"> 作成日時</text>
<polygon fill="none" stroke="#000000" points="97,-484 97,-514 476,-514 476,-484 97,-484"/>
<text text-anchor="start" x="104" y="-495.4" font-family="Arial" font-size="14.00" fill="#000000">update_date </text>
<text text-anchor="start" x="185.7152" y="-495.4" font-family="Arial" font-size="14.00" fill="#666666">[timestamp without time zone]</text>
<text text-anchor="start" x="370.8554" y="-495.4" font-family="Arial" font-size="14.00" fill="#000000"> 更新日時</text>
<polygon fill="none" stroke="#000000" points="97,-454 97,-484 476,-484 476,-454 97,-454"/>
<text text-anchor="start" x="103.8329" y="-465.4" font-family="Arial" font-size="14.00" fill="#000000">release_date </text>
<text text-anchor="start" x="188.6421" y="-465.4" font-family="Arial" font-size="14.00" fill="#666666">[timestamp without time zone]</text>
<text text-anchor="start" x="373.7823" y="-465.4" font-family="Arial" font-size="14.00" fill="#000000"> リリース日時</text>
<polygon fill="none" stroke="#000000" stroke-width="3" points="95,-452.5 95,-921.5 477,-921.5 477,-452.5 95,-452.5"/>
</g>
<!-- public.dtb_module -->
<g id="node2" class="node">
<title>public.dtb_module</title>
<polygon fill="#efefef" stroke="transparent" points="116,-283 116,-329 457,-329 457,-283 116,-283"/>
<polygon fill="none" stroke="#000000" points="116,-283 116,-329 457,-329 457,-283 116,-283"/>
<text text-anchor="start" x="164.8525" y="-306.8" font-family="Arial Bold" font-size="18.00" fill="#000000">public.dtb_module</text>
<text text-anchor="start" x="310.8937" y="-306.8" font-family="Arial" font-size="14.00" fill="#000000"> </text>
<text text-anchor="start" x="314.7843" y="-306.8" font-family="Arial" font-size="14.00" fill="#666666">[BASE TABLE]</text>
<text text-anchor="start" x="229.982" y="-292.4" font-family="Arial" font-size="14.00" fill="#333333">モジュール情報</text>
<polygon fill="none" stroke="#000000" points="116,-253 116,-283 457,-283 457,-253 116,-253"/>
<text text-anchor="start" x="123" y="-264.4" font-family="Arial" font-size="14.00" fill="#000000">module_id </text>
<text text-anchor="start" x="191.46" y="-264.4" font-family="Arial" font-size="14.00" fill="#666666">[integer]</text>
<text text-anchor="start" x="242.0294" y="-264.4" font-family="Arial" font-size="14.00" fill="#000000"> モジュールID</text>
<polygon fill="none" stroke="#000000" points="116,-223 116,-253 457,-253 457,-223 116,-223"/>
<text text-anchor="start" x="123" y="-234.4" font-family="Arial" font-size="14.00" fill="#000000">module_code </text>
<text text-anchor="start" x="210.9186" y="-234.4" font-family="Arial" font-size="14.00" fill="#666666">[text]</text>
<text text-anchor="start" x="241.2636" y="-234.4" font-family="Arial" font-size="14.00" fill="#000000"> モジュールコード</text>
<polygon fill="none" stroke="#000000" points="116,-193 116,-223 457,-223 457,-193 116,-193"/>
<text text-anchor="start" x="123" y="-204.4" font-family="Arial" font-size="14.00" fill="#000000">module_name </text>
<text text-anchor="start" x="215.5792" y="-204.4" font-family="Arial" font-size="14.00" fill="#666666">[text]</text>
<text text-anchor="start" x="245.9242" y="-204.4" font-family="Arial" font-size="14.00" fill="#000000"> モジュール名</text>
<polygon fill="none" stroke="#000000" points="116,-163 116,-193 457,-193 457,-163 116,-163"/>
<text text-anchor="start" x="123" y="-174.4" font-family="Arial" font-size="14.00" fill="#000000">sub_data </text>
<text text-anchor="start" x="184.4768" y="-174.4" font-family="Arial" font-size="14.00" fill="#666666">[text]</text>
<text text-anchor="start" x="214.8218" y="-174.4" font-family="Arial" font-size="14.00" fill="#000000"> データ</text>
<polygon fill="none" stroke="#000000" points="116,-133 116,-163 457,-163 457,-133 116,-133"/>
<text text-anchor="start" x="123" y="-144.4" font-family="Arial" font-size="14.00" fill="#000000">auto_update_flg </text>
<text text-anchor="start" x="227.2776" y="-144.4" font-family="Arial" font-size="14.00" fill="#666666">[smallint]</text>
<text text-anchor="start" x="282.495" y="-144.4" font-family="Arial" font-size="14.00" fill="#000000"> 自動更新フラグ</text>
<polygon fill="none" stroke="#000000" points="116,-103 116,-133 457,-133 457,-103 116,-103"/>
<text text-anchor="start" x="123" y="-114.4" font-family="Arial" font-size="14.00" fill="#000000">del_flg </text>
<text text-anchor="start" x="168.1248" y="-114.4" font-family="Arial" font-size="14.00" fill="#666666">[smallint]</text>
<text text-anchor="start" x="223.3422" y="-114.4" font-family="Arial" font-size="14.00" fill="#000000"> 削除フラグ</text>
<polygon fill="none" stroke="#000000" points="116,-73 116,-103 457,-103 457,-73 116,-73"/>
<text text-anchor="start" x="122.735" y="-84.4" font-family="Arial" font-size="14.00" fill="#000000">create_date </text>
<text text-anchor="start" x="200.5456" y="-84.4" font-family="Arial" font-size="14.00" fill="#666666">[timestamp without time zone]</text>
<text text-anchor="start" x="385.6858" y="-84.4" font-family="Arial" font-size="14.00" fill="#000000"> 作成日時</text>
<polygon fill="none" stroke="#000000" points="116,-43 116,-73 457,-73 457,-43 116,-43"/>
<text text-anchor="start" x="123" y="-54.4" font-family="Arial" font-size="14.00" fill="#000000">update_date </text>
<text text-anchor="start" x="204.7152" y="-54.4" font-family="Arial" font-size="14.00" fill="#666666">[timestamp without time zone]</text>
<text text-anchor="start" x="389.8554" y="-54.4" font-family="Arial" font-size="14.00" fill="#000000"> 更新日時</text>
</g>
<!-- public.dtb_update&#45;&gt;public.dtb_module -->
<g id="edge1" class="edge">
<title>public.dtb_update:module_id&#45;&gt;public.dtb_module:module_id</title>
<path fill="none" stroke="#000000" stroke-dasharray="5,2" d="M87.6412,-854.5827C33.3495,-800.5006 53.6358,-268 116,-268"/>
<polygon fill="#000000" stroke="#000000" points="87.9567,-854.7316 95.0792,-863.0695 92.4784,-856.8658 97,-859 97,-859 97,-859 92.4784,-856.8658 98.9208,-854.9305 87.9567,-854.7316 87.9567,-854.7316"/>
<text text-anchor="start" x="7.3245" y="-869" font-family="Arial" font-size="10.00" fill="#000000">Additional Relation</text>
</g>
</g>
</svg>
