<?xml version="1.0" encoding="UTF-8" standalone="no"?>
<!DOCTYPE svg PUBLIC "-//W3C//DTD SVG 1.1//EN"
 "http://www.w3.org/Graphics/SVG/1.1/DTD/svg11.dtd">
<!-- Generated by graphviz version 2.40.1 (20161225.0304)
 -->
<!-- Title: public.dtb_maker_count Pages: 1 -->
<svg width="492pt" height="614pt"
 viewBox="0.00 0.00 491.50 614.00" xmlns="http://www.w3.org/2000/svg" xmlns:xlink="http://www.w3.org/1999/xlink">
<g id="graph0" class="graph" transform="scale(1 1) rotate(0) translate(4 610)">
<title>public.dtb_maker_count</title>
<polygon fill="#ffffff" stroke="transparent" points="-4,4 -4,-610 487.5,-610 487.5,4 -4,4"/>
<!-- public.dtb_maker_count -->
<g id="node1" class="node">
<title>public.dtb_maker_count</title>
<polygon fill="#efefef" stroke="transparent" points="97,-514 97,-560 438,-560 438,-514 97,-514"/>
<polygon fill="none" stroke="#000000" points="97,-514 97,-560 438,-560 438,-514 97,-514"/>
<text text-anchor="start" x="123.3462" y="-537.8" font-family="Arial Bold" font-size="18.00" fill="#000000">public.dtb_maker_count</text>
<text text-anchor="start" x="314.4" y="-537.8" font-family="Arial" font-size="14.00" fill="#000000"> </text>
<text text-anchor="start" x="318.2906" y="-537.8" font-family="Arial" font-size="14.00" fill="#666666">[BASE TABLE]</text>
<text text-anchor="start" x="197.3824" y="-523.4" font-family="Arial" font-size="14.00" fill="#333333">メーカーカウント</text>
<polygon fill="none" stroke="#000000" points="97,-484 97,-514 438,-514 438,-484 97,-484"/>
<text text-anchor="start" x="104" y="-495.4" font-family="Arial" font-size="14.00" fill="#000000">maker_id </text>
<text text-anchor="start" x="165.4488" y="-495.4" font-family="Arial" font-size="14.00" fill="#666666">[integer]</text>
<text text-anchor="start" x="216.0182" y="-495.4" font-family="Arial" font-size="14.00" fill="#000000"> メーカーID</text>
<polygon fill="none" stroke="#000000" points="97,-454 97,-484 438,-484 438,-454 97,-454"/>
<text text-anchor="start" x="104" y="-465.4" font-family="Arial" font-size="14.00" fill="#000000">product_count </text>
<text text-anchor="start" x="196.5932" y="-465.4" font-family="Arial" font-size="14.00" fill="#666666">[integer]</text>
<text text-anchor="start" x="247.1626" y="-465.4" font-family="Arial" font-size="14.00" fill="#000000"> 登録商品数</text>
<polygon fill="none" stroke="#000000" points="97,-424 97,-454 438,-454 438,-424 97,-424"/>
<text text-anchor="start" x="103.735" y="-435.4" font-family="Arial" font-size="14.00" fill="#000000">create_date </text>
<text text-anchor="start" x="181.5456" y="-435.4" font-family="Arial" font-size="14.00" fill="#666666">[timestamp without time zone]</text>
<text text-anchor="start" x="366.6858" y="-435.4" font-family="Arial" font-size="14.00" fill="#000000"> 作成日時</text>
<polygon fill="none" stroke="#000000" stroke-width="3" points="95,-422.5 95,-561.5 439,-561.5 439,-422.5 95,-422.5"/>
</g>
<!-- public.dtb_maker -->
<g id="node2" class="node">
<title>public.dtb_maker</title>
<polygon fill="#efefef" stroke="transparent" points="97,-253 97,-299 438,-299 438,-253 97,-253"/>
<polygon fill="none" stroke="#000000" points="97,-253 97,-299 438,-299 438,-253 97,-253"/>
<text text-anchor="start" x="150.3597" y="-276.8" font-family="Arial Bold" font-size="18.00" fill="#000000">public.dtb_maker</text>
<text text-anchor="start" x="287.3865" y="-276.8" font-family="Arial" font-size="14.00" fill="#000000"> </text>
<text text-anchor="start" x="291.2771" y="-276.8" font-family="Arial" font-size="14.00" fill="#666666">[BASE TABLE]</text>
<text text-anchor="start" x="229.14" y="-262.4" font-family="Arial" font-size="14.00" fill="#333333">メーカー</text>
<polygon fill="none" stroke="#000000" points="97,-223 97,-253 438,-253 438,-223 97,-223"/>
<text text-anchor="start" x="104" y="-234.4" font-family="Arial" font-size="14.00" fill="#000000">maker_id </text>
<text text-anchor="start" x="165.4488" y="-234.4" font-family="Arial" font-size="14.00" fill="#666666">[integer]</text>
<text text-anchor="start" x="216.0182" y="-234.4" font-family="Arial" font-size="14.00" fill="#000000"> メーカーID</text>
<polygon fill="none" stroke="#000000" points="97,-193 97,-223 438,-223 438,-193 97,-193"/>
<text text-anchor="start" x="104" y="-204.4" font-family="Arial" font-size="14.00" fill="#000000">name </text>
<text text-anchor="start" x="142.899" y="-204.4" font-family="Arial" font-size="14.00" fill="#666666">[text]</text>
<text text-anchor="start" x="173.244" y="-204.4" font-family="Arial" font-size="14.00" fill="#000000"> メーカー名</text>
<polygon fill="none" stroke="#000000" points="97,-163 97,-193 438,-193 438,-163 97,-163"/>
<text text-anchor="start" x="104" y="-174.4" font-family="Arial" font-size="14.00" fill="#000000">rank </text>
<text text-anchor="start" x="135.1164" y="-174.4" font-family="Arial" font-size="14.00" fill="#666666">[integer]</text>
<text text-anchor="start" x="185.6858" y="-174.4" font-family="Arial" font-size="14.00" fill="#000000"> 表示順</text>
<polygon fill="none" stroke="#000000" points="97,-133 97,-163 438,-163 438,-133 97,-133"/>
<text text-anchor="start" x="104" y="-144.4" font-family="Arial" font-size="14.00" fill="#000000">creator_id </text>
<text text-anchor="start" x="170.122" y="-144.4" font-family="Arial" font-size="14.00" fill="#666666">[integer]</text>
<text text-anchor="start" x="220.6914" y="-144.4" font-family="Arial" font-size="14.00" fill="#000000"> 作成者ID</text>
<polygon fill="none" stroke="#000000" points="97,-103 97,-133 438,-133 438,-103 97,-103"/>
<text text-anchor="start" x="103.735" y="-114.4" font-family="Arial" font-size="14.00" fill="#000000">create_date </text>
<text text-anchor="start" x="181.5456" y="-114.4" font-family="Arial" font-size="14.00" fill="#666666">[timestamp without time zone]</text>
<text text-anchor="start" x="366.6858" y="-114.4" font-family="Arial" font-size="14.00" fill="#000000"> 作成日時</text>
<polygon fill="none" stroke="#000000" points="97,-73 97,-103 438,-103 438,-73 97,-73"/>
<text text-anchor="start" x="104" y="-84.4" font-family="Arial" font-size="14.00" fill="#000000">update_date </text>
<text text-anchor="start" x="185.7152" y="-84.4" font-family="Arial" font-size="14.00" fill="#666666">[timestamp without time zone]</text>
<text text-anchor="start" x="370.8554" y="-84.4" font-family="Arial" font-size="14.00" fill="#000000"> 更新日時</text>
<polygon fill="none" stroke="#000000" points="97,-43 97,-73 438,-73 438,-43 97,-43"/>
<text text-anchor="start" x="104" y="-54.4" font-family="Arial" font-size="14.00" fill="#000000">del_flg </text>
<text text-anchor="start" x="149.1248" y="-54.4" font-family="Arial" font-size="14.00" fill="#666666">[smallint]</text>
<text text-anchor="start" x="204.3422" y="-54.4" font-family="Arial" font-size="14.00" fill="#000000"> 削除フラグ</text>
</g>
<!-- public.dtb_maker_count&#45;&gt;public.dtb_maker -->
<g id="edge1" class="edge">
<title>public.dtb_maker_count:maker_id&#45;&gt;public.dtb_maker:maker_id</title>
<path fill="none" stroke="#000000" stroke-dasharray="5,2" d="M87.1027,-496.2454C39.2126,-468.3513 42.5117,-238 97,-238"/>
<polygon fill="#000000" stroke="#000000" points="87.3662,-496.3187 95.7934,-503.3352 92.1831,-497.6593 97,-499 97,-499 97,-499 92.1831,-497.6593 98.2066,-494.6648 87.3662,-496.3187 87.3662,-496.3187"/>
<text text-anchor="start" x="7.3245" y="-509" font-family="Arial" font-size="10.00" fill="#000000">Additional Relation</text>
</g>
</g>
</svg>
