<?xml version="1.0" encoding="UTF-8" standalone="no"?>
<!DOCTYPE svg PUBLIC "-//W3C//DTD SVG 1.1//EN"
 "http://www.w3.org/Graphics/SVG/1.1/DTD/svg11.dtd">
<!-- Generated by graphviz version 2.40.1 (20161225.0304)
 -->
<!-- Title: public.dtb_customer Pages: 1 -->
<svg width="390pt" height="1365pt"
 viewBox="0.00 0.00 390.00 1365.00" xmlns="http://www.w3.org/2000/svg" xmlns:xlink="http://www.w3.org/1999/xlink">
<g id="graph0" class="graph" transform="scale(1 1) rotate(0) translate(4 1361)">
<title>public.dtb_customer</title>
<polygon fill="#ffffff" stroke="transparent" points="-4,4 -4,-1361 386,-1361 386,4 -4,4"/>
<!-- public.dtb_customer -->
<g id="node1" class="node">
<title>public.dtb_customer</title>
<polygon fill="#efefef" stroke="transparent" points="46,-1275.5 46,-1310.5 336,-1310.5 336,-1275.5 46,-1275.5"/>
<polygon fill="none" stroke="#000000" points="46,-1275.5 46,-1310.5 336,-1310.5 336,-1275.5 46,-1275.5"/>
<text text-anchor="start" x="61.8555" y="-1288.3" font-family="Arial Bold" font-size="18.00" fill="#000000">public.dtb_customer</text>
<text text-anchor="start" x="222.8907" y="-1288.3" font-family="Arial" font-size="14.00" fill="#000000"> </text>
<text text-anchor="start" x="226.7813" y="-1288.3" font-family="Arial" font-size="14.00" fill="#666666">[BASE TABLE]</text>
<polygon fill="none" stroke="#000000" points="46,-1245.5 46,-1275.5 336,-1275.5 336,-1245.5 46,-1245.5"/>
<text text-anchor="start" x="53" y="-1256.9" font-family="Arial" font-size="14.00" fill="#000000">customer_id </text>
<text text-anchor="start" x="133.122" y="-1256.9" font-family="Arial" font-size="14.00" fill="#666666">[integer]</text>
<polygon fill="none" stroke="#000000" points="46,-1215.5 46,-1245.5 336,-1245.5 336,-1215.5 46,-1215.5"/>
<text text-anchor="start" x="53" y="-1226.9" font-family="Arial" font-size="14.00" fill="#000000">name01 </text>
<text text-anchor="start" x="107.4642" y="-1226.9" font-family="Arial" font-size="14.00" fill="#666666">[text]</text>
<polygon fill="none" stroke="#000000" points="46,-1185.5 46,-1215.5 336,-1215.5 336,-1185.5 46,-1185.5"/>
<text text-anchor="start" x="53" y="-1196.9" font-family="Arial" font-size="14.00" fill="#000000">name02 </text>
<text text-anchor="start" x="107.4642" y="-1196.9" font-family="Arial" font-size="14.00" fill="#666666">[text]</text>
<polygon fill="none" stroke="#000000" points="46,-1155.5 46,-1185.5 336,-1185.5 336,-1155.5 46,-1155.5"/>
<text text-anchor="start" x="53" y="-1166.9" font-family="Arial" font-size="14.00" fill="#000000">kana01 </text>
<text text-anchor="start" x="102.8036" y="-1166.9" font-family="Arial" font-size="14.00" fill="#666666">[text]</text>
<polygon fill="none" stroke="#000000" points="46,-1125.5 46,-1155.5 336,-1155.5 336,-1125.5 46,-1125.5"/>
<text text-anchor="start" x="53" y="-1136.9" font-family="Arial" font-size="14.00" fill="#000000">kana02 </text>
<text text-anchor="start" x="102.8036" y="-1136.9" font-family="Arial" font-size="14.00" fill="#666666">[text]</text>
<polygon fill="none" stroke="#000000" points="46,-1095.5 46,-1125.5 336,-1125.5 336,-1095.5 46,-1095.5"/>
<text text-anchor="start" x="53" y="-1106.9" font-family="Arial" font-size="14.00" fill="#000000">company_name </text>
<text text-anchor="start" x="156.4726" y="-1106.9" font-family="Arial" font-size="14.00" fill="#666666">[text]</text>
<polygon fill="none" stroke="#000000" points="46,-1065.5 46,-1095.5 336,-1095.5 336,-1065.5 46,-1065.5"/>
<text text-anchor="start" x="53" y="-1076.9" font-family="Arial" font-size="14.00" fill="#000000">zip01 </text>
<text text-anchor="start" x="90.345" y="-1076.9" font-family="Arial" font-size="14.00" fill="#666666">[text]</text>
<polygon fill="none" stroke="#000000" points="46,-1035.5 46,-1065.5 336,-1065.5 336,-1035.5 46,-1035.5"/>
<text text-anchor="start" x="53" y="-1046.9" font-family="Arial" font-size="14.00" fill="#000000">zip02 </text>
<text text-anchor="start" x="90.345" y="-1046.9" font-family="Arial" font-size="14.00" fill="#666666">[text]</text>
<polygon fill="none" stroke="#000000" points="46,-1005.5 46,-1035.5 336,-1035.5 336,-1005.5 46,-1005.5"/>
<text text-anchor="start" x="53" y="-1016.9" font-family="Arial" font-size="14.00" fill="#000000">zipcode </text>
<text text-anchor="start" x="105.1276" y="-1016.9" font-family="Arial" font-size="14.00" fill="#666666">[text]</text>
<polygon fill="none" stroke="#000000" points="46,-975.5 46,-1005.5 336,-1005.5 336,-975.5 46,-975.5"/>
<text text-anchor="start" x="53" y="-986.9" font-family="Arial" font-size="14.00" fill="#000000">country_id </text>
<text text-anchor="start" x="121.4614" y="-986.9" font-family="Arial" font-size="14.00" fill="#666666">[integer]</text>
<polygon fill="none" stroke="#000000" points="46,-945.5 46,-975.5 336,-975.5 336,-945.5 46,-945.5"/>
<text text-anchor="start" x="53" y="-956.9" font-family="Arial" font-size="14.00" fill="#000000">pref </text>
<text text-anchor="start" x="81.007" y="-956.9" font-family="Arial" font-size="14.00" fill="#666666">[smallint]</text>
<polygon fill="none" stroke="#000000" points="46,-915.5 46,-945.5 336,-945.5 336,-915.5 46,-915.5"/>
<text text-anchor="start" x="53" y="-926.9" font-family="Arial" font-size="14.00" fill="#000000">addr01 </text>
<text text-anchor="start" x="100.4642" y="-926.9" font-family="Arial" font-size="14.00" fill="#666666">[text]</text>
<polygon fill="none" stroke="#000000" points="46,-885.5 46,-915.5 336,-915.5 336,-885.5 46,-885.5"/>
<text text-anchor="start" x="53" y="-896.9" font-family="Arial" font-size="14.00" fill="#000000">addr02 </text>
<text text-anchor="start" x="100.4642" y="-896.9" font-family="Arial" font-size="14.00" fill="#666666">[text]</text>
<polygon fill="none" stroke="#000000" points="46,-855.5 46,-885.5 336,-885.5 336,-855.5 46,-855.5"/>
<text text-anchor="start" x="53" y="-866.9" font-family="Arial" font-size="14.00" fill="#000000">email </text>
<text text-anchor="start" x="90.3296" y="-866.9" font-family="Arial" font-size="14.00" fill="#666666">[text]</text>
<polygon fill="none" stroke="#000000" points="46,-825.5 46,-855.5 336,-855.5 336,-825.5 46,-825.5"/>
<text text-anchor="start" x="53" y="-836.9" font-family="Arial" font-size="14.00" fill="#000000">email_mobile </text>
<text text-anchor="start" x="139.3338" y="-836.9" font-family="Arial" font-size="14.00" fill="#666666">[text]</text>
<polygon fill="none" stroke="#000000" points="46,-795.5 46,-825.5 336,-825.5 336,-795.5 46,-795.5"/>
<text text-anchor="start" x="53" y="-806.9" font-family="Arial" font-size="14.00" fill="#000000">tel01 </text>
<text text-anchor="start" x="87.2356" y="-806.9" font-family="Arial" font-size="14.00" fill="#666666">[text]</text>
<polygon fill="none" stroke="#000000" points="46,-765.5 46,-795.5 336,-795.5 336,-765.5 46,-765.5"/>
<text text-anchor="start" x="53" y="-776.9" font-family="Arial" font-size="14.00" fill="#000000">tel02 </text>
<text text-anchor="start" x="87.2356" y="-776.9" font-family="Arial" font-size="14.00" fill="#666666">[text]</text>
<polygon fill="none" stroke="#000000" points="46,-735.5 46,-765.5 336,-765.5 336,-735.5 46,-735.5"/>
<text text-anchor="start" x="53" y="-746.9" font-family="Arial" font-size="14.00" fill="#000000">tel03 </text>
<text text-anchor="start" x="87.2356" y="-746.9" font-family="Arial" font-size="14.00" fill="#666666">[text]</text>
<polygon fill="none" stroke="#000000" points="46,-705.5 46,-735.5 336,-735.5 336,-705.5 46,-705.5"/>
<text text-anchor="start" x="53" y="-716.9" font-family="Arial" font-size="14.00" fill="#000000">fax01 </text>
<text text-anchor="start" x="91.129" y="-716.9" font-family="Arial" font-size="14.00" fill="#666666">[text]</text>
<polygon fill="none" stroke="#000000" points="46,-675.5 46,-705.5 336,-705.5 336,-675.5 46,-675.5"/>
<text text-anchor="start" x="53" y="-686.9" font-family="Arial" font-size="14.00" fill="#000000">fax02 </text>
<text text-anchor="start" x="91.129" y="-686.9" font-family="Arial" font-size="14.00" fill="#666666">[text]</text>
<polygon fill="none" stroke="#000000" points="46,-645.5 46,-675.5 336,-675.5 336,-645.5 46,-645.5"/>
<text text-anchor="start" x="53" y="-656.9" font-family="Arial" font-size="14.00" fill="#000000">fax03 </text>
<text text-anchor="start" x="91.129" y="-656.9" font-family="Arial" font-size="14.00" fill="#666666">[text]</text>
<polygon fill="none" stroke="#000000" points="46,-615.5 46,-645.5 336,-645.5 336,-615.5 46,-615.5"/>
<text text-anchor="start" x="53" y="-626.9" font-family="Arial" font-size="14.00" fill="#000000">sex </text>
<text text-anchor="start" x="78.6732" y="-626.9" font-family="Arial" font-size="14.00" fill="#666666">[smallint]</text>
<polygon fill="none" stroke="#000000" points="46,-585.5 46,-615.5 336,-615.5 336,-585.5 46,-585.5"/>
<text text-anchor="start" x="53" y="-596.9" font-family="Arial" font-size="14.00" fill="#000000">job </text>
<text text-anchor="start" x="75.5624" y="-596.9" font-family="Arial" font-size="14.00" fill="#666666">[smallint]</text>
<polygon fill="none" stroke="#000000" points="46,-555.5 46,-585.5 336,-585.5 336,-555.5 46,-555.5"/>
<text text-anchor="start" x="53" y="-566.9" font-family="Arial" font-size="14.00" fill="#000000">birth </text>
<text text-anchor="start" x="84.1136" y="-566.9" font-family="Arial" font-size="14.00" fill="#666666">[timestamp without time zone]</text>
<polygon fill="none" stroke="#000000" points="46,-525.5 46,-555.5 336,-555.5 336,-525.5 46,-525.5"/>
<text text-anchor="start" x="53" y="-536.9" font-family="Arial" font-size="14.00" fill="#000000">password </text>
<text text-anchor="start" x="116.7882" y="-536.9" font-family="Arial" font-size="14.00" fill="#666666">[text]</text>
<polygon fill="none" stroke="#000000" points="46,-495.5 46,-525.5 336,-525.5 336,-495.5 46,-495.5"/>
<text text-anchor="start" x="53" y="-506.9" font-family="Arial" font-size="14.00" fill="#000000">reminder </text>
<text text-anchor="start" x="112.1094" y="-506.9" font-family="Arial" font-size="14.00" fill="#666666">[smallint]</text>
<polygon fill="none" stroke="#000000" points="46,-465.5 46,-495.5 336,-495.5 336,-465.5 46,-465.5"/>
<text text-anchor="start" x="53" y="-476.9" font-family="Arial" font-size="14.00" fill="#000000">reminder_answer </text>
<text text-anchor="start" x="165.007" y="-476.9" font-family="Arial" font-size="14.00" fill="#666666">[text]</text>
<polygon fill="none" stroke="#000000" points="46,-435.5 46,-465.5 336,-465.5 336,-435.5 46,-435.5"/>
<text text-anchor="start" x="53" y="-446.9" font-family="Arial" font-size="14.00" fill="#000000">salt </text>
<text text-anchor="start" x="78.6704" y="-446.9" font-family="Arial" font-size="14.00" fill="#666666">[text]</text>
<polygon fill="none" stroke="#000000" points="46,-405.5 46,-435.5 336,-435.5 336,-405.5 46,-405.5"/>
<text text-anchor="start" x="53" y="-416.9" font-family="Arial" font-size="14.00" fill="#000000">secret_key </text>
<text text-anchor="start" x="124.5722" y="-416.9" font-family="Arial" font-size="14.00" fill="#666666">[text]</text>
<polygon fill="none" stroke="#000000" points="46,-375.5 46,-405.5 336,-405.5 336,-375.5 46,-375.5"/>
<text text-anchor="start" x="52.526" y="-386.9" font-family="Arial" font-size="14.00" fill="#000000">first_buy_date </text>
<text text-anchor="start" x="144.3338" y="-386.9" font-family="Arial" font-size="14.00" fill="#666666">[timestamp without time zone]</text>
<polygon fill="none" stroke="#000000" points="46,-345.5 46,-375.5 336,-375.5 336,-345.5 46,-345.5"/>
<text text-anchor="start" x="52.9103" y="-356.9" font-family="Arial" font-size="14.00" fill="#000000">last_buy_date </text>
<text text-anchor="start" x="143.9495" y="-356.9" font-family="Arial" font-size="14.00" fill="#666666">[timestamp without time zone]</text>
<polygon fill="none" stroke="#000000" points="46,-315.5 46,-345.5 336,-345.5 336,-315.5 46,-315.5"/>
<text text-anchor="start" x="53" y="-326.9" font-family="Arial" font-size="14.00" fill="#000000">buy_times </text>
<text text-anchor="start" x="120.6788" y="-326.9" font-family="Arial" font-size="14.00" fill="#666666">[numeric]</text>
<polygon fill="none" stroke="#000000" points="46,-285.5 46,-315.5 336,-315.5 336,-285.5 46,-285.5"/>
<text text-anchor="start" x="53" y="-296.9" font-family="Arial" font-size="14.00" fill="#000000">buy_total </text>
<text text-anchor="start" x="113.6914" y="-296.9" font-family="Arial" font-size="14.00" fill="#666666">[numeric]</text>
<polygon fill="none" stroke="#000000" points="46,-255.5 46,-285.5 336,-285.5 336,-255.5 46,-255.5"/>
<text text-anchor="start" x="53" y="-266.9" font-family="Arial" font-size="14.00" fill="#000000">point </text>
<text text-anchor="start" x="87.2356" y="-266.9" font-family="Arial" font-size="14.00" fill="#666666">[numeric]</text>
<polygon fill="none" stroke="#000000" points="46,-225.5 46,-255.5 336,-255.5 336,-225.5 46,-225.5"/>
<text text-anchor="start" x="53" y="-236.9" font-family="Arial" font-size="14.00" fill="#000000">note </text>
<text text-anchor="start" x="84.129" y="-236.9" font-family="Arial" font-size="14.00" fill="#666666">[text]</text>
<polygon fill="none" stroke="#000000" points="46,-195.5 46,-225.5 336,-225.5 336,-195.5 46,-195.5"/>
<text text-anchor="start" x="53" y="-206.9" font-family="Arial" font-size="14.00" fill="#000000">status </text>
<text text-anchor="start" x="94.237" y="-206.9" font-family="Arial" font-size="14.00" fill="#666666">[smallint]</text>
<polygon fill="none" stroke="#000000" points="46,-165.5 46,-195.5 336,-195.5 336,-165.5 46,-165.5"/>
<text text-anchor="start" x="53" y="-176.9" font-family="Arial" font-size="14.00" fill="#000000">create_date </text>
<text text-anchor="start" x="130.8106" y="-176.9" font-family="Arial" font-size="14.00" fill="#666666">[timestamp without time zone]</text>
<polygon fill="none" stroke="#000000" points="46,-135.5 46,-165.5 336,-165.5 336,-135.5 46,-135.5"/>
<text text-anchor="start" x="53" y="-146.9" font-family="Arial" font-size="14.00" fill="#000000">update_date </text>
<text text-anchor="start" x="134.7152" y="-146.9" font-family="Arial" font-size="14.00" fill="#666666">[timestamp without time zone]</text>
<polygon fill="none" stroke="#000000" points="46,-105.5 46,-135.5 336,-135.5 336,-105.5 46,-105.5"/>
<text text-anchor="start" x="53" y="-116.9" font-family="Arial" font-size="14.00" fill="#000000">del_flg </text>
<text text-anchor="start" x="98.1248" y="-116.9" font-family="Arial" font-size="14.00" fill="#666666">[smallint]</text>
<polygon fill="none" stroke="#000000" points="46,-75.5 46,-105.5 336,-105.5 336,-75.5 46,-75.5"/>
<text text-anchor="start" x="53" y="-86.9" font-family="Arial" font-size="14.00" fill="#000000">mobile_phone_id </text>
<text text-anchor="start" x="163.4796" y="-86.9" font-family="Arial" font-size="14.00" fill="#666666">[text]</text>
<polygon fill="none" stroke="#000000" points="46,-45.5 46,-75.5 336,-75.5 336,-45.5 46,-45.5"/>
<text text-anchor="start" x="53" y="-56.9" font-family="Arial" font-size="14.00" fill="#000000">mailmaga_flg </text>
<text text-anchor="start" x="140.1178" y="-56.9" font-family="Arial" font-size="14.00" fill="#666666">[smallint]</text>
<polygon fill="none" stroke="#000000" stroke-width="3" points="44.5,-44.5 44.5,-1312.5 337.5,-1312.5 337.5,-44.5 44.5,-44.5"/>
</g>
</g>
</svg>
