<?xml version="1.0" encoding="UTF-8" standalone="no"?>
<!DOCTYPE svg PUBLIC "-//W3C//DTD SVG 1.1//EN"
 "http://www.w3.org/Graphics/SVG/1.1/DTD/svg11.dtd">
<!-- Generated by graphviz version 2.40.1 (20161225.0304)
 -->
<!-- Title: public.mtb_constants Pages: 1 -->
<svg width="380pt" height="266pt"
 viewBox="0.00 0.00 380.00 266.00" xmlns="http://www.w3.org/2000/svg" xmlns:xlink="http://www.w3.org/1999/xlink">
<g id="graph0" class="graph" transform="scale(1 1) rotate(0) translate(4 262)">
<title>public.mtb_constants</title>
<polygon fill="#ffffff" stroke="transparent" points="-4,4 -4,-262 376,-262 376,4 -4,4"/>
<!-- public.mtb_constants -->
<g id="node1" class="node">
<title>public.mtb_constants</title>
<polygon fill="#efefef" stroke="transparent" points="46,-166 46,-212 326,-212 326,-166 46,-166"/>
<polygon fill="none" stroke="#000000" points="46,-166 46,-212 326,-212 326,-166 46,-166"/>
<text text-anchor="start" x="52.8505" y="-189.8" font-family="Arial Bold" font-size="18.00" fill="#000000">public.mtb_constants</text>
<text text-anchor="start" x="221.8957" y="-189.8" font-family="Arial" font-size="14.00" fill="#000000"> </text>
<text text-anchor="start" x="225.7863" y="-189.8" font-family="Arial" font-size="14.00" fill="#666666">[BASE TABLE]</text>
<text text-anchor="start" x="150.6178" y="-175.4" font-family="Arial" font-size="14.00" fill="#333333">定数マスタ</text>
<polygon fill="none" stroke="#000000" points="46,-136 46,-166 326,-166 326,-136 46,-136"/>
<text text-anchor="start" x="53" y="-147.4" font-family="Arial" font-size="14.00" fill="#000000">id </text>
<text text-anchor="start" x="67.7798" y="-147.4" font-family="Arial" font-size="14.00" fill="#666666">[text]</text>
<text text-anchor="start" x="98.1248" y="-147.4" font-family="Arial" font-size="14.00" fill="#000000"> ID</text>
<polygon fill="none" stroke="#000000" points="46,-106 46,-136 326,-136 326,-106 46,-106"/>
<text text-anchor="start" x="53" y="-117.4" font-family="Arial" font-size="14.00" fill="#000000">name </text>
<text text-anchor="start" x="91.899" y="-117.4" font-family="Arial" font-size="14.00" fill="#666666">[text]</text>
<text text-anchor="start" x="122.244" y="-117.4" font-family="Arial" font-size="14.00" fill="#000000"> 定数名</text>
<polygon fill="none" stroke="#000000" points="46,-76 46,-106 326,-106 326,-76 46,-76"/>
<text text-anchor="start" x="53" y="-87.4" font-family="Arial" font-size="14.00" fill="#000000">rank </text>
<text text-anchor="start" x="84.1164" y="-87.4" font-family="Arial" font-size="14.00" fill="#666666">[smallint]</text>
<text text-anchor="start" x="139.3338" y="-87.4" font-family="Arial" font-size="14.00" fill="#000000"> 表示順</text>
<polygon fill="none" stroke="#000000" points="46,-46 46,-76 326,-76 326,-46 46,-46"/>
<text text-anchor="start" x="53" y="-57.4" font-family="Arial" font-size="14.00" fill="#000000">remarks </text>
<text text-anchor="start" x="107.4376" y="-57.4" font-family="Arial" font-size="14.00" fill="#666666">[text]</text>
<text text-anchor="start" x="137.7826" y="-57.4" font-family="Arial" font-size="14.00" fill="#000000"> 定数コメント</text>
<polygon fill="none" stroke="#000000" stroke-width="3" points="44.5,-44.5 44.5,-213.5 327.5,-213.5 327.5,-44.5 44.5,-44.5"/>
</g>
</g>
</svg>
