<?xml version="1.0" encoding="UTF-8" standalone="no"?>
<!DOCTYPE svg PUBLIC "-//W3C//DTD SVG 1.1//EN"
 "http://www.w3.org/Graphics/SVG/1.1/DTD/svg11.dtd">
<!-- Generated by graphviz version 2.40.1 (20161225.0304)
 -->
<!-- Title: public.dtb_category Pages: 1 -->
<svg width="1804pt" height="1472pt"
 viewBox="0.00 0.00 1804.00 1472.00" xmlns="http://www.w3.org/2000/svg" xmlns:xlink="http://www.w3.org/1999/xlink">
<g id="graph0" class="graph" transform="scale(1 1) rotate(0) translate(4 1468)">
<title>public.dtb_category</title>
<polygon fill="#ffffff" stroke="transparent" points="-4,4 -4,-1468 1800,-1468 1800,4 -4,4"/>
<!-- public.dtb_category -->
<g id="node1" class="node">
<title>public.dtb_category</title>
<polygon fill="#efefef" stroke="transparent" points="726.5,-904 726.5,-950 1067.5,-950 1067.5,-904 726.5,-904"/>
<polygon fill="none" stroke="#000000" points="726.5,-904 726.5,-950 1067.5,-950 1067.5,-904 726.5,-904"/>
<text text-anchor="start" x="770.3485" y="-927.8" font-family="Arial Bold" font-size="18.00" fill="#000000">public.dtb_category</text>
<text text-anchor="start" x="926.3977" y="-927.8" font-family="Arial" font-size="14.00" fill="#000000"> </text>
<text text-anchor="start" x="930.2883" y="-927.8" font-family="Arial" font-size="14.00" fill="#666666">[BASE TABLE]</text>
<text text-anchor="start" x="855.1316" y="-913.4" font-family="Arial" font-size="14.00" fill="#333333">カテゴリ情報</text>
<polygon fill="none" stroke="#000000" points="726.5,-874 726.5,-904 1067.5,-904 1067.5,-874 726.5,-874"/>
<text text-anchor="start" x="733.5" y="-885.4" font-family="Arial" font-size="14.00" fill="#000000">category_id </text>
<text text-anchor="start" x="809.744" y="-885.4" font-family="Arial" font-size="14.00" fill="#666666">[integer]</text>
<text text-anchor="start" x="860.3134" y="-885.4" font-family="Arial" font-size="14.00" fill="#000000"> カテゴリID</text>
<polygon fill="none" stroke="#000000" points="726.5,-844 726.5,-874 1067.5,-874 1067.5,-844 726.5,-844"/>
<text text-anchor="start" x="733.5" y="-855.4" font-family="Arial" font-size="14.00" fill="#000000">category_name </text>
<text text-anchor="start" x="833.8632" y="-855.4" font-family="Arial" font-size="14.00" fill="#666666">[text]</text>
<text text-anchor="start" x="864.2082" y="-855.4" font-family="Arial" font-size="14.00" fill="#000000"> カテゴリ名</text>
<polygon fill="none" stroke="#000000" points="726.5,-814 726.5,-844 1067.5,-844 1067.5,-814 726.5,-814"/>
<text text-anchor="start" x="733.5" y="-825.4" font-family="Arial" font-size="14.00" fill="#000000">parent_category_id </text>
<text text-anchor="start" x="857.2082" y="-825.4" font-family="Arial" font-size="14.00" fill="#666666">[integer]</text>
<text text-anchor="start" x="907.7776" y="-825.4" font-family="Arial" font-size="14.00" fill="#000000"> 親カテゴリID</text>
<polygon fill="none" stroke="#000000" points="726.5,-784 726.5,-814 1067.5,-814 1067.5,-784 726.5,-784"/>
<text text-anchor="start" x="733.5" y="-795.4" font-family="Arial" font-size="14.00" fill="#000000">level </text>
<text text-anchor="start" x="766.169" y="-795.4" font-family="Arial" font-size="14.00" fill="#666666">[integer]</text>
<text text-anchor="start" x="816.7384" y="-795.4" font-family="Arial" font-size="14.00" fill="#000000"> 階層</text>
<polygon fill="none" stroke="#000000" points="726.5,-754 726.5,-784 1067.5,-784 1067.5,-754 726.5,-754"/>
<text text-anchor="start" x="733.5" y="-765.4" font-family="Arial" font-size="14.00" fill="#000000">rank </text>
<text text-anchor="start" x="764.6164" y="-765.4" font-family="Arial" font-size="14.00" fill="#666666">[integer]</text>
<text text-anchor="start" x="815.1858" y="-765.4" font-family="Arial" font-size="14.00" fill="#000000"> 表示順</text>
<polygon fill="none" stroke="#000000" points="726.5,-724 726.5,-754 1067.5,-754 1067.5,-724 726.5,-724"/>
<text text-anchor="start" x="733.5" y="-735.4" font-family="Arial" font-size="14.00" fill="#000000">creator_id </text>
<text text-anchor="start" x="799.622" y="-735.4" font-family="Arial" font-size="14.00" fill="#666666">[integer]</text>
<text text-anchor="start" x="850.1914" y="-735.4" font-family="Arial" font-size="14.00" fill="#000000"> 作成者ID</text>
<polygon fill="none" stroke="#000000" points="726.5,-694 726.5,-724 1067.5,-724 1067.5,-694 726.5,-694"/>
<text text-anchor="start" x="733.235" y="-705.4" font-family="Arial" font-size="14.00" fill="#000000">create_date </text>
<text text-anchor="start" x="811.0456" y="-705.4" font-family="Arial" font-size="14.00" fill="#666666">[timestamp without time zone]</text>
<text text-anchor="start" x="996.1858" y="-705.4" font-family="Arial" font-size="14.00" fill="#000000"> 作成日時</text>
<polygon fill="none" stroke="#000000" points="726.5,-664 726.5,-694 1067.5,-694 1067.5,-664 726.5,-664"/>
<text text-anchor="start" x="733.5" y="-675.4" font-family="Arial" font-size="14.00" fill="#000000">update_date </text>
<text text-anchor="start" x="815.2152" y="-675.4" font-family="Arial" font-size="14.00" fill="#666666">[timestamp without time zone]</text>
<text text-anchor="start" x="1000.3554" y="-675.4" font-family="Arial" font-size="14.00" fill="#000000"> 更新日時</text>
<polygon fill="none" stroke="#000000" points="726.5,-634 726.5,-664 1067.5,-664 1067.5,-634 726.5,-634"/>
<text text-anchor="start" x="733.5" y="-645.4" font-family="Arial" font-size="14.00" fill="#000000">del_flg </text>
<text text-anchor="start" x="778.6248" y="-645.4" font-family="Arial" font-size="14.00" fill="#666666">[smallint]</text>
<text text-anchor="start" x="833.8422" y="-645.4" font-family="Arial" font-size="14.00" fill="#000000"> 削除フラグ</text>
<polygon fill="none" stroke="#000000" stroke-width="3" points="724.5,-632.5 724.5,-951.5 1068.5,-951.5 1068.5,-632.5 724.5,-632.5"/>
</g>
<!-- public.dtb_category&#45;&gt;public.dtb_category -->
<g id="edge2" class="edge">
<title>public.dtb_category:parent_category_id&#45;&gt;public.dtb_category:category_id</title>
<path fill="none" stroke="#000000" stroke-dasharray="5,2" d="M898.9469,-854.5151C906.4709,-1000.7114 905.9887,-1224 897.5,-1224 888.8164,-1224 888.5111,-1046.1936 896.5842,-904.3514"/>
<polygon fill="#000000" stroke="#000000" points="898.9254,-854.1121 902.8849,-843.886 898.6584,-849.1192 898.3913,-844.1263 898.3913,-844.1263 898.3913,-844.1263 898.6584,-849.1192 893.8977,-844.3667 898.9254,-854.1121 898.9254,-854.1121"/>
<text text-anchor="start" x="808.7158" y="-854.1263" font-family="Arial" font-size="10.00" fill="#000000">Additional Relation</text>
</g>
<!-- public.dtb_member -->
<g id="node6" class="node">
<title>public.dtb_member</title>
<polygon fill="#efefef" stroke="transparent" points="708.5,-463 708.5,-509 1085.5,-509 1085.5,-463 708.5,-463"/>
<polygon fill="none" stroke="#000000" points="708.5,-463 708.5,-509 1085.5,-509 1085.5,-463 708.5,-463"/>
<text text-anchor="start" x="771.8605" y="-486.8" font-family="Arial Bold" font-size="18.00" fill="#000000">public.dtb_member</text>
<text text-anchor="start" x="924.8857" y="-486.8" font-family="Arial" font-size="14.00" fill="#000000"> </text>
<text text-anchor="start" x="928.7763" y="-486.8" font-family="Arial" font-size="14.00" fill="#666666">[BASE TABLE]</text>
<text text-anchor="start" x="817.4016" y="-472.4" font-family="Arial" font-size="14.00" fill="#333333">管理画面メンバー情報</text>
<polygon fill="none" stroke="#000000" points="708.5,-433 708.5,-463 1085.5,-463 1085.5,-433 708.5,-433"/>
<text text-anchor="start" x="715.5" y="-444.4" font-family="Arial" font-size="14.00" fill="#000000">member_id </text>
<text text-anchor="start" x="789.392" y="-444.4" font-family="Arial" font-size="14.00" fill="#666666">[integer]</text>
<text text-anchor="start" x="839.9614" y="-444.4" font-family="Arial" font-size="14.00" fill="#000000"> メンバーID</text>
<polygon fill="none" stroke="#000000" points="708.5,-403 708.5,-433 1085.5,-433 1085.5,-403 708.5,-403"/>
<text text-anchor="start" x="715.5" y="-414.4" font-family="Arial" font-size="14.00" fill="#000000">name </text>
<text text-anchor="start" x="754.399" y="-414.4" font-family="Arial" font-size="14.00" fill="#666666">[text]</text>
<text text-anchor="start" x="784.744" y="-414.4" font-family="Arial" font-size="14.00" fill="#000000"> 名前</text>
<polygon fill="none" stroke="#000000" points="708.5,-373 708.5,-403 1085.5,-403 1085.5,-373 708.5,-373"/>
<text text-anchor="start" x="715.5" y="-384.4" font-family="Arial" font-size="14.00" fill="#000000">department </text>
<text text-anchor="start" x="790.1886" y="-384.4" font-family="Arial" font-size="14.00" fill="#666666">[text]</text>
<text text-anchor="start" x="820.5336" y="-384.4" font-family="Arial" font-size="14.00" fill="#000000"> 部門</text>
<polygon fill="none" stroke="#000000" points="708.5,-343 708.5,-373 1085.5,-373 1085.5,-343 708.5,-343"/>
<text text-anchor="start" x="715.5" y="-354.4" font-family="Arial" font-size="14.00" fill="#000000">login_id </text>
<text text-anchor="start" x="767.6234" y="-354.4" font-family="Arial" font-size="14.00" fill="#666666">[text]</text>
<text text-anchor="start" x="797.9684" y="-354.4" font-family="Arial" font-size="14.00" fill="#000000"> ログインID</text>
<polygon fill="none" stroke="#000000" points="708.5,-313 708.5,-343 1085.5,-343 1085.5,-313 708.5,-313"/>
<text text-anchor="start" x="715.5" y="-324.4" font-family="Arial" font-size="14.00" fill="#000000">password </text>
<text text-anchor="start" x="779.2882" y="-324.4" font-family="Arial" font-size="14.00" fill="#666666">[text]</text>
<text text-anchor="start" x="809.6332" y="-324.4" font-family="Arial" font-size="14.00" fill="#000000"> パスワード</text>
<polygon fill="none" stroke="#000000" points="708.5,-283 708.5,-313 1085.5,-313 1085.5,-283 708.5,-283"/>
<text text-anchor="start" x="715.5" y="-294.4" font-family="Arial" font-size="14.00" fill="#000000">salt </text>
<text text-anchor="start" x="741.1704" y="-294.4" font-family="Arial" font-size="14.00" fill="#666666">[text]</text>
<text text-anchor="start" x="771.5154" y="-294.4" font-family="Arial" font-size="14.00" fill="#000000"> 暗号化付与文字列</text>
<polygon fill="none" stroke="#000000" points="708.5,-253 708.5,-283 1085.5,-283 1085.5,-253 708.5,-253"/>
<text text-anchor="start" x="715.5" y="-264.4" font-family="Arial" font-size="14.00" fill="#000000">authority </text>
<text text-anchor="start" x="773.0694" y="-264.4" font-family="Arial" font-size="14.00" fill="#666666">[smallint]</text>
<text text-anchor="start" x="828.2868" y="-264.4" font-family="Arial" font-size="14.00" fill="#000000"> 権限</text>
<polygon fill="none" stroke="#000000" points="708.5,-223 708.5,-253 1085.5,-253 1085.5,-223 708.5,-223"/>
<text text-anchor="start" x="715.5" y="-234.4" font-family="Arial" font-size="14.00" fill="#000000">rank </text>
<text text-anchor="start" x="746.6164" y="-234.4" font-family="Arial" font-size="14.00" fill="#666666">[integer]</text>
<text text-anchor="start" x="797.1858" y="-234.4" font-family="Arial" font-size="14.00" fill="#000000"> 表示順</text>
<polygon fill="none" stroke="#000000" points="708.5,-193 708.5,-223 1085.5,-223 1085.5,-193 708.5,-193"/>
<text text-anchor="start" x="715.5" y="-204.4" font-family="Arial" font-size="14.00" fill="#000000">work </text>
<text text-anchor="start" x="748.9404" y="-204.4" font-family="Arial" font-size="14.00" fill="#666666">[smallint]</text>
<text text-anchor="start" x="804.1578" y="-204.4" font-family="Arial" font-size="14.00" fill="#000000"> 稼動フラグ</text>
<polygon fill="none" stroke="#000000" points="708.5,-163 708.5,-193 1085.5,-193 1085.5,-163 708.5,-163"/>
<text text-anchor="start" x="715.5" y="-174.4" font-family="Arial" font-size="14.00" fill="#000000">del_flg </text>
<text text-anchor="start" x="760.6248" y="-174.4" font-family="Arial" font-size="14.00" fill="#666666">[smallint]</text>
<text text-anchor="start" x="815.8422" y="-174.4" font-family="Arial" font-size="14.00" fill="#000000"> 削除フラグ</text>
<polygon fill="none" stroke="#000000" points="708.5,-133 708.5,-163 1085.5,-163 1085.5,-133 708.5,-133"/>
<text text-anchor="start" x="715.5" y="-144.4" font-family="Arial" font-size="14.00" fill="#000000">creator_id </text>
<text text-anchor="start" x="781.622" y="-144.4" font-family="Arial" font-size="14.00" fill="#666666">[integer]</text>
<text text-anchor="start" x="832.1914" y="-144.4" font-family="Arial" font-size="14.00" fill="#000000"> 作成者ID</text>
<polygon fill="none" stroke="#000000" points="708.5,-103 708.5,-133 1085.5,-133 1085.5,-103 708.5,-103"/>
<text text-anchor="start" x="715.5" y="-114.4" font-family="Arial" font-size="14.00" fill="#000000">create_date </text>
<text text-anchor="start" x="793.3106" y="-114.4" font-family="Arial" font-size="14.00" fill="#666666">[timestamp without time zone]</text>
<text text-anchor="start" x="978.4508" y="-114.4" font-family="Arial" font-size="14.00" fill="#000000"> 作成日時</text>
<polygon fill="none" stroke="#000000" points="708.5,-73 708.5,-103 1085.5,-103 1085.5,-73 708.5,-73"/>
<text text-anchor="start" x="715.5" y="-84.4" font-family="Arial" font-size="14.00" fill="#000000">update_date </text>
<text text-anchor="start" x="797.2152" y="-84.4" font-family="Arial" font-size="14.00" fill="#666666">[timestamp without time zone]</text>
<text text-anchor="start" x="982.3554" y="-84.4" font-family="Arial" font-size="14.00" fill="#000000"> 更新日付</text>
<polygon fill="none" stroke="#000000" points="708.5,-43 708.5,-73 1085.5,-73 1085.5,-43 708.5,-43"/>
<text text-anchor="start" x="715.4851" y="-54.4" font-family="Arial" font-size="14.00" fill="#000000">login_date </text>
<text text-anchor="start" x="783.9577" y="-54.4" font-family="Arial" font-size="14.00" fill="#666666">[timestamp without time zone]</text>
<text text-anchor="start" x="969.0979" y="-54.4" font-family="Arial" font-size="14.00" fill="#000000"> 最終ログイン日時</text>
</g>
<!-- public.dtb_category&#45;&gt;public.dtb_member -->
<g id="edge6" class="edge">
<title>public.dtb_category:creator_id&#45;&gt;public.dtb_member:member_id</title>
<path fill="none" stroke="#000000" stroke-dasharray="5,2" d="M716.4834,-738.4037C596.0729,-723.8566 582.3362,-448 708.5,-448"/>
<polygon fill="#000000" stroke="#000000" points="716.5177,-738.4057 726.2326,-743.492 721.5088,-738.7028 726.5,-739 726.5,-739 726.5,-739 721.5088,-738.7028 726.7674,-734.508 716.5177,-738.4057 716.5177,-738.4057"/>
<text text-anchor="start" x="636.8245" y="-749" font-family="Arial" font-size="10.00" fill="#000000">Additional Relation</text>
</g>
<!-- public.dtb_product_categories -->
<g id="node2" class="node">
<title>public.dtb_product_categories</title>
<polygon fill="#efefef" stroke="transparent" points="43.5,-1270 43.5,-1316 394.5,-1316 394.5,-1270 43.5,-1270"/>
<polygon fill="none" stroke="#000000" points="43.5,-1270 43.5,-1316 394.5,-1316 394.5,-1270 43.5,-1270"/>
<text text-anchor="start" x="50.3356" y="-1293.8" font-family="Arial Bold" font-size="18.00" fill="#000000">public.dtb_product_categories</text>
<text text-anchor="start" x="290.4106" y="-1293.8" font-family="Arial" font-size="14.00" fill="#000000"> </text>
<text text-anchor="start" x="294.3012" y="-1293.8" font-family="Arial" font-size="14.00" fill="#666666">[BASE TABLE]</text>
<text text-anchor="start" x="156.5138" y="-1279.4" font-family="Arial" font-size="14.00" fill="#333333">商品カテゴリ関連</text>
<polygon fill="none" stroke="#000000" points="43.5,-1240 43.5,-1270 394.5,-1270 394.5,-1240 43.5,-1240"/>
<text text-anchor="start" x="50.5" y="-1251.4" font-family="Arial" font-size="14.00" fill="#000000">product_id </text>
<text text-anchor="start" x="119.744" y="-1251.4" font-family="Arial" font-size="14.00" fill="#666666">[integer]</text>
<text text-anchor="start" x="170.3134" y="-1251.4" font-family="Arial" font-size="14.00" fill="#000000"> 商品ID</text>
<polygon fill="none" stroke="#000000" points="43.5,-1210 43.5,-1240 394.5,-1240 394.5,-1210 43.5,-1210"/>
<text text-anchor="start" x="50.5" y="-1221.4" font-family="Arial" font-size="14.00" fill="#000000">category_id </text>
<text text-anchor="start" x="126.744" y="-1221.4" font-family="Arial" font-size="14.00" fill="#666666">[integer]</text>
<text text-anchor="start" x="177.3134" y="-1221.4" font-family="Arial" font-size="14.00" fill="#000000"> カテゴリID</text>
<polygon fill="none" stroke="#000000" points="43.5,-1180 43.5,-1210 394.5,-1210 394.5,-1180 43.5,-1180"/>
<text text-anchor="start" x="50.5" y="-1191.4" font-family="Arial" font-size="14.00" fill="#000000">rank </text>
<text text-anchor="start" x="81.6164" y="-1191.4" font-family="Arial" font-size="14.00" fill="#666666">[integer]</text>
<text text-anchor="start" x="132.1858" y="-1191.4" font-family="Arial" font-size="14.00" fill="#000000"> 表示順</text>
</g>
<!-- public.dtb_product_categories&#45;&gt;public.dtb_category -->
<g id="edge1" class="edge">
<title>public.dtb_product_categories:category_id&#45;&gt;public.dtb_category:category_id</title>
<path fill="none" stroke="#000000" stroke-dasharray="5,2" d="M404.5204,-1224.3867C475.8068,-1214.9232 392.0533,-1098.201 445.5,-1032 533.5259,-922.9679 586.3695,-889 726.5,-889"/>
<polygon fill="#000000" stroke="#000000" points="404.4813,-1224.389 394.225,-1220.5084 399.4907,-1224.6945 394.5,-1225 394.5,-1225 394.5,-1225 399.4907,-1224.6945 394.775,-1229.4916 404.4813,-1224.389 404.4813,-1224.389"/>
<text text-anchor="start" x="401.8245" y="-1235" font-family="Arial" font-size="10.00" fill="#000000">Additional Relation</text>
</g>
<!-- public.dtb_category_count -->
<g id="node3" class="node">
<title>public.dtb_category_count</title>
<polygon fill="#efefef" stroke="transparent" points="498.5,-1270 498.5,-1316 839.5,-1316 839.5,-1270 498.5,-1270"/>
<polygon fill="none" stroke="#000000" points="498.5,-1270 498.5,-1316 839.5,-1316 839.5,-1270 498.5,-1270"/>
<text text-anchor="start" x="515.335" y="-1293.8" font-family="Arial Bold" font-size="18.00" fill="#000000">public.dtb_category_count</text>
<text text-anchor="start" x="725.4112" y="-1293.8" font-family="Arial" font-size="14.00" fill="#000000"> </text>
<text text-anchor="start" x="729.3018" y="-1293.8" font-family="Arial" font-size="14.00" fill="#666666">[BASE TABLE]</text>
<text text-anchor="start" x="609.6239" y="-1279.4" font-family="Arial" font-size="14.00" fill="#333333">カテゴリ商品数情報</text>
<polygon fill="none" stroke="#000000" points="498.5,-1240 498.5,-1270 839.5,-1270 839.5,-1240 498.5,-1240"/>
<text text-anchor="start" x="505.5" y="-1251.4" font-family="Arial" font-size="14.00" fill="#000000">category_id </text>
<text text-anchor="start" x="581.744" y="-1251.4" font-family="Arial" font-size="14.00" fill="#666666">[integer]</text>
<text text-anchor="start" x="632.3134" y="-1251.4" font-family="Arial" font-size="14.00" fill="#000000"> カテゴリID</text>
<polygon fill="none" stroke="#000000" points="498.5,-1210 498.5,-1240 839.5,-1240 839.5,-1210 498.5,-1210"/>
<text text-anchor="start" x="505.5" y="-1221.4" font-family="Arial" font-size="14.00" fill="#000000">product_count </text>
<text text-anchor="start" x="598.0932" y="-1221.4" font-family="Arial" font-size="14.00" fill="#666666">[integer]</text>
<text text-anchor="start" x="648.6626" y="-1221.4" font-family="Arial" font-size="14.00" fill="#000000"> 商品数</text>
<polygon fill="none" stroke="#000000" points="498.5,-1180 498.5,-1210 839.5,-1210 839.5,-1180 498.5,-1180"/>
<text text-anchor="start" x="505.235" y="-1191.4" font-family="Arial" font-size="14.00" fill="#000000">create_date </text>
<text text-anchor="start" x="583.0456" y="-1191.4" font-family="Arial" font-size="14.00" fill="#666666">[timestamp without time zone]</text>
<text text-anchor="start" x="768.1858" y="-1191.4" font-family="Arial" font-size="14.00" fill="#000000"> 作成日時</text>
</g>
<!-- public.dtb_category_count&#45;&gt;public.dtb_category -->
<g id="edge3" class="edge">
<title>public.dtb_category_count:category_id&#45;&gt;public.dtb_category:category_id</title>
<path fill="none" stroke="#000000" stroke-dasharray="5,2" d="M849.774,-1253.9035C886.8371,-1244.934 855.5909,-1182.8082 839.5,-1137 812.8847,-1061.2305 753.1153,-1071.7695 726.5,-996 710.7394,-951.132 678.9444,-889 726.5,-889"/>
<polygon fill="#000000" stroke="#000000" points="849.4435,-1253.9387 839.0224,-1250.5254 844.4718,-1254.4693 839.5,-1255 839.5,-1255 839.5,-1255 844.4718,-1254.4693 839.9776,-1259.4746 849.4435,-1253.9387 849.4435,-1253.9387"/>
<text text-anchor="start" x="846.8245" y="-1265" font-family="Arial" font-size="10.00" fill="#000000">Additional Relation</text>
</g>
<!-- public.dtb_category_total_count -->
<g id="node4" class="node">
<title>public.dtb_category_total_count</title>
<polygon fill="#efefef" stroke="transparent" points="943.5,-1270 943.5,-1316 1308.5,-1316 1308.5,-1270 943.5,-1270"/>
<polygon fill="none" stroke="#000000" points="943.5,-1270 943.5,-1316 1308.5,-1316 1308.5,-1270 943.5,-1270"/>
<text text-anchor="start" x="950.3264" y="-1293.8" font-family="Arial Bold" font-size="18.00" fill="#000000">public.dtb_category_total_count</text>
<text text-anchor="start" x="1204.4198" y="-1293.8" font-family="Arial" font-size="14.00" fill="#000000"> </text>
<text text-anchor="start" x="1208.3104" y="-1293.8" font-family="Arial" font-size="14.00" fill="#666666">[BASE TABLE]</text>
<text text-anchor="start" x="1051.0601" y="-1279.4" font-family="Arial" font-size="14.00" fill="#333333">カテゴリ商品合計数情報</text>
<polygon fill="none" stroke="#000000" points="943.5,-1240 943.5,-1270 1308.5,-1270 1308.5,-1240 943.5,-1240"/>
<text text-anchor="start" x="950.5" y="-1251.4" font-family="Arial" font-size="14.00" fill="#000000">category_id </text>
<text text-anchor="start" x="1026.744" y="-1251.4" font-family="Arial" font-size="14.00" fill="#666666">[integer]</text>
<text text-anchor="start" x="1077.3134" y="-1251.4" font-family="Arial" font-size="14.00" fill="#000000"> カテゴリID</text>
<polygon fill="none" stroke="#000000" points="943.5,-1210 943.5,-1240 1308.5,-1240 1308.5,-1210 943.5,-1210"/>
<text text-anchor="start" x="950.5" y="-1221.4" font-family="Arial" font-size="14.00" fill="#000000">product_count </text>
<text text-anchor="start" x="1043.0932" y="-1221.4" font-family="Arial" font-size="14.00" fill="#666666">[integer]</text>
<text text-anchor="start" x="1093.6626" y="-1221.4" font-family="Arial" font-size="14.00" fill="#000000"> 商品合計数</text>
<polygon fill="none" stroke="#000000" points="943.5,-1180 943.5,-1210 1308.5,-1210 1308.5,-1180 943.5,-1180"/>
<text text-anchor="start" x="950.5" y="-1191.4" font-family="Arial" font-size="14.00" fill="#000000">create_date </text>
<text text-anchor="start" x="1028.3106" y="-1191.4" font-family="Arial" font-size="14.00" fill="#666666">[timestamp without time zone]</text>
<text text-anchor="start" x="1213.4508" y="-1191.4" font-family="Arial" font-size="14.00" fill="#000000"> 作成日時</text>
</g>
<!-- public.dtb_category_total_count&#45;&gt;public.dtb_category -->
<g id="edge4" class="edge">
<title>public.dtb_category_total_count:category_id&#45;&gt;public.dtb_category:category_id</title>
<path fill="none" stroke="#000000" stroke-dasharray="5,2" d="M933.2088,-1253.8972C896.0081,-1244.8776 926.366,-1182.4283 943.5,-1137 972.9503,-1058.9166 1038.0497,-1074.0834 1067.5,-996 1084.2823,-951.5041 1115.0556,-889 1067.5,-889"/>
<polygon fill="#000000" stroke="#000000" points="933.5569,-1253.9344 943.0205,-1259.4744 938.5285,-1254.4672 943.5,-1255 943.5,-1255 943.5,-1255 938.5285,-1254.4672 943.9795,-1250.5256 933.5569,-1253.9344 933.5569,-1253.9344"/>
<text text-anchor="start" x="853.8245" y="-1239" font-family="Arial" font-size="10.00" fill="#000000">Additional Relation</text>
</g>
<!-- public.dtb_best_products -->
<g id="node5" class="node">
<title>public.dtb_best_products</title>
<polygon fill="#efefef" stroke="transparent" points="1412.5,-1375 1412.5,-1421 1753.5,-1421 1753.5,-1375 1412.5,-1375"/>
<polygon fill="none" stroke="#000000" points="1412.5,-1375 1412.5,-1421 1753.5,-1421 1753.5,-1375 1412.5,-1375"/>
<text text-anchor="start" x="1434.3381" y="-1398.8" font-family="Arial Bold" font-size="18.00" fill="#000000">public.dtb_best_products</text>
<text text-anchor="start" x="1634.4081" y="-1398.8" font-family="Arial" font-size="14.00" fill="#000000"> </text>
<text text-anchor="start" x="1638.2987" y="-1398.8" font-family="Arial" font-size="14.00" fill="#666666">[BASE TABLE]</text>
<text text-anchor="start" x="1531.7908" y="-1384.4" font-family="Arial" font-size="14.00" fill="#333333">おすすめ商品情報</text>
<polygon fill="none" stroke="#000000" points="1412.5,-1345 1412.5,-1375 1753.5,-1375 1753.5,-1345 1412.5,-1345"/>
<text text-anchor="start" x="1419.5" y="-1356.4" font-family="Arial" font-size="14.00" fill="#000000">best_id </text>
<text text-anchor="start" x="1468.5182" y="-1356.4" font-family="Arial" font-size="14.00" fill="#666666">[integer]</text>
<text text-anchor="start" x="1519.0876" y="-1356.4" font-family="Arial" font-size="14.00" fill="#000000"> ベスト商品ID</text>
<polygon fill="none" stroke="#000000" points="1412.5,-1315 1412.5,-1345 1753.5,-1345 1753.5,-1315 1412.5,-1315"/>
<text text-anchor="start" x="1419.5" y="-1326.4" font-family="Arial" font-size="14.00" fill="#000000">category_id </text>
<text text-anchor="start" x="1495.744" y="-1326.4" font-family="Arial" font-size="14.00" fill="#666666">[integer]</text>
<text text-anchor="start" x="1546.3134" y="-1326.4" font-family="Arial" font-size="14.00" fill="#000000"> カテゴリID</text>
<polygon fill="none" stroke="#000000" points="1412.5,-1285 1412.5,-1315 1753.5,-1315 1753.5,-1285 1412.5,-1285"/>
<text text-anchor="start" x="1419.5" y="-1296.4" font-family="Arial" font-size="14.00" fill="#000000">rank </text>
<text text-anchor="start" x="1450.6164" y="-1296.4" font-family="Arial" font-size="14.00" fill="#666666">[integer]</text>
<text text-anchor="start" x="1501.1858" y="-1296.4" font-family="Arial" font-size="14.00" fill="#000000"> 表示順</text>
<polygon fill="none" stroke="#000000" points="1412.5,-1255 1412.5,-1285 1753.5,-1285 1753.5,-1255 1412.5,-1255"/>
<text text-anchor="start" x="1419.5" y="-1266.4" font-family="Arial" font-size="14.00" fill="#000000">product_id </text>
<text text-anchor="start" x="1488.744" y="-1266.4" font-family="Arial" font-size="14.00" fill="#666666">[integer]</text>
<text text-anchor="start" x="1539.3134" y="-1266.4" font-family="Arial" font-size="14.00" fill="#000000"> 商品ID</text>
<polygon fill="none" stroke="#000000" points="1412.5,-1225 1412.5,-1255 1753.5,-1255 1753.5,-1225 1412.5,-1225"/>
<text text-anchor="start" x="1419.5" y="-1236.4" font-family="Arial" font-size="14.00" fill="#000000">title </text>
<text text-anchor="start" x="1445.1676" y="-1236.4" font-family="Arial" font-size="14.00" fill="#666666">[text]</text>
<text text-anchor="start" x="1475.5126" y="-1236.4" font-family="Arial" font-size="14.00" fill="#000000"> タイトル</text>
<polygon fill="none" stroke="#000000" points="1412.5,-1195 1412.5,-1225 1753.5,-1225 1753.5,-1195 1412.5,-1195"/>
<text text-anchor="start" x="1419.5" y="-1206.4" font-family="Arial" font-size="14.00" fill="#000000">comment </text>
<text text-anchor="start" x="1480.9502" y="-1206.4" font-family="Arial" font-size="14.00" fill="#666666">[text]</text>
<text text-anchor="start" x="1511.2952" y="-1206.4" font-family="Arial" font-size="14.00" fill="#000000"> コメント</text>
<polygon fill="none" stroke="#000000" points="1412.5,-1165 1412.5,-1195 1753.5,-1195 1753.5,-1165 1412.5,-1165"/>
<text text-anchor="start" x="1419.5" y="-1176.4" font-family="Arial" font-size="14.00" fill="#000000">creator_id </text>
<text text-anchor="start" x="1485.622" y="-1176.4" font-family="Arial" font-size="14.00" fill="#666666">[integer]</text>
<text text-anchor="start" x="1536.1914" y="-1176.4" font-family="Arial" font-size="14.00" fill="#000000"> 作成者ID</text>
<polygon fill="none" stroke="#000000" points="1412.5,-1135 1412.5,-1165 1753.5,-1165 1753.5,-1135 1412.5,-1135"/>
<text text-anchor="start" x="1419.235" y="-1146.4" font-family="Arial" font-size="14.00" fill="#000000">create_date </text>
<text text-anchor="start" x="1497.0456" y="-1146.4" font-family="Arial" font-size="14.00" fill="#666666">[timestamp without time zone]</text>
<text text-anchor="start" x="1682.1858" y="-1146.4" font-family="Arial" font-size="14.00" fill="#000000"> 作成日時</text>
<polygon fill="none" stroke="#000000" points="1412.5,-1105 1412.5,-1135 1753.5,-1135 1753.5,-1105 1412.5,-1105"/>
<text text-anchor="start" x="1419.5" y="-1116.4" font-family="Arial" font-size="14.00" fill="#000000">update_date </text>
<text text-anchor="start" x="1501.2152" y="-1116.4" font-family="Arial" font-size="14.00" fill="#666666">[timestamp without time zone]</text>
<text text-anchor="start" x="1686.3554" y="-1116.4" font-family="Arial" font-size="14.00" fill="#000000"> 更新日時</text>
<polygon fill="none" stroke="#000000" points="1412.5,-1075 1412.5,-1105 1753.5,-1105 1753.5,-1075 1412.5,-1075"/>
<text text-anchor="start" x="1419.5" y="-1086.4" font-family="Arial" font-size="14.00" fill="#000000">del_flg </text>
<text text-anchor="start" x="1464.6248" y="-1086.4" font-family="Arial" font-size="14.00" fill="#666666">[smallint]</text>
<text text-anchor="start" x="1519.8422" y="-1086.4" font-family="Arial" font-size="14.00" fill="#000000"> 削除フラグ</text>
</g>
<!-- public.dtb_best_products&#45;&gt;public.dtb_category -->
<g id="edge5" class="edge">
<title>public.dtb_best_products:category_id&#45;&gt;public.dtb_category:category_id</title>
<path fill="none" stroke="#000000" stroke-dasharray="5,2" d="M1402.5377,-1327.8795C1351.0738,-1303.8526 1398.6916,-1082.7895 1360.5,-1032 1273.4125,-916.1859 1212.4039,-889 1067.5,-889"/>
<polygon fill="#000000" stroke="#000000" points="1402.7191,-1327.918 1411.5631,-1334.4014 1407.6096,-1328.959 1412.5,-1330 1412.5,-1330 1412.5,-1330 1407.6096,-1328.959 1413.4369,-1325.5986 1402.7191,-1327.918 1402.7191,-1327.918"/>
<text text-anchor="start" x="1322.8245" y="-1340" font-family="Arial" font-size="10.00" fill="#000000">Additional Relation</text>
</g>
</g>
</svg>
