<?xml version="1.0" encoding="UTF-8" standalone="no"?>
<!DOCTYPE svg PUBLIC "-//W3C//DTD SVG 1.1//EN"
 "http://www.w3.org/Graphics/SVG/1.1/DTD/svg11.dtd">
<!-- Generated by graphviz version 2.40.1 (20161225.0304)
 -->
<!-- Title: public.mtb_product_list_max Pages: 1 -->
<svg width="439pt" height="236pt"
 viewBox="0.00 0.00 439.00 236.00" xmlns="http://www.w3.org/2000/svg" xmlns:xlink="http://www.w3.org/1999/xlink">
<g id="graph0" class="graph" transform="scale(1 1) rotate(0) translate(4 232)">
<title>public.mtb_product_list_max</title>
<polygon fill="#ffffff" stroke="transparent" points="-4,4 -4,-232 435,-232 435,4 -4,4"/>
<!-- public.mtb_product_list_max -->
<g id="node1" class="node">
<title>public.mtb_product_list_max</title>
<polygon fill="#efefef" stroke="transparent" points="46.5,-136 46.5,-182 385.5,-182 385.5,-136 46.5,-136"/>
<polygon fill="none" stroke="#000000" points="46.5,-136 46.5,-182 385.5,-182 385.5,-136 46.5,-136"/>
<text text-anchor="start" x="53.3548" y="-159.8" font-family="Arial Bold" font-size="18.00" fill="#000000">public.mtb_product_list_max</text>
<text text-anchor="start" x="281.3914" y="-159.8" font-family="Arial" font-size="14.00" fill="#000000"> </text>
<text text-anchor="start" x="285.282" y="-159.8" font-family="Arial" font-size="14.00" fill="#666666">[BASE TABLE]</text>
<text text-anchor="start" x="152.9769" y="-145.4" font-family="Arial" font-size="14.00" fill="#333333">商品一覧最大表示数</text>
<polygon fill="none" stroke="#000000" points="46.5,-106 46.5,-136 385.5,-136 385.5,-106 46.5,-106"/>
<text text-anchor="start" x="53.5" y="-117.4" font-family="Arial" font-size="14.00" fill="#000000">id </text>
<text text-anchor="start" x="68.2798" y="-117.4" font-family="Arial" font-size="14.00" fill="#666666">[smallint]</text>
<text text-anchor="start" x="123.4972" y="-117.4" font-family="Arial" font-size="14.00" fill="#000000"> ID</text>
<polygon fill="none" stroke="#000000" points="46.5,-76 46.5,-106 385.5,-106 385.5,-76 46.5,-76"/>
<text text-anchor="start" x="53.5" y="-87.4" font-family="Arial" font-size="14.00" fill="#000000">name </text>
<text text-anchor="start" x="92.399" y="-87.4" font-family="Arial" font-size="14.00" fill="#666666">[text]</text>
<text text-anchor="start" x="122.744" y="-87.4" font-family="Arial" font-size="14.00" fill="#000000"> 名称</text>
<polygon fill="none" stroke="#000000" points="46.5,-46 46.5,-76 385.5,-76 385.5,-46 46.5,-46"/>
<text text-anchor="start" x="53.5" y="-57.4" font-family="Arial" font-size="14.00" fill="#000000">rank </text>
<text text-anchor="start" x="84.6164" y="-57.4" font-family="Arial" font-size="14.00" fill="#666666">[smallint]</text>
<text text-anchor="start" x="139.8338" y="-57.4" font-family="Arial" font-size="14.00" fill="#000000"> 表示順</text>
<polygon fill="none" stroke="#000000" stroke-width="3" points="44.5,-44.5 44.5,-183.5 386.5,-183.5 386.5,-44.5 44.5,-44.5"/>
</g>
</g>
</svg>
