<?xml version="1.0" encoding="UTF-8" standalone="no"?>
<!DOCTYPE svg PUBLIC "-//W3C//DTD SVG 1.1//EN"
 "http://www.w3.org/Graphics/SVG/1.1/DTD/svg11.dtd">
<!-- Generated by graphviz version 2.40.1 (20161225.0304)
 -->
<!-- Title: public.dtb_product_categories Pages: 1 -->
<svg width="880pt" height="1754pt"
 viewBox="0.00 0.00 880.00 1754.00" xmlns="http://www.w3.org/2000/svg" xmlns:xlink="http://www.w3.org/1999/xlink">
<g id="graph0" class="graph" transform="scale(1 1) rotate(0) translate(4 1750)">
<title>public.dtb_product_categories</title>
<polygon fill="#ffffff" stroke="transparent" points="-4,4 -4,-1750 876,-1750 876,4 -4,4"/>
<!-- public.dtb_product_categories -->
<g id="node1" class="node">
<title>public.dtb_product_categories</title>
<polygon fill="#efefef" stroke="transparent" points="260.5,-1654 260.5,-1700 611.5,-1700 611.5,-1654 260.5,-1654"/>
<polygon fill="none" stroke="#000000" points="260.5,-1654 260.5,-1700 611.5,-1700 611.5,-1654 260.5,-1654"/>
<text text-anchor="start" x="267.3356" y="-1677.8" font-family="Arial Bold" font-size="18.00" fill="#000000">public.dtb_product_categories</text>
<text text-anchor="start" x="507.4106" y="-1677.8" font-family="Arial" font-size="14.00" fill="#000000"> </text>
<text text-anchor="start" x="511.3012" y="-1677.8" font-family="Arial" font-size="14.00" fill="#666666">[BASE TABLE]</text>
<text text-anchor="start" x="373.5138" y="-1663.4" font-family="Arial" font-size="14.00" fill="#333333">商品カテゴリ関連</text>
<polygon fill="none" stroke="#000000" points="260.5,-1624 260.5,-1654 611.5,-1654 611.5,-1624 260.5,-1624"/>
<text text-anchor="start" x="267.5" y="-1635.4" font-family="Arial" font-size="14.00" fill="#000000">product_id </text>
<text text-anchor="start" x="336.744" y="-1635.4" font-family="Arial" font-size="14.00" fill="#666666">[integer]</text>
<text text-anchor="start" x="387.3134" y="-1635.4" font-family="Arial" font-size="14.00" fill="#000000"> 商品ID</text>
<polygon fill="none" stroke="#000000" points="260.5,-1594 260.5,-1624 611.5,-1624 611.5,-1594 260.5,-1594"/>
<text text-anchor="start" x="267.5" y="-1605.4" font-family="Arial" font-size="14.00" fill="#000000">category_id </text>
<text text-anchor="start" x="343.744" y="-1605.4" font-family="Arial" font-size="14.00" fill="#666666">[integer]</text>
<text text-anchor="start" x="394.3134" y="-1605.4" font-family="Arial" font-size="14.00" fill="#000000"> カテゴリID</text>
<polygon fill="none" stroke="#000000" points="260.5,-1564 260.5,-1594 611.5,-1594 611.5,-1564 260.5,-1564"/>
<text text-anchor="start" x="267.5" y="-1575.4" font-family="Arial" font-size="14.00" fill="#000000">rank </text>
<text text-anchor="start" x="298.6164" y="-1575.4" font-family="Arial" font-size="14.00" fill="#666666">[integer]</text>
<text text-anchor="start" x="349.1858" y="-1575.4" font-family="Arial" font-size="14.00" fill="#000000"> 表示順</text>
<polygon fill="none" stroke="#000000" stroke-width="3" points="258.5,-1562.5 258.5,-1701.5 612.5,-1701.5 612.5,-1562.5 258.5,-1562.5"/>
</g>
<!-- public.dtb_products -->
<g id="node2" class="node">
<title>public.dtb_products</title>
<polygon fill="#efefef" stroke="transparent" points="43.5,-1393 43.5,-1439 384.5,-1439 384.5,-1393 43.5,-1393"/>
<polygon fill="none" stroke="#000000" points="43.5,-1393 43.5,-1439 384.5,-1439 384.5,-1393 43.5,-1393"/>
<text text-anchor="start" x="87.3485" y="-1416.8" font-family="Arial Bold" font-size="18.00" fill="#000000">public.dtb_products</text>
<text text-anchor="start" x="243.3977" y="-1416.8" font-family="Arial" font-size="14.00" fill="#000000"> </text>
<text text-anchor="start" x="247.2883" y="-1416.8" font-family="Arial" font-size="14.00" fill="#666666">[BASE TABLE]</text>
<text text-anchor="start" x="188.7104" y="-1402.4" font-family="Arial" font-size="14.00" fill="#333333">商品情報</text>
<polygon fill="none" stroke="#000000" points="43.5,-1363 43.5,-1393 384.5,-1393 384.5,-1363 43.5,-1363"/>
<text text-anchor="start" x="50.5" y="-1374.4" font-family="Arial" font-size="14.00" fill="#000000">product_id </text>
<text text-anchor="start" x="119.744" y="-1374.4" font-family="Arial" font-size="14.00" fill="#666666">[integer]</text>
<text text-anchor="start" x="170.3134" y="-1374.4" font-family="Arial" font-size="14.00" fill="#000000"> 商品ID</text>
<polygon fill="none" stroke="#000000" points="43.5,-1333 43.5,-1363 384.5,-1363 384.5,-1333 43.5,-1333"/>
<text text-anchor="start" x="50.5" y="-1344.4" font-family="Arial" font-size="14.00" fill="#000000">name </text>
<text text-anchor="start" x="89.399" y="-1344.4" font-family="Arial" font-size="14.00" fill="#666666">[text]</text>
<text text-anchor="start" x="119.744" y="-1344.4" font-family="Arial" font-size="14.00" fill="#000000"> 商品名</text>
<polygon fill="none" stroke="#000000" points="43.5,-1303 43.5,-1333 384.5,-1333 384.5,-1303 43.5,-1303"/>
<text text-anchor="start" x="50.5" y="-1314.4" font-family="Arial" font-size="14.00" fill="#000000">maker_id </text>
<text text-anchor="start" x="111.9488" y="-1314.4" font-family="Arial" font-size="14.00" fill="#666666">[integer]</text>
<text text-anchor="start" x="162.5182" y="-1314.4" font-family="Arial" font-size="14.00" fill="#000000"> メーカーID</text>
<polygon fill="none" stroke="#000000" points="43.5,-1273 43.5,-1303 384.5,-1303 384.5,-1273 43.5,-1273"/>
<text text-anchor="start" x="50.5" y="-1284.4" font-family="Arial" font-size="14.00" fill="#000000">status </text>
<text text-anchor="start" x="91.737" y="-1284.4" font-family="Arial" font-size="14.00" fill="#666666">[smallint]</text>
<text text-anchor="start" x="146.9544" y="-1284.4" font-family="Arial" font-size="14.00" fill="#000000"> 表示ステータス</text>
<polygon fill="none" stroke="#000000" points="43.5,-1243 43.5,-1273 384.5,-1273 384.5,-1243 43.5,-1243"/>
<text text-anchor="start" x="50.5" y="-1254.4" font-family="Arial" font-size="14.00" fill="#000000">comment1 </text>
<text text-anchor="start" x="119.7328" y="-1254.4" font-family="Arial" font-size="14.00" fill="#666666">[text]</text>
<text text-anchor="start" x="150.0778" y="-1254.4" font-family="Arial" font-size="14.00" fill="#000000"> コメント1(メーカーURL)</text>
<polygon fill="none" stroke="#000000" points="43.5,-1213 43.5,-1243 384.5,-1243 384.5,-1213 43.5,-1213"/>
<text text-anchor="start" x="50.5" y="-1224.4" font-family="Arial" font-size="14.00" fill="#000000">comment2 </text>
<text text-anchor="start" x="119.7328" y="-1224.4" font-family="Arial" font-size="14.00" fill="#666666">[text]</text>
<text text-anchor="start" x="150.0778" y="-1224.4" font-family="Arial" font-size="14.00" fill="#000000"> コメント2</text>
<polygon fill="none" stroke="#000000" points="43.5,-1183 43.5,-1213 384.5,-1213 384.5,-1183 43.5,-1183"/>
<text text-anchor="start" x="50.5" y="-1194.4" font-family="Arial" font-size="14.00" fill="#000000">comment3 </text>
<text text-anchor="start" x="119.7328" y="-1194.4" font-family="Arial" font-size="14.00" fill="#666666">[text]</text>
<text text-anchor="start" x="150.0778" y="-1194.4" font-family="Arial" font-size="14.00" fill="#000000"> コメント3(検索ワード)</text>
<polygon fill="none" stroke="#000000" points="43.5,-1153 43.5,-1183 384.5,-1183 384.5,-1153 43.5,-1153"/>
<text text-anchor="start" x="50.5" y="-1164.4" font-family="Arial" font-size="14.00" fill="#000000">comment4 </text>
<text text-anchor="start" x="119.7328" y="-1164.4" font-family="Arial" font-size="14.00" fill="#666666">[text]</text>
<text text-anchor="start" x="150.0778" y="-1164.4" font-family="Arial" font-size="14.00" fill="#000000"> コメント4</text>
<polygon fill="none" stroke="#000000" points="43.5,-1123 43.5,-1153 384.5,-1153 384.5,-1123 43.5,-1123"/>
<text text-anchor="start" x="50.5" y="-1134.4" font-family="Arial" font-size="14.00" fill="#000000">comment5 </text>
<text text-anchor="start" x="119.7328" y="-1134.4" font-family="Arial" font-size="14.00" fill="#666666">[text]</text>
<text text-anchor="start" x="150.0778" y="-1134.4" font-family="Arial" font-size="14.00" fill="#000000"> コメント5</text>
<polygon fill="none" stroke="#000000" points="43.5,-1093 43.5,-1123 384.5,-1123 384.5,-1093 43.5,-1093"/>
<text text-anchor="start" x="50.5" y="-1104.4" font-family="Arial" font-size="14.00" fill="#000000">comment6 </text>
<text text-anchor="start" x="119.7328" y="-1104.4" font-family="Arial" font-size="14.00" fill="#666666">[text]</text>
<text text-anchor="start" x="150.0778" y="-1104.4" font-family="Arial" font-size="14.00" fill="#000000"> コメント6</text>
<polygon fill="none" stroke="#000000" points="43.5,-1063 43.5,-1093 384.5,-1093 384.5,-1063 43.5,-1063"/>
<text text-anchor="start" x="50.5" y="-1074.4" font-family="Arial" font-size="14.00" fill="#000000">note </text>
<text text-anchor="start" x="81.629" y="-1074.4" font-family="Arial" font-size="14.00" fill="#666666">[text]</text>
<text text-anchor="start" x="111.974" y="-1074.4" font-family="Arial" font-size="14.00" fill="#000000"> 備考</text>
<polygon fill="none" stroke="#000000" points="43.5,-1033 43.5,-1063 384.5,-1063 384.5,-1033 43.5,-1033"/>
<text text-anchor="start" x="50.5" y="-1044.4" font-family="Arial" font-size="14.00" fill="#000000">main_list_comment </text>
<text text-anchor="start" x="174.9516" y="-1044.4" font-family="Arial" font-size="14.00" fill="#666666">[text]</text>
<text text-anchor="start" x="205.2966" y="-1044.4" font-family="Arial" font-size="14.00" fill="#000000"> メイン一覧コメント</text>
<polygon fill="none" stroke="#000000" points="43.5,-1003 43.5,-1033 384.5,-1033 384.5,-1003 43.5,-1003"/>
<text text-anchor="start" x="50.5" y="-1014.4" font-family="Arial" font-size="14.00" fill="#000000">main_list_image </text>
<text text-anchor="start" x="155.507" y="-1014.4" font-family="Arial" font-size="14.00" fill="#666666">[text]</text>
<text text-anchor="start" x="185.852" y="-1014.4" font-family="Arial" font-size="14.00" fill="#000000"> メイン一覧画像</text>
<polygon fill="none" stroke="#000000" points="43.5,-973 43.5,-1003 384.5,-1003 384.5,-973 43.5,-973"/>
<text text-anchor="start" x="50.5" y="-984.4" font-family="Arial" font-size="14.00" fill="#000000">main_comment </text>
<text text-anchor="start" x="150.0652" y="-984.4" font-family="Arial" font-size="14.00" fill="#666666">[text]</text>
<text text-anchor="start" x="180.4102" y="-984.4" font-family="Arial" font-size="14.00" fill="#000000"> メインコメント</text>
<polygon fill="none" stroke="#000000" points="43.5,-943 43.5,-973 384.5,-973 384.5,-943 43.5,-943"/>
<text text-anchor="start" x="50.5" y="-954.4" font-family="Arial" font-size="14.00" fill="#000000">main_image </text>
<text text-anchor="start" x="130.6206" y="-954.4" font-family="Arial" font-size="14.00" fill="#666666">[text]</text>
<text text-anchor="start" x="160.9656" y="-954.4" font-family="Arial" font-size="14.00" fill="#000000"> メイン画像</text>
<polygon fill="none" stroke="#000000" points="43.5,-913 43.5,-943 384.5,-943 384.5,-913 43.5,-913"/>
<text text-anchor="start" x="50.5" y="-924.4" font-family="Arial" font-size="14.00" fill="#000000">main_large_image </text>
<text text-anchor="start" x="169.5182" y="-924.4" font-family="Arial" font-size="14.00" fill="#666666">[text]</text>
<text text-anchor="start" x="199.8632" y="-924.4" font-family="Arial" font-size="14.00" fill="#000000"> メイン拡大画像</text>
<polygon fill="none" stroke="#000000" points="43.5,-883 43.5,-913 384.5,-913 384.5,-883 43.5,-883"/>
<text text-anchor="start" x="50.5" y="-894.4" font-family="Arial" font-size="14.00" fill="#000000">sub_title1 </text>
<text text-anchor="start" x="114.298" y="-894.4" font-family="Arial" font-size="14.00" fill="#666666">[text]</text>
<text text-anchor="start" x="144.643" y="-894.4" font-family="Arial" font-size="14.00" fill="#000000"> サブタイトル1</text>
<polygon fill="none" stroke="#000000" points="43.5,-853 43.5,-883 384.5,-883 384.5,-853 43.5,-853"/>
<text text-anchor="start" x="50.5" y="-864.4" font-family="Arial" font-size="14.00" fill="#000000">sub_comment1 </text>
<text text-anchor="start" x="150.0806" y="-864.4" font-family="Arial" font-size="14.00" fill="#666666">[text]</text>
<text text-anchor="start" x="180.4256" y="-864.4" font-family="Arial" font-size="14.00" fill="#000000"> サブコメント1</text>
<polygon fill="none" stroke="#000000" points="43.5,-823 43.5,-853 384.5,-853 384.5,-823 43.5,-823"/>
<text text-anchor="start" x="50.5" y="-834.4" font-family="Arial" font-size="14.00" fill="#000000">sub_image1 </text>
<text text-anchor="start" x="130.636" y="-834.4" font-family="Arial" font-size="14.00" fill="#666666">[text]</text>
<text text-anchor="start" x="160.981" y="-834.4" font-family="Arial" font-size="14.00" fill="#000000"> サブ画像1</text>
<polygon fill="none" stroke="#000000" points="43.5,-793 43.5,-823 384.5,-823 384.5,-793 43.5,-793"/>
<text text-anchor="start" x="50.5" y="-804.4" font-family="Arial" font-size="14.00" fill="#000000">sub_large_image1 </text>
<text text-anchor="start" x="169.5336" y="-804.4" font-family="Arial" font-size="14.00" fill="#666666">[text]</text>
<text text-anchor="start" x="199.8786" y="-804.4" font-family="Arial" font-size="14.00" fill="#000000"> サブ拡大画像1</text>
<polygon fill="none" stroke="#000000" points="43.5,-763 43.5,-793 384.5,-793 384.5,-763 43.5,-763"/>
<text text-anchor="start" x="50.5" y="-774.4" font-family="Arial" font-size="14.00" fill="#000000">sub_title2 </text>
<text text-anchor="start" x="114.298" y="-774.4" font-family="Arial" font-size="14.00" fill="#666666">[text]</text>
<text text-anchor="start" x="144.643" y="-774.4" font-family="Arial" font-size="14.00" fill="#000000"> サブタイトル2</text>
<polygon fill="none" stroke="#000000" points="43.5,-733 43.5,-763 384.5,-763 384.5,-733 43.5,-733"/>
<text text-anchor="start" x="50.5" y="-744.4" font-family="Arial" font-size="14.00" fill="#000000">sub_comment2 </text>
<text text-anchor="start" x="150.0806" y="-744.4" font-family="Arial" font-size="14.00" fill="#666666">[text]</text>
<text text-anchor="start" x="180.4256" y="-744.4" font-family="Arial" font-size="14.00" fill="#000000"> サブコメント2</text>
<polygon fill="none" stroke="#000000" points="43.5,-703 43.5,-733 384.5,-733 384.5,-703 43.5,-703"/>
<text text-anchor="start" x="50.5" y="-714.4" font-family="Arial" font-size="14.00" fill="#000000">sub_image2 </text>
<text text-anchor="start" x="130.636" y="-714.4" font-family="Arial" font-size="14.00" fill="#666666">[text]</text>
<text text-anchor="start" x="160.981" y="-714.4" font-family="Arial" font-size="14.00" fill="#000000"> サブ画像2</text>
<polygon fill="none" stroke="#000000" points="43.5,-673 43.5,-703 384.5,-703 384.5,-673 43.5,-673"/>
<text text-anchor="start" x="50.5" y="-684.4" font-family="Arial" font-size="14.00" fill="#000000">sub_large_image2 </text>
<text text-anchor="start" x="169.5336" y="-684.4" font-family="Arial" font-size="14.00" fill="#666666">[text]</text>
<text text-anchor="start" x="199.8786" y="-684.4" font-family="Arial" font-size="14.00" fill="#000000"> サブ拡大画像2</text>
<polygon fill="none" stroke="#000000" points="43.5,-643 43.5,-673 384.5,-673 384.5,-643 43.5,-643"/>
<text text-anchor="start" x="50.5" y="-654.4" font-family="Arial" font-size="14.00" fill="#000000">sub_title3 </text>
<text text-anchor="start" x="114.298" y="-654.4" font-family="Arial" font-size="14.00" fill="#666666">[text]</text>
<text text-anchor="start" x="144.643" y="-654.4" font-family="Arial" font-size="14.00" fill="#000000"> サブタイトル3</text>
<polygon fill="none" stroke="#000000" points="43.5,-613 43.5,-643 384.5,-643 384.5,-613 43.5,-613"/>
<text text-anchor="start" x="50.5" y="-624.4" font-family="Arial" font-size="14.00" fill="#000000">sub_comment3 </text>
<text text-anchor="start" x="150.0806" y="-624.4" font-family="Arial" font-size="14.00" fill="#666666">[text]</text>
<text text-anchor="start" x="180.4256" y="-624.4" font-family="Arial" font-size="14.00" fill="#000000"> サブコメント3</text>
<polygon fill="none" stroke="#000000" points="43.5,-583 43.5,-613 384.5,-613 384.5,-583 43.5,-583"/>
<text text-anchor="start" x="50.5" y="-594.4" font-family="Arial" font-size="14.00" fill="#000000">sub_image3 </text>
<text text-anchor="start" x="130.636" y="-594.4" font-family="Arial" font-size="14.00" fill="#666666">[text]</text>
<text text-anchor="start" x="160.981" y="-594.4" font-family="Arial" font-size="14.00" fill="#000000"> サブ画像3</text>
<polygon fill="none" stroke="#000000" points="43.5,-553 43.5,-583 384.5,-583 384.5,-553 43.5,-553"/>
<text text-anchor="start" x="50.5" y="-564.4" font-family="Arial" font-size="14.00" fill="#000000">sub_large_image3 </text>
<text text-anchor="start" x="169.5336" y="-564.4" font-family="Arial" font-size="14.00" fill="#666666">[text]</text>
<text text-anchor="start" x="199.8786" y="-564.4" font-family="Arial" font-size="14.00" fill="#000000"> サブ拡大画像3</text>
<polygon fill="none" stroke="#000000" points="43.5,-523 43.5,-553 384.5,-553 384.5,-523 43.5,-523"/>
<text text-anchor="start" x="50.5" y="-534.4" font-family="Arial" font-size="14.00" fill="#000000">sub_title4 </text>
<text text-anchor="start" x="114.298" y="-534.4" font-family="Arial" font-size="14.00" fill="#666666">[text]</text>
<text text-anchor="start" x="144.643" y="-534.4" font-family="Arial" font-size="14.00" fill="#000000"> サブタイトル4</text>
<polygon fill="none" stroke="#000000" points="43.5,-493 43.5,-523 384.5,-523 384.5,-493 43.5,-493"/>
<text text-anchor="start" x="50.5" y="-504.4" font-family="Arial" font-size="14.00" fill="#000000">sub_comment4 </text>
<text text-anchor="start" x="150.0806" y="-504.4" font-family="Arial" font-size="14.00" fill="#666666">[text]</text>
<text text-anchor="start" x="180.4256" y="-504.4" font-family="Arial" font-size="14.00" fill="#000000"> サブコメント4</text>
<polygon fill="none" stroke="#000000" points="43.5,-463 43.5,-493 384.5,-493 384.5,-463 43.5,-463"/>
<text text-anchor="start" x="50.5" y="-474.4" font-family="Arial" font-size="14.00" fill="#000000">sub_image4 </text>
<text text-anchor="start" x="130.636" y="-474.4" font-family="Arial" font-size="14.00" fill="#666666">[text]</text>
<text text-anchor="start" x="160.981" y="-474.4" font-family="Arial" font-size="14.00" fill="#000000"> サブ画像4</text>
<polygon fill="none" stroke="#000000" points="43.5,-433 43.5,-463 384.5,-463 384.5,-433 43.5,-433"/>
<text text-anchor="start" x="50.5" y="-444.4" font-family="Arial" font-size="14.00" fill="#000000">sub_large_image4 </text>
<text text-anchor="start" x="169.5336" y="-444.4" font-family="Arial" font-size="14.00" fill="#666666">[text]</text>
<text text-anchor="start" x="199.8786" y="-444.4" font-family="Arial" font-size="14.00" fill="#000000"> サブ拡大画像4</text>
<polygon fill="none" stroke="#000000" points="43.5,-403 43.5,-433 384.5,-433 384.5,-403 43.5,-403"/>
<text text-anchor="start" x="50.5" y="-414.4" font-family="Arial" font-size="14.00" fill="#000000">sub_title5 </text>
<text text-anchor="start" x="114.298" y="-414.4" font-family="Arial" font-size="14.00" fill="#666666">[text]</text>
<text text-anchor="start" x="144.643" y="-414.4" font-family="Arial" font-size="14.00" fill="#000000"> サブタイトル5</text>
<polygon fill="none" stroke="#000000" points="43.5,-373 43.5,-403 384.5,-403 384.5,-373 43.5,-373"/>
<text text-anchor="start" x="50.5" y="-384.4" font-family="Arial" font-size="14.00" fill="#000000">sub_comment5 </text>
<text text-anchor="start" x="150.0806" y="-384.4" font-family="Arial" font-size="14.00" fill="#666666">[text]</text>
<text text-anchor="start" x="180.4256" y="-384.4" font-family="Arial" font-size="14.00" fill="#000000"> サブコメント5</text>
<polygon fill="none" stroke="#000000" points="43.5,-343 43.5,-373 384.5,-373 384.5,-343 43.5,-343"/>
<text text-anchor="start" x="50.5" y="-354.4" font-family="Arial" font-size="14.00" fill="#000000">sub_image5 </text>
<text text-anchor="start" x="130.636" y="-354.4" font-family="Arial" font-size="14.00" fill="#666666">[text]</text>
<text text-anchor="start" x="160.981" y="-354.4" font-family="Arial" font-size="14.00" fill="#000000"> サブ画像5</text>
<polygon fill="none" stroke="#000000" points="43.5,-313 43.5,-343 384.5,-343 384.5,-313 43.5,-313"/>
<text text-anchor="start" x="50.5" y="-324.4" font-family="Arial" font-size="14.00" fill="#000000">sub_large_image5 </text>
<text text-anchor="start" x="169.5336" y="-324.4" font-family="Arial" font-size="14.00" fill="#666666">[text]</text>
<text text-anchor="start" x="199.8786" y="-324.4" font-family="Arial" font-size="14.00" fill="#000000"> サブ拡大画像5</text>
<polygon fill="none" stroke="#000000" points="43.5,-283 43.5,-313 384.5,-313 384.5,-283 43.5,-283"/>
<text text-anchor="start" x="50.5" y="-294.4" font-family="Arial" font-size="14.00" fill="#000000">sub_title6 </text>
<text text-anchor="start" x="114.298" y="-294.4" font-family="Arial" font-size="14.00" fill="#666666">[text]</text>
<text text-anchor="start" x="144.643" y="-294.4" font-family="Arial" font-size="14.00" fill="#000000"> サブタイトル6</text>
<polygon fill="none" stroke="#000000" points="43.5,-253 43.5,-283 384.5,-283 384.5,-253 43.5,-253"/>
<text text-anchor="start" x="50.5" y="-264.4" font-family="Arial" font-size="14.00" fill="#000000">sub_comment6 </text>
<text text-anchor="start" x="150.0806" y="-264.4" font-family="Arial" font-size="14.00" fill="#666666">[text]</text>
<text text-anchor="start" x="180.4256" y="-264.4" font-family="Arial" font-size="14.00" fill="#000000"> サブコメント6</text>
<polygon fill="none" stroke="#000000" points="43.5,-223 43.5,-253 384.5,-253 384.5,-223 43.5,-223"/>
<text text-anchor="start" x="50.5" y="-234.4" font-family="Arial" font-size="14.00" fill="#000000">sub_image6 </text>
<text text-anchor="start" x="130.636" y="-234.4" font-family="Arial" font-size="14.00" fill="#666666">[text]</text>
<text text-anchor="start" x="160.981" y="-234.4" font-family="Arial" font-size="14.00" fill="#000000"> サブ画像6</text>
<polygon fill="none" stroke="#000000" points="43.5,-193 43.5,-223 384.5,-223 384.5,-193 43.5,-193"/>
<text text-anchor="start" x="50.5" y="-204.4" font-family="Arial" font-size="14.00" fill="#000000">sub_large_image6 </text>
<text text-anchor="start" x="169.5336" y="-204.4" font-family="Arial" font-size="14.00" fill="#666666">[text]</text>
<text text-anchor="start" x="199.8786" y="-204.4" font-family="Arial" font-size="14.00" fill="#000000"> サブ拡大画像6</text>
<polygon fill="none" stroke="#000000" points="43.5,-163 43.5,-193 384.5,-193 384.5,-163 43.5,-163"/>
<text text-anchor="start" x="50.5" y="-174.4" font-family="Arial" font-size="14.00" fill="#000000">del_flg </text>
<text text-anchor="start" x="95.6248" y="-174.4" font-family="Arial" font-size="14.00" fill="#666666">[smallint]</text>
<text text-anchor="start" x="150.8422" y="-174.4" font-family="Arial" font-size="14.00" fill="#000000"> 削除フラグ</text>
<polygon fill="none" stroke="#000000" points="43.5,-133 43.5,-163 384.5,-163 384.5,-133 43.5,-133"/>
<text text-anchor="start" x="50.5" y="-144.4" font-family="Arial" font-size="14.00" fill="#000000">creator_id </text>
<text text-anchor="start" x="116.622" y="-144.4" font-family="Arial" font-size="14.00" fill="#666666">[integer]</text>
<text text-anchor="start" x="167.1914" y="-144.4" font-family="Arial" font-size="14.00" fill="#000000"> 作成者ID</text>
<polygon fill="none" stroke="#000000" points="43.5,-103 43.5,-133 384.5,-133 384.5,-103 43.5,-103"/>
<text text-anchor="start" x="50.235" y="-114.4" font-family="Arial" font-size="14.00" fill="#000000">create_date </text>
<text text-anchor="start" x="128.0456" y="-114.4" font-family="Arial" font-size="14.00" fill="#666666">[timestamp without time zone]</text>
<text text-anchor="start" x="313.1858" y="-114.4" font-family="Arial" font-size="14.00" fill="#000000"> 作成日時</text>
<polygon fill="none" stroke="#000000" points="43.5,-73 43.5,-103 384.5,-103 384.5,-73 43.5,-73"/>
<text text-anchor="start" x="50.5" y="-84.4" font-family="Arial" font-size="14.00" fill="#000000">update_date </text>
<text text-anchor="start" x="132.2152" y="-84.4" font-family="Arial" font-size="14.00" fill="#666666">[timestamp without time zone]</text>
<text text-anchor="start" x="317.3554" y="-84.4" font-family="Arial" font-size="14.00" fill="#000000"> 更新日時</text>
<polygon fill="none" stroke="#000000" points="43.5,-43 43.5,-73 384.5,-73 384.5,-43 43.5,-43"/>
<text text-anchor="start" x="50.5" y="-54.4" font-family="Arial" font-size="14.00" fill="#000000">deliv_date_id </text>
<text text-anchor="start" x="136.8618" y="-54.4" font-family="Arial" font-size="14.00" fill="#666666">[integer]</text>
<text text-anchor="start" x="187.4312" y="-54.4" font-family="Arial" font-size="14.00" fill="#000000"> 発送日目安</text>
</g>
<!-- public.dtb_product_categories&#45;&gt;public.dtb_products -->
<g id="edge1" class="edge">
<title>public.dtb_product_categories:product_id&#45;&gt;public.dtb_products:product_id</title>
<path fill="none" stroke="#000000" stroke-dasharray="5,2" d="M250.5059,-1637.9426C209.7101,-1628.4998 230.4142,-1558.0626 260.5,-1518 294.9605,-1472.112 350.0395,-1527.888 384.5,-1482 412.2562,-1445.0394 430.7222,-1378 384.5,-1378"/>
<polygon fill="#000000" stroke="#000000" points="250.5555,-1637.9478 260.0265,-1643.475 255.5277,-1638.4739 260.5,-1639 260.5,-1639 260.5,-1639 255.5277,-1638.4739 260.9735,-1634.525 250.5555,-1637.9478 250.5555,-1637.9478"/>
<text text-anchor="start" x="170.8245" y="-1649" font-family="Arial" font-size="10.00" fill="#000000">Additional Relation</text>
</g>
<!-- public.dtb_category -->
<g id="node3" class="node">
<title>public.dtb_category</title>
<polygon fill="#efefef" stroke="transparent" points="488.5,-853 488.5,-899 829.5,-899 829.5,-853 488.5,-853"/>
<polygon fill="none" stroke="#000000" points="488.5,-853 488.5,-899 829.5,-899 829.5,-853 488.5,-853"/>
<text text-anchor="start" x="532.3485" y="-876.8" font-family="Arial Bold" font-size="18.00" fill="#000000">public.dtb_category</text>
<text text-anchor="start" x="688.3977" y="-876.8" font-family="Arial" font-size="14.00" fill="#000000"> </text>
<text text-anchor="start" x="692.2883" y="-876.8" font-family="Arial" font-size="14.00" fill="#666666">[BASE TABLE]</text>
<text text-anchor="start" x="617.1316" y="-862.4" font-family="Arial" font-size="14.00" fill="#333333">カテゴリ情報</text>
<polygon fill="none" stroke="#000000" points="488.5,-823 488.5,-853 829.5,-853 829.5,-823 488.5,-823"/>
<text text-anchor="start" x="495.5" y="-834.4" font-family="Arial" font-size="14.00" fill="#000000">category_id </text>
<text text-anchor="start" x="571.744" y="-834.4" font-family="Arial" font-size="14.00" fill="#666666">[integer]</text>
<text text-anchor="start" x="622.3134" y="-834.4" font-family="Arial" font-size="14.00" fill="#000000"> カテゴリID</text>
<polygon fill="none" stroke="#000000" points="488.5,-793 488.5,-823 829.5,-823 829.5,-793 488.5,-793"/>
<text text-anchor="start" x="495.5" y="-804.4" font-family="Arial" font-size="14.00" fill="#000000">category_name </text>
<text text-anchor="start" x="595.8632" y="-804.4" font-family="Arial" font-size="14.00" fill="#666666">[text]</text>
<text text-anchor="start" x="626.2082" y="-804.4" font-family="Arial" font-size="14.00" fill="#000000"> カテゴリ名</text>
<polygon fill="none" stroke="#000000" points="488.5,-763 488.5,-793 829.5,-793 829.5,-763 488.5,-763"/>
<text text-anchor="start" x="495.5" y="-774.4" font-family="Arial" font-size="14.00" fill="#000000">parent_category_id </text>
<text text-anchor="start" x="619.2082" y="-774.4" font-family="Arial" font-size="14.00" fill="#666666">[integer]</text>
<text text-anchor="start" x="669.7776" y="-774.4" font-family="Arial" font-size="14.00" fill="#000000"> 親カテゴリID</text>
<polygon fill="none" stroke="#000000" points="488.5,-733 488.5,-763 829.5,-763 829.5,-733 488.5,-733"/>
<text text-anchor="start" x="495.5" y="-744.4" font-family="Arial" font-size="14.00" fill="#000000">level </text>
<text text-anchor="start" x="528.169" y="-744.4" font-family="Arial" font-size="14.00" fill="#666666">[integer]</text>
<text text-anchor="start" x="578.7384" y="-744.4" font-family="Arial" font-size="14.00" fill="#000000"> 階層</text>
<polygon fill="none" stroke="#000000" points="488.5,-703 488.5,-733 829.5,-733 829.5,-703 488.5,-703"/>
<text text-anchor="start" x="495.5" y="-714.4" font-family="Arial" font-size="14.00" fill="#000000">rank </text>
<text text-anchor="start" x="526.6164" y="-714.4" font-family="Arial" font-size="14.00" fill="#666666">[integer]</text>
<text text-anchor="start" x="577.1858" y="-714.4" font-family="Arial" font-size="14.00" fill="#000000"> 表示順</text>
<polygon fill="none" stroke="#000000" points="488.5,-673 488.5,-703 829.5,-703 829.5,-673 488.5,-673"/>
<text text-anchor="start" x="495.5" y="-684.4" font-family="Arial" font-size="14.00" fill="#000000">creator_id </text>
<text text-anchor="start" x="561.622" y="-684.4" font-family="Arial" font-size="14.00" fill="#666666">[integer]</text>
<text text-anchor="start" x="612.1914" y="-684.4" font-family="Arial" font-size="14.00" fill="#000000"> 作成者ID</text>
<polygon fill="none" stroke="#000000" points="488.5,-643 488.5,-673 829.5,-673 829.5,-643 488.5,-643"/>
<text text-anchor="start" x="495.235" y="-654.4" font-family="Arial" font-size="14.00" fill="#000000">create_date </text>
<text text-anchor="start" x="573.0456" y="-654.4" font-family="Arial" font-size="14.00" fill="#666666">[timestamp without time zone]</text>
<text text-anchor="start" x="758.1858" y="-654.4" font-family="Arial" font-size="14.00" fill="#000000"> 作成日時</text>
<polygon fill="none" stroke="#000000" points="488.5,-613 488.5,-643 829.5,-643 829.5,-613 488.5,-613"/>
<text text-anchor="start" x="495.5" y="-624.4" font-family="Arial" font-size="14.00" fill="#000000">update_date </text>
<text text-anchor="start" x="577.2152" y="-624.4" font-family="Arial" font-size="14.00" fill="#666666">[timestamp without time zone]</text>
<text text-anchor="start" x="762.3554" y="-624.4" font-family="Arial" font-size="14.00" fill="#000000"> 更新日時</text>
<polygon fill="none" stroke="#000000" points="488.5,-583 488.5,-613 829.5,-613 829.5,-583 488.5,-583"/>
<text text-anchor="start" x="495.5" y="-594.4" font-family="Arial" font-size="14.00" fill="#000000">del_flg </text>
<text text-anchor="start" x="540.6248" y="-594.4" font-family="Arial" font-size="14.00" fill="#666666">[smallint]</text>
<text text-anchor="start" x="595.8422" y="-594.4" font-family="Arial" font-size="14.00" fill="#000000"> 削除フラグ</text>
</g>
<!-- public.dtb_product_categories&#45;&gt;public.dtb_category -->
<g id="edge2" class="edge">
<title>public.dtb_product_categories:category_id&#45;&gt;public.dtb_category:category_id</title>
<path fill="none" stroke="#000000" stroke-dasharray="5,2" d="M621.8043,-1607.9477C765.1016,-1576.227 318.7276,-838 488.5,-838"/>
<polygon fill="#000000" stroke="#000000" points="621.4483,-1607.9839 611.0428,-1604.5233 616.4741,-1608.492 611.5,-1609 611.5,-1609 611.5,-1609 616.4741,-1608.492 611.9572,-1613.4767 621.4483,-1607.9839 621.4483,-1607.9839"/>
<text text-anchor="start" x="618.8245" y="-1619" font-family="Arial" font-size="10.00" fill="#000000">Additional Relation</text>
</g>
</g>
</svg>
