<?xml version="1.0" encoding="UTF-8" standalone="no"?>
<!DOCTYPE svg PUBLIC "-//W3C//DTD SVG 1.1//EN"
 "http://www.w3.org/Graphics/SVG/1.1/DTD/svg11.dtd">
<!-- Generated by graphviz version 2.40.1 (20161225.0304)
 -->
<!-- Title: public.dtb_baseinfo Pages: 1 -->
<svg width="612pt" height="2126pt"
 viewBox="0.00 0.00 612.00 2126.00" xmlns="http://www.w3.org/2000/svg" xmlns:xlink="http://www.w3.org/1999/xlink">
<g id="graph0" class="graph" transform="scale(1 1) rotate(0) translate(4 2122)">
<title>public.dtb_baseinfo</title>
<polygon fill="#ffffff" stroke="transparent" points="-4,4 -4,-2122 608,-2122 608,4 -4,4"/>
<!-- public.dtb_baseinfo -->
<g id="node1" class="node">
<title>public.dtb_baseinfo</title>
<polygon fill="#efefef" stroke="transparent" points="46,-2026 46,-2072 558,-2072 558,-2026 46,-2026"/>
<polygon fill="none" stroke="#000000" points="46,-2026 46,-2072 558,-2072 558,-2026 46,-2026"/>
<text text-anchor="start" x="175.8444" y="-2049.8" font-family="Arial Bold" font-size="18.00" fill="#000000">public.dtb_baseinfo</text>
<text text-anchor="start" x="330.9018" y="-2049.8" font-family="Arial" font-size="14.00" fill="#000000"> </text>
<text text-anchor="start" x="334.7924" y="-2049.8" font-family="Arial" font-size="14.00" fill="#666666">[BASE TABLE]</text>
<text text-anchor="start" x="261.9376" y="-2035.4" font-family="Arial" font-size="14.00" fill="#333333">店舗基本情報</text>
<polygon fill="none" stroke="#000000" points="46,-1996 46,-2026 558,-2026 558,-1996 46,-1996"/>
<text text-anchor="start" x="53" y="-2007.4" font-family="Arial" font-size="14.00" fill="#000000">id </text>
<text text-anchor="start" x="67.7798" y="-2007.4" font-family="Arial" font-size="14.00" fill="#666666">[integer]</text>
<text text-anchor="start" x="118.3492" y="-2007.4" font-family="Arial" font-size="14.00" fill="#000000"> 店舗基本情報ID</text>
<polygon fill="none" stroke="#000000" points="46,-1966 46,-1996 558,-1996 558,-1966 46,-1966"/>
<text text-anchor="start" x="53" y="-1977.4" font-family="Arial" font-size="14.00" fill="#000000">company_name </text>
<text text-anchor="start" x="156.4726" y="-1977.4" font-family="Arial" font-size="14.00" fill="#666666">[text]</text>
<text text-anchor="start" x="186.8176" y="-1977.4" font-family="Arial" font-size="14.00" fill="#000000"> 会社名</text>
<polygon fill="none" stroke="#000000" points="46,-1936 46,-1966 558,-1966 558,-1936 46,-1936"/>
<text text-anchor="start" x="53" y="-1947.4" font-family="Arial" font-size="14.00" fill="#000000">company_kana </text>
<text text-anchor="start" x="151.812" y="-1947.4" font-family="Arial" font-size="14.00" fill="#666666">[text]</text>
<text text-anchor="start" x="182.157" y="-1947.4" font-family="Arial" font-size="14.00" fill="#000000"> 会社名(カナ)</text>
<polygon fill="none" stroke="#000000" points="46,-1906 46,-1936 558,-1936 558,-1906 46,-1906"/>
<text text-anchor="start" x="53" y="-1917.4" font-family="Arial" font-size="14.00" fill="#000000">zip01 </text>
<text text-anchor="start" x="90.345" y="-1917.4" font-family="Arial" font-size="14.00" fill="#666666">[text]</text>
<text text-anchor="start" x="120.69" y="-1917.4" font-family="Arial" font-size="14.00" fill="#000000"> 郵便番号(4桁)</text>
<polygon fill="none" stroke="#000000" points="46,-1876 46,-1906 558,-1906 558,-1876 46,-1876"/>
<text text-anchor="start" x="53" y="-1887.4" font-family="Arial" font-size="14.00" fill="#000000">zip02 </text>
<text text-anchor="start" x="90.345" y="-1887.4" font-family="Arial" font-size="14.00" fill="#666666">[text]</text>
<text text-anchor="start" x="120.69" y="-1887.4" font-family="Arial" font-size="14.00" fill="#000000"> 郵便番号(3桁)</text>
<polygon fill="none" stroke="#000000" points="46,-1846 46,-1876 558,-1876 558,-1846 46,-1846"/>
<text text-anchor="start" x="53" y="-1857.4" font-family="Arial" font-size="14.00" fill="#000000">zipcode </text>
<text text-anchor="start" x="105.1276" y="-1857.4" font-family="Arial" font-size="14.00" fill="#666666">[text]</text>
<text text-anchor="start" x="135.4726" y="-1857.4" font-family="Arial" font-size="14.00" fill="#000000"> 【2.13】郵便番号(海外対応)</text>
<polygon fill="none" stroke="#000000" points="46,-1816 46,-1846 558,-1846 558,-1816 46,-1816"/>
<text text-anchor="start" x="53" y="-1827.4" font-family="Arial" font-size="14.00" fill="#000000">country_id </text>
<text text-anchor="start" x="121.4614" y="-1827.4" font-family="Arial" font-size="14.00" fill="#666666">[integer]</text>
<text text-anchor="start" x="172.0308" y="-1827.4" font-family="Arial" font-size="14.00" fill="#000000"> 【2.13】国ID</text>
<polygon fill="none" stroke="#000000" points="46,-1786 46,-1816 558,-1816 558,-1786 46,-1786"/>
<text text-anchor="start" x="53" y="-1797.4" font-family="Arial" font-size="14.00" fill="#000000">pref </text>
<text text-anchor="start" x="81.007" y="-1797.4" font-family="Arial" font-size="14.00" fill="#666666">[smallint]</text>
<text text-anchor="start" x="136.2244" y="-1797.4" font-family="Arial" font-size="14.00" fill="#000000"> 都道府県</text>
<polygon fill="none" stroke="#000000" points="46,-1756 46,-1786 558,-1786 558,-1756 46,-1756"/>
<text text-anchor="start" x="53" y="-1767.4" font-family="Arial" font-size="14.00" fill="#000000">addr01 </text>
<text text-anchor="start" x="100.4642" y="-1767.4" font-family="Arial" font-size="14.00" fill="#666666">[text]</text>
<text text-anchor="start" x="130.8092" y="-1767.4" font-family="Arial" font-size="14.00" fill="#000000"> 住所1</text>
<polygon fill="none" stroke="#000000" points="46,-1726 46,-1756 558,-1756 558,-1726 46,-1726"/>
<text text-anchor="start" x="53" y="-1737.4" font-family="Arial" font-size="14.00" fill="#000000">addr02 </text>
<text text-anchor="start" x="100.4642" y="-1737.4" font-family="Arial" font-size="14.00" fill="#666666">[text]</text>
<text text-anchor="start" x="130.8092" y="-1737.4" font-family="Arial" font-size="14.00" fill="#000000"> 住所2</text>
<polygon fill="none" stroke="#000000" points="46,-1696 46,-1726 558,-1726 558,-1696 46,-1696"/>
<text text-anchor="start" x="53" y="-1707.4" font-family="Arial" font-size="14.00" fill="#000000">tel01 </text>
<text text-anchor="start" x="87.2356" y="-1707.4" font-family="Arial" font-size="14.00" fill="#666666">[text]</text>
<text text-anchor="start" x="117.5806" y="-1707.4" font-family="Arial" font-size="14.00" fill="#000000"> 電話番号(市外局番)</text>
<polygon fill="none" stroke="#000000" points="46,-1666 46,-1696 558,-1696 558,-1666 46,-1666"/>
<text text-anchor="start" x="53" y="-1677.4" font-family="Arial" font-size="14.00" fill="#000000">tel02 </text>
<text text-anchor="start" x="87.2356" y="-1677.4" font-family="Arial" font-size="14.00" fill="#666666">[text]</text>
<text text-anchor="start" x="117.5806" y="-1677.4" font-family="Arial" font-size="14.00" fill="#000000"> 電話番号(市内局番)</text>
<polygon fill="none" stroke="#000000" points="46,-1636 46,-1666 558,-1666 558,-1636 46,-1636"/>
<text text-anchor="start" x="53" y="-1647.4" font-family="Arial" font-size="14.00" fill="#000000">tel03 </text>
<text text-anchor="start" x="87.2356" y="-1647.4" font-family="Arial" font-size="14.00" fill="#666666">[text]</text>
<text text-anchor="start" x="117.5806" y="-1647.4" font-family="Arial" font-size="14.00" fill="#000000"> 電話番号(局番)</text>
<polygon fill="none" stroke="#000000" points="46,-1606 46,-1636 558,-1636 558,-1606 46,-1606"/>
<text text-anchor="start" x="53" y="-1617.4" font-family="Arial" font-size="14.00" fill="#000000">fax01 </text>
<text text-anchor="start" x="91.129" y="-1617.4" font-family="Arial" font-size="14.00" fill="#666666">[text]</text>
<text text-anchor="start" x="121.474" y="-1617.4" font-family="Arial" font-size="14.00" fill="#000000"> FAX番号(市外局番)</text>
<polygon fill="none" stroke="#000000" points="46,-1576 46,-1606 558,-1606 558,-1576 46,-1576"/>
<text text-anchor="start" x="53" y="-1587.4" font-family="Arial" font-size="14.00" fill="#000000">fax02 </text>
<text text-anchor="start" x="91.129" y="-1587.4" font-family="Arial" font-size="14.00" fill="#666666">[text]</text>
<text text-anchor="start" x="121.474" y="-1587.4" font-family="Arial" font-size="14.00" fill="#000000"> FAX番号(市内局番)</text>
<polygon fill="none" stroke="#000000" points="46,-1546 46,-1576 558,-1576 558,-1546 46,-1546"/>
<text text-anchor="start" x="53" y="-1557.4" font-family="Arial" font-size="14.00" fill="#000000">fax03 </text>
<text text-anchor="start" x="91.129" y="-1557.4" font-family="Arial" font-size="14.00" fill="#666666">[text]</text>
<text text-anchor="start" x="121.474" y="-1557.4" font-family="Arial" font-size="14.00" fill="#000000"> FAX番号(局番)</text>
<polygon fill="none" stroke="#000000" points="46,-1516 46,-1546 558,-1546 558,-1516 46,-1516"/>
<text text-anchor="start" x="53" y="-1527.4" font-family="Arial" font-size="14.00" fill="#000000">business_hour </text>
<text text-anchor="start" x="147.9186" y="-1527.4" font-family="Arial" font-size="14.00" fill="#666666">[text]</text>
<text text-anchor="start" x="178.2636" y="-1527.4" font-family="Arial" font-size="14.00" fill="#000000"> 営業時間</text>
<polygon fill="none" stroke="#000000" points="46,-1486 46,-1516 558,-1516 558,-1486 46,-1486"/>
<text text-anchor="start" x="53" y="-1497.4" font-family="Arial" font-size="14.00" fill="#000000">law_company </text>
<text text-anchor="start" x="142.46" y="-1497.4" font-family="Arial" font-size="14.00" fill="#666666">[text]</text>
<text text-anchor="start" x="172.805" y="-1497.4" font-family="Arial" font-size="14.00" fill="#000000"> 販売業者(特定商取引)</text>
<polygon fill="none" stroke="#000000" points="46,-1456 46,-1486 558,-1486 558,-1456 46,-1456"/>
<text text-anchor="start" x="53" y="-1467.4" font-family="Arial" font-size="14.00" fill="#000000">law_manager </text>
<text text-anchor="start" x="140.9032" y="-1467.4" font-family="Arial" font-size="14.00" fill="#666666">[text]</text>
<text text-anchor="start" x="171.2482" y="-1467.4" font-family="Arial" font-size="14.00" fill="#000000"> 販売責任者(特定商取引)</text>
<polygon fill="none" stroke="#000000" points="46,-1426 46,-1456 558,-1456 558,-1426 46,-1426"/>
<text text-anchor="start" x="53" y="-1437.4" font-family="Arial" font-size="14.00" fill="#000000">law_zip01 </text>
<text text-anchor="start" x="119.1234" y="-1437.4" font-family="Arial" font-size="14.00" fill="#666666">[text]</text>
<text text-anchor="start" x="149.4684" y="-1437.4" font-family="Arial" font-size="14.00" fill="#000000"> 郵便番号4桁(特定商取引)</text>
<polygon fill="none" stroke="#000000" points="46,-1396 46,-1426 558,-1426 558,-1396 46,-1396"/>
<text text-anchor="start" x="53" y="-1407.4" font-family="Arial" font-size="14.00" fill="#000000">law_zip02 </text>
<text text-anchor="start" x="119.1234" y="-1407.4" font-family="Arial" font-size="14.00" fill="#666666">[text]</text>
<text text-anchor="start" x="149.4684" y="-1407.4" font-family="Arial" font-size="14.00" fill="#000000"> 郵便番号3桁(特定商取引)</text>
<polygon fill="none" stroke="#000000" points="46,-1366 46,-1396 558,-1396 558,-1366 46,-1366"/>
<text text-anchor="start" x="53" y="-1377.4" font-family="Arial" font-size="14.00" fill="#000000">law_zipcode </text>
<text text-anchor="start" x="133.906" y="-1377.4" font-family="Arial" font-size="14.00" fill="#666666">[text]</text>
<text text-anchor="start" x="164.251" y="-1377.4" font-family="Arial" font-size="14.00" fill="#000000"> 【2.13】郵便番号(海外対応)(特定商取引)</text>
<polygon fill="none" stroke="#000000" points="46,-1336 46,-1366 558,-1366 558,-1336 46,-1336"/>
<text text-anchor="start" x="53" y="-1347.4" font-family="Arial" font-size="14.00" fill="#000000">law_country_id </text>
<text text-anchor="start" x="150.2398" y="-1347.4" font-family="Arial" font-size="14.00" fill="#666666">[integer]</text>
<text text-anchor="start" x="200.8092" y="-1347.4" font-family="Arial" font-size="14.00" fill="#000000"> 【2.13】国ID(特定商取引)</text>
<polygon fill="none" stroke="#000000" points="46,-1306 46,-1336 558,-1336 558,-1306 46,-1306"/>
<text text-anchor="start" x="53" y="-1317.4" font-family="Arial" font-size="14.00" fill="#000000">law_pref </text>
<text text-anchor="start" x="109.7854" y="-1317.4" font-family="Arial" font-size="14.00" fill="#666666">[smallint]</text>
<text text-anchor="start" x="165.0028" y="-1317.4" font-family="Arial" font-size="14.00" fill="#000000"> 都道府県(特定商取引)</text>
<polygon fill="none" stroke="#000000" points="46,-1276 46,-1306 558,-1306 558,-1276 46,-1276"/>
<text text-anchor="start" x="53" y="-1287.4" font-family="Arial" font-size="14.00" fill="#000000">law_addr01 </text>
<text text-anchor="start" x="129.2426" y="-1287.4" font-family="Arial" font-size="14.00" fill="#666666">[text]</text>
<text text-anchor="start" x="159.5876" y="-1287.4" font-family="Arial" font-size="14.00" fill="#000000"> 住所1(特定商取引)</text>
<polygon fill="none" stroke="#000000" points="46,-1246 46,-1276 558,-1276 558,-1246 46,-1246"/>
<text text-anchor="start" x="53" y="-1257.4" font-family="Arial" font-size="14.00" fill="#000000">law_addr02 </text>
<text text-anchor="start" x="129.2426" y="-1257.4" font-family="Arial" font-size="14.00" fill="#666666">[text]</text>
<text text-anchor="start" x="159.5876" y="-1257.4" font-family="Arial" font-size="14.00" fill="#000000"> 住所2(特定商取引)</text>
<polygon fill="none" stroke="#000000" points="46,-1216 46,-1246 558,-1246 558,-1216 46,-1216"/>
<text text-anchor="start" x="53" y="-1227.4" font-family="Arial" font-size="14.00" fill="#000000">law_tel01 </text>
<text text-anchor="start" x="116.014" y="-1227.4" font-family="Arial" font-size="14.00" fill="#666666">[text]</text>
<text text-anchor="start" x="146.359" y="-1227.4" font-family="Arial" font-size="14.00" fill="#000000"> 電話番号(市外局番)(特定商取引)</text>
<polygon fill="none" stroke="#000000" points="46,-1186 46,-1216 558,-1216 558,-1186 46,-1186"/>
<text text-anchor="start" x="53" y="-1197.4" font-family="Arial" font-size="14.00" fill="#000000">law_tel02 </text>
<text text-anchor="start" x="116.014" y="-1197.4" font-family="Arial" font-size="14.00" fill="#666666">[text]</text>
<text text-anchor="start" x="146.359" y="-1197.4" font-family="Arial" font-size="14.00" fill="#000000"> 電話番号(市内局番)(特定商取引)</text>
<polygon fill="none" stroke="#000000" points="46,-1156 46,-1186 558,-1186 558,-1156 46,-1156"/>
<text text-anchor="start" x="53" y="-1167.4" font-family="Arial" font-size="14.00" fill="#000000">law_tel03 </text>
<text text-anchor="start" x="116.014" y="-1167.4" font-family="Arial" font-size="14.00" fill="#666666">[text]</text>
<text text-anchor="start" x="146.359" y="-1167.4" font-family="Arial" font-size="14.00" fill="#000000"> 電話番号(局番)(特定商取引)</text>
<polygon fill="none" stroke="#000000" points="46,-1126 46,-1156 558,-1156 558,-1126 46,-1126"/>
<text text-anchor="start" x="53" y="-1137.4" font-family="Arial" font-size="14.00" fill="#000000">law_fax01 </text>
<text text-anchor="start" x="119.9074" y="-1137.4" font-family="Arial" font-size="14.00" fill="#666666">[text]</text>
<text text-anchor="start" x="150.2524" y="-1137.4" font-family="Arial" font-size="14.00" fill="#000000"> FAX番号(市外局番)(特定商取引)</text>
<polygon fill="none" stroke="#000000" points="46,-1096 46,-1126 558,-1126 558,-1096 46,-1096"/>
<text text-anchor="start" x="53" y="-1107.4" font-family="Arial" font-size="14.00" fill="#000000">law_fax02 </text>
<text text-anchor="start" x="119.9074" y="-1107.4" font-family="Arial" font-size="14.00" fill="#666666">[text]</text>
<text text-anchor="start" x="150.2524" y="-1107.4" font-family="Arial" font-size="14.00" fill="#000000"> FAX番号(市内局番)(特定商取引)</text>
<polygon fill="none" stroke="#000000" points="46,-1066 46,-1096 558,-1096 558,-1066 46,-1066"/>
<text text-anchor="start" x="53" y="-1077.4" font-family="Arial" font-size="14.00" fill="#000000">law_fax03 </text>
<text text-anchor="start" x="119.9074" y="-1077.4" font-family="Arial" font-size="14.00" fill="#666666">[text]</text>
<text text-anchor="start" x="150.2524" y="-1077.4" font-family="Arial" font-size="14.00" fill="#000000"> FAX番号(局番)(特定商取引)</text>
<polygon fill="none" stroke="#000000" points="46,-1036 46,-1066 558,-1066 558,-1036 46,-1036"/>
<text text-anchor="start" x="53" y="-1047.4" font-family="Arial" font-size="14.00" fill="#000000">law_email </text>
<text text-anchor="start" x="119.108" y="-1047.4" font-family="Arial" font-size="14.00" fill="#666666">[text]</text>
<text text-anchor="start" x="149.453" y="-1047.4" font-family="Arial" font-size="14.00" fill="#000000"> メールアドレス(特定商取引)</text>
<polygon fill="none" stroke="#000000" points="46,-1006 46,-1036 558,-1036 558,-1006 46,-1006"/>
<text text-anchor="start" x="53" y="-1017.4" font-family="Arial" font-size="14.00" fill="#000000">law_url </text>
<text text-anchor="start" x="101.2188" y="-1017.4" font-family="Arial" font-size="14.00" fill="#666666">[text]</text>
<text text-anchor="start" x="131.5638" y="-1017.4" font-family="Arial" font-size="14.00" fill="#000000"> URL(特定商取引)</text>
<polygon fill="none" stroke="#000000" points="46,-976 46,-1006 558,-1006 558,-976 46,-976"/>
<text text-anchor="start" x="53" y="-987.4" font-family="Arial" font-size="14.00" fill="#000000">law_term01 </text>
<text text-anchor="start" x="129.2286" y="-987.4" font-family="Arial" font-size="14.00" fill="#666666">[text]</text>
<text text-anchor="start" x="159.5736" y="-987.4" font-family="Arial" font-size="14.00" fill="#000000"> 商品代金以外の必要料金(特定商取引)</text>
<polygon fill="none" stroke="#000000" points="46,-946 46,-976 558,-976 558,-946 46,-946"/>
<text text-anchor="start" x="53" y="-957.4" font-family="Arial" font-size="14.00" fill="#000000">law_term02 </text>
<text text-anchor="start" x="129.2286" y="-957.4" font-family="Arial" font-size="14.00" fill="#666666">[text]</text>
<text text-anchor="start" x="159.5736" y="-957.4" font-family="Arial" font-size="14.00" fill="#000000"> 注文方法(特定商取引)</text>
<polygon fill="none" stroke="#000000" points="46,-916 46,-946 558,-946 558,-916 46,-916"/>
<text text-anchor="start" x="53" y="-927.4" font-family="Arial" font-size="14.00" fill="#000000">law_term03 </text>
<text text-anchor="start" x="129.2286" y="-927.4" font-family="Arial" font-size="14.00" fill="#666666">[text]</text>
<text text-anchor="start" x="159.5736" y="-927.4" font-family="Arial" font-size="14.00" fill="#000000"> 支払方法(特定商取引)</text>
<polygon fill="none" stroke="#000000" points="46,-886 46,-916 558,-916 558,-886 46,-886"/>
<text text-anchor="start" x="53" y="-897.4" font-family="Arial" font-size="14.00" fill="#000000">law_term04 </text>
<text text-anchor="start" x="129.2286" y="-897.4" font-family="Arial" font-size="14.00" fill="#666666">[text]</text>
<text text-anchor="start" x="159.5736" y="-897.4" font-family="Arial" font-size="14.00" fill="#000000"> 支払期限(特定商取引)</text>
<polygon fill="none" stroke="#000000" points="46,-856 46,-886 558,-886 558,-856 46,-856"/>
<text text-anchor="start" x="53" y="-867.4" font-family="Arial" font-size="14.00" fill="#000000">law_term05 </text>
<text text-anchor="start" x="129.2286" y="-867.4" font-family="Arial" font-size="14.00" fill="#666666">[text]</text>
<text text-anchor="start" x="159.5736" y="-867.4" font-family="Arial" font-size="14.00" fill="#000000"> 引き渡し時期(特定商取引)</text>
<polygon fill="none" stroke="#000000" points="46,-826 46,-856 558,-856 558,-826 46,-826"/>
<text text-anchor="start" x="53" y="-837.4" font-family="Arial" font-size="14.00" fill="#000000">law_term06 </text>
<text text-anchor="start" x="129.2286" y="-837.4" font-family="Arial" font-size="14.00" fill="#666666">[text]</text>
<text text-anchor="start" x="159.5736" y="-837.4" font-family="Arial" font-size="14.00" fill="#000000"> 返品・交換について(特定商取引)</text>
<polygon fill="none" stroke="#000000" points="46,-796 46,-826 558,-826 558,-796 46,-796"/>
<text text-anchor="start" x="53" y="-807.4" font-family="Arial" font-size="14.00" fill="#000000">law_term07 </text>
<text text-anchor="start" x="129.2286" y="-807.4" font-family="Arial" font-size="14.00" fill="#666666">[text]</text>
<text text-anchor="start" x="159.5736" y="-807.4" font-family="Arial" font-size="14.00" fill="#000000"> 予備1(特定商取引)</text>
<polygon fill="none" stroke="#000000" points="46,-766 46,-796 558,-796 558,-766 46,-766"/>
<text text-anchor="start" x="53" y="-777.4" font-family="Arial" font-size="14.00" fill="#000000">law_term08 </text>
<text text-anchor="start" x="129.2286" y="-777.4" font-family="Arial" font-size="14.00" fill="#666666">[text]</text>
<text text-anchor="start" x="159.5736" y="-777.4" font-family="Arial" font-size="14.00" fill="#000000"> 予備2(特定商取引)</text>
<polygon fill="none" stroke="#000000" points="46,-736 46,-766 558,-766 558,-736 46,-736"/>
<text text-anchor="start" x="53" y="-747.4" font-family="Arial" font-size="14.00" fill="#000000">law_term09 </text>
<text text-anchor="start" x="129.2286" y="-747.4" font-family="Arial" font-size="14.00" fill="#666666">[text]</text>
<text text-anchor="start" x="159.5736" y="-747.4" font-family="Arial" font-size="14.00" fill="#000000"> 予備3(特定商取引)</text>
<polygon fill="none" stroke="#000000" points="46,-706 46,-736 558,-736 558,-706 46,-706"/>
<text text-anchor="start" x="53" y="-717.4" font-family="Arial" font-size="14.00" fill="#000000">law_term10 </text>
<text text-anchor="start" x="129.2286" y="-717.4" font-family="Arial" font-size="14.00" fill="#666666">[text]</text>
<text text-anchor="start" x="159.5736" y="-717.4" font-family="Arial" font-size="14.00" fill="#000000"> 予備4(特定商取引)</text>
<polygon fill="none" stroke="#000000" points="46,-676 46,-706 558,-706 558,-676 46,-676"/>
<text text-anchor="start" x="53" y="-687.4" font-family="Arial" font-size="14.00" fill="#000000">email01 </text>
<text text-anchor="start" x="105.8948" y="-687.4" font-family="Arial" font-size="14.00" fill="#666666">[text]</text>
<text text-anchor="start" x="136.2398" y="-687.4" font-family="Arial" font-size="14.00" fill="#000000"> 受注情報受付メールアドレス</text>
<polygon fill="none" stroke="#000000" points="46,-646 46,-676 558,-676 558,-646 46,-646"/>
<text text-anchor="start" x="53" y="-657.4" font-family="Arial" font-size="14.00" fill="#000000">email02 </text>
<text text-anchor="start" x="105.8948" y="-657.4" font-family="Arial" font-size="14.00" fill="#666666">[text]</text>
<text text-anchor="start" x="136.2398" y="-657.4" font-family="Arial" font-size="14.00" fill="#000000"> 問い合わせ受付メールアドレス</text>
<polygon fill="none" stroke="#000000" points="46,-616 46,-646 558,-646 558,-616 46,-616"/>
<text text-anchor="start" x="53" y="-627.4" font-family="Arial" font-size="14.00" fill="#000000">email03 </text>
<text text-anchor="start" x="105.8948" y="-627.4" font-family="Arial" font-size="14.00" fill="#666666">[text]</text>
<text text-anchor="start" x="136.2398" y="-627.4" font-family="Arial" font-size="14.00" fill="#000000"> 送信エラー受付メールアドレス</text>
<polygon fill="none" stroke="#000000" points="46,-586 46,-616 558,-616 558,-586 46,-586"/>
<text text-anchor="start" x="53" y="-597.4" font-family="Arial" font-size="14.00" fill="#000000">email04 </text>
<text text-anchor="start" x="105.8948" y="-597.4" font-family="Arial" font-size="14.00" fill="#666666">[text]</text>
<text text-anchor="start" x="136.2398" y="-597.4" font-family="Arial" font-size="14.00" fill="#000000"> メール送信元メールアドレス</text>
<polygon fill="none" stroke="#000000" points="46,-556 46,-586 558,-586 558,-556 46,-556"/>
<text text-anchor="start" x="53" y="-567.4" font-family="Arial" font-size="14.00" fill="#000000">free_rule </text>
<text text-anchor="start" x="112.122" y="-567.4" font-family="Arial" font-size="14.00" fill="#666666">[numeric]</text>
<text text-anchor="start" x="169.6788" y="-567.4" font-family="Arial" font-size="14.00" fill="#000000"> 送料・手数料無料条件(円以上)</text>
<polygon fill="none" stroke="#000000" points="46,-526 46,-556 558,-556 558,-526 46,-526"/>
<text text-anchor="start" x="53" y="-537.4" font-family="Arial" font-size="14.00" fill="#000000">shop_name </text>
<text text-anchor="start" x="130.0294" y="-537.4" font-family="Arial" font-size="14.00" fill="#666666">[text]</text>
<text text-anchor="start" x="160.3744" y="-537.4" font-family="Arial" font-size="14.00" fill="#000000"> 店舗名</text>
<polygon fill="none" stroke="#000000" points="46,-496 46,-526 558,-526 558,-496 46,-496"/>
<text text-anchor="start" x="53" y="-507.4" font-family="Arial" font-size="14.00" fill="#000000">shop_kana </text>
<text text-anchor="start" x="125.3688" y="-507.4" font-family="Arial" font-size="14.00" fill="#666666">[text]</text>
<text text-anchor="start" x="155.7138" y="-507.4" font-family="Arial" font-size="14.00" fill="#000000"> 店舗名(カナ)</text>
<polygon fill="none" stroke="#000000" points="46,-466 46,-496 558,-496 558,-466 46,-466"/>
<text text-anchor="start" x="53" y="-477.4" font-family="Arial" font-size="14.00" fill="#000000">shop_name_eng </text>
<text text-anchor="start" x="161.1598" y="-477.4" font-family="Arial" font-size="14.00" fill="#666666">[text]</text>
<text text-anchor="start" x="191.5048" y="-477.4" font-family="Arial" font-size="14.00" fill="#000000"> 店舗名(英語）</text>
<polygon fill="none" stroke="#000000" points="46,-436 46,-466 558,-466 558,-436 46,-436"/>
<text text-anchor="start" x="53" y="-447.4" font-family="Arial" font-size="14.00" fill="#000000">point_rate </text>
<text text-anchor="start" x="119.1346" y="-447.4" font-family="Arial" font-size="14.00" fill="#666666">[numeric]</text>
<text text-anchor="start" x="176.6914" y="-447.4" font-family="Arial" font-size="14.00" fill="#000000"> ポイント付与率</text>
<polygon fill="none" stroke="#000000" points="46,-406 46,-436 558,-436 558,-406 46,-406"/>
<text text-anchor="start" x="53" y="-417.4" font-family="Arial" font-size="14.00" fill="#000000">welcome_point </text>
<text text-anchor="start" x="150.2398" y="-417.4" font-family="Arial" font-size="14.00" fill="#666666">[numeric]</text>
<text text-anchor="start" x="207.7966" y="-417.4" font-family="Arial" font-size="14.00" fill="#000000"> 会員登録時付与ポイント</text>
<polygon fill="none" stroke="#000000" points="46,-376 46,-406 558,-406 558,-376 46,-376"/>
<text text-anchor="start" x="53" y="-387.4" font-family="Arial" font-size="14.00" fill="#000000">update_date </text>
<text text-anchor="start" x="134.7152" y="-387.4" font-family="Arial" font-size="14.00" fill="#666666">[timestamp without time zone]</text>
<text text-anchor="start" x="319.8554" y="-387.4" font-family="Arial" font-size="14.00" fill="#000000"> 更新日時</text>
<polygon fill="none" stroke="#000000" points="46,-346 46,-376 558,-376 558,-346 46,-346"/>
<text text-anchor="start" x="53" y="-357.4" font-family="Arial" font-size="14.00" fill="#000000">top_tpl </text>
<text text-anchor="start" x="98.9088" y="-357.4" font-family="Arial" font-size="14.00" fill="#666666">[text]</text>
<text text-anchor="start" x="129.2538" y="-357.4" font-family="Arial" font-size="14.00" fill="#000000"> トップページテンプレート</text>
<polygon fill="none" stroke="#000000" points="46,-316 46,-346 558,-346 558,-316 46,-316"/>
<text text-anchor="start" x="53" y="-327.4" font-family="Arial" font-size="14.00" fill="#000000">product_tpl </text>
<text text-anchor="start" x="126.1346" y="-327.4" font-family="Arial" font-size="14.00" fill="#666666">[text]</text>
<text text-anchor="start" x="156.4796" y="-327.4" font-family="Arial" font-size="14.00" fill="#000000"> 商品一覧テンプレート</text>
<polygon fill="none" stroke="#000000" points="46,-286 46,-316 558,-316 558,-286 46,-286"/>
<text text-anchor="start" x="53" y="-297.4" font-family="Arial" font-size="14.00" fill="#000000">detail_tpl </text>
<text text-anchor="start" x="112.9046" y="-297.4" font-family="Arial" font-size="14.00" fill="#666666">[text]</text>
<text text-anchor="start" x="143.2496" y="-297.4" font-family="Arial" font-size="14.00" fill="#000000"> 商品詳細テンプレート</text>
<polygon fill="none" stroke="#000000" points="46,-256 46,-286 558,-286 558,-256 46,-256"/>
<text text-anchor="start" x="53" y="-267.4" font-family="Arial" font-size="14.00" fill="#000000">mypage_tpl </text>
<text text-anchor="start" x="129.244" y="-267.4" font-family="Arial" font-size="14.00" fill="#666666">[text]</text>
<text text-anchor="start" x="159.589" y="-267.4" font-family="Arial" font-size="14.00" fill="#000000"> Myページテンプレート</text>
<polygon fill="none" stroke="#000000" points="46,-226 46,-256 558,-256 558,-226 46,-226"/>
<text text-anchor="start" x="53" y="-237.4" font-family="Arial" font-size="14.00" fill="#000000">good_traded </text>
<text text-anchor="start" x="135.4852" y="-237.4" font-family="Arial" font-size="14.00" fill="#666666">[text]</text>
<text text-anchor="start" x="165.8302" y="-237.4" font-family="Arial" font-size="14.00" fill="#000000"> 取扱商品</text>
<polygon fill="none" stroke="#000000" points="46,-196 46,-226 558,-226 558,-196 46,-196"/>
<text text-anchor="start" x="53" y="-207.4" font-family="Arial" font-size="14.00" fill="#000000">message </text>
<text text-anchor="start" x="113.6816" y="-207.4" font-family="Arial" font-size="14.00" fill="#666666">[text]</text>
<text text-anchor="start" x="144.0266" y="-207.4" font-family="Arial" font-size="14.00" fill="#000000"> メッセージ</text>
<polygon fill="none" stroke="#000000" points="46,-166 46,-196 558,-196 558,-166 46,-166"/>
<text text-anchor="start" x="53" y="-177.4" font-family="Arial" font-size="14.00" fill="#000000">regular_holiday_ids </text>
<text text-anchor="start" x="178.2468" y="-177.4" font-family="Arial" font-size="14.00" fill="#666666">[text]</text>
<text text-anchor="start" x="208.5918" y="-177.4" font-family="Arial" font-size="14.00" fill="#000000"> 定休日の曜日</text>
<polygon fill="none" stroke="#000000" points="46,-136 46,-166 558,-166 558,-136 46,-136"/>
<text text-anchor="start" x="53" y="-147.4" font-family="Arial" font-size="14.00" fill="#000000">latitude </text>
<text text-anchor="start" x="102.0154" y="-147.4" font-family="Arial" font-size="14.00" fill="#666666">[text]</text>
<text text-anchor="start" x="132.3604" y="-147.4" font-family="Arial" font-size="14.00" fill="#000000"> 緯度</text>
<polygon fill="none" stroke="#000000" points="46,-106 46,-136 558,-136 558,-106 46,-106"/>
<text text-anchor="start" x="53" y="-117.4" font-family="Arial" font-size="14.00" fill="#000000">longitude </text>
<text text-anchor="start" x="113.69" y="-117.4" font-family="Arial" font-size="14.00" fill="#666666">[text]</text>
<text text-anchor="start" x="144.035" y="-117.4" font-family="Arial" font-size="14.00" fill="#000000"> 経度</text>
<polygon fill="none" stroke="#000000" points="46,-76 46,-106 558,-106 558,-76 46,-76"/>
<text text-anchor="start" x="53" y="-87.4" font-family="Arial" font-size="14.00" fill="#000000">downloadable_days </text>
<text text-anchor="start" x="180.6016" y="-87.4" font-family="Arial" font-size="14.00" fill="#666666">[numeric]</text>
<text text-anchor="start" x="238.1584" y="-87.4" font-family="Arial" font-size="14.00" fill="#000000"> ダウンロード可能日数</text>
<polygon fill="none" stroke="#000000" points="46,-46 46,-76 558,-76 558,-46 46,-46"/>
<text text-anchor="start" x="52.6607" y="-57.4" font-family="Arial" font-size="14.00" fill="#000000">downloadable_days_unlimited </text>
<text text-anchor="start" x="244.0463" y="-57.4" font-family="Arial" font-size="14.00" fill="#666666">[smallint]</text>
<text text-anchor="start" x="299.2637" y="-57.4" font-family="Arial" font-size="14.00" fill="#000000"> ダウンロード可能日数無制限フラグ</text>
<polygon fill="none" stroke="#000000" stroke-width="3" points="44.5,-44.5 44.5,-2073.5 559.5,-2073.5 559.5,-44.5 44.5,-44.5"/>
</g>
</g>
</svg>
