<?xml version="1.0" encoding="UTF-8" standalone="no"?>
<!DOCTYPE svg PUBLIC "-//W3C//DTD SVG 1.1//EN"
 "http://www.w3.org/Graphics/SVG/1.1/DTD/svg11.dtd">
<!-- Generated by graphviz version 2.40.1 (20161225.0304)
 -->
<!-- Title: public.dtb_ownersstore_settings Pages: 1 -->
<svg width="468pt" height="176pt"
 viewBox="0.00 0.00 468.00 176.00" xmlns="http://www.w3.org/2000/svg" xmlns:xlink="http://www.w3.org/1999/xlink">
<g id="graph0" class="graph" transform="scale(1 1) rotate(0) translate(4 172)">
<title>public.dtb_ownersstore_settings</title>
<polygon fill="#ffffff" stroke="transparent" points="-4,4 -4,-172 464,-172 464,4 -4,4"/>
<!-- public.dtb_ownersstore_settings -->
<g id="node1" class="node">
<title>public.dtb_ownersstore_settings</title>
<polygon fill="#efefef" stroke="transparent" points="46,-76 46,-122 414,-122 414,-76 46,-76"/>
<polygon fill="none" stroke="#000000" points="46,-76 46,-122 414,-122 414,-76 46,-76"/>
<text text-anchor="start" x="52.8405" y="-99.8" font-family="Arial Bold" font-size="18.00" fill="#000000">public.dtb_ownersstore_settings</text>
<text text-anchor="start" x="309.9057" y="-99.8" font-family="Arial" font-size="14.00" fill="#000000"> </text>
<text text-anchor="start" x="313.7963" y="-99.8" font-family="Arial" font-size="14.00" fill="#666666">[BASE TABLE]</text>
<text text-anchor="start" x="147.4469" y="-85.4" font-family="Arial" font-size="14.00" fill="#333333">オーナーズストア設定</text>
<polygon fill="none" stroke="#000000" points="46,-46 46,-76 414,-76 414,-46 46,-46"/>
<text text-anchor="start" x="53" y="-57.4" font-family="Arial" font-size="14.00" fill="#000000">public_key </text>
<text text-anchor="start" x="123.0168" y="-57.4" font-family="Arial" font-size="14.00" fill="#666666">[text]</text>
<text text-anchor="start" x="153.3618" y="-57.4" font-family="Arial" font-size="14.00" fill="#000000"> 認証キー</text>
<polygon fill="none" stroke="#000000" stroke-width="3" points="44.5,-44.5 44.5,-123.5 415.5,-123.5 415.5,-44.5 44.5,-44.5"/>
</g>
</g>
</svg>
