<?xml version="1.0" encoding="UTF-8" standalone="no"?>
<!DOCTYPE svg PUBLIC "-//W3C//DTD SVG 1.1//EN"
 "http://www.w3.org/Graphics/SVG/1.1/DTD/svg11.dtd">
<!-- Generated by graphviz version 2.40.1 (20161225.0304)
 -->
<!-- Title: public.dtb_plugin_hookpoint Pages: 1 -->
<svg width="523pt" height="1064pt"
 viewBox="0.00 0.00 523.00 1064.00" xmlns="http://www.w3.org/2000/svg" xmlns:xlink="http://www.w3.org/1999/xlink">
<g id="graph0" class="graph" transform="scale(1 1) rotate(0) translate(4 1060)">
<title>public.dtb_plugin_hookpoint</title>
<polygon fill="#ffffff" stroke="transparent" points="-4,4 -4,-1060 519,-1060 519,4 -4,4"/>
<!-- public.dtb_plugin_hookpoint -->
<g id="node1" class="node">
<title>public.dtb_plugin_hookpoint</title>
<polygon fill="#efefef" stroke="transparent" points="97,-964 97,-1010 469,-1010 469,-964 97,-964"/>
<polygon fill="none" stroke="#000000" points="97,-964 97,-1010 469,-1010 469,-964 97,-964"/>
<text text-anchor="start" x="122.8316" y="-987.8" font-family="Arial Bold" font-size="18.00" fill="#000000">public.dtb_plugin_hookpoint</text>
<text text-anchor="start" x="345.9146" y="-987.8" font-family="Arial" font-size="14.00" fill="#000000"> </text>
<text text-anchor="start" x="349.8052" y="-987.8" font-family="Arial" font-size="14.00" fill="#666666">[BASE TABLE]</text>
<text text-anchor="start" x="201.9575" y="-973.4" font-family="Arial" font-size="14.00" fill="#333333">プラグインフックポイント</text>
<polygon fill="none" stroke="#000000" points="97,-934 97,-964 469,-964 469,-934 97,-934"/>
<text text-anchor="start" x="103.5382" y="-945.4" font-family="Arial" font-size="14.00" fill="#000000">plugin_hookpoint_id </text>
<text text-anchor="start" x="231.9196" y="-945.4" font-family="Arial" font-size="14.00" fill="#666666">[integer]</text>
<text text-anchor="start" x="282.489" y="-945.4" font-family="Arial" font-size="14.00" fill="#000000"> プラグインフックポイントID</text>
<polygon fill="none" stroke="#000000" points="97,-904 97,-934 469,-934 469,-904 97,-904"/>
<text text-anchor="start" x="104" y="-915.4" font-family="Arial" font-size="14.00" fill="#000000">plugin_id </text>
<text text-anchor="start" x="163.906" y="-915.4" font-family="Arial" font-size="14.00" fill="#666666">[integer]</text>
<text text-anchor="start" x="214.4754" y="-915.4" font-family="Arial" font-size="14.00" fill="#000000"> プラグインID</text>
<polygon fill="none" stroke="#000000" points="97,-874 97,-904 469,-904 469,-874 97,-874"/>
<text text-anchor="start" x="104" y="-885.4" font-family="Arial" font-size="14.00" fill="#000000">hook_point </text>
<text text-anchor="start" x="176.366" y="-885.4" font-family="Arial" font-size="14.00" fill="#666666">[text]</text>
<text text-anchor="start" x="206.711" y="-885.4" font-family="Arial" font-size="14.00" fill="#000000"> フックポイント</text>
<polygon fill="none" stroke="#000000" points="97,-844 97,-874 469,-874 469,-844 97,-844"/>
<text text-anchor="start" x="104" y="-855.4" font-family="Arial" font-size="14.00" fill="#000000">callback </text>
<text text-anchor="start" x="158.4516" y="-855.4" font-family="Arial" font-size="14.00" fill="#666666">[text]</text>
<text text-anchor="start" x="188.7966" y="-855.4" font-family="Arial" font-size="14.00" fill="#000000"> コールバック関数</text>
<polygon fill="none" stroke="#000000" points="97,-814 97,-844 469,-844 469,-814 97,-814"/>
<text text-anchor="start" x="104" y="-825.4" font-family="Arial" font-size="14.00" fill="#000000">use_flg </text>
<text text-anchor="start" x="153.0182" y="-825.4" font-family="Arial" font-size="14.00" fill="#666666">[smallint]</text>
<text text-anchor="start" x="208.2356" y="-825.4" font-family="Arial" font-size="14.00" fill="#000000"> 【2.13】利用フラグ</text>
<polygon fill="none" stroke="#000000" points="97,-784 97,-814 469,-814 469,-784 97,-784"/>
<text text-anchor="start" x="104" y="-795.4" font-family="Arial" font-size="14.00" fill="#000000">create_date </text>
<text text-anchor="start" x="181.8106" y="-795.4" font-family="Arial" font-size="14.00" fill="#666666">[timestamp without time zone]</text>
<text text-anchor="start" x="366.9508" y="-795.4" font-family="Arial" font-size="14.00" fill="#000000"> 作成日時</text>
<polygon fill="none" stroke="#000000" points="97,-754 97,-784 469,-784 469,-754 97,-754"/>
<text text-anchor="start" x="104" y="-765.4" font-family="Arial" font-size="14.00" fill="#000000">update_date </text>
<text text-anchor="start" x="185.7152" y="-765.4" font-family="Arial" font-size="14.00" fill="#666666">[timestamp without time zone]</text>
<text text-anchor="start" x="370.8554" y="-765.4" font-family="Arial" font-size="14.00" fill="#000000"> 更新日時</text>
<polygon fill="none" stroke="#000000" stroke-width="3" points="95.5,-752.5 95.5,-1011.5 470.5,-1011.5 470.5,-752.5 95.5,-752.5"/>
</g>
<!-- public.dtb_plugin -->
<g id="node2" class="node">
<title>public.dtb_plugin</title>
<polygon fill="#efefef" stroke="transparent" points="112,-583 112,-629 453,-629 453,-583 112,-583"/>
<polygon fill="none" stroke="#000000" points="112,-583 112,-629 453,-629 453,-583 112,-583"/>
<text text-anchor="start" x="166.3515" y="-606.8" font-family="Arial Bold" font-size="18.00" fill="#000000">public.dtb_plugin</text>
<text text-anchor="start" x="301.3947" y="-606.8" font-family="Arial" font-size="14.00" fill="#000000"> </text>
<text text-anchor="start" x="305.2853" y="-606.8" font-family="Arial" font-size="14.00" fill="#666666">[BASE TABLE]</text>
<text text-anchor="start" x="235.9227" y="-592.4" font-family="Arial" font-size="14.00" fill="#333333">プラグイン情報</text>
<polygon fill="none" stroke="#000000" points="112,-553 112,-583 453,-583 453,-553 112,-553"/>
<text text-anchor="start" x="119" y="-564.4" font-family="Arial" font-size="14.00" fill="#000000">plugin_id </text>
<text text-anchor="start" x="178.906" y="-564.4" font-family="Arial" font-size="14.00" fill="#666666">[integer]</text>
<text text-anchor="start" x="229.4754" y="-564.4" font-family="Arial" font-size="14.00" fill="#000000"> プラグインID</text>
<polygon fill="none" stroke="#000000" points="112,-523 112,-553 453,-553 453,-523 112,-523"/>
<text text-anchor="start" x="119" y="-534.4" font-family="Arial" font-size="14.00" fill="#000000">plugin_name </text>
<text text-anchor="start" x="203.0252" y="-534.4" font-family="Arial" font-size="14.00" fill="#666666">[text]</text>
<text text-anchor="start" x="233.3702" y="-534.4" font-family="Arial" font-size="14.00" fill="#000000"> プラグイン名</text>
<polygon fill="none" stroke="#000000" points="112,-493 112,-523 453,-523 453,-493 112,-493"/>
<text text-anchor="start" x="119" y="-504.4" font-family="Arial" font-size="14.00" fill="#000000">plugin_code </text>
<text text-anchor="start" x="198.3646" y="-504.4" font-family="Arial" font-size="14.00" fill="#666666">[text]</text>
<text text-anchor="start" x="228.7096" y="-504.4" font-family="Arial" font-size="14.00" fill="#000000"> プラグインコード</text>
<polygon fill="none" stroke="#000000" points="112,-463 112,-493 453,-493 453,-463 112,-463"/>
<text text-anchor="start" x="119" y="-474.4" font-family="Arial" font-size="14.00" fill="#000000">class_name </text>
<text text-anchor="start" x="197.5708" y="-474.4" font-family="Arial" font-size="14.00" fill="#666666">[text]</text>
<text text-anchor="start" x="227.9158" y="-474.4" font-family="Arial" font-size="14.00" fill="#000000"> クラス名</text>
<polygon fill="none" stroke="#000000" points="112,-433 112,-463 453,-463 453,-433 112,-433"/>
<text text-anchor="start" x="119" y="-444.4" font-family="Arial" font-size="14.00" fill="#000000">author </text>
<text text-anchor="start" x="162.5722" y="-444.4" font-family="Arial" font-size="14.00" fill="#666666">[text]</text>
<text text-anchor="start" x="192.9172" y="-444.4" font-family="Arial" font-size="14.00" fill="#000000"> 作成者</text>
<polygon fill="none" stroke="#000000" points="112,-403 112,-433 453,-433 453,-403 112,-403"/>
<text text-anchor="start" x="119" y="-414.4" font-family="Arial" font-size="14.00" fill="#000000">author_site_url </text>
<text text-anchor="start" x="215.467" y="-414.4" font-family="Arial" font-size="14.00" fill="#666666">[text]</text>
<text text-anchor="start" x="245.812" y="-414.4" font-family="Arial" font-size="14.00" fill="#000000"> 作成者サイトURL</text>
<polygon fill="none" stroke="#000000" points="112,-373 112,-403 453,-403 453,-373 112,-373"/>
<text text-anchor="start" x="119" y="-384.4" font-family="Arial" font-size="14.00" fill="#000000">plugin_site_url </text>
<text text-anchor="start" x="213.129" y="-384.4" font-family="Arial" font-size="14.00" fill="#666666">[text]</text>
<text text-anchor="start" x="243.474" y="-384.4" font-family="Arial" font-size="14.00" fill="#000000"> サイトURL</text>
<polygon fill="none" stroke="#000000" points="112,-343 112,-373 453,-373 453,-343 112,-343"/>
<text text-anchor="start" x="119" y="-354.4" font-family="Arial" font-size="14.00" fill="#000000">plugin_version </text>
<text text-anchor="start" x="213.1318" y="-354.4" font-family="Arial" font-size="14.00" fill="#666666">[text]</text>
<text text-anchor="start" x="243.4768" y="-354.4" font-family="Arial" font-size="14.00" fill="#000000"> バージョン</text>
<polygon fill="none" stroke="#000000" points="112,-313 112,-343 453,-343 453,-313 112,-313"/>
<text text-anchor="start" x="119" y="-324.4" font-family="Arial" font-size="14.00" fill="#000000">compliant_version </text>
<text text-anchor="start" x="235.683" y="-324.4" font-family="Arial" font-size="14.00" fill="#666666">[text]</text>
<text text-anchor="start" x="266.028" y="-324.4" font-family="Arial" font-size="14.00" fill="#000000"> 本体対応バージョン</text>
<polygon fill="none" stroke="#000000" points="112,-283 112,-313 453,-313 453,-283 112,-283"/>
<text text-anchor="start" x="119" y="-294.4" font-family="Arial" font-size="14.00" fill="#000000">plugin_description </text>
<text text-anchor="start" x="235.6942" y="-294.4" font-family="Arial" font-size="14.00" fill="#666666">[text]</text>
<text text-anchor="start" x="266.0392" y="-294.4" font-family="Arial" font-size="14.00" fill="#000000"> 詳細説明</text>
<polygon fill="none" stroke="#000000" points="112,-253 112,-283 453,-283 453,-253 112,-253"/>
<text text-anchor="start" x="119" y="-264.4" font-family="Arial" font-size="14.00" fill="#000000">priority </text>
<text text-anchor="start" x="164.8808" y="-264.4" font-family="Arial" font-size="14.00" fill="#666666">[integer]</text>
<text text-anchor="start" x="215.4502" y="-264.4" font-family="Arial" font-size="14.00" fill="#000000"> 優先度</text>
<polygon fill="none" stroke="#000000" points="112,-223 112,-253 453,-253 453,-223 112,-223"/>
<text text-anchor="start" x="119" y="-234.4" font-family="Arial" font-size="14.00" fill="#000000">enable </text>
<text text-anchor="start" x="164.9102" y="-234.4" font-family="Arial" font-size="14.00" fill="#666666">[smallint]</text>
<text text-anchor="start" x="220.1276" y="-234.4" font-family="Arial" font-size="14.00" fill="#000000"> 有効</text>
<polygon fill="none" stroke="#000000" points="112,-193 112,-223 453,-223 453,-193 112,-193"/>
<text text-anchor="start" x="119" y="-204.4" font-family="Arial" font-size="14.00" fill="#000000">free_field1 </text>
<text text-anchor="start" x="188.2412" y="-204.4" font-family="Arial" font-size="14.00" fill="#666666">[text]</text>
<text text-anchor="start" x="218.5862" y="-204.4" font-family="Arial" font-size="14.00" fill="#000000"> 任意項目１</text>
<polygon fill="none" stroke="#000000" points="112,-163 112,-193 453,-193 453,-163 112,-163"/>
<text text-anchor="start" x="119" y="-174.4" font-family="Arial" font-size="14.00" fill="#000000">free_field2 </text>
<text text-anchor="start" x="188.2412" y="-174.4" font-family="Arial" font-size="14.00" fill="#666666">[text]</text>
<text text-anchor="start" x="218.5862" y="-174.4" font-family="Arial" font-size="14.00" fill="#000000"> 任意項目２</text>
<polygon fill="none" stroke="#000000" points="112,-133 112,-163 453,-163 453,-133 112,-133"/>
<text text-anchor="start" x="119" y="-144.4" font-family="Arial" font-size="14.00" fill="#000000">free_field3 </text>
<text text-anchor="start" x="188.2412" y="-144.4" font-family="Arial" font-size="14.00" fill="#666666">[text]</text>
<text text-anchor="start" x="218.5862" y="-144.4" font-family="Arial" font-size="14.00" fill="#000000"> 任意項目３</text>
<polygon fill="none" stroke="#000000" points="112,-103 112,-133 453,-133 453,-103 112,-103"/>
<text text-anchor="start" x="119" y="-114.4" font-family="Arial" font-size="14.00" fill="#000000">free_field4 </text>
<text text-anchor="start" x="188.2412" y="-114.4" font-family="Arial" font-size="14.00" fill="#666666">[text]</text>
<text text-anchor="start" x="218.5862" y="-114.4" font-family="Arial" font-size="14.00" fill="#000000"> 任意項目４</text>
<polygon fill="none" stroke="#000000" points="112,-73 112,-103 453,-103 453,-73 112,-73"/>
<text text-anchor="start" x="118.735" y="-84.4" font-family="Arial" font-size="14.00" fill="#000000">create_date </text>
<text text-anchor="start" x="196.5456" y="-84.4" font-family="Arial" font-size="14.00" fill="#666666">[timestamp without time zone]</text>
<text text-anchor="start" x="381.6858" y="-84.4" font-family="Arial" font-size="14.00" fill="#000000"> 作成日時</text>
<polygon fill="none" stroke="#000000" points="112,-43 112,-73 453,-73 453,-43 112,-43"/>
<text text-anchor="start" x="119" y="-54.4" font-family="Arial" font-size="14.00" fill="#000000">update_date </text>
<text text-anchor="start" x="200.7152" y="-54.4" font-family="Arial" font-size="14.00" fill="#666666">[timestamp without time zone]</text>
<text text-anchor="start" x="385.8554" y="-54.4" font-family="Arial" font-size="14.00" fill="#000000"> 更新日時</text>
</g>
<!-- public.dtb_plugin_hookpoint&#45;&gt;public.dtb_plugin -->
<g id="edge1" class="edge">
<title>public.dtb_plugin_hookpoint:plugin_id&#45;&gt;public.dtb_plugin:plugin_id</title>
<path fill="none" stroke="#000000" stroke-dasharray="5,2" d="M86.5756,-918.3653C5.6844,-908.0602 36.5698,-774.8493 97,-708 150.3219,-649.0141 399.6781,-730.9859 453,-672 483.9963,-637.7112 499.2222,-568 453,-568"/>
<polygon fill="#000000" stroke="#000000" points="87.0185,-918.3922 96.7265,-923.4917 92.0092,-918.6961 97,-919 97,-919 97,-919 92.0092,-918.6961 97.2735,-914.5083 87.0185,-918.3922 87.0185,-918.3922"/>
<text text-anchor="start" x="7.3245" y="-929" font-family="Arial" font-size="10.00" fill="#000000">Additional Relation</text>
</g>
</g>
</svg>
