<?xml version="1.0" encoding="UTF-8" standalone="no"?>
<!DOCTYPE svg PUBLIC "-//W3C//DTD SVG 1.1//EN"
 "http://www.w3.org/Graphics/SVG/1.1/DTD/svg11.dtd">
<!-- Generated by graphviz version 2.40.1 (20161225.0304)
 -->
<!-- Title: public.dtb_delivfee Pages: 1 -->
<svg width="774pt" height="794pt"
 viewBox="0.00 0.00 773.50 794.00" xmlns="http://www.w3.org/2000/svg" xmlns:xlink="http://www.w3.org/1999/xlink">
<g id="graph0" class="graph" transform="scale(1 1) rotate(0) translate(4 790)">
<title>public.dtb_delivfee</title>
<polygon fill="#ffffff" stroke="transparent" points="-4,4 -4,-790 769.5,-790 769.5,4 -4,4"/>
<!-- public.dtb_delivfee -->
<g id="node1" class="node">
<title>public.dtb_delivfee</title>
<polygon fill="#efefef" stroke="transparent" points="279.5,-694 279.5,-740 539.5,-740 539.5,-694 279.5,-694"/>
<polygon fill="none" stroke="#000000" points="279.5,-694 279.5,-740 539.5,-740 539.5,-694 279.5,-694"/>
<text text-anchor="start" x="286.3504" y="-717.8" font-family="Arial Bold" font-size="18.00" fill="#000000">public.dtb_delivfee</text>
<text text-anchor="start" x="435.3958" y="-717.8" font-family="Arial" font-size="14.00" fill="#000000"> </text>
<text text-anchor="start" x="439.2864" y="-717.8" font-family="Arial" font-size="14.00" fill="#666666">[BASE TABLE]</text>
<text text-anchor="start" x="380.7104" y="-703.4" font-family="Arial" font-size="14.00" fill="#333333">送料情報</text>
<polygon fill="none" stroke="#000000" points="279.5,-664 279.5,-694 539.5,-694 539.5,-664 279.5,-664"/>
<text text-anchor="start" x="286.5" y="-675.4" font-family="Arial" font-size="14.00" fill="#000000">deliv_id </text>
<text text-anchor="start" x="337.8408" y="-675.4" font-family="Arial" font-size="14.00" fill="#666666">[integer]</text>
<text text-anchor="start" x="388.4102" y="-675.4" font-family="Arial" font-size="14.00" fill="#000000"> 配送業者ID</text>
<polygon fill="none" stroke="#000000" points="279.5,-634 279.5,-664 539.5,-664 539.5,-634 279.5,-634"/>
<text text-anchor="start" x="286.5" y="-645.4" font-family="Arial" font-size="14.00" fill="#000000">fee_id </text>
<text text-anchor="start" x="328.5182" y="-645.4" font-family="Arial" font-size="14.00" fill="#666666">[integer]</text>
<text text-anchor="start" x="379.0876" y="-645.4" font-family="Arial" font-size="14.00" fill="#000000"> 送料ID</text>
<polygon fill="none" stroke="#000000" points="279.5,-604 279.5,-634 539.5,-634 539.5,-604 279.5,-604"/>
<text text-anchor="start" x="286.5" y="-615.4" font-family="Arial" font-size="14.00" fill="#000000">fee </text>
<text text-anchor="start" x="309.8464" y="-615.4" font-family="Arial" font-size="14.00" fill="#666666">[numeric]</text>
<text text-anchor="start" x="367.4032" y="-615.4" font-family="Arial" font-size="14.00" fill="#000000"> 送料</text>
<polygon fill="none" stroke="#000000" points="279.5,-574 279.5,-604 539.5,-604 539.5,-574 279.5,-574"/>
<text text-anchor="start" x="286.5" y="-585.4" font-family="Arial" font-size="14.00" fill="#000000">pref </text>
<text text-anchor="start" x="314.507" y="-585.4" font-family="Arial" font-size="14.00" fill="#666666">[smallint]</text>
<text text-anchor="start" x="369.7244" y="-585.4" font-family="Arial" font-size="14.00" fill="#000000"> 都道府県名</text>
<polygon fill="none" stroke="#000000" stroke-width="3" points="278,-572.5 278,-741.5 541,-741.5 541,-572.5 278,-572.5"/>
</g>
<!-- public.dtb_deliv -->
<g id="node2" class="node">
<title>public.dtb_deliv</title>
<polygon fill="#efefef" stroke="transparent" points="43.5,-403 43.5,-449 384.5,-449 384.5,-403 43.5,-403"/>
<polygon fill="none" stroke="#000000" points="43.5,-403 43.5,-449 384.5,-449 384.5,-403 43.5,-403"/>
<text text-anchor="start" x="103.3577" y="-426.8" font-family="Arial Bold" font-size="18.00" fill="#000000">public.dtb_deliv</text>
<text text-anchor="start" x="227.3885" y="-426.8" font-family="Arial" font-size="14.00" fill="#000000"> </text>
<text text-anchor="start" x="231.2791" y="-426.8" font-family="Arial" font-size="14.00" fill="#666666">[BASE TABLE]</text>
<text text-anchor="start" x="165.7616" y="-412.4" font-family="Arial" font-size="14.00" fill="#333333">配送業者情報</text>
<polygon fill="none" stroke="#000000" points="43.5,-373 43.5,-403 384.5,-403 384.5,-373 43.5,-373"/>
<text text-anchor="start" x="50.5" y="-384.4" font-family="Arial" font-size="14.00" fill="#000000">deliv_id </text>
<text text-anchor="start" x="101.8408" y="-384.4" font-family="Arial" font-size="14.00" fill="#666666">[integer]</text>
<text text-anchor="start" x="152.4102" y="-384.4" font-family="Arial" font-size="14.00" fill="#000000"> 配送業者ID</text>
<polygon fill="none" stroke="#000000" points="43.5,-343 43.5,-373 384.5,-373 384.5,-343 43.5,-343"/>
<text text-anchor="start" x="50.5" y="-354.4" font-family="Arial" font-size="14.00" fill="#000000">product_type_id </text>
<text text-anchor="start" x="153.9824" y="-354.4" font-family="Arial" font-size="14.00" fill="#666666">[integer]</text>
<text text-anchor="start" x="204.5518" y="-354.4" font-family="Arial" font-size="14.00" fill="#000000"> 商品種別ID</text>
<polygon fill="none" stroke="#000000" points="43.5,-313 43.5,-343 384.5,-343 384.5,-313 43.5,-313"/>
<text text-anchor="start" x="50.5" y="-324.4" font-family="Arial" font-size="14.00" fill="#000000">name </text>
<text text-anchor="start" x="89.399" y="-324.4" font-family="Arial" font-size="14.00" fill="#666666">[text]</text>
<text text-anchor="start" x="119.744" y="-324.4" font-family="Arial" font-size="14.00" fill="#000000"> 配送業者名</text>
<polygon fill="none" stroke="#000000" points="43.5,-283 43.5,-313 384.5,-313 384.5,-283 43.5,-283"/>
<text text-anchor="start" x="50.5" y="-294.4" font-family="Arial" font-size="14.00" fill="#000000">service_name </text>
<text text-anchor="start" x="141.514" y="-294.4" font-family="Arial" font-size="14.00" fill="#666666">[text]</text>
<text text-anchor="start" x="171.859" y="-294.4" font-family="Arial" font-size="14.00" fill="#000000"> 配送サービス名</text>
<polygon fill="none" stroke="#000000" points="43.5,-253 43.5,-283 384.5,-283 384.5,-253 43.5,-253"/>
<text text-anchor="start" x="50.5" y="-264.4" font-family="Arial" font-size="14.00" fill="#000000">remark </text>
<text text-anchor="start" x="97.9376" y="-264.4" font-family="Arial" font-size="14.00" fill="#666666">[text]</text>
<text text-anchor="start" x="128.2826" y="-264.4" font-family="Arial" font-size="14.00" fill="#000000"> 説明</text>
<polygon fill="none" stroke="#000000" points="43.5,-223 43.5,-253 384.5,-253 384.5,-223 43.5,-223"/>
<text text-anchor="start" x="50.5" y="-234.4" font-family="Arial" font-size="14.00" fill="#000000">confirm_url </text>
<text text-anchor="start" x="123.6066" y="-234.4" font-family="Arial" font-size="14.00" fill="#666666">[text]</text>
<text text-anchor="start" x="153.9516" y="-234.4" font-family="Arial" font-size="14.00" fill="#000000"> 伝票確認URL</text>
<polygon fill="none" stroke="#000000" points="43.5,-193 43.5,-223 384.5,-223 384.5,-193 43.5,-193"/>
<text text-anchor="start" x="50.5" y="-204.4" font-family="Arial" font-size="14.00" fill="#000000">rank </text>
<text text-anchor="start" x="81.6164" y="-204.4" font-family="Arial" font-size="14.00" fill="#666666">[integer]</text>
<text text-anchor="start" x="132.1858" y="-204.4" font-family="Arial" font-size="14.00" fill="#000000"> 表示順</text>
<polygon fill="none" stroke="#000000" points="43.5,-163 43.5,-193 384.5,-193 384.5,-163 43.5,-163"/>
<text text-anchor="start" x="50.5" y="-174.4" font-family="Arial" font-size="14.00" fill="#000000">status </text>
<text text-anchor="start" x="91.737" y="-174.4" font-family="Arial" font-size="14.00" fill="#666666">[smallint]</text>
<text text-anchor="start" x="146.9544" y="-174.4" font-family="Arial" font-size="14.00" fill="#000000"> 状態</text>
<polygon fill="none" stroke="#000000" points="43.5,-133 43.5,-163 384.5,-163 384.5,-133 43.5,-133"/>
<text text-anchor="start" x="50.5" y="-144.4" font-family="Arial" font-size="14.00" fill="#000000">del_flg </text>
<text text-anchor="start" x="95.6248" y="-144.4" font-family="Arial" font-size="14.00" fill="#666666">[smallint]</text>
<text text-anchor="start" x="150.8422" y="-144.4" font-family="Arial" font-size="14.00" fill="#000000"> 削除フラグ</text>
<polygon fill="none" stroke="#000000" points="43.5,-103 43.5,-133 384.5,-133 384.5,-103 43.5,-103"/>
<text text-anchor="start" x="50.5" y="-114.4" font-family="Arial" font-size="14.00" fill="#000000">creator_id </text>
<text text-anchor="start" x="116.622" y="-114.4" font-family="Arial" font-size="14.00" fill="#666666">[integer]</text>
<text text-anchor="start" x="167.1914" y="-114.4" font-family="Arial" font-size="14.00" fill="#000000"> 作成者ID</text>
<polygon fill="none" stroke="#000000" points="43.5,-73 43.5,-103 384.5,-103 384.5,-73 43.5,-73"/>
<text text-anchor="start" x="50.235" y="-84.4" font-family="Arial" font-size="14.00" fill="#000000">create_date </text>
<text text-anchor="start" x="128.0456" y="-84.4" font-family="Arial" font-size="14.00" fill="#666666">[timestamp without time zone]</text>
<text text-anchor="start" x="313.1858" y="-84.4" font-family="Arial" font-size="14.00" fill="#000000"> 作成日時</text>
<polygon fill="none" stroke="#000000" points="43.5,-43 43.5,-73 384.5,-73 384.5,-43 43.5,-43"/>
<text text-anchor="start" x="50.5" y="-54.4" font-family="Arial" font-size="14.00" fill="#000000">update_date </text>
<text text-anchor="start" x="132.2152" y="-54.4" font-family="Arial" font-size="14.00" fill="#666666">[timestamp without time zone]</text>
<text text-anchor="start" x="317.3554" y="-54.4" font-family="Arial" font-size="14.00" fill="#000000"> 更新日時</text>
</g>
<!-- public.dtb_delivfee&#45;&gt;public.dtb_deliv -->
<g id="edge1" class="edge">
<title>public.dtb_delivfee:deliv_id&#45;&gt;public.dtb_deliv:deliv_id</title>
<path fill="none" stroke="#000000" stroke-dasharray="5,2" d="M269.3301,-678.1578C215.4953,-668.5824 242.6257,-579.624 279.5,-528 308.1744,-487.8558 355.8256,-532.1442 384.5,-492 411.3661,-454.3874 430.7222,-388 384.5,-388"/>
<polygon fill="#000000" stroke="#000000" points="269.5341,-678.1746 279.1286,-683.4846 274.5171,-678.5873 279.5,-679 279.5,-679 279.5,-679 274.5171,-678.5873 279.8714,-674.5154 269.5341,-678.1746 269.5341,-678.1746"/>
<text text-anchor="start" x="189.8245" y="-689" font-family="Arial" font-size="10.00" fill="#000000">Additional Relation</text>
</g>
<!-- public.mtb_pref -->
<g id="node3" class="node">
<title>public.mtb_pref</title>
<polygon fill="#efefef" stroke="transparent" points="488.5,-268 488.5,-314 722.5,-314 722.5,-268 488.5,-268"/>
<polygon fill="none" stroke="#000000" points="488.5,-268 488.5,-314 722.5,-314 722.5,-268 488.5,-268"/>
<text text-anchor="start" x="495.3617" y="-291.8" font-family="Arial Bold" font-size="18.00" fill="#000000">public.mtb_pref</text>
<text text-anchor="start" x="618.3845" y="-291.8" font-family="Arial" font-size="14.00" fill="#000000"> </text>
<text text-anchor="start" x="622.2751" y="-291.8" font-family="Arial" font-size="14.00" fill="#666666">[BASE TABLE]</text>
<text text-anchor="start" x="547.561" y="-277.4" font-family="Arial" font-size="14.00" fill="#333333">都道府県マスタ</text>
<polygon fill="none" stroke="#000000" points="488.5,-238 488.5,-268 722.5,-268 722.5,-238 488.5,-238"/>
<text text-anchor="start" x="495.5" y="-249.4" font-family="Arial" font-size="14.00" fill="#000000">id </text>
<text text-anchor="start" x="510.2798" y="-249.4" font-family="Arial" font-size="14.00" fill="#666666">[smallint]</text>
<text text-anchor="start" x="565.4972" y="-249.4" font-family="Arial" font-size="14.00" fill="#000000"> ID</text>
<polygon fill="none" stroke="#000000" points="488.5,-208 488.5,-238 722.5,-238 722.5,-208 488.5,-208"/>
<text text-anchor="start" x="495.5" y="-219.4" font-family="Arial" font-size="14.00" fill="#000000">name </text>
<text text-anchor="start" x="534.399" y="-219.4" font-family="Arial" font-size="14.00" fill="#666666">[text]</text>
<text text-anchor="start" x="564.744" y="-219.4" font-family="Arial" font-size="14.00" fill="#000000"> 名称</text>
<polygon fill="none" stroke="#000000" points="488.5,-178 488.5,-208 722.5,-208 722.5,-178 488.5,-178"/>
<text text-anchor="start" x="495.5" y="-189.4" font-family="Arial" font-size="14.00" fill="#000000">rank </text>
<text text-anchor="start" x="526.6164" y="-189.4" font-family="Arial" font-size="14.00" fill="#666666">[smallint]</text>
<text text-anchor="start" x="581.8338" y="-189.4" font-family="Arial" font-size="14.00" fill="#000000"> 表示順</text>
</g>
<!-- public.dtb_delivfee&#45;&gt;public.mtb_pref -->
<g id="edge2" class="edge">
<title>public.dtb_delivfee:pref&#45;&gt;public.mtb_pref:id</title>
<path fill="none" stroke="#000000" stroke-dasharray="5,2" d="M549.676,-588.409C673.6037,-572.794 341.1438,-253 488.5,-253"/>
<polygon fill="#000000" stroke="#000000" points="549.4832,-588.4201 539.239,-584.5076 544.4916,-588.71 539.5,-589 539.5,-589 539.5,-589 544.4916,-588.71 539.761,-593.4924 549.4832,-588.4201 549.4832,-588.4201"/>
<text text-anchor="start" x="546.8245" y="-599" font-family="Arial" font-size="10.00" fill="#000000">Additional Relation</text>
</g>
</g>
</svg>
