<?xml version="1.0" encoding="UTF-8" standalone="no"?>
<!DOCTYPE svg PUBLIC "-//W3C//DTD SVG 1.1//EN"
 "http://www.w3.org/Graphics/SVG/1.1/DTD/svg11.dtd">
<!-- Generated by graphviz version 2.40.1 (20161225.0304)
 -->
<!-- Title: public.mtb_pref Pages: 1 -->
<svg width="334pt" height="236pt"
 viewBox="0.00 0.00 334.00 236.00" xmlns="http://www.w3.org/2000/svg" xmlns:xlink="http://www.w3.org/1999/xlink">
<g id="graph0" class="graph" transform="scale(1 1) rotate(0) translate(4 232)">
<title>public.mtb_pref</title>
<polygon fill="#ffffff" stroke="transparent" points="-4,4 -4,-232 330,-232 330,4 -4,4"/>
<!-- public.mtb_pref -->
<g id="node1" class="node">
<title>public.mtb_pref</title>
<polygon fill="#efefef" stroke="transparent" points="46,-136 46,-182 280,-182 280,-136 46,-136"/>
<polygon fill="none" stroke="#000000" points="46,-136 46,-182 280,-182 280,-136 46,-136"/>
<text text-anchor="start" x="52.8617" y="-159.8" font-family="Arial Bold" font-size="18.00" fill="#000000">public.mtb_pref</text>
<text text-anchor="start" x="175.8845" y="-159.8" font-family="Arial" font-size="14.00" fill="#000000"> </text>
<text text-anchor="start" x="179.7751" y="-159.8" font-family="Arial" font-size="14.00" fill="#666666">[BASE TABLE]</text>
<text text-anchor="start" x="105.061" y="-145.4" font-family="Arial" font-size="14.00" fill="#333333">都道府県マスタ</text>
<polygon fill="none" stroke="#000000" points="46,-106 46,-136 280,-136 280,-106 46,-106"/>
<text text-anchor="start" x="53" y="-117.4" font-family="Arial" font-size="14.00" fill="#000000">id </text>
<text text-anchor="start" x="67.7798" y="-117.4" font-family="Arial" font-size="14.00" fill="#666666">[smallint]</text>
<text text-anchor="start" x="122.9972" y="-117.4" font-family="Arial" font-size="14.00" fill="#000000"> ID</text>
<polygon fill="none" stroke="#000000" points="46,-76 46,-106 280,-106 280,-76 46,-76"/>
<text text-anchor="start" x="53" y="-87.4" font-family="Arial" font-size="14.00" fill="#000000">name </text>
<text text-anchor="start" x="91.899" y="-87.4" font-family="Arial" font-size="14.00" fill="#666666">[text]</text>
<text text-anchor="start" x="122.244" y="-87.4" font-family="Arial" font-size="14.00" fill="#000000"> 名称</text>
<polygon fill="none" stroke="#000000" points="46,-46 46,-76 280,-76 280,-46 46,-46"/>
<text text-anchor="start" x="53" y="-57.4" font-family="Arial" font-size="14.00" fill="#000000">rank </text>
<text text-anchor="start" x="84.1164" y="-57.4" font-family="Arial" font-size="14.00" fill="#666666">[smallint]</text>
<text text-anchor="start" x="139.3338" y="-57.4" font-family="Arial" font-size="14.00" fill="#000000"> 表示順</text>
<polygon fill="none" stroke="#000000" stroke-width="3" points="44.5,-44.5 44.5,-183.5 281.5,-183.5 281.5,-44.5 44.5,-44.5"/>
</g>
</g>
</svg>
