<?xml version="1.0" encoding="UTF-8" standalone="no"?>
<!DOCTYPE svg PUBLIC "-//W3C//DTD SVG 1.1//EN"
 "http://www.w3.org/Graphics/SVG/1.1/DTD/svg11.dtd">
<!-- Generated by graphviz version 2.40.1 (20161225.0304)
 -->
<!-- Title: public.dtb_baseinfo Pages: 1 -->
<svg width="380pt" height="2115pt"
 viewBox="0.00 0.00 380.00 2115.00" xmlns="http://www.w3.org/2000/svg" xmlns:xlink="http://www.w3.org/1999/xlink">
<g id="graph0" class="graph" transform="scale(1 1) rotate(0) translate(4 2111)">
<title>public.dtb_baseinfo</title>
<polygon fill="#ffffff" stroke="transparent" points="-4,4 -4,-2111 376,-2111 376,4 -4,4"/>
<!-- public.dtb_baseinfo -->
<g id="node1" class="node">
<title>public.dtb_baseinfo</title>
<polygon fill="#efefef" stroke="transparent" points="46,-2025.5 46,-2060.5 326,-2060.5 326,-2025.5 46,-2025.5"/>
<polygon fill="none" stroke="#000000" points="46,-2025.5 46,-2060.5 326,-2060.5 326,-2025.5 46,-2025.5"/>
<text text-anchor="start" x="59.8444" y="-2038.3" font-family="Arial Bold" font-size="18.00" fill="#000000">public.dtb_baseinfo</text>
<text text-anchor="start" x="214.9018" y="-2038.3" font-family="Arial" font-size="14.00" fill="#000000"> </text>
<text text-anchor="start" x="218.7924" y="-2038.3" font-family="Arial" font-size="14.00" fill="#666666">[BASE TABLE]</text>
<polygon fill="none" stroke="#000000" points="46,-1995.5 46,-2025.5 326,-2025.5 326,-1995.5 46,-1995.5"/>
<text text-anchor="start" x="53" y="-2006.9" font-family="Arial" font-size="14.00" fill="#000000">id </text>
<text text-anchor="start" x="67.7798" y="-2006.9" font-family="Arial" font-size="14.00" fill="#666666">[integer]</text>
<polygon fill="none" stroke="#000000" points="46,-1965.5 46,-1995.5 326,-1995.5 326,-1965.5 46,-1965.5"/>
<text text-anchor="start" x="53" y="-1976.9" font-family="Arial" font-size="14.00" fill="#000000">company_name </text>
<text text-anchor="start" x="156.4726" y="-1976.9" font-family="Arial" font-size="14.00" fill="#666666">[text]</text>
<polygon fill="none" stroke="#000000" points="46,-1935.5 46,-1965.5 326,-1965.5 326,-1935.5 46,-1935.5"/>
<text text-anchor="start" x="53" y="-1946.9" font-family="Arial" font-size="14.00" fill="#000000">company_kana </text>
<text text-anchor="start" x="151.812" y="-1946.9" font-family="Arial" font-size="14.00" fill="#666666">[text]</text>
<polygon fill="none" stroke="#000000" points="46,-1905.5 46,-1935.5 326,-1935.5 326,-1905.5 46,-1905.5"/>
<text text-anchor="start" x="53" y="-1916.9" font-family="Arial" font-size="14.00" fill="#000000">zip01 </text>
<text text-anchor="start" x="90.345" y="-1916.9" font-family="Arial" font-size="14.00" fill="#666666">[text]</text>
<polygon fill="none" stroke="#000000" points="46,-1875.5 46,-1905.5 326,-1905.5 326,-1875.5 46,-1875.5"/>
<text text-anchor="start" x="53" y="-1886.9" font-family="Arial" font-size="14.00" fill="#000000">zip02 </text>
<text text-anchor="start" x="90.345" y="-1886.9" font-family="Arial" font-size="14.00" fill="#666666">[text]</text>
<polygon fill="none" stroke="#000000" points="46,-1845.5 46,-1875.5 326,-1875.5 326,-1845.5 46,-1845.5"/>
<text text-anchor="start" x="53" y="-1856.9" font-family="Arial" font-size="14.00" fill="#000000">zipcode </text>
<text text-anchor="start" x="105.1276" y="-1856.9" font-family="Arial" font-size="14.00" fill="#666666">[text]</text>
<polygon fill="none" stroke="#000000" points="46,-1815.5 46,-1845.5 326,-1845.5 326,-1815.5 46,-1815.5"/>
<text text-anchor="start" x="53" y="-1826.9" font-family="Arial" font-size="14.00" fill="#000000">country_id </text>
<text text-anchor="start" x="121.4614" y="-1826.9" font-family="Arial" font-size="14.00" fill="#666666">[integer]</text>
<polygon fill="none" stroke="#000000" points="46,-1785.5 46,-1815.5 326,-1815.5 326,-1785.5 46,-1785.5"/>
<text text-anchor="start" x="53" y="-1796.9" font-family="Arial" font-size="14.00" fill="#000000">pref </text>
<text text-anchor="start" x="81.007" y="-1796.9" font-family="Arial" font-size="14.00" fill="#666666">[smallint]</text>
<polygon fill="none" stroke="#000000" points="46,-1755.5 46,-1785.5 326,-1785.5 326,-1755.5 46,-1755.5"/>
<text text-anchor="start" x="53" y="-1766.9" font-family="Arial" font-size="14.00" fill="#000000">addr01 </text>
<text text-anchor="start" x="100.4642" y="-1766.9" font-family="Arial" font-size="14.00" fill="#666666">[text]</text>
<polygon fill="none" stroke="#000000" points="46,-1725.5 46,-1755.5 326,-1755.5 326,-1725.5 46,-1725.5"/>
<text text-anchor="start" x="53" y="-1736.9" font-family="Arial" font-size="14.00" fill="#000000">addr02 </text>
<text text-anchor="start" x="100.4642" y="-1736.9" font-family="Arial" font-size="14.00" fill="#666666">[text]</text>
<polygon fill="none" stroke="#000000" points="46,-1695.5 46,-1725.5 326,-1725.5 326,-1695.5 46,-1695.5"/>
<text text-anchor="start" x="53" y="-1706.9" font-family="Arial" font-size="14.00" fill="#000000">tel01 </text>
<text text-anchor="start" x="87.2356" y="-1706.9" font-family="Arial" font-size="14.00" fill="#666666">[text]</text>
<polygon fill="none" stroke="#000000" points="46,-1665.5 46,-1695.5 326,-1695.5 326,-1665.5 46,-1665.5"/>
<text text-anchor="start" x="53" y="-1676.9" font-family="Arial" font-size="14.00" fill="#000000">tel02 </text>
<text text-anchor="start" x="87.2356" y="-1676.9" font-family="Arial" font-size="14.00" fill="#666666">[text]</text>
<polygon fill="none" stroke="#000000" points="46,-1635.5 46,-1665.5 326,-1665.5 326,-1635.5 46,-1635.5"/>
<text text-anchor="start" x="53" y="-1646.9" font-family="Arial" font-size="14.00" fill="#000000">tel03 </text>
<text text-anchor="start" x="87.2356" y="-1646.9" font-family="Arial" font-size="14.00" fill="#666666">[text]</text>
<polygon fill="none" stroke="#000000" points="46,-1605.5 46,-1635.5 326,-1635.5 326,-1605.5 46,-1605.5"/>
<text text-anchor="start" x="53" y="-1616.9" font-family="Arial" font-size="14.00" fill="#000000">fax01 </text>
<text text-anchor="start" x="91.129" y="-1616.9" font-family="Arial" font-size="14.00" fill="#666666">[text]</text>
<polygon fill="none" stroke="#000000" points="46,-1575.5 46,-1605.5 326,-1605.5 326,-1575.5 46,-1575.5"/>
<text text-anchor="start" x="53" y="-1586.9" font-family="Arial" font-size="14.00" fill="#000000">fax02 </text>
<text text-anchor="start" x="91.129" y="-1586.9" font-family="Arial" font-size="14.00" fill="#666666">[text]</text>
<polygon fill="none" stroke="#000000" points="46,-1545.5 46,-1575.5 326,-1575.5 326,-1545.5 46,-1545.5"/>
<text text-anchor="start" x="53" y="-1556.9" font-family="Arial" font-size="14.00" fill="#000000">fax03 </text>
<text text-anchor="start" x="91.129" y="-1556.9" font-family="Arial" font-size="14.00" fill="#666666">[text]</text>
<polygon fill="none" stroke="#000000" points="46,-1515.5 46,-1545.5 326,-1545.5 326,-1515.5 46,-1515.5"/>
<text text-anchor="start" x="53" y="-1526.9" font-family="Arial" font-size="14.00" fill="#000000">business_hour </text>
<text text-anchor="start" x="147.9186" y="-1526.9" font-family="Arial" font-size="14.00" fill="#666666">[text]</text>
<polygon fill="none" stroke="#000000" points="46,-1485.5 46,-1515.5 326,-1515.5 326,-1485.5 46,-1485.5"/>
<text text-anchor="start" x="53" y="-1496.9" font-family="Arial" font-size="14.00" fill="#000000">law_company </text>
<text text-anchor="start" x="142.46" y="-1496.9" font-family="Arial" font-size="14.00" fill="#666666">[text]</text>
<polygon fill="none" stroke="#000000" points="46,-1455.5 46,-1485.5 326,-1485.5 326,-1455.5 46,-1455.5"/>
<text text-anchor="start" x="53" y="-1466.9" font-family="Arial" font-size="14.00" fill="#000000">law_manager </text>
<text text-anchor="start" x="140.9032" y="-1466.9" font-family="Arial" font-size="14.00" fill="#666666">[text]</text>
<polygon fill="none" stroke="#000000" points="46,-1425.5 46,-1455.5 326,-1455.5 326,-1425.5 46,-1425.5"/>
<text text-anchor="start" x="53" y="-1436.9" font-family="Arial" font-size="14.00" fill="#000000">law_zip01 </text>
<text text-anchor="start" x="119.1234" y="-1436.9" font-family="Arial" font-size="14.00" fill="#666666">[text]</text>
<polygon fill="none" stroke="#000000" points="46,-1395.5 46,-1425.5 326,-1425.5 326,-1395.5 46,-1395.5"/>
<text text-anchor="start" x="53" y="-1406.9" font-family="Arial" font-size="14.00" fill="#000000">law_zip02 </text>
<text text-anchor="start" x="119.1234" y="-1406.9" font-family="Arial" font-size="14.00" fill="#666666">[text]</text>
<polygon fill="none" stroke="#000000" points="46,-1365.5 46,-1395.5 326,-1395.5 326,-1365.5 46,-1365.5"/>
<text text-anchor="start" x="53" y="-1376.9" font-family="Arial" font-size="14.00" fill="#000000">law_zipcode </text>
<text text-anchor="start" x="133.906" y="-1376.9" font-family="Arial" font-size="14.00" fill="#666666">[text]</text>
<polygon fill="none" stroke="#000000" points="46,-1335.5 46,-1365.5 326,-1365.5 326,-1335.5 46,-1335.5"/>
<text text-anchor="start" x="53" y="-1346.9" font-family="Arial" font-size="14.00" fill="#000000">law_country_id </text>
<text text-anchor="start" x="150.2398" y="-1346.9" font-family="Arial" font-size="14.00" fill="#666666">[integer]</text>
<polygon fill="none" stroke="#000000" points="46,-1305.5 46,-1335.5 326,-1335.5 326,-1305.5 46,-1305.5"/>
<text text-anchor="start" x="53" y="-1316.9" font-family="Arial" font-size="14.00" fill="#000000">law_pref </text>
<text text-anchor="start" x="109.7854" y="-1316.9" font-family="Arial" font-size="14.00" fill="#666666">[smallint]</text>
<polygon fill="none" stroke="#000000" points="46,-1275.5 46,-1305.5 326,-1305.5 326,-1275.5 46,-1275.5"/>
<text text-anchor="start" x="53" y="-1286.9" font-family="Arial" font-size="14.00" fill="#000000">law_addr01 </text>
<text text-anchor="start" x="129.2426" y="-1286.9" font-family="Arial" font-size="14.00" fill="#666666">[text]</text>
<polygon fill="none" stroke="#000000" points="46,-1245.5 46,-1275.5 326,-1275.5 326,-1245.5 46,-1245.5"/>
<text text-anchor="start" x="53" y="-1256.9" font-family="Arial" font-size="14.00" fill="#000000">law_addr02 </text>
<text text-anchor="start" x="129.2426" y="-1256.9" font-family="Arial" font-size="14.00" fill="#666666">[text]</text>
<polygon fill="none" stroke="#000000" points="46,-1215.5 46,-1245.5 326,-1245.5 326,-1215.5 46,-1215.5"/>
<text text-anchor="start" x="53" y="-1226.9" font-family="Arial" font-size="14.00" fill="#000000">law_tel01 </text>
<text text-anchor="start" x="116.014" y="-1226.9" font-family="Arial" font-size="14.00" fill="#666666">[text]</text>
<polygon fill="none" stroke="#000000" points="46,-1185.5 46,-1215.5 326,-1215.5 326,-1185.5 46,-1185.5"/>
<text text-anchor="start" x="53" y="-1196.9" font-family="Arial" font-size="14.00" fill="#000000">law_tel02 </text>
<text text-anchor="start" x="116.014" y="-1196.9" font-family="Arial" font-size="14.00" fill="#666666">[text]</text>
<polygon fill="none" stroke="#000000" points="46,-1155.5 46,-1185.5 326,-1185.5 326,-1155.5 46,-1155.5"/>
<text text-anchor="start" x="53" y="-1166.9" font-family="Arial" font-size="14.00" fill="#000000">law_tel03 </text>
<text text-anchor="start" x="116.014" y="-1166.9" font-family="Arial" font-size="14.00" fill="#666666">[text]</text>
<polygon fill="none" stroke="#000000" points="46,-1125.5 46,-1155.5 326,-1155.5 326,-1125.5 46,-1125.5"/>
<text text-anchor="start" x="53" y="-1136.9" font-family="Arial" font-size="14.00" fill="#000000">law_fax01 </text>
<text text-anchor="start" x="119.9074" y="-1136.9" font-family="Arial" font-size="14.00" fill="#666666">[text]</text>
<polygon fill="none" stroke="#000000" points="46,-1095.5 46,-1125.5 326,-1125.5 326,-1095.5 46,-1095.5"/>
<text text-anchor="start" x="53" y="-1106.9" font-family="Arial" font-size="14.00" fill="#000000">law_fax02 </text>
<text text-anchor="start" x="119.9074" y="-1106.9" font-family="Arial" font-size="14.00" fill="#666666">[text]</text>
<polygon fill="none" stroke="#000000" points="46,-1065.5 46,-1095.5 326,-1095.5 326,-1065.5 46,-1065.5"/>
<text text-anchor="start" x="53" y="-1076.9" font-family="Arial" font-size="14.00" fill="#000000">law_fax03 </text>
<text text-anchor="start" x="119.9074" y="-1076.9" font-family="Arial" font-size="14.00" fill="#666666">[text]</text>
<polygon fill="none" stroke="#000000" points="46,-1035.5 46,-1065.5 326,-1065.5 326,-1035.5 46,-1035.5"/>
<text text-anchor="start" x="53" y="-1046.9" font-family="Arial" font-size="14.00" fill="#000000">law_email </text>
<text text-anchor="start" x="119.108" y="-1046.9" font-family="Arial" font-size="14.00" fill="#666666">[text]</text>
<polygon fill="none" stroke="#000000" points="46,-1005.5 46,-1035.5 326,-1035.5 326,-1005.5 46,-1005.5"/>
<text text-anchor="start" x="53" y="-1016.9" font-family="Arial" font-size="14.00" fill="#000000">law_url </text>
<text text-anchor="start" x="101.2188" y="-1016.9" font-family="Arial" font-size="14.00" fill="#666666">[text]</text>
<polygon fill="none" stroke="#000000" points="46,-975.5 46,-1005.5 326,-1005.5 326,-975.5 46,-975.5"/>
<text text-anchor="start" x="53" y="-986.9" font-family="Arial" font-size="14.00" fill="#000000">law_term01 </text>
<text text-anchor="start" x="129.2286" y="-986.9" font-family="Arial" font-size="14.00" fill="#666666">[text]</text>
<polygon fill="none" stroke="#000000" points="46,-945.5 46,-975.5 326,-975.5 326,-945.5 46,-945.5"/>
<text text-anchor="start" x="53" y="-956.9" font-family="Arial" font-size="14.00" fill="#000000">law_term02 </text>
<text text-anchor="start" x="129.2286" y="-956.9" font-family="Arial" font-size="14.00" fill="#666666">[text]</text>
<polygon fill="none" stroke="#000000" points="46,-915.5 46,-945.5 326,-945.5 326,-915.5 46,-915.5"/>
<text text-anchor="start" x="53" y="-926.9" font-family="Arial" font-size="14.00" fill="#000000">law_term03 </text>
<text text-anchor="start" x="129.2286" y="-926.9" font-family="Arial" font-size="14.00" fill="#666666">[text]</text>
<polygon fill="none" stroke="#000000" points="46,-885.5 46,-915.5 326,-915.5 326,-885.5 46,-885.5"/>
<text text-anchor="start" x="53" y="-896.9" font-family="Arial" font-size="14.00" fill="#000000">law_term04 </text>
<text text-anchor="start" x="129.2286" y="-896.9" font-family="Arial" font-size="14.00" fill="#666666">[text]</text>
<polygon fill="none" stroke="#000000" points="46,-855.5 46,-885.5 326,-885.5 326,-855.5 46,-855.5"/>
<text text-anchor="start" x="53" y="-866.9" font-family="Arial" font-size="14.00" fill="#000000">law_term05 </text>
<text text-anchor="start" x="129.2286" y="-866.9" font-family="Arial" font-size="14.00" fill="#666666">[text]</text>
<polygon fill="none" stroke="#000000" points="46,-825.5 46,-855.5 326,-855.5 326,-825.5 46,-825.5"/>
<text text-anchor="start" x="53" y="-836.9" font-family="Arial" font-size="14.00" fill="#000000">law_term06 </text>
<text text-anchor="start" x="129.2286" y="-836.9" font-family="Arial" font-size="14.00" fill="#666666">[text]</text>
<polygon fill="none" stroke="#000000" points="46,-795.5 46,-825.5 326,-825.5 326,-795.5 46,-795.5"/>
<text text-anchor="start" x="53" y="-806.9" font-family="Arial" font-size="14.00" fill="#000000">law_term07 </text>
<text text-anchor="start" x="129.2286" y="-806.9" font-family="Arial" font-size="14.00" fill="#666666">[text]</text>
<polygon fill="none" stroke="#000000" points="46,-765.5 46,-795.5 326,-795.5 326,-765.5 46,-765.5"/>
<text text-anchor="start" x="53" y="-776.9" font-family="Arial" font-size="14.00" fill="#000000">law_term08 </text>
<text text-anchor="start" x="129.2286" y="-776.9" font-family="Arial" font-size="14.00" fill="#666666">[text]</text>
<polygon fill="none" stroke="#000000" points="46,-735.5 46,-765.5 326,-765.5 326,-735.5 46,-735.5"/>
<text text-anchor="start" x="53" y="-746.9" font-family="Arial" font-size="14.00" fill="#000000">law_term09 </text>
<text text-anchor="start" x="129.2286" y="-746.9" font-family="Arial" font-size="14.00" fill="#666666">[text]</text>
<polygon fill="none" stroke="#000000" points="46,-705.5 46,-735.5 326,-735.5 326,-705.5 46,-705.5"/>
<text text-anchor="start" x="53" y="-716.9" font-family="Arial" font-size="14.00" fill="#000000">law_term10 </text>
<text text-anchor="start" x="129.2286" y="-716.9" font-family="Arial" font-size="14.00" fill="#666666">[text]</text>
<polygon fill="none" stroke="#000000" points="46,-675.5 46,-705.5 326,-705.5 326,-675.5 46,-675.5"/>
<text text-anchor="start" x="53" y="-686.9" font-family="Arial" font-size="14.00" fill="#000000">email01 </text>
<text text-anchor="start" x="105.8948" y="-686.9" font-family="Arial" font-size="14.00" fill="#666666">[text]</text>
<polygon fill="none" stroke="#000000" points="46,-645.5 46,-675.5 326,-675.5 326,-645.5 46,-645.5"/>
<text text-anchor="start" x="53" y="-656.9" font-family="Arial" font-size="14.00" fill="#000000">email02 </text>
<text text-anchor="start" x="105.8948" y="-656.9" font-family="Arial" font-size="14.00" fill="#666666">[text]</text>
<polygon fill="none" stroke="#000000" points="46,-615.5 46,-645.5 326,-645.5 326,-615.5 46,-615.5"/>
<text text-anchor="start" x="53" y="-626.9" font-family="Arial" font-size="14.00" fill="#000000">email03 </text>
<text text-anchor="start" x="105.8948" y="-626.9" font-family="Arial" font-size="14.00" fill="#666666">[text]</text>
<polygon fill="none" stroke="#000000" points="46,-585.5 46,-615.5 326,-615.5 326,-585.5 46,-585.5"/>
<text text-anchor="start" x="53" y="-596.9" font-family="Arial" font-size="14.00" fill="#000000">email04 </text>
<text text-anchor="start" x="105.8948" y="-596.9" font-family="Arial" font-size="14.00" fill="#666666">[text]</text>
<polygon fill="none" stroke="#000000" points="46,-555.5 46,-585.5 326,-585.5 326,-555.5 46,-555.5"/>
<text text-anchor="start" x="53" y="-566.9" font-family="Arial" font-size="14.00" fill="#000000">free_rule </text>
<text text-anchor="start" x="112.122" y="-566.9" font-family="Arial" font-size="14.00" fill="#666666">[numeric]</text>
<polygon fill="none" stroke="#000000" points="46,-525.5 46,-555.5 326,-555.5 326,-525.5 46,-525.5"/>
<text text-anchor="start" x="53" y="-536.9" font-family="Arial" font-size="14.00" fill="#000000">shop_name </text>
<text text-anchor="start" x="130.0294" y="-536.9" font-family="Arial" font-size="14.00" fill="#666666">[text]</text>
<polygon fill="none" stroke="#000000" points="46,-495.5 46,-525.5 326,-525.5 326,-495.5 46,-495.5"/>
<text text-anchor="start" x="53" y="-506.9" font-family="Arial" font-size="14.00" fill="#000000">shop_kana </text>
<text text-anchor="start" x="125.3688" y="-506.9" font-family="Arial" font-size="14.00" fill="#666666">[text]</text>
<polygon fill="none" stroke="#000000" points="46,-465.5 46,-495.5 326,-495.5 326,-465.5 46,-465.5"/>
<text text-anchor="start" x="53" y="-476.9" font-family="Arial" font-size="14.00" fill="#000000">shop_name_eng </text>
<text text-anchor="start" x="161.1598" y="-476.9" font-family="Arial" font-size="14.00" fill="#666666">[text]</text>
<polygon fill="none" stroke="#000000" points="46,-435.5 46,-465.5 326,-465.5 326,-435.5 46,-435.5"/>
<text text-anchor="start" x="53" y="-446.9" font-family="Arial" font-size="14.00" fill="#000000">point_rate </text>
<text text-anchor="start" x="119.1346" y="-446.9" font-family="Arial" font-size="14.00" fill="#666666">[numeric]</text>
<polygon fill="none" stroke="#000000" points="46,-405.5 46,-435.5 326,-435.5 326,-405.5 46,-405.5"/>
<text text-anchor="start" x="53" y="-416.9" font-family="Arial" font-size="14.00" fill="#000000">welcome_point </text>
<text text-anchor="start" x="150.2398" y="-416.9" font-family="Arial" font-size="14.00" fill="#666666">[numeric]</text>
<polygon fill="none" stroke="#000000" points="46,-375.5 46,-405.5 326,-405.5 326,-375.5 46,-375.5"/>
<text text-anchor="start" x="52.5723" y="-386.9" font-family="Arial" font-size="14.00" fill="#000000">update_date </text>
<text text-anchor="start" x="134.2875" y="-386.9" font-family="Arial" font-size="14.00" fill="#666666">[timestamp without time zone]</text>
<polygon fill="none" stroke="#000000" points="46,-345.5 46,-375.5 326,-375.5 326,-345.5 46,-345.5"/>
<text text-anchor="start" x="53" y="-356.9" font-family="Arial" font-size="14.00" fill="#000000">top_tpl </text>
<text text-anchor="start" x="98.9088" y="-356.9" font-family="Arial" font-size="14.00" fill="#666666">[text]</text>
<polygon fill="none" stroke="#000000" points="46,-315.5 46,-345.5 326,-345.5 326,-315.5 46,-315.5"/>
<text text-anchor="start" x="53" y="-326.9" font-family="Arial" font-size="14.00" fill="#000000">product_tpl </text>
<text text-anchor="start" x="126.1346" y="-326.9" font-family="Arial" font-size="14.00" fill="#666666">[text]</text>
<polygon fill="none" stroke="#000000" points="46,-285.5 46,-315.5 326,-315.5 326,-285.5 46,-285.5"/>
<text text-anchor="start" x="53" y="-296.9" font-family="Arial" font-size="14.00" fill="#000000">detail_tpl </text>
<text text-anchor="start" x="112.9046" y="-296.9" font-family="Arial" font-size="14.00" fill="#666666">[text]</text>
<polygon fill="none" stroke="#000000" points="46,-255.5 46,-285.5 326,-285.5 326,-255.5 46,-255.5"/>
<text text-anchor="start" x="53" y="-266.9" font-family="Arial" font-size="14.00" fill="#000000">mypage_tpl </text>
<text text-anchor="start" x="129.244" y="-266.9" font-family="Arial" font-size="14.00" fill="#666666">[text]</text>
<polygon fill="none" stroke="#000000" points="46,-225.5 46,-255.5 326,-255.5 326,-225.5 46,-225.5"/>
<text text-anchor="start" x="53" y="-236.9" font-family="Arial" font-size="14.00" fill="#000000">good_traded </text>
<text text-anchor="start" x="135.4852" y="-236.9" font-family="Arial" font-size="14.00" fill="#666666">[text]</text>
<polygon fill="none" stroke="#000000" points="46,-195.5 46,-225.5 326,-225.5 326,-195.5 46,-195.5"/>
<text text-anchor="start" x="53" y="-206.9" font-family="Arial" font-size="14.00" fill="#000000">message </text>
<text text-anchor="start" x="113.6816" y="-206.9" font-family="Arial" font-size="14.00" fill="#666666">[text]</text>
<polygon fill="none" stroke="#000000" points="46,-165.5 46,-195.5 326,-195.5 326,-165.5 46,-165.5"/>
<text text-anchor="start" x="53" y="-176.9" font-family="Arial" font-size="14.00" fill="#000000">regular_holiday_ids </text>
<text text-anchor="start" x="178.2468" y="-176.9" font-family="Arial" font-size="14.00" fill="#666666">[text]</text>
<polygon fill="none" stroke="#000000" points="46,-135.5 46,-165.5 326,-165.5 326,-135.5 46,-135.5"/>
<text text-anchor="start" x="53" y="-146.9" font-family="Arial" font-size="14.00" fill="#000000">latitude </text>
<text text-anchor="start" x="102.0154" y="-146.9" font-family="Arial" font-size="14.00" fill="#666666">[text]</text>
<polygon fill="none" stroke="#000000" points="46,-105.5 46,-135.5 326,-135.5 326,-105.5 46,-105.5"/>
<text text-anchor="start" x="53" y="-116.9" font-family="Arial" font-size="14.00" fill="#000000">longitude </text>
<text text-anchor="start" x="113.69" y="-116.9" font-family="Arial" font-size="14.00" fill="#666666">[text]</text>
<polygon fill="none" stroke="#000000" points="46,-75.5 46,-105.5 326,-105.5 326,-75.5 46,-75.5"/>
<text text-anchor="start" x="53" y="-86.9" font-family="Arial" font-size="14.00" fill="#000000">downloadable_days </text>
<text text-anchor="start" x="180.6016" y="-86.9" font-family="Arial" font-size="14.00" fill="#666666">[numeric]</text>
<polygon fill="none" stroke="#000000" points="46,-45.5 46,-75.5 326,-75.5 326,-45.5 46,-45.5"/>
<text text-anchor="start" x="53" y="-56.9" font-family="Arial" font-size="14.00" fill="#000000">downloadable_days_unlimited </text>
<text text-anchor="start" x="244.3856" y="-56.9" font-family="Arial" font-size="14.00" fill="#666666">[smallint]</text>
<polygon fill="none" stroke="#000000" stroke-width="3" points="44.5,-44.5 44.5,-2062.5 327.5,-2062.5 327.5,-44.5 44.5,-44.5"/>
</g>
</g>
</svg>
