<?xml version="1.0" encoding="UTF-8" standalone="no"?>
<!DOCTYPE svg PUBLIC "-//W3C//DTD SVG 1.1//EN"
 "http://www.w3.org/Graphics/SVG/1.1/DTD/svg11.dtd">
<!-- Generated by graphviz version 2.40.1 (20161225.0304)
 -->
<!-- Title: public.mtb_status Pages: 1 -->
<svg width="489pt" height="584pt"
 viewBox="0.00 0.00 488.50 584.00" xmlns="http://www.w3.org/2000/svg" xmlns:xlink="http://www.w3.org/1999/xlink">
<g id="graph0" class="graph" transform="scale(1 1) rotate(0) translate(4 580)">
<title>public.mtb_status</title>
<polygon fill="#ffffff" stroke="transparent" points="-4,4 -4,-580 484.5,-580 484.5,4 -4,4"/>
<!-- public.mtb_status -->
<g id="node1" class="node">
<title>public.mtb_status</title>
<polygon fill="#efefef" stroke="transparent" points="142,-136 142,-182 393,-182 393,-136 142,-136"/>
<polygon fill="none" stroke="#000000" points="142,-136 142,-182 393,-182 393,-136 142,-136"/>
<text text-anchor="start" x="148.8567" y="-159.8" font-family="Arial Bold" font-size="18.00" fill="#000000">public.mtb_status</text>
<text text-anchor="start" x="288.8895" y="-159.8" font-family="Arial" font-size="14.00" fill="#000000"> </text>
<text text-anchor="start" x="292.7801" y="-159.8" font-family="Arial" font-size="14.00" fill="#666666">[BASE TABLE]</text>
<text text-anchor="start" x="215.273" y="-145.4" font-family="Arial" font-size="14.00" fill="#333333">商品ステータス</text>
<polygon fill="none" stroke="#000000" points="142,-106 142,-136 393,-136 393,-106 142,-106"/>
<text text-anchor="start" x="149" y="-117.4" font-family="Arial" font-size="14.00" fill="#000000">id </text>
<text text-anchor="start" x="163.7798" y="-117.4" font-family="Arial" font-size="14.00" fill="#666666">[smallint]</text>
<text text-anchor="start" x="218.9972" y="-117.4" font-family="Arial" font-size="14.00" fill="#000000"> ID</text>
<polygon fill="none" stroke="#000000" points="142,-76 142,-106 393,-106 393,-76 142,-76"/>
<text text-anchor="start" x="149" y="-87.4" font-family="Arial" font-size="14.00" fill="#000000">name </text>
<text text-anchor="start" x="187.899" y="-87.4" font-family="Arial" font-size="14.00" fill="#666666">[text]</text>
<text text-anchor="start" x="218.244" y="-87.4" font-family="Arial" font-size="14.00" fill="#000000"> 名称</text>
<polygon fill="none" stroke="#000000" points="142,-46 142,-76 393,-76 393,-46 142,-46"/>
<text text-anchor="start" x="149" y="-57.4" font-family="Arial" font-size="14.00" fill="#000000">rank </text>
<text text-anchor="start" x="180.1164" y="-57.4" font-family="Arial" font-size="14.00" fill="#666666">[smallint]</text>
<text text-anchor="start" x="235.3338" y="-57.4" font-family="Arial" font-size="14.00" fill="#000000"> 表示順</text>
<polygon fill="none" stroke="#000000" stroke-width="3" points="140,-44.5 140,-183.5 394,-183.5 394,-44.5 140,-44.5"/>
</g>
<!-- public.dtb_product_status -->
<g id="node2" class="node">
<title>public.dtb_product_status</title>
<polygon fill="#efefef" stroke="transparent" points="97,-487 97,-533 438,-533 438,-487 97,-487"/>
<polygon fill="none" stroke="#000000" points="97,-487 97,-533 438,-533 438,-487 97,-487"/>
<text text-anchor="start" x="116.337" y="-510.8" font-family="Arial Bold" font-size="18.00" fill="#000000">public.dtb_product_status</text>
<text text-anchor="start" x="321.4092" y="-510.8" font-family="Arial" font-size="14.00" fill="#000000"> </text>
<text text-anchor="start" x="325.2998" y="-510.8" font-family="Arial" font-size="14.00" fill="#666666">[BASE TABLE]</text>
<text text-anchor="start" x="201.6552" y="-496.4" font-family="Arial" font-size="14.00" fill="#333333">商品ステータス情報</text>
<polygon fill="none" stroke="#000000" points="97,-457 97,-487 438,-487 438,-457 97,-457"/>
<text text-anchor="start" x="104" y="-468.4" font-family="Arial" font-size="14.00" fill="#000000">product_status_id </text>
<text text-anchor="start" x="218.373" y="-468.4" font-family="Arial" font-size="14.00" fill="#666666">[smallint]</text>
<text text-anchor="start" x="273.5904" y="-468.4" font-family="Arial" font-size="14.00" fill="#000000"> 商品ステータスID</text>
<polygon fill="none" stroke="#000000" points="97,-427 97,-457 438,-457 438,-427 97,-427"/>
<text text-anchor="start" x="104" y="-438.4" font-family="Arial" font-size="14.00" fill="#000000">product_id </text>
<text text-anchor="start" x="173.244" y="-438.4" font-family="Arial" font-size="14.00" fill="#666666">[integer]</text>
<text text-anchor="start" x="223.8134" y="-438.4" font-family="Arial" font-size="14.00" fill="#000000"> 商品ID</text>
<polygon fill="none" stroke="#000000" points="97,-397 97,-427 438,-427 438,-397 97,-397"/>
<text text-anchor="start" x="104" y="-408.4" font-family="Arial" font-size="14.00" fill="#000000">creator_id </text>
<text text-anchor="start" x="170.122" y="-408.4" font-family="Arial" font-size="14.00" fill="#666666">[integer]</text>
<text text-anchor="start" x="220.6914" y="-408.4" font-family="Arial" font-size="14.00" fill="#000000"> 作成者ID</text>
<polygon fill="none" stroke="#000000" points="97,-367 97,-397 438,-397 438,-367 97,-367"/>
<text text-anchor="start" x="103.735" y="-378.4" font-family="Arial" font-size="14.00" fill="#000000">create_date </text>
<text text-anchor="start" x="181.5456" y="-378.4" font-family="Arial" font-size="14.00" fill="#666666">[timestamp without time zone]</text>
<text text-anchor="start" x="366.6858" y="-378.4" font-family="Arial" font-size="14.00" fill="#000000"> 作成日時</text>
<polygon fill="none" stroke="#000000" points="97,-337 97,-367 438,-367 438,-337 97,-337"/>
<text text-anchor="start" x="104" y="-348.4" font-family="Arial" font-size="14.00" fill="#000000">update_date </text>
<text text-anchor="start" x="185.7152" y="-348.4" font-family="Arial" font-size="14.00" fill="#666666">[timestamp without time zone]</text>
<text text-anchor="start" x="370.8554" y="-348.4" font-family="Arial" font-size="14.00" fill="#000000"> 更新日時</text>
<polygon fill="none" stroke="#000000" points="97,-307 97,-337 438,-337 438,-307 97,-307"/>
<text text-anchor="start" x="104" y="-318.4" font-family="Arial" font-size="14.00" fill="#000000">del_flg </text>
<text text-anchor="start" x="149.1248" y="-318.4" font-family="Arial" font-size="14.00" fill="#666666">[smallint]</text>
<text text-anchor="start" x="204.3422" y="-318.4" font-family="Arial" font-size="14.00" fill="#000000"> 削除フラグ</text>
</g>
<!-- public.dtb_product_status&#45;&gt;public.mtb_status -->
<g id="edge1" class="edge">
<title>public.dtb_product_status:product_status_id&#45;&gt;public.mtb_status:id</title>
<path fill="none" stroke="#000000" stroke-dasharray="5,2" d="M87.1426,-469.9387C22.4724,-441.1732 66.8942,-121 142,-121"/>
<polygon fill="#000000" stroke="#000000" points="87.2117,-469.9531 96.0789,-476.4047 92.1059,-470.9765 97,-472 97,-472 97,-472 92.1059,-470.9765 97.9211,-467.5953 87.2117,-469.9531 87.2117,-469.9531"/>
<text text-anchor="start" x="7.3245" y="-482" font-family="Arial" font-size="10.00" fill="#000000">Additional Relation</text>
</g>
</g>
</svg>
