<?xml version="1.0" encoding="UTF-8" standalone="no"?>
<!DOCTYPE svg PUBLIC "-//W3C//DTD SVG 1.1//EN"
 "http://www.w3.org/Graphics/SVG/1.1/DTD/svg11.dtd">
<!-- Generated by graphviz version 2.40.1 (20161225.0304)
 -->
<!-- Title: public.dtb_customer_favorite_products Pages: 1 -->
<svg width="520pt" height="255pt"
 viewBox="0.00 0.00 520.00 255.00" xmlns="http://www.w3.org/2000/svg" xmlns:xlink="http://www.w3.org/1999/xlink">
<g id="graph0" class="graph" transform="scale(1 1) rotate(0) translate(4 251)">
<title>public.dtb_customer_favorite_products</title>
<polygon fill="#ffffff" stroke="transparent" points="-4,4 -4,-251 516,-251 516,4 -4,4"/>
<!-- public.dtb_customer_favorite_products -->
<g id="node1" class="node">
<title>public.dtb_customer_favorite_products</title>
<polygon fill="#efefef" stroke="transparent" points="46,-165.5 46,-200.5 466,-200.5 466,-165.5 46,-165.5"/>
<polygon fill="none" stroke="#000000" points="46,-165.5 46,-200.5 466,-200.5 466,-165.5 46,-165.5"/>
<text text-anchor="start" x="52.835" y="-178.3" font-family="Arial Bold" font-size="18.00" fill="#000000">public.dtb_customer_favorite_products</text>
<text text-anchor="start" x="361.9112" y="-178.3" font-family="Arial" font-size="14.00" fill="#000000"> </text>
<text text-anchor="start" x="365.8018" y="-178.3" font-family="Arial" font-size="14.00" fill="#666666">[BASE TABLE]</text>
<polygon fill="none" stroke="#000000" points="46,-135.5 46,-165.5 466,-165.5 466,-135.5 46,-135.5"/>
<text text-anchor="start" x="53" y="-146.9" font-family="Arial" font-size="14.00" fill="#000000">customer_id </text>
<text text-anchor="start" x="133.122" y="-146.9" font-family="Arial" font-size="14.00" fill="#666666">[integer]</text>
<polygon fill="none" stroke="#000000" points="46,-105.5 46,-135.5 466,-135.5 466,-105.5 46,-105.5"/>
<text text-anchor="start" x="53" y="-116.9" font-family="Arial" font-size="14.00" fill="#000000">product_id </text>
<text text-anchor="start" x="122.244" y="-116.9" font-family="Arial" font-size="14.00" fill="#666666">[integer]</text>
<polygon fill="none" stroke="#000000" points="46,-75.5 46,-105.5 466,-105.5 466,-75.5 46,-75.5"/>
<text text-anchor="start" x="53" y="-86.9" font-family="Arial" font-size="14.00" fill="#000000">create_date </text>
<text text-anchor="start" x="130.8106" y="-86.9" font-family="Arial" font-size="14.00" fill="#666666">[timestamp without time zone]</text>
<polygon fill="none" stroke="#000000" points="46,-45.5 46,-75.5 466,-75.5 466,-45.5 46,-45.5"/>
<text text-anchor="start" x="53" y="-56.9" font-family="Arial" font-size="14.00" fill="#000000">update_date </text>
<text text-anchor="start" x="134.7152" y="-56.9" font-family="Arial" font-size="14.00" fill="#666666">[timestamp without time zone]</text>
<polygon fill="none" stroke="#000000" stroke-width="3" points="44.5,-44.5 44.5,-202.5 467.5,-202.5 467.5,-44.5 44.5,-44.5"/>
</g>
</g>
</svg>
