<?xml version="1.0" encoding="UTF-8" standalone="no"?>
<!DOCTYPE svg PUBLIC "-//W3C//DTD SVG 1.1//EN"
 "http://www.w3.org/Graphics/SVG/1.1/DTD/svg11.dtd">
<!-- Generated by graphviz version 2.40.1 (20161225.0304)
 -->
<!-- Title: public.mtb_zip Pages: 1 -->
<svg width="326pt" height="296pt"
 viewBox="0.00 0.00 326.00 296.00" xmlns="http://www.w3.org/2000/svg" xmlns:xlink="http://www.w3.org/1999/xlink">
<g id="graph0" class="graph" transform="scale(1 1) rotate(0) translate(4 292)">
<title>public.mtb_zip</title>
<polygon fill="#ffffff" stroke="transparent" points="-4,4 -4,-292 322,-292 322,4 -4,4"/>
<!-- public.mtb_zip -->
<g id="node1" class="node">
<title>public.mtb_zip</title>
<polygon fill="#efefef" stroke="transparent" points="46,-196 46,-242 272,-242 272,-196 46,-196"/>
<polygon fill="none" stroke="#000000" points="46,-196 46,-242 272,-242 272,-196 46,-196"/>
<text text-anchor="start" x="52.8649" y="-219.8" font-family="Arial Bold" font-size="18.00" fill="#000000">public.mtb_zip</text>
<text text-anchor="start" x="167.8813" y="-219.8" font-family="Arial" font-size="14.00" fill="#000000"> </text>
<text text-anchor="start" x="171.7719" y="-219.8" font-family="Arial" font-size="14.00" fill="#666666">[BASE TABLE]</text>
<text text-anchor="start" x="128.9364" y="-205.4" font-family="Arial" font-size="14.00" fill="#333333">郵便番号</text>
<polygon fill="none" stroke="#000000" points="46,-166 46,-196 272,-196 272,-166 46,-166"/>
<text text-anchor="start" x="53" y="-177.4" font-family="Arial" font-size="14.00" fill="#000000">zip_id </text>
<text text-anchor="start" x="93.4516" y="-177.4" font-family="Arial" font-size="14.00" fill="#666666">[integer]</text>
<text text-anchor="start" x="144.021" y="-177.4" font-family="Arial" font-size="14.00" fill="#000000"> 郵便番号ID</text>
<polygon fill="none" stroke="#000000" points="46,-136 46,-166 272,-166 272,-136 46,-136"/>
<text text-anchor="start" x="53" y="-147.4" font-family="Arial" font-size="14.00" fill="#000000">zipcode </text>
<text text-anchor="start" x="105.1276" y="-147.4" font-family="Arial" font-size="14.00" fill="#666666">[text]</text>
<text text-anchor="start" x="135.4726" y="-147.4" font-family="Arial" font-size="14.00" fill="#000000"> 郵便番号(7桁)</text>
<polygon fill="none" stroke="#000000" points="46,-106 46,-136 272,-136 272,-106 46,-106"/>
<text text-anchor="start" x="53" y="-117.4" font-family="Arial" font-size="14.00" fill="#000000">state </text>
<text text-anchor="start" x="87.237" y="-117.4" font-family="Arial" font-size="14.00" fill="#666666">[text]</text>
<text text-anchor="start" x="117.582" y="-117.4" font-family="Arial" font-size="14.00" fill="#000000"> 都道府県</text>
<polygon fill="none" stroke="#000000" points="46,-76 46,-106 272,-106 272,-76 46,-76"/>
<text text-anchor="start" x="53" y="-87.4" font-family="Arial" font-size="14.00" fill="#000000">city </text>
<text text-anchor="start" x="77.8878" y="-87.4" font-family="Arial" font-size="14.00" fill="#666666">[text]</text>
<text text-anchor="start" x="108.2328" y="-87.4" font-family="Arial" font-size="14.00" fill="#000000"> 市区町村</text>
<polygon fill="none" stroke="#000000" points="46,-46 46,-76 272,-76 272,-46 46,-46"/>
<text text-anchor="start" x="53" y="-57.4" font-family="Arial" font-size="14.00" fill="#000000">town </text>
<text text-anchor="start" x="86.453" y="-57.4" font-family="Arial" font-size="14.00" fill="#666666">[text]</text>
<text text-anchor="start" x="116.798" y="-57.4" font-family="Arial" font-size="14.00" fill="#000000"> 町域</text>
<polygon fill="none" stroke="#000000" stroke-width="3" points="44.5,-44.5 44.5,-243.5 273.5,-243.5 273.5,-44.5 44.5,-44.5"/>
</g>
</g>
</svg>
