<?xml version="1.0" encoding="UTF-8" standalone="no"?>
<!DOCTYPE svg PUBLIC "-//W3C//DTD SVG 1.1//EN"
 "http://www.w3.org/Graphics/SVG/1.1/DTD/svg11.dtd">
<!-- Generated by graphviz version 2.40.1 (20161225.0304)
 -->
<!-- Title: public.dtb_best_products Pages: 1 -->
<svg width="1361pt" height="1964pt"
 viewBox="0.00 0.00 1361.00 1964.00" xmlns="http://www.w3.org/2000/svg" xmlns:xlink="http://www.w3.org/1999/xlink">
<g id="graph0" class="graph" transform="scale(1 1) rotate(0) translate(4 1960)">
<title>public.dtb_best_products</title>
<polygon fill="#ffffff" stroke="transparent" points="-4,4 -4,-1960 1357,-1960 1357,4 -4,4"/>
<!-- public.dtb_best_products -->
<g id="node1" class="node">
<title>public.dtb_best_products</title>
<polygon fill="#efefef" stroke="transparent" points="488.5,-1864 488.5,-1910 829.5,-1910 829.5,-1864 488.5,-1864"/>
<polygon fill="none" stroke="#000000" points="488.5,-1864 488.5,-1910 829.5,-1910 829.5,-1864 488.5,-1864"/>
<text text-anchor="start" x="510.3381" y="-1887.8" font-family="Arial Bold" font-size="18.00" fill="#000000">public.dtb_best_products</text>
<text text-anchor="start" x="710.4081" y="-1887.8" font-family="Arial" font-size="14.00" fill="#000000"> </text>
<text text-anchor="start" x="714.2987" y="-1887.8" font-family="Arial" font-size="14.00" fill="#666666">[BASE TABLE]</text>
<text text-anchor="start" x="607.7908" y="-1873.4" font-family="Arial" font-size="14.00" fill="#333333">おすすめ商品情報</text>
<polygon fill="none" stroke="#000000" points="488.5,-1834 488.5,-1864 829.5,-1864 829.5,-1834 488.5,-1834"/>
<text text-anchor="start" x="495.5" y="-1845.4" font-family="Arial" font-size="14.00" fill="#000000">best_id </text>
<text text-anchor="start" x="544.5182" y="-1845.4" font-family="Arial" font-size="14.00" fill="#666666">[integer]</text>
<text text-anchor="start" x="595.0876" y="-1845.4" font-family="Arial" font-size="14.00" fill="#000000"> ベスト商品ID</text>
<polygon fill="none" stroke="#000000" points="488.5,-1804 488.5,-1834 829.5,-1834 829.5,-1804 488.5,-1804"/>
<text text-anchor="start" x="495.5" y="-1815.4" font-family="Arial" font-size="14.00" fill="#000000">category_id </text>
<text text-anchor="start" x="571.744" y="-1815.4" font-family="Arial" font-size="14.00" fill="#666666">[integer]</text>
<text text-anchor="start" x="622.3134" y="-1815.4" font-family="Arial" font-size="14.00" fill="#000000"> カテゴリID</text>
<polygon fill="none" stroke="#000000" points="488.5,-1774 488.5,-1804 829.5,-1804 829.5,-1774 488.5,-1774"/>
<text text-anchor="start" x="495.5" y="-1785.4" font-family="Arial" font-size="14.00" fill="#000000">rank </text>
<text text-anchor="start" x="526.6164" y="-1785.4" font-family="Arial" font-size="14.00" fill="#666666">[integer]</text>
<text text-anchor="start" x="577.1858" y="-1785.4" font-family="Arial" font-size="14.00" fill="#000000"> 表示順</text>
<polygon fill="none" stroke="#000000" points="488.5,-1744 488.5,-1774 829.5,-1774 829.5,-1744 488.5,-1744"/>
<text text-anchor="start" x="495.5" y="-1755.4" font-family="Arial" font-size="14.00" fill="#000000">product_id </text>
<text text-anchor="start" x="564.744" y="-1755.4" font-family="Arial" font-size="14.00" fill="#666666">[integer]</text>
<text text-anchor="start" x="615.3134" y="-1755.4" font-family="Arial" font-size="14.00" fill="#000000"> 商品ID</text>
<polygon fill="none" stroke="#000000" points="488.5,-1714 488.5,-1744 829.5,-1744 829.5,-1714 488.5,-1714"/>
<text text-anchor="start" x="495.5" y="-1725.4" font-family="Arial" font-size="14.00" fill="#000000">title </text>
<text text-anchor="start" x="521.1676" y="-1725.4" font-family="Arial" font-size="14.00" fill="#666666">[text]</text>
<text text-anchor="start" x="551.5126" y="-1725.4" font-family="Arial" font-size="14.00" fill="#000000"> タイトル</text>
<polygon fill="none" stroke="#000000" points="488.5,-1684 488.5,-1714 829.5,-1714 829.5,-1684 488.5,-1684"/>
<text text-anchor="start" x="495.5" y="-1695.4" font-family="Arial" font-size="14.00" fill="#000000">comment </text>
<text text-anchor="start" x="556.9502" y="-1695.4" font-family="Arial" font-size="14.00" fill="#666666">[text]</text>
<text text-anchor="start" x="587.2952" y="-1695.4" font-family="Arial" font-size="14.00" fill="#000000"> コメント</text>
<polygon fill="none" stroke="#000000" points="488.5,-1654 488.5,-1684 829.5,-1684 829.5,-1654 488.5,-1654"/>
<text text-anchor="start" x="495.5" y="-1665.4" font-family="Arial" font-size="14.00" fill="#000000">creator_id </text>
<text text-anchor="start" x="561.622" y="-1665.4" font-family="Arial" font-size="14.00" fill="#666666">[integer]</text>
<text text-anchor="start" x="612.1914" y="-1665.4" font-family="Arial" font-size="14.00" fill="#000000"> 作成者ID</text>
<polygon fill="none" stroke="#000000" points="488.5,-1624 488.5,-1654 829.5,-1654 829.5,-1624 488.5,-1624"/>
<text text-anchor="start" x="495.235" y="-1635.4" font-family="Arial" font-size="14.00" fill="#000000">create_date </text>
<text text-anchor="start" x="573.0456" y="-1635.4" font-family="Arial" font-size="14.00" fill="#666666">[timestamp without time zone]</text>
<text text-anchor="start" x="758.1858" y="-1635.4" font-family="Arial" font-size="14.00" fill="#000000"> 作成日時</text>
<polygon fill="none" stroke="#000000" points="488.5,-1594 488.5,-1624 829.5,-1624 829.5,-1594 488.5,-1594"/>
<text text-anchor="start" x="495.5" y="-1605.4" font-family="Arial" font-size="14.00" fill="#000000">update_date </text>
<text text-anchor="start" x="577.2152" y="-1605.4" font-family="Arial" font-size="14.00" fill="#666666">[timestamp without time zone]</text>
<text text-anchor="start" x="762.3554" y="-1605.4" font-family="Arial" font-size="14.00" fill="#000000"> 更新日時</text>
<polygon fill="none" stroke="#000000" points="488.5,-1564 488.5,-1594 829.5,-1594 829.5,-1564 488.5,-1564"/>
<text text-anchor="start" x="495.5" y="-1575.4" font-family="Arial" font-size="14.00" fill="#000000">del_flg </text>
<text text-anchor="start" x="540.6248" y="-1575.4" font-family="Arial" font-size="14.00" fill="#666666">[smallint]</text>
<text text-anchor="start" x="595.8422" y="-1575.4" font-family="Arial" font-size="14.00" fill="#000000"> 削除フラグ</text>
<polygon fill="none" stroke="#000000" stroke-width="3" points="486.5,-1562.5 486.5,-1911.5 830.5,-1911.5 830.5,-1562.5 486.5,-1562.5"/>
</g>
<!-- public.dtb_category -->
<g id="node2" class="node">
<title>public.dtb_category</title>
<polygon fill="#efefef" stroke="transparent" points="43.5,-853 43.5,-899 384.5,-899 384.5,-853 43.5,-853"/>
<polygon fill="none" stroke="#000000" points="43.5,-853 43.5,-899 384.5,-899 384.5,-853 43.5,-853"/>
<text text-anchor="start" x="87.3485" y="-876.8" font-family="Arial Bold" font-size="18.00" fill="#000000">public.dtb_category</text>
<text text-anchor="start" x="243.3977" y="-876.8" font-family="Arial" font-size="14.00" fill="#000000"> </text>
<text text-anchor="start" x="247.2883" y="-876.8" font-family="Arial" font-size="14.00" fill="#666666">[BASE TABLE]</text>
<text text-anchor="start" x="172.1316" y="-862.4" font-family="Arial" font-size="14.00" fill="#333333">カテゴリ情報</text>
<polygon fill="none" stroke="#000000" points="43.5,-823 43.5,-853 384.5,-853 384.5,-823 43.5,-823"/>
<text text-anchor="start" x="50.5" y="-834.4" font-family="Arial" font-size="14.00" fill="#000000">category_id </text>
<text text-anchor="start" x="126.744" y="-834.4" font-family="Arial" font-size="14.00" fill="#666666">[integer]</text>
<text text-anchor="start" x="177.3134" y="-834.4" font-family="Arial" font-size="14.00" fill="#000000"> カテゴリID</text>
<polygon fill="none" stroke="#000000" points="43.5,-793 43.5,-823 384.5,-823 384.5,-793 43.5,-793"/>
<text text-anchor="start" x="50.5" y="-804.4" font-family="Arial" font-size="14.00" fill="#000000">category_name </text>
<text text-anchor="start" x="150.8632" y="-804.4" font-family="Arial" font-size="14.00" fill="#666666">[text]</text>
<text text-anchor="start" x="181.2082" y="-804.4" font-family="Arial" font-size="14.00" fill="#000000"> カテゴリ名</text>
<polygon fill="none" stroke="#000000" points="43.5,-763 43.5,-793 384.5,-793 384.5,-763 43.5,-763"/>
<text text-anchor="start" x="50.5" y="-774.4" font-family="Arial" font-size="14.00" fill="#000000">parent_category_id </text>
<text text-anchor="start" x="174.2082" y="-774.4" font-family="Arial" font-size="14.00" fill="#666666">[integer]</text>
<text text-anchor="start" x="224.7776" y="-774.4" font-family="Arial" font-size="14.00" fill="#000000"> 親カテゴリID</text>
<polygon fill="none" stroke="#000000" points="43.5,-733 43.5,-763 384.5,-763 384.5,-733 43.5,-733"/>
<text text-anchor="start" x="50.5" y="-744.4" font-family="Arial" font-size="14.00" fill="#000000">level </text>
<text text-anchor="start" x="83.169" y="-744.4" font-family="Arial" font-size="14.00" fill="#666666">[integer]</text>
<text text-anchor="start" x="133.7384" y="-744.4" font-family="Arial" font-size="14.00" fill="#000000"> 階層</text>
<polygon fill="none" stroke="#000000" points="43.5,-703 43.5,-733 384.5,-733 384.5,-703 43.5,-703"/>
<text text-anchor="start" x="50.5" y="-714.4" font-family="Arial" font-size="14.00" fill="#000000">rank </text>
<text text-anchor="start" x="81.6164" y="-714.4" font-family="Arial" font-size="14.00" fill="#666666">[integer]</text>
<text text-anchor="start" x="132.1858" y="-714.4" font-family="Arial" font-size="14.00" fill="#000000"> 表示順</text>
<polygon fill="none" stroke="#000000" points="43.5,-673 43.5,-703 384.5,-703 384.5,-673 43.5,-673"/>
<text text-anchor="start" x="50.5" y="-684.4" font-family="Arial" font-size="14.00" fill="#000000">creator_id </text>
<text text-anchor="start" x="116.622" y="-684.4" font-family="Arial" font-size="14.00" fill="#666666">[integer]</text>
<text text-anchor="start" x="167.1914" y="-684.4" font-family="Arial" font-size="14.00" fill="#000000"> 作成者ID</text>
<polygon fill="none" stroke="#000000" points="43.5,-643 43.5,-673 384.5,-673 384.5,-643 43.5,-643"/>
<text text-anchor="start" x="50.235" y="-654.4" font-family="Arial" font-size="14.00" fill="#000000">create_date </text>
<text text-anchor="start" x="128.0456" y="-654.4" font-family="Arial" font-size="14.00" fill="#666666">[timestamp without time zone]</text>
<text text-anchor="start" x="313.1858" y="-654.4" font-family="Arial" font-size="14.00" fill="#000000"> 作成日時</text>
<polygon fill="none" stroke="#000000" points="43.5,-613 43.5,-643 384.5,-643 384.5,-613 43.5,-613"/>
<text text-anchor="start" x="50.5" y="-624.4" font-family="Arial" font-size="14.00" fill="#000000">update_date </text>
<text text-anchor="start" x="132.2152" y="-624.4" font-family="Arial" font-size="14.00" fill="#666666">[timestamp without time zone]</text>
<text text-anchor="start" x="317.3554" y="-624.4" font-family="Arial" font-size="14.00" fill="#000000"> 更新日時</text>
<polygon fill="none" stroke="#000000" points="43.5,-583 43.5,-613 384.5,-613 384.5,-583 43.5,-583"/>
<text text-anchor="start" x="50.5" y="-594.4" font-family="Arial" font-size="14.00" fill="#000000">del_flg </text>
<text text-anchor="start" x="95.6248" y="-594.4" font-family="Arial" font-size="14.00" fill="#666666">[smallint]</text>
<text text-anchor="start" x="150.8422" y="-594.4" font-family="Arial" font-size="14.00" fill="#000000"> 削除フラグ</text>
</g>
<!-- public.dtb_best_products&#45;&gt;public.dtb_category -->
<g id="edge1" class="edge">
<title>public.dtb_best_products:category_id&#45;&gt;public.dtb_category:category_id</title>
<path fill="none" stroke="#000000" stroke-dasharray="5,2" d="M478.2758,-1818.6956C342.2635,-1810.2809 452.8591,-1629.0441 435.5,-1482 427.0846,-1410.7154 456.2796,-838 384.5,-838"/>
<polygon fill="#000000" stroke="#000000" points="478.5044,-1818.7024 488.3661,-1823.498 483.5022,-1818.8512 488.5,-1819 488.5,-1819 488.5,-1819 483.5022,-1818.8512 488.6339,-1814.502 478.5044,-1818.7024 478.5044,-1818.7024"/>
<text text-anchor="start" x="398.8245" y="-1829" font-family="Arial" font-size="10.00" fill="#000000">Additional Relation</text>
</g>
<!-- public.dtb_products -->
<g id="node3" class="node">
<title>public.dtb_products</title>
<polygon fill="#efefef" stroke="transparent" points="488.5,-1393 488.5,-1439 829.5,-1439 829.5,-1393 488.5,-1393"/>
<polygon fill="none" stroke="#000000" points="488.5,-1393 488.5,-1439 829.5,-1439 829.5,-1393 488.5,-1393"/>
<text text-anchor="start" x="532.3485" y="-1416.8" font-family="Arial Bold" font-size="18.00" fill="#000000">public.dtb_products</text>
<text text-anchor="start" x="688.3977" y="-1416.8" font-family="Arial" font-size="14.00" fill="#000000"> </text>
<text text-anchor="start" x="692.2883" y="-1416.8" font-family="Arial" font-size="14.00" fill="#666666">[BASE TABLE]</text>
<text text-anchor="start" x="633.7104" y="-1402.4" font-family="Arial" font-size="14.00" fill="#333333">商品情報</text>
<polygon fill="none" stroke="#000000" points="488.5,-1363 488.5,-1393 829.5,-1393 829.5,-1363 488.5,-1363"/>
<text text-anchor="start" x="495.5" y="-1374.4" font-family="Arial" font-size="14.00" fill="#000000">product_id </text>
<text text-anchor="start" x="564.744" y="-1374.4" font-family="Arial" font-size="14.00" fill="#666666">[integer]</text>
<text text-anchor="start" x="615.3134" y="-1374.4" font-family="Arial" font-size="14.00" fill="#000000"> 商品ID</text>
<polygon fill="none" stroke="#000000" points="488.5,-1333 488.5,-1363 829.5,-1363 829.5,-1333 488.5,-1333"/>
<text text-anchor="start" x="495.5" y="-1344.4" font-family="Arial" font-size="14.00" fill="#000000">name </text>
<text text-anchor="start" x="534.399" y="-1344.4" font-family="Arial" font-size="14.00" fill="#666666">[text]</text>
<text text-anchor="start" x="564.744" y="-1344.4" font-family="Arial" font-size="14.00" fill="#000000"> 商品名</text>
<polygon fill="none" stroke="#000000" points="488.5,-1303 488.5,-1333 829.5,-1333 829.5,-1303 488.5,-1303"/>
<text text-anchor="start" x="495.5" y="-1314.4" font-family="Arial" font-size="14.00" fill="#000000">maker_id </text>
<text text-anchor="start" x="556.9488" y="-1314.4" font-family="Arial" font-size="14.00" fill="#666666">[integer]</text>
<text text-anchor="start" x="607.5182" y="-1314.4" font-family="Arial" font-size="14.00" fill="#000000"> メーカーID</text>
<polygon fill="none" stroke="#000000" points="488.5,-1273 488.5,-1303 829.5,-1303 829.5,-1273 488.5,-1273"/>
<text text-anchor="start" x="495.5" y="-1284.4" font-family="Arial" font-size="14.00" fill="#000000">status </text>
<text text-anchor="start" x="536.737" y="-1284.4" font-family="Arial" font-size="14.00" fill="#666666">[smallint]</text>
<text text-anchor="start" x="591.9544" y="-1284.4" font-family="Arial" font-size="14.00" fill="#000000"> 表示ステータス</text>
<polygon fill="none" stroke="#000000" points="488.5,-1243 488.5,-1273 829.5,-1273 829.5,-1243 488.5,-1243"/>
<text text-anchor="start" x="495.5" y="-1254.4" font-family="Arial" font-size="14.00" fill="#000000">comment1 </text>
<text text-anchor="start" x="564.7328" y="-1254.4" font-family="Arial" font-size="14.00" fill="#666666">[text]</text>
<text text-anchor="start" x="595.0778" y="-1254.4" font-family="Arial" font-size="14.00" fill="#000000"> コメント1(メーカーURL)</text>
<polygon fill="none" stroke="#000000" points="488.5,-1213 488.5,-1243 829.5,-1243 829.5,-1213 488.5,-1213"/>
<text text-anchor="start" x="495.5" y="-1224.4" font-family="Arial" font-size="14.00" fill="#000000">comment2 </text>
<text text-anchor="start" x="564.7328" y="-1224.4" font-family="Arial" font-size="14.00" fill="#666666">[text]</text>
<text text-anchor="start" x="595.0778" y="-1224.4" font-family="Arial" font-size="14.00" fill="#000000"> コメント2</text>
<polygon fill="none" stroke="#000000" points="488.5,-1183 488.5,-1213 829.5,-1213 829.5,-1183 488.5,-1183"/>
<text text-anchor="start" x="495.5" y="-1194.4" font-family="Arial" font-size="14.00" fill="#000000">comment3 </text>
<text text-anchor="start" x="564.7328" y="-1194.4" font-family="Arial" font-size="14.00" fill="#666666">[text]</text>
<text text-anchor="start" x="595.0778" y="-1194.4" font-family="Arial" font-size="14.00" fill="#000000"> コメント3(検索ワード)</text>
<polygon fill="none" stroke="#000000" points="488.5,-1153 488.5,-1183 829.5,-1183 829.5,-1153 488.5,-1153"/>
<text text-anchor="start" x="495.5" y="-1164.4" font-family="Arial" font-size="14.00" fill="#000000">comment4 </text>
<text text-anchor="start" x="564.7328" y="-1164.4" font-family="Arial" font-size="14.00" fill="#666666">[text]</text>
<text text-anchor="start" x="595.0778" y="-1164.4" font-family="Arial" font-size="14.00" fill="#000000"> コメント4</text>
<polygon fill="none" stroke="#000000" points="488.5,-1123 488.5,-1153 829.5,-1153 829.5,-1123 488.5,-1123"/>
<text text-anchor="start" x="495.5" y="-1134.4" font-family="Arial" font-size="14.00" fill="#000000">comment5 </text>
<text text-anchor="start" x="564.7328" y="-1134.4" font-family="Arial" font-size="14.00" fill="#666666">[text]</text>
<text text-anchor="start" x="595.0778" y="-1134.4" font-family="Arial" font-size="14.00" fill="#000000"> コメント5</text>
<polygon fill="none" stroke="#000000" points="488.5,-1093 488.5,-1123 829.5,-1123 829.5,-1093 488.5,-1093"/>
<text text-anchor="start" x="495.5" y="-1104.4" font-family="Arial" font-size="14.00" fill="#000000">comment6 </text>
<text text-anchor="start" x="564.7328" y="-1104.4" font-family="Arial" font-size="14.00" fill="#666666">[text]</text>
<text text-anchor="start" x="595.0778" y="-1104.4" font-family="Arial" font-size="14.00" fill="#000000"> コメント6</text>
<polygon fill="none" stroke="#000000" points="488.5,-1063 488.5,-1093 829.5,-1093 829.5,-1063 488.5,-1063"/>
<text text-anchor="start" x="495.5" y="-1074.4" font-family="Arial" font-size="14.00" fill="#000000">note </text>
<text text-anchor="start" x="526.629" y="-1074.4" font-family="Arial" font-size="14.00" fill="#666666">[text]</text>
<text text-anchor="start" x="556.974" y="-1074.4" font-family="Arial" font-size="14.00" fill="#000000"> 備考</text>
<polygon fill="none" stroke="#000000" points="488.5,-1033 488.5,-1063 829.5,-1063 829.5,-1033 488.5,-1033"/>
<text text-anchor="start" x="495.5" y="-1044.4" font-family="Arial" font-size="14.00" fill="#000000">main_list_comment </text>
<text text-anchor="start" x="619.9516" y="-1044.4" font-family="Arial" font-size="14.00" fill="#666666">[text]</text>
<text text-anchor="start" x="650.2966" y="-1044.4" font-family="Arial" font-size="14.00" fill="#000000"> メイン一覧コメント</text>
<polygon fill="none" stroke="#000000" points="488.5,-1003 488.5,-1033 829.5,-1033 829.5,-1003 488.5,-1003"/>
<text text-anchor="start" x="495.5" y="-1014.4" font-family="Arial" font-size="14.00" fill="#000000">main_list_image </text>
<text text-anchor="start" x="600.507" y="-1014.4" font-family="Arial" font-size="14.00" fill="#666666">[text]</text>
<text text-anchor="start" x="630.852" y="-1014.4" font-family="Arial" font-size="14.00" fill="#000000"> メイン一覧画像</text>
<polygon fill="none" stroke="#000000" points="488.5,-973 488.5,-1003 829.5,-1003 829.5,-973 488.5,-973"/>
<text text-anchor="start" x="495.5" y="-984.4" font-family="Arial" font-size="14.00" fill="#000000">main_comment </text>
<text text-anchor="start" x="595.0652" y="-984.4" font-family="Arial" font-size="14.00" fill="#666666">[text]</text>
<text text-anchor="start" x="625.4102" y="-984.4" font-family="Arial" font-size="14.00" fill="#000000"> メインコメント</text>
<polygon fill="none" stroke="#000000" points="488.5,-943 488.5,-973 829.5,-973 829.5,-943 488.5,-943"/>
<text text-anchor="start" x="495.5" y="-954.4" font-family="Arial" font-size="14.00" fill="#000000">main_image </text>
<text text-anchor="start" x="575.6206" y="-954.4" font-family="Arial" font-size="14.00" fill="#666666">[text]</text>
<text text-anchor="start" x="605.9656" y="-954.4" font-family="Arial" font-size="14.00" fill="#000000"> メイン画像</text>
<polygon fill="none" stroke="#000000" points="488.5,-913 488.5,-943 829.5,-943 829.5,-913 488.5,-913"/>
<text text-anchor="start" x="495.5" y="-924.4" font-family="Arial" font-size="14.00" fill="#000000">main_large_image </text>
<text text-anchor="start" x="614.5182" y="-924.4" font-family="Arial" font-size="14.00" fill="#666666">[text]</text>
<text text-anchor="start" x="644.8632" y="-924.4" font-family="Arial" font-size="14.00" fill="#000000"> メイン拡大画像</text>
<polygon fill="none" stroke="#000000" points="488.5,-883 488.5,-913 829.5,-913 829.5,-883 488.5,-883"/>
<text text-anchor="start" x="495.5" y="-894.4" font-family="Arial" font-size="14.00" fill="#000000">sub_title1 </text>
<text text-anchor="start" x="559.298" y="-894.4" font-family="Arial" font-size="14.00" fill="#666666">[text]</text>
<text text-anchor="start" x="589.643" y="-894.4" font-family="Arial" font-size="14.00" fill="#000000"> サブタイトル1</text>
<polygon fill="none" stroke="#000000" points="488.5,-853 488.5,-883 829.5,-883 829.5,-853 488.5,-853"/>
<text text-anchor="start" x="495.5" y="-864.4" font-family="Arial" font-size="14.00" fill="#000000">sub_comment1 </text>
<text text-anchor="start" x="595.0806" y="-864.4" font-family="Arial" font-size="14.00" fill="#666666">[text]</text>
<text text-anchor="start" x="625.4256" y="-864.4" font-family="Arial" font-size="14.00" fill="#000000"> サブコメント1</text>
<polygon fill="none" stroke="#000000" points="488.5,-823 488.5,-853 829.5,-853 829.5,-823 488.5,-823"/>
<text text-anchor="start" x="495.5" y="-834.4" font-family="Arial" font-size="14.00" fill="#000000">sub_image1 </text>
<text text-anchor="start" x="575.636" y="-834.4" font-family="Arial" font-size="14.00" fill="#666666">[text]</text>
<text text-anchor="start" x="605.981" y="-834.4" font-family="Arial" font-size="14.00" fill="#000000"> サブ画像1</text>
<polygon fill="none" stroke="#000000" points="488.5,-793 488.5,-823 829.5,-823 829.5,-793 488.5,-793"/>
<text text-anchor="start" x="495.5" y="-804.4" font-family="Arial" font-size="14.00" fill="#000000">sub_large_image1 </text>
<text text-anchor="start" x="614.5336" y="-804.4" font-family="Arial" font-size="14.00" fill="#666666">[text]</text>
<text text-anchor="start" x="644.8786" y="-804.4" font-family="Arial" font-size="14.00" fill="#000000"> サブ拡大画像1</text>
<polygon fill="none" stroke="#000000" points="488.5,-763 488.5,-793 829.5,-793 829.5,-763 488.5,-763"/>
<text text-anchor="start" x="495.5" y="-774.4" font-family="Arial" font-size="14.00" fill="#000000">sub_title2 </text>
<text text-anchor="start" x="559.298" y="-774.4" font-family="Arial" font-size="14.00" fill="#666666">[text]</text>
<text text-anchor="start" x="589.643" y="-774.4" font-family="Arial" font-size="14.00" fill="#000000"> サブタイトル2</text>
<polygon fill="none" stroke="#000000" points="488.5,-733 488.5,-763 829.5,-763 829.5,-733 488.5,-733"/>
<text text-anchor="start" x="495.5" y="-744.4" font-family="Arial" font-size="14.00" fill="#000000">sub_comment2 </text>
<text text-anchor="start" x="595.0806" y="-744.4" font-family="Arial" font-size="14.00" fill="#666666">[text]</text>
<text text-anchor="start" x="625.4256" y="-744.4" font-family="Arial" font-size="14.00" fill="#000000"> サブコメント2</text>
<polygon fill="none" stroke="#000000" points="488.5,-703 488.5,-733 829.5,-733 829.5,-703 488.5,-703"/>
<text text-anchor="start" x="495.5" y="-714.4" font-family="Arial" font-size="14.00" fill="#000000">sub_image2 </text>
<text text-anchor="start" x="575.636" y="-714.4" font-family="Arial" font-size="14.00" fill="#666666">[text]</text>
<text text-anchor="start" x="605.981" y="-714.4" font-family="Arial" font-size="14.00" fill="#000000"> サブ画像2</text>
<polygon fill="none" stroke="#000000" points="488.5,-673 488.5,-703 829.5,-703 829.5,-673 488.5,-673"/>
<text text-anchor="start" x="495.5" y="-684.4" font-family="Arial" font-size="14.00" fill="#000000">sub_large_image2 </text>
<text text-anchor="start" x="614.5336" y="-684.4" font-family="Arial" font-size="14.00" fill="#666666">[text]</text>
<text text-anchor="start" x="644.8786" y="-684.4" font-family="Arial" font-size="14.00" fill="#000000"> サブ拡大画像2</text>
<polygon fill="none" stroke="#000000" points="488.5,-643 488.5,-673 829.5,-673 829.5,-643 488.5,-643"/>
<text text-anchor="start" x="495.5" y="-654.4" font-family="Arial" font-size="14.00" fill="#000000">sub_title3 </text>
<text text-anchor="start" x="559.298" y="-654.4" font-family="Arial" font-size="14.00" fill="#666666">[text]</text>
<text text-anchor="start" x="589.643" y="-654.4" font-family="Arial" font-size="14.00" fill="#000000"> サブタイトル3</text>
<polygon fill="none" stroke="#000000" points="488.5,-613 488.5,-643 829.5,-643 829.5,-613 488.5,-613"/>
<text text-anchor="start" x="495.5" y="-624.4" font-family="Arial" font-size="14.00" fill="#000000">sub_comment3 </text>
<text text-anchor="start" x="595.0806" y="-624.4" font-family="Arial" font-size="14.00" fill="#666666">[text]</text>
<text text-anchor="start" x="625.4256" y="-624.4" font-family="Arial" font-size="14.00" fill="#000000"> サブコメント3</text>
<polygon fill="none" stroke="#000000" points="488.5,-583 488.5,-613 829.5,-613 829.5,-583 488.5,-583"/>
<text text-anchor="start" x="495.5" y="-594.4" font-family="Arial" font-size="14.00" fill="#000000">sub_image3 </text>
<text text-anchor="start" x="575.636" y="-594.4" font-family="Arial" font-size="14.00" fill="#666666">[text]</text>
<text text-anchor="start" x="605.981" y="-594.4" font-family="Arial" font-size="14.00" fill="#000000"> サブ画像3</text>
<polygon fill="none" stroke="#000000" points="488.5,-553 488.5,-583 829.5,-583 829.5,-553 488.5,-553"/>
<text text-anchor="start" x="495.5" y="-564.4" font-family="Arial" font-size="14.00" fill="#000000">sub_large_image3 </text>
<text text-anchor="start" x="614.5336" y="-564.4" font-family="Arial" font-size="14.00" fill="#666666">[text]</text>
<text text-anchor="start" x="644.8786" y="-564.4" font-family="Arial" font-size="14.00" fill="#000000"> サブ拡大画像3</text>
<polygon fill="none" stroke="#000000" points="488.5,-523 488.5,-553 829.5,-553 829.5,-523 488.5,-523"/>
<text text-anchor="start" x="495.5" y="-534.4" font-family="Arial" font-size="14.00" fill="#000000">sub_title4 </text>
<text text-anchor="start" x="559.298" y="-534.4" font-family="Arial" font-size="14.00" fill="#666666">[text]</text>
<text text-anchor="start" x="589.643" y="-534.4" font-family="Arial" font-size="14.00" fill="#000000"> サブタイトル4</text>
<polygon fill="none" stroke="#000000" points="488.5,-493 488.5,-523 829.5,-523 829.5,-493 488.5,-493"/>
<text text-anchor="start" x="495.5" y="-504.4" font-family="Arial" font-size="14.00" fill="#000000">sub_comment4 </text>
<text text-anchor="start" x="595.0806" y="-504.4" font-family="Arial" font-size="14.00" fill="#666666">[text]</text>
<text text-anchor="start" x="625.4256" y="-504.4" font-family="Arial" font-size="14.00" fill="#000000"> サブコメント4</text>
<polygon fill="none" stroke="#000000" points="488.5,-463 488.5,-493 829.5,-493 829.5,-463 488.5,-463"/>
<text text-anchor="start" x="495.5" y="-474.4" font-family="Arial" font-size="14.00" fill="#000000">sub_image4 </text>
<text text-anchor="start" x="575.636" y="-474.4" font-family="Arial" font-size="14.00" fill="#666666">[text]</text>
<text text-anchor="start" x="605.981" y="-474.4" font-family="Arial" font-size="14.00" fill="#000000"> サブ画像4</text>
<polygon fill="none" stroke="#000000" points="488.5,-433 488.5,-463 829.5,-463 829.5,-433 488.5,-433"/>
<text text-anchor="start" x="495.5" y="-444.4" font-family="Arial" font-size="14.00" fill="#000000">sub_large_image4 </text>
<text text-anchor="start" x="614.5336" y="-444.4" font-family="Arial" font-size="14.00" fill="#666666">[text]</text>
<text text-anchor="start" x="644.8786" y="-444.4" font-family="Arial" font-size="14.00" fill="#000000"> サブ拡大画像4</text>
<polygon fill="none" stroke="#000000" points="488.5,-403 488.5,-433 829.5,-433 829.5,-403 488.5,-403"/>
<text text-anchor="start" x="495.5" y="-414.4" font-family="Arial" font-size="14.00" fill="#000000">sub_title5 </text>
<text text-anchor="start" x="559.298" y="-414.4" font-family="Arial" font-size="14.00" fill="#666666">[text]</text>
<text text-anchor="start" x="589.643" y="-414.4" font-family="Arial" font-size="14.00" fill="#000000"> サブタイトル5</text>
<polygon fill="none" stroke="#000000" points="488.5,-373 488.5,-403 829.5,-403 829.5,-373 488.5,-373"/>
<text text-anchor="start" x="495.5" y="-384.4" font-family="Arial" font-size="14.00" fill="#000000">sub_comment5 </text>
<text text-anchor="start" x="595.0806" y="-384.4" font-family="Arial" font-size="14.00" fill="#666666">[text]</text>
<text text-anchor="start" x="625.4256" y="-384.4" font-family="Arial" font-size="14.00" fill="#000000"> サブコメント5</text>
<polygon fill="none" stroke="#000000" points="488.5,-343 488.5,-373 829.5,-373 829.5,-343 488.5,-343"/>
<text text-anchor="start" x="495.5" y="-354.4" font-family="Arial" font-size="14.00" fill="#000000">sub_image5 </text>
<text text-anchor="start" x="575.636" y="-354.4" font-family="Arial" font-size="14.00" fill="#666666">[text]</text>
<text text-anchor="start" x="605.981" y="-354.4" font-family="Arial" font-size="14.00" fill="#000000"> サブ画像5</text>
<polygon fill="none" stroke="#000000" points="488.5,-313 488.5,-343 829.5,-343 829.5,-313 488.5,-313"/>
<text text-anchor="start" x="495.5" y="-324.4" font-family="Arial" font-size="14.00" fill="#000000">sub_large_image5 </text>
<text text-anchor="start" x="614.5336" y="-324.4" font-family="Arial" font-size="14.00" fill="#666666">[text]</text>
<text text-anchor="start" x="644.8786" y="-324.4" font-family="Arial" font-size="14.00" fill="#000000"> サブ拡大画像5</text>
<polygon fill="none" stroke="#000000" points="488.5,-283 488.5,-313 829.5,-313 829.5,-283 488.5,-283"/>
<text text-anchor="start" x="495.5" y="-294.4" font-family="Arial" font-size="14.00" fill="#000000">sub_title6 </text>
<text text-anchor="start" x="559.298" y="-294.4" font-family="Arial" font-size="14.00" fill="#666666">[text]</text>
<text text-anchor="start" x="589.643" y="-294.4" font-family="Arial" font-size="14.00" fill="#000000"> サブタイトル6</text>
<polygon fill="none" stroke="#000000" points="488.5,-253 488.5,-283 829.5,-283 829.5,-253 488.5,-253"/>
<text text-anchor="start" x="495.5" y="-264.4" font-family="Arial" font-size="14.00" fill="#000000">sub_comment6 </text>
<text text-anchor="start" x="595.0806" y="-264.4" font-family="Arial" font-size="14.00" fill="#666666">[text]</text>
<text text-anchor="start" x="625.4256" y="-264.4" font-family="Arial" font-size="14.00" fill="#000000"> サブコメント6</text>
<polygon fill="none" stroke="#000000" points="488.5,-223 488.5,-253 829.5,-253 829.5,-223 488.5,-223"/>
<text text-anchor="start" x="495.5" y="-234.4" font-family="Arial" font-size="14.00" fill="#000000">sub_image6 </text>
<text text-anchor="start" x="575.636" y="-234.4" font-family="Arial" font-size="14.00" fill="#666666">[text]</text>
<text text-anchor="start" x="605.981" y="-234.4" font-family="Arial" font-size="14.00" fill="#000000"> サブ画像6</text>
<polygon fill="none" stroke="#000000" points="488.5,-193 488.5,-223 829.5,-223 829.5,-193 488.5,-193"/>
<text text-anchor="start" x="495.5" y="-204.4" font-family="Arial" font-size="14.00" fill="#000000">sub_large_image6 </text>
<text text-anchor="start" x="614.5336" y="-204.4" font-family="Arial" font-size="14.00" fill="#666666">[text]</text>
<text text-anchor="start" x="644.8786" y="-204.4" font-family="Arial" font-size="14.00" fill="#000000"> サブ拡大画像6</text>
<polygon fill="none" stroke="#000000" points="488.5,-163 488.5,-193 829.5,-193 829.5,-163 488.5,-163"/>
<text text-anchor="start" x="495.5" y="-174.4" font-family="Arial" font-size="14.00" fill="#000000">del_flg </text>
<text text-anchor="start" x="540.6248" y="-174.4" font-family="Arial" font-size="14.00" fill="#666666">[smallint]</text>
<text text-anchor="start" x="595.8422" y="-174.4" font-family="Arial" font-size="14.00" fill="#000000"> 削除フラグ</text>
<polygon fill="none" stroke="#000000" points="488.5,-133 488.5,-163 829.5,-163 829.5,-133 488.5,-133"/>
<text text-anchor="start" x="495.5" y="-144.4" font-family="Arial" font-size="14.00" fill="#000000">creator_id </text>
<text text-anchor="start" x="561.622" y="-144.4" font-family="Arial" font-size="14.00" fill="#666666">[integer]</text>
<text text-anchor="start" x="612.1914" y="-144.4" font-family="Arial" font-size="14.00" fill="#000000"> 作成者ID</text>
<polygon fill="none" stroke="#000000" points="488.5,-103 488.5,-133 829.5,-133 829.5,-103 488.5,-103"/>
<text text-anchor="start" x="495.235" y="-114.4" font-family="Arial" font-size="14.00" fill="#000000">create_date </text>
<text text-anchor="start" x="573.0456" y="-114.4" font-family="Arial" font-size="14.00" fill="#666666">[timestamp without time zone]</text>
<text text-anchor="start" x="758.1858" y="-114.4" font-family="Arial" font-size="14.00" fill="#000000"> 作成日時</text>
<polygon fill="none" stroke="#000000" points="488.5,-73 488.5,-103 829.5,-103 829.5,-73 488.5,-73"/>
<text text-anchor="start" x="495.5" y="-84.4" font-family="Arial" font-size="14.00" fill="#000000">update_date </text>
<text text-anchor="start" x="577.2152" y="-84.4" font-family="Arial" font-size="14.00" fill="#666666">[timestamp without time zone]</text>
<text text-anchor="start" x="762.3554" y="-84.4" font-family="Arial" font-size="14.00" fill="#000000"> 更新日時</text>
<polygon fill="none" stroke="#000000" points="488.5,-43 488.5,-73 829.5,-73 829.5,-43 488.5,-43"/>
<text text-anchor="start" x="495.5" y="-54.4" font-family="Arial" font-size="14.00" fill="#000000">deliv_date_id </text>
<text text-anchor="start" x="581.8618" y="-54.4" font-family="Arial" font-size="14.00" fill="#666666">[integer]</text>
<text text-anchor="start" x="632.4312" y="-54.4" font-family="Arial" font-size="14.00" fill="#000000"> 発送日目安</text>
</g>
<!-- public.dtb_best_products&#45;&gt;public.dtb_products -->
<g id="edge2" class="edge">
<title>public.dtb_best_products:product_id&#45;&gt;public.dtb_products:product_id</title>
<path fill="none" stroke="#000000" stroke-dasharray="5,2" d="M479.9855,-1753.3185C446.3877,-1705.9233 449.2259,-1378 488.5,-1378"/>
<polygon fill="#000000" stroke="#000000" points="480.1818,-1753.4494 486.0022,-1762.7432 484.3409,-1756.2247 488.5,-1759 488.5,-1759 488.5,-1759 484.3409,-1756.2247 490.9978,-1755.2568 480.1818,-1753.4494 480.1818,-1753.4494"/>
<text text-anchor="start" x="398.8245" y="-1769" font-family="Arial" font-size="10.00" fill="#000000">Additional Relation</text>
</g>
<!-- public.dtb_member -->
<g id="node4" class="node">
<title>public.dtb_member</title>
<polygon fill="#efefef" stroke="transparent" points="933.5,-928 933.5,-974 1310.5,-974 1310.5,-928 933.5,-928"/>
<polygon fill="none" stroke="#000000" points="933.5,-928 933.5,-974 1310.5,-974 1310.5,-928 933.5,-928"/>
<text text-anchor="start" x="996.8605" y="-951.8" font-family="Arial Bold" font-size="18.00" fill="#000000">public.dtb_member</text>
<text text-anchor="start" x="1149.8857" y="-951.8" font-family="Arial" font-size="14.00" fill="#000000"> </text>
<text text-anchor="start" x="1153.7763" y="-951.8" font-family="Arial" font-size="14.00" fill="#666666">[BASE TABLE]</text>
<text text-anchor="start" x="1042.4016" y="-937.4" font-family="Arial" font-size="14.00" fill="#333333">管理画面メンバー情報</text>
<polygon fill="none" stroke="#000000" points="933.5,-898 933.5,-928 1310.5,-928 1310.5,-898 933.5,-898"/>
<text text-anchor="start" x="940.5" y="-909.4" font-family="Arial" font-size="14.00" fill="#000000">member_id </text>
<text text-anchor="start" x="1014.392" y="-909.4" font-family="Arial" font-size="14.00" fill="#666666">[integer]</text>
<text text-anchor="start" x="1064.9614" y="-909.4" font-family="Arial" font-size="14.00" fill="#000000"> メンバーID</text>
<polygon fill="none" stroke="#000000" points="933.5,-868 933.5,-898 1310.5,-898 1310.5,-868 933.5,-868"/>
<text text-anchor="start" x="940.5" y="-879.4" font-family="Arial" font-size="14.00" fill="#000000">name </text>
<text text-anchor="start" x="979.399" y="-879.4" font-family="Arial" font-size="14.00" fill="#666666">[text]</text>
<text text-anchor="start" x="1009.744" y="-879.4" font-family="Arial" font-size="14.00" fill="#000000"> 名前</text>
<polygon fill="none" stroke="#000000" points="933.5,-838 933.5,-868 1310.5,-868 1310.5,-838 933.5,-838"/>
<text text-anchor="start" x="940.5" y="-849.4" font-family="Arial" font-size="14.00" fill="#000000">department </text>
<text text-anchor="start" x="1015.1886" y="-849.4" font-family="Arial" font-size="14.00" fill="#666666">[text]</text>
<text text-anchor="start" x="1045.5336" y="-849.4" font-family="Arial" font-size="14.00" fill="#000000"> 部門</text>
<polygon fill="none" stroke="#000000" points="933.5,-808 933.5,-838 1310.5,-838 1310.5,-808 933.5,-808"/>
<text text-anchor="start" x="940.5" y="-819.4" font-family="Arial" font-size="14.00" fill="#000000">login_id </text>
<text text-anchor="start" x="992.6234" y="-819.4" font-family="Arial" font-size="14.00" fill="#666666">[text]</text>
<text text-anchor="start" x="1022.9684" y="-819.4" font-family="Arial" font-size="14.00" fill="#000000"> ログインID</text>
<polygon fill="none" stroke="#000000" points="933.5,-778 933.5,-808 1310.5,-808 1310.5,-778 933.5,-778"/>
<text text-anchor="start" x="940.5" y="-789.4" font-family="Arial" font-size="14.00" fill="#000000">password </text>
<text text-anchor="start" x="1004.2882" y="-789.4" font-family="Arial" font-size="14.00" fill="#666666">[text]</text>
<text text-anchor="start" x="1034.6332" y="-789.4" font-family="Arial" font-size="14.00" fill="#000000"> パスワード</text>
<polygon fill="none" stroke="#000000" points="933.5,-748 933.5,-778 1310.5,-778 1310.5,-748 933.5,-748"/>
<text text-anchor="start" x="940.5" y="-759.4" font-family="Arial" font-size="14.00" fill="#000000">salt </text>
<text text-anchor="start" x="966.1704" y="-759.4" font-family="Arial" font-size="14.00" fill="#666666">[text]</text>
<text text-anchor="start" x="996.5154" y="-759.4" font-family="Arial" font-size="14.00" fill="#000000"> 暗号化付与文字列</text>
<polygon fill="none" stroke="#000000" points="933.5,-718 933.5,-748 1310.5,-748 1310.5,-718 933.5,-718"/>
<text text-anchor="start" x="940.5" y="-729.4" font-family="Arial" font-size="14.00" fill="#000000">authority </text>
<text text-anchor="start" x="998.0694" y="-729.4" font-family="Arial" font-size="14.00" fill="#666666">[smallint]</text>
<text text-anchor="start" x="1053.2868" y="-729.4" font-family="Arial" font-size="14.00" fill="#000000"> 権限</text>
<polygon fill="none" stroke="#000000" points="933.5,-688 933.5,-718 1310.5,-718 1310.5,-688 933.5,-688"/>
<text text-anchor="start" x="940.5" y="-699.4" font-family="Arial" font-size="14.00" fill="#000000">rank </text>
<text text-anchor="start" x="971.6164" y="-699.4" font-family="Arial" font-size="14.00" fill="#666666">[integer]</text>
<text text-anchor="start" x="1022.1858" y="-699.4" font-family="Arial" font-size="14.00" fill="#000000"> 表示順</text>
<polygon fill="none" stroke="#000000" points="933.5,-658 933.5,-688 1310.5,-688 1310.5,-658 933.5,-658"/>
<text text-anchor="start" x="940.5" y="-669.4" font-family="Arial" font-size="14.00" fill="#000000">work </text>
<text text-anchor="start" x="973.9404" y="-669.4" font-family="Arial" font-size="14.00" fill="#666666">[smallint]</text>
<text text-anchor="start" x="1029.1578" y="-669.4" font-family="Arial" font-size="14.00" fill="#000000"> 稼動フラグ</text>
<polygon fill="none" stroke="#000000" points="933.5,-628 933.5,-658 1310.5,-658 1310.5,-628 933.5,-628"/>
<text text-anchor="start" x="940.5" y="-639.4" font-family="Arial" font-size="14.00" fill="#000000">del_flg </text>
<text text-anchor="start" x="985.6248" y="-639.4" font-family="Arial" font-size="14.00" fill="#666666">[smallint]</text>
<text text-anchor="start" x="1040.8422" y="-639.4" font-family="Arial" font-size="14.00" fill="#000000"> 削除フラグ</text>
<polygon fill="none" stroke="#000000" points="933.5,-598 933.5,-628 1310.5,-628 1310.5,-598 933.5,-598"/>
<text text-anchor="start" x="940.5" y="-609.4" font-family="Arial" font-size="14.00" fill="#000000">creator_id </text>
<text text-anchor="start" x="1006.622" y="-609.4" font-family="Arial" font-size="14.00" fill="#666666">[integer]</text>
<text text-anchor="start" x="1057.1914" y="-609.4" font-family="Arial" font-size="14.00" fill="#000000"> 作成者ID</text>
<polygon fill="none" stroke="#000000" points="933.5,-568 933.5,-598 1310.5,-598 1310.5,-568 933.5,-568"/>
<text text-anchor="start" x="940.5" y="-579.4" font-family="Arial" font-size="14.00" fill="#000000">create_date </text>
<text text-anchor="start" x="1018.3106" y="-579.4" font-family="Arial" font-size="14.00" fill="#666666">[timestamp without time zone]</text>
<text text-anchor="start" x="1203.4508" y="-579.4" font-family="Arial" font-size="14.00" fill="#000000"> 作成日時</text>
<polygon fill="none" stroke="#000000" points="933.5,-538 933.5,-568 1310.5,-568 1310.5,-538 933.5,-538"/>
<text text-anchor="start" x="940.5" y="-549.4" font-family="Arial" font-size="14.00" fill="#000000">update_date </text>
<text text-anchor="start" x="1022.2152" y="-549.4" font-family="Arial" font-size="14.00" fill="#666666">[timestamp without time zone]</text>
<text text-anchor="start" x="1207.3554" y="-549.4" font-family="Arial" font-size="14.00" fill="#000000"> 更新日付</text>
<polygon fill="none" stroke="#000000" points="933.5,-508 933.5,-538 1310.5,-538 1310.5,-508 933.5,-508"/>
<text text-anchor="start" x="940.4851" y="-519.4" font-family="Arial" font-size="14.00" fill="#000000">login_date </text>
<text text-anchor="start" x="1008.9577" y="-519.4" font-family="Arial" font-size="14.00" fill="#666666">[timestamp without time zone]</text>
<text text-anchor="start" x="1194.0979" y="-519.4" font-family="Arial" font-size="14.00" fill="#000000"> 最終ログイン日時</text>
</g>
<!-- public.dtb_best_products&#45;&gt;public.dtb_member -->
<g id="edge3" class="edge">
<title>public.dtb_best_products:creator_id&#45;&gt;public.dtb_member:member_id</title>
<path fill="none" stroke="#000000" stroke-dasharray="5,2" d="M839.8823,-1668.4437C911.6048,-1660.2536 866.6239,-1563.2066 881.5,-1482 892.9394,-1419.5535 870.0143,-913 933.5,-913"/>
<polygon fill="#000000" stroke="#000000" points="839.4857,-1668.4648 829.2592,-1664.5064 834.4928,-1668.7324 829.5,-1669 829.5,-1669 829.5,-1669 834.4928,-1668.7324 829.7408,-1673.4936 839.4857,-1668.4648 839.4857,-1668.4648"/>
<text text-anchor="start" x="836.8245" y="-1679" font-family="Arial" font-size="10.00" fill="#000000">Additional Relation</text>
</g>
</g>
</svg>
