<?xml version="1.0" encoding="UTF-8" standalone="no"?>
<!DOCTYPE svg PUBLIC "-//W3C//DTD SVG 1.1//EN"
 "http://www.w3.org/Graphics/SVG/1.1/DTD/svg11.dtd">
<!-- Generated by graphviz version 2.40.1 (20161225.0304)
 -->
<!-- Title: public.dtb_index_list Pages: 1 -->
<svg width="463pt" height="266pt"
 viewBox="0.00 0.00 463.00 266.00" xmlns="http://www.w3.org/2000/svg" xmlns:xlink="http://www.w3.org/1999/xlink">
<g id="graph0" class="graph" transform="scale(1 1) rotate(0) translate(4 262)">
<title>public.dtb_index_list</title>
<polygon fill="#ffffff" stroke="transparent" points="-4,4 -4,-262 459,-262 459,4 -4,4"/>
<!-- public.dtb_index_list -->
<g id="node1" class="node">
<title>public.dtb_index_list</title>
<polygon fill="#efefef" stroke="transparent" points="46.5,-166 46.5,-212 409.5,-212 409.5,-166 46.5,-166"/>
<polygon fill="none" stroke="#000000" points="46.5,-166 46.5,-212 409.5,-212 409.5,-166 46.5,-166"/>
<text text-anchor="start" x="98.3533" y="-189.8" font-family="Arial Bold" font-size="18.00" fill="#000000">public.dtb_index_list</text>
<text text-anchor="start" x="260.3929" y="-189.8" font-family="Arial" font-size="14.00" fill="#000000"> </text>
<text text-anchor="start" x="264.2835" y="-189.8" font-family="Arial" font-size="14.00" fill="#666666">[BASE TABLE]</text>
<text text-anchor="start" x="168.8941" y="-175.4" font-family="Arial" font-size="14.00" fill="#333333">インデックス一覧</text>
<polygon fill="none" stroke="#000000" points="46.5,-136 46.5,-166 409.5,-166 409.5,-136 46.5,-136"/>
<text text-anchor="start" x="53.5" y="-147.4" font-family="Arial" font-size="14.00" fill="#000000">table_name </text>
<text text-anchor="start" x="130.5266" y="-147.4" font-family="Arial" font-size="14.00" fill="#666666">[text]</text>
<text text-anchor="start" x="160.8716" y="-147.4" font-family="Arial" font-size="14.00" fill="#000000"> テーブル名</text>
<polygon fill="none" stroke="#000000" points="46.5,-106 46.5,-136 409.5,-136 409.5,-106 46.5,-106"/>
<text text-anchor="start" x="53.5" y="-117.4" font-family="Arial" font-size="14.00" fill="#000000">column_name </text>
<text text-anchor="start" x="145.2966" y="-117.4" font-family="Arial" font-size="14.00" fill="#666666">[text]</text>
<text text-anchor="start" x="175.6416" y="-117.4" font-family="Arial" font-size="14.00" fill="#000000"> カラム名</text>
<polygon fill="none" stroke="#000000" points="46.5,-76 46.5,-106 409.5,-106 409.5,-76 46.5,-76"/>
<text text-anchor="start" x="53.5" y="-87.4" font-family="Arial" font-size="14.00" fill="#000000">recommend_flg </text>
<text text-anchor="start" x="153.8478" y="-87.4" font-family="Arial" font-size="14.00" fill="#666666">[smallint]</text>
<text text-anchor="start" x="209.0652" y="-87.4" font-family="Arial" font-size="14.00" fill="#000000"> レコメンドフラグ</text>
<polygon fill="none" stroke="#000000" points="46.5,-46 46.5,-76 409.5,-76 409.5,-46 46.5,-46"/>
<text text-anchor="start" x="53.2296" y="-57.4" font-family="Arial" font-size="14.00" fill="#000000">recommend_comment </text>
<text text-anchor="start" x="196.3572" y="-57.4" font-family="Arial" font-size="14.00" fill="#666666">[text]</text>
<text text-anchor="start" x="226.7022" y="-57.4" font-family="Arial" font-size="14.00" fill="#000000"> レコメンドフラグコメント</text>
<polygon fill="none" stroke="#000000" stroke-width="3" points="44.5,-44.5 44.5,-213.5 410.5,-213.5 410.5,-44.5 44.5,-44.5"/>
</g>
</g>
</svg>
