<?xml version="1.0" encoding="UTF-8" standalone="no"?>
<!DOCTYPE svg PUBLIC "-//W3C//DTD SVG 1.1//EN"
 "http://www.w3.org/Graphics/SVG/1.1/DTD/svg11.dtd">
<!-- Generated by graphviz version 2.40.1 (20161225.0304)
 -->
<!-- Title: public.dtb_other_deliv Pages: 1 -->
<svg width="386pt" height="746pt"
 viewBox="0.00 0.00 386.00 746.00" xmlns="http://www.w3.org/2000/svg" xmlns:xlink="http://www.w3.org/1999/xlink">
<g id="graph0" class="graph" transform="scale(1 1) rotate(0) translate(4 742)">
<title>public.dtb_other_deliv</title>
<polygon fill="#ffffff" stroke="transparent" points="-4,4 -4,-742 382,-742 382,4 -4,4"/>
<!-- public.dtb_other_deliv -->
<g id="node1" class="node">
<title>public.dtb_other_deliv</title>
<polygon fill="#efefef" stroke="transparent" points="46,-646 46,-692 332,-692 332,-646 46,-646"/>
<polygon fill="none" stroke="#000000" points="46,-646 46,-692 332,-692 332,-646 46,-646"/>
<text text-anchor="start" x="52.8481" y="-669.8" font-family="Arial Bold" font-size="18.00" fill="#000000">public.dtb_other_deliv</text>
<text text-anchor="start" x="227.8981" y="-669.8" font-family="Arial" font-size="14.00" fill="#000000"> </text>
<text text-anchor="start" x="231.7887" y="-669.8" font-family="Arial" font-size="14.00" fill="#666666">[BASE TABLE]</text>
<text text-anchor="start" x="120.5435" y="-655.4" font-family="Arial" font-size="14.00" fill="#333333">その他の配送先情報</text>
<polygon fill="none" stroke="#000000" points="46,-616 46,-646 332,-646 332,-616 46,-616"/>
<text text-anchor="start" x="53" y="-627.4" font-family="Arial" font-size="14.00" fill="#000000">other_deliv_id </text>
<text text-anchor="start" x="144.0224" y="-627.4" font-family="Arial" font-size="14.00" fill="#666666">[integer]</text>
<text text-anchor="start" x="194.5918" y="-627.4" font-family="Arial" font-size="14.00" fill="#000000"> その他の配送先ID</text>
<polygon fill="none" stroke="#000000" points="46,-586 46,-616 332,-616 332,-586 46,-586"/>
<text text-anchor="start" x="53" y="-597.4" font-family="Arial" font-size="14.00" fill="#000000">customer_id </text>
<text text-anchor="start" x="133.122" y="-597.4" font-family="Arial" font-size="14.00" fill="#666666">[integer]</text>
<text text-anchor="start" x="183.6914" y="-597.4" font-family="Arial" font-size="14.00" fill="#000000"> 顧客ID</text>
<polygon fill="none" stroke="#000000" points="46,-556 46,-586 332,-586 332,-556 46,-556"/>
<text text-anchor="start" x="53" y="-567.4" font-family="Arial" font-size="14.00" fill="#000000">name01 </text>
<text text-anchor="start" x="107.4642" y="-567.4" font-family="Arial" font-size="14.00" fill="#666666">[text]</text>
<text text-anchor="start" x="137.8092" y="-567.4" font-family="Arial" font-size="14.00" fill="#000000"> 姓</text>
<polygon fill="none" stroke="#000000" points="46,-526 46,-556 332,-556 332,-526 46,-526"/>
<text text-anchor="start" x="53" y="-537.4" font-family="Arial" font-size="14.00" fill="#000000">name02 </text>
<text text-anchor="start" x="107.4642" y="-537.4" font-family="Arial" font-size="14.00" fill="#666666">[text]</text>
<text text-anchor="start" x="137.8092" y="-537.4" font-family="Arial" font-size="14.00" fill="#000000"> 名</text>
<polygon fill="none" stroke="#000000" points="46,-496 46,-526 332,-526 332,-496 46,-496"/>
<text text-anchor="start" x="53" y="-507.4" font-family="Arial" font-size="14.00" fill="#000000">kana01 </text>
<text text-anchor="start" x="102.8036" y="-507.4" font-family="Arial" font-size="14.00" fill="#666666">[text]</text>
<text text-anchor="start" x="133.1486" y="-507.4" font-family="Arial" font-size="14.00" fill="#000000"> 姓(カナ)</text>
<polygon fill="none" stroke="#000000" points="46,-466 46,-496 332,-496 332,-466 46,-466"/>
<text text-anchor="start" x="53" y="-477.4" font-family="Arial" font-size="14.00" fill="#000000">kana02 </text>
<text text-anchor="start" x="102.8036" y="-477.4" font-family="Arial" font-size="14.00" fill="#666666">[text]</text>
<text text-anchor="start" x="133.1486" y="-477.4" font-family="Arial" font-size="14.00" fill="#000000"> 名(カナ)</text>
<polygon fill="none" stroke="#000000" points="46,-436 46,-466 332,-466 332,-436 46,-436"/>
<text text-anchor="start" x="53" y="-447.4" font-family="Arial" font-size="14.00" fill="#000000">company_name </text>
<text text-anchor="start" x="156.4726" y="-447.4" font-family="Arial" font-size="14.00" fill="#666666">[text]</text>
<text text-anchor="start" x="186.8176" y="-447.4" font-family="Arial" font-size="14.00" fill="#000000"> 【2.13】会社名</text>
<polygon fill="none" stroke="#000000" points="46,-406 46,-436 332,-436 332,-406 46,-406"/>
<text text-anchor="start" x="53" y="-417.4" font-family="Arial" font-size="14.00" fill="#000000">zip01 </text>
<text text-anchor="start" x="90.345" y="-417.4" font-family="Arial" font-size="14.00" fill="#666666">[text]</text>
<text text-anchor="start" x="120.69" y="-417.4" font-family="Arial" font-size="14.00" fill="#000000"> 郵便番号(4桁)</text>
<polygon fill="none" stroke="#000000" points="46,-376 46,-406 332,-406 332,-376 46,-376"/>
<text text-anchor="start" x="53" y="-387.4" font-family="Arial" font-size="14.00" fill="#000000">zip02 </text>
<text text-anchor="start" x="90.345" y="-387.4" font-family="Arial" font-size="14.00" fill="#666666">[text]</text>
<text text-anchor="start" x="120.69" y="-387.4" font-family="Arial" font-size="14.00" fill="#000000"> 郵便番号(3桁)</text>
<polygon fill="none" stroke="#000000" points="46,-346 46,-376 332,-376 332,-346 46,-346"/>
<text text-anchor="start" x="53" y="-357.4" font-family="Arial" font-size="14.00" fill="#000000">zipcode </text>
<text text-anchor="start" x="105.1276" y="-357.4" font-family="Arial" font-size="14.00" fill="#666666">[text]</text>
<text text-anchor="start" x="135.4726" y="-357.4" font-family="Arial" font-size="14.00" fill="#000000"> 【2.13】郵便番号(海外対応)</text>
<polygon fill="none" stroke="#000000" points="46,-316 46,-346 332,-346 332,-316 46,-316"/>
<text text-anchor="start" x="53" y="-327.4" font-family="Arial" font-size="14.00" fill="#000000">country_id </text>
<text text-anchor="start" x="121.4614" y="-327.4" font-family="Arial" font-size="14.00" fill="#666666">[integer]</text>
<text text-anchor="start" x="172.0308" y="-327.4" font-family="Arial" font-size="14.00" fill="#000000"> 【2.13】国ID</text>
<polygon fill="none" stroke="#000000" points="46,-286 46,-316 332,-316 332,-286 46,-286"/>
<text text-anchor="start" x="53" y="-297.4" font-family="Arial" font-size="14.00" fill="#000000">pref </text>
<text text-anchor="start" x="81.007" y="-297.4" font-family="Arial" font-size="14.00" fill="#666666">[smallint]</text>
<text text-anchor="start" x="136.2244" y="-297.4" font-family="Arial" font-size="14.00" fill="#000000"> 都道府県</text>
<polygon fill="none" stroke="#000000" points="46,-256 46,-286 332,-286 332,-256 46,-256"/>
<text text-anchor="start" x="53" y="-267.4" font-family="Arial" font-size="14.00" fill="#000000">addr01 </text>
<text text-anchor="start" x="100.4642" y="-267.4" font-family="Arial" font-size="14.00" fill="#666666">[text]</text>
<text text-anchor="start" x="130.8092" y="-267.4" font-family="Arial" font-size="14.00" fill="#000000"> 市区町村</text>
<polygon fill="none" stroke="#000000" points="46,-226 46,-256 332,-256 332,-226 46,-226"/>
<text text-anchor="start" x="53" y="-237.4" font-family="Arial" font-size="14.00" fill="#000000">addr02 </text>
<text text-anchor="start" x="100.4642" y="-237.4" font-family="Arial" font-size="14.00" fill="#666666">[text]</text>
<text text-anchor="start" x="130.8092" y="-237.4" font-family="Arial" font-size="14.00" fill="#000000"> 番地等</text>
<polygon fill="none" stroke="#000000" points="46,-196 46,-226 332,-226 332,-196 46,-196"/>
<text text-anchor="start" x="53" y="-207.4" font-family="Arial" font-size="14.00" fill="#000000">tel01 </text>
<text text-anchor="start" x="87.2356" y="-207.4" font-family="Arial" font-size="14.00" fill="#666666">[text]</text>
<text text-anchor="start" x="117.5806" y="-207.4" font-family="Arial" font-size="14.00" fill="#000000"> 電話(市外局番)</text>
<polygon fill="none" stroke="#000000" points="46,-166 46,-196 332,-196 332,-166 46,-166"/>
<text text-anchor="start" x="53" y="-177.4" font-family="Arial" font-size="14.00" fill="#000000">tel02 </text>
<text text-anchor="start" x="87.2356" y="-177.4" font-family="Arial" font-size="14.00" fill="#666666">[text]</text>
<text text-anchor="start" x="117.5806" y="-177.4" font-family="Arial" font-size="14.00" fill="#000000"> 電話(市内局番)</text>
<polygon fill="none" stroke="#000000" points="46,-136 46,-166 332,-166 332,-136 46,-136"/>
<text text-anchor="start" x="53" y="-147.4" font-family="Arial" font-size="14.00" fill="#000000">tel03 </text>
<text text-anchor="start" x="87.2356" y="-147.4" font-family="Arial" font-size="14.00" fill="#666666">[text]</text>
<text text-anchor="start" x="117.5806" y="-147.4" font-family="Arial" font-size="14.00" fill="#000000"> 電話(局番)</text>
<polygon fill="none" stroke="#000000" points="46,-106 46,-136 332,-136 332,-106 46,-106"/>
<text text-anchor="start" x="53" y="-117.4" font-family="Arial" font-size="14.00" fill="#000000">fax01 </text>
<text text-anchor="start" x="91.129" y="-117.4" font-family="Arial" font-size="14.00" fill="#666666">[text]</text>
<text text-anchor="start" x="121.474" y="-117.4" font-family="Arial" font-size="14.00" fill="#000000"> FAX（市外局番）</text>
<polygon fill="none" stroke="#000000" points="46,-76 46,-106 332,-106 332,-76 46,-76"/>
<text text-anchor="start" x="53" y="-87.4" font-family="Arial" font-size="14.00" fill="#000000">fax02 </text>
<text text-anchor="start" x="91.129" y="-87.4" font-family="Arial" font-size="14.00" fill="#666666">[text]</text>
<text text-anchor="start" x="121.474" y="-87.4" font-family="Arial" font-size="14.00" fill="#000000"> FAX（市内局番）</text>
<polygon fill="none" stroke="#000000" points="46,-46 46,-76 332,-76 332,-46 46,-46"/>
<text text-anchor="start" x="53" y="-57.4" font-family="Arial" font-size="14.00" fill="#000000">fax03 </text>
<text text-anchor="start" x="91.129" y="-57.4" font-family="Arial" font-size="14.00" fill="#666666">[text]</text>
<text text-anchor="start" x="121.474" y="-57.4" font-family="Arial" font-size="14.00" fill="#000000"> FAX（局番）</text>
<polygon fill="none" stroke="#000000" stroke-width="3" points="44.5,-44.5 44.5,-693.5 333.5,-693.5 333.5,-44.5 44.5,-44.5"/>
</g>
</g>
</svg>
