<?xml version="1.0" encoding="UTF-8" standalone="no"?>
<!DOCTYPE svg PUBLIC "-//W3C//DTD SVG 1.1//EN"
 "http://www.w3.org/Graphics/SVG/1.1/DTD/svg11.dtd">
<!-- Generated by graphviz version 2.40.1 (20161225.0304)
 -->
<!-- Title: public.dtb_delivfee Pages: 1 -->
<svg width="360pt" height="266pt"
 viewBox="0.00 0.00 360.00 266.00" xmlns="http://www.w3.org/2000/svg" xmlns:xlink="http://www.w3.org/1999/xlink">
<g id="graph0" class="graph" transform="scale(1 1) rotate(0) translate(4 262)">
<title>public.dtb_delivfee</title>
<polygon fill="#ffffff" stroke="transparent" points="-4,4 -4,-262 356,-262 356,4 -4,4"/>
<!-- public.dtb_delivfee -->
<g id="node1" class="node">
<title>public.dtb_delivfee</title>
<polygon fill="#efefef" stroke="transparent" points="46,-166 46,-212 306,-212 306,-166 46,-166"/>
<polygon fill="none" stroke="#000000" points="46,-166 46,-212 306,-212 306,-166 46,-166"/>
<text text-anchor="start" x="52.8504" y="-189.8" font-family="Arial Bold" font-size="18.00" fill="#000000">public.dtb_delivfee</text>
<text text-anchor="start" x="201.8958" y="-189.8" font-family="Arial" font-size="14.00" fill="#000000"> </text>
<text text-anchor="start" x="205.7864" y="-189.8" font-family="Arial" font-size="14.00" fill="#666666">[BASE TABLE]</text>
<text text-anchor="start" x="147.2104" y="-175.4" font-family="Arial" font-size="14.00" fill="#333333">送料情報</text>
<polygon fill="none" stroke="#000000" points="46,-136 46,-166 306,-166 306,-136 46,-136"/>
<text text-anchor="start" x="53" y="-147.4" font-family="Arial" font-size="14.00" fill="#000000">deliv_id </text>
<text text-anchor="start" x="104.3408" y="-147.4" font-family="Arial" font-size="14.00" fill="#666666">[integer]</text>
<text text-anchor="start" x="154.9102" y="-147.4" font-family="Arial" font-size="14.00" fill="#000000"> 配送業者ID</text>
<polygon fill="none" stroke="#000000" points="46,-106 46,-136 306,-136 306,-106 46,-106"/>
<text text-anchor="start" x="53" y="-117.4" font-family="Arial" font-size="14.00" fill="#000000">fee_id </text>
<text text-anchor="start" x="95.0182" y="-117.4" font-family="Arial" font-size="14.00" fill="#666666">[integer]</text>
<text text-anchor="start" x="145.5876" y="-117.4" font-family="Arial" font-size="14.00" fill="#000000"> 送料ID</text>
<polygon fill="none" stroke="#000000" points="46,-76 46,-106 306,-106 306,-76 46,-76"/>
<text text-anchor="start" x="53" y="-87.4" font-family="Arial" font-size="14.00" fill="#000000">fee </text>
<text text-anchor="start" x="76.3464" y="-87.4" font-family="Arial" font-size="14.00" fill="#666666">[numeric]</text>
<text text-anchor="start" x="133.9032" y="-87.4" font-family="Arial" font-size="14.00" fill="#000000"> 送料</text>
<polygon fill="none" stroke="#000000" points="46,-46 46,-76 306,-76 306,-46 46,-46"/>
<text text-anchor="start" x="53" y="-57.4" font-family="Arial" font-size="14.00" fill="#000000">pref </text>
<text text-anchor="start" x="81.007" y="-57.4" font-family="Arial" font-size="14.00" fill="#666666">[smallint]</text>
<text text-anchor="start" x="136.2244" y="-57.4" font-family="Arial" font-size="14.00" fill="#000000"> 都道府県名</text>
<polygon fill="none" stroke="#000000" stroke-width="3" points="44.5,-44.5 44.5,-213.5 307.5,-213.5 307.5,-44.5 44.5,-44.5"/>
</g>
</g>
</svg>
