<?xml version="1.0" encoding="UTF-8" standalone="no"?>
<!DOCTYPE svg PUBLIC "-//W3C//DTD SVG 1.1//EN"
 "http://www.w3.org/Graphics/SVG/1.1/DTD/svg11.dtd">
<!-- Generated by graphviz version 2.40.1 (20161225.0304)
 -->
<!-- Title: public.dtb_plugin Pages: 1 -->
<svg width="912pt" height="1154pt"
 viewBox="0.00 0.00 911.50 1154.00" xmlns="http://www.w3.org/2000/svg" xmlns:xlink="http://www.w3.org/1999/xlink">
<g id="graph0" class="graph" transform="scale(1 1) rotate(0) translate(4 1150)">
<title>public.dtb_plugin</title>
<polygon fill="#ffffff" stroke="transparent" points="-4,4 -4,-1150 907.5,-1150 907.5,4 -4,4"/>
<!-- public.dtb_plugin -->
<g id="node1" class="node">
<title>public.dtb_plugin</title>
<polygon fill="#efefef" stroke="transparent" points="273.5,-586 273.5,-632 614.5,-632 614.5,-586 273.5,-586"/>
<polygon fill="none" stroke="#000000" points="273.5,-586 273.5,-632 614.5,-632 614.5,-586 273.5,-586"/>
<text text-anchor="start" x="327.8515" y="-609.8" font-family="Arial Bold" font-size="18.00" fill="#000000">public.dtb_plugin</text>
<text text-anchor="start" x="462.8947" y="-609.8" font-family="Arial" font-size="14.00" fill="#000000"> </text>
<text text-anchor="start" x="466.7853" y="-609.8" font-family="Arial" font-size="14.00" fill="#666666">[BASE TABLE]</text>
<text text-anchor="start" x="397.4227" y="-595.4" font-family="Arial" font-size="14.00" fill="#333333">プラグイン情報</text>
<polygon fill="none" stroke="#000000" points="273.5,-556 273.5,-586 614.5,-586 614.5,-556 273.5,-556"/>
<text text-anchor="start" x="280.5" y="-567.4" font-family="Arial" font-size="14.00" fill="#000000">plugin_id </text>
<text text-anchor="start" x="340.406" y="-567.4" font-family="Arial" font-size="14.00" fill="#666666">[integer]</text>
<text text-anchor="start" x="390.9754" y="-567.4" font-family="Arial" font-size="14.00" fill="#000000"> プラグインID</text>
<polygon fill="none" stroke="#000000" points="273.5,-526 273.5,-556 614.5,-556 614.5,-526 273.5,-526"/>
<text text-anchor="start" x="280.5" y="-537.4" font-family="Arial" font-size="14.00" fill="#000000">plugin_name </text>
<text text-anchor="start" x="364.5252" y="-537.4" font-family="Arial" font-size="14.00" fill="#666666">[text]</text>
<text text-anchor="start" x="394.8702" y="-537.4" font-family="Arial" font-size="14.00" fill="#000000"> プラグイン名</text>
<polygon fill="none" stroke="#000000" points="273.5,-496 273.5,-526 614.5,-526 614.5,-496 273.5,-496"/>
<text text-anchor="start" x="280.5" y="-507.4" font-family="Arial" font-size="14.00" fill="#000000">plugin_code </text>
<text text-anchor="start" x="359.8646" y="-507.4" font-family="Arial" font-size="14.00" fill="#666666">[text]</text>
<text text-anchor="start" x="390.2096" y="-507.4" font-family="Arial" font-size="14.00" fill="#000000"> プラグインコード</text>
<polygon fill="none" stroke="#000000" points="273.5,-466 273.5,-496 614.5,-496 614.5,-466 273.5,-466"/>
<text text-anchor="start" x="280.5" y="-477.4" font-family="Arial" font-size="14.00" fill="#000000">class_name </text>
<text text-anchor="start" x="359.0708" y="-477.4" font-family="Arial" font-size="14.00" fill="#666666">[text]</text>
<text text-anchor="start" x="389.4158" y="-477.4" font-family="Arial" font-size="14.00" fill="#000000"> クラス名</text>
<polygon fill="none" stroke="#000000" points="273.5,-436 273.5,-466 614.5,-466 614.5,-436 273.5,-436"/>
<text text-anchor="start" x="280.5" y="-447.4" font-family="Arial" font-size="14.00" fill="#000000">author </text>
<text text-anchor="start" x="324.0722" y="-447.4" font-family="Arial" font-size="14.00" fill="#666666">[text]</text>
<text text-anchor="start" x="354.4172" y="-447.4" font-family="Arial" font-size="14.00" fill="#000000"> 作成者</text>
<polygon fill="none" stroke="#000000" points="273.5,-406 273.5,-436 614.5,-436 614.5,-406 273.5,-406"/>
<text text-anchor="start" x="280.5" y="-417.4" font-family="Arial" font-size="14.00" fill="#000000">author_site_url </text>
<text text-anchor="start" x="376.967" y="-417.4" font-family="Arial" font-size="14.00" fill="#666666">[text]</text>
<text text-anchor="start" x="407.312" y="-417.4" font-family="Arial" font-size="14.00" fill="#000000"> 作成者サイトURL</text>
<polygon fill="none" stroke="#000000" points="273.5,-376 273.5,-406 614.5,-406 614.5,-376 273.5,-376"/>
<text text-anchor="start" x="280.5" y="-387.4" font-family="Arial" font-size="14.00" fill="#000000">plugin_site_url </text>
<text text-anchor="start" x="374.629" y="-387.4" font-family="Arial" font-size="14.00" fill="#666666">[text]</text>
<text text-anchor="start" x="404.974" y="-387.4" font-family="Arial" font-size="14.00" fill="#000000"> サイトURL</text>
<polygon fill="none" stroke="#000000" points="273.5,-346 273.5,-376 614.5,-376 614.5,-346 273.5,-346"/>
<text text-anchor="start" x="280.5" y="-357.4" font-family="Arial" font-size="14.00" fill="#000000">plugin_version </text>
<text text-anchor="start" x="374.6318" y="-357.4" font-family="Arial" font-size="14.00" fill="#666666">[text]</text>
<text text-anchor="start" x="404.9768" y="-357.4" font-family="Arial" font-size="14.00" fill="#000000"> バージョン</text>
<polygon fill="none" stroke="#000000" points="273.5,-316 273.5,-346 614.5,-346 614.5,-316 273.5,-316"/>
<text text-anchor="start" x="280.5" y="-327.4" font-family="Arial" font-size="14.00" fill="#000000">compliant_version </text>
<text text-anchor="start" x="397.183" y="-327.4" font-family="Arial" font-size="14.00" fill="#666666">[text]</text>
<text text-anchor="start" x="427.528" y="-327.4" font-family="Arial" font-size="14.00" fill="#000000"> 本体対応バージョン</text>
<polygon fill="none" stroke="#000000" points="273.5,-286 273.5,-316 614.5,-316 614.5,-286 273.5,-286"/>
<text text-anchor="start" x="280.5" y="-297.4" font-family="Arial" font-size="14.00" fill="#000000">plugin_description </text>
<text text-anchor="start" x="397.1942" y="-297.4" font-family="Arial" font-size="14.00" fill="#666666">[text]</text>
<text text-anchor="start" x="427.5392" y="-297.4" font-family="Arial" font-size="14.00" fill="#000000"> 詳細説明</text>
<polygon fill="none" stroke="#000000" points="273.5,-256 273.5,-286 614.5,-286 614.5,-256 273.5,-256"/>
<text text-anchor="start" x="280.5" y="-267.4" font-family="Arial" font-size="14.00" fill="#000000">priority </text>
<text text-anchor="start" x="326.3808" y="-267.4" font-family="Arial" font-size="14.00" fill="#666666">[integer]</text>
<text text-anchor="start" x="376.9502" y="-267.4" font-family="Arial" font-size="14.00" fill="#000000"> 優先度</text>
<polygon fill="none" stroke="#000000" points="273.5,-226 273.5,-256 614.5,-256 614.5,-226 273.5,-226"/>
<text text-anchor="start" x="280.5" y="-237.4" font-family="Arial" font-size="14.00" fill="#000000">enable </text>
<text text-anchor="start" x="326.4102" y="-237.4" font-family="Arial" font-size="14.00" fill="#666666">[smallint]</text>
<text text-anchor="start" x="381.6276" y="-237.4" font-family="Arial" font-size="14.00" fill="#000000"> 有効</text>
<polygon fill="none" stroke="#000000" points="273.5,-196 273.5,-226 614.5,-226 614.5,-196 273.5,-196"/>
<text text-anchor="start" x="280.5" y="-207.4" font-family="Arial" font-size="14.00" fill="#000000">free_field1 </text>
<text text-anchor="start" x="349.7412" y="-207.4" font-family="Arial" font-size="14.00" fill="#666666">[text]</text>
<text text-anchor="start" x="380.0862" y="-207.4" font-family="Arial" font-size="14.00" fill="#000000"> 任意項目１</text>
<polygon fill="none" stroke="#000000" points="273.5,-166 273.5,-196 614.5,-196 614.5,-166 273.5,-166"/>
<text text-anchor="start" x="280.5" y="-177.4" font-family="Arial" font-size="14.00" fill="#000000">free_field2 </text>
<text text-anchor="start" x="349.7412" y="-177.4" font-family="Arial" font-size="14.00" fill="#666666">[text]</text>
<text text-anchor="start" x="380.0862" y="-177.4" font-family="Arial" font-size="14.00" fill="#000000"> 任意項目２</text>
<polygon fill="none" stroke="#000000" points="273.5,-136 273.5,-166 614.5,-166 614.5,-136 273.5,-136"/>
<text text-anchor="start" x="280.5" y="-147.4" font-family="Arial" font-size="14.00" fill="#000000">free_field3 </text>
<text text-anchor="start" x="349.7412" y="-147.4" font-family="Arial" font-size="14.00" fill="#666666">[text]</text>
<text text-anchor="start" x="380.0862" y="-147.4" font-family="Arial" font-size="14.00" fill="#000000"> 任意項目３</text>
<polygon fill="none" stroke="#000000" points="273.5,-106 273.5,-136 614.5,-136 614.5,-106 273.5,-106"/>
<text text-anchor="start" x="280.5" y="-117.4" font-family="Arial" font-size="14.00" fill="#000000">free_field4 </text>
<text text-anchor="start" x="349.7412" y="-117.4" font-family="Arial" font-size="14.00" fill="#666666">[text]</text>
<text text-anchor="start" x="380.0862" y="-117.4" font-family="Arial" font-size="14.00" fill="#000000"> 任意項目４</text>
<polygon fill="none" stroke="#000000" points="273.5,-76 273.5,-106 614.5,-106 614.5,-76 273.5,-76"/>
<text text-anchor="start" x="280.235" y="-87.4" font-family="Arial" font-size="14.00" fill="#000000">create_date </text>
<text text-anchor="start" x="358.0456" y="-87.4" font-family="Arial" font-size="14.00" fill="#666666">[timestamp without time zone]</text>
<text text-anchor="start" x="543.1858" y="-87.4" font-family="Arial" font-size="14.00" fill="#000000"> 作成日時</text>
<polygon fill="none" stroke="#000000" points="273.5,-46 273.5,-76 614.5,-76 614.5,-46 273.5,-46"/>
<text text-anchor="start" x="280.5" y="-57.4" font-family="Arial" font-size="14.00" fill="#000000">update_date </text>
<text text-anchor="start" x="362.2152" y="-57.4" font-family="Arial" font-size="14.00" fill="#666666">[timestamp without time zone]</text>
<text text-anchor="start" x="547.3554" y="-57.4" font-family="Arial" font-size="14.00" fill="#000000"> 更新日時</text>
<polygon fill="none" stroke="#000000" stroke-width="3" points="271.5,-44.5 271.5,-633.5 615.5,-633.5 615.5,-44.5 271.5,-44.5"/>
</g>
<!-- public.dtb_bloc -->
<g id="node2" class="node">
<title>public.dtb_bloc</title>
<polygon fill="#efefef" stroke="transparent" points="43.5,-1057 43.5,-1103 384.5,-1103 384.5,-1057 43.5,-1057"/>
<polygon fill="none" stroke="#000000" points="43.5,-1057 43.5,-1103 384.5,-1103 384.5,-1057 43.5,-1057"/>
<text text-anchor="start" x="105.3548" y="-1080.8" font-family="Arial Bold" font-size="18.00" fill="#000000">public.dtb_bloc</text>
<text text-anchor="start" x="225.3914" y="-1080.8" font-family="Arial" font-size="14.00" fill="#000000"> </text>
<text text-anchor="start" x="229.282" y="-1080.8" font-family="Arial" font-size="14.00" fill="#666666">[BASE TABLE]</text>
<text text-anchor="start" x="172.5229" y="-1066.4" font-family="Arial" font-size="14.00" fill="#333333">ブロック情報</text>
<polygon fill="none" stroke="#000000" points="43.5,-1027 43.5,-1057 384.5,-1057 384.5,-1027 43.5,-1027"/>
<text text-anchor="start" x="50.5" y="-1038.4" font-family="Arial" font-size="14.00" fill="#000000">device_type_id </text>
<text text-anchor="start" x="147.7552" y="-1038.4" font-family="Arial" font-size="14.00" fill="#666666">[integer]</text>
<text text-anchor="start" x="198.3246" y="-1038.4" font-family="Arial" font-size="14.00" fill="#000000"> 端末種別ID</text>
<polygon fill="none" stroke="#000000" points="43.5,-997 43.5,-1027 384.5,-1027 384.5,-997 43.5,-997"/>
<text text-anchor="start" x="50.5" y="-1008.4" font-family="Arial" font-size="14.00" fill="#000000">bloc_id </text>
<text text-anchor="start" x="98.7342" y="-1008.4" font-family="Arial" font-size="14.00" fill="#666666">[integer]</text>
<text text-anchor="start" x="149.3036" y="-1008.4" font-family="Arial" font-size="14.00" fill="#000000"> ブロックID</text>
<polygon fill="none" stroke="#000000" points="43.5,-967 43.5,-997 384.5,-997 384.5,-967 43.5,-967"/>
<text text-anchor="start" x="50.5" y="-978.4" font-family="Arial" font-size="14.00" fill="#000000">bloc_name </text>
<text text-anchor="start" x="122.8534" y="-978.4" font-family="Arial" font-size="14.00" fill="#666666">[text]</text>
<text text-anchor="start" x="153.1984" y="-978.4" font-family="Arial" font-size="14.00" fill="#000000"> ブロック名</text>
<polygon fill="none" stroke="#000000" points="43.5,-937 43.5,-967 384.5,-967 384.5,-937 43.5,-937"/>
<text text-anchor="start" x="50.5" y="-948.4" font-family="Arial" font-size="14.00" fill="#000000">tpl_path </text>
<text text-anchor="start" x="104.1914" y="-948.4" font-family="Arial" font-size="14.00" fill="#666666">[text]</text>
<text text-anchor="start" x="134.5364" y="-948.4" font-family="Arial" font-size="14.00" fill="#000000"> Smartyテンプレートパス</text>
<polygon fill="none" stroke="#000000" points="43.5,-907 43.5,-937 384.5,-937 384.5,-907 43.5,-907"/>
<text text-anchor="start" x="50.5" y="-918.4" font-family="Arial" font-size="14.00" fill="#000000">filename </text>
<text text-anchor="start" x="107.2854" y="-918.4" font-family="Arial" font-size="14.00" fill="#666666">[text]</text>
<text text-anchor="start" x="137.6304" y="-918.4" font-family="Arial" font-size="14.00" fill="#000000"> ファイル名</text>
<polygon fill="none" stroke="#000000" points="43.5,-877 43.5,-907 384.5,-907 384.5,-877 43.5,-877"/>
<text text-anchor="start" x="50.235" y="-888.4" font-family="Arial" font-size="14.00" fill="#000000">create_date </text>
<text text-anchor="start" x="128.0456" y="-888.4" font-family="Arial" font-size="14.00" fill="#666666">[timestamp without time zone]</text>
<text text-anchor="start" x="313.1858" y="-888.4" font-family="Arial" font-size="14.00" fill="#000000"> 作成日時</text>
<polygon fill="none" stroke="#000000" points="43.5,-847 43.5,-877 384.5,-877 384.5,-847 43.5,-847"/>
<text text-anchor="start" x="50.5" y="-858.4" font-family="Arial" font-size="14.00" fill="#000000">update_date </text>
<text text-anchor="start" x="132.2152" y="-858.4" font-family="Arial" font-size="14.00" fill="#666666">[timestamp without time zone]</text>
<text text-anchor="start" x="317.3554" y="-858.4" font-family="Arial" font-size="14.00" fill="#000000"> 更新日時</text>
<polygon fill="none" stroke="#000000" points="43.5,-817 43.5,-847 384.5,-847 384.5,-817 43.5,-817"/>
<text text-anchor="start" x="50.5" y="-828.4" font-family="Arial" font-size="14.00" fill="#000000">php_path </text>
<text text-anchor="start" x="112.7594" y="-828.4" font-family="Arial" font-size="14.00" fill="#666666">[text]</text>
<text text-anchor="start" x="143.1044" y="-828.4" font-family="Arial" font-size="14.00" fill="#000000"> PHPパス</text>
<polygon fill="none" stroke="#000000" points="43.5,-787 43.5,-817 384.5,-817 384.5,-787 43.5,-787"/>
<text text-anchor="start" x="50.5" y="-798.4" font-family="Arial" font-size="14.00" fill="#000000">deletable_flg </text>
<text text-anchor="start" x="133.7524" y="-798.4" font-family="Arial" font-size="14.00" fill="#666666">[smallint]</text>
<text text-anchor="start" x="188.9698" y="-798.4" font-family="Arial" font-size="14.00" fill="#000000"> 削除可能フラグ</text>
<polygon fill="none" stroke="#000000" points="43.5,-757 43.5,-787 384.5,-787 384.5,-757 43.5,-757"/>
<text text-anchor="start" x="50.5" y="-768.4" font-family="Arial" font-size="14.00" fill="#000000">plugin_id </text>
<text text-anchor="start" x="110.406" y="-768.4" font-family="Arial" font-size="14.00" fill="#666666">[integer]</text>
<text text-anchor="start" x="160.9754" y="-768.4" font-family="Arial" font-size="14.00" fill="#000000"> プラグインID</text>
</g>
<!-- public.dtb_bloc&#45;&gt;public.dtb_plugin -->
<g id="edge1" class="edge">
<title>public.dtb_bloc:plugin_id&#45;&gt;public.dtb_plugin:plugin_id</title>
<path fill="none" stroke="#000000" stroke-dasharray="5,2" d="M394.3891,-769.2362C406.6708,-760.2491 397.1707,-731.4298 384.5,-714 354.0044,-672.0501 303.9956,-719.9499 273.5,-678 245.5372,-639.5343 225.9444,-571 273.5,-571"/>
<polygon fill="#000000" stroke="#000000" points="394.1309,-769.3083 383.2887,-767.6661 389.3155,-770.6541 384.5,-772 384.5,-772 384.5,-772 389.3155,-770.6541 385.7113,-776.3339 394.1309,-769.3083 394.1309,-769.3083"/>
<text text-anchor="start" x="391.8245" y="-782" font-family="Arial" font-size="10.00" fill="#000000">Additional Relation</text>
</g>
<!-- public.dtb_plugin_hookpoint -->
<g id="node3" class="node">
<title>public.dtb_plugin_hookpoint</title>
<polygon fill="#efefef" stroke="transparent" points="488.5,-1012 488.5,-1058 860.5,-1058 860.5,-1012 488.5,-1012"/>
<polygon fill="none" stroke="#000000" points="488.5,-1012 488.5,-1058 860.5,-1058 860.5,-1012 488.5,-1012"/>
<text text-anchor="start" x="514.3316" y="-1035.8" font-family="Arial Bold" font-size="18.00" fill="#000000">public.dtb_plugin_hookpoint</text>
<text text-anchor="start" x="737.4146" y="-1035.8" font-family="Arial" font-size="14.00" fill="#000000"> </text>
<text text-anchor="start" x="741.3052" y="-1035.8" font-family="Arial" font-size="14.00" fill="#666666">[BASE TABLE]</text>
<text text-anchor="start" x="593.4575" y="-1021.4" font-family="Arial" font-size="14.00" fill="#333333">プラグインフックポイント</text>
<polygon fill="none" stroke="#000000" points="488.5,-982 488.5,-1012 860.5,-1012 860.5,-982 488.5,-982"/>
<text text-anchor="start" x="495.0382" y="-993.4" font-family="Arial" font-size="14.00" fill="#000000">plugin_hookpoint_id </text>
<text text-anchor="start" x="623.4196" y="-993.4" font-family="Arial" font-size="14.00" fill="#666666">[integer]</text>
<text text-anchor="start" x="673.989" y="-993.4" font-family="Arial" font-size="14.00" fill="#000000"> プラグインフックポイントID</text>
<polygon fill="none" stroke="#000000" points="488.5,-952 488.5,-982 860.5,-982 860.5,-952 488.5,-952"/>
<text text-anchor="start" x="495.5" y="-963.4" font-family="Arial" font-size="14.00" fill="#000000">plugin_id </text>
<text text-anchor="start" x="555.406" y="-963.4" font-family="Arial" font-size="14.00" fill="#666666">[integer]</text>
<text text-anchor="start" x="605.9754" y="-963.4" font-family="Arial" font-size="14.00" fill="#000000"> プラグインID</text>
<polygon fill="none" stroke="#000000" points="488.5,-922 488.5,-952 860.5,-952 860.5,-922 488.5,-922"/>
<text text-anchor="start" x="495.5" y="-933.4" font-family="Arial" font-size="14.00" fill="#000000">hook_point </text>
<text text-anchor="start" x="567.866" y="-933.4" font-family="Arial" font-size="14.00" fill="#666666">[text]</text>
<text text-anchor="start" x="598.211" y="-933.4" font-family="Arial" font-size="14.00" fill="#000000"> フックポイント</text>
<polygon fill="none" stroke="#000000" points="488.5,-892 488.5,-922 860.5,-922 860.5,-892 488.5,-892"/>
<text text-anchor="start" x="495.5" y="-903.4" font-family="Arial" font-size="14.00" fill="#000000">callback </text>
<text text-anchor="start" x="549.9516" y="-903.4" font-family="Arial" font-size="14.00" fill="#666666">[text]</text>
<text text-anchor="start" x="580.2966" y="-903.4" font-family="Arial" font-size="14.00" fill="#000000"> コールバック関数</text>
<polygon fill="none" stroke="#000000" points="488.5,-862 488.5,-892 860.5,-892 860.5,-862 488.5,-862"/>
<text text-anchor="start" x="495.5" y="-873.4" font-family="Arial" font-size="14.00" fill="#000000">use_flg </text>
<text text-anchor="start" x="544.5182" y="-873.4" font-family="Arial" font-size="14.00" fill="#666666">[smallint]</text>
<text text-anchor="start" x="599.7356" y="-873.4" font-family="Arial" font-size="14.00" fill="#000000"> 【2.13】利用フラグ</text>
<polygon fill="none" stroke="#000000" points="488.5,-832 488.5,-862 860.5,-862 860.5,-832 488.5,-832"/>
<text text-anchor="start" x="495.5" y="-843.4" font-family="Arial" font-size="14.00" fill="#000000">create_date </text>
<text text-anchor="start" x="573.3106" y="-843.4" font-family="Arial" font-size="14.00" fill="#666666">[timestamp without time zone]</text>
<text text-anchor="start" x="758.4508" y="-843.4" font-family="Arial" font-size="14.00" fill="#000000"> 作成日時</text>
<polygon fill="none" stroke="#000000" points="488.5,-802 488.5,-832 860.5,-832 860.5,-802 488.5,-802"/>
<text text-anchor="start" x="495.5" y="-813.4" font-family="Arial" font-size="14.00" fill="#000000">update_date </text>
<text text-anchor="start" x="577.2152" y="-813.4" font-family="Arial" font-size="14.00" fill="#666666">[timestamp without time zone]</text>
<text text-anchor="start" x="762.3554" y="-813.4" font-family="Arial" font-size="14.00" fill="#000000"> 更新日時</text>
</g>
<!-- public.dtb_plugin_hookpoint&#45;&gt;public.dtb_plugin -->
<g id="edge2" class="edge">
<title>public.dtb_plugin_hookpoint:plugin_id&#45;&gt;public.dtb_plugin:plugin_id</title>
<path fill="none" stroke="#000000" stroke-dasharray="5,2" d="M478.3016,-966.4296C399.8111,-957.1588 445.9321,-836.9701 488.5,-759 520.4011,-700.5678 582.5989,-736.4322 614.5,-678 637.2881,-636.2599 662.0556,-571 614.5,-571"/>
<polygon fill="#000000" stroke="#000000" points="478.5156,-966.4414 488.2486,-971.493 483.5078,-966.7207 488.5,-967 488.5,-967 488.5,-967 483.5078,-966.7207 488.7514,-962.507 478.5156,-966.4414 478.5156,-966.4414"/>
<text text-anchor="start" x="398.8245" y="-977" font-family="Arial" font-size="10.00" fill="#000000">Additional Relation</text>
</g>
</g>
</svg>
