<?xml version="1.0" encoding="UTF-8" standalone="no"?>
<!DOCTYPE svg PUBLIC "-//W3C//DTD SVG 1.1//EN"
 "http://www.w3.org/Graphics/SVG/1.1/DTD/svg11.dtd">
<!-- Generated by graphviz version 2.40.1 (20161225.0304)
 -->
<!-- Title: public.dtb_bkup Pages: 1 -->
<svg width="376pt" height="225pt"
 viewBox="0.00 0.00 376.00 225.00" xmlns="http://www.w3.org/2000/svg" xmlns:xlink="http://www.w3.org/1999/xlink">
<g id="graph0" class="graph" transform="scale(1 1) rotate(0) translate(4 221)">
<title>public.dtb_bkup</title>
<polygon fill="#ffffff" stroke="transparent" points="-4,4 -4,-221 372,-221 372,4 -4,4"/>
<!-- public.dtb_bkup -->
<g id="node1" class="node">
<title>public.dtb_bkup</title>
<polygon fill="#efefef" stroke="transparent" points="46,-135.5 46,-170.5 322,-170.5 322,-135.5 46,-135.5"/>
<polygon fill="none" stroke="#000000" points="46,-135.5 46,-170.5 322,-170.5 322,-135.5 46,-135.5"/>
<text text-anchor="start" x="72.3488" y="-148.3" font-family="Arial Bold" font-size="18.00" fill="#000000">public.dtb_bkup</text>
<text text-anchor="start" x="198.3974" y="-148.3" font-family="Arial" font-size="14.00" fill="#000000"> </text>
<text text-anchor="start" x="202.288" y="-148.3" font-family="Arial" font-size="14.00" fill="#666666">[BASE TABLE]</text>
<polygon fill="none" stroke="#000000" points="46,-105.5 46,-135.5 322,-135.5 322,-105.5 46,-105.5"/>
<text text-anchor="start" x="53" y="-116.9" font-family="Arial" font-size="14.00" fill="#000000">bkup_name </text>
<text text-anchor="start" x="130.0294" y="-116.9" font-family="Arial" font-size="14.00" fill="#666666">[text]</text>
<polygon fill="none" stroke="#000000" points="46,-75.5 46,-105.5 322,-105.5 322,-75.5 46,-75.5"/>
<text text-anchor="start" x="53" y="-86.9" font-family="Arial" font-size="14.00" fill="#000000">bkup_memo </text>
<text text-anchor="start" x="133.9074" y="-86.9" font-family="Arial" font-size="14.00" fill="#666666">[text]</text>
<polygon fill="none" stroke="#000000" points="46,-45.5 46,-75.5 322,-75.5 322,-45.5 46,-45.5"/>
<text text-anchor="start" x="52.5246" y="-56.9" font-family="Arial" font-size="14.00" fill="#000000">create_date </text>
<text text-anchor="start" x="130.3352" y="-56.9" font-family="Arial" font-size="14.00" fill="#666666">[timestamp without time zone]</text>
<polygon fill="none" stroke="#000000" stroke-width="3" points="44.5,-44.5 44.5,-172.5 323.5,-172.5 323.5,-44.5 44.5,-44.5"/>
</g>
</g>
</svg>
