<?xml version="1.0" encoding="UTF-8" standalone="no"?>
<!DOCTYPE svg PUBLIC "-//W3C//DTD SVG 1.1//EN"
 "http://www.w3.org/Graphics/SVG/1.1/DTD/svg11.dtd">
<!-- Generated by graphviz version 2.40.1 (20161225.0304)
 -->
<!-- Title: public.dtb_delivtime Pages: 1 -->
<svg width="553pt" height="1772pt"
 viewBox="0.00 0.00 552.50 1772.00" xmlns="http://www.w3.org/2000/svg" xmlns:xlink="http://www.w3.org/1999/xlink">
<g id="graph0" class="graph" transform="scale(1 1) rotate(0) translate(4 1768)">
<title>public.dtb_delivtime</title>
<polygon fill="#ffffff" stroke="transparent" points="-4,4 -4,-1768 548.5,-1768 548.5,4 -4,4"/>
<!-- public.dtb_delivtime -->
<g id="node1" class="node">
<title>public.dtb_delivtime</title>
<polygon fill="#efefef" stroke="transparent" points="165,-664 165,-710 434,-710 434,-664 165,-664"/>
<polygon fill="none" stroke="#000000" points="165,-664 165,-710 434,-710 434,-664 165,-664"/>
<text text-anchor="start" x="171.8603" y="-687.8" font-family="Arial Bold" font-size="18.00" fill="#000000">public.dtb_delivtime</text>
<text text-anchor="start" x="329.8859" y="-687.8" font-family="Arial" font-size="14.00" fill="#000000"> </text>
<text text-anchor="start" x="333.7765" y="-687.8" font-family="Arial" font-size="14.00" fill="#666666">[BASE TABLE]</text>
<text text-anchor="start" x="252.0386" y="-673.4" font-family="Arial" font-size="14.00" fill="#333333">配送時間情報</text>
<polygon fill="none" stroke="#000000" points="165,-634 165,-664 434,-664 434,-634 165,-634"/>
<text text-anchor="start" x="172" y="-645.4" font-family="Arial" font-size="14.00" fill="#000000">deliv_id </text>
<text text-anchor="start" x="223.3408" y="-645.4" font-family="Arial" font-size="14.00" fill="#666666">[integer]</text>
<text text-anchor="start" x="273.9102" y="-645.4" font-family="Arial" font-size="14.00" fill="#000000"> 配送業者ID</text>
<polygon fill="none" stroke="#000000" points="165,-604 165,-634 434,-634 434,-604 165,-604"/>
<text text-anchor="start" x="172" y="-615.4" font-family="Arial" font-size="14.00" fill="#000000">time_id </text>
<text text-anchor="start" x="221.0028" y="-615.4" font-family="Arial" font-size="14.00" fill="#666666">[integer]</text>
<text text-anchor="start" x="271.5722" y="-615.4" font-family="Arial" font-size="14.00" fill="#000000"> 配送時間ID</text>
<polygon fill="none" stroke="#000000" points="165,-574 165,-604 434,-604 434,-574 165,-574"/>
<text text-anchor="start" x="172" y="-585.4" font-family="Arial" font-size="14.00" fill="#000000">deliv_time </text>
<text text-anchor="start" x="238.892" y="-585.4" font-family="Arial" font-size="14.00" fill="#666666">[text]</text>
<text text-anchor="start" x="269.237" y="-585.4" font-family="Arial" font-size="14.00" fill="#000000"> 配送時間</text>
<polygon fill="none" stroke="#000000" stroke-width="3" points="163,-572.5 163,-711.5 435,-711.5 435,-572.5 163,-572.5"/>
</g>
<!-- public.dtb_deliv -->
<g id="node2" class="node">
<title>public.dtb_deliv</title>
<polygon fill="#efefef" stroke="transparent" points="129,-403 129,-449 470,-449 470,-403 129,-403"/>
<polygon fill="none" stroke="#000000" points="129,-403 129,-449 470,-449 470,-403 129,-403"/>
<text text-anchor="start" x="188.8577" y="-426.8" font-family="Arial Bold" font-size="18.00" fill="#000000">public.dtb_deliv</text>
<text text-anchor="start" x="312.8885" y="-426.8" font-family="Arial" font-size="14.00" fill="#000000"> </text>
<text text-anchor="start" x="316.7791" y="-426.8" font-family="Arial" font-size="14.00" fill="#666666">[BASE TABLE]</text>
<text text-anchor="start" x="251.2616" y="-412.4" font-family="Arial" font-size="14.00" fill="#333333">配送業者情報</text>
<polygon fill="none" stroke="#000000" points="129,-373 129,-403 470,-403 470,-373 129,-373"/>
<text text-anchor="start" x="136" y="-384.4" font-family="Arial" font-size="14.00" fill="#000000">deliv_id </text>
<text text-anchor="start" x="187.3408" y="-384.4" font-family="Arial" font-size="14.00" fill="#666666">[integer]</text>
<text text-anchor="start" x="237.9102" y="-384.4" font-family="Arial" font-size="14.00" fill="#000000"> 配送業者ID</text>
<polygon fill="none" stroke="#000000" points="129,-343 129,-373 470,-373 470,-343 129,-343"/>
<text text-anchor="start" x="136" y="-354.4" font-family="Arial" font-size="14.00" fill="#000000">product_type_id </text>
<text text-anchor="start" x="239.4824" y="-354.4" font-family="Arial" font-size="14.00" fill="#666666">[integer]</text>
<text text-anchor="start" x="290.0518" y="-354.4" font-family="Arial" font-size="14.00" fill="#000000"> 商品種別ID</text>
<polygon fill="none" stroke="#000000" points="129,-313 129,-343 470,-343 470,-313 129,-313"/>
<text text-anchor="start" x="136" y="-324.4" font-family="Arial" font-size="14.00" fill="#000000">name </text>
<text text-anchor="start" x="174.899" y="-324.4" font-family="Arial" font-size="14.00" fill="#666666">[text]</text>
<text text-anchor="start" x="205.244" y="-324.4" font-family="Arial" font-size="14.00" fill="#000000"> 配送業者名</text>
<polygon fill="none" stroke="#000000" points="129,-283 129,-313 470,-313 470,-283 129,-283"/>
<text text-anchor="start" x="136" y="-294.4" font-family="Arial" font-size="14.00" fill="#000000">service_name </text>
<text text-anchor="start" x="227.014" y="-294.4" font-family="Arial" font-size="14.00" fill="#666666">[text]</text>
<text text-anchor="start" x="257.359" y="-294.4" font-family="Arial" font-size="14.00" fill="#000000"> 配送サービス名</text>
<polygon fill="none" stroke="#000000" points="129,-253 129,-283 470,-283 470,-253 129,-253"/>
<text text-anchor="start" x="136" y="-264.4" font-family="Arial" font-size="14.00" fill="#000000">remark </text>
<text text-anchor="start" x="183.4376" y="-264.4" font-family="Arial" font-size="14.00" fill="#666666">[text]</text>
<text text-anchor="start" x="213.7826" y="-264.4" font-family="Arial" font-size="14.00" fill="#000000"> 説明</text>
<polygon fill="none" stroke="#000000" points="129,-223 129,-253 470,-253 470,-223 129,-223"/>
<text text-anchor="start" x="136" y="-234.4" font-family="Arial" font-size="14.00" fill="#000000">confirm_url </text>
<text text-anchor="start" x="209.1066" y="-234.4" font-family="Arial" font-size="14.00" fill="#666666">[text]</text>
<text text-anchor="start" x="239.4516" y="-234.4" font-family="Arial" font-size="14.00" fill="#000000"> 伝票確認URL</text>
<polygon fill="none" stroke="#000000" points="129,-193 129,-223 470,-223 470,-193 129,-193"/>
<text text-anchor="start" x="136" y="-204.4" font-family="Arial" font-size="14.00" fill="#000000">rank </text>
<text text-anchor="start" x="167.1164" y="-204.4" font-family="Arial" font-size="14.00" fill="#666666">[integer]</text>
<text text-anchor="start" x="217.6858" y="-204.4" font-family="Arial" font-size="14.00" fill="#000000"> 表示順</text>
<polygon fill="none" stroke="#000000" points="129,-163 129,-193 470,-193 470,-163 129,-163"/>
<text text-anchor="start" x="136" y="-174.4" font-family="Arial" font-size="14.00" fill="#000000">status </text>
<text text-anchor="start" x="177.237" y="-174.4" font-family="Arial" font-size="14.00" fill="#666666">[smallint]</text>
<text text-anchor="start" x="232.4544" y="-174.4" font-family="Arial" font-size="14.00" fill="#000000"> 状態</text>
<polygon fill="none" stroke="#000000" points="129,-133 129,-163 470,-163 470,-133 129,-133"/>
<text text-anchor="start" x="136" y="-144.4" font-family="Arial" font-size="14.00" fill="#000000">del_flg </text>
<text text-anchor="start" x="181.1248" y="-144.4" font-family="Arial" font-size="14.00" fill="#666666">[smallint]</text>
<text text-anchor="start" x="236.3422" y="-144.4" font-family="Arial" font-size="14.00" fill="#000000"> 削除フラグ</text>
<polygon fill="none" stroke="#000000" points="129,-103 129,-133 470,-133 470,-103 129,-103"/>
<text text-anchor="start" x="136" y="-114.4" font-family="Arial" font-size="14.00" fill="#000000">creator_id </text>
<text text-anchor="start" x="202.122" y="-114.4" font-family="Arial" font-size="14.00" fill="#666666">[integer]</text>
<text text-anchor="start" x="252.6914" y="-114.4" font-family="Arial" font-size="14.00" fill="#000000"> 作成者ID</text>
<polygon fill="none" stroke="#000000" points="129,-73 129,-103 470,-103 470,-73 129,-73"/>
<text text-anchor="start" x="135.735" y="-84.4" font-family="Arial" font-size="14.00" fill="#000000">create_date </text>
<text text-anchor="start" x="213.5456" y="-84.4" font-family="Arial" font-size="14.00" fill="#666666">[timestamp without time zone]</text>
<text text-anchor="start" x="398.6858" y="-84.4" font-family="Arial" font-size="14.00" fill="#000000"> 作成日時</text>
<polygon fill="none" stroke="#000000" points="129,-43 129,-73 470,-73 470,-43 129,-43"/>
<text text-anchor="start" x="136" y="-54.4" font-family="Arial" font-size="14.00" fill="#000000">update_date </text>
<text text-anchor="start" x="217.7152" y="-54.4" font-family="Arial" font-size="14.00" fill="#666666">[timestamp without time zone]</text>
<text text-anchor="start" x="402.8554" y="-54.4" font-family="Arial" font-size="14.00" fill="#000000"> 更新日時</text>
</g>
<!-- public.dtb_delivtime&#45;&gt;public.dtb_deliv -->
<g id="edge1" class="edge">
<title>public.dtb_delivtime:deliv_id&#45;&gt;public.dtb_deliv:deliv_id</title>
<path fill="none" stroke="#000000" stroke-dasharray="5,2" d="M154.9188,-648.3411C45.9238,-633.931 15.3324,-388 129,-388"/>
<polygon fill="#000000" stroke="#000000" points="155.0213,-648.3477 164.7065,-653.4904 160.0106,-648.6738 165,-649 165,-649 165,-649 160.0106,-648.6738 165.2935,-644.5096 155.0213,-648.3477 155.0213,-648.3477"/>
<text text-anchor="start" x="75.3245" y="-659" font-family="Arial" font-size="10.00" fill="#000000">Additional Relation</text>
</g>
<!-- public.dtb_shipping -->
<g id="node3" class="node">
<title>public.dtb_shipping</title>
<polygon fill="#efefef" stroke="transparent" points="97,-1675 97,-1721 502,-1721 502,-1675 97,-1675"/>
<polygon fill="none" stroke="#000000" points="97,-1675 97,-1721 502,-1721 502,-1675 97,-1675"/>
<text text-anchor="start" x="173.8484" y="-1698.8" font-family="Arial Bold" font-size="18.00" fill="#000000">public.dtb_shipping</text>
<text text-anchor="start" x="327.8978" y="-1698.8" font-family="Arial" font-size="14.00" fill="#000000"> </text>
<text text-anchor="start" x="331.7884" y="-1698.8" font-family="Arial" font-size="14.00" fill="#666666">[BASE TABLE]</text>
<text text-anchor="start" x="261.3745" y="-1684.4" font-family="Arial" font-size="14.00" fill="#333333">配送先情報</text>
<polygon fill="none" stroke="#000000" points="97,-1645 97,-1675 502,-1675 502,-1645 97,-1645"/>
<text text-anchor="start" x="104" y="-1656.4" font-family="Arial" font-size="14.00" fill="#000000">shipping_id </text>
<text text-anchor="start" x="178.6886" y="-1656.4" font-family="Arial" font-size="14.00" fill="#666666">[integer]</text>
<text text-anchor="start" x="229.258" y="-1656.4" font-family="Arial" font-size="14.00" fill="#000000"> 配送先ID</text>
<polygon fill="none" stroke="#000000" points="97,-1615 97,-1645 502,-1645 502,-1615 97,-1615"/>
<text text-anchor="start" x="104" y="-1626.4" font-family="Arial" font-size="14.00" fill="#000000">order_id </text>
<text text-anchor="start" x="159.2314" y="-1626.4" font-family="Arial" font-size="14.00" fill="#666666">[integer]</text>
<text text-anchor="start" x="209.8008" y="-1626.4" font-family="Arial" font-size="14.00" fill="#000000"> 受注ID</text>
<polygon fill="none" stroke="#000000" points="97,-1585 97,-1615 502,-1615 502,-1585 97,-1585"/>
<text text-anchor="start" x="104" y="-1596.4" font-family="Arial" font-size="14.00" fill="#000000">shipping_name01 </text>
<text text-anchor="start" x="218.373" y="-1596.4" font-family="Arial" font-size="14.00" fill="#666666">[text]</text>
<text text-anchor="start" x="248.718" y="-1596.4" font-family="Arial" font-size="14.00" fill="#000000"> 配送先名前(姓)</text>
<polygon fill="none" stroke="#000000" points="97,-1555 97,-1585 502,-1585 502,-1555 97,-1555"/>
<text text-anchor="start" x="104" y="-1566.4" font-family="Arial" font-size="14.00" fill="#000000">shipping_name02 </text>
<text text-anchor="start" x="218.373" y="-1566.4" font-family="Arial" font-size="14.00" fill="#666666">[text]</text>
<text text-anchor="start" x="248.718" y="-1566.4" font-family="Arial" font-size="14.00" fill="#000000"> 配送先名前(名)</text>
<polygon fill="none" stroke="#000000" points="97,-1525 97,-1555 502,-1555 502,-1525 97,-1525"/>
<text text-anchor="start" x="104" y="-1536.4" font-family="Arial" font-size="14.00" fill="#000000">shipping_kana01 </text>
<text text-anchor="start" x="213.7124" y="-1536.4" font-family="Arial" font-size="14.00" fill="#666666">[text]</text>
<text text-anchor="start" x="244.0574" y="-1536.4" font-family="Arial" font-size="14.00" fill="#000000"> 配送先カナ(姓)</text>
<polygon fill="none" stroke="#000000" points="97,-1495 97,-1525 502,-1525 502,-1495 97,-1495"/>
<text text-anchor="start" x="104" y="-1506.4" font-family="Arial" font-size="14.00" fill="#000000">shipping_kana02 </text>
<text text-anchor="start" x="213.7124" y="-1506.4" font-family="Arial" font-size="14.00" fill="#666666">[text]</text>
<text text-anchor="start" x="244.0574" y="-1506.4" font-family="Arial" font-size="14.00" fill="#000000"> 配送先カナ(名)</text>
<polygon fill="none" stroke="#000000" points="97,-1465 97,-1495 502,-1495 502,-1465 97,-1465"/>
<text text-anchor="start" x="104" y="-1476.4" font-family="Arial" font-size="14.00" fill="#000000">shipping_company_name </text>
<text text-anchor="start" x="267.3814" y="-1476.4" font-family="Arial" font-size="14.00" fill="#666666">[text]</text>
<text text-anchor="start" x="297.7264" y="-1476.4" font-family="Arial" font-size="14.00" fill="#000000"> 【2.13】配送先会社名</text>
<polygon fill="none" stroke="#000000" points="97,-1435 97,-1465 502,-1465 502,-1435 97,-1435"/>
<text text-anchor="start" x="104" y="-1446.4" font-family="Arial" font-size="14.00" fill="#000000">shipping_tel01 </text>
<text text-anchor="start" x="198.1444" y="-1446.4" font-family="Arial" font-size="14.00" fill="#666666">[text]</text>
<text text-anchor="start" x="228.4894" y="-1446.4" font-family="Arial" font-size="14.00" fill="#000000"> 配送先電話番号(市外局番)</text>
<polygon fill="none" stroke="#000000" points="97,-1405 97,-1435 502,-1435 502,-1405 97,-1405"/>
<text text-anchor="start" x="104" y="-1416.4" font-family="Arial" font-size="14.00" fill="#000000">shipping_tel02 </text>
<text text-anchor="start" x="198.1444" y="-1416.4" font-family="Arial" font-size="14.00" fill="#666666">[text]</text>
<text text-anchor="start" x="228.4894" y="-1416.4" font-family="Arial" font-size="14.00" fill="#000000"> 配送先電話番号(市内局番)</text>
<polygon fill="none" stroke="#000000" points="97,-1375 97,-1405 502,-1405 502,-1375 97,-1375"/>
<text text-anchor="start" x="104" y="-1386.4" font-family="Arial" font-size="14.00" fill="#000000">shipping_tel03 </text>
<text text-anchor="start" x="198.1444" y="-1386.4" font-family="Arial" font-size="14.00" fill="#666666">[text]</text>
<text text-anchor="start" x="228.4894" y="-1386.4" font-family="Arial" font-size="14.00" fill="#000000"> 配送先電話番号(局番)</text>
<polygon fill="none" stroke="#000000" points="97,-1345 97,-1375 502,-1375 502,-1345 97,-1345"/>
<text text-anchor="start" x="104" y="-1356.4" font-family="Arial" font-size="14.00" fill="#000000">shipping_fax01 </text>
<text text-anchor="start" x="202.0378" y="-1356.4" font-family="Arial" font-size="14.00" fill="#666666">[text]</text>
<text text-anchor="start" x="232.3828" y="-1356.4" font-family="Arial" font-size="14.00" fill="#000000"> 配送先FAX(市外局番)</text>
<polygon fill="none" stroke="#000000" points="97,-1315 97,-1345 502,-1345 502,-1315 97,-1315"/>
<text text-anchor="start" x="104" y="-1326.4" font-family="Arial" font-size="14.00" fill="#000000">shipping_fax02 </text>
<text text-anchor="start" x="202.0378" y="-1326.4" font-family="Arial" font-size="14.00" fill="#666666">[text]</text>
<text text-anchor="start" x="232.3828" y="-1326.4" font-family="Arial" font-size="14.00" fill="#000000"> 配送先FAX(市内局番)</text>
<polygon fill="none" stroke="#000000" points="97,-1285 97,-1315 502,-1315 502,-1285 97,-1285"/>
<text text-anchor="start" x="104" y="-1296.4" font-family="Arial" font-size="14.00" fill="#000000">shipping_fax03 </text>
<text text-anchor="start" x="202.0378" y="-1296.4" font-family="Arial" font-size="14.00" fill="#666666">[text]</text>
<text text-anchor="start" x="232.3828" y="-1296.4" font-family="Arial" font-size="14.00" fill="#000000"> 配送先FAX(局番)</text>
<polygon fill="none" stroke="#000000" points="97,-1255 97,-1285 502,-1285 502,-1255 97,-1255"/>
<text text-anchor="start" x="104" y="-1266.4" font-family="Arial" font-size="14.00" fill="#000000">shipping_country_id </text>
<text text-anchor="start" x="232.3702" y="-1266.4" font-family="Arial" font-size="14.00" fill="#666666">[integer]</text>
<text text-anchor="start" x="282.9396" y="-1266.4" font-family="Arial" font-size="14.00" fill="#000000"> 【2.13】配送先国ID</text>
<polygon fill="none" stroke="#000000" points="97,-1225 97,-1255 502,-1255 502,-1225 97,-1225"/>
<text text-anchor="start" x="104" y="-1236.4" font-family="Arial" font-size="14.00" fill="#000000">shipping_pref </text>
<text text-anchor="start" x="191.9158" y="-1236.4" font-family="Arial" font-size="14.00" fill="#666666">[smallint]</text>
<text text-anchor="start" x="247.1332" y="-1236.4" font-family="Arial" font-size="14.00" fill="#000000"> 都道府県ID</text>
<polygon fill="none" stroke="#000000" points="97,-1195 97,-1225 502,-1225 502,-1195 97,-1195"/>
<text text-anchor="start" x="104" y="-1206.4" font-family="Arial" font-size="14.00" fill="#000000">shipping_zip01 </text>
<text text-anchor="start" x="201.2538" y="-1206.4" font-family="Arial" font-size="14.00" fill="#666666">[text]</text>
<text text-anchor="start" x="231.5988" y="-1206.4" font-family="Arial" font-size="14.00" fill="#000000"> 配送先郵便番号(3桁)</text>
<polygon fill="none" stroke="#000000" points="97,-1165 97,-1195 502,-1195 502,-1165 97,-1165"/>
<text text-anchor="start" x="104" y="-1176.4" font-family="Arial" font-size="14.00" fill="#000000">shipping_zip02 </text>
<text text-anchor="start" x="201.2538" y="-1176.4" font-family="Arial" font-size="14.00" fill="#666666">[text]</text>
<text text-anchor="start" x="231.5988" y="-1176.4" font-family="Arial" font-size="14.00" fill="#000000"> 配送先郵便番号(4桁)</text>
<polygon fill="none" stroke="#000000" points="97,-1135 97,-1165 502,-1165 502,-1135 97,-1135"/>
<text text-anchor="start" x="104" y="-1146.4" font-family="Arial" font-size="14.00" fill="#000000">shipping_zipcode </text>
<text text-anchor="start" x="216.0364" y="-1146.4" font-family="Arial" font-size="14.00" fill="#666666">[text]</text>
<text text-anchor="start" x="246.3814" y="-1146.4" font-family="Arial" font-size="14.00" fill="#000000"> 【2.13】配送先郵便番号(海外対応)</text>
<polygon fill="none" stroke="#000000" points="97,-1105 97,-1135 502,-1135 502,-1105 97,-1105"/>
<text text-anchor="start" x="104" y="-1116.4" font-family="Arial" font-size="14.00" fill="#000000">shipping_addr01 </text>
<text text-anchor="start" x="211.373" y="-1116.4" font-family="Arial" font-size="14.00" fill="#666666">[text]</text>
<text text-anchor="start" x="241.718" y="-1116.4" font-family="Arial" font-size="14.00" fill="#000000"> 配送先住所1</text>
<polygon fill="none" stroke="#000000" points="97,-1075 97,-1105 502,-1105 502,-1075 97,-1075"/>
<text text-anchor="start" x="104" y="-1086.4" font-family="Arial" font-size="14.00" fill="#000000">shipping_addr02 </text>
<text text-anchor="start" x="211.373" y="-1086.4" font-family="Arial" font-size="14.00" fill="#666666">[text]</text>
<text text-anchor="start" x="241.718" y="-1086.4" font-family="Arial" font-size="14.00" fill="#000000"> 配送先住所2</text>
<polygon fill="none" stroke="#000000" points="97,-1045 97,-1075 502,-1075 502,-1045 97,-1045"/>
<text text-anchor="start" x="104" y="-1056.4" font-family="Arial" font-size="14.00" fill="#000000">time_id </text>
<text text-anchor="start" x="153.0028" y="-1056.4" font-family="Arial" font-size="14.00" fill="#666666">[integer]</text>
<text text-anchor="start" x="203.5722" y="-1056.4" font-family="Arial" font-size="14.00" fill="#000000"> 配送時間ID</text>
<polygon fill="none" stroke="#000000" points="97,-1015 97,-1045 502,-1045 502,-1015 97,-1015"/>
<text text-anchor="start" x="104" y="-1026.4" font-family="Arial" font-size="14.00" fill="#000000">shipping_time </text>
<text text-anchor="start" x="194.2398" y="-1026.4" font-family="Arial" font-size="14.00" fill="#666666">[text]</text>
<text text-anchor="start" x="224.5848" y="-1026.4" font-family="Arial" font-size="14.00" fill="#000000"> 配送時間</text>
<polygon fill="none" stroke="#000000" points="97,-985 97,-1015 502,-1015 502,-985 97,-985"/>
<text text-anchor="start" x="104" y="-996.4" font-family="Arial" font-size="14.00" fill="#000000">shipping_date </text>
<text text-anchor="start" x="195.0378" y="-996.4" font-family="Arial" font-size="14.00" fill="#666666">[timestamp without time zone]</text>
<text text-anchor="start" x="380.178" y="-996.4" font-family="Arial" font-size="14.00" fill="#000000"> 配達予定日</text>
<polygon fill="none" stroke="#000000" points="97,-955 97,-985 502,-985 502,-955 97,-955"/>
<text text-anchor="start" x="103.8493" y="-966.4" font-family="Arial" font-size="14.00" fill="#000000">shipping_commit_date </text>
<text text-anchor="start" x="247.7707" y="-966.4" font-family="Arial" font-size="14.00" fill="#666666">[timestamp without time zone]</text>
<text text-anchor="start" x="432.9109" y="-966.4" font-family="Arial" font-size="14.00" fill="#000000"> 発送日時</text>
<polygon fill="none" stroke="#000000" points="97,-925 97,-955 502,-955 502,-925 97,-925"/>
<text text-anchor="start" x="104" y="-936.4" font-family="Arial" font-size="14.00" fill="#000000">rank </text>
<text text-anchor="start" x="135.1164" y="-936.4" font-family="Arial" font-size="14.00" fill="#666666">[integer]</text>
<text text-anchor="start" x="185.6858" y="-936.4" font-family="Arial" font-size="14.00" fill="#000000"> 表示順</text>
<polygon fill="none" stroke="#000000" points="97,-895 97,-925 502,-925 502,-895 97,-895"/>
<text text-anchor="start" x="104" y="-906.4" font-family="Arial" font-size="14.00" fill="#000000">create_date </text>
<text text-anchor="start" x="181.8106" y="-906.4" font-family="Arial" font-size="14.00" fill="#666666">[timestamp without time zone]</text>
<text text-anchor="start" x="366.9508" y="-906.4" font-family="Arial" font-size="14.00" fill="#000000"> 作成日時</text>
<polygon fill="none" stroke="#000000" points="97,-865 97,-895 502,-895 502,-865 97,-865"/>
<text text-anchor="start" x="104" y="-876.4" font-family="Arial" font-size="14.00" fill="#000000">update_date </text>
<text text-anchor="start" x="185.7152" y="-876.4" font-family="Arial" font-size="14.00" fill="#666666">[timestamp without time zone]</text>
<text text-anchor="start" x="370.8554" y="-876.4" font-family="Arial" font-size="14.00" fill="#000000"> 更新日時</text>
<polygon fill="none" stroke="#000000" points="97,-835 97,-865 502,-865 502,-835 97,-835"/>
<text text-anchor="start" x="104" y="-846.4" font-family="Arial" font-size="14.00" fill="#000000">del_flg </text>
<text text-anchor="start" x="149.1248" y="-846.4" font-family="Arial" font-size="14.00" fill="#666666">[smallint]</text>
<text text-anchor="start" x="204.3422" y="-846.4" font-family="Arial" font-size="14.00" fill="#000000"> 削除フラグ</text>
</g>
<!-- public.dtb_shipping&#45;&gt;public.dtb_delivtime -->
<g id="edge2" class="edge">
<title>public.dtb_shipping:time_id&#45;&gt;public.dtb_delivtime:time_id</title>
<path fill="none" stroke="#000000" stroke-dasharray="5,2" d="M86.8997,-1058.3143C2.7966,-1028.7066 69.4247,-619 165,-619"/>
<polygon fill="#000000" stroke="#000000" points="87.1364,-1058.3538 96.2592,-1064.4386 92.0682,-1059.1769 97,-1060 97,-1060 97,-1060 92.0682,-1059.1769 97.7408,-1055.5614 87.1364,-1058.3538 87.1364,-1058.3538"/>
<text text-anchor="start" x="7.3245" y="-1070" font-family="Arial" font-size="10.00" fill="#000000">Additional Relation</text>
</g>
</g>
</svg>
