<?xml version="1.0" encoding="UTF-8" standalone="no"?>
<!DOCTYPE svg PUBLIC "-//W3C//DTD SVG 1.1//EN"
 "http://www.w3.org/Graphics/SVG/1.1/DTD/svg11.dtd">
<!-- Generated by graphviz version 2.40.1 (20161225.0304)
 -->
<!-- Title: public.dtb_payment_options Pages: 1 -->
<svg width="880pt" height="1274pt"
 viewBox="0.00 0.00 880.00 1274.00" xmlns="http://www.w3.org/2000/svg" xmlns:xlink="http://www.w3.org/1999/xlink">
<g id="graph0" class="graph" transform="scale(1 1) rotate(0) translate(4 1270)">
<title>public.dtb_payment_options</title>
<polygon fill="#ffffff" stroke="transparent" points="-4,4 -4,-1270 876,-1270 876,4 -4,4"/>
<!-- public.dtb_payment_options -->
<g id="node1" class="node">
<title>public.dtb_payment_options</title>
<polygon fill="#efefef" stroke="transparent" points="268.5,-1174 268.5,-1220 603.5,-1220 603.5,-1174 268.5,-1174"/>
<polygon fill="none" stroke="#000000" points="268.5,-1174 268.5,-1220 603.5,-1220 603.5,-1174 268.5,-1174"/>
<text text-anchor="start" x="275.3348" y="-1197.8" font-family="Arial Bold" font-size="18.00" fill="#000000">public.dtb_payment_options</text>
<text text-anchor="start" x="499.4114" y="-1197.8" font-family="Arial" font-size="14.00" fill="#000000"> </text>
<text text-anchor="start" x="503.302" y="-1197.8" font-family="Arial" font-size="14.00" fill="#666666">[BASE TABLE]</text>
<text text-anchor="start" x="384.648" y="-1183.4" font-family="Arial" font-size="14.00" fill="#333333">支払選択肢情報</text>
<polygon fill="none" stroke="#000000" points="268.5,-1144 268.5,-1174 603.5,-1174 603.5,-1144 268.5,-1144"/>
<text text-anchor="start" x="275.5" y="-1155.4" font-family="Arial" font-size="14.00" fill="#000000">deliv_id </text>
<text text-anchor="start" x="326.8408" y="-1155.4" font-family="Arial" font-size="14.00" fill="#666666">[integer]</text>
<text text-anchor="start" x="377.4102" y="-1155.4" font-family="Arial" font-size="14.00" fill="#000000"> 配送業者ID</text>
<polygon fill="none" stroke="#000000" points="268.5,-1114 268.5,-1144 603.5,-1144 603.5,-1114 268.5,-1114"/>
<text text-anchor="start" x="275.5" y="-1125.4" font-family="Arial" font-size="14.00" fill="#000000">payment_id </text>
<text text-anchor="start" x="351.744" y="-1125.4" font-family="Arial" font-size="14.00" fill="#666666">[integer]</text>
<text text-anchor="start" x="402.3134" y="-1125.4" font-family="Arial" font-size="14.00" fill="#000000"> 支払方法ID</text>
<polygon fill="none" stroke="#000000" points="268.5,-1084 268.5,-1114 603.5,-1114 603.5,-1084 268.5,-1084"/>
<text text-anchor="start" x="275.5" y="-1095.4" font-family="Arial" font-size="14.00" fill="#000000">rank </text>
<text text-anchor="start" x="306.6164" y="-1095.4" font-family="Arial" font-size="14.00" fill="#666666">[integer]</text>
<text text-anchor="start" x="357.1858" y="-1095.4" font-family="Arial" font-size="14.00" fill="#000000"> 表示順</text>
<polygon fill="none" stroke="#000000" stroke-width="3" points="266.5,-1082.5 266.5,-1221.5 604.5,-1221.5 604.5,-1082.5 266.5,-1082.5"/>
</g>
<!-- public.dtb_deliv -->
<g id="node2" class="node">
<title>public.dtb_deliv</title>
<polygon fill="#efefef" stroke="transparent" points="43.5,-658 43.5,-704 384.5,-704 384.5,-658 43.5,-658"/>
<polygon fill="none" stroke="#000000" points="43.5,-658 43.5,-704 384.5,-704 384.5,-658 43.5,-658"/>
<text text-anchor="start" x="103.3577" y="-681.8" font-family="Arial Bold" font-size="18.00" fill="#000000">public.dtb_deliv</text>
<text text-anchor="start" x="227.3885" y="-681.8" font-family="Arial" font-size="14.00" fill="#000000"> </text>
<text text-anchor="start" x="231.2791" y="-681.8" font-family="Arial" font-size="14.00" fill="#666666">[BASE TABLE]</text>
<text text-anchor="start" x="165.7616" y="-667.4" font-family="Arial" font-size="14.00" fill="#333333">配送業者情報</text>
<polygon fill="none" stroke="#000000" points="43.5,-628 43.5,-658 384.5,-658 384.5,-628 43.5,-628"/>
<text text-anchor="start" x="50.5" y="-639.4" font-family="Arial" font-size="14.00" fill="#000000">deliv_id </text>
<text text-anchor="start" x="101.8408" y="-639.4" font-family="Arial" font-size="14.00" fill="#666666">[integer]</text>
<text text-anchor="start" x="152.4102" y="-639.4" font-family="Arial" font-size="14.00" fill="#000000"> 配送業者ID</text>
<polygon fill="none" stroke="#000000" points="43.5,-598 43.5,-628 384.5,-628 384.5,-598 43.5,-598"/>
<text text-anchor="start" x="50.5" y="-609.4" font-family="Arial" font-size="14.00" fill="#000000">product_type_id </text>
<text text-anchor="start" x="153.9824" y="-609.4" font-family="Arial" font-size="14.00" fill="#666666">[integer]</text>
<text text-anchor="start" x="204.5518" y="-609.4" font-family="Arial" font-size="14.00" fill="#000000"> 商品種別ID</text>
<polygon fill="none" stroke="#000000" points="43.5,-568 43.5,-598 384.5,-598 384.5,-568 43.5,-568"/>
<text text-anchor="start" x="50.5" y="-579.4" font-family="Arial" font-size="14.00" fill="#000000">name </text>
<text text-anchor="start" x="89.399" y="-579.4" font-family="Arial" font-size="14.00" fill="#666666">[text]</text>
<text text-anchor="start" x="119.744" y="-579.4" font-family="Arial" font-size="14.00" fill="#000000"> 配送業者名</text>
<polygon fill="none" stroke="#000000" points="43.5,-538 43.5,-568 384.5,-568 384.5,-538 43.5,-538"/>
<text text-anchor="start" x="50.5" y="-549.4" font-family="Arial" font-size="14.00" fill="#000000">service_name </text>
<text text-anchor="start" x="141.514" y="-549.4" font-family="Arial" font-size="14.00" fill="#666666">[text]</text>
<text text-anchor="start" x="171.859" y="-549.4" font-family="Arial" font-size="14.00" fill="#000000"> 配送サービス名</text>
<polygon fill="none" stroke="#000000" points="43.5,-508 43.5,-538 384.5,-538 384.5,-508 43.5,-508"/>
<text text-anchor="start" x="50.5" y="-519.4" font-family="Arial" font-size="14.00" fill="#000000">remark </text>
<text text-anchor="start" x="97.9376" y="-519.4" font-family="Arial" font-size="14.00" fill="#666666">[text]</text>
<text text-anchor="start" x="128.2826" y="-519.4" font-family="Arial" font-size="14.00" fill="#000000"> 説明</text>
<polygon fill="none" stroke="#000000" points="43.5,-478 43.5,-508 384.5,-508 384.5,-478 43.5,-478"/>
<text text-anchor="start" x="50.5" y="-489.4" font-family="Arial" font-size="14.00" fill="#000000">confirm_url </text>
<text text-anchor="start" x="123.6066" y="-489.4" font-family="Arial" font-size="14.00" fill="#666666">[text]</text>
<text text-anchor="start" x="153.9516" y="-489.4" font-family="Arial" font-size="14.00" fill="#000000"> 伝票確認URL</text>
<polygon fill="none" stroke="#000000" points="43.5,-448 43.5,-478 384.5,-478 384.5,-448 43.5,-448"/>
<text text-anchor="start" x="50.5" y="-459.4" font-family="Arial" font-size="14.00" fill="#000000">rank </text>
<text text-anchor="start" x="81.6164" y="-459.4" font-family="Arial" font-size="14.00" fill="#666666">[integer]</text>
<text text-anchor="start" x="132.1858" y="-459.4" font-family="Arial" font-size="14.00" fill="#000000"> 表示順</text>
<polygon fill="none" stroke="#000000" points="43.5,-418 43.5,-448 384.5,-448 384.5,-418 43.5,-418"/>
<text text-anchor="start" x="50.5" y="-429.4" font-family="Arial" font-size="14.00" fill="#000000">status </text>
<text text-anchor="start" x="91.737" y="-429.4" font-family="Arial" font-size="14.00" fill="#666666">[smallint]</text>
<text text-anchor="start" x="146.9544" y="-429.4" font-family="Arial" font-size="14.00" fill="#000000"> 状態</text>
<polygon fill="none" stroke="#000000" points="43.5,-388 43.5,-418 384.5,-418 384.5,-388 43.5,-388"/>
<text text-anchor="start" x="50.5" y="-399.4" font-family="Arial" font-size="14.00" fill="#000000">del_flg </text>
<text text-anchor="start" x="95.6248" y="-399.4" font-family="Arial" font-size="14.00" fill="#666666">[smallint]</text>
<text text-anchor="start" x="150.8422" y="-399.4" font-family="Arial" font-size="14.00" fill="#000000"> 削除フラグ</text>
<polygon fill="none" stroke="#000000" points="43.5,-358 43.5,-388 384.5,-388 384.5,-358 43.5,-358"/>
<text text-anchor="start" x="50.5" y="-369.4" font-family="Arial" font-size="14.00" fill="#000000">creator_id </text>
<text text-anchor="start" x="116.622" y="-369.4" font-family="Arial" font-size="14.00" fill="#666666">[integer]</text>
<text text-anchor="start" x="167.1914" y="-369.4" font-family="Arial" font-size="14.00" fill="#000000"> 作成者ID</text>
<polygon fill="none" stroke="#000000" points="43.5,-328 43.5,-358 384.5,-358 384.5,-328 43.5,-328"/>
<text text-anchor="start" x="50.235" y="-339.4" font-family="Arial" font-size="14.00" fill="#000000">create_date </text>
<text text-anchor="start" x="128.0456" y="-339.4" font-family="Arial" font-size="14.00" fill="#666666">[timestamp without time zone]</text>
<text text-anchor="start" x="313.1858" y="-339.4" font-family="Arial" font-size="14.00" fill="#000000"> 作成日時</text>
<polygon fill="none" stroke="#000000" points="43.5,-298 43.5,-328 384.5,-328 384.5,-298 43.5,-298"/>
<text text-anchor="start" x="50.5" y="-309.4" font-family="Arial" font-size="14.00" fill="#000000">update_date </text>
<text text-anchor="start" x="132.2152" y="-309.4" font-family="Arial" font-size="14.00" fill="#666666">[timestamp without time zone]</text>
<text text-anchor="start" x="317.3554" y="-309.4" font-family="Arial" font-size="14.00" fill="#000000"> 更新日時</text>
</g>
<!-- public.dtb_payment_options&#45;&gt;public.dtb_deliv -->
<g id="edge1" class="edge">
<title>public.dtb_payment_options:deliv_id&#45;&gt;public.dtb_deliv:deliv_id</title>
<path fill="none" stroke="#000000" stroke-dasharray="5,2" d="M258.566,-1157.4269C173.1116,-1126.2781 498.2409,-643 384.5,-643"/>
<polygon fill="#000000" stroke="#000000" points="258.6231,-1157.4358 267.7961,-1163.4446 263.5615,-1158.2179 268.5,-1159 268.5,-1159 268.5,-1159 263.5615,-1158.2179 269.2039,-1154.5554 258.6231,-1157.4358 258.6231,-1157.4358"/>
<text text-anchor="start" x="178.8245" y="-1169" font-family="Arial" font-size="10.00" fill="#000000">Additional Relation</text>
</g>
<!-- public.dtb_payment -->
<g id="node3" class="node">
<title>public.dtb_payment</title>
<polygon fill="#efefef" stroke="transparent" points="488.5,-913 488.5,-959 829.5,-959 829.5,-913 488.5,-913"/>
<polygon fill="none" stroke="#000000" points="488.5,-913 488.5,-959 829.5,-959 829.5,-913 488.5,-913"/>
<text text-anchor="start" x="532.3485" y="-936.8" font-family="Arial Bold" font-size="18.00" fill="#000000">public.dtb_payment</text>
<text text-anchor="start" x="688.3977" y="-936.8" font-family="Arial" font-size="14.00" fill="#000000"> </text>
<text text-anchor="start" x="692.2883" y="-936.8" font-family="Arial" font-size="14.00" fill="#666666">[BASE TABLE]</text>
<text text-anchor="start" x="618.1529" y="-922.4" font-family="Arial" font-size="14.00" fill="#333333">支払方法情報</text>
<polygon fill="none" stroke="#000000" points="488.5,-883 488.5,-913 829.5,-913 829.5,-883 488.5,-883"/>
<text text-anchor="start" x="495.5" y="-894.4" font-family="Arial" font-size="14.00" fill="#000000">payment_id </text>
<text text-anchor="start" x="571.744" y="-894.4" font-family="Arial" font-size="14.00" fill="#666666">[integer]</text>
<text text-anchor="start" x="622.3134" y="-894.4" font-family="Arial" font-size="14.00" fill="#000000"> 支払方法ID</text>
<polygon fill="none" stroke="#000000" points="488.5,-853 488.5,-883 829.5,-883 829.5,-853 488.5,-853"/>
<text text-anchor="start" x="495.5" y="-864.4" font-family="Arial" font-size="14.00" fill="#000000">payment_method </text>
<text text-anchor="start" x="607.5364" y="-864.4" font-family="Arial" font-size="14.00" fill="#666666">[text]</text>
<text text-anchor="start" x="637.8814" y="-864.4" font-family="Arial" font-size="14.00" fill="#000000"> 支払方法</text>
<polygon fill="none" stroke="#000000" points="488.5,-823 488.5,-853 829.5,-853 829.5,-823 488.5,-823"/>
<text text-anchor="start" x="495.5" y="-834.4" font-family="Arial" font-size="14.00" fill="#000000">charge </text>
<text text-anchor="start" x="542.1816" y="-834.4" font-family="Arial" font-size="14.00" fill="#666666">[numeric]</text>
<text text-anchor="start" x="599.7384" y="-834.4" font-family="Arial" font-size="14.00" fill="#000000"> 手数料</text>
<polygon fill="none" stroke="#000000" points="488.5,-793 488.5,-823 829.5,-823 829.5,-793 488.5,-793"/>
<text text-anchor="start" x="495.5" y="-804.4" font-family="Arial" font-size="14.00" fill="#000000">rule_max </text>
<text text-anchor="start" x="556.9488" y="-804.4" font-family="Arial" font-size="14.00" fill="#666666">[numeric]</text>
<text text-anchor="start" x="614.5056" y="-804.4" font-family="Arial" font-size="14.00" fill="#000000"> 利用条件(円以上)</text>
<polygon fill="none" stroke="#000000" points="488.5,-763 488.5,-793 829.5,-793 829.5,-763 488.5,-763"/>
<text text-anchor="start" x="495.5" y="-774.4" font-family="Arial" font-size="14.00" fill="#000000">rank </text>
<text text-anchor="start" x="526.6164" y="-774.4" font-family="Arial" font-size="14.00" fill="#666666">[integer]</text>
<text text-anchor="start" x="577.1858" y="-774.4" font-family="Arial" font-size="14.00" fill="#000000"> 表示順</text>
<polygon fill="none" stroke="#000000" points="488.5,-733 488.5,-763 829.5,-763 829.5,-733 488.5,-733"/>
<text text-anchor="start" x="495.5" y="-744.4" font-family="Arial" font-size="14.00" fill="#000000">note </text>
<text text-anchor="start" x="526.629" y="-744.4" font-family="Arial" font-size="14.00" fill="#666666">[text]</text>
<text text-anchor="start" x="556.974" y="-744.4" font-family="Arial" font-size="14.00" fill="#000000"> 備考</text>
<polygon fill="none" stroke="#000000" points="488.5,-703 488.5,-733 829.5,-733 829.5,-703 488.5,-703"/>
<text text-anchor="start" x="495.5" y="-714.4" font-family="Arial" font-size="14.00" fill="#000000">fix </text>
<text text-anchor="start" x="513.3878" y="-714.4" font-family="Arial" font-size="14.00" fill="#666666">[smallint]</text>
<text text-anchor="start" x="568.6052" y="-714.4" font-family="Arial" font-size="14.00" fill="#000000"> 固定:1　自由設定:2</text>
<polygon fill="none" stroke="#000000" points="488.5,-673 488.5,-703 829.5,-703 829.5,-673 488.5,-673"/>
<text text-anchor="start" x="495.5" y="-684.4" font-family="Arial" font-size="14.00" fill="#000000">status </text>
<text text-anchor="start" x="536.737" y="-684.4" font-family="Arial" font-size="14.00" fill="#666666">[smallint]</text>
<text text-anchor="start" x="591.9544" y="-684.4" font-family="Arial" font-size="14.00" fill="#000000"> 状態</text>
<polygon fill="none" stroke="#000000" points="488.5,-643 488.5,-673 829.5,-673 829.5,-643 488.5,-643"/>
<text text-anchor="start" x="495.5" y="-654.4" font-family="Arial" font-size="14.00" fill="#000000">del_flg </text>
<text text-anchor="start" x="540.6248" y="-654.4" font-family="Arial" font-size="14.00" fill="#666666">[smallint]</text>
<text text-anchor="start" x="595.8422" y="-654.4" font-family="Arial" font-size="14.00" fill="#000000"> 削除フラグ</text>
<polygon fill="none" stroke="#000000" points="488.5,-613 488.5,-643 829.5,-643 829.5,-613 488.5,-613"/>
<text text-anchor="start" x="495.5" y="-624.4" font-family="Arial" font-size="14.00" fill="#000000">creator_id </text>
<text text-anchor="start" x="561.622" y="-624.4" font-family="Arial" font-size="14.00" fill="#666666">[integer]</text>
<text text-anchor="start" x="612.1914" y="-624.4" font-family="Arial" font-size="14.00" fill="#000000"> 作成者ID</text>
<polygon fill="none" stroke="#000000" points="488.5,-583 488.5,-613 829.5,-613 829.5,-583 488.5,-583"/>
<text text-anchor="start" x="495.235" y="-594.4" font-family="Arial" font-size="14.00" fill="#000000">create_date </text>
<text text-anchor="start" x="573.0456" y="-594.4" font-family="Arial" font-size="14.00" fill="#666666">[timestamp without time zone]</text>
<text text-anchor="start" x="758.1858" y="-594.4" font-family="Arial" font-size="14.00" fill="#000000"> 作成日時</text>
<polygon fill="none" stroke="#000000" points="488.5,-553 488.5,-583 829.5,-583 829.5,-553 488.5,-553"/>
<text text-anchor="start" x="495.5" y="-564.4" font-family="Arial" font-size="14.00" fill="#000000">update_date </text>
<text text-anchor="start" x="577.2152" y="-564.4" font-family="Arial" font-size="14.00" fill="#666666">[timestamp without time zone]</text>
<text text-anchor="start" x="762.3554" y="-564.4" font-family="Arial" font-size="14.00" fill="#000000"> 更新日時</text>
<polygon fill="none" stroke="#000000" points="488.5,-523 488.5,-553 829.5,-553 829.5,-523 488.5,-523"/>
<text text-anchor="start" x="495.5" y="-534.4" font-family="Arial" font-size="14.00" fill="#000000">payment_image </text>
<text text-anchor="start" x="598.9698" y="-534.4" font-family="Arial" font-size="14.00" fill="#666666">[text]</text>
<text text-anchor="start" x="629.3148" y="-534.4" font-family="Arial" font-size="14.00" fill="#000000"> 支払方法ロゴ</text>
<polygon fill="none" stroke="#000000" points="488.5,-493 488.5,-523 829.5,-523 829.5,-493 488.5,-493"/>
<text text-anchor="start" x="495.5" y="-504.4" font-family="Arial" font-size="14.00" fill="#000000">upper_rule </text>
<text text-anchor="start" x="566.2966" y="-504.4" font-family="Arial" font-size="14.00" fill="#666666">[numeric]</text>
<text text-anchor="start" x="623.8534" y="-504.4" font-family="Arial" font-size="14.00" fill="#000000"> 利用条件(円以下)</text>
<polygon fill="none" stroke="#000000" points="488.5,-463 488.5,-493 829.5,-493 829.5,-463 488.5,-463"/>
<text text-anchor="start" x="495.5" y="-474.4" font-family="Arial" font-size="14.00" fill="#000000">charge_flg </text>
<text text-anchor="start" x="564.744" y="-474.4" font-family="Arial" font-size="14.00" fill="#666666">[smallint]</text>
<text text-anchor="start" x="619.9614" y="-474.4" font-family="Arial" font-size="14.00" fill="#000000"> 手数料設定フラグ</text>
<polygon fill="none" stroke="#000000" points="488.5,-433 488.5,-463 829.5,-463 829.5,-433 488.5,-433"/>
<text text-anchor="start" x="495.5" y="-444.4" font-family="Arial" font-size="14.00" fill="#000000">rule_min </text>
<text text-anchor="start" x="553.0554" y="-444.4" font-family="Arial" font-size="14.00" fill="#666666">[numeric]</text>
<text text-anchor="start" x="610.6122" y="-444.4" font-family="Arial" font-size="14.00" fill="#000000"> 利用条件(円以上)の下限</text>
<polygon fill="none" stroke="#000000" points="488.5,-403 488.5,-433 829.5,-433 829.5,-403 488.5,-403"/>
<text text-anchor="start" x="495.5" y="-414.4" font-family="Arial" font-size="14.00" fill="#000000">upper_rule_max </text>
<text text-anchor="start" x="600.5224" y="-414.4" font-family="Arial" font-size="14.00" fill="#666666">[numeric]</text>
<text text-anchor="start" x="658.0792" y="-414.4" font-family="Arial" font-size="14.00" fill="#000000"> 利用条件(円以下)の上限</text>
<polygon fill="none" stroke="#000000" points="488.5,-373 488.5,-403 829.5,-403 829.5,-373 488.5,-373"/>
<text text-anchor="start" x="495.5" y="-384.4" font-family="Arial" font-size="14.00" fill="#000000">module_id </text>
<text text-anchor="start" x="563.96" y="-384.4" font-family="Arial" font-size="14.00" fill="#666666">[integer]</text>
<text text-anchor="start" x="614.5294" y="-384.4" font-family="Arial" font-size="14.00" fill="#000000"> 追加モジュールID</text>
<polygon fill="none" stroke="#000000" points="488.5,-343 488.5,-373 829.5,-373 829.5,-343 488.5,-343"/>
<text text-anchor="start" x="495.5" y="-354.4" font-family="Arial" font-size="14.00" fill="#000000">module_path </text>
<text text-anchor="start" x="580.3092" y="-354.4" font-family="Arial" font-size="14.00" fill="#666666">[text]</text>
<text text-anchor="start" x="610.6542" y="-354.4" font-family="Arial" font-size="14.00" fill="#000000"> 追加モジュールパス</text>
<polygon fill="none" stroke="#000000" points="488.5,-313 488.5,-343 829.5,-343 829.5,-313 488.5,-313"/>
<text text-anchor="start" x="495.5" y="-324.4" font-family="Arial" font-size="14.00" fill="#000000">memo01 </text>
<text text-anchor="start" x="553.8422" y="-324.4" font-family="Arial" font-size="14.00" fill="#666666">[text]</text>
<text text-anchor="start" x="584.1872" y="-324.4" font-family="Arial" font-size="14.00" fill="#000000"> 汎用項目1</text>
<polygon fill="none" stroke="#000000" points="488.5,-283 488.5,-313 829.5,-313 829.5,-283 488.5,-283"/>
<text text-anchor="start" x="495.5" y="-294.4" font-family="Arial" font-size="14.00" fill="#000000">memo02 </text>
<text text-anchor="start" x="553.8422" y="-294.4" font-family="Arial" font-size="14.00" fill="#666666">[text]</text>
<text text-anchor="start" x="584.1872" y="-294.4" font-family="Arial" font-size="14.00" fill="#000000"> 汎用項目2</text>
<polygon fill="none" stroke="#000000" points="488.5,-253 488.5,-283 829.5,-283 829.5,-253 488.5,-253"/>
<text text-anchor="start" x="495.5" y="-264.4" font-family="Arial" font-size="14.00" fill="#000000">memo03 </text>
<text text-anchor="start" x="553.8422" y="-264.4" font-family="Arial" font-size="14.00" fill="#666666">[text]</text>
<text text-anchor="start" x="584.1872" y="-264.4" font-family="Arial" font-size="14.00" fill="#000000"> 汎用項目3</text>
<polygon fill="none" stroke="#000000" points="488.5,-223 488.5,-253 829.5,-253 829.5,-223 488.5,-223"/>
<text text-anchor="start" x="495.5" y="-234.4" font-family="Arial" font-size="14.00" fill="#000000">memo04 </text>
<text text-anchor="start" x="553.8422" y="-234.4" font-family="Arial" font-size="14.00" fill="#666666">[text]</text>
<text text-anchor="start" x="584.1872" y="-234.4" font-family="Arial" font-size="14.00" fill="#000000"> 汎用項目4</text>
<polygon fill="none" stroke="#000000" points="488.5,-193 488.5,-223 829.5,-223 829.5,-193 488.5,-193"/>
<text text-anchor="start" x="495.5" y="-204.4" font-family="Arial" font-size="14.00" fill="#000000">memo05 </text>
<text text-anchor="start" x="553.8422" y="-204.4" font-family="Arial" font-size="14.00" fill="#666666">[text]</text>
<text text-anchor="start" x="584.1872" y="-204.4" font-family="Arial" font-size="14.00" fill="#000000"> 汎用項目5</text>
<polygon fill="none" stroke="#000000" points="488.5,-163 488.5,-193 829.5,-193 829.5,-163 488.5,-163"/>
<text text-anchor="start" x="495.5" y="-174.4" font-family="Arial" font-size="14.00" fill="#000000">memo06 </text>
<text text-anchor="start" x="553.8422" y="-174.4" font-family="Arial" font-size="14.00" fill="#666666">[text]</text>
<text text-anchor="start" x="584.1872" y="-174.4" font-family="Arial" font-size="14.00" fill="#000000"> 汎用項目6</text>
<polygon fill="none" stroke="#000000" points="488.5,-133 488.5,-163 829.5,-163 829.5,-133 488.5,-133"/>
<text text-anchor="start" x="495.5" y="-144.4" font-family="Arial" font-size="14.00" fill="#000000">memo07 </text>
<text text-anchor="start" x="553.8422" y="-144.4" font-family="Arial" font-size="14.00" fill="#666666">[text]</text>
<text text-anchor="start" x="584.1872" y="-144.4" font-family="Arial" font-size="14.00" fill="#000000"> 汎用項目7</text>
<polygon fill="none" stroke="#000000" points="488.5,-103 488.5,-133 829.5,-133 829.5,-103 488.5,-103"/>
<text text-anchor="start" x="495.5" y="-114.4" font-family="Arial" font-size="14.00" fill="#000000">memo08 </text>
<text text-anchor="start" x="553.8422" y="-114.4" font-family="Arial" font-size="14.00" fill="#666666">[text]</text>
<text text-anchor="start" x="584.1872" y="-114.4" font-family="Arial" font-size="14.00" fill="#000000"> 汎用項目8</text>
<polygon fill="none" stroke="#000000" points="488.5,-73 488.5,-103 829.5,-103 829.5,-73 488.5,-73"/>
<text text-anchor="start" x="495.5" y="-84.4" font-family="Arial" font-size="14.00" fill="#000000">memo09 </text>
<text text-anchor="start" x="553.8422" y="-84.4" font-family="Arial" font-size="14.00" fill="#666666">[text]</text>
<text text-anchor="start" x="584.1872" y="-84.4" font-family="Arial" font-size="14.00" fill="#000000"> 汎用項目9</text>
<polygon fill="none" stroke="#000000" points="488.5,-43 488.5,-73 829.5,-73 829.5,-43 488.5,-43"/>
<text text-anchor="start" x="495.5" y="-54.4" font-family="Arial" font-size="14.00" fill="#000000">memo10 </text>
<text text-anchor="start" x="553.8422" y="-54.4" font-family="Arial" font-size="14.00" fill="#666666">[text]</text>
<text text-anchor="start" x="584.1872" y="-54.4" font-family="Arial" font-size="14.00" fill="#000000"> 汎用項目10</text>
</g>
<!-- public.dtb_payment_options&#45;&gt;public.dtb_payment -->
<g id="edge2" class="edge">
<title>public.dtb_payment_options:payment_id&#45;&gt;public.dtb_payment:payment_id</title>
<path fill="none" stroke="#000000" stroke-dasharray="5,2" d="M613.4144,-1127.5293C640.786,-1118.2753 625.2035,-1067.5362 603.5,-1038 571.787,-994.8418 520.213,-1045.1582 488.5,-1002 461.1301,-964.7524 442.2778,-898 488.5,-898"/>
<polygon fill="#000000" stroke="#000000" points="613.3918,-1127.5326 602.8397,-1124.5487 608.4459,-1128.2663 603.5,-1129 603.5,-1129 603.5,-1129 608.4459,-1128.2663 604.1603,-1133.4513 613.3918,-1127.5326 613.3918,-1127.5326"/>
<text text-anchor="start" x="610.8245" y="-1139" font-family="Arial" font-size="10.00" fill="#000000">Additional Relation</text>
</g>
</g>
</svg>
