<?xml version="1.0" encoding="UTF-8" standalone="no"?>
<!DOCTYPE svg PUBLIC "-//W3C//DTD SVG 1.1//EN"
 "http://www.w3.org/Graphics/SVG/1.1/DTD/svg11.dtd">
<!-- Generated by graphviz version 2.40.1 (20161225.0304)
 -->
<!-- Title: public.dtb_shipment_item Pages: 1 -->
<svg width="415pt" height="416pt"
 viewBox="0.00 0.00 415.00 416.00" xmlns="http://www.w3.org/2000/svg" xmlns:xlink="http://www.w3.org/1999/xlink">
<g id="graph0" class="graph" transform="scale(1 1) rotate(0) translate(4 412)">
<title>public.dtb_shipment_item</title>
<polygon fill="#ffffff" stroke="transparent" points="-4,4 -4,-412 411,-412 411,4 -4,4"/>
<!-- public.dtb_shipment_item -->
<g id="node1" class="node">
<title>public.dtb_shipment_item</title>
<polygon fill="#efefef" stroke="transparent" points="46.5,-316 46.5,-362 361.5,-362 361.5,-316 46.5,-316"/>
<polygon fill="none" stroke="#000000" points="46.5,-316 46.5,-362 361.5,-362 361.5,-316 46.5,-316"/>
<text text-anchor="start" x="53.3509" y="-339.8" font-family="Arial Bold" font-size="18.00" fill="#000000">public.dtb_shipment_item</text>
<text text-anchor="start" x="257.3953" y="-339.8" font-family="Arial" font-size="14.00" fill="#000000"> </text>
<text text-anchor="start" x="261.2859" y="-339.8" font-family="Arial" font-size="14.00" fill="#666666">[BASE TABLE]</text>
<text text-anchor="start" x="160.0386" y="-325.4" font-family="Arial" font-size="14.00" fill="#333333">配送商品情報</text>
<polygon fill="none" stroke="#000000" points="46.5,-286 46.5,-316 361.5,-316 361.5,-286 46.5,-286"/>
<text text-anchor="start" x="53.5" y="-297.4" font-family="Arial" font-size="14.00" fill="#000000">shipping_id </text>
<text text-anchor="start" x="128.1886" y="-297.4" font-family="Arial" font-size="14.00" fill="#666666">[integer]</text>
<text text-anchor="start" x="178.758" y="-297.4" font-family="Arial" font-size="14.00" fill="#000000"> 配送先ID</text>
<polygon fill="none" stroke="#000000" points="46.5,-256 46.5,-286 361.5,-286 361.5,-256 46.5,-256"/>
<text text-anchor="start" x="53.5" y="-267.4" font-family="Arial" font-size="14.00" fill="#000000">product_class_id </text>
<text text-anchor="start" x="162.4158" y="-267.4" font-family="Arial" font-size="14.00" fill="#666666">[integer]</text>
<text text-anchor="start" x="212.9852" y="-267.4" font-family="Arial" font-size="14.00" fill="#000000"> 商品規格ID</text>
<polygon fill="none" stroke="#000000" points="46.5,-226 46.5,-256 361.5,-256 361.5,-226 46.5,-226"/>
<text text-anchor="start" x="53.5" y="-237.4" font-family="Arial" font-size="14.00" fill="#000000">order_id </text>
<text text-anchor="start" x="108.7314" y="-237.4" font-family="Arial" font-size="14.00" fill="#666666">[integer]</text>
<text text-anchor="start" x="159.3008" y="-237.4" font-family="Arial" font-size="14.00" fill="#000000"> 受注ID</text>
<polygon fill="none" stroke="#000000" points="46.5,-196 46.5,-226 361.5,-226 361.5,-196 46.5,-196"/>
<text text-anchor="start" x="53.5" y="-207.4" font-family="Arial" font-size="14.00" fill="#000000">product_name </text>
<text text-anchor="start" x="146.8632" y="-207.4" font-family="Arial" font-size="14.00" fill="#666666">[text]</text>
<text text-anchor="start" x="177.2082" y="-207.4" font-family="Arial" font-size="14.00" fill="#000000"> 商品名</text>
<polygon fill="none" stroke="#000000" points="46.5,-166 46.5,-196 361.5,-196 361.5,-166 46.5,-166"/>
<text text-anchor="start" x="53.5" y="-177.4" font-family="Arial" font-size="14.00" fill="#000000">product_code </text>
<text text-anchor="start" x="142.2026" y="-177.4" font-family="Arial" font-size="14.00" fill="#666666">[text]</text>
<text text-anchor="start" x="172.5476" y="-177.4" font-family="Arial" font-size="14.00" fill="#000000"> 商品コード</text>
<polygon fill="none" stroke="#000000" points="46.5,-136 46.5,-166 361.5,-166 361.5,-136 46.5,-136"/>
<text text-anchor="start" x="53.5" y="-147.4" font-family="Arial" font-size="14.00" fill="#000000">classcategory_name1 </text>
<text text-anchor="start" x="193.535" y="-147.4" font-family="Arial" font-size="14.00" fill="#666666">[text]</text>
<text text-anchor="start" x="223.88" y="-147.4" font-family="Arial" font-size="14.00" fill="#000000"> 商品規格名1</text>
<polygon fill="none" stroke="#000000" points="46.5,-106 46.5,-136 361.5,-136 361.5,-106 46.5,-106"/>
<text text-anchor="start" x="53.5" y="-117.4" font-family="Arial" font-size="14.00" fill="#000000">classcategory_name2 </text>
<text text-anchor="start" x="193.535" y="-117.4" font-family="Arial" font-size="14.00" fill="#666666">[text]</text>
<text text-anchor="start" x="223.88" y="-117.4" font-family="Arial" font-size="14.00" fill="#000000"> 商品規格名2</text>
<polygon fill="none" stroke="#000000" points="46.5,-76 46.5,-106 361.5,-106 361.5,-76 46.5,-76"/>
<text text-anchor="start" x="53.5" y="-87.4" font-family="Arial" font-size="14.00" fill="#000000">price </text>
<text text-anchor="start" x="87.723" y="-87.4" font-family="Arial" font-size="14.00" fill="#666666">[numeric]</text>
<text text-anchor="start" x="145.2798" y="-87.4" font-family="Arial" font-size="14.00" fill="#000000"> 価格</text>
<polygon fill="none" stroke="#000000" points="46.5,-46 46.5,-76 361.5,-76 361.5,-46 46.5,-46"/>
<text text-anchor="start" x="53.5" y="-57.4" font-family="Arial" font-size="14.00" fill="#000000">quantity </text>
<text text-anchor="start" x="106.4088" y="-57.4" font-family="Arial" font-size="14.00" fill="#666666">[numeric]</text>
<text text-anchor="start" x="163.9656" y="-57.4" font-family="Arial" font-size="14.00" fill="#000000"> 個数</text>
<polygon fill="none" stroke="#000000" stroke-width="3" points="44.5,-44.5 44.5,-363.5 362.5,-363.5 362.5,-44.5 44.5,-44.5"/>
</g>
</g>
</svg>
