<?xml version="1.0" encoding="UTF-8" standalone="no"?>
<!DOCTYPE svg PUBLIC "-//W3C//DTD SVG 1.1//EN"
 "http://www.w3.org/Graphics/SVG/1.1/DTD/svg11.dtd">
<!-- Generated by graphviz version 2.40.1 (20161225.0304)
 -->
<!-- Title: public.dtb_mail_history Pages: 1 -->
<svg width="1393pt" height="2234pt"
 viewBox="0.00 0.00 1393.00 2234.00" xmlns="http://www.w3.org/2000/svg" xmlns:xlink="http://www.w3.org/1999/xlink">
<g id="graph0" class="graph" transform="scale(1 1) rotate(0) translate(4 2230)">
<title>public.dtb_mail_history</title>
<polygon fill="#ffffff" stroke="transparent" points="-4,4 -4,-2230 1389,-2230 1389,4 -4,4"/>
<!-- public.dtb_mail_history -->
<g id="node1" class="node">
<title>public.dtb_mail_history</title>
<polygon fill="#efefef" stroke="transparent" points="523.5,-2134 523.5,-2180 858.5,-2180 858.5,-2134 523.5,-2134"/>
<polygon fill="none" stroke="#000000" points="523.5,-2134 523.5,-2180 858.5,-2180 858.5,-2134 523.5,-2134"/>
<text text-anchor="start" x="550.8611" y="-2157.8" font-family="Arial Bold" font-size="18.00" fill="#000000">public.dtb_mail_history</text>
<text text-anchor="start" x="733.8851" y="-2157.8" font-family="Arial" font-size="14.00" fill="#000000"> </text>
<text text-anchor="start" x="737.7757" y="-2157.8" font-family="Arial" font-size="14.00" fill="#666666">[BASE TABLE]</text>
<text text-anchor="start" x="614.7742" y="-2143.4" font-family="Arial" font-size="14.00" fill="#333333">受注メール送信履歴</text>
<polygon fill="none" stroke="#000000" points="523.5,-2104 523.5,-2134 858.5,-2134 858.5,-2104 523.5,-2104"/>
<text text-anchor="start" x="530.5" y="-2115.4" font-family="Arial" font-size="14.00" fill="#000000">send_id </text>
<text text-anchor="start" x="583.4102" y="-2115.4" font-family="Arial" font-size="14.00" fill="#666666">[integer]</text>
<text text-anchor="start" x="633.9796" y="-2115.4" font-family="Arial" font-size="14.00" fill="#000000"> 送信ID</text>
<polygon fill="none" stroke="#000000" points="523.5,-2074 523.5,-2104 858.5,-2104 858.5,-2074 523.5,-2074"/>
<text text-anchor="start" x="530.5" y="-2085.4" font-family="Arial" font-size="14.00" fill="#000000">order_id </text>
<text text-anchor="start" x="585.7314" y="-2085.4" font-family="Arial" font-size="14.00" fill="#666666">[integer]</text>
<text text-anchor="start" x="636.3008" y="-2085.4" font-family="Arial" font-size="14.00" fill="#000000"> 受注ID</text>
<polygon fill="none" stroke="#000000" points="523.5,-2044 523.5,-2074 858.5,-2074 858.5,-2044 523.5,-2044"/>
<text text-anchor="start" x="530.3493" y="-2055.4" font-family="Arial" font-size="14.00" fill="#000000">send_date </text>
<text text-anchor="start" x="599.6087" y="-2055.4" font-family="Arial" font-size="14.00" fill="#666666">[timestamp without time zone]</text>
<text text-anchor="start" x="784.7489" y="-2055.4" font-family="Arial" font-size="14.00" fill="#000000"> 送信日時</text>
<polygon fill="none" stroke="#000000" points="523.5,-2014 523.5,-2044 858.5,-2044 858.5,-2014 523.5,-2014"/>
<text text-anchor="start" x="530.5" y="-2025.4" font-family="Arial" font-size="14.00" fill="#000000">template_id </text>
<text text-anchor="start" x="606.7412" y="-2025.4" font-family="Arial" font-size="14.00" fill="#666666">[integer]</text>
<text text-anchor="start" x="657.3106" y="-2025.4" font-family="Arial" font-size="14.00" fill="#000000"> テンプレートID</text>
<polygon fill="none" stroke="#000000" points="523.5,-1984 523.5,-2014 858.5,-2014 858.5,-1984 523.5,-1984"/>
<text text-anchor="start" x="530.5" y="-1995.4" font-family="Arial" font-size="14.00" fill="#000000">creator_id </text>
<text text-anchor="start" x="596.622" y="-1995.4" font-family="Arial" font-size="14.00" fill="#666666">[integer]</text>
<text text-anchor="start" x="647.1914" y="-1995.4" font-family="Arial" font-size="14.00" fill="#000000"> 作成者ID</text>
<polygon fill="none" stroke="#000000" points="523.5,-1954 523.5,-1984 858.5,-1984 858.5,-1954 523.5,-1954"/>
<text text-anchor="start" x="530.5" y="-1965.4" font-family="Arial" font-size="14.00" fill="#000000">subject </text>
<text text-anchor="start" x="578.7356" y="-1965.4" font-family="Arial" font-size="14.00" fill="#666666">[text]</text>
<text text-anchor="start" x="609.0806" y="-1965.4" font-family="Arial" font-size="14.00" fill="#000000"> 件名</text>
<polygon fill="none" stroke="#000000" points="523.5,-1924 523.5,-1954 858.5,-1954 858.5,-1924 523.5,-1924"/>
<text text-anchor="start" x="530.5" y="-1935.4" font-family="Arial" font-size="14.00" fill="#000000">mail_body </text>
<text text-anchor="start" x="598.1774" y="-1935.4" font-family="Arial" font-size="14.00" fill="#666666">[text]</text>
<text text-anchor="start" x="628.5224" y="-1935.4" font-family="Arial" font-size="14.00" fill="#000000"> メール本文</text>
<polygon fill="none" stroke="#000000" stroke-width="3" points="521.5,-1922.5 521.5,-2181.5 859.5,-2181.5 859.5,-1922.5 521.5,-1922.5"/>
</g>
<!-- public.dtb_order -->
<g id="node2" class="node">
<title>public.dtb_order</title>
<polygon fill="#efefef" stroke="transparent" points="43.5,-1753 43.5,-1799 416.5,-1799 416.5,-1753 43.5,-1753"/>
<polygon fill="none" stroke="#000000" points="43.5,-1753 43.5,-1799 416.5,-1799 416.5,-1753 43.5,-1753"/>
<text text-anchor="start" x="116.8566" y="-1776.8" font-family="Arial Bold" font-size="18.00" fill="#000000">public.dtb_order</text>
<text text-anchor="start" x="245.8896" y="-1776.8" font-family="Arial" font-size="14.00" fill="#000000"> </text>
<text text-anchor="start" x="249.7802" y="-1776.8" font-family="Arial" font-size="14.00" fill="#666666">[BASE TABLE]</text>
<text text-anchor="start" x="200.8184" y="-1762.4" font-family="Arial" font-size="14.00" fill="#333333">受注情報</text>
<polygon fill="none" stroke="#000000" points="43.5,-1723 43.5,-1753 416.5,-1753 416.5,-1723 43.5,-1723"/>
<text text-anchor="start" x="50.5" y="-1734.4" font-family="Arial" font-size="14.00" fill="#000000">order_id </text>
<text text-anchor="start" x="105.7314" y="-1734.4" font-family="Arial" font-size="14.00" fill="#666666">[integer]</text>
<text text-anchor="start" x="156.3008" y="-1734.4" font-family="Arial" font-size="14.00" fill="#000000"> 受注ID</text>
<polygon fill="none" stroke="#000000" points="43.5,-1693 43.5,-1723 416.5,-1723 416.5,-1693 43.5,-1693"/>
<text text-anchor="start" x="50.5" y="-1704.4" font-family="Arial" font-size="14.00" fill="#000000">order_temp_id </text>
<text text-anchor="start" x="144.6304" y="-1704.4" font-family="Arial" font-size="14.00" fill="#666666">[text]</text>
<text text-anchor="start" x="174.9754" y="-1704.4" font-family="Arial" font-size="14.00" fill="#000000"> 受注一時情報ID</text>
<polygon fill="none" stroke="#000000" points="43.5,-1663 43.5,-1693 416.5,-1693 416.5,-1663 43.5,-1663"/>
<text text-anchor="start" x="50.5" y="-1674.4" font-family="Arial" font-size="14.00" fill="#000000">customer_id </text>
<text text-anchor="start" x="130.622" y="-1674.4" font-family="Arial" font-size="14.00" fill="#666666">[integer]</text>
<text text-anchor="start" x="181.1914" y="-1674.4" font-family="Arial" font-size="14.00" fill="#000000"> 顧客ID</text>
<polygon fill="none" stroke="#000000" points="43.5,-1633 43.5,-1663 416.5,-1663 416.5,-1633 43.5,-1633"/>
<text text-anchor="start" x="50.5" y="-1644.4" font-family="Arial" font-size="14.00" fill="#000000">message </text>
<text text-anchor="start" x="111.1816" y="-1644.4" font-family="Arial" font-size="14.00" fill="#666666">[text]</text>
<text text-anchor="start" x="141.5266" y="-1644.4" font-family="Arial" font-size="14.00" fill="#000000"> 要望等</text>
<polygon fill="none" stroke="#000000" points="43.5,-1603 43.5,-1633 416.5,-1633 416.5,-1603 43.5,-1603"/>
<text text-anchor="start" x="50.5" y="-1614.4" font-family="Arial" font-size="14.00" fill="#000000">order_name01 </text>
<text text-anchor="start" x="145.4158" y="-1614.4" font-family="Arial" font-size="14.00" fill="#666666">[text]</text>
<text text-anchor="start" x="175.7608" y="-1614.4" font-family="Arial" font-size="14.00" fill="#000000"> 顧客名(姓)</text>
<polygon fill="none" stroke="#000000" points="43.5,-1573 43.5,-1603 416.5,-1603 416.5,-1573 43.5,-1573"/>
<text text-anchor="start" x="50.5" y="-1584.4" font-family="Arial" font-size="14.00" fill="#000000">order_name02 </text>
<text text-anchor="start" x="145.4158" y="-1584.4" font-family="Arial" font-size="14.00" fill="#666666">[text]</text>
<text text-anchor="start" x="175.7608" y="-1584.4" font-family="Arial" font-size="14.00" fill="#000000"> 顧客名(名)</text>
<polygon fill="none" stroke="#000000" points="43.5,-1543 43.5,-1573 416.5,-1573 416.5,-1543 43.5,-1543"/>
<text text-anchor="start" x="50.5" y="-1554.4" font-family="Arial" font-size="14.00" fill="#000000">order_kana01 </text>
<text text-anchor="start" x="140.7552" y="-1554.4" font-family="Arial" font-size="14.00" fill="#666666">[text]</text>
<text text-anchor="start" x="171.1002" y="-1554.4" font-family="Arial" font-size="14.00" fill="#000000"> 顧客カナ(姓)</text>
<polygon fill="none" stroke="#000000" points="43.5,-1513 43.5,-1543 416.5,-1543 416.5,-1513 43.5,-1513"/>
<text text-anchor="start" x="50.5" y="-1524.4" font-family="Arial" font-size="14.00" fill="#000000">order_kana02 </text>
<text text-anchor="start" x="140.7552" y="-1524.4" font-family="Arial" font-size="14.00" fill="#666666">[text]</text>
<text text-anchor="start" x="171.1002" y="-1524.4" font-family="Arial" font-size="14.00" fill="#000000"> 顧客カナ(名)</text>
<polygon fill="none" stroke="#000000" points="43.5,-1483 43.5,-1513 416.5,-1513 416.5,-1483 43.5,-1483"/>
<text text-anchor="start" x="50.5" y="-1494.4" font-family="Arial" font-size="14.00" fill="#000000">order_company_name </text>
<text text-anchor="start" x="194.4242" y="-1494.4" font-family="Arial" font-size="14.00" fill="#666666">[text]</text>
<text text-anchor="start" x="224.7692" y="-1494.4" font-family="Arial" font-size="14.00" fill="#000000"> 【2.13】会社名</text>
<polygon fill="none" stroke="#000000" points="43.5,-1453 43.5,-1483 416.5,-1483 416.5,-1453 43.5,-1453"/>
<text text-anchor="start" x="50.5" y="-1464.4" font-family="Arial" font-size="14.00" fill="#000000">order_email </text>
<text text-anchor="start" x="128.2812" y="-1464.4" font-family="Arial" font-size="14.00" fill="#666666">[text]</text>
<text text-anchor="start" x="158.6262" y="-1464.4" font-family="Arial" font-size="14.00" fill="#000000"> 顧客メールアドレス</text>
<polygon fill="none" stroke="#000000" points="43.5,-1423 43.5,-1453 416.5,-1453 416.5,-1423 43.5,-1423"/>
<text text-anchor="start" x="50.5" y="-1434.4" font-family="Arial" font-size="14.00" fill="#000000">order_tel01 </text>
<text text-anchor="start" x="125.1872" y="-1434.4" font-family="Arial" font-size="14.00" fill="#666666">[text]</text>
<text text-anchor="start" x="155.5322" y="-1434.4" font-family="Arial" font-size="14.00" fill="#000000"> 顧客電話番号(市外局番)</text>
<polygon fill="none" stroke="#000000" points="43.5,-1393 43.5,-1423 416.5,-1423 416.5,-1393 43.5,-1393"/>
<text text-anchor="start" x="50.5" y="-1404.4" font-family="Arial" font-size="14.00" fill="#000000">order_tel02 </text>
<text text-anchor="start" x="125.1872" y="-1404.4" font-family="Arial" font-size="14.00" fill="#666666">[text]</text>
<text text-anchor="start" x="155.5322" y="-1404.4" font-family="Arial" font-size="14.00" fill="#000000"> 顧客電話番号(市内局番)</text>
<polygon fill="none" stroke="#000000" points="43.5,-1363 43.5,-1393 416.5,-1393 416.5,-1363 43.5,-1363"/>
<text text-anchor="start" x="50.5" y="-1374.4" font-family="Arial" font-size="14.00" fill="#000000">order_tel03 </text>
<text text-anchor="start" x="125.1872" y="-1374.4" font-family="Arial" font-size="14.00" fill="#666666">[text]</text>
<text text-anchor="start" x="155.5322" y="-1374.4" font-family="Arial" font-size="14.00" fill="#000000"> 顧客電話番号(局番)</text>
<polygon fill="none" stroke="#000000" points="43.5,-1333 43.5,-1363 416.5,-1363 416.5,-1333 43.5,-1333"/>
<text text-anchor="start" x="50.5" y="-1344.4" font-family="Arial" font-size="14.00" fill="#000000">order_fax01 </text>
<text text-anchor="start" x="129.0806" y="-1344.4" font-family="Arial" font-size="14.00" fill="#666666">[text]</text>
<text text-anchor="start" x="159.4256" y="-1344.4" font-family="Arial" font-size="14.00" fill="#000000"> 顧客FAX(市外局番)</text>
<polygon fill="none" stroke="#000000" points="43.5,-1303 43.5,-1333 416.5,-1333 416.5,-1303 43.5,-1303"/>
<text text-anchor="start" x="50.5" y="-1314.4" font-family="Arial" font-size="14.00" fill="#000000">order_fax02 </text>
<text text-anchor="start" x="129.0806" y="-1314.4" font-family="Arial" font-size="14.00" fill="#666666">[text]</text>
<text text-anchor="start" x="159.4256" y="-1314.4" font-family="Arial" font-size="14.00" fill="#000000"> 顧客FAX(市内局番)</text>
<polygon fill="none" stroke="#000000" points="43.5,-1273 43.5,-1303 416.5,-1303 416.5,-1273 43.5,-1273"/>
<text text-anchor="start" x="50.5" y="-1284.4" font-family="Arial" font-size="14.00" fill="#000000">order_fax03 </text>
<text text-anchor="start" x="129.0806" y="-1284.4" font-family="Arial" font-size="14.00" fill="#666666">[text]</text>
<text text-anchor="start" x="159.4256" y="-1284.4" font-family="Arial" font-size="14.00" fill="#000000"> 顧客FAX(局番)</text>
<polygon fill="none" stroke="#000000" points="43.5,-1243 43.5,-1273 416.5,-1273 416.5,-1243 43.5,-1243"/>
<text text-anchor="start" x="50.5" y="-1254.4" font-family="Arial" font-size="14.00" fill="#000000">order_zip01 </text>
<text text-anchor="start" x="128.2966" y="-1254.4" font-family="Arial" font-size="14.00" fill="#666666">[text]</text>
<text text-anchor="start" x="158.6416" y="-1254.4" font-family="Arial" font-size="14.00" fill="#000000"> 顧客郵便番号(4桁)</text>
<polygon fill="none" stroke="#000000" points="43.5,-1213 43.5,-1243 416.5,-1243 416.5,-1213 43.5,-1213"/>
<text text-anchor="start" x="50.5" y="-1224.4" font-family="Arial" font-size="14.00" fill="#000000">order_zip02 </text>
<text text-anchor="start" x="128.2966" y="-1224.4" font-family="Arial" font-size="14.00" fill="#666666">[text]</text>
<text text-anchor="start" x="158.6416" y="-1224.4" font-family="Arial" font-size="14.00" fill="#000000"> 顧客郵便番号(3桁)</text>
<polygon fill="none" stroke="#000000" points="43.5,-1183 43.5,-1213 416.5,-1213 416.5,-1183 43.5,-1183"/>
<text text-anchor="start" x="50.5" y="-1194.4" font-family="Arial" font-size="14.00" fill="#000000">order_zipcode </text>
<text text-anchor="start" x="143.0792" y="-1194.4" font-family="Arial" font-size="14.00" fill="#666666">[text]</text>
<text text-anchor="start" x="173.4242" y="-1194.4" font-family="Arial" font-size="14.00" fill="#000000"> 【2.13】顧客郵便番号(海外対応)</text>
<polygon fill="none" stroke="#000000" points="43.5,-1153 43.5,-1183 416.5,-1183 416.5,-1153 43.5,-1153"/>
<text text-anchor="start" x="50.5" y="-1164.4" font-family="Arial" font-size="14.00" fill="#000000">order_country_id </text>
<text text-anchor="start" x="159.413" y="-1164.4" font-family="Arial" font-size="14.00" fill="#666666">[integer]</text>
<text text-anchor="start" x="209.9824" y="-1164.4" font-family="Arial" font-size="14.00" fill="#000000"> 【2.13】顧客国ID</text>
<polygon fill="none" stroke="#000000" points="43.5,-1123 43.5,-1153 416.5,-1153 416.5,-1123 43.5,-1123"/>
<text text-anchor="start" x="50.5" y="-1134.4" font-family="Arial" font-size="14.00" fill="#000000">order_pref </text>
<text text-anchor="start" x="118.9586" y="-1134.4" font-family="Arial" font-size="14.00" fill="#666666">[smallint]</text>
<text text-anchor="start" x="174.176" y="-1134.4" font-family="Arial" font-size="14.00" fill="#000000"> 都道府県ID</text>
<polygon fill="none" stroke="#000000" points="43.5,-1093 43.5,-1123 416.5,-1123 416.5,-1093 43.5,-1093"/>
<text text-anchor="start" x="50.5" y="-1104.4" font-family="Arial" font-size="14.00" fill="#000000">order_addr01 </text>
<text text-anchor="start" x="138.4158" y="-1104.4" font-family="Arial" font-size="14.00" fill="#666666">[text]</text>
<text text-anchor="start" x="168.7608" y="-1104.4" font-family="Arial" font-size="14.00" fill="#000000"> 顧客住所1</text>
<polygon fill="none" stroke="#000000" points="43.5,-1063 43.5,-1093 416.5,-1093 416.5,-1063 43.5,-1063"/>
<text text-anchor="start" x="50.5" y="-1074.4" font-family="Arial" font-size="14.00" fill="#000000">order_addr02 </text>
<text text-anchor="start" x="138.4158" y="-1074.4" font-family="Arial" font-size="14.00" fill="#666666">[text]</text>
<text text-anchor="start" x="168.7608" y="-1074.4" font-family="Arial" font-size="14.00" fill="#000000"> 顧客住所2</text>
<polygon fill="none" stroke="#000000" points="43.5,-1033 43.5,-1063 416.5,-1063 416.5,-1033 43.5,-1033"/>
<text text-anchor="start" x="50.5" y="-1044.4" font-family="Arial" font-size="14.00" fill="#000000">order_sex </text>
<text text-anchor="start" x="116.6248" y="-1044.4" font-family="Arial" font-size="14.00" fill="#666666">[smallint]</text>
<text text-anchor="start" x="171.8422" y="-1044.4" font-family="Arial" font-size="14.00" fill="#000000"> 顧客性別</text>
<polygon fill="none" stroke="#000000" points="43.5,-1003 43.5,-1033 416.5,-1033 416.5,-1003 43.5,-1003"/>
<text text-anchor="start" x="50.5" y="-1014.4" font-family="Arial" font-size="14.00" fill="#000000">order_birth </text>
<text text-anchor="start" x="122.0652" y="-1014.4" font-family="Arial" font-size="14.00" fill="#666666">[timestamp without time zone]</text>
<text text-anchor="start" x="307.2054" y="-1014.4" font-family="Arial" font-size="14.00" fill="#000000"> 顧客生年月日</text>
<polygon fill="none" stroke="#000000" points="43.5,-973 43.5,-1003 416.5,-1003 416.5,-973 43.5,-973"/>
<text text-anchor="start" x="50.5" y="-984.4" font-family="Arial" font-size="14.00" fill="#000000">order_job </text>
<text text-anchor="start" x="113.514" y="-984.4" font-family="Arial" font-size="14.00" fill="#666666">[integer]</text>
<text text-anchor="start" x="164.0834" y="-984.4" font-family="Arial" font-size="14.00" fill="#000000"> 顧客職業</text>
<polygon fill="none" stroke="#000000" points="43.5,-943 43.5,-973 416.5,-973 416.5,-943 43.5,-943"/>
<text text-anchor="start" x="50.5" y="-954.4" font-family="Arial" font-size="14.00" fill="#000000">subtotal </text>
<text text-anchor="start" x="103.4088" y="-954.4" font-family="Arial" font-size="14.00" fill="#666666">[numeric]</text>
<text text-anchor="start" x="160.9656" y="-954.4" font-family="Arial" font-size="14.00" fill="#000000"> 小計</text>
<polygon fill="none" stroke="#000000" points="43.5,-913 43.5,-943 416.5,-943 416.5,-913 43.5,-913"/>
<text text-anchor="start" x="50.5" y="-924.4" font-family="Arial" font-size="14.00" fill="#000000">discount </text>
<text text-anchor="start" x="106.5182" y="-924.4" font-family="Arial" font-size="14.00" fill="#666666">[numeric]</text>
<text text-anchor="start" x="164.075" y="-924.4" font-family="Arial" font-size="14.00" fill="#000000"> 値引き</text>
<polygon fill="none" stroke="#000000" points="43.5,-883 43.5,-913 416.5,-913 416.5,-883 43.5,-883"/>
<text text-anchor="start" x="50.5" y="-894.4" font-family="Arial" font-size="14.00" fill="#000000">deliv_id </text>
<text text-anchor="start" x="101.8408" y="-894.4" font-family="Arial" font-size="14.00" fill="#666666">[integer]</text>
<text text-anchor="start" x="152.4102" y="-894.4" font-family="Arial" font-size="14.00" fill="#000000"> 配送業者ID</text>
<polygon fill="none" stroke="#000000" points="43.5,-853 43.5,-883 416.5,-883 416.5,-853 43.5,-853"/>
<text text-anchor="start" x="50.5" y="-864.4" font-family="Arial" font-size="14.00" fill="#000000">deliv_fee </text>
<text text-anchor="start" x="110.4074" y="-864.4" font-family="Arial" font-size="14.00" fill="#666666">[numeric]</text>
<text text-anchor="start" x="167.9642" y="-864.4" font-family="Arial" font-size="14.00" fill="#000000"> 送料</text>
<polygon fill="none" stroke="#000000" points="43.5,-823 43.5,-853 416.5,-853 416.5,-823 43.5,-823"/>
<text text-anchor="start" x="50.5" y="-834.4" font-family="Arial" font-size="14.00" fill="#000000">charge </text>
<text text-anchor="start" x="97.1816" y="-834.4" font-family="Arial" font-size="14.00" fill="#666666">[numeric]</text>
<text text-anchor="start" x="154.7384" y="-834.4" font-family="Arial" font-size="14.00" fill="#000000"> 手数料</text>
<polygon fill="none" stroke="#000000" points="43.5,-793 43.5,-823 416.5,-823 416.5,-793 43.5,-793"/>
<text text-anchor="start" x="50.5" y="-804.4" font-family="Arial" font-size="14.00" fill="#000000">use_point </text>
<text text-anchor="start" x="115.0834" y="-804.4" font-family="Arial" font-size="14.00" fill="#666666">[numeric]</text>
<text text-anchor="start" x="172.6402" y="-804.4" font-family="Arial" font-size="14.00" fill="#000000"> 使用ポイント</text>
<polygon fill="none" stroke="#000000" points="43.5,-763 43.5,-793 416.5,-793 416.5,-763 43.5,-763"/>
<text text-anchor="start" x="50.5" y="-774.4" font-family="Arial" font-size="14.00" fill="#000000">add_point </text>
<text text-anchor="start" x="115.866" y="-774.4" font-family="Arial" font-size="14.00" fill="#666666">[numeric]</text>
<text text-anchor="start" x="173.4228" y="-774.4" font-family="Arial" font-size="14.00" fill="#000000"> 加算ポイント</text>
<polygon fill="none" stroke="#000000" points="43.5,-733 43.5,-763 416.5,-763 416.5,-733 43.5,-733"/>
<text text-anchor="start" x="50.5" y="-744.4" font-family="Arial" font-size="14.00" fill="#000000">birth_point </text>
<text text-anchor="start" x="119.7412" y="-744.4" font-family="Arial" font-size="14.00" fill="#666666">[numeric]</text>
<text text-anchor="start" x="177.298" y="-744.4" font-family="Arial" font-size="14.00" fill="#000000"> お誕生日ポイント</text>
<polygon fill="none" stroke="#000000" points="43.5,-703 43.5,-733 416.5,-733 416.5,-703 43.5,-703"/>
<text text-anchor="start" x="50.5" y="-714.4" font-family="Arial" font-size="14.00" fill="#000000">tax </text>
<text text-anchor="start" x="73.0638" y="-714.4" font-family="Arial" font-size="14.00" fill="#666666">[numeric]</text>
<text text-anchor="start" x="130.6206" y="-714.4" font-family="Arial" font-size="14.00" fill="#000000"> 税金</text>
<polygon fill="none" stroke="#000000" points="43.5,-673 43.5,-703 416.5,-703 416.5,-673 43.5,-673"/>
<text text-anchor="start" x="50.5" y="-684.4" font-family="Arial" font-size="14.00" fill="#000000">total </text>
<text text-anchor="start" x="80.8436" y="-684.4" font-family="Arial" font-size="14.00" fill="#666666">[numeric]</text>
<text text-anchor="start" x="138.4004" y="-684.4" font-family="Arial" font-size="14.00" fill="#000000"> 合計</text>
<polygon fill="none" stroke="#000000" points="43.5,-643 43.5,-673 416.5,-673 416.5,-643 43.5,-643"/>
<text text-anchor="start" x="50.5" y="-654.4" font-family="Arial" font-size="14.00" fill="#000000">payment_total </text>
<text text-anchor="start" x="142.3078" y="-654.4" font-family="Arial" font-size="14.00" fill="#666666">[numeric]</text>
<text text-anchor="start" x="199.8646" y="-654.4" font-family="Arial" font-size="14.00" fill="#000000"> 支払い合計</text>
<polygon fill="none" stroke="#000000" points="43.5,-613 43.5,-643 416.5,-643 416.5,-613 43.5,-613"/>
<text text-anchor="start" x="50.5" y="-624.4" font-family="Arial" font-size="14.00" fill="#000000">payment_id </text>
<text text-anchor="start" x="126.744" y="-624.4" font-family="Arial" font-size="14.00" fill="#666666">[integer]</text>
<text text-anchor="start" x="177.3134" y="-624.4" font-family="Arial" font-size="14.00" fill="#000000"> 支払方法ID</text>
<polygon fill="none" stroke="#000000" points="43.5,-583 43.5,-613 416.5,-613 416.5,-583 43.5,-583"/>
<text text-anchor="start" x="50.5" y="-594.4" font-family="Arial" font-size="14.00" fill="#000000">payment_method </text>
<text text-anchor="start" x="162.5364" y="-594.4" font-family="Arial" font-size="14.00" fill="#666666">[text]</text>
<text text-anchor="start" x="192.8814" y="-594.4" font-family="Arial" font-size="14.00" fill="#000000"> 支払方法</text>
<polygon fill="none" stroke="#000000" points="43.5,-553 43.5,-583 416.5,-583 416.5,-553 43.5,-553"/>
<text text-anchor="start" x="50.5" y="-564.4" font-family="Arial" font-size="14.00" fill="#000000">note </text>
<text text-anchor="start" x="81.629" y="-564.4" font-family="Arial" font-size="14.00" fill="#666666">[text]</text>
<text text-anchor="start" x="111.974" y="-564.4" font-family="Arial" font-size="14.00" fill="#000000"> 備考</text>
<polygon fill="none" stroke="#000000" points="43.5,-523 43.5,-553 416.5,-553 416.5,-523 43.5,-523"/>
<text text-anchor="start" x="50.5" y="-534.4" font-family="Arial" font-size="14.00" fill="#000000">status </text>
<text text-anchor="start" x="91.737" y="-534.4" font-family="Arial" font-size="14.00" fill="#666666">[smallint]</text>
<text text-anchor="start" x="146.9544" y="-534.4" font-family="Arial" font-size="14.00" fill="#000000"> 受注状態</text>
<polygon fill="none" stroke="#000000" points="43.5,-493 43.5,-523 416.5,-523 416.5,-493 43.5,-493"/>
<text text-anchor="start" x="50.5" y="-504.4" font-family="Arial" font-size="14.00" fill="#000000">create_date </text>
<text text-anchor="start" x="128.3106" y="-504.4" font-family="Arial" font-size="14.00" fill="#666666">[timestamp without time zone]</text>
<text text-anchor="start" x="313.4508" y="-504.4" font-family="Arial" font-size="14.00" fill="#000000"> 作成日時</text>
<polygon fill="none" stroke="#000000" points="43.5,-463 43.5,-493 416.5,-493 416.5,-463 43.5,-463"/>
<text text-anchor="start" x="50.5" y="-474.4" font-family="Arial" font-size="14.00" fill="#000000">update_date </text>
<text text-anchor="start" x="132.2152" y="-474.4" font-family="Arial" font-size="14.00" fill="#666666">[timestamp without time zone]</text>
<text text-anchor="start" x="317.3554" y="-474.4" font-family="Arial" font-size="14.00" fill="#000000"> 更新日時</text>
<polygon fill="none" stroke="#000000" points="43.5,-433 43.5,-463 416.5,-463 416.5,-433 43.5,-433"/>
<text text-anchor="start" x="50.0489" y="-444.4" font-family="Arial" font-size="14.00" fill="#000000">commit_date </text>
<text text-anchor="start" x="134.0615" y="-444.4" font-family="Arial" font-size="14.00" fill="#666666">[timestamp without time zone]</text>
<text text-anchor="start" x="319.2017" y="-444.4" font-family="Arial" font-size="14.00" fill="#000000"> 発送済み日時</text>
<polygon fill="none" stroke="#000000" points="43.5,-403 43.5,-433 416.5,-433 416.5,-403 43.5,-403"/>
<text text-anchor="start" x="50.5" y="-414.4" font-family="Arial" font-size="14.00" fill="#000000">payment_date </text>
<text text-anchor="start" x="143.0932" y="-414.4" font-family="Arial" font-size="14.00" fill="#666666">[timestamp without time zone]</text>
<text text-anchor="start" x="328.2334" y="-414.4" font-family="Arial" font-size="14.00" fill="#000000"> 入金日時</text>
<polygon fill="none" stroke="#000000" points="43.5,-373 43.5,-403 416.5,-403 416.5,-373 43.5,-373"/>
<text text-anchor="start" x="50.5" y="-384.4" font-family="Arial" font-size="14.00" fill="#000000">device_type_id </text>
<text text-anchor="start" x="147.7552" y="-384.4" font-family="Arial" font-size="14.00" fill="#666666">[integer]</text>
<text text-anchor="start" x="198.3246" y="-384.4" font-family="Arial" font-size="14.00" fill="#000000"> 端末種別ID</text>
<polygon fill="none" stroke="#000000" points="43.5,-343 43.5,-373 416.5,-373 416.5,-343 43.5,-343"/>
<text text-anchor="start" x="50.5" y="-354.4" font-family="Arial" font-size="14.00" fill="#000000">del_flg </text>
<text text-anchor="start" x="95.6248" y="-354.4" font-family="Arial" font-size="14.00" fill="#666666">[smallint]</text>
<text text-anchor="start" x="150.8422" y="-354.4" font-family="Arial" font-size="14.00" fill="#000000"> 削除フラグ</text>
<polygon fill="none" stroke="#000000" points="43.5,-313 43.5,-343 416.5,-343 416.5,-313 43.5,-313"/>
<text text-anchor="start" x="50.5" y="-324.4" font-family="Arial" font-size="14.00" fill="#000000">memo01 </text>
<text text-anchor="start" x="108.8422" y="-324.4" font-family="Arial" font-size="14.00" fill="#666666">[text]</text>
<text text-anchor="start" x="139.1872" y="-324.4" font-family="Arial" font-size="14.00" fill="#000000"> 汎用項目1</text>
<polygon fill="none" stroke="#000000" points="43.5,-283 43.5,-313 416.5,-313 416.5,-283 43.5,-283"/>
<text text-anchor="start" x="50.5" y="-294.4" font-family="Arial" font-size="14.00" fill="#000000">memo02 </text>
<text text-anchor="start" x="108.8422" y="-294.4" font-family="Arial" font-size="14.00" fill="#666666">[text]</text>
<text text-anchor="start" x="139.1872" y="-294.4" font-family="Arial" font-size="14.00" fill="#000000"> 汎用項目2</text>
<polygon fill="none" stroke="#000000" points="43.5,-253 43.5,-283 416.5,-283 416.5,-253 43.5,-253"/>
<text text-anchor="start" x="50.5" y="-264.4" font-family="Arial" font-size="14.00" fill="#000000">memo03 </text>
<text text-anchor="start" x="108.8422" y="-264.4" font-family="Arial" font-size="14.00" fill="#666666">[text]</text>
<text text-anchor="start" x="139.1872" y="-264.4" font-family="Arial" font-size="14.00" fill="#000000"> 汎用項目3</text>
<polygon fill="none" stroke="#000000" points="43.5,-223 43.5,-253 416.5,-253 416.5,-223 43.5,-223"/>
<text text-anchor="start" x="50.5" y="-234.4" font-family="Arial" font-size="14.00" fill="#000000">memo04 </text>
<text text-anchor="start" x="108.8422" y="-234.4" font-family="Arial" font-size="14.00" fill="#666666">[text]</text>
<text text-anchor="start" x="139.1872" y="-234.4" font-family="Arial" font-size="14.00" fill="#000000"> 汎用項目4</text>
<polygon fill="none" stroke="#000000" points="43.5,-193 43.5,-223 416.5,-223 416.5,-193 43.5,-193"/>
<text text-anchor="start" x="50.5" y="-204.4" font-family="Arial" font-size="14.00" fill="#000000">memo05 </text>
<text text-anchor="start" x="108.8422" y="-204.4" font-family="Arial" font-size="14.00" fill="#666666">[text]</text>
<text text-anchor="start" x="139.1872" y="-204.4" font-family="Arial" font-size="14.00" fill="#000000"> 汎用項目5</text>
<polygon fill="none" stroke="#000000" points="43.5,-163 43.5,-193 416.5,-193 416.5,-163 43.5,-163"/>
<text text-anchor="start" x="50.5" y="-174.4" font-family="Arial" font-size="14.00" fill="#000000">memo06 </text>
<text text-anchor="start" x="108.8422" y="-174.4" font-family="Arial" font-size="14.00" fill="#666666">[text]</text>
<text text-anchor="start" x="139.1872" y="-174.4" font-family="Arial" font-size="14.00" fill="#000000"> 汎用項目6</text>
<polygon fill="none" stroke="#000000" points="43.5,-133 43.5,-163 416.5,-163 416.5,-133 43.5,-133"/>
<text text-anchor="start" x="50.5" y="-144.4" font-family="Arial" font-size="14.00" fill="#000000">memo07 </text>
<text text-anchor="start" x="108.8422" y="-144.4" font-family="Arial" font-size="14.00" fill="#666666">[text]</text>
<text text-anchor="start" x="139.1872" y="-144.4" font-family="Arial" font-size="14.00" fill="#000000"> 汎用項目7</text>
<polygon fill="none" stroke="#000000" points="43.5,-103 43.5,-133 416.5,-133 416.5,-103 43.5,-103"/>
<text text-anchor="start" x="50.5" y="-114.4" font-family="Arial" font-size="14.00" fill="#000000">memo08 </text>
<text text-anchor="start" x="108.8422" y="-114.4" font-family="Arial" font-size="14.00" fill="#666666">[text]</text>
<text text-anchor="start" x="139.1872" y="-114.4" font-family="Arial" font-size="14.00" fill="#000000"> 汎用項目8</text>
<polygon fill="none" stroke="#000000" points="43.5,-73 43.5,-103 416.5,-103 416.5,-73 43.5,-73"/>
<text text-anchor="start" x="50.5" y="-84.4" font-family="Arial" font-size="14.00" fill="#000000">memo09 </text>
<text text-anchor="start" x="108.8422" y="-84.4" font-family="Arial" font-size="14.00" fill="#666666">[text]</text>
<text text-anchor="start" x="139.1872" y="-84.4" font-family="Arial" font-size="14.00" fill="#000000"> 汎用項目9</text>
<polygon fill="none" stroke="#000000" points="43.5,-43 43.5,-73 416.5,-73 416.5,-43 43.5,-43"/>
<text text-anchor="start" x="50.5" y="-54.4" font-family="Arial" font-size="14.00" fill="#000000">memo10 </text>
<text text-anchor="start" x="108.8422" y="-54.4" font-family="Arial" font-size="14.00" fill="#666666">[text]</text>
<text text-anchor="start" x="139.1872" y="-54.4" font-family="Arial" font-size="14.00" fill="#000000"> 汎用項目10</text>
</g>
<!-- public.dtb_mail_history&#45;&gt;public.dtb_order -->
<g id="edge1" class="edge">
<title>public.dtb_mail_history:order_id&#45;&gt;public.dtb_order:order_id</title>
<path fill="none" stroke="#000000" stroke-dasharray="5,2" d="M513.319,-2086.9387C446.7176,-2058.1732 494.3806,-1738 416.5,-1738"/>
<polygon fill="#000000" stroke="#000000" points="513.6989,-2087.0155 522.607,-2093.4105 518.5994,-2088.0078 523.5,-2089 523.5,-2089 523.5,-2089 518.5994,-2088.0078 524.393,-2084.5895 513.6989,-2087.0155 513.6989,-2087.0155"/>
<text text-anchor="start" x="433.8245" y="-2099" font-family="Arial" font-size="10.00" fill="#000000">Additional Relation</text>
</g>
<!-- public.dtb_mailtemplate -->
<g id="node3" class="node">
<title>public.dtb_mailtemplate</title>
<polygon fill="#efefef" stroke="transparent" points="520.5,-1018 520.5,-1064 861.5,-1064 861.5,-1018 520.5,-1018"/>
<polygon fill="none" stroke="#000000" points="520.5,-1018 520.5,-1064 861.5,-1064 861.5,-1018 520.5,-1018"/>
<text text-anchor="start" x="547.8569" y="-1041.8" font-family="Arial Bold" font-size="18.00" fill="#000000">public.dtb_mailtemplate</text>
<text text-anchor="start" x="736.8893" y="-1041.8" font-family="Arial" font-size="14.00" fill="#000000"> </text>
<text text-anchor="start" x="740.7799" y="-1041.8" font-family="Arial" font-size="14.00" fill="#666666">[BASE TABLE]</text>
<text text-anchor="start" x="604.2917" y="-1027.4" font-family="Arial" font-size="14.00" fill="#333333">メールテンプレート情報</text>
<polygon fill="none" stroke="#000000" points="520.5,-988 520.5,-1018 861.5,-1018 861.5,-988 520.5,-988"/>
<text text-anchor="start" x="527.5" y="-999.4" font-family="Arial" font-size="14.00" fill="#000000">template_id </text>
<text text-anchor="start" x="603.7412" y="-999.4" font-family="Arial" font-size="14.00" fill="#666666">[integer]</text>
<text text-anchor="start" x="654.3106" y="-999.4" font-family="Arial" font-size="14.00" fill="#000000"> テンプレートID</text>
<polygon fill="none" stroke="#000000" points="520.5,-958 520.5,-988 861.5,-988 861.5,-958 520.5,-958"/>
<text text-anchor="start" x="527.5" y="-969.4" font-family="Arial" font-size="14.00" fill="#000000">subject </text>
<text text-anchor="start" x="575.7356" y="-969.4" font-family="Arial" font-size="14.00" fill="#666666">[text]</text>
<text text-anchor="start" x="606.0806" y="-969.4" font-family="Arial" font-size="14.00" fill="#000000"> 件名</text>
<polygon fill="none" stroke="#000000" points="520.5,-928 520.5,-958 861.5,-958 861.5,-928 520.5,-928"/>
<text text-anchor="start" x="527.5" y="-939.4" font-family="Arial" font-size="14.00" fill="#000000">header </text>
<text text-anchor="start" x="574.9642" y="-939.4" font-family="Arial" font-size="14.00" fill="#666666">[text]</text>
<text text-anchor="start" x="605.3092" y="-939.4" font-family="Arial" font-size="14.00" fill="#000000"> ヘッダ</text>
<polygon fill="none" stroke="#000000" points="520.5,-898 520.5,-928 861.5,-928 861.5,-898 520.5,-898"/>
<text text-anchor="start" x="527.5" y="-909.4" font-family="Arial" font-size="14.00" fill="#000000">footer </text>
<text text-anchor="start" x="567.1802" y="-909.4" font-family="Arial" font-size="14.00" fill="#666666">[text]</text>
<text text-anchor="start" x="597.5252" y="-909.4" font-family="Arial" font-size="14.00" fill="#000000"> フッタ</text>
<polygon fill="none" stroke="#000000" points="520.5,-868 520.5,-898 861.5,-898 861.5,-868 520.5,-868"/>
<text text-anchor="start" x="527.5" y="-879.4" font-family="Arial" font-size="14.00" fill="#000000">creator_id </text>
<text text-anchor="start" x="593.622" y="-879.4" font-family="Arial" font-size="14.00" fill="#666666">[integer]</text>
<text text-anchor="start" x="644.1914" y="-879.4" font-family="Arial" font-size="14.00" fill="#000000"> 作成者ID</text>
<polygon fill="none" stroke="#000000" points="520.5,-838 520.5,-868 861.5,-868 861.5,-838 520.5,-838"/>
<text text-anchor="start" x="527.5" y="-849.4" font-family="Arial" font-size="14.00" fill="#000000">del_flg </text>
<text text-anchor="start" x="572.6248" y="-849.4" font-family="Arial" font-size="14.00" fill="#666666">[smallint]</text>
<text text-anchor="start" x="627.8422" y="-849.4" font-family="Arial" font-size="14.00" fill="#000000"> 削除フラグ</text>
<polygon fill="none" stroke="#000000" points="520.5,-808 520.5,-838 861.5,-838 861.5,-808 520.5,-808"/>
<text text-anchor="start" x="527.235" y="-819.4" font-family="Arial" font-size="14.00" fill="#000000">create_date </text>
<text text-anchor="start" x="605.0456" y="-819.4" font-family="Arial" font-size="14.00" fill="#666666">[timestamp without time zone]</text>
<text text-anchor="start" x="790.1858" y="-819.4" font-family="Arial" font-size="14.00" fill="#000000"> 作成日時</text>
<polygon fill="none" stroke="#000000" points="520.5,-778 520.5,-808 861.5,-808 861.5,-778 520.5,-778"/>
<text text-anchor="start" x="527.5" y="-789.4" font-family="Arial" font-size="14.00" fill="#000000">update_date </text>
<text text-anchor="start" x="609.2152" y="-789.4" font-family="Arial" font-size="14.00" fill="#666666">[timestamp without time zone]</text>
<text text-anchor="start" x="794.3554" y="-789.4" font-family="Arial" font-size="14.00" fill="#000000"> 更新日時</text>
</g>
<!-- public.dtb_mail_history&#45;&gt;public.dtb_mailtemplate -->
<g id="edge2" class="edge">
<title>public.dtb_mail_history:template_id&#45;&gt;public.dtb_mailtemplate:template_id</title>
<path fill="none" stroke="#000000" stroke-dasharray="5,2" d="M515.8409,-2022.4482C466.3503,-1935.0669 466.1716,-1003 520.5,-1003"/>
<polygon fill="#000000" stroke="#000000" points="515.901,-2022.4995 520.5748,-2032.4196 519.7005,-2025.7498 523.5,-2029 523.5,-2029 523.5,-2029 519.7005,-2025.7498 526.4252,-2025.5804 515.901,-2022.4995 515.901,-2022.4995"/>
<text text-anchor="start" x="433.8245" y="-2039" font-family="Arial" font-size="10.00" fill="#000000">Additional Relation</text>
</g>
<!-- public.dtb_member -->
<g id="node4" class="node">
<title>public.dtb_member</title>
<polygon fill="#efefef" stroke="transparent" points="965.5,-1108 965.5,-1154 1342.5,-1154 1342.5,-1108 965.5,-1108"/>
<polygon fill="none" stroke="#000000" points="965.5,-1108 965.5,-1154 1342.5,-1154 1342.5,-1108 965.5,-1108"/>
<text text-anchor="start" x="1028.8605" y="-1131.8" font-family="Arial Bold" font-size="18.00" fill="#000000">public.dtb_member</text>
<text text-anchor="start" x="1181.8857" y="-1131.8" font-family="Arial" font-size="14.00" fill="#000000"> </text>
<text text-anchor="start" x="1185.7763" y="-1131.8" font-family="Arial" font-size="14.00" fill="#666666">[BASE TABLE]</text>
<text text-anchor="start" x="1074.4016" y="-1117.4" font-family="Arial" font-size="14.00" fill="#333333">管理画面メンバー情報</text>
<polygon fill="none" stroke="#000000" points="965.5,-1078 965.5,-1108 1342.5,-1108 1342.5,-1078 965.5,-1078"/>
<text text-anchor="start" x="972.5" y="-1089.4" font-family="Arial" font-size="14.00" fill="#000000">member_id </text>
<text text-anchor="start" x="1046.392" y="-1089.4" font-family="Arial" font-size="14.00" fill="#666666">[integer]</text>
<text text-anchor="start" x="1096.9614" y="-1089.4" font-family="Arial" font-size="14.00" fill="#000000"> メンバーID</text>
<polygon fill="none" stroke="#000000" points="965.5,-1048 965.5,-1078 1342.5,-1078 1342.5,-1048 965.5,-1048"/>
<text text-anchor="start" x="972.5" y="-1059.4" font-family="Arial" font-size="14.00" fill="#000000">name </text>
<text text-anchor="start" x="1011.399" y="-1059.4" font-family="Arial" font-size="14.00" fill="#666666">[text]</text>
<text text-anchor="start" x="1041.744" y="-1059.4" font-family="Arial" font-size="14.00" fill="#000000"> 名前</text>
<polygon fill="none" stroke="#000000" points="965.5,-1018 965.5,-1048 1342.5,-1048 1342.5,-1018 965.5,-1018"/>
<text text-anchor="start" x="972.5" y="-1029.4" font-family="Arial" font-size="14.00" fill="#000000">department </text>
<text text-anchor="start" x="1047.1886" y="-1029.4" font-family="Arial" font-size="14.00" fill="#666666">[text]</text>
<text text-anchor="start" x="1077.5336" y="-1029.4" font-family="Arial" font-size="14.00" fill="#000000"> 部門</text>
<polygon fill="none" stroke="#000000" points="965.5,-988 965.5,-1018 1342.5,-1018 1342.5,-988 965.5,-988"/>
<text text-anchor="start" x="972.5" y="-999.4" font-family="Arial" font-size="14.00" fill="#000000">login_id </text>
<text text-anchor="start" x="1024.6234" y="-999.4" font-family="Arial" font-size="14.00" fill="#666666">[text]</text>
<text text-anchor="start" x="1054.9684" y="-999.4" font-family="Arial" font-size="14.00" fill="#000000"> ログインID</text>
<polygon fill="none" stroke="#000000" points="965.5,-958 965.5,-988 1342.5,-988 1342.5,-958 965.5,-958"/>
<text text-anchor="start" x="972.5" y="-969.4" font-family="Arial" font-size="14.00" fill="#000000">password </text>
<text text-anchor="start" x="1036.2882" y="-969.4" font-family="Arial" font-size="14.00" fill="#666666">[text]</text>
<text text-anchor="start" x="1066.6332" y="-969.4" font-family="Arial" font-size="14.00" fill="#000000"> パスワード</text>
<polygon fill="none" stroke="#000000" points="965.5,-928 965.5,-958 1342.5,-958 1342.5,-928 965.5,-928"/>
<text text-anchor="start" x="972.5" y="-939.4" font-family="Arial" font-size="14.00" fill="#000000">salt </text>
<text text-anchor="start" x="998.1704" y="-939.4" font-family="Arial" font-size="14.00" fill="#666666">[text]</text>
<text text-anchor="start" x="1028.5154" y="-939.4" font-family="Arial" font-size="14.00" fill="#000000"> 暗号化付与文字列</text>
<polygon fill="none" stroke="#000000" points="965.5,-898 965.5,-928 1342.5,-928 1342.5,-898 965.5,-898"/>
<text text-anchor="start" x="972.5" y="-909.4" font-family="Arial" font-size="14.00" fill="#000000">authority </text>
<text text-anchor="start" x="1030.0694" y="-909.4" font-family="Arial" font-size="14.00" fill="#666666">[smallint]</text>
<text text-anchor="start" x="1085.2868" y="-909.4" font-family="Arial" font-size="14.00" fill="#000000"> 権限</text>
<polygon fill="none" stroke="#000000" points="965.5,-868 965.5,-898 1342.5,-898 1342.5,-868 965.5,-868"/>
<text text-anchor="start" x="972.5" y="-879.4" font-family="Arial" font-size="14.00" fill="#000000">rank </text>
<text text-anchor="start" x="1003.6164" y="-879.4" font-family="Arial" font-size="14.00" fill="#666666">[integer]</text>
<text text-anchor="start" x="1054.1858" y="-879.4" font-family="Arial" font-size="14.00" fill="#000000"> 表示順</text>
<polygon fill="none" stroke="#000000" points="965.5,-838 965.5,-868 1342.5,-868 1342.5,-838 965.5,-838"/>
<text text-anchor="start" x="972.5" y="-849.4" font-family="Arial" font-size="14.00" fill="#000000">work </text>
<text text-anchor="start" x="1005.9404" y="-849.4" font-family="Arial" font-size="14.00" fill="#666666">[smallint]</text>
<text text-anchor="start" x="1061.1578" y="-849.4" font-family="Arial" font-size="14.00" fill="#000000"> 稼動フラグ</text>
<polygon fill="none" stroke="#000000" points="965.5,-808 965.5,-838 1342.5,-838 1342.5,-808 965.5,-808"/>
<text text-anchor="start" x="972.5" y="-819.4" font-family="Arial" font-size="14.00" fill="#000000">del_flg </text>
<text text-anchor="start" x="1017.6248" y="-819.4" font-family="Arial" font-size="14.00" fill="#666666">[smallint]</text>
<text text-anchor="start" x="1072.8422" y="-819.4" font-family="Arial" font-size="14.00" fill="#000000"> 削除フラグ</text>
<polygon fill="none" stroke="#000000" points="965.5,-778 965.5,-808 1342.5,-808 1342.5,-778 965.5,-778"/>
<text text-anchor="start" x="972.5" y="-789.4" font-family="Arial" font-size="14.00" fill="#000000">creator_id </text>
<text text-anchor="start" x="1038.622" y="-789.4" font-family="Arial" font-size="14.00" fill="#666666">[integer]</text>
<text text-anchor="start" x="1089.1914" y="-789.4" font-family="Arial" font-size="14.00" fill="#000000"> 作成者ID</text>
<polygon fill="none" stroke="#000000" points="965.5,-748 965.5,-778 1342.5,-778 1342.5,-748 965.5,-748"/>
<text text-anchor="start" x="972.5" y="-759.4" font-family="Arial" font-size="14.00" fill="#000000">create_date </text>
<text text-anchor="start" x="1050.3106" y="-759.4" font-family="Arial" font-size="14.00" fill="#666666">[timestamp without time zone]</text>
<text text-anchor="start" x="1235.4508" y="-759.4" font-family="Arial" font-size="14.00" fill="#000000"> 作成日時</text>
<polygon fill="none" stroke="#000000" points="965.5,-718 965.5,-748 1342.5,-748 1342.5,-718 965.5,-718"/>
<text text-anchor="start" x="972.5" y="-729.4" font-family="Arial" font-size="14.00" fill="#000000">update_date </text>
<text text-anchor="start" x="1054.2152" y="-729.4" font-family="Arial" font-size="14.00" fill="#666666">[timestamp without time zone]</text>
<text text-anchor="start" x="1239.3554" y="-729.4" font-family="Arial" font-size="14.00" fill="#000000"> 更新日付</text>
<polygon fill="none" stroke="#000000" points="965.5,-688 965.5,-718 1342.5,-718 1342.5,-688 965.5,-688"/>
<text text-anchor="start" x="972.4851" y="-699.4" font-family="Arial" font-size="14.00" fill="#000000">login_date </text>
<text text-anchor="start" x="1040.9577" y="-699.4" font-family="Arial" font-size="14.00" fill="#666666">[timestamp without time zone]</text>
<text text-anchor="start" x="1226.0979" y="-699.4" font-family="Arial" font-size="14.00" fill="#000000"> 最終ログイン日時</text>
</g>
<!-- public.dtb_mail_history&#45;&gt;public.dtb_member -->
<g id="edge3" class="edge">
<title>public.dtb_mail_history:creator_id&#45;&gt;public.dtb_member:member_id</title>
<path fill="none" stroke="#000000" stroke-dasharray="5,2" d="M868.5777,-1998.4063C929.246,-1990.7688 899.3124,-1910.8795 913.5,-1842 930.3299,-1760.2927 882.0775,-1093 965.5,-1093"/>
<polygon fill="#000000" stroke="#000000" points="868.4827,-1998.4118 858.2353,-1994.5078 863.4913,-1998.7059 858.5,-1999 858.5,-1999 858.5,-1999 863.4913,-1998.7059 858.7647,-2003.4922 868.4827,-1998.4118 868.4827,-1998.4118"/>
<text text-anchor="start" x="865.8245" y="-2009" font-family="Arial" font-size="10.00" fill="#000000">Additional Relation</text>
</g>
</g>
</svg>
