<?xml version="1.0" encoding="UTF-8" standalone="no"?>
<!DOCTYPE svg PUBLIC "-//W3C//DTD SVG 1.1//EN"
 "http://www.w3.org/Graphics/SVG/1.1/DTD/svg11.dtd">
<!-- Generated by graphviz version 2.40.1 (20161225.0304)
 -->
<!-- Title: public.dtb_send_customer Pages: 1 -->
<svg width="421pt" height="296pt"
 viewBox="0.00 0.00 421.00 296.00" xmlns="http://www.w3.org/2000/svg" xmlns:xlink="http://www.w3.org/1999/xlink">
<g id="graph0" class="graph" transform="scale(1 1) rotate(0) translate(4 292)">
<title>public.dtb_send_customer</title>
<polygon fill="#ffffff" stroke="transparent" points="-4,4 -4,-292 417,-292 417,4 -4,4"/>
<!-- public.dtb_send_customer -->
<g id="node1" class="node">
<title>public.dtb_send_customer</title>
<polygon fill="#efefef" stroke="transparent" points="46.5,-196 46.5,-242 367.5,-242 367.5,-196 46.5,-196"/>
<polygon fill="none" stroke="#000000" points="46.5,-196 46.5,-242 367.5,-242 367.5,-196 46.5,-196"/>
<text text-anchor="start" x="53.3431" y="-219.8" font-family="Arial Bold" font-size="18.00" fill="#000000">public.dtb_send_customer</text>
<text text-anchor="start" x="263.4031" y="-219.8" font-family="Arial" font-size="14.00" fill="#000000"> </text>
<text text-anchor="start" x="267.2937" y="-219.8" font-family="Arial" font-size="14.00" fill="#666666">[BASE TABLE]</text>
<text text-anchor="start" x="125.3345" y="-205.4" font-family="Arial" font-size="14.00" fill="#333333">顧客メール送信履歴</text>
<polygon fill="none" stroke="#000000" points="46.5,-166 46.5,-196 367.5,-196 367.5,-166 46.5,-166"/>
<text text-anchor="start" x="53.5" y="-177.4" font-family="Arial" font-size="14.00" fill="#000000">customer_id </text>
<text text-anchor="start" x="133.622" y="-177.4" font-family="Arial" font-size="14.00" fill="#666666">[integer]</text>
<text text-anchor="start" x="184.1914" y="-177.4" font-family="Arial" font-size="14.00" fill="#000000"> 顧客ID</text>
<polygon fill="none" stroke="#000000" points="46.5,-136 46.5,-166 367.5,-166 367.5,-136 46.5,-136"/>
<text text-anchor="start" x="53.5" y="-147.4" font-family="Arial" font-size="14.00" fill="#000000">send_id </text>
<text text-anchor="start" x="106.4102" y="-147.4" font-family="Arial" font-size="14.00" fill="#666666">[integer]</text>
<text text-anchor="start" x="156.9796" y="-147.4" font-family="Arial" font-size="14.00" fill="#000000"> 送信ID</text>
<polygon fill="none" stroke="#000000" points="46.5,-106 46.5,-136 367.5,-136 367.5,-106 46.5,-106"/>
<text text-anchor="start" x="53.5" y="-117.4" font-family="Arial" font-size="14.00" fill="#000000">email </text>
<text text-anchor="start" x="90.8296" y="-117.4" font-family="Arial" font-size="14.00" fill="#666666">[text]</text>
<text text-anchor="start" x="121.1746" y="-117.4" font-family="Arial" font-size="14.00" fill="#000000"> メールアドレス</text>
<polygon fill="none" stroke="#000000" points="46.5,-76 46.5,-106 367.5,-106 367.5,-76 46.5,-76"/>
<text text-anchor="start" x="53.5" y="-87.4" font-family="Arial" font-size="14.00" fill="#000000">name </text>
<text text-anchor="start" x="92.399" y="-87.4" font-family="Arial" font-size="14.00" fill="#666666">[text]</text>
<text text-anchor="start" x="122.744" y="-87.4" font-family="Arial" font-size="14.00" fill="#000000"> 名前</text>
<polygon fill="none" stroke="#000000" points="46.5,-46 46.5,-76 367.5,-76 367.5,-46 46.5,-46"/>
<text text-anchor="start" x="53.5" y="-57.4" font-family="Arial" font-size="14.00" fill="#000000">send_flag </text>
<text text-anchor="start" x="118.0834" y="-57.4" font-family="Arial" font-size="14.00" fill="#666666">[smallint]</text>
<text text-anchor="start" x="173.3008" y="-57.4" font-family="Arial" font-size="14.00" fill="#000000"> 送信フラグ</text>
<polygon fill="none" stroke="#000000" stroke-width="3" points="44.5,-44.5 44.5,-243.5 368.5,-243.5 368.5,-44.5 44.5,-44.5"/>
</g>
</g>
</svg>
