<?xml version="1.0" encoding="UTF-8" standalone="no"?>
<!DOCTYPE svg PUBLIC "-//W3C//DTD SVG 1.1//EN"
 "http://www.w3.org/Graphics/SVG/1.1/DTD/svg11.dtd">
<!-- Generated by graphviz version 2.40.1 (20161225.0304)
 -->
<!-- Title: public.dtb_review Pages: 1 -->
<svg width="441pt" height="566pt"
 viewBox="0.00 0.00 441.00 566.00" xmlns="http://www.w3.org/2000/svg" xmlns:xlink="http://www.w3.org/1999/xlink">
<g id="graph0" class="graph" transform="scale(1 1) rotate(0) translate(4 562)">
<title>public.dtb_review</title>
<polygon fill="#ffffff" stroke="transparent" points="-4,4 -4,-562 437,-562 437,4 -4,4"/>
<!-- public.dtb_review -->
<g id="node1" class="node">
<title>public.dtb_review</title>
<polygon fill="#efefef" stroke="transparent" points="46.5,-466 46.5,-512 387.5,-512 387.5,-466 46.5,-466"/>
<polygon fill="none" stroke="#000000" points="46.5,-466 46.5,-512 387.5,-512 387.5,-466 46.5,-466"/>
<text text-anchor="start" x="98.8616" y="-489.8" font-family="Arial Bold" font-size="18.00" fill="#000000">public.dtb_review</text>
<text text-anchor="start" x="237.8846" y="-489.8" font-family="Arial" font-size="14.00" fill="#000000"> </text>
<text text-anchor="start" x="241.7752" y="-489.8" font-family="Arial" font-size="14.00" fill="#666666">[BASE TABLE]</text>
<text text-anchor="start" x="170.0769" y="-475.4" font-family="Arial" font-size="14.00" fill="#333333">レビュー情報</text>
<polygon fill="none" stroke="#000000" points="46.5,-436 46.5,-466 387.5,-466 387.5,-436 46.5,-436"/>
<text text-anchor="start" x="53.5" y="-447.4" font-family="Arial" font-size="14.00" fill="#000000">review_id </text>
<text text-anchor="start" x="116.5014" y="-447.4" font-family="Arial" font-size="14.00" fill="#666666">[integer]</text>
<text text-anchor="start" x="167.0708" y="-447.4" font-family="Arial" font-size="14.00" fill="#000000"> レビューID</text>
<polygon fill="none" stroke="#000000" points="46.5,-406 46.5,-436 387.5,-436 387.5,-406 46.5,-406"/>
<text text-anchor="start" x="53.5" y="-417.4" font-family="Arial" font-size="14.00" fill="#000000">product_id </text>
<text text-anchor="start" x="122.744" y="-417.4" font-family="Arial" font-size="14.00" fill="#666666">[integer]</text>
<text text-anchor="start" x="173.3134" y="-417.4" font-family="Arial" font-size="14.00" fill="#000000"> 商品ID</text>
<polygon fill="none" stroke="#000000" points="46.5,-376 46.5,-406 387.5,-406 387.5,-376 46.5,-376"/>
<text text-anchor="start" x="53.5" y="-387.4" font-family="Arial" font-size="14.00" fill="#000000">reviewer_name </text>
<text text-anchor="start" x="153.0638" y="-387.4" font-family="Arial" font-size="14.00" fill="#666666">[text]</text>
<text text-anchor="start" x="183.4088" y="-387.4" font-family="Arial" font-size="14.00" fill="#000000"> レビューア名</text>
<polygon fill="none" stroke="#000000" points="46.5,-346 46.5,-376 387.5,-376 387.5,-346 46.5,-346"/>
<text text-anchor="start" x="53.5" y="-357.4" font-family="Arial" font-size="14.00" fill="#000000">reviewer_url </text>
<text text-anchor="start" x="133.6052" y="-357.4" font-family="Arial" font-size="14.00" fill="#666666">[text]</text>
<text text-anchor="start" x="163.9502" y="-357.4" font-family="Arial" font-size="14.00" fill="#000000"> レビューアURL</text>
<polygon fill="none" stroke="#000000" points="46.5,-316 46.5,-346 387.5,-346 387.5,-316 46.5,-316"/>
<text text-anchor="start" x="53.5" y="-327.4" font-family="Arial" font-size="14.00" fill="#000000">sex </text>
<text text-anchor="start" x="79.1732" y="-327.4" font-family="Arial" font-size="14.00" fill="#666666">[smallint]</text>
<text text-anchor="start" x="134.3906" y="-327.4" font-family="Arial" font-size="14.00" fill="#000000"> 性別</text>
<polygon fill="none" stroke="#000000" points="46.5,-286 46.5,-316 387.5,-316 387.5,-286 46.5,-286"/>
<text text-anchor="start" x="53.5" y="-297.4" font-family="Arial" font-size="14.00" fill="#000000">customer_id </text>
<text text-anchor="start" x="133.622" y="-297.4" font-family="Arial" font-size="14.00" fill="#666666">[integer]</text>
<text text-anchor="start" x="184.1914" y="-297.4" font-family="Arial" font-size="14.00" fill="#000000"> 顧客lID</text>
<polygon fill="none" stroke="#000000" points="46.5,-256 46.5,-286 387.5,-286 387.5,-256 46.5,-256"/>
<text text-anchor="start" x="53.5" y="-267.4" font-family="Arial" font-size="14.00" fill="#000000">recommend_level </text>
<text text-anchor="start" x="167.8464" y="-267.4" font-family="Arial" font-size="14.00" fill="#666666">[smallint]</text>
<text text-anchor="start" x="223.0638" y="-267.4" font-family="Arial" font-size="14.00" fill="#000000"> おすすめレベル</text>
<polygon fill="none" stroke="#000000" points="46.5,-226 46.5,-256 387.5,-256 387.5,-226 46.5,-226"/>
<text text-anchor="start" x="53.5" y="-237.4" font-family="Arial" font-size="14.00" fill="#000000">title </text>
<text text-anchor="start" x="79.1676" y="-237.4" font-family="Arial" font-size="14.00" fill="#666666">[text]</text>
<text text-anchor="start" x="109.5126" y="-237.4" font-family="Arial" font-size="14.00" fill="#000000"> タイトル</text>
<polygon fill="none" stroke="#000000" points="46.5,-196 46.5,-226 387.5,-226 387.5,-196 46.5,-196"/>
<text text-anchor="start" x="53.5" y="-207.4" font-family="Arial" font-size="14.00" fill="#000000">comment </text>
<text text-anchor="start" x="114.9502" y="-207.4" font-family="Arial" font-size="14.00" fill="#666666">[text]</text>
<text text-anchor="start" x="145.2952" y="-207.4" font-family="Arial" font-size="14.00" fill="#000000"> コメント</text>
<polygon fill="none" stroke="#000000" points="46.5,-166 46.5,-196 387.5,-196 387.5,-166 46.5,-166"/>
<text text-anchor="start" x="53.5" y="-177.4" font-family="Arial" font-size="14.00" fill="#000000">status </text>
<text text-anchor="start" x="94.737" y="-177.4" font-family="Arial" font-size="14.00" fill="#666666">[smallint]</text>
<text text-anchor="start" x="149.9544" y="-177.4" font-family="Arial" font-size="14.00" fill="#000000"> 状態</text>
<polygon fill="none" stroke="#000000" points="46.5,-136 46.5,-166 387.5,-166 387.5,-136 46.5,-136"/>
<text text-anchor="start" x="53.5" y="-147.4" font-family="Arial" font-size="14.00" fill="#000000">creator_id </text>
<text text-anchor="start" x="119.622" y="-147.4" font-family="Arial" font-size="14.00" fill="#666666">[integer]</text>
<text text-anchor="start" x="170.1914" y="-147.4" font-family="Arial" font-size="14.00" fill="#000000"> 作成者ID</text>
<polygon fill="none" stroke="#000000" points="46.5,-106 46.5,-136 387.5,-136 387.5,-106 46.5,-106"/>
<text text-anchor="start" x="53.235" y="-117.4" font-family="Arial" font-size="14.00" fill="#000000">create_date </text>
<text text-anchor="start" x="131.0456" y="-117.4" font-family="Arial" font-size="14.00" fill="#666666">[timestamp without time zone]</text>
<text text-anchor="start" x="316.1858" y="-117.4" font-family="Arial" font-size="14.00" fill="#000000"> 作成日時</text>
<polygon fill="none" stroke="#000000" points="46.5,-76 46.5,-106 387.5,-106 387.5,-76 46.5,-76"/>
<text text-anchor="start" x="53.5" y="-87.4" font-family="Arial" font-size="14.00" fill="#000000">update_date </text>
<text text-anchor="start" x="135.2152" y="-87.4" font-family="Arial" font-size="14.00" fill="#666666">[timestamp without time zone]</text>
<text text-anchor="start" x="320.3554" y="-87.4" font-family="Arial" font-size="14.00" fill="#000000"> 更新日時</text>
<polygon fill="none" stroke="#000000" points="46.5,-46 46.5,-76 387.5,-76 387.5,-46 46.5,-46"/>
<text text-anchor="start" x="53.5" y="-57.4" font-family="Arial" font-size="14.00" fill="#000000">del_flg </text>
<text text-anchor="start" x="98.6248" y="-57.4" font-family="Arial" font-size="14.00" fill="#666666">[smallint]</text>
<text text-anchor="start" x="153.8422" y="-57.4" font-family="Arial" font-size="14.00" fill="#000000"> 削除フラグ</text>
<polygon fill="none" stroke="#000000" stroke-width="3" points="44.5,-44.5 44.5,-513.5 388.5,-513.5 388.5,-44.5 44.5,-44.5"/>
</g>
</g>
</svg>
