<?xml version="1.0" encoding="UTF-8" standalone="no"?>
<!DOCTYPE svg PUBLIC "-//W3C//DTD SVG 1.1//EN"
 "http://www.w3.org/Graphics/SVG/1.1/DTD/svg11.dtd">
<!-- Generated by graphviz version 2.40.1 (20161225.0304)
 -->
<!-- Title: public.dtb_products Pages: 1 -->
<svg width="441pt" height="1496pt"
 viewBox="0.00 0.00 441.00 1496.00" xmlns="http://www.w3.org/2000/svg" xmlns:xlink="http://www.w3.org/1999/xlink">
<g id="graph0" class="graph" transform="scale(1 1) rotate(0) translate(4 1492)">
<title>public.dtb_products</title>
<polygon fill="#ffffff" stroke="transparent" points="-4,4 -4,-1492 437,-1492 437,4 -4,4"/>
<!-- public.dtb_products -->
<g id="node1" class="node">
<title>public.dtb_products</title>
<polygon fill="#efefef" stroke="transparent" points="46.5,-1396 46.5,-1442 387.5,-1442 387.5,-1396 46.5,-1396"/>
<polygon fill="none" stroke="#000000" points="46.5,-1396 46.5,-1442 387.5,-1442 387.5,-1396 46.5,-1396"/>
<text text-anchor="start" x="90.3485" y="-1419.8" font-family="Arial Bold" font-size="18.00" fill="#000000">public.dtb_products</text>
<text text-anchor="start" x="246.3977" y="-1419.8" font-family="Arial" font-size="14.00" fill="#000000"> </text>
<text text-anchor="start" x="250.2883" y="-1419.8" font-family="Arial" font-size="14.00" fill="#666666">[BASE TABLE]</text>
<text text-anchor="start" x="191.7104" y="-1405.4" font-family="Arial" font-size="14.00" fill="#333333">商品情報</text>
<polygon fill="none" stroke="#000000" points="46.5,-1366 46.5,-1396 387.5,-1396 387.5,-1366 46.5,-1366"/>
<text text-anchor="start" x="53.5" y="-1377.4" font-family="Arial" font-size="14.00" fill="#000000">product_id </text>
<text text-anchor="start" x="122.744" y="-1377.4" font-family="Arial" font-size="14.00" fill="#666666">[integer]</text>
<text text-anchor="start" x="173.3134" y="-1377.4" font-family="Arial" font-size="14.00" fill="#000000"> 商品ID</text>
<polygon fill="none" stroke="#000000" points="46.5,-1336 46.5,-1366 387.5,-1366 387.5,-1336 46.5,-1336"/>
<text text-anchor="start" x="53.5" y="-1347.4" font-family="Arial" font-size="14.00" fill="#000000">name </text>
<text text-anchor="start" x="92.399" y="-1347.4" font-family="Arial" font-size="14.00" fill="#666666">[text]</text>
<text text-anchor="start" x="122.744" y="-1347.4" font-family="Arial" font-size="14.00" fill="#000000"> 商品名</text>
<polygon fill="none" stroke="#000000" points="46.5,-1306 46.5,-1336 387.5,-1336 387.5,-1306 46.5,-1306"/>
<text text-anchor="start" x="53.5" y="-1317.4" font-family="Arial" font-size="14.00" fill="#000000">maker_id </text>
<text text-anchor="start" x="114.9488" y="-1317.4" font-family="Arial" font-size="14.00" fill="#666666">[integer]</text>
<text text-anchor="start" x="165.5182" y="-1317.4" font-family="Arial" font-size="14.00" fill="#000000"> メーカーID</text>
<polygon fill="none" stroke="#000000" points="46.5,-1276 46.5,-1306 387.5,-1306 387.5,-1276 46.5,-1276"/>
<text text-anchor="start" x="53.5" y="-1287.4" font-family="Arial" font-size="14.00" fill="#000000">status </text>
<text text-anchor="start" x="94.737" y="-1287.4" font-family="Arial" font-size="14.00" fill="#666666">[smallint]</text>
<text text-anchor="start" x="149.9544" y="-1287.4" font-family="Arial" font-size="14.00" fill="#000000"> 表示ステータス</text>
<polygon fill="none" stroke="#000000" points="46.5,-1246 46.5,-1276 387.5,-1276 387.5,-1246 46.5,-1246"/>
<text text-anchor="start" x="53.5" y="-1257.4" font-family="Arial" font-size="14.00" fill="#000000">comment1 </text>
<text text-anchor="start" x="122.7328" y="-1257.4" font-family="Arial" font-size="14.00" fill="#666666">[text]</text>
<text text-anchor="start" x="153.0778" y="-1257.4" font-family="Arial" font-size="14.00" fill="#000000"> コメント1(メーカーURL)</text>
<polygon fill="none" stroke="#000000" points="46.5,-1216 46.5,-1246 387.5,-1246 387.5,-1216 46.5,-1216"/>
<text text-anchor="start" x="53.5" y="-1227.4" font-family="Arial" font-size="14.00" fill="#000000">comment2 </text>
<text text-anchor="start" x="122.7328" y="-1227.4" font-family="Arial" font-size="14.00" fill="#666666">[text]</text>
<text text-anchor="start" x="153.0778" y="-1227.4" font-family="Arial" font-size="14.00" fill="#000000"> コメント2</text>
<polygon fill="none" stroke="#000000" points="46.5,-1186 46.5,-1216 387.5,-1216 387.5,-1186 46.5,-1186"/>
<text text-anchor="start" x="53.5" y="-1197.4" font-family="Arial" font-size="14.00" fill="#000000">comment3 </text>
<text text-anchor="start" x="122.7328" y="-1197.4" font-family="Arial" font-size="14.00" fill="#666666">[text]</text>
<text text-anchor="start" x="153.0778" y="-1197.4" font-family="Arial" font-size="14.00" fill="#000000"> コメント3(検索ワード)</text>
<polygon fill="none" stroke="#000000" points="46.5,-1156 46.5,-1186 387.5,-1186 387.5,-1156 46.5,-1156"/>
<text text-anchor="start" x="53.5" y="-1167.4" font-family="Arial" font-size="14.00" fill="#000000">comment4 </text>
<text text-anchor="start" x="122.7328" y="-1167.4" font-family="Arial" font-size="14.00" fill="#666666">[text]</text>
<text text-anchor="start" x="153.0778" y="-1167.4" font-family="Arial" font-size="14.00" fill="#000000"> コメント4</text>
<polygon fill="none" stroke="#000000" points="46.5,-1126 46.5,-1156 387.5,-1156 387.5,-1126 46.5,-1126"/>
<text text-anchor="start" x="53.5" y="-1137.4" font-family="Arial" font-size="14.00" fill="#000000">comment5 </text>
<text text-anchor="start" x="122.7328" y="-1137.4" font-family="Arial" font-size="14.00" fill="#666666">[text]</text>
<text text-anchor="start" x="153.0778" y="-1137.4" font-family="Arial" font-size="14.00" fill="#000000"> コメント5</text>
<polygon fill="none" stroke="#000000" points="46.5,-1096 46.5,-1126 387.5,-1126 387.5,-1096 46.5,-1096"/>
<text text-anchor="start" x="53.5" y="-1107.4" font-family="Arial" font-size="14.00" fill="#000000">comment6 </text>
<text text-anchor="start" x="122.7328" y="-1107.4" font-family="Arial" font-size="14.00" fill="#666666">[text]</text>
<text text-anchor="start" x="153.0778" y="-1107.4" font-family="Arial" font-size="14.00" fill="#000000"> コメント6</text>
<polygon fill="none" stroke="#000000" points="46.5,-1066 46.5,-1096 387.5,-1096 387.5,-1066 46.5,-1066"/>
<text text-anchor="start" x="53.5" y="-1077.4" font-family="Arial" font-size="14.00" fill="#000000">note </text>
<text text-anchor="start" x="84.629" y="-1077.4" font-family="Arial" font-size="14.00" fill="#666666">[text]</text>
<text text-anchor="start" x="114.974" y="-1077.4" font-family="Arial" font-size="14.00" fill="#000000"> 備考</text>
<polygon fill="none" stroke="#000000" points="46.5,-1036 46.5,-1066 387.5,-1066 387.5,-1036 46.5,-1036"/>
<text text-anchor="start" x="53.5" y="-1047.4" font-family="Arial" font-size="14.00" fill="#000000">main_list_comment </text>
<text text-anchor="start" x="177.9516" y="-1047.4" font-family="Arial" font-size="14.00" fill="#666666">[text]</text>
<text text-anchor="start" x="208.2966" y="-1047.4" font-family="Arial" font-size="14.00" fill="#000000"> メイン一覧コメント</text>
<polygon fill="none" stroke="#000000" points="46.5,-1006 46.5,-1036 387.5,-1036 387.5,-1006 46.5,-1006"/>
<text text-anchor="start" x="53.5" y="-1017.4" font-family="Arial" font-size="14.00" fill="#000000">main_list_image </text>
<text text-anchor="start" x="158.507" y="-1017.4" font-family="Arial" font-size="14.00" fill="#666666">[text]</text>
<text text-anchor="start" x="188.852" y="-1017.4" font-family="Arial" font-size="14.00" fill="#000000"> メイン一覧画像</text>
<polygon fill="none" stroke="#000000" points="46.5,-976 46.5,-1006 387.5,-1006 387.5,-976 46.5,-976"/>
<text text-anchor="start" x="53.5" y="-987.4" font-family="Arial" font-size="14.00" fill="#000000">main_comment </text>
<text text-anchor="start" x="153.0652" y="-987.4" font-family="Arial" font-size="14.00" fill="#666666">[text]</text>
<text text-anchor="start" x="183.4102" y="-987.4" font-family="Arial" font-size="14.00" fill="#000000"> メインコメント</text>
<polygon fill="none" stroke="#000000" points="46.5,-946 46.5,-976 387.5,-976 387.5,-946 46.5,-946"/>
<text text-anchor="start" x="53.5" y="-957.4" font-family="Arial" font-size="14.00" fill="#000000">main_image </text>
<text text-anchor="start" x="133.6206" y="-957.4" font-family="Arial" font-size="14.00" fill="#666666">[text]</text>
<text text-anchor="start" x="163.9656" y="-957.4" font-family="Arial" font-size="14.00" fill="#000000"> メイン画像</text>
<polygon fill="none" stroke="#000000" points="46.5,-916 46.5,-946 387.5,-946 387.5,-916 46.5,-916"/>
<text text-anchor="start" x="53.5" y="-927.4" font-family="Arial" font-size="14.00" fill="#000000">main_large_image </text>
<text text-anchor="start" x="172.5182" y="-927.4" font-family="Arial" font-size="14.00" fill="#666666">[text]</text>
<text text-anchor="start" x="202.8632" y="-927.4" font-family="Arial" font-size="14.00" fill="#000000"> メイン拡大画像</text>
<polygon fill="none" stroke="#000000" points="46.5,-886 46.5,-916 387.5,-916 387.5,-886 46.5,-886"/>
<text text-anchor="start" x="53.5" y="-897.4" font-family="Arial" font-size="14.00" fill="#000000">sub_title1 </text>
<text text-anchor="start" x="117.298" y="-897.4" font-family="Arial" font-size="14.00" fill="#666666">[text]</text>
<text text-anchor="start" x="147.643" y="-897.4" font-family="Arial" font-size="14.00" fill="#000000"> サブタイトル1</text>
<polygon fill="none" stroke="#000000" points="46.5,-856 46.5,-886 387.5,-886 387.5,-856 46.5,-856"/>
<text text-anchor="start" x="53.5" y="-867.4" font-family="Arial" font-size="14.00" fill="#000000">sub_comment1 </text>
<text text-anchor="start" x="153.0806" y="-867.4" font-family="Arial" font-size="14.00" fill="#666666">[text]</text>
<text text-anchor="start" x="183.4256" y="-867.4" font-family="Arial" font-size="14.00" fill="#000000"> サブコメント1</text>
<polygon fill="none" stroke="#000000" points="46.5,-826 46.5,-856 387.5,-856 387.5,-826 46.5,-826"/>
<text text-anchor="start" x="53.5" y="-837.4" font-family="Arial" font-size="14.00" fill="#000000">sub_image1 </text>
<text text-anchor="start" x="133.636" y="-837.4" font-family="Arial" font-size="14.00" fill="#666666">[text]</text>
<text text-anchor="start" x="163.981" y="-837.4" font-family="Arial" font-size="14.00" fill="#000000"> サブ画像1</text>
<polygon fill="none" stroke="#000000" points="46.5,-796 46.5,-826 387.5,-826 387.5,-796 46.5,-796"/>
<text text-anchor="start" x="53.5" y="-807.4" font-family="Arial" font-size="14.00" fill="#000000">sub_large_image1 </text>
<text text-anchor="start" x="172.5336" y="-807.4" font-family="Arial" font-size="14.00" fill="#666666">[text]</text>
<text text-anchor="start" x="202.8786" y="-807.4" font-family="Arial" font-size="14.00" fill="#000000"> サブ拡大画像1</text>
<polygon fill="none" stroke="#000000" points="46.5,-766 46.5,-796 387.5,-796 387.5,-766 46.5,-766"/>
<text text-anchor="start" x="53.5" y="-777.4" font-family="Arial" font-size="14.00" fill="#000000">sub_title2 </text>
<text text-anchor="start" x="117.298" y="-777.4" font-family="Arial" font-size="14.00" fill="#666666">[text]</text>
<text text-anchor="start" x="147.643" y="-777.4" font-family="Arial" font-size="14.00" fill="#000000"> サブタイトル2</text>
<polygon fill="none" stroke="#000000" points="46.5,-736 46.5,-766 387.5,-766 387.5,-736 46.5,-736"/>
<text text-anchor="start" x="53.5" y="-747.4" font-family="Arial" font-size="14.00" fill="#000000">sub_comment2 </text>
<text text-anchor="start" x="153.0806" y="-747.4" font-family="Arial" font-size="14.00" fill="#666666">[text]</text>
<text text-anchor="start" x="183.4256" y="-747.4" font-family="Arial" font-size="14.00" fill="#000000"> サブコメント2</text>
<polygon fill="none" stroke="#000000" points="46.5,-706 46.5,-736 387.5,-736 387.5,-706 46.5,-706"/>
<text text-anchor="start" x="53.5" y="-717.4" font-family="Arial" font-size="14.00" fill="#000000">sub_image2 </text>
<text text-anchor="start" x="133.636" y="-717.4" font-family="Arial" font-size="14.00" fill="#666666">[text]</text>
<text text-anchor="start" x="163.981" y="-717.4" font-family="Arial" font-size="14.00" fill="#000000"> サブ画像2</text>
<polygon fill="none" stroke="#000000" points="46.5,-676 46.5,-706 387.5,-706 387.5,-676 46.5,-676"/>
<text text-anchor="start" x="53.5" y="-687.4" font-family="Arial" font-size="14.00" fill="#000000">sub_large_image2 </text>
<text text-anchor="start" x="172.5336" y="-687.4" font-family="Arial" font-size="14.00" fill="#666666">[text]</text>
<text text-anchor="start" x="202.8786" y="-687.4" font-family="Arial" font-size="14.00" fill="#000000"> サブ拡大画像2</text>
<polygon fill="none" stroke="#000000" points="46.5,-646 46.5,-676 387.5,-676 387.5,-646 46.5,-646"/>
<text text-anchor="start" x="53.5" y="-657.4" font-family="Arial" font-size="14.00" fill="#000000">sub_title3 </text>
<text text-anchor="start" x="117.298" y="-657.4" font-family="Arial" font-size="14.00" fill="#666666">[text]</text>
<text text-anchor="start" x="147.643" y="-657.4" font-family="Arial" font-size="14.00" fill="#000000"> サブタイトル3</text>
<polygon fill="none" stroke="#000000" points="46.5,-616 46.5,-646 387.5,-646 387.5,-616 46.5,-616"/>
<text text-anchor="start" x="53.5" y="-627.4" font-family="Arial" font-size="14.00" fill="#000000">sub_comment3 </text>
<text text-anchor="start" x="153.0806" y="-627.4" font-family="Arial" font-size="14.00" fill="#666666">[text]</text>
<text text-anchor="start" x="183.4256" y="-627.4" font-family="Arial" font-size="14.00" fill="#000000"> サブコメント3</text>
<polygon fill="none" stroke="#000000" points="46.5,-586 46.5,-616 387.5,-616 387.5,-586 46.5,-586"/>
<text text-anchor="start" x="53.5" y="-597.4" font-family="Arial" font-size="14.00" fill="#000000">sub_image3 </text>
<text text-anchor="start" x="133.636" y="-597.4" font-family="Arial" font-size="14.00" fill="#666666">[text]</text>
<text text-anchor="start" x="163.981" y="-597.4" font-family="Arial" font-size="14.00" fill="#000000"> サブ画像3</text>
<polygon fill="none" stroke="#000000" points="46.5,-556 46.5,-586 387.5,-586 387.5,-556 46.5,-556"/>
<text text-anchor="start" x="53.5" y="-567.4" font-family="Arial" font-size="14.00" fill="#000000">sub_large_image3 </text>
<text text-anchor="start" x="172.5336" y="-567.4" font-family="Arial" font-size="14.00" fill="#666666">[text]</text>
<text text-anchor="start" x="202.8786" y="-567.4" font-family="Arial" font-size="14.00" fill="#000000"> サブ拡大画像3</text>
<polygon fill="none" stroke="#000000" points="46.5,-526 46.5,-556 387.5,-556 387.5,-526 46.5,-526"/>
<text text-anchor="start" x="53.5" y="-537.4" font-family="Arial" font-size="14.00" fill="#000000">sub_title4 </text>
<text text-anchor="start" x="117.298" y="-537.4" font-family="Arial" font-size="14.00" fill="#666666">[text]</text>
<text text-anchor="start" x="147.643" y="-537.4" font-family="Arial" font-size="14.00" fill="#000000"> サブタイトル4</text>
<polygon fill="none" stroke="#000000" points="46.5,-496 46.5,-526 387.5,-526 387.5,-496 46.5,-496"/>
<text text-anchor="start" x="53.5" y="-507.4" font-family="Arial" font-size="14.00" fill="#000000">sub_comment4 </text>
<text text-anchor="start" x="153.0806" y="-507.4" font-family="Arial" font-size="14.00" fill="#666666">[text]</text>
<text text-anchor="start" x="183.4256" y="-507.4" font-family="Arial" font-size="14.00" fill="#000000"> サブコメント4</text>
<polygon fill="none" stroke="#000000" points="46.5,-466 46.5,-496 387.5,-496 387.5,-466 46.5,-466"/>
<text text-anchor="start" x="53.5" y="-477.4" font-family="Arial" font-size="14.00" fill="#000000">sub_image4 </text>
<text text-anchor="start" x="133.636" y="-477.4" font-family="Arial" font-size="14.00" fill="#666666">[text]</text>
<text text-anchor="start" x="163.981" y="-477.4" font-family="Arial" font-size="14.00" fill="#000000"> サブ画像4</text>
<polygon fill="none" stroke="#000000" points="46.5,-436 46.5,-466 387.5,-466 387.5,-436 46.5,-436"/>
<text text-anchor="start" x="53.5" y="-447.4" font-family="Arial" font-size="14.00" fill="#000000">sub_large_image4 </text>
<text text-anchor="start" x="172.5336" y="-447.4" font-family="Arial" font-size="14.00" fill="#666666">[text]</text>
<text text-anchor="start" x="202.8786" y="-447.4" font-family="Arial" font-size="14.00" fill="#000000"> サブ拡大画像4</text>
<polygon fill="none" stroke="#000000" points="46.5,-406 46.5,-436 387.5,-436 387.5,-406 46.5,-406"/>
<text text-anchor="start" x="53.5" y="-417.4" font-family="Arial" font-size="14.00" fill="#000000">sub_title5 </text>
<text text-anchor="start" x="117.298" y="-417.4" font-family="Arial" font-size="14.00" fill="#666666">[text]</text>
<text text-anchor="start" x="147.643" y="-417.4" font-family="Arial" font-size="14.00" fill="#000000"> サブタイトル5</text>
<polygon fill="none" stroke="#000000" points="46.5,-376 46.5,-406 387.5,-406 387.5,-376 46.5,-376"/>
<text text-anchor="start" x="53.5" y="-387.4" font-family="Arial" font-size="14.00" fill="#000000">sub_comment5 </text>
<text text-anchor="start" x="153.0806" y="-387.4" font-family="Arial" font-size="14.00" fill="#666666">[text]</text>
<text text-anchor="start" x="183.4256" y="-387.4" font-family="Arial" font-size="14.00" fill="#000000"> サブコメント5</text>
<polygon fill="none" stroke="#000000" points="46.5,-346 46.5,-376 387.5,-376 387.5,-346 46.5,-346"/>
<text text-anchor="start" x="53.5" y="-357.4" font-family="Arial" font-size="14.00" fill="#000000">sub_image5 </text>
<text text-anchor="start" x="133.636" y="-357.4" font-family="Arial" font-size="14.00" fill="#666666">[text]</text>
<text text-anchor="start" x="163.981" y="-357.4" font-family="Arial" font-size="14.00" fill="#000000"> サブ画像5</text>
<polygon fill="none" stroke="#000000" points="46.5,-316 46.5,-346 387.5,-346 387.5,-316 46.5,-316"/>
<text text-anchor="start" x="53.5" y="-327.4" font-family="Arial" font-size="14.00" fill="#000000">sub_large_image5 </text>
<text text-anchor="start" x="172.5336" y="-327.4" font-family="Arial" font-size="14.00" fill="#666666">[text]</text>
<text text-anchor="start" x="202.8786" y="-327.4" font-family="Arial" font-size="14.00" fill="#000000"> サブ拡大画像5</text>
<polygon fill="none" stroke="#000000" points="46.5,-286 46.5,-316 387.5,-316 387.5,-286 46.5,-286"/>
<text text-anchor="start" x="53.5" y="-297.4" font-family="Arial" font-size="14.00" fill="#000000">sub_title6 </text>
<text text-anchor="start" x="117.298" y="-297.4" font-family="Arial" font-size="14.00" fill="#666666">[text]</text>
<text text-anchor="start" x="147.643" y="-297.4" font-family="Arial" font-size="14.00" fill="#000000"> サブタイトル6</text>
<polygon fill="none" stroke="#000000" points="46.5,-256 46.5,-286 387.5,-286 387.5,-256 46.5,-256"/>
<text text-anchor="start" x="53.5" y="-267.4" font-family="Arial" font-size="14.00" fill="#000000">sub_comment6 </text>
<text text-anchor="start" x="153.0806" y="-267.4" font-family="Arial" font-size="14.00" fill="#666666">[text]</text>
<text text-anchor="start" x="183.4256" y="-267.4" font-family="Arial" font-size="14.00" fill="#000000"> サブコメント6</text>
<polygon fill="none" stroke="#000000" points="46.5,-226 46.5,-256 387.5,-256 387.5,-226 46.5,-226"/>
<text text-anchor="start" x="53.5" y="-237.4" font-family="Arial" font-size="14.00" fill="#000000">sub_image6 </text>
<text text-anchor="start" x="133.636" y="-237.4" font-family="Arial" font-size="14.00" fill="#666666">[text]</text>
<text text-anchor="start" x="163.981" y="-237.4" font-family="Arial" font-size="14.00" fill="#000000"> サブ画像6</text>
<polygon fill="none" stroke="#000000" points="46.5,-196 46.5,-226 387.5,-226 387.5,-196 46.5,-196"/>
<text text-anchor="start" x="53.5" y="-207.4" font-family="Arial" font-size="14.00" fill="#000000">sub_large_image6 </text>
<text text-anchor="start" x="172.5336" y="-207.4" font-family="Arial" font-size="14.00" fill="#666666">[text]</text>
<text text-anchor="start" x="202.8786" y="-207.4" font-family="Arial" font-size="14.00" fill="#000000"> サブ拡大画像6</text>
<polygon fill="none" stroke="#000000" points="46.5,-166 46.5,-196 387.5,-196 387.5,-166 46.5,-166"/>
<text text-anchor="start" x="53.5" y="-177.4" font-family="Arial" font-size="14.00" fill="#000000">del_flg </text>
<text text-anchor="start" x="98.6248" y="-177.4" font-family="Arial" font-size="14.00" fill="#666666">[smallint]</text>
<text text-anchor="start" x="153.8422" y="-177.4" font-family="Arial" font-size="14.00" fill="#000000"> 削除フラグ</text>
<polygon fill="none" stroke="#000000" points="46.5,-136 46.5,-166 387.5,-166 387.5,-136 46.5,-136"/>
<text text-anchor="start" x="53.5" y="-147.4" font-family="Arial" font-size="14.00" fill="#000000">creator_id </text>
<text text-anchor="start" x="119.622" y="-147.4" font-family="Arial" font-size="14.00" fill="#666666">[integer]</text>
<text text-anchor="start" x="170.1914" y="-147.4" font-family="Arial" font-size="14.00" fill="#000000"> 作成者ID</text>
<polygon fill="none" stroke="#000000" points="46.5,-106 46.5,-136 387.5,-136 387.5,-106 46.5,-106"/>
<text text-anchor="start" x="53.235" y="-117.4" font-family="Arial" font-size="14.00" fill="#000000">create_date </text>
<text text-anchor="start" x="131.0456" y="-117.4" font-family="Arial" font-size="14.00" fill="#666666">[timestamp without time zone]</text>
<text text-anchor="start" x="316.1858" y="-117.4" font-family="Arial" font-size="14.00" fill="#000000"> 作成日時</text>
<polygon fill="none" stroke="#000000" points="46.5,-76 46.5,-106 387.5,-106 387.5,-76 46.5,-76"/>
<text text-anchor="start" x="53.5" y="-87.4" font-family="Arial" font-size="14.00" fill="#000000">update_date </text>
<text text-anchor="start" x="135.2152" y="-87.4" font-family="Arial" font-size="14.00" fill="#666666">[timestamp without time zone]</text>
<text text-anchor="start" x="320.3554" y="-87.4" font-family="Arial" font-size="14.00" fill="#000000"> 更新日時</text>
<polygon fill="none" stroke="#000000" points="46.5,-46 46.5,-76 387.5,-76 387.5,-46 46.5,-46"/>
<text text-anchor="start" x="53.5" y="-57.4" font-family="Arial" font-size="14.00" fill="#000000">deliv_date_id </text>
<text text-anchor="start" x="139.8618" y="-57.4" font-family="Arial" font-size="14.00" fill="#666666">[integer]</text>
<text text-anchor="start" x="190.4312" y="-57.4" font-family="Arial" font-size="14.00" fill="#000000"> 発送日目安</text>
<polygon fill="none" stroke="#000000" stroke-width="3" points="44.5,-44.5 44.5,-1443.5 388.5,-1443.5 388.5,-44.5 44.5,-44.5"/>
</g>
</g>
</svg>
