<?xml version="1.0" encoding="UTF-8" standalone="no"?>
<!DOCTYPE svg PUBLIC "-//W3C//DTD SVG 1.1//EN"
 "http://www.w3.org/Graphics/SVG/1.1/DTD/svg11.dtd">
<!-- Generated by graphviz version 2.40.1 (20161225.0304)
 -->
<!-- Title: public.dtb_module_update_logs Pages: 1 -->
<svg width="516pt" height="794pt"
 viewBox="0.00 0.00 515.50 794.00" xmlns="http://www.w3.org/2000/svg" xmlns:xlink="http://www.w3.org/1999/xlink">
<g id="graph0" class="graph" transform="scale(1 1) rotate(0) translate(4 790)">
<title>public.dtb_module_update_logs</title>
<polygon fill="#ffffff" stroke="transparent" points="-4,4 -4,-790 511.5,-790 511.5,4 -4,4"/>
<!-- public.dtb_module_update_logs -->
<g id="node1" class="node">
<title>public.dtb_module_update_logs</title>
<polygon fill="#efefef" stroke="transparent" points="97,-694 97,-740 462,-740 462,-694 97,-694"/>
<polygon fill="none" stroke="#000000" points="97,-694 97,-740 462,-740 462,-694 97,-694"/>
<text text-anchor="start" x="103.8264" y="-717.8" font-family="Arial Bold" font-size="18.00" fill="#000000">public.dtb_module_update_logs</text>
<text text-anchor="start" x="357.9198" y="-717.8" font-family="Arial" font-size="14.00" fill="#000000"> </text>
<text text-anchor="start" x="361.8104" y="-717.8" font-family="Arial" font-size="14.00" fill="#666666">[BASE TABLE]</text>
<text text-anchor="start" x="197.9654" y="-703.4" font-family="Arial" font-size="14.00" fill="#333333">モジュール更新ログ情報</text>
<polygon fill="none" stroke="#000000" points="97,-664 97,-694 462,-694 462,-664 97,-664"/>
<text text-anchor="start" x="104" y="-675.4" font-family="Arial" font-size="14.00" fill="#000000">log_id </text>
<text text-anchor="start" x="145.2342" y="-675.4" font-family="Arial" font-size="14.00" fill="#666666">[integer]</text>
<text text-anchor="start" x="195.8036" y="-675.4" font-family="Arial" font-size="14.00" fill="#000000"> ログID</text>
<polygon fill="none" stroke="#000000" points="97,-634 97,-664 462,-664 462,-634 97,-634"/>
<text text-anchor="start" x="104" y="-645.4" font-family="Arial" font-size="14.00" fill="#000000">module_id </text>
<text text-anchor="start" x="172.46" y="-645.4" font-family="Arial" font-size="14.00" fill="#666666">[integer]</text>
<text text-anchor="start" x="223.0294" y="-645.4" font-family="Arial" font-size="14.00" fill="#000000"> モジュールID</text>
<polygon fill="none" stroke="#000000" points="97,-604 97,-634 462,-634 462,-604 97,-604"/>
<text text-anchor="start" x="104" y="-615.4" font-family="Arial" font-size="14.00" fill="#000000">buckup_path </text>
<text text-anchor="start" x="188.042" y="-615.4" font-family="Arial" font-size="14.00" fill="#666666">[text]</text>
<text text-anchor="start" x="218.387" y="-615.4" font-family="Arial" font-size="14.00" fill="#000000"> バックアップパス</text>
<polygon fill="none" stroke="#000000" points="97,-574 97,-604 462,-604 462,-574 97,-574"/>
<text text-anchor="start" x="104" y="-585.4" font-family="Arial" font-size="14.00" fill="#000000">error_flg </text>
<text text-anchor="start" x="160" y="-585.4" font-family="Arial" font-size="14.00" fill="#666666">[smallint]</text>
<text text-anchor="start" x="215.2174" y="-585.4" font-family="Arial" font-size="14.00" fill="#000000"> エラーフラグ</text>
<polygon fill="none" stroke="#000000" points="97,-544 97,-574 462,-574 462,-544 97,-544"/>
<text text-anchor="start" x="104" y="-555.4" font-family="Arial" font-size="14.00" fill="#000000">error </text>
<text text-anchor="start" x="137.4376" y="-555.4" font-family="Arial" font-size="14.00" fill="#666666">[text]</text>
<text text-anchor="start" x="167.7826" y="-555.4" font-family="Arial" font-size="14.00" fill="#000000"> エラーメッセージ</text>
<polygon fill="none" stroke="#000000" points="97,-514 97,-544 462,-544 462,-514 97,-514"/>
<text text-anchor="start" x="104" y="-525.4" font-family="Arial" font-size="14.00" fill="#000000">ok </text>
<text text-anchor="start" x="122.6732" y="-525.4" font-family="Arial" font-size="14.00" fill="#666666">[text]</text>
<text text-anchor="start" x="153.0182" y="-525.4" font-family="Arial" font-size="14.00" fill="#000000"> 正常終了メッセージ</text>
<polygon fill="none" stroke="#000000" points="97,-484 97,-514 462,-514 462,-484 97,-484"/>
<text text-anchor="start" x="104" y="-495.4" font-family="Arial" font-size="14.00" fill="#000000">create_date </text>
<text text-anchor="start" x="181.8106" y="-495.4" font-family="Arial" font-size="14.00" fill="#666666">[timestamp without time zone]</text>
<text text-anchor="start" x="366.9508" y="-495.4" font-family="Arial" font-size="14.00" fill="#000000"> 作成日時</text>
<polygon fill="none" stroke="#000000" points="97,-454 97,-484 462,-484 462,-454 97,-454"/>
<text text-anchor="start" x="104" y="-465.4" font-family="Arial" font-size="14.00" fill="#000000">update_date </text>
<text text-anchor="start" x="185.7152" y="-465.4" font-family="Arial" font-size="14.00" fill="#666666">[timestamp without time zone]</text>
<text text-anchor="start" x="370.8554" y="-465.4" font-family="Arial" font-size="14.00" fill="#000000"> 更新日時</text>
<polygon fill="none" stroke="#000000" stroke-width="3" points="95,-452.5 95,-741.5 463,-741.5 463,-452.5 95,-452.5"/>
</g>
<!-- public.dtb_module -->
<g id="node2" class="node">
<title>public.dtb_module</title>
<polygon fill="#efefef" stroke="transparent" points="109,-283 109,-329 450,-329 450,-283 109,-283"/>
<polygon fill="none" stroke="#000000" points="109,-283 109,-329 450,-329 450,-283 109,-283"/>
<text text-anchor="start" x="157.8525" y="-306.8" font-family="Arial Bold" font-size="18.00" fill="#000000">public.dtb_module</text>
<text text-anchor="start" x="303.8937" y="-306.8" font-family="Arial" font-size="14.00" fill="#000000"> </text>
<text text-anchor="start" x="307.7843" y="-306.8" font-family="Arial" font-size="14.00" fill="#666666">[BASE TABLE]</text>
<text text-anchor="start" x="222.982" y="-292.4" font-family="Arial" font-size="14.00" fill="#333333">モジュール情報</text>
<polygon fill="none" stroke="#000000" points="109,-253 109,-283 450,-283 450,-253 109,-253"/>
<text text-anchor="start" x="116" y="-264.4" font-family="Arial" font-size="14.00" fill="#000000">module_id </text>
<text text-anchor="start" x="184.46" y="-264.4" font-family="Arial" font-size="14.00" fill="#666666">[integer]</text>
<text text-anchor="start" x="235.0294" y="-264.4" font-family="Arial" font-size="14.00" fill="#000000"> モジュールID</text>
<polygon fill="none" stroke="#000000" points="109,-223 109,-253 450,-253 450,-223 109,-223"/>
<text text-anchor="start" x="116" y="-234.4" font-family="Arial" font-size="14.00" fill="#000000">module_code </text>
<text text-anchor="start" x="203.9186" y="-234.4" font-family="Arial" font-size="14.00" fill="#666666">[text]</text>
<text text-anchor="start" x="234.2636" y="-234.4" font-family="Arial" font-size="14.00" fill="#000000"> モジュールコード</text>
<polygon fill="none" stroke="#000000" points="109,-193 109,-223 450,-223 450,-193 109,-193"/>
<text text-anchor="start" x="116" y="-204.4" font-family="Arial" font-size="14.00" fill="#000000">module_name </text>
<text text-anchor="start" x="208.5792" y="-204.4" font-family="Arial" font-size="14.00" fill="#666666">[text]</text>
<text text-anchor="start" x="238.9242" y="-204.4" font-family="Arial" font-size="14.00" fill="#000000"> モジュール名</text>
<polygon fill="none" stroke="#000000" points="109,-163 109,-193 450,-193 450,-163 109,-163"/>
<text text-anchor="start" x="116" y="-174.4" font-family="Arial" font-size="14.00" fill="#000000">sub_data </text>
<text text-anchor="start" x="177.4768" y="-174.4" font-family="Arial" font-size="14.00" fill="#666666">[text]</text>
<text text-anchor="start" x="207.8218" y="-174.4" font-family="Arial" font-size="14.00" fill="#000000"> データ</text>
<polygon fill="none" stroke="#000000" points="109,-133 109,-163 450,-163 450,-133 109,-133"/>
<text text-anchor="start" x="116" y="-144.4" font-family="Arial" font-size="14.00" fill="#000000">auto_update_flg </text>
<text text-anchor="start" x="220.2776" y="-144.4" font-family="Arial" font-size="14.00" fill="#666666">[smallint]</text>
<text text-anchor="start" x="275.495" y="-144.4" font-family="Arial" font-size="14.00" fill="#000000"> 自動更新フラグ</text>
<polygon fill="none" stroke="#000000" points="109,-103 109,-133 450,-133 450,-103 109,-103"/>
<text text-anchor="start" x="116" y="-114.4" font-family="Arial" font-size="14.00" fill="#000000">del_flg </text>
<text text-anchor="start" x="161.1248" y="-114.4" font-family="Arial" font-size="14.00" fill="#666666">[smallint]</text>
<text text-anchor="start" x="216.3422" y="-114.4" font-family="Arial" font-size="14.00" fill="#000000"> 削除フラグ</text>
<polygon fill="none" stroke="#000000" points="109,-73 109,-103 450,-103 450,-73 109,-73"/>
<text text-anchor="start" x="115.735" y="-84.4" font-family="Arial" font-size="14.00" fill="#000000">create_date </text>
<text text-anchor="start" x="193.5456" y="-84.4" font-family="Arial" font-size="14.00" fill="#666666">[timestamp without time zone]</text>
<text text-anchor="start" x="378.6858" y="-84.4" font-family="Arial" font-size="14.00" fill="#000000"> 作成日時</text>
<polygon fill="none" stroke="#000000" points="109,-43 109,-73 450,-73 450,-43 109,-43"/>
<text text-anchor="start" x="116" y="-54.4" font-family="Arial" font-size="14.00" fill="#000000">update_date </text>
<text text-anchor="start" x="197.7152" y="-54.4" font-family="Arial" font-size="14.00" fill="#666666">[timestamp without time zone]</text>
<text text-anchor="start" x="382.8554" y="-54.4" font-family="Arial" font-size="14.00" fill="#000000"> 更新日時</text>
</g>
<!-- public.dtb_module_update_logs&#45;&gt;public.dtb_module -->
<g id="edge1" class="edge">
<title>public.dtb_module_update_logs:module_id&#45;&gt;public.dtb_module:module_id</title>
<path fill="none" stroke="#000000" stroke-dasharray="5,2" d="M87.0633,-647.1297C13.398,-618.387 27.7657,-268 109,-268"/>
<polygon fill="#000000" stroke="#000000" points="87.1726,-647.1502 96.1676,-653.4223 92.0863,-648.0751 97,-649 97,-649 97,-649 92.0863,-648.0751 97.8324,-644.5777 87.1726,-647.1502 87.1726,-647.1502"/>
<text text-anchor="start" x="7.3245" y="-659" font-family="Arial" font-size="10.00" fill="#000000">Additional Relation</text>
</g>
</g>
</svg>
