<?xml version="1.0" encoding="UTF-8" standalone="no"?>
<!DOCTYPE svg PUBLIC "-//W3C//DTD SVG 1.1//EN"
 "http://www.w3.org/Graphics/SVG/1.1/DTD/svg11.dtd">
<!-- Generated by graphviz version 2.40.1 (20161225.0304)
 -->
<!-- Title: public.dtb_payment_options Pages: 1 -->
<svg width="435pt" height="236pt"
 viewBox="0.00 0.00 435.00 236.00" xmlns="http://www.w3.org/2000/svg" xmlns:xlink="http://www.w3.org/1999/xlink">
<g id="graph0" class="graph" transform="scale(1 1) rotate(0) translate(4 232)">
<title>public.dtb_payment_options</title>
<polygon fill="#ffffff" stroke="transparent" points="-4,4 -4,-232 431,-232 431,4 -4,4"/>
<!-- public.dtb_payment_options -->
<g id="node1" class="node">
<title>public.dtb_payment_options</title>
<polygon fill="#efefef" stroke="transparent" points="46.5,-136 46.5,-182 381.5,-182 381.5,-136 46.5,-136"/>
<polygon fill="none" stroke="#000000" points="46.5,-136 46.5,-182 381.5,-182 381.5,-136 46.5,-136"/>
<text text-anchor="start" x="53.3348" y="-159.8" font-family="Arial Bold" font-size="18.00" fill="#000000">public.dtb_payment_options</text>
<text text-anchor="start" x="277.4114" y="-159.8" font-family="Arial" font-size="14.00" fill="#000000"> </text>
<text text-anchor="start" x="281.302" y="-159.8" font-family="Arial" font-size="14.00" fill="#666666">[BASE TABLE]</text>
<text text-anchor="start" x="162.648" y="-145.4" font-family="Arial" font-size="14.00" fill="#333333">支払選択肢情報</text>
<polygon fill="none" stroke="#000000" points="46.5,-106 46.5,-136 381.5,-136 381.5,-106 46.5,-106"/>
<text text-anchor="start" x="53.5" y="-117.4" font-family="Arial" font-size="14.00" fill="#000000">deliv_id </text>
<text text-anchor="start" x="104.8408" y="-117.4" font-family="Arial" font-size="14.00" fill="#666666">[integer]</text>
<text text-anchor="start" x="155.4102" y="-117.4" font-family="Arial" font-size="14.00" fill="#000000"> 配送業者ID</text>
<polygon fill="none" stroke="#000000" points="46.5,-76 46.5,-106 381.5,-106 381.5,-76 46.5,-76"/>
<text text-anchor="start" x="53.5" y="-87.4" font-family="Arial" font-size="14.00" fill="#000000">payment_id </text>
<text text-anchor="start" x="129.744" y="-87.4" font-family="Arial" font-size="14.00" fill="#666666">[integer]</text>
<text text-anchor="start" x="180.3134" y="-87.4" font-family="Arial" font-size="14.00" fill="#000000"> 支払方法ID</text>
<polygon fill="none" stroke="#000000" points="46.5,-46 46.5,-76 381.5,-76 381.5,-46 46.5,-46"/>
<text text-anchor="start" x="53.5" y="-57.4" font-family="Arial" font-size="14.00" fill="#000000">rank </text>
<text text-anchor="start" x="84.6164" y="-57.4" font-family="Arial" font-size="14.00" fill="#666666">[integer]</text>
<text text-anchor="start" x="135.1858" y="-57.4" font-family="Arial" font-size="14.00" fill="#000000"> 表示順</text>
<polygon fill="none" stroke="#000000" stroke-width="3" points="44.5,-44.5 44.5,-183.5 382.5,-183.5 382.5,-44.5 44.5,-44.5"/>
</g>
</g>
</svg>
