<?xml version="1.0" encoding="UTF-8" standalone="no"?>
<!DOCTYPE svg PUBLIC "-//W3C//DTD SVG 1.1//EN"
 "http://www.w3.org/Graphics/SVG/1.1/DTD/svg11.dtd">
<!-- Generated by graphviz version 2.40.1 (20161225.0304)
 -->
<!-- Title: public.dtb_mailmaga_template Pages: 1 -->
<svg width="455pt" height="386pt"
 viewBox="0.00 0.00 455.00 386.00" xmlns="http://www.w3.org/2000/svg" xmlns:xlink="http://www.w3.org/1999/xlink">
<g id="graph0" class="graph" transform="scale(1 1) rotate(0) translate(4 382)">
<title>public.dtb_mailmaga_template</title>
<polygon fill="#ffffff" stroke="transparent" points="-4,4 -4,-382 451,-382 451,4 -4,4"/>
<!-- public.dtb_mailmaga_template -->
<g id="node1" class="node">
<title>public.dtb_mailmaga_template</title>
<polygon fill="#efefef" stroke="transparent" points="46.5,-286 46.5,-332 401.5,-332 401.5,-286 46.5,-286"/>
<polygon fill="none" stroke="#000000" points="46.5,-286 46.5,-332 401.5,-332 401.5,-286 46.5,-286"/>
<text text-anchor="start" x="53.3484" y="-309.8" font-family="Arial Bold" font-size="18.00" fill="#000000">public.dtb_mailmaga_template</text>
<text text-anchor="start" x="297.3978" y="-309.8" font-family="Arial" font-size="14.00" fill="#000000"> </text>
<text text-anchor="start" x="301.2884" y="-309.8" font-family="Arial" font-size="14.00" fill="#666666">[BASE TABLE]</text>
<text text-anchor="start" x="135.4815" y="-295.4" font-family="Arial" font-size="14.00" fill="#333333">メルマガテンプレート情報</text>
<polygon fill="none" stroke="#000000" points="46.5,-256 46.5,-286 401.5,-286 401.5,-256 46.5,-256"/>
<text text-anchor="start" x="53.5" y="-267.4" font-family="Arial" font-size="14.00" fill="#000000">template_id </text>
<text text-anchor="start" x="129.7412" y="-267.4" font-family="Arial" font-size="14.00" fill="#666666">[integer]</text>
<text text-anchor="start" x="180.3106" y="-267.4" font-family="Arial" font-size="14.00" fill="#000000"> テンプレートID</text>
<polygon fill="none" stroke="#000000" points="46.5,-226 46.5,-256 401.5,-256 401.5,-226 46.5,-226"/>
<text text-anchor="start" x="53.5" y="-237.4" font-family="Arial" font-size="14.00" fill="#000000">subject </text>
<text text-anchor="start" x="101.7356" y="-237.4" font-family="Arial" font-size="14.00" fill="#666666">[text]</text>
<text text-anchor="start" x="132.0806" y="-237.4" font-family="Arial" font-size="14.00" fill="#000000"> 件名</text>
<polygon fill="none" stroke="#000000" points="46.5,-196 46.5,-226 401.5,-226 401.5,-196 46.5,-196"/>
<text text-anchor="start" x="53.5" y="-207.4" font-family="Arial" font-size="14.00" fill="#000000">mail_method </text>
<text text-anchor="start" x="137.5112" y="-207.4" font-family="Arial" font-size="14.00" fill="#666666">[integer]</text>
<text text-anchor="start" x="188.0806" y="-207.4" font-family="Arial" font-size="14.00" fill="#000000"> メール送信方法</text>
<polygon fill="none" stroke="#000000" points="46.5,-166 46.5,-196 401.5,-196 401.5,-166 46.5,-166"/>
<text text-anchor="start" x="53.5" y="-177.4" font-family="Arial" font-size="14.00" fill="#000000">body </text>
<text text-anchor="start" x="87.7384" y="-177.4" font-family="Arial" font-size="14.00" fill="#666666">[text]</text>
<text text-anchor="start" x="118.0834" y="-177.4" font-family="Arial" font-size="14.00" fill="#000000"> 本文</text>
<polygon fill="none" stroke="#000000" points="46.5,-136 46.5,-166 401.5,-166 401.5,-136 46.5,-136"/>
<text text-anchor="start" x="53.5" y="-147.4" font-family="Arial" font-size="14.00" fill="#000000">del_flg </text>
<text text-anchor="start" x="98.6248" y="-147.4" font-family="Arial" font-size="14.00" fill="#666666">[smallint]</text>
<text text-anchor="start" x="153.8422" y="-147.4" font-family="Arial" font-size="14.00" fill="#000000"> 削除フラグ</text>
<polygon fill="none" stroke="#000000" points="46.5,-106 46.5,-136 401.5,-136 401.5,-106 46.5,-106"/>
<text text-anchor="start" x="53.5" y="-117.4" font-family="Arial" font-size="14.00" fill="#000000">creator_id </text>
<text text-anchor="start" x="119.622" y="-117.4" font-family="Arial" font-size="14.00" fill="#666666">[integer]</text>
<text text-anchor="start" x="170.1914" y="-117.4" font-family="Arial" font-size="14.00" fill="#000000"> 作成者ID</text>
<polygon fill="none" stroke="#000000" points="46.5,-76 46.5,-106 401.5,-106 401.5,-76 46.5,-76"/>
<text text-anchor="start" x="53.5" y="-87.4" font-family="Arial" font-size="14.00" fill="#000000">create_date </text>
<text text-anchor="start" x="131.3106" y="-87.4" font-family="Arial" font-size="14.00" fill="#666666">[timestamp without time zone]</text>
<text text-anchor="start" x="316.4508" y="-87.4" font-family="Arial" font-size="14.00" fill="#000000"> 作成日時</text>
<polygon fill="none" stroke="#000000" points="46.5,-46 46.5,-76 401.5,-76 401.5,-46 46.5,-46"/>
<text text-anchor="start" x="53.5" y="-57.4" font-family="Arial" font-size="14.00" fill="#000000">update_date </text>
<text text-anchor="start" x="135.2152" y="-57.4" font-family="Arial" font-size="14.00" fill="#666666">[timestamp without time zone]</text>
<text text-anchor="start" x="320.3554" y="-57.4" font-family="Arial" font-size="14.00" fill="#000000"> 更新日時</text>
<polygon fill="none" stroke="#000000" stroke-width="3" points="44.5,-44.5 44.5,-333.5 402.5,-333.5 402.5,-44.5 44.5,-44.5"/>
</g>
</g>
</svg>
