<?xml version="1.0" encoding="UTF-8" standalone="no"?>
<!DOCTYPE svg PUBLIC "-//W3C//DTD SVG 1.1//EN"
 "http://www.w3.org/Graphics/SVG/1.1/DTD/svg11.dtd">
<!-- Generated by graphviz version 2.40.1 (20161225.0304)
 -->
<!-- Title: public.mtb_disp Pages: 1 -->
<svg width="490pt" height="1754pt"
 viewBox="0.00 0.00 489.50 1754.00" xmlns="http://www.w3.org/2000/svg" xmlns:xlink="http://www.w3.org/1999/xlink">
<g id="graph0" class="graph" transform="scale(1 1) rotate(0) translate(4 1750)">
<title>public.mtb_disp</title>
<polygon fill="#ffffff" stroke="transparent" points="-4,4 -4,-1750 485.5,-1750 485.5,4 -4,4"/>
<!-- public.mtb_disp -->
<g id="node1" class="node">
<title>public.mtb_disp</title>
<polygon fill="#efefef" stroke="transparent" points="96.5,-136 96.5,-182 332.5,-182 332.5,-136 96.5,-136"/>
<polygon fill="none" stroke="#000000" points="96.5,-136 96.5,-182 332.5,-182 332.5,-136 96.5,-136"/>
<text text-anchor="start" x="103.3618" y="-159.8" font-family="Arial Bold" font-size="18.00" fill="#000000">public.mtb_disp</text>
<text text-anchor="start" x="228.3844" y="-159.8" font-family="Arial" font-size="14.00" fill="#000000"> </text>
<text text-anchor="start" x="232.275" y="-159.8" font-family="Arial" font-size="14.00" fill="#666666">[BASE TABLE]</text>
<text text-anchor="start" x="180.1125" y="-145.4" font-family="Arial" font-size="14.00" fill="#333333">公開フラグ</text>
<polygon fill="none" stroke="#000000" points="96.5,-106 96.5,-136 332.5,-136 332.5,-106 96.5,-106"/>
<text text-anchor="start" x="103.5" y="-117.4" font-family="Arial" font-size="14.00" fill="#000000">id </text>
<text text-anchor="start" x="118.2798" y="-117.4" font-family="Arial" font-size="14.00" fill="#666666">[smallint]</text>
<text text-anchor="start" x="173.4972" y="-117.4" font-family="Arial" font-size="14.00" fill="#000000"> ID</text>
<polygon fill="none" stroke="#000000" points="96.5,-76 96.5,-106 332.5,-106 332.5,-76 96.5,-76"/>
<text text-anchor="start" x="103.5" y="-87.4" font-family="Arial" font-size="14.00" fill="#000000">name </text>
<text text-anchor="start" x="142.399" y="-87.4" font-family="Arial" font-size="14.00" fill="#666666">[text]</text>
<text text-anchor="start" x="172.744" y="-87.4" font-family="Arial" font-size="14.00" fill="#000000"> 名称</text>
<polygon fill="none" stroke="#000000" points="96.5,-46 96.5,-76 332.5,-76 332.5,-46 96.5,-46"/>
<text text-anchor="start" x="103.5" y="-57.4" font-family="Arial" font-size="14.00" fill="#000000">rank </text>
<text text-anchor="start" x="134.6164" y="-57.4" font-family="Arial" font-size="14.00" fill="#666666">[smallint]</text>
<text text-anchor="start" x="189.8338" y="-57.4" font-family="Arial" font-size="14.00" fill="#000000"> 表示順</text>
<polygon fill="none" stroke="#000000" stroke-width="3" points="95,-44.5 95,-183.5 334,-183.5 334,-44.5 95,-44.5"/>
</g>
<!-- public.dtb_products -->
<g id="node2" class="node">
<title>public.dtb_products</title>
<polygon fill="#efefef" stroke="transparent" points="43.5,-1657 43.5,-1703 384.5,-1703 384.5,-1657 43.5,-1657"/>
<polygon fill="none" stroke="#000000" points="43.5,-1657 43.5,-1703 384.5,-1703 384.5,-1657 43.5,-1657"/>
<text text-anchor="start" x="87.3485" y="-1680.8" font-family="Arial Bold" font-size="18.00" fill="#000000">public.dtb_products</text>
<text text-anchor="start" x="243.3977" y="-1680.8" font-family="Arial" font-size="14.00" fill="#000000"> </text>
<text text-anchor="start" x="247.2883" y="-1680.8" font-family="Arial" font-size="14.00" fill="#666666">[BASE TABLE]</text>
<text text-anchor="start" x="188.7104" y="-1666.4" font-family="Arial" font-size="14.00" fill="#333333">商品情報</text>
<polygon fill="none" stroke="#000000" points="43.5,-1627 43.5,-1657 384.5,-1657 384.5,-1627 43.5,-1627"/>
<text text-anchor="start" x="50.5" y="-1638.4" font-family="Arial" font-size="14.00" fill="#000000">product_id </text>
<text text-anchor="start" x="119.744" y="-1638.4" font-family="Arial" font-size="14.00" fill="#666666">[integer]</text>
<text text-anchor="start" x="170.3134" y="-1638.4" font-family="Arial" font-size="14.00" fill="#000000"> 商品ID</text>
<polygon fill="none" stroke="#000000" points="43.5,-1597 43.5,-1627 384.5,-1627 384.5,-1597 43.5,-1597"/>
<text text-anchor="start" x="50.5" y="-1608.4" font-family="Arial" font-size="14.00" fill="#000000">name </text>
<text text-anchor="start" x="89.399" y="-1608.4" font-family="Arial" font-size="14.00" fill="#666666">[text]</text>
<text text-anchor="start" x="119.744" y="-1608.4" font-family="Arial" font-size="14.00" fill="#000000"> 商品名</text>
<polygon fill="none" stroke="#000000" points="43.5,-1567 43.5,-1597 384.5,-1597 384.5,-1567 43.5,-1567"/>
<text text-anchor="start" x="50.5" y="-1578.4" font-family="Arial" font-size="14.00" fill="#000000">maker_id </text>
<text text-anchor="start" x="111.9488" y="-1578.4" font-family="Arial" font-size="14.00" fill="#666666">[integer]</text>
<text text-anchor="start" x="162.5182" y="-1578.4" font-family="Arial" font-size="14.00" fill="#000000"> メーカーID</text>
<polygon fill="none" stroke="#000000" points="43.5,-1537 43.5,-1567 384.5,-1567 384.5,-1537 43.5,-1537"/>
<text text-anchor="start" x="50.5" y="-1548.4" font-family="Arial" font-size="14.00" fill="#000000">status </text>
<text text-anchor="start" x="91.737" y="-1548.4" font-family="Arial" font-size="14.00" fill="#666666">[smallint]</text>
<text text-anchor="start" x="146.9544" y="-1548.4" font-family="Arial" font-size="14.00" fill="#000000"> 表示ステータス</text>
<polygon fill="none" stroke="#000000" points="43.5,-1507 43.5,-1537 384.5,-1537 384.5,-1507 43.5,-1507"/>
<text text-anchor="start" x="50.5" y="-1518.4" font-family="Arial" font-size="14.00" fill="#000000">comment1 </text>
<text text-anchor="start" x="119.7328" y="-1518.4" font-family="Arial" font-size="14.00" fill="#666666">[text]</text>
<text text-anchor="start" x="150.0778" y="-1518.4" font-family="Arial" font-size="14.00" fill="#000000"> コメント1(メーカーURL)</text>
<polygon fill="none" stroke="#000000" points="43.5,-1477 43.5,-1507 384.5,-1507 384.5,-1477 43.5,-1477"/>
<text text-anchor="start" x="50.5" y="-1488.4" font-family="Arial" font-size="14.00" fill="#000000">comment2 </text>
<text text-anchor="start" x="119.7328" y="-1488.4" font-family="Arial" font-size="14.00" fill="#666666">[text]</text>
<text text-anchor="start" x="150.0778" y="-1488.4" font-family="Arial" font-size="14.00" fill="#000000"> コメント2</text>
<polygon fill="none" stroke="#000000" points="43.5,-1447 43.5,-1477 384.5,-1477 384.5,-1447 43.5,-1447"/>
<text text-anchor="start" x="50.5" y="-1458.4" font-family="Arial" font-size="14.00" fill="#000000">comment3 </text>
<text text-anchor="start" x="119.7328" y="-1458.4" font-family="Arial" font-size="14.00" fill="#666666">[text]</text>
<text text-anchor="start" x="150.0778" y="-1458.4" font-family="Arial" font-size="14.00" fill="#000000"> コメント3(検索ワード)</text>
<polygon fill="none" stroke="#000000" points="43.5,-1417 43.5,-1447 384.5,-1447 384.5,-1417 43.5,-1417"/>
<text text-anchor="start" x="50.5" y="-1428.4" font-family="Arial" font-size="14.00" fill="#000000">comment4 </text>
<text text-anchor="start" x="119.7328" y="-1428.4" font-family="Arial" font-size="14.00" fill="#666666">[text]</text>
<text text-anchor="start" x="150.0778" y="-1428.4" font-family="Arial" font-size="14.00" fill="#000000"> コメント4</text>
<polygon fill="none" stroke="#000000" points="43.5,-1387 43.5,-1417 384.5,-1417 384.5,-1387 43.5,-1387"/>
<text text-anchor="start" x="50.5" y="-1398.4" font-family="Arial" font-size="14.00" fill="#000000">comment5 </text>
<text text-anchor="start" x="119.7328" y="-1398.4" font-family="Arial" font-size="14.00" fill="#666666">[text]</text>
<text text-anchor="start" x="150.0778" y="-1398.4" font-family="Arial" font-size="14.00" fill="#000000"> コメント5</text>
<polygon fill="none" stroke="#000000" points="43.5,-1357 43.5,-1387 384.5,-1387 384.5,-1357 43.5,-1357"/>
<text text-anchor="start" x="50.5" y="-1368.4" font-family="Arial" font-size="14.00" fill="#000000">comment6 </text>
<text text-anchor="start" x="119.7328" y="-1368.4" font-family="Arial" font-size="14.00" fill="#666666">[text]</text>
<text text-anchor="start" x="150.0778" y="-1368.4" font-family="Arial" font-size="14.00" fill="#000000"> コメント6</text>
<polygon fill="none" stroke="#000000" points="43.5,-1327 43.5,-1357 384.5,-1357 384.5,-1327 43.5,-1327"/>
<text text-anchor="start" x="50.5" y="-1338.4" font-family="Arial" font-size="14.00" fill="#000000">note </text>
<text text-anchor="start" x="81.629" y="-1338.4" font-family="Arial" font-size="14.00" fill="#666666">[text]</text>
<text text-anchor="start" x="111.974" y="-1338.4" font-family="Arial" font-size="14.00" fill="#000000"> 備考</text>
<polygon fill="none" stroke="#000000" points="43.5,-1297 43.5,-1327 384.5,-1327 384.5,-1297 43.5,-1297"/>
<text text-anchor="start" x="50.5" y="-1308.4" font-family="Arial" font-size="14.00" fill="#000000">main_list_comment </text>
<text text-anchor="start" x="174.9516" y="-1308.4" font-family="Arial" font-size="14.00" fill="#666666">[text]</text>
<text text-anchor="start" x="205.2966" y="-1308.4" font-family="Arial" font-size="14.00" fill="#000000"> メイン一覧コメント</text>
<polygon fill="none" stroke="#000000" points="43.5,-1267 43.5,-1297 384.5,-1297 384.5,-1267 43.5,-1267"/>
<text text-anchor="start" x="50.5" y="-1278.4" font-family="Arial" font-size="14.00" fill="#000000">main_list_image </text>
<text text-anchor="start" x="155.507" y="-1278.4" font-family="Arial" font-size="14.00" fill="#666666">[text]</text>
<text text-anchor="start" x="185.852" y="-1278.4" font-family="Arial" font-size="14.00" fill="#000000"> メイン一覧画像</text>
<polygon fill="none" stroke="#000000" points="43.5,-1237 43.5,-1267 384.5,-1267 384.5,-1237 43.5,-1237"/>
<text text-anchor="start" x="50.5" y="-1248.4" font-family="Arial" font-size="14.00" fill="#000000">main_comment </text>
<text text-anchor="start" x="150.0652" y="-1248.4" font-family="Arial" font-size="14.00" fill="#666666">[text]</text>
<text text-anchor="start" x="180.4102" y="-1248.4" font-family="Arial" font-size="14.00" fill="#000000"> メインコメント</text>
<polygon fill="none" stroke="#000000" points="43.5,-1207 43.5,-1237 384.5,-1237 384.5,-1207 43.5,-1207"/>
<text text-anchor="start" x="50.5" y="-1218.4" font-family="Arial" font-size="14.00" fill="#000000">main_image </text>
<text text-anchor="start" x="130.6206" y="-1218.4" font-family="Arial" font-size="14.00" fill="#666666">[text]</text>
<text text-anchor="start" x="160.9656" y="-1218.4" font-family="Arial" font-size="14.00" fill="#000000"> メイン画像</text>
<polygon fill="none" stroke="#000000" points="43.5,-1177 43.5,-1207 384.5,-1207 384.5,-1177 43.5,-1177"/>
<text text-anchor="start" x="50.5" y="-1188.4" font-family="Arial" font-size="14.00" fill="#000000">main_large_image </text>
<text text-anchor="start" x="169.5182" y="-1188.4" font-family="Arial" font-size="14.00" fill="#666666">[text]</text>
<text text-anchor="start" x="199.8632" y="-1188.4" font-family="Arial" font-size="14.00" fill="#000000"> メイン拡大画像</text>
<polygon fill="none" stroke="#000000" points="43.5,-1147 43.5,-1177 384.5,-1177 384.5,-1147 43.5,-1147"/>
<text text-anchor="start" x="50.5" y="-1158.4" font-family="Arial" font-size="14.00" fill="#000000">sub_title1 </text>
<text text-anchor="start" x="114.298" y="-1158.4" font-family="Arial" font-size="14.00" fill="#666666">[text]</text>
<text text-anchor="start" x="144.643" y="-1158.4" font-family="Arial" font-size="14.00" fill="#000000"> サブタイトル1</text>
<polygon fill="none" stroke="#000000" points="43.5,-1117 43.5,-1147 384.5,-1147 384.5,-1117 43.5,-1117"/>
<text text-anchor="start" x="50.5" y="-1128.4" font-family="Arial" font-size="14.00" fill="#000000">sub_comment1 </text>
<text text-anchor="start" x="150.0806" y="-1128.4" font-family="Arial" font-size="14.00" fill="#666666">[text]</text>
<text text-anchor="start" x="180.4256" y="-1128.4" font-family="Arial" font-size="14.00" fill="#000000"> サブコメント1</text>
<polygon fill="none" stroke="#000000" points="43.5,-1087 43.5,-1117 384.5,-1117 384.5,-1087 43.5,-1087"/>
<text text-anchor="start" x="50.5" y="-1098.4" font-family="Arial" font-size="14.00" fill="#000000">sub_image1 </text>
<text text-anchor="start" x="130.636" y="-1098.4" font-family="Arial" font-size="14.00" fill="#666666">[text]</text>
<text text-anchor="start" x="160.981" y="-1098.4" font-family="Arial" font-size="14.00" fill="#000000"> サブ画像1</text>
<polygon fill="none" stroke="#000000" points="43.5,-1057 43.5,-1087 384.5,-1087 384.5,-1057 43.5,-1057"/>
<text text-anchor="start" x="50.5" y="-1068.4" font-family="Arial" font-size="14.00" fill="#000000">sub_large_image1 </text>
<text text-anchor="start" x="169.5336" y="-1068.4" font-family="Arial" font-size="14.00" fill="#666666">[text]</text>
<text text-anchor="start" x="199.8786" y="-1068.4" font-family="Arial" font-size="14.00" fill="#000000"> サブ拡大画像1</text>
<polygon fill="none" stroke="#000000" points="43.5,-1027 43.5,-1057 384.5,-1057 384.5,-1027 43.5,-1027"/>
<text text-anchor="start" x="50.5" y="-1038.4" font-family="Arial" font-size="14.00" fill="#000000">sub_title2 </text>
<text text-anchor="start" x="114.298" y="-1038.4" font-family="Arial" font-size="14.00" fill="#666666">[text]</text>
<text text-anchor="start" x="144.643" y="-1038.4" font-family="Arial" font-size="14.00" fill="#000000"> サブタイトル2</text>
<polygon fill="none" stroke="#000000" points="43.5,-997 43.5,-1027 384.5,-1027 384.5,-997 43.5,-997"/>
<text text-anchor="start" x="50.5" y="-1008.4" font-family="Arial" font-size="14.00" fill="#000000">sub_comment2 </text>
<text text-anchor="start" x="150.0806" y="-1008.4" font-family="Arial" font-size="14.00" fill="#666666">[text]</text>
<text text-anchor="start" x="180.4256" y="-1008.4" font-family="Arial" font-size="14.00" fill="#000000"> サブコメント2</text>
<polygon fill="none" stroke="#000000" points="43.5,-967 43.5,-997 384.5,-997 384.5,-967 43.5,-967"/>
<text text-anchor="start" x="50.5" y="-978.4" font-family="Arial" font-size="14.00" fill="#000000">sub_image2 </text>
<text text-anchor="start" x="130.636" y="-978.4" font-family="Arial" font-size="14.00" fill="#666666">[text]</text>
<text text-anchor="start" x="160.981" y="-978.4" font-family="Arial" font-size="14.00" fill="#000000"> サブ画像2</text>
<polygon fill="none" stroke="#000000" points="43.5,-937 43.5,-967 384.5,-967 384.5,-937 43.5,-937"/>
<text text-anchor="start" x="50.5" y="-948.4" font-family="Arial" font-size="14.00" fill="#000000">sub_large_image2 </text>
<text text-anchor="start" x="169.5336" y="-948.4" font-family="Arial" font-size="14.00" fill="#666666">[text]</text>
<text text-anchor="start" x="199.8786" y="-948.4" font-family="Arial" font-size="14.00" fill="#000000"> サブ拡大画像2</text>
<polygon fill="none" stroke="#000000" points="43.5,-907 43.5,-937 384.5,-937 384.5,-907 43.5,-907"/>
<text text-anchor="start" x="50.5" y="-918.4" font-family="Arial" font-size="14.00" fill="#000000">sub_title3 </text>
<text text-anchor="start" x="114.298" y="-918.4" font-family="Arial" font-size="14.00" fill="#666666">[text]</text>
<text text-anchor="start" x="144.643" y="-918.4" font-family="Arial" font-size="14.00" fill="#000000"> サブタイトル3</text>
<polygon fill="none" stroke="#000000" points="43.5,-877 43.5,-907 384.5,-907 384.5,-877 43.5,-877"/>
<text text-anchor="start" x="50.5" y="-888.4" font-family="Arial" font-size="14.00" fill="#000000">sub_comment3 </text>
<text text-anchor="start" x="150.0806" y="-888.4" font-family="Arial" font-size="14.00" fill="#666666">[text]</text>
<text text-anchor="start" x="180.4256" y="-888.4" font-family="Arial" font-size="14.00" fill="#000000"> サブコメント3</text>
<polygon fill="none" stroke="#000000" points="43.5,-847 43.5,-877 384.5,-877 384.5,-847 43.5,-847"/>
<text text-anchor="start" x="50.5" y="-858.4" font-family="Arial" font-size="14.00" fill="#000000">sub_image3 </text>
<text text-anchor="start" x="130.636" y="-858.4" font-family="Arial" font-size="14.00" fill="#666666">[text]</text>
<text text-anchor="start" x="160.981" y="-858.4" font-family="Arial" font-size="14.00" fill="#000000"> サブ画像3</text>
<polygon fill="none" stroke="#000000" points="43.5,-817 43.5,-847 384.5,-847 384.5,-817 43.5,-817"/>
<text text-anchor="start" x="50.5" y="-828.4" font-family="Arial" font-size="14.00" fill="#000000">sub_large_image3 </text>
<text text-anchor="start" x="169.5336" y="-828.4" font-family="Arial" font-size="14.00" fill="#666666">[text]</text>
<text text-anchor="start" x="199.8786" y="-828.4" font-family="Arial" font-size="14.00" fill="#000000"> サブ拡大画像3</text>
<polygon fill="none" stroke="#000000" points="43.5,-787 43.5,-817 384.5,-817 384.5,-787 43.5,-787"/>
<text text-anchor="start" x="50.5" y="-798.4" font-family="Arial" font-size="14.00" fill="#000000">sub_title4 </text>
<text text-anchor="start" x="114.298" y="-798.4" font-family="Arial" font-size="14.00" fill="#666666">[text]</text>
<text text-anchor="start" x="144.643" y="-798.4" font-family="Arial" font-size="14.00" fill="#000000"> サブタイトル4</text>
<polygon fill="none" stroke="#000000" points="43.5,-757 43.5,-787 384.5,-787 384.5,-757 43.5,-757"/>
<text text-anchor="start" x="50.5" y="-768.4" font-family="Arial" font-size="14.00" fill="#000000">sub_comment4 </text>
<text text-anchor="start" x="150.0806" y="-768.4" font-family="Arial" font-size="14.00" fill="#666666">[text]</text>
<text text-anchor="start" x="180.4256" y="-768.4" font-family="Arial" font-size="14.00" fill="#000000"> サブコメント4</text>
<polygon fill="none" stroke="#000000" points="43.5,-727 43.5,-757 384.5,-757 384.5,-727 43.5,-727"/>
<text text-anchor="start" x="50.5" y="-738.4" font-family="Arial" font-size="14.00" fill="#000000">sub_image4 </text>
<text text-anchor="start" x="130.636" y="-738.4" font-family="Arial" font-size="14.00" fill="#666666">[text]</text>
<text text-anchor="start" x="160.981" y="-738.4" font-family="Arial" font-size="14.00" fill="#000000"> サブ画像4</text>
<polygon fill="none" stroke="#000000" points="43.5,-697 43.5,-727 384.5,-727 384.5,-697 43.5,-697"/>
<text text-anchor="start" x="50.5" y="-708.4" font-family="Arial" font-size="14.00" fill="#000000">sub_large_image4 </text>
<text text-anchor="start" x="169.5336" y="-708.4" font-family="Arial" font-size="14.00" fill="#666666">[text]</text>
<text text-anchor="start" x="199.8786" y="-708.4" font-family="Arial" font-size="14.00" fill="#000000"> サブ拡大画像4</text>
<polygon fill="none" stroke="#000000" points="43.5,-667 43.5,-697 384.5,-697 384.5,-667 43.5,-667"/>
<text text-anchor="start" x="50.5" y="-678.4" font-family="Arial" font-size="14.00" fill="#000000">sub_title5 </text>
<text text-anchor="start" x="114.298" y="-678.4" font-family="Arial" font-size="14.00" fill="#666666">[text]</text>
<text text-anchor="start" x="144.643" y="-678.4" font-family="Arial" font-size="14.00" fill="#000000"> サブタイトル5</text>
<polygon fill="none" stroke="#000000" points="43.5,-637 43.5,-667 384.5,-667 384.5,-637 43.5,-637"/>
<text text-anchor="start" x="50.5" y="-648.4" font-family="Arial" font-size="14.00" fill="#000000">sub_comment5 </text>
<text text-anchor="start" x="150.0806" y="-648.4" font-family="Arial" font-size="14.00" fill="#666666">[text]</text>
<text text-anchor="start" x="180.4256" y="-648.4" font-family="Arial" font-size="14.00" fill="#000000"> サブコメント5</text>
<polygon fill="none" stroke="#000000" points="43.5,-607 43.5,-637 384.5,-637 384.5,-607 43.5,-607"/>
<text text-anchor="start" x="50.5" y="-618.4" font-family="Arial" font-size="14.00" fill="#000000">sub_image5 </text>
<text text-anchor="start" x="130.636" y="-618.4" font-family="Arial" font-size="14.00" fill="#666666">[text]</text>
<text text-anchor="start" x="160.981" y="-618.4" font-family="Arial" font-size="14.00" fill="#000000"> サブ画像5</text>
<polygon fill="none" stroke="#000000" points="43.5,-577 43.5,-607 384.5,-607 384.5,-577 43.5,-577"/>
<text text-anchor="start" x="50.5" y="-588.4" font-family="Arial" font-size="14.00" fill="#000000">sub_large_image5 </text>
<text text-anchor="start" x="169.5336" y="-588.4" font-family="Arial" font-size="14.00" fill="#666666">[text]</text>
<text text-anchor="start" x="199.8786" y="-588.4" font-family="Arial" font-size="14.00" fill="#000000"> サブ拡大画像5</text>
<polygon fill="none" stroke="#000000" points="43.5,-547 43.5,-577 384.5,-577 384.5,-547 43.5,-547"/>
<text text-anchor="start" x="50.5" y="-558.4" font-family="Arial" font-size="14.00" fill="#000000">sub_title6 </text>
<text text-anchor="start" x="114.298" y="-558.4" font-family="Arial" font-size="14.00" fill="#666666">[text]</text>
<text text-anchor="start" x="144.643" y="-558.4" font-family="Arial" font-size="14.00" fill="#000000"> サブタイトル6</text>
<polygon fill="none" stroke="#000000" points="43.5,-517 43.5,-547 384.5,-547 384.5,-517 43.5,-517"/>
<text text-anchor="start" x="50.5" y="-528.4" font-family="Arial" font-size="14.00" fill="#000000">sub_comment6 </text>
<text text-anchor="start" x="150.0806" y="-528.4" font-family="Arial" font-size="14.00" fill="#666666">[text]</text>
<text text-anchor="start" x="180.4256" y="-528.4" font-family="Arial" font-size="14.00" fill="#000000"> サブコメント6</text>
<polygon fill="none" stroke="#000000" points="43.5,-487 43.5,-517 384.5,-517 384.5,-487 43.5,-487"/>
<text text-anchor="start" x="50.5" y="-498.4" font-family="Arial" font-size="14.00" fill="#000000">sub_image6 </text>
<text text-anchor="start" x="130.636" y="-498.4" font-family="Arial" font-size="14.00" fill="#666666">[text]</text>
<text text-anchor="start" x="160.981" y="-498.4" font-family="Arial" font-size="14.00" fill="#000000"> サブ画像6</text>
<polygon fill="none" stroke="#000000" points="43.5,-457 43.5,-487 384.5,-487 384.5,-457 43.5,-457"/>
<text text-anchor="start" x="50.5" y="-468.4" font-family="Arial" font-size="14.00" fill="#000000">sub_large_image6 </text>
<text text-anchor="start" x="169.5336" y="-468.4" font-family="Arial" font-size="14.00" fill="#666666">[text]</text>
<text text-anchor="start" x="199.8786" y="-468.4" font-family="Arial" font-size="14.00" fill="#000000"> サブ拡大画像6</text>
<polygon fill="none" stroke="#000000" points="43.5,-427 43.5,-457 384.5,-457 384.5,-427 43.5,-427"/>
<text text-anchor="start" x="50.5" y="-438.4" font-family="Arial" font-size="14.00" fill="#000000">del_flg </text>
<text text-anchor="start" x="95.6248" y="-438.4" font-family="Arial" font-size="14.00" fill="#666666">[smallint]</text>
<text text-anchor="start" x="150.8422" y="-438.4" font-family="Arial" font-size="14.00" fill="#000000"> 削除フラグ</text>
<polygon fill="none" stroke="#000000" points="43.5,-397 43.5,-427 384.5,-427 384.5,-397 43.5,-397"/>
<text text-anchor="start" x="50.5" y="-408.4" font-family="Arial" font-size="14.00" fill="#000000">creator_id </text>
<text text-anchor="start" x="116.622" y="-408.4" font-family="Arial" font-size="14.00" fill="#666666">[integer]</text>
<text text-anchor="start" x="167.1914" y="-408.4" font-family="Arial" font-size="14.00" fill="#000000"> 作成者ID</text>
<polygon fill="none" stroke="#000000" points="43.5,-367 43.5,-397 384.5,-397 384.5,-367 43.5,-367"/>
<text text-anchor="start" x="50.235" y="-378.4" font-family="Arial" font-size="14.00" fill="#000000">create_date </text>
<text text-anchor="start" x="128.0456" y="-378.4" font-family="Arial" font-size="14.00" fill="#666666">[timestamp without time zone]</text>
<text text-anchor="start" x="313.1858" y="-378.4" font-family="Arial" font-size="14.00" fill="#000000"> 作成日時</text>
<polygon fill="none" stroke="#000000" points="43.5,-337 43.5,-367 384.5,-367 384.5,-337 43.5,-337"/>
<text text-anchor="start" x="50.5" y="-348.4" font-family="Arial" font-size="14.00" fill="#000000">update_date </text>
<text text-anchor="start" x="132.2152" y="-348.4" font-family="Arial" font-size="14.00" fill="#666666">[timestamp without time zone]</text>
<text text-anchor="start" x="317.3554" y="-348.4" font-family="Arial" font-size="14.00" fill="#000000"> 更新日時</text>
<polygon fill="none" stroke="#000000" points="43.5,-307 43.5,-337 384.5,-337 384.5,-307 43.5,-307"/>
<text text-anchor="start" x="50.5" y="-318.4" font-family="Arial" font-size="14.00" fill="#000000">deliv_date_id </text>
<text text-anchor="start" x="136.8618" y="-318.4" font-family="Arial" font-size="14.00" fill="#666666">[integer]</text>
<text text-anchor="start" x="187.4312" y="-318.4" font-family="Arial" font-size="14.00" fill="#000000"> 発送日目安</text>
</g>
<!-- public.dtb_products&#45;&gt;public.mtb_disp -->
<g id="edge1" class="edge">
<title>public.dtb_products:status&#45;&gt;public.mtb_disp:id</title>
<path fill="none" stroke="#000000" stroke-dasharray="5,2" d="M392.8264,-1545.937C454.0315,-1452.7305 429.9133,-315.4434 384.5,-264 299.13,-167.2944 181.87,-324.7056 96.5,-228 65.0276,-192.3486 48.9444,-121 96.5,-121"/>
<polygon fill="#000000" stroke="#000000" points="392.584,-1546.1136 381.8511,-1548.3622 388.542,-1549.0568 384.5,-1552 384.5,-1552 384.5,-1552 388.542,-1549.0568 387.1489,-1555.6378 392.584,-1546.1136 392.584,-1546.1136"/>
<text text-anchor="start" x="391.8245" y="-1562" font-family="Arial" font-size="10.00" fill="#000000">Additional Relation</text>
</g>
</g>
</svg>
