<?xml version="1.0" encoding="UTF-8" standalone="no"?>
<!DOCTYPE svg PUBLIC "-//W3C//DTD SVG 1.1//EN"
 "http://www.w3.org/Graphics/SVG/1.1/DTD/svg11.dtd">
<!-- Generated by graphviz version 2.40.1 (20161225.0304)
 -->
<!-- Title: public.dtb_update Pages: 1 -->
<svg width="479pt" height="566pt"
 viewBox="0.00 0.00 479.00 566.00" xmlns="http://www.w3.org/2000/svg" xmlns:xlink="http://www.w3.org/1999/xlink">
<g id="graph0" class="graph" transform="scale(1 1) rotate(0) translate(4 562)">
<title>public.dtb_update</title>
<polygon fill="#ffffff" stroke="transparent" points="-4,4 -4,-562 475,-562 475,4 -4,4"/>
<!-- public.dtb_update -->
<g id="node1" class="node">
<title>public.dtb_update</title>
<polygon fill="#efefef" stroke="transparent" points="46.5,-466 46.5,-512 425.5,-512 425.5,-466 46.5,-466"/>
<polygon fill="none" stroke="#000000" points="46.5,-466 46.5,-512 425.5,-512 425.5,-466 46.5,-466"/>
<text text-anchor="start" x="116.3415" y="-489.8" font-family="Arial Bold" font-size="18.00" fill="#000000">public.dtb_update</text>
<text text-anchor="start" x="258.4047" y="-489.8" font-family="Arial" font-size="14.00" fill="#000000"> </text>
<text text-anchor="start" x="262.2953" y="-489.8" font-family="Arial" font-size="14.00" fill="#666666">[BASE TABLE]</text>
<text text-anchor="start" x="167.8102" y="-475.4" font-family="Arial" font-size="14.00" fill="#333333">モジュール更新情報</text>
<polygon fill="none" stroke="#000000" points="46.5,-436 46.5,-466 425.5,-466 425.5,-436 46.5,-436"/>
<text text-anchor="start" x="53.5" y="-447.4" font-family="Arial" font-size="14.00" fill="#000000">module_id </text>
<text text-anchor="start" x="121.96" y="-447.4" font-family="Arial" font-size="14.00" fill="#666666">[integer]</text>
<text text-anchor="start" x="172.5294" y="-447.4" font-family="Arial" font-size="14.00" fill="#000000"> モジュールID</text>
<polygon fill="none" stroke="#000000" points="46.5,-406 46.5,-436 425.5,-436 425.5,-406 46.5,-406"/>
<text text-anchor="start" x="53.5" y="-417.4" font-family="Arial" font-size="14.00" fill="#000000">module_name </text>
<text text-anchor="start" x="146.0792" y="-417.4" font-family="Arial" font-size="14.00" fill="#666666">[text]</text>
<text text-anchor="start" x="176.4242" y="-417.4" font-family="Arial" font-size="14.00" fill="#000000"> モジュール名</text>
<polygon fill="none" stroke="#000000" points="46.5,-376 46.5,-406 425.5,-406 425.5,-376 46.5,-376"/>
<text text-anchor="start" x="53.5" y="-387.4" font-family="Arial" font-size="14.00" fill="#000000">now_version </text>
<text text-anchor="start" x="135.96" y="-387.4" font-family="Arial" font-size="14.00" fill="#666666">[text]</text>
<text text-anchor="start" x="166.305" y="-387.4" font-family="Arial" font-size="14.00" fill="#000000"> インストールバージョン</text>
<polygon fill="none" stroke="#000000" points="46.5,-346 46.5,-376 425.5,-376 425.5,-346 46.5,-346"/>
<text text-anchor="start" x="53.5" y="-357.4" font-family="Arial" font-size="14.00" fill="#000000">latest_version </text>
<text text-anchor="start" x="143.7412" y="-357.4" font-family="Arial" font-size="14.00" fill="#666666">[text]</text>
<text text-anchor="start" x="174.0862" y="-357.4" font-family="Arial" font-size="14.00" fill="#000000"> 最新バージョン</text>
<polygon fill="none" stroke="#000000" points="46.5,-316 46.5,-346 425.5,-346 425.5,-316 46.5,-316"/>
<text text-anchor="start" x="53.5" y="-327.4" font-family="Arial" font-size="14.00" fill="#000000">module_explain </text>
<text text-anchor="start" x="155.4144" y="-327.4" font-family="Arial" font-size="14.00" fill="#666666">[text]</text>
<text text-anchor="start" x="185.7594" y="-327.4" font-family="Arial" font-size="14.00" fill="#000000"> 機能説明</text>
<polygon fill="none" stroke="#000000" points="46.5,-286 46.5,-316 425.5,-316 425.5,-286 46.5,-286"/>
<text text-anchor="start" x="53.5" y="-297.4" font-family="Arial" font-size="14.00" fill="#000000">main_php </text>
<text text-anchor="start" x="118.8534" y="-297.4" font-family="Arial" font-size="14.00" fill="#666666">[text]</text>
<text text-anchor="start" x="149.1984" y="-297.4" font-family="Arial" font-size="14.00" fill="#000000"> 更新対象パス</text>
<polygon fill="none" stroke="#000000" points="46.5,-256 46.5,-286 425.5,-286 425.5,-256 46.5,-256"/>
<text text-anchor="start" x="53.5" y="-267.4" font-family="Arial" font-size="14.00" fill="#000000">extern_php </text>
<text text-anchor="start" x="127.42" y="-267.4" font-family="Arial" font-size="14.00" fill="#666666">[text]</text>
<text text-anchor="start" x="157.765" y="-267.4" font-family="Arial" font-size="14.00" fill="#000000"> 拡張対象パス</text>
<polygon fill="none" stroke="#000000" points="46.5,-226 46.5,-256 425.5,-256 425.5,-226 46.5,-226"/>
<text text-anchor="start" x="53.5" y="-237.4" font-family="Arial" font-size="14.00" fill="#000000">install_sql </text>
<text text-anchor="start" x="118.838" y="-237.4" font-family="Arial" font-size="14.00" fill="#666666">[text]</text>
<text text-anchor="start" x="149.183" y="-237.4" font-family="Arial" font-size="14.00" fill="#000000"> インストールSQL</text>
<polygon fill="none" stroke="#000000" points="46.5,-196 46.5,-226 425.5,-226 425.5,-196 46.5,-196"/>
<text text-anchor="start" x="53.5" y="-207.4" font-family="Arial" font-size="14.00" fill="#000000">uninstall_sql </text>
<text text-anchor="start" x="134.4032" y="-207.4" font-family="Arial" font-size="14.00" fill="#666666">[text]</text>
<text text-anchor="start" x="164.7482" y="-207.4" font-family="Arial" font-size="14.00" fill="#000000"> アンインストールSQL</text>
<polygon fill="none" stroke="#000000" points="46.5,-166 46.5,-196 425.5,-196 425.5,-166 46.5,-166"/>
<text text-anchor="start" x="53.5" y="-177.4" font-family="Arial" font-size="14.00" fill="#000000">other_files </text>
<text text-anchor="start" x="121.9586" y="-177.4" font-family="Arial" font-size="14.00" fill="#666666">[text]</text>
<text text-anchor="start" x="152.3036" y="-177.4" font-family="Arial" font-size="14.00" fill="#000000"> その他拡張ファイル名</text>
<polygon fill="none" stroke="#000000" points="46.5,-136 46.5,-166 425.5,-166 425.5,-136 46.5,-136"/>
<text text-anchor="start" x="53.5" y="-147.4" font-family="Arial" font-size="14.00" fill="#000000">del_flg </text>
<text text-anchor="start" x="98.6248" y="-147.4" font-family="Arial" font-size="14.00" fill="#666666">[smallint]</text>
<text text-anchor="start" x="153.8422" y="-147.4" font-family="Arial" font-size="14.00" fill="#000000"> 削除フラグ</text>
<polygon fill="none" stroke="#000000" points="46.5,-106 46.5,-136 425.5,-136 425.5,-106 46.5,-106"/>
<text text-anchor="start" x="53.5" y="-117.4" font-family="Arial" font-size="14.00" fill="#000000">create_date </text>
<text text-anchor="start" x="131.3106" y="-117.4" font-family="Arial" font-size="14.00" fill="#666666">[timestamp without time zone]</text>
<text text-anchor="start" x="316.4508" y="-117.4" font-family="Arial" font-size="14.00" fill="#000000"> 作成日時</text>
<polygon fill="none" stroke="#000000" points="46.5,-76 46.5,-106 425.5,-106 425.5,-76 46.5,-76"/>
<text text-anchor="start" x="53.5" y="-87.4" font-family="Arial" font-size="14.00" fill="#000000">update_date </text>
<text text-anchor="start" x="135.2152" y="-87.4" font-family="Arial" font-size="14.00" fill="#666666">[timestamp without time zone]</text>
<text text-anchor="start" x="320.3554" y="-87.4" font-family="Arial" font-size="14.00" fill="#000000"> 更新日時</text>
<polygon fill="none" stroke="#000000" points="46.5,-46 46.5,-76 425.5,-76 425.5,-46 46.5,-46"/>
<text text-anchor="start" x="53.3329" y="-57.4" font-family="Arial" font-size="14.00" fill="#000000">release_date </text>
<text text-anchor="start" x="138.1421" y="-57.4" font-family="Arial" font-size="14.00" fill="#666666">[timestamp without time zone]</text>
<text text-anchor="start" x="323.2823" y="-57.4" font-family="Arial" font-size="14.00" fill="#000000"> リリース日時</text>
<polygon fill="none" stroke="#000000" stroke-width="3" points="44.5,-44.5 44.5,-513.5 426.5,-513.5 426.5,-44.5 44.5,-44.5"/>
</g>
</g>
</svg>
