<?xml version="1.0" encoding="UTF-8" standalone="no"?>
<!DOCTYPE svg PUBLIC "-//W3C//DTD SVG 1.1//EN"
 "http://www.w3.org/Graphics/SVG/1.1/DTD/svg11.dtd">
<!-- Generated by graphviz version 2.40.1 (20161225.0304)
 -->
<!-- Title: public.dtb_shipping Pages: 1 -->
<svg width="505pt" height="986pt"
 viewBox="0.00 0.00 505.00 986.00" xmlns="http://www.w3.org/2000/svg" xmlns:xlink="http://www.w3.org/1999/xlink">
<g id="graph0" class="graph" transform="scale(1 1) rotate(0) translate(4 982)">
<title>public.dtb_shipping</title>
<polygon fill="#ffffff" stroke="transparent" points="-4,4 -4,-982 501,-982 501,4 -4,4"/>
<!-- public.dtb_shipping -->
<g id="node1" class="node">
<title>public.dtb_shipping</title>
<polygon fill="#efefef" stroke="transparent" points="46.5,-886 46.5,-932 451.5,-932 451.5,-886 46.5,-886"/>
<polygon fill="none" stroke="#000000" points="46.5,-886 46.5,-932 451.5,-932 451.5,-886 46.5,-886"/>
<text text-anchor="start" x="123.3484" y="-909.8" font-family="Arial Bold" font-size="18.00" fill="#000000">public.dtb_shipping</text>
<text text-anchor="start" x="277.3978" y="-909.8" font-family="Arial" font-size="14.00" fill="#000000"> </text>
<text text-anchor="start" x="281.2884" y="-909.8" font-family="Arial" font-size="14.00" fill="#666666">[BASE TABLE]</text>
<text text-anchor="start" x="210.8745" y="-895.4" font-family="Arial" font-size="14.00" fill="#333333">配送先情報</text>
<polygon fill="none" stroke="#000000" points="46.5,-856 46.5,-886 451.5,-886 451.5,-856 46.5,-856"/>
<text text-anchor="start" x="53.5" y="-867.4" font-family="Arial" font-size="14.00" fill="#000000">shipping_id </text>
<text text-anchor="start" x="128.1886" y="-867.4" font-family="Arial" font-size="14.00" fill="#666666">[integer]</text>
<text text-anchor="start" x="178.758" y="-867.4" font-family="Arial" font-size="14.00" fill="#000000"> 配送先ID</text>
<polygon fill="none" stroke="#000000" points="46.5,-826 46.5,-856 451.5,-856 451.5,-826 46.5,-826"/>
<text text-anchor="start" x="53.5" y="-837.4" font-family="Arial" font-size="14.00" fill="#000000">order_id </text>
<text text-anchor="start" x="108.7314" y="-837.4" font-family="Arial" font-size="14.00" fill="#666666">[integer]</text>
<text text-anchor="start" x="159.3008" y="-837.4" font-family="Arial" font-size="14.00" fill="#000000"> 受注ID</text>
<polygon fill="none" stroke="#000000" points="46.5,-796 46.5,-826 451.5,-826 451.5,-796 46.5,-796"/>
<text text-anchor="start" x="53.5" y="-807.4" font-family="Arial" font-size="14.00" fill="#000000">shipping_name01 </text>
<text text-anchor="start" x="167.873" y="-807.4" font-family="Arial" font-size="14.00" fill="#666666">[text]</text>
<text text-anchor="start" x="198.218" y="-807.4" font-family="Arial" font-size="14.00" fill="#000000"> 配送先名前(姓)</text>
<polygon fill="none" stroke="#000000" points="46.5,-766 46.5,-796 451.5,-796 451.5,-766 46.5,-766"/>
<text text-anchor="start" x="53.5" y="-777.4" font-family="Arial" font-size="14.00" fill="#000000">shipping_name02 </text>
<text text-anchor="start" x="167.873" y="-777.4" font-family="Arial" font-size="14.00" fill="#666666">[text]</text>
<text text-anchor="start" x="198.218" y="-777.4" font-family="Arial" font-size="14.00" fill="#000000"> 配送先名前(名)</text>
<polygon fill="none" stroke="#000000" points="46.5,-736 46.5,-766 451.5,-766 451.5,-736 46.5,-736"/>
<text text-anchor="start" x="53.5" y="-747.4" font-family="Arial" font-size="14.00" fill="#000000">shipping_kana01 </text>
<text text-anchor="start" x="163.2124" y="-747.4" font-family="Arial" font-size="14.00" fill="#666666">[text]</text>
<text text-anchor="start" x="193.5574" y="-747.4" font-family="Arial" font-size="14.00" fill="#000000"> 配送先カナ(姓)</text>
<polygon fill="none" stroke="#000000" points="46.5,-706 46.5,-736 451.5,-736 451.5,-706 46.5,-706"/>
<text text-anchor="start" x="53.5" y="-717.4" font-family="Arial" font-size="14.00" fill="#000000">shipping_kana02 </text>
<text text-anchor="start" x="163.2124" y="-717.4" font-family="Arial" font-size="14.00" fill="#666666">[text]</text>
<text text-anchor="start" x="193.5574" y="-717.4" font-family="Arial" font-size="14.00" fill="#000000"> 配送先カナ(名)</text>
<polygon fill="none" stroke="#000000" points="46.5,-676 46.5,-706 451.5,-706 451.5,-676 46.5,-676"/>
<text text-anchor="start" x="53.5" y="-687.4" font-family="Arial" font-size="14.00" fill="#000000">shipping_company_name </text>
<text text-anchor="start" x="216.8814" y="-687.4" font-family="Arial" font-size="14.00" fill="#666666">[text]</text>
<text text-anchor="start" x="247.2264" y="-687.4" font-family="Arial" font-size="14.00" fill="#000000"> 【2.13】配送先会社名</text>
<polygon fill="none" stroke="#000000" points="46.5,-646 46.5,-676 451.5,-676 451.5,-646 46.5,-646"/>
<text text-anchor="start" x="53.5" y="-657.4" font-family="Arial" font-size="14.00" fill="#000000">shipping_tel01 </text>
<text text-anchor="start" x="147.6444" y="-657.4" font-family="Arial" font-size="14.00" fill="#666666">[text]</text>
<text text-anchor="start" x="177.9894" y="-657.4" font-family="Arial" font-size="14.00" fill="#000000"> 配送先電話番号(市外局番)</text>
<polygon fill="none" stroke="#000000" points="46.5,-616 46.5,-646 451.5,-646 451.5,-616 46.5,-616"/>
<text text-anchor="start" x="53.5" y="-627.4" font-family="Arial" font-size="14.00" fill="#000000">shipping_tel02 </text>
<text text-anchor="start" x="147.6444" y="-627.4" font-family="Arial" font-size="14.00" fill="#666666">[text]</text>
<text text-anchor="start" x="177.9894" y="-627.4" font-family="Arial" font-size="14.00" fill="#000000"> 配送先電話番号(市内局番)</text>
<polygon fill="none" stroke="#000000" points="46.5,-586 46.5,-616 451.5,-616 451.5,-586 46.5,-586"/>
<text text-anchor="start" x="53.5" y="-597.4" font-family="Arial" font-size="14.00" fill="#000000">shipping_tel03 </text>
<text text-anchor="start" x="147.6444" y="-597.4" font-family="Arial" font-size="14.00" fill="#666666">[text]</text>
<text text-anchor="start" x="177.9894" y="-597.4" font-family="Arial" font-size="14.00" fill="#000000"> 配送先電話番号(局番)</text>
<polygon fill="none" stroke="#000000" points="46.5,-556 46.5,-586 451.5,-586 451.5,-556 46.5,-556"/>
<text text-anchor="start" x="53.5" y="-567.4" font-family="Arial" font-size="14.00" fill="#000000">shipping_fax01 </text>
<text text-anchor="start" x="151.5378" y="-567.4" font-family="Arial" font-size="14.00" fill="#666666">[text]</text>
<text text-anchor="start" x="181.8828" y="-567.4" font-family="Arial" font-size="14.00" fill="#000000"> 配送先FAX(市外局番)</text>
<polygon fill="none" stroke="#000000" points="46.5,-526 46.5,-556 451.5,-556 451.5,-526 46.5,-526"/>
<text text-anchor="start" x="53.5" y="-537.4" font-family="Arial" font-size="14.00" fill="#000000">shipping_fax02 </text>
<text text-anchor="start" x="151.5378" y="-537.4" font-family="Arial" font-size="14.00" fill="#666666">[text]</text>
<text text-anchor="start" x="181.8828" y="-537.4" font-family="Arial" font-size="14.00" fill="#000000"> 配送先FAX(市内局番)</text>
<polygon fill="none" stroke="#000000" points="46.5,-496 46.5,-526 451.5,-526 451.5,-496 46.5,-496"/>
<text text-anchor="start" x="53.5" y="-507.4" font-family="Arial" font-size="14.00" fill="#000000">shipping_fax03 </text>
<text text-anchor="start" x="151.5378" y="-507.4" font-family="Arial" font-size="14.00" fill="#666666">[text]</text>
<text text-anchor="start" x="181.8828" y="-507.4" font-family="Arial" font-size="14.00" fill="#000000"> 配送先FAX(局番)</text>
<polygon fill="none" stroke="#000000" points="46.5,-466 46.5,-496 451.5,-496 451.5,-466 46.5,-466"/>
<text text-anchor="start" x="53.5" y="-477.4" font-family="Arial" font-size="14.00" fill="#000000">shipping_country_id </text>
<text text-anchor="start" x="181.8702" y="-477.4" font-family="Arial" font-size="14.00" fill="#666666">[integer]</text>
<text text-anchor="start" x="232.4396" y="-477.4" font-family="Arial" font-size="14.00" fill="#000000"> 【2.13】配送先国ID</text>
<polygon fill="none" stroke="#000000" points="46.5,-436 46.5,-466 451.5,-466 451.5,-436 46.5,-436"/>
<text text-anchor="start" x="53.5" y="-447.4" font-family="Arial" font-size="14.00" fill="#000000">shipping_pref </text>
<text text-anchor="start" x="141.4158" y="-447.4" font-family="Arial" font-size="14.00" fill="#666666">[smallint]</text>
<text text-anchor="start" x="196.6332" y="-447.4" font-family="Arial" font-size="14.00" fill="#000000"> 都道府県ID</text>
<polygon fill="none" stroke="#000000" points="46.5,-406 46.5,-436 451.5,-436 451.5,-406 46.5,-406"/>
<text text-anchor="start" x="53.5" y="-417.4" font-family="Arial" font-size="14.00" fill="#000000">shipping_zip01 </text>
<text text-anchor="start" x="150.7538" y="-417.4" font-family="Arial" font-size="14.00" fill="#666666">[text]</text>
<text text-anchor="start" x="181.0988" y="-417.4" font-family="Arial" font-size="14.00" fill="#000000"> 配送先郵便番号(3桁)</text>
<polygon fill="none" stroke="#000000" points="46.5,-376 46.5,-406 451.5,-406 451.5,-376 46.5,-376"/>
<text text-anchor="start" x="53.5" y="-387.4" font-family="Arial" font-size="14.00" fill="#000000">shipping_zip02 </text>
<text text-anchor="start" x="150.7538" y="-387.4" font-family="Arial" font-size="14.00" fill="#666666">[text]</text>
<text text-anchor="start" x="181.0988" y="-387.4" font-family="Arial" font-size="14.00" fill="#000000"> 配送先郵便番号(4桁)</text>
<polygon fill="none" stroke="#000000" points="46.5,-346 46.5,-376 451.5,-376 451.5,-346 46.5,-346"/>
<text text-anchor="start" x="53.5" y="-357.4" font-family="Arial" font-size="14.00" fill="#000000">shipping_zipcode </text>
<text text-anchor="start" x="165.5364" y="-357.4" font-family="Arial" font-size="14.00" fill="#666666">[text]</text>
<text text-anchor="start" x="195.8814" y="-357.4" font-family="Arial" font-size="14.00" fill="#000000"> 【2.13】配送先郵便番号(海外対応)</text>
<polygon fill="none" stroke="#000000" points="46.5,-316 46.5,-346 451.5,-346 451.5,-316 46.5,-316"/>
<text text-anchor="start" x="53.5" y="-327.4" font-family="Arial" font-size="14.00" fill="#000000">shipping_addr01 </text>
<text text-anchor="start" x="160.873" y="-327.4" font-family="Arial" font-size="14.00" fill="#666666">[text]</text>
<text text-anchor="start" x="191.218" y="-327.4" font-family="Arial" font-size="14.00" fill="#000000"> 配送先住所1</text>
<polygon fill="none" stroke="#000000" points="46.5,-286 46.5,-316 451.5,-316 451.5,-286 46.5,-286"/>
<text text-anchor="start" x="53.5" y="-297.4" font-family="Arial" font-size="14.00" fill="#000000">shipping_addr02 </text>
<text text-anchor="start" x="160.873" y="-297.4" font-family="Arial" font-size="14.00" fill="#666666">[text]</text>
<text text-anchor="start" x="191.218" y="-297.4" font-family="Arial" font-size="14.00" fill="#000000"> 配送先住所2</text>
<polygon fill="none" stroke="#000000" points="46.5,-256 46.5,-286 451.5,-286 451.5,-256 46.5,-256"/>
<text text-anchor="start" x="53.5" y="-267.4" font-family="Arial" font-size="14.00" fill="#000000">time_id </text>
<text text-anchor="start" x="102.5028" y="-267.4" font-family="Arial" font-size="14.00" fill="#666666">[integer]</text>
<text text-anchor="start" x="153.0722" y="-267.4" font-family="Arial" font-size="14.00" fill="#000000"> 配送時間ID</text>
<polygon fill="none" stroke="#000000" points="46.5,-226 46.5,-256 451.5,-256 451.5,-226 46.5,-226"/>
<text text-anchor="start" x="53.5" y="-237.4" font-family="Arial" font-size="14.00" fill="#000000">shipping_time </text>
<text text-anchor="start" x="143.7398" y="-237.4" font-family="Arial" font-size="14.00" fill="#666666">[text]</text>
<text text-anchor="start" x="174.0848" y="-237.4" font-family="Arial" font-size="14.00" fill="#000000"> 配送時間</text>
<polygon fill="none" stroke="#000000" points="46.5,-196 46.5,-226 451.5,-226 451.5,-196 46.5,-196"/>
<text text-anchor="start" x="53.5" y="-207.4" font-family="Arial" font-size="14.00" fill="#000000">shipping_date </text>
<text text-anchor="start" x="144.5378" y="-207.4" font-family="Arial" font-size="14.00" fill="#666666">[timestamp without time zone]</text>
<text text-anchor="start" x="329.678" y="-207.4" font-family="Arial" font-size="14.00" fill="#000000"> 配達予定日</text>
<polygon fill="none" stroke="#000000" points="46.5,-166 46.5,-196 451.5,-196 451.5,-166 46.5,-166"/>
<text text-anchor="start" x="53.3493" y="-177.4" font-family="Arial" font-size="14.00" fill="#000000">shipping_commit_date </text>
<text text-anchor="start" x="197.2707" y="-177.4" font-family="Arial" font-size="14.00" fill="#666666">[timestamp without time zone]</text>
<text text-anchor="start" x="382.4109" y="-177.4" font-family="Arial" font-size="14.00" fill="#000000"> 発送日時</text>
<polygon fill="none" stroke="#000000" points="46.5,-136 46.5,-166 451.5,-166 451.5,-136 46.5,-136"/>
<text text-anchor="start" x="53.5" y="-147.4" font-family="Arial" font-size="14.00" fill="#000000">rank </text>
<text text-anchor="start" x="84.6164" y="-147.4" font-family="Arial" font-size="14.00" fill="#666666">[integer]</text>
<text text-anchor="start" x="135.1858" y="-147.4" font-family="Arial" font-size="14.00" fill="#000000"> 表示順</text>
<polygon fill="none" stroke="#000000" points="46.5,-106 46.5,-136 451.5,-136 451.5,-106 46.5,-106"/>
<text text-anchor="start" x="53.5" y="-117.4" font-family="Arial" font-size="14.00" fill="#000000">create_date </text>
<text text-anchor="start" x="131.3106" y="-117.4" font-family="Arial" font-size="14.00" fill="#666666">[timestamp without time zone]</text>
<text text-anchor="start" x="316.4508" y="-117.4" font-family="Arial" font-size="14.00" fill="#000000"> 作成日時</text>
<polygon fill="none" stroke="#000000" points="46.5,-76 46.5,-106 451.5,-106 451.5,-76 46.5,-76"/>
<text text-anchor="start" x="53.5" y="-87.4" font-family="Arial" font-size="14.00" fill="#000000">update_date </text>
<text text-anchor="start" x="135.2152" y="-87.4" font-family="Arial" font-size="14.00" fill="#666666">[timestamp without time zone]</text>
<text text-anchor="start" x="320.3554" y="-87.4" font-family="Arial" font-size="14.00" fill="#000000"> 更新日時</text>
<polygon fill="none" stroke="#000000" points="46.5,-46 46.5,-76 451.5,-76 451.5,-46 46.5,-46"/>
<text text-anchor="start" x="53.5" y="-57.4" font-family="Arial" font-size="14.00" fill="#000000">del_flg </text>
<text text-anchor="start" x="98.6248" y="-57.4" font-family="Arial" font-size="14.00" fill="#666666">[smallint]</text>
<text text-anchor="start" x="153.8422" y="-57.4" font-family="Arial" font-size="14.00" fill="#000000"> 削除フラグ</text>
<polygon fill="none" stroke="#000000" stroke-width="3" points="44.5,-44.5 44.5,-933.5 452.5,-933.5 452.5,-44.5 44.5,-44.5"/>
</g>
</g>
</svg>
