<?xml version="1.0" encoding="UTF-8" standalone="no"?>
<!DOCTYPE svg PUBLIC "-//W3C//DTD SVG 1.1//EN"
 "http://www.w3.org/Graphics/SVG/1.1/DTD/svg11.dtd">
<!-- Generated by graphviz version 2.40.1 (20161225.0304)
 -->
<!-- Title: public.dtb_category Pages: 1 -->
<svg width="441pt" height="416pt"
 viewBox="0.00 0.00 441.00 416.00" xmlns="http://www.w3.org/2000/svg" xmlns:xlink="http://www.w3.org/1999/xlink">
<g id="graph0" class="graph" transform="scale(1 1) rotate(0) translate(4 412)">
<title>public.dtb_category</title>
<polygon fill="#ffffff" stroke="transparent" points="-4,4 -4,-412 437,-412 437,4 -4,4"/>
<!-- public.dtb_category -->
<g id="node1" class="node">
<title>public.dtb_category</title>
<polygon fill="#efefef" stroke="transparent" points="46.5,-316 46.5,-362 387.5,-362 387.5,-316 46.5,-316"/>
<polygon fill="none" stroke="#000000" points="46.5,-316 46.5,-362 387.5,-362 387.5,-316 46.5,-316"/>
<text text-anchor="start" x="90.3485" y="-339.8" font-family="Arial Bold" font-size="18.00" fill="#000000">public.dtb_category</text>
<text text-anchor="start" x="246.3977" y="-339.8" font-family="Arial" font-size="14.00" fill="#000000"> </text>
<text text-anchor="start" x="250.2883" y="-339.8" font-family="Arial" font-size="14.00" fill="#666666">[BASE TABLE]</text>
<text text-anchor="start" x="175.1316" y="-325.4" font-family="Arial" font-size="14.00" fill="#333333">カテゴリ情報</text>
<polygon fill="none" stroke="#000000" points="46.5,-286 46.5,-316 387.5,-316 387.5,-286 46.5,-286"/>
<text text-anchor="start" x="53.5" y="-297.4" font-family="Arial" font-size="14.00" fill="#000000">category_id </text>
<text text-anchor="start" x="129.744" y="-297.4" font-family="Arial" font-size="14.00" fill="#666666">[integer]</text>
<text text-anchor="start" x="180.3134" y="-297.4" font-family="Arial" font-size="14.00" fill="#000000"> カテゴリID</text>
<polygon fill="none" stroke="#000000" points="46.5,-256 46.5,-286 387.5,-286 387.5,-256 46.5,-256"/>
<text text-anchor="start" x="53.5" y="-267.4" font-family="Arial" font-size="14.00" fill="#000000">category_name </text>
<text text-anchor="start" x="153.8632" y="-267.4" font-family="Arial" font-size="14.00" fill="#666666">[text]</text>
<text text-anchor="start" x="184.2082" y="-267.4" font-family="Arial" font-size="14.00" fill="#000000"> カテゴリ名</text>
<polygon fill="none" stroke="#000000" points="46.5,-226 46.5,-256 387.5,-256 387.5,-226 46.5,-226"/>
<text text-anchor="start" x="53.5" y="-237.4" font-family="Arial" font-size="14.00" fill="#000000">parent_category_id </text>
<text text-anchor="start" x="177.2082" y="-237.4" font-family="Arial" font-size="14.00" fill="#666666">[integer]</text>
<text text-anchor="start" x="227.7776" y="-237.4" font-family="Arial" font-size="14.00" fill="#000000"> 親カテゴリID</text>
<polygon fill="none" stroke="#000000" points="46.5,-196 46.5,-226 387.5,-226 387.5,-196 46.5,-196"/>
<text text-anchor="start" x="53.5" y="-207.4" font-family="Arial" font-size="14.00" fill="#000000">level </text>
<text text-anchor="start" x="86.169" y="-207.4" font-family="Arial" font-size="14.00" fill="#666666">[integer]</text>
<text text-anchor="start" x="136.7384" y="-207.4" font-family="Arial" font-size="14.00" fill="#000000"> 階層</text>
<polygon fill="none" stroke="#000000" points="46.5,-166 46.5,-196 387.5,-196 387.5,-166 46.5,-166"/>
<text text-anchor="start" x="53.5" y="-177.4" font-family="Arial" font-size="14.00" fill="#000000">rank </text>
<text text-anchor="start" x="84.6164" y="-177.4" font-family="Arial" font-size="14.00" fill="#666666">[integer]</text>
<text text-anchor="start" x="135.1858" y="-177.4" font-family="Arial" font-size="14.00" fill="#000000"> 表示順</text>
<polygon fill="none" stroke="#000000" points="46.5,-136 46.5,-166 387.5,-166 387.5,-136 46.5,-136"/>
<text text-anchor="start" x="53.5" y="-147.4" font-family="Arial" font-size="14.00" fill="#000000">creator_id </text>
<text text-anchor="start" x="119.622" y="-147.4" font-family="Arial" font-size="14.00" fill="#666666">[integer]</text>
<text text-anchor="start" x="170.1914" y="-147.4" font-family="Arial" font-size="14.00" fill="#000000"> 作成者ID</text>
<polygon fill="none" stroke="#000000" points="46.5,-106 46.5,-136 387.5,-136 387.5,-106 46.5,-106"/>
<text text-anchor="start" x="53.235" y="-117.4" font-family="Arial" font-size="14.00" fill="#000000">create_date </text>
<text text-anchor="start" x="131.0456" y="-117.4" font-family="Arial" font-size="14.00" fill="#666666">[timestamp without time zone]</text>
<text text-anchor="start" x="316.1858" y="-117.4" font-family="Arial" font-size="14.00" fill="#000000"> 作成日時</text>
<polygon fill="none" stroke="#000000" points="46.5,-76 46.5,-106 387.5,-106 387.5,-76 46.5,-76"/>
<text text-anchor="start" x="53.5" y="-87.4" font-family="Arial" font-size="14.00" fill="#000000">update_date </text>
<text text-anchor="start" x="135.2152" y="-87.4" font-family="Arial" font-size="14.00" fill="#666666">[timestamp without time zone]</text>
<text text-anchor="start" x="320.3554" y="-87.4" font-family="Arial" font-size="14.00" fill="#000000"> 更新日時</text>
<polygon fill="none" stroke="#000000" points="46.5,-46 46.5,-76 387.5,-76 387.5,-46 46.5,-46"/>
<text text-anchor="start" x="53.5" y="-57.4" font-family="Arial" font-size="14.00" fill="#000000">del_flg </text>
<text text-anchor="start" x="98.6248" y="-57.4" font-family="Arial" font-size="14.00" fill="#666666">[smallint]</text>
<text text-anchor="start" x="153.8422" y="-57.4" font-family="Arial" font-size="14.00" fill="#000000"> 削除フラグ</text>
<polygon fill="none" stroke="#000000" stroke-width="3" points="44.5,-44.5 44.5,-363.5 388.5,-363.5 388.5,-44.5 44.5,-44.5"/>
</g>
</g>
</svg>
