<?xml version="1.0" encoding="UTF-8" standalone="no"?>
<!DOCTYPE svg PUBLIC "-//W3C//DTD SVG 1.1//EN"
 "http://www.w3.org/Graphics/SVG/1.1/DTD/svg11.dtd">
<!-- Generated by graphviz version 2.40.1 (20161225.0304)
 -->
<!-- Title: public.mtb_taxrule Pages: 1 -->
<svg width="578pt" height="794pt"
 viewBox="0.00 0.00 578.00 794.00" xmlns="http://www.w3.org/2000/svg" xmlns:xlink="http://www.w3.org/1999/xlink">
<g id="graph0" class="graph" transform="scale(1 1) rotate(0) translate(4 790)">
<title>public.mtb_taxrule</title>
<polygon fill="#ffffff" stroke="transparent" points="-4,4 -4,-790 574,-790 574,4 -4,4"/>
<!-- public.mtb_taxrule -->
<g id="node1" class="node">
<title>public.mtb_taxrule</title>
<polygon fill="#efefef" stroke="transparent" points="183,-136 183,-182 440,-182 440,-136 183,-136"/>
<polygon fill="none" stroke="#000000" points="183,-136 183,-182 440,-182 440,-136 183,-136"/>
<text text-anchor="start" x="189.8615" y="-159.8" font-family="Arial Bold" font-size="18.00" fill="#000000">public.mtb_taxrule</text>
<text text-anchor="start" x="335.8847" y="-159.8" font-family="Arial" font-size="14.00" fill="#000000"> </text>
<text text-anchor="start" x="339.7753" y="-159.8" font-family="Arial" font-size="14.00" fill="#666666">[BASE TABLE]</text>
<text text-anchor="start" x="255.8857" y="-145.4" font-family="Arial" font-size="14.00" fill="#333333">課税規則マスタ</text>
<polygon fill="none" stroke="#000000" points="183,-106 183,-136 440,-136 440,-106 183,-106"/>
<text text-anchor="start" x="190" y="-117.4" font-family="Arial" font-size="14.00" fill="#000000">id </text>
<text text-anchor="start" x="204.7798" y="-117.4" font-family="Arial" font-size="14.00" fill="#666666">[smallint]</text>
<text text-anchor="start" x="259.9972" y="-117.4" font-family="Arial" font-size="14.00" fill="#000000"> ID</text>
<polygon fill="none" stroke="#000000" points="183,-76 183,-106 440,-106 440,-76 183,-76"/>
<text text-anchor="start" x="190" y="-87.4" font-family="Arial" font-size="14.00" fill="#000000">name </text>
<text text-anchor="start" x="228.899" y="-87.4" font-family="Arial" font-size="14.00" fill="#666666">[text]</text>
<text text-anchor="start" x="259.244" y="-87.4" font-family="Arial" font-size="14.00" fill="#000000"> 名称</text>
<polygon fill="none" stroke="#000000" points="183,-46 183,-76 440,-76 440,-46 183,-46"/>
<text text-anchor="start" x="190" y="-57.4" font-family="Arial" font-size="14.00" fill="#000000">rank </text>
<text text-anchor="start" x="221.1164" y="-57.4" font-family="Arial" font-size="14.00" fill="#666666">[smallint]</text>
<text text-anchor="start" x="276.3338" y="-57.4" font-family="Arial" font-size="14.00" fill="#000000"> 表示順</text>
<polygon fill="none" stroke="#000000" stroke-width="3" points="181,-44.5 181,-183.5 441,-183.5 441,-44.5 181,-44.5"/>
</g>
<!-- public.dtb_tax_rule -->
<g id="node2" class="node">
<title>public.dtb_tax_rule</title>
<polygon fill="#efefef" stroke="transparent" points="97,-697 97,-743 527,-743 527,-697 97,-697"/>
<polygon fill="none" stroke="#000000" points="97,-697 97,-743 527,-743 527,-697 97,-697"/>
<text text-anchor="start" x="187.8514" y="-720.8" font-family="Arial Bold" font-size="18.00" fill="#000000">public.dtb_tax_rule</text>
<text text-anchor="start" x="338.8948" y="-720.8" font-family="Arial" font-size="14.00" fill="#000000"> </text>
<text text-anchor="start" x="342.7854" y="-720.8" font-family="Arial" font-size="14.00" fill="#666666">[BASE TABLE]</text>
<text text-anchor="start" x="229.9299" y="-706.4" font-family="Arial" font-size="14.00" fill="#333333">【2.13】消費税ルール</text>
<polygon fill="none" stroke="#000000" points="97,-667 97,-697 527,-697 527,-667 97,-667"/>
<text text-anchor="start" x="104" y="-678.4" font-family="Arial" font-size="14.00" fill="#000000">tax_rule_id </text>
<text text-anchor="start" x="176.3506" y="-678.4" font-family="Arial" font-size="14.00" fill="#666666">[integer]</text>
<text text-anchor="start" x="226.92" y="-678.4" font-family="Arial" font-size="14.00" fill="#000000"> 税率ID</text>
<polygon fill="none" stroke="#000000" points="97,-637 97,-667 527,-667 527,-637 97,-637"/>
<text text-anchor="start" x="104" y="-648.4" font-family="Arial" font-size="14.00" fill="#000000">country_id </text>
<text text-anchor="start" x="172.4614" y="-648.4" font-family="Arial" font-size="14.00" fill="#666666">[integer]</text>
<text text-anchor="start" x="223.0308" y="-648.4" font-family="Arial" font-size="14.00" fill="#000000"> 国ID</text>
<polygon fill="none" stroke="#000000" points="97,-607 97,-637 527,-637 527,-607 97,-607"/>
<text text-anchor="start" x="104" y="-618.4" font-family="Arial" font-size="14.00" fill="#000000">pref_id </text>
<text text-anchor="start" x="150.6788" y="-618.4" font-family="Arial" font-size="14.00" fill="#666666">[integer]</text>
<text text-anchor="start" x="201.2482" y="-618.4" font-family="Arial" font-size="14.00" fill="#000000"> 地域ID</text>
<polygon fill="none" stroke="#000000" points="97,-577 97,-607 527,-607 527,-577 97,-577"/>
<text text-anchor="start" x="104" y="-588.4" font-family="Arial" font-size="14.00" fill="#000000">product_id </text>
<text text-anchor="start" x="173.244" y="-588.4" font-family="Arial" font-size="14.00" fill="#666666">[integer]</text>
<text text-anchor="start" x="223.8134" y="-588.4" font-family="Arial" font-size="14.00" fill="#000000"> 商品ID</text>
<polygon fill="none" stroke="#000000" points="97,-547 97,-577 527,-577 527,-547 97,-547"/>
<text text-anchor="start" x="104" y="-558.4" font-family="Arial" font-size="14.00" fill="#000000">product_class_id </text>
<text text-anchor="start" x="212.9158" y="-558.4" font-family="Arial" font-size="14.00" fill="#666666">[integer]</text>
<text text-anchor="start" x="263.4852" y="-558.4" font-family="Arial" font-size="14.00" fill="#000000"> 商品規格ID</text>
<polygon fill="none" stroke="#000000" points="97,-517 97,-547 527,-547 527,-517 97,-517"/>
<text text-anchor="start" x="103.9152" y="-528.4" font-family="Arial" font-size="14.00" fill="#000000">calc_rule </text>
<text text-anchor="start" x="163.81" y="-528.4" font-family="Arial" font-size="14.00" fill="#666666">[smallint]</text>
<text text-anchor="start" x="219.0274" y="-528.4" font-family="Arial" font-size="14.00" fill="#000000"> 課税規則（四捨五入、切り上げ、切り捨て）</text>
<polygon fill="none" stroke="#000000" points="97,-487 97,-517 527,-517 527,-487 97,-487"/>
<text text-anchor="start" x="104" y="-498.4" font-family="Arial" font-size="14.00" fill="#000000">tax_rate </text>
<text text-anchor="start" x="158.4628" y="-498.4" font-family="Arial" font-size="14.00" fill="#666666">[numeric]</text>
<text text-anchor="start" x="216.0196" y="-498.4" font-family="Arial" font-size="14.00" fill="#000000"> 消費税率</text>
<polygon fill="none" stroke="#000000" points="97,-457 97,-487 527,-487 527,-457 97,-457"/>
<text text-anchor="start" x="104" y="-468.4" font-family="Arial" font-size="14.00" fill="#000000">tax_adjust </text>
<text text-anchor="start" x="171.6914" y="-468.4" font-family="Arial" font-size="14.00" fill="#666666">[numeric]</text>
<text text-anchor="start" x="229.2482" y="-468.4" font-family="Arial" font-size="14.00" fill="#000000"> 固定金額</text>
<polygon fill="none" stroke="#000000" points="97,-427 97,-457 527,-457 527,-427 97,-427"/>
<text text-anchor="start" x="104" y="-438.4" font-family="Arial" font-size="14.00" fill="#000000">apply_date </text>
<text text-anchor="start" x="176.366" y="-438.4" font-family="Arial" font-size="14.00" fill="#666666">[timestamp without time zone]</text>
<text text-anchor="start" x="361.5062" y="-438.4" font-family="Arial" font-size="14.00" fill="#000000"> 適用日</text>
<polygon fill="none" stroke="#000000" points="97,-397 97,-427 527,-427 527,-397 97,-397"/>
<text text-anchor="start" x="104" y="-408.4" font-family="Arial" font-size="14.00" fill="#000000">member_id </text>
<text text-anchor="start" x="177.892" y="-408.4" font-family="Arial" font-size="14.00" fill="#666666">[integer]</text>
<text text-anchor="start" x="228.4614" y="-408.4" font-family="Arial" font-size="14.00" fill="#000000"> 作成者ID</text>
<polygon fill="none" stroke="#000000" points="97,-367 97,-397 527,-397 527,-367 97,-367"/>
<text text-anchor="start" x="104" y="-378.4" font-family="Arial" font-size="14.00" fill="#000000">del_flg </text>
<text text-anchor="start" x="149.1248" y="-378.4" font-family="Arial" font-size="14.00" fill="#666666">[smallint]</text>
<text text-anchor="start" x="204.3422" y="-378.4" font-family="Arial" font-size="14.00" fill="#000000"> 削除フラグ</text>
<polygon fill="none" stroke="#000000" points="97,-337 97,-367 527,-367 527,-337 97,-337"/>
<text text-anchor="start" x="104" y="-348.4" font-family="Arial" font-size="14.00" fill="#000000">create_date </text>
<text text-anchor="start" x="181.8106" y="-348.4" font-family="Arial" font-size="14.00" fill="#666666">[timestamp without time zone]</text>
<text text-anchor="start" x="366.9508" y="-348.4" font-family="Arial" font-size="14.00" fill="#000000"> 作成日時</text>
<polygon fill="none" stroke="#000000" points="97,-307 97,-337 527,-337 527,-307 97,-307"/>
<text text-anchor="start" x="104" y="-318.4" font-family="Arial" font-size="14.00" fill="#000000">update_date </text>
<text text-anchor="start" x="185.7152" y="-318.4" font-family="Arial" font-size="14.00" fill="#666666">[timestamp without time zone]</text>
<text text-anchor="start" x="370.8554" y="-318.4" font-family="Arial" font-size="14.00" fill="#000000"> 更新日時</text>
</g>
<!-- public.dtb_tax_rule&#45;&gt;public.mtb_taxrule -->
<g id="edge1" class="edge">
<title>public.dtb_tax_rule:calc_rule&#45;&gt;public.mtb_taxrule:id</title>
<path fill="none" stroke="#000000" stroke-dasharray="5,2" d="M87.0408,-529.6288C39.9041,-505.5639 59.5593,-305.576 97,-264 148.2869,-207.0485 388.7131,-284.9515 440,-228 471.8235,-192.6617 487.5556,-121 440,-121"/>
<polygon fill="#000000" stroke="#000000" points="87.2719,-529.6838 95.9577,-536.3776 92.136,-530.8419 97,-532 97,-532 97,-532 92.136,-530.8419 98.0423,-527.6224 87.2719,-529.6838 87.2719,-529.6838"/>
<text text-anchor="start" x="7.3245" y="-542" font-family="Arial" font-size="10.00" fill="#000000">Additional Relation</text>
</g>
</g>
</svg>
