<?xml version="1.0" encoding="UTF-8" standalone="no"?>
<!DOCTYPE svg PUBLIC "-//W3C//DTD SVG 1.1//EN"
 "http://www.w3.org/Graphics/SVG/1.1/DTD/svg11.dtd">
<!-- Generated by graphviz version 2.40.1 (20161225.0304)
 -->
<!-- Title: public.mtb_job Pages: 1 -->
<svg width="327pt" height="225pt"
 viewBox="0.00 0.00 327.00 225.00" xmlns="http://www.w3.org/2000/svg" xmlns:xlink="http://www.w3.org/1999/xlink">
<g id="graph0" class="graph" transform="scale(1 1) rotate(0) translate(4 221)">
<title>public.mtb_job</title>
<polygon fill="#ffffff" stroke="transparent" points="-4,4 -4,-221 323,-221 323,4 -4,4"/>
<!-- public.mtb_job -->
<g id="node1" class="node">
<title>public.mtb_job</title>
<polygon fill="#efefef" stroke="transparent" points="46.5,-135.5 46.5,-170.5 273.5,-170.5 273.5,-135.5 46.5,-135.5"/>
<polygon fill="none" stroke="#000000" points="46.5,-135.5 46.5,-170.5 273.5,-170.5 273.5,-135.5 46.5,-135.5"/>
<text text-anchor="start" x="53.3618" y="-148.3" font-family="Arial Bold" font-size="18.00" fill="#000000">public.mtb_job</text>
<text text-anchor="start" x="169.3844" y="-148.3" font-family="Arial" font-size="14.00" fill="#000000"> </text>
<text text-anchor="start" x="173.275" y="-148.3" font-family="Arial" font-size="14.00" fill="#666666">[BASE TABLE]</text>
<polygon fill="none" stroke="#000000" points="46.5,-105.5 46.5,-135.5 273.5,-135.5 273.5,-105.5 46.5,-105.5"/>
<text text-anchor="start" x="53.5" y="-116.9" font-family="Arial" font-size="14.00" fill="#000000">id </text>
<text text-anchor="start" x="68.2798" y="-116.9" font-family="Arial" font-size="14.00" fill="#666666">[smallint]</text>
<polygon fill="none" stroke="#000000" points="46.5,-75.5 46.5,-105.5 273.5,-105.5 273.5,-75.5 46.5,-75.5"/>
<text text-anchor="start" x="53.5" y="-86.9" font-family="Arial" font-size="14.00" fill="#000000">name </text>
<text text-anchor="start" x="92.399" y="-86.9" font-family="Arial" font-size="14.00" fill="#666666">[text]</text>
<polygon fill="none" stroke="#000000" points="46.5,-45.5 46.5,-75.5 273.5,-75.5 273.5,-45.5 46.5,-45.5"/>
<text text-anchor="start" x="53.5" y="-56.9" font-family="Arial" font-size="14.00" fill="#000000">rank </text>
<text text-anchor="start" x="84.6164" y="-56.9" font-family="Arial" font-size="14.00" fill="#666666">[smallint]</text>
<polygon fill="none" stroke="#000000" stroke-width="3" points="44.5,-44.5 44.5,-172.5 274.5,-172.5 274.5,-44.5 44.5,-44.5"/>
</g>
</g>
</svg>
