<?xml version="1.0" encoding="UTF-8" standalone="no"?>
<!DOCTYPE svg PUBLIC "-//W3C//DTD SVG 1.1//EN"
 "http://www.w3.org/Graphics/SVG/1.1/DTD/svg11.dtd">
<!-- Generated by graphviz version 2.40.1 (20161225.0304)
 -->
<!-- Title: public.dtb_plugin_hookpoint Pages: 1 -->
<svg width="472pt" height="356pt"
 viewBox="0.00 0.00 472.00 356.00" xmlns="http://www.w3.org/2000/svg" xmlns:xlink="http://www.w3.org/1999/xlink">
<g id="graph0" class="graph" transform="scale(1 1) rotate(0) translate(4 352)">
<title>public.dtb_plugin_hookpoint</title>
<polygon fill="#ffffff" stroke="transparent" points="-4,4 -4,-352 468,-352 468,4 -4,4"/>
<!-- public.dtb_plugin_hookpoint -->
<g id="node1" class="node">
<title>public.dtb_plugin_hookpoint</title>
<polygon fill="#efefef" stroke="transparent" points="46,-256 46,-302 418,-302 418,-256 46,-256"/>
<polygon fill="none" stroke="#000000" points="46,-256 46,-302 418,-302 418,-256 46,-256"/>
<text text-anchor="start" x="71.8316" y="-279.8" font-family="Arial Bold" font-size="18.00" fill="#000000">public.dtb_plugin_hookpoint</text>
<text text-anchor="start" x="294.9146" y="-279.8" font-family="Arial" font-size="14.00" fill="#000000"> </text>
<text text-anchor="start" x="298.8052" y="-279.8" font-family="Arial" font-size="14.00" fill="#666666">[BASE TABLE]</text>
<text text-anchor="start" x="150.9575" y="-265.4" font-family="Arial" font-size="14.00" fill="#333333">プラグインフックポイント</text>
<polygon fill="none" stroke="#000000" points="46,-226 46,-256 418,-256 418,-226 46,-226"/>
<text text-anchor="start" x="52.5382" y="-237.4" font-family="Arial" font-size="14.00" fill="#000000">plugin_hookpoint_id </text>
<text text-anchor="start" x="180.9196" y="-237.4" font-family="Arial" font-size="14.00" fill="#666666">[integer]</text>
<text text-anchor="start" x="231.489" y="-237.4" font-family="Arial" font-size="14.00" fill="#000000"> プラグインフックポイントID</text>
<polygon fill="none" stroke="#000000" points="46,-196 46,-226 418,-226 418,-196 46,-196"/>
<text text-anchor="start" x="53" y="-207.4" font-family="Arial" font-size="14.00" fill="#000000">plugin_id </text>
<text text-anchor="start" x="112.906" y="-207.4" font-family="Arial" font-size="14.00" fill="#666666">[integer]</text>
<text text-anchor="start" x="163.4754" y="-207.4" font-family="Arial" font-size="14.00" fill="#000000"> プラグインID</text>
<polygon fill="none" stroke="#000000" points="46,-166 46,-196 418,-196 418,-166 46,-166"/>
<text text-anchor="start" x="53" y="-177.4" font-family="Arial" font-size="14.00" fill="#000000">hook_point </text>
<text text-anchor="start" x="125.366" y="-177.4" font-family="Arial" font-size="14.00" fill="#666666">[text]</text>
<text text-anchor="start" x="155.711" y="-177.4" font-family="Arial" font-size="14.00" fill="#000000"> フックポイント</text>
<polygon fill="none" stroke="#000000" points="46,-136 46,-166 418,-166 418,-136 46,-136"/>
<text text-anchor="start" x="53" y="-147.4" font-family="Arial" font-size="14.00" fill="#000000">callback </text>
<text text-anchor="start" x="107.4516" y="-147.4" font-family="Arial" font-size="14.00" fill="#666666">[text]</text>
<text text-anchor="start" x="137.7966" y="-147.4" font-family="Arial" font-size="14.00" fill="#000000"> コールバック関数</text>
<polygon fill="none" stroke="#000000" points="46,-106 46,-136 418,-136 418,-106 46,-106"/>
<text text-anchor="start" x="53" y="-117.4" font-family="Arial" font-size="14.00" fill="#000000">use_flg </text>
<text text-anchor="start" x="102.0182" y="-117.4" font-family="Arial" font-size="14.00" fill="#666666">[smallint]</text>
<text text-anchor="start" x="157.2356" y="-117.4" font-family="Arial" font-size="14.00" fill="#000000"> 【2.13】利用フラグ</text>
<polygon fill="none" stroke="#000000" points="46,-76 46,-106 418,-106 418,-76 46,-76"/>
<text text-anchor="start" x="53" y="-87.4" font-family="Arial" font-size="14.00" fill="#000000">create_date </text>
<text text-anchor="start" x="130.8106" y="-87.4" font-family="Arial" font-size="14.00" fill="#666666">[timestamp without time zone]</text>
<text text-anchor="start" x="315.9508" y="-87.4" font-family="Arial" font-size="14.00" fill="#000000"> 作成日時</text>
<polygon fill="none" stroke="#000000" points="46,-46 46,-76 418,-76 418,-46 46,-46"/>
<text text-anchor="start" x="53" y="-57.4" font-family="Arial" font-size="14.00" fill="#000000">update_date </text>
<text text-anchor="start" x="134.7152" y="-57.4" font-family="Arial" font-size="14.00" fill="#666666">[timestamp without time zone]</text>
<text text-anchor="start" x="319.8554" y="-57.4" font-family="Arial" font-size="14.00" fill="#000000"> 更新日時</text>
<polygon fill="none" stroke="#000000" stroke-width="3" points="44.5,-44.5 44.5,-303.5 419.5,-303.5 419.5,-44.5 44.5,-44.5"/>
</g>
</g>
</svg>
