<?xml version="1.0" encoding="UTF-8" standalone="no"?>
<!DOCTYPE svg PUBLIC "-//W3C//DTD SVG 1.1//EN"
 "http://www.w3.org/Graphics/SVG/1.1/DTD/svg11.dtd">
<!-- Generated by graphviz version 2.40.1 (20161225.0304)
 -->
<!-- Title: public.dtb_send_history Pages: 1 -->
<svg width="519pt" height="1124pt"
 viewBox="0.00 0.00 518.50 1124.00" xmlns="http://www.w3.org/2000/svg" xmlns:xlink="http://www.w3.org/1999/xlink">
<g id="graph0" class="graph" transform="scale(1 1) rotate(0) translate(4 1120)">
<title>public.dtb_send_history</title>
<polygon fill="#ffffff" stroke="transparent" points="-4,4 -4,-1120 514.5,-1120 514.5,4 -4,4"/>
<!-- public.dtb_send_history -->
<g id="node1" class="node">
<title>public.dtb_send_history</title>
<polygon fill="#efefef" stroke="transparent" points="97,-1024 97,-1070 463,-1070 463,-1024 97,-1024"/>
<polygon fill="none" stroke="#000000" points="97,-1024 97,-1070 463,-1070 463,-1024 97,-1024"/>
<text text-anchor="start" x="136.8452" y="-1047.8" font-family="Arial Bold" font-size="18.00" fill="#000000">public.dtb_send_history</text>
<text text-anchor="start" x="325.901" y="-1047.8" font-family="Arial" font-size="14.00" fill="#000000"> </text>
<text text-anchor="start" x="329.7916" y="-1047.8" font-family="Arial" font-size="14.00" fill="#666666">[BASE TABLE]</text>
<text text-anchor="start" x="219.338" y="-1033.4" font-family="Arial" font-size="14.00" fill="#333333">メール送信履歴</text>
<polygon fill="none" stroke="#000000" points="97,-994 97,-1024 463,-1024 463,-994 97,-994"/>
<text text-anchor="start" x="104" y="-1005.4" font-family="Arial" font-size="14.00" fill="#000000">send_id </text>
<text text-anchor="start" x="156.9102" y="-1005.4" font-family="Arial" font-size="14.00" fill="#666666">[integer]</text>
<text text-anchor="start" x="207.4796" y="-1005.4" font-family="Arial" font-size="14.00" fill="#000000"> 送信ID</text>
<polygon fill="none" stroke="#000000" points="97,-964 97,-994 463,-994 463,-964 97,-964"/>
<text text-anchor="start" x="104" y="-975.4" font-family="Arial" font-size="14.00" fill="#000000">mail_method </text>
<text text-anchor="start" x="188.0112" y="-975.4" font-family="Arial" font-size="14.00" fill="#666666">[smallint]</text>
<text text-anchor="start" x="243.2286" y="-975.4" font-family="Arial" font-size="14.00" fill="#000000"> メール送信方法</text>
<polygon fill="none" stroke="#000000" points="97,-934 97,-964 463,-964 463,-934 97,-934"/>
<text text-anchor="start" x="104" y="-945.4" font-family="Arial" font-size="14.00" fill="#000000">subject </text>
<text text-anchor="start" x="152.2356" y="-945.4" font-family="Arial" font-size="14.00" fill="#666666">[text]</text>
<text text-anchor="start" x="182.5806" y="-945.4" font-family="Arial" font-size="14.00" fill="#000000"> 件名</text>
<polygon fill="none" stroke="#000000" points="97,-904 97,-934 463,-934 463,-904 97,-904"/>
<text text-anchor="start" x="104" y="-915.4" font-family="Arial" font-size="14.00" fill="#000000">body </text>
<text text-anchor="start" x="138.2384" y="-915.4" font-family="Arial" font-size="14.00" fill="#666666">[text]</text>
<text text-anchor="start" x="168.5834" y="-915.4" font-family="Arial" font-size="14.00" fill="#000000"> 本文</text>
<polygon fill="none" stroke="#000000" points="97,-874 97,-904 463,-904 463,-874 97,-874"/>
<text text-anchor="start" x="104" y="-885.4" font-family="Arial" font-size="14.00" fill="#000000">send_count </text>
<text text-anchor="start" x="180.2594" y="-885.4" font-family="Arial" font-size="14.00" fill="#666666">[integer]</text>
<text text-anchor="start" x="230.8288" y="-885.4" font-family="Arial" font-size="14.00" fill="#000000"> 送信数</text>
<polygon fill="none" stroke="#000000" points="97,-844 97,-874 463,-874 463,-844 97,-844"/>
<text text-anchor="start" x="104" y="-855.4" font-family="Arial" font-size="14.00" fill="#000000">complete_count </text>
<text text-anchor="start" x="206.6998" y="-855.4" font-family="Arial" font-size="14.00" fill="#666666">[integer]</text>
<text text-anchor="start" x="257.2692" y="-855.4" font-family="Arial" font-size="14.00" fill="#000000"> 送信完了数</text>
<polygon fill="none" stroke="#000000" points="97,-814 97,-844 463,-844 463,-814 97,-814"/>
<text text-anchor="start" x="103.7932" y="-825.4" font-family="Arial" font-size="14.00" fill="#000000">start_date </text>
<text text-anchor="start" x="169.9292" y="-825.4" font-family="Arial" font-size="14.00" fill="#666666">[timestamp without time zone]</text>
<text text-anchor="start" x="355.0694" y="-825.4" font-family="Arial" font-size="14.00" fill="#000000"> 送信開始日時</text>
<polygon fill="none" stroke="#000000" points="97,-784 97,-814 463,-814 463,-784 97,-784"/>
<text text-anchor="start" x="104" y="-795.4" font-family="Arial" font-size="14.00" fill="#000000">end_date </text>
<text text-anchor="start" x="166.2594" y="-795.4" font-family="Arial" font-size="14.00" fill="#666666">[timestamp without time zone]</text>
<text text-anchor="start" x="351.3996" y="-795.4" font-family="Arial" font-size="14.00" fill="#000000"> 送信完了日時</text>
<polygon fill="none" stroke="#000000" points="97,-754 97,-784 463,-784 463,-754 97,-754"/>
<text text-anchor="start" x="104" y="-765.4" font-family="Arial" font-size="14.00" fill="#000000">search_data </text>
<text text-anchor="start" x="184.92" y="-765.4" font-family="Arial" font-size="14.00" fill="#666666">[text]</text>
<text text-anchor="start" x="215.265" y="-765.4" font-family="Arial" font-size="14.00" fill="#000000"> 検索データ</text>
<polygon fill="none" stroke="#000000" points="97,-724 97,-754 463,-754 463,-724 97,-724"/>
<text text-anchor="start" x="104" y="-735.4" font-family="Arial" font-size="14.00" fill="#000000">del_flg </text>
<text text-anchor="start" x="149.1248" y="-735.4" font-family="Arial" font-size="14.00" fill="#666666">[smallint]</text>
<text text-anchor="start" x="204.3422" y="-735.4" font-family="Arial" font-size="14.00" fill="#000000"> 削除フラグ</text>
<polygon fill="none" stroke="#000000" points="97,-694 97,-724 463,-724 463,-694 97,-694"/>
<text text-anchor="start" x="104" y="-705.4" font-family="Arial" font-size="14.00" fill="#000000">creator_id </text>
<text text-anchor="start" x="170.122" y="-705.4" font-family="Arial" font-size="14.00" fill="#666666">[integer]</text>
<text text-anchor="start" x="220.6914" y="-705.4" font-family="Arial" font-size="14.00" fill="#000000"> 作成者ID</text>
<polygon fill="none" stroke="#000000" points="97,-664 97,-694 463,-694 463,-664 97,-664"/>
<text text-anchor="start" x="104" y="-675.4" font-family="Arial" font-size="14.00" fill="#000000">create_date </text>
<text text-anchor="start" x="181.8106" y="-675.4" font-family="Arial" font-size="14.00" fill="#666666">[timestamp without time zone]</text>
<text text-anchor="start" x="366.9508" y="-675.4" font-family="Arial" font-size="14.00" fill="#000000"> 作成日時</text>
<polygon fill="none" stroke="#000000" points="97,-634 97,-664 463,-664 463,-634 97,-634"/>
<text text-anchor="start" x="104" y="-645.4" font-family="Arial" font-size="14.00" fill="#000000">update_date </text>
<text text-anchor="start" x="185.7152" y="-645.4" font-family="Arial" font-size="14.00" fill="#666666">[timestamp without time zone]</text>
<text text-anchor="start" x="370.8554" y="-645.4" font-family="Arial" font-size="14.00" fill="#000000"> 更新日時</text>
<polygon fill="none" stroke="#000000" stroke-width="3" points="95.5,-632.5 95.5,-1071.5 464.5,-1071.5 464.5,-632.5 95.5,-632.5"/>
</g>
<!-- public.dtb_member -->
<g id="node2" class="node">
<title>public.dtb_member</title>
<polygon fill="#efefef" stroke="transparent" points="91,-463 91,-509 468,-509 468,-463 91,-463"/>
<polygon fill="none" stroke="#000000" points="91,-463 91,-509 468,-509 468,-463 91,-463"/>
<text text-anchor="start" x="154.3605" y="-486.8" font-family="Arial Bold" font-size="18.00" fill="#000000">public.dtb_member</text>
<text text-anchor="start" x="307.3857" y="-486.8" font-family="Arial" font-size="14.00" fill="#000000"> </text>
<text text-anchor="start" x="311.2763" y="-486.8" font-family="Arial" font-size="14.00" fill="#666666">[BASE TABLE]</text>
<text text-anchor="start" x="199.9016" y="-472.4" font-family="Arial" font-size="14.00" fill="#333333">管理画面メンバー情報</text>
<polygon fill="none" stroke="#000000" points="91,-433 91,-463 468,-463 468,-433 91,-433"/>
<text text-anchor="start" x="98" y="-444.4" font-family="Arial" font-size="14.00" fill="#000000">member_id </text>
<text text-anchor="start" x="171.892" y="-444.4" font-family="Arial" font-size="14.00" fill="#666666">[integer]</text>
<text text-anchor="start" x="222.4614" y="-444.4" font-family="Arial" font-size="14.00" fill="#000000"> メンバーID</text>
<polygon fill="none" stroke="#000000" points="91,-403 91,-433 468,-433 468,-403 91,-403"/>
<text text-anchor="start" x="98" y="-414.4" font-family="Arial" font-size="14.00" fill="#000000">name </text>
<text text-anchor="start" x="136.899" y="-414.4" font-family="Arial" font-size="14.00" fill="#666666">[text]</text>
<text text-anchor="start" x="167.244" y="-414.4" font-family="Arial" font-size="14.00" fill="#000000"> 名前</text>
<polygon fill="none" stroke="#000000" points="91,-373 91,-403 468,-403 468,-373 91,-373"/>
<text text-anchor="start" x="98" y="-384.4" font-family="Arial" font-size="14.00" fill="#000000">department </text>
<text text-anchor="start" x="172.6886" y="-384.4" font-family="Arial" font-size="14.00" fill="#666666">[text]</text>
<text text-anchor="start" x="203.0336" y="-384.4" font-family="Arial" font-size="14.00" fill="#000000"> 部門</text>
<polygon fill="none" stroke="#000000" points="91,-343 91,-373 468,-373 468,-343 91,-343"/>
<text text-anchor="start" x="98" y="-354.4" font-family="Arial" font-size="14.00" fill="#000000">login_id </text>
<text text-anchor="start" x="150.1234" y="-354.4" font-family="Arial" font-size="14.00" fill="#666666">[text]</text>
<text text-anchor="start" x="180.4684" y="-354.4" font-family="Arial" font-size="14.00" fill="#000000"> ログインID</text>
<polygon fill="none" stroke="#000000" points="91,-313 91,-343 468,-343 468,-313 91,-313"/>
<text text-anchor="start" x="98" y="-324.4" font-family="Arial" font-size="14.00" fill="#000000">password </text>
<text text-anchor="start" x="161.7882" y="-324.4" font-family="Arial" font-size="14.00" fill="#666666">[text]</text>
<text text-anchor="start" x="192.1332" y="-324.4" font-family="Arial" font-size="14.00" fill="#000000"> パスワード</text>
<polygon fill="none" stroke="#000000" points="91,-283 91,-313 468,-313 468,-283 91,-283"/>
<text text-anchor="start" x="98" y="-294.4" font-family="Arial" font-size="14.00" fill="#000000">salt </text>
<text text-anchor="start" x="123.6704" y="-294.4" font-family="Arial" font-size="14.00" fill="#666666">[text]</text>
<text text-anchor="start" x="154.0154" y="-294.4" font-family="Arial" font-size="14.00" fill="#000000"> 暗号化付与文字列</text>
<polygon fill="none" stroke="#000000" points="91,-253 91,-283 468,-283 468,-253 91,-253"/>
<text text-anchor="start" x="98" y="-264.4" font-family="Arial" font-size="14.00" fill="#000000">authority </text>
<text text-anchor="start" x="155.5694" y="-264.4" font-family="Arial" font-size="14.00" fill="#666666">[smallint]</text>
<text text-anchor="start" x="210.7868" y="-264.4" font-family="Arial" font-size="14.00" fill="#000000"> 権限</text>
<polygon fill="none" stroke="#000000" points="91,-223 91,-253 468,-253 468,-223 91,-223"/>
<text text-anchor="start" x="98" y="-234.4" font-family="Arial" font-size="14.00" fill="#000000">rank </text>
<text text-anchor="start" x="129.1164" y="-234.4" font-family="Arial" font-size="14.00" fill="#666666">[integer]</text>
<text text-anchor="start" x="179.6858" y="-234.4" font-family="Arial" font-size="14.00" fill="#000000"> 表示順</text>
<polygon fill="none" stroke="#000000" points="91,-193 91,-223 468,-223 468,-193 91,-193"/>
<text text-anchor="start" x="98" y="-204.4" font-family="Arial" font-size="14.00" fill="#000000">work </text>
<text text-anchor="start" x="131.4404" y="-204.4" font-family="Arial" font-size="14.00" fill="#666666">[smallint]</text>
<text text-anchor="start" x="186.6578" y="-204.4" font-family="Arial" font-size="14.00" fill="#000000"> 稼動フラグ</text>
<polygon fill="none" stroke="#000000" points="91,-163 91,-193 468,-193 468,-163 91,-163"/>
<text text-anchor="start" x="98" y="-174.4" font-family="Arial" font-size="14.00" fill="#000000">del_flg </text>
<text text-anchor="start" x="143.1248" y="-174.4" font-family="Arial" font-size="14.00" fill="#666666">[smallint]</text>
<text text-anchor="start" x="198.3422" y="-174.4" font-family="Arial" font-size="14.00" fill="#000000"> 削除フラグ</text>
<polygon fill="none" stroke="#000000" points="91,-133 91,-163 468,-163 468,-133 91,-133"/>
<text text-anchor="start" x="98" y="-144.4" font-family="Arial" font-size="14.00" fill="#000000">creator_id </text>
<text text-anchor="start" x="164.122" y="-144.4" font-family="Arial" font-size="14.00" fill="#666666">[integer]</text>
<text text-anchor="start" x="214.6914" y="-144.4" font-family="Arial" font-size="14.00" fill="#000000"> 作成者ID</text>
<polygon fill="none" stroke="#000000" points="91,-103 91,-133 468,-133 468,-103 91,-103"/>
<text text-anchor="start" x="98" y="-114.4" font-family="Arial" font-size="14.00" fill="#000000">create_date </text>
<text text-anchor="start" x="175.8106" y="-114.4" font-family="Arial" font-size="14.00" fill="#666666">[timestamp without time zone]</text>
<text text-anchor="start" x="360.9508" y="-114.4" font-family="Arial" font-size="14.00" fill="#000000"> 作成日時</text>
<polygon fill="none" stroke="#000000" points="91,-73 91,-103 468,-103 468,-73 91,-73"/>
<text text-anchor="start" x="98" y="-84.4" font-family="Arial" font-size="14.00" fill="#000000">update_date </text>
<text text-anchor="start" x="179.7152" y="-84.4" font-family="Arial" font-size="14.00" fill="#666666">[timestamp without time zone]</text>
<text text-anchor="start" x="364.8554" y="-84.4" font-family="Arial" font-size="14.00" fill="#000000"> 更新日付</text>
<polygon fill="none" stroke="#000000" points="91,-43 91,-73 468,-73 468,-43 91,-43"/>
<text text-anchor="start" x="97.9851" y="-54.4" font-family="Arial" font-size="14.00" fill="#000000">login_date </text>
<text text-anchor="start" x="166.4577" y="-54.4" font-family="Arial" font-size="14.00" fill="#666666">[timestamp without time zone]</text>
<text text-anchor="start" x="351.5979" y="-54.4" font-family="Arial" font-size="14.00" fill="#000000"> 最終ログイン日時</text>
</g>
<!-- public.dtb_send_history&#45;&gt;public.dtb_member -->
<g id="edge1" class="edge">
<title>public.dtb_send_history:creator_id&#45;&gt;public.dtb_member:member_id</title>
<path fill="none" stroke="#000000" stroke-dasharray="5,2" d="M86.9556,-707.9011C45.7196,-698.0945 63.3271,-625.0985 97,-588 152.6706,-526.6659 412.3294,-613.3341 468,-552 499.0656,-517.774 514.2222,-448 468,-448"/>
<polygon fill="#000000" stroke="#000000" points="87.0593,-707.9124 96.5106,-713.4733 92.0297,-708.4562 97,-709 97,-709 97,-709 92.0297,-708.4562 97.4894,-704.5267 87.0593,-707.9124 87.0593,-707.9124"/>
<text text-anchor="start" x="7.3245" y="-719" font-family="Arial" font-size="10.00" fill="#000000">Additional Relation</text>
</g>
</g>
</svg>
