<?xml version="1.0" encoding="UTF-8" standalone="no"?>
<!DOCTYPE svg PUBLIC "-//W3C//DTD SVG 1.1//EN"
 "http://www.w3.org/Graphics/SVG/1.1/DTD/svg11.dtd">
<!-- Generated by graphviz version 2.40.1 (20161225.0304)
 -->
<!-- Title: public.dtb_blocposition Pages: 1 -->
<svg width="425pt" height="326pt"
 viewBox="0.00 0.00 425.00 326.00" xmlns="http://www.w3.org/2000/svg" xmlns:xlink="http://www.w3.org/1999/xlink">
<g id="graph0" class="graph" transform="scale(1 1) rotate(0) translate(4 322)">
<title>public.dtb_blocposition</title>
<polygon fill="#ffffff" stroke="transparent" points="-4,4 -4,-322 421,-322 421,4 -4,4"/>
<!-- public.dtb_blocposition -->
<g id="node1" class="node">
<title>public.dtb_blocposition</title>
<polygon fill="#efefef" stroke="transparent" points="46.5,-226 46.5,-272 371.5,-272 371.5,-226 46.5,-226"/>
<polygon fill="none" stroke="#000000" points="46.5,-226 46.5,-272 371.5,-272 371.5,-226 46.5,-226"/>
<text text-anchor="start" x="69.3471" y="-249.8" font-family="Arial Bold" font-size="18.00" fill="#000000">public.dtb_blocposition</text>
<text text-anchor="start" x="251.3991" y="-249.8" font-family="Arial" font-size="14.00" fill="#000000"> </text>
<text text-anchor="start" x="255.2897" y="-249.8" font-family="Arial" font-size="14.00" fill="#666666">[BASE TABLE]</text>
<text text-anchor="start" x="145.7417" y="-235.4" font-family="Arial" font-size="14.00" fill="#333333">ブロック配置情報</text>
<polygon fill="none" stroke="#000000" points="46.5,-196 46.5,-226 371.5,-226 371.5,-196 46.5,-196"/>
<text text-anchor="start" x="53.5" y="-207.4" font-family="Arial" font-size="14.00" fill="#000000">device_type_id </text>
<text text-anchor="start" x="150.7552" y="-207.4" font-family="Arial" font-size="14.00" fill="#666666">[integer]</text>
<text text-anchor="start" x="201.3246" y="-207.4" font-family="Arial" font-size="14.00" fill="#000000"> 端末種別ID</text>
<polygon fill="none" stroke="#000000" points="46.5,-166 46.5,-196 371.5,-196 371.5,-166 46.5,-166"/>
<text text-anchor="start" x="53.5" y="-177.4" font-family="Arial" font-size="14.00" fill="#000000">page_id </text>
<text text-anchor="start" x="107.1928" y="-177.4" font-family="Arial" font-size="14.00" fill="#666666">[integer]</text>
<text text-anchor="start" x="157.7622" y="-177.4" font-family="Arial" font-size="14.00" fill="#000000"> ページID</text>
<polygon fill="none" stroke="#000000" points="46.5,-136 46.5,-166 371.5,-166 371.5,-136 46.5,-136"/>
<text text-anchor="start" x="53.5" y="-147.4" font-family="Arial" font-size="14.00" fill="#000000">target_id </text>
<text text-anchor="start" x="111.852" y="-147.4" font-family="Arial" font-size="14.00" fill="#666666">[integer]</text>
<text text-anchor="start" x="162.4214" y="-147.4" font-family="Arial" font-size="14.00" fill="#000000"> 配置ID</text>
<polygon fill="none" stroke="#000000" points="46.5,-106 46.5,-136 371.5,-136 371.5,-106 46.5,-106"/>
<text text-anchor="start" x="53.5" y="-117.4" font-family="Arial" font-size="14.00" fill="#000000">bloc_id </text>
<text text-anchor="start" x="101.7342" y="-117.4" font-family="Arial" font-size="14.00" fill="#666666">[integer]</text>
<text text-anchor="start" x="152.3036" y="-117.4" font-family="Arial" font-size="14.00" fill="#000000"> ブロックID</text>
<polygon fill="none" stroke="#000000" points="46.5,-76 46.5,-106 371.5,-106 371.5,-76 46.5,-76"/>
<text text-anchor="start" x="53.5" y="-87.4" font-family="Arial" font-size="14.00" fill="#000000">bloc_row </text>
<text text-anchor="start" x="113.3948" y="-87.4" font-family="Arial" font-size="14.00" fill="#666666">[integer]</text>
<text text-anchor="start" x="163.9642" y="-87.4" font-family="Arial" font-size="14.00" fill="#000000"> ブロック配置順序</text>
<polygon fill="none" stroke="#000000" points="46.5,-46 46.5,-76 371.5,-76 371.5,-46 46.5,-46"/>
<text text-anchor="start" x="53.2787" y="-57.4" font-family="Arial" font-size="14.00" fill="#000000">anywhere </text>
<text text-anchor="start" x="117.8495" y="-57.4" font-family="Arial" font-size="14.00" fill="#666666">[smallint]</text>
<text text-anchor="start" x="173.0669" y="-57.4" font-family="Arial" font-size="14.00" fill="#000000"> 全ページに配置するフラグ</text>
<polygon fill="none" stroke="#000000" stroke-width="3" points="44.5,-44.5 44.5,-273.5 372.5,-273.5 372.5,-44.5 44.5,-44.5"/>
</g>
</g>
</svg>
