<?xml version="1.0" encoding="UTF-8" standalone="no"?>
<!DOCTYPE svg PUBLIC "-//W3C//DTD SVG 1.1//EN"
 "http://www.w3.org/Graphics/SVG/1.1/DTD/svg11.dtd">
<!-- Generated by graphviz version 2.40.1 (20161225.0304)
 -->
<!-- Title: public.dtb_order_detail Pages: 1 -->
<svg width="393pt" height="536pt"
 viewBox="0.00 0.00 393.00 536.00" xmlns="http://www.w3.org/2000/svg" xmlns:xlink="http://www.w3.org/1999/xlink">
<g id="graph0" class="graph" transform="scale(1 1) rotate(0) translate(4 532)">
<title>public.dtb_order_detail</title>
<polygon fill="#ffffff" stroke="transparent" points="-4,4 -4,-532 389,-532 389,4 -4,4"/>
<!-- public.dtb_order_detail -->
<g id="node1" class="node">
<title>public.dtb_order_detail</title>
<polygon fill="#efefef" stroke="transparent" points="46.5,-436 46.5,-482 339.5,-482 339.5,-436 46.5,-436"/>
<polygon fill="none" stroke="#000000" points="46.5,-436 46.5,-482 339.5,-482 339.5,-436 46.5,-436"/>
<text text-anchor="start" x="53.3489" y="-459.8" font-family="Arial Bold" font-size="18.00" fill="#000000">public.dtb_order_detail</text>
<text text-anchor="start" x="235.3973" y="-459.8" font-family="Arial" font-size="14.00" fill="#000000"> </text>
<text text-anchor="start" x="239.2879" y="-459.8" font-family="Arial" font-size="14.00" fill="#666666">[BASE TABLE]</text>
<text text-anchor="start" x="148.8636" y="-445.4" font-family="Arial" font-size="14.00" fill="#333333">受注詳細情報</text>
<polygon fill="none" stroke="#000000" points="46.5,-406 46.5,-436 339.5,-436 339.5,-406 46.5,-406"/>
<text text-anchor="start" x="53.5" y="-417.4" font-family="Arial" font-size="14.00" fill="#000000">order_detail_id </text>
<text text-anchor="start" x="149.9656" y="-417.4" font-family="Arial" font-size="14.00" fill="#666666">[integer]</text>
<text text-anchor="start" x="200.535" y="-417.4" font-family="Arial" font-size="14.00" fill="#000000"> 受注詳細ID</text>
<polygon fill="none" stroke="#000000" points="46.5,-376 46.5,-406 339.5,-406 339.5,-376 46.5,-376"/>
<text text-anchor="start" x="53.5" y="-387.4" font-family="Arial" font-size="14.00" fill="#000000">order_id </text>
<text text-anchor="start" x="108.7314" y="-387.4" font-family="Arial" font-size="14.00" fill="#666666">[integer]</text>
<text text-anchor="start" x="159.3008" y="-387.4" font-family="Arial" font-size="14.00" fill="#000000"> 受注ID</text>
<polygon fill="none" stroke="#000000" points="46.5,-346 46.5,-376 339.5,-376 339.5,-346 46.5,-346"/>
<text text-anchor="start" x="53.5" y="-357.4" font-family="Arial" font-size="14.00" fill="#000000">product_id </text>
<text text-anchor="start" x="122.744" y="-357.4" font-family="Arial" font-size="14.00" fill="#666666">[integer]</text>
<text text-anchor="start" x="173.3134" y="-357.4" font-family="Arial" font-size="14.00" fill="#000000"> 商品ID</text>
<polygon fill="none" stroke="#000000" points="46.5,-316 46.5,-346 339.5,-346 339.5,-316 46.5,-316"/>
<text text-anchor="start" x="53.5" y="-327.4" font-family="Arial" font-size="14.00" fill="#000000">product_class_id </text>
<text text-anchor="start" x="162.4158" y="-327.4" font-family="Arial" font-size="14.00" fill="#666666">[integer]</text>
<text text-anchor="start" x="212.9852" y="-327.4" font-family="Arial" font-size="14.00" fill="#000000"> 商品規格ID</text>
<polygon fill="none" stroke="#000000" points="46.5,-286 46.5,-316 339.5,-316 339.5,-286 46.5,-286"/>
<text text-anchor="start" x="53.5" y="-297.4" font-family="Arial" font-size="14.00" fill="#000000">product_name </text>
<text text-anchor="start" x="146.8632" y="-297.4" font-family="Arial" font-size="14.00" fill="#666666">[text]</text>
<text text-anchor="start" x="177.2082" y="-297.4" font-family="Arial" font-size="14.00" fill="#000000"> 商品名</text>
<polygon fill="none" stroke="#000000" points="46.5,-256 46.5,-286 339.5,-286 339.5,-256 46.5,-256"/>
<text text-anchor="start" x="53.5" y="-267.4" font-family="Arial" font-size="14.00" fill="#000000">product_code </text>
<text text-anchor="start" x="142.2026" y="-267.4" font-family="Arial" font-size="14.00" fill="#666666">[text]</text>
<text text-anchor="start" x="172.5476" y="-267.4" font-family="Arial" font-size="14.00" fill="#000000"> 商品コード</text>
<polygon fill="none" stroke="#000000" points="46.5,-226 46.5,-256 339.5,-256 339.5,-226 46.5,-226"/>
<text text-anchor="start" x="53.5" y="-237.4" font-family="Arial" font-size="14.00" fill="#000000">classcategory_name1 </text>
<text text-anchor="start" x="193.535" y="-237.4" font-family="Arial" font-size="14.00" fill="#666666">[text]</text>
<text text-anchor="start" x="223.88" y="-237.4" font-family="Arial" font-size="14.00" fill="#000000"> 商品規格名1</text>
<polygon fill="none" stroke="#000000" points="46.5,-196 46.5,-226 339.5,-226 339.5,-196 46.5,-196"/>
<text text-anchor="start" x="53.5" y="-207.4" font-family="Arial" font-size="14.00" fill="#000000">classcategory_name2 </text>
<text text-anchor="start" x="193.535" y="-207.4" font-family="Arial" font-size="14.00" fill="#666666">[text]</text>
<text text-anchor="start" x="223.88" y="-207.4" font-family="Arial" font-size="14.00" fill="#000000"> 商品規格名2</text>
<polygon fill="none" stroke="#000000" points="46.5,-166 46.5,-196 339.5,-196 339.5,-166 46.5,-166"/>
<text text-anchor="start" x="53.5" y="-177.4" font-family="Arial" font-size="14.00" fill="#000000">price </text>
<text text-anchor="start" x="87.723" y="-177.4" font-family="Arial" font-size="14.00" fill="#666666">[numeric]</text>
<text text-anchor="start" x="145.2798" y="-177.4" font-family="Arial" font-size="14.00" fill="#000000"> 価格</text>
<polygon fill="none" stroke="#000000" points="46.5,-136 46.5,-166 339.5,-166 339.5,-136 46.5,-136"/>
<text text-anchor="start" x="53.5" y="-147.4" font-family="Arial" font-size="14.00" fill="#000000">quantity </text>
<text text-anchor="start" x="106.4088" y="-147.4" font-family="Arial" font-size="14.00" fill="#666666">[numeric]</text>
<text text-anchor="start" x="163.9656" y="-147.4" font-family="Arial" font-size="14.00" fill="#000000"> 個数</text>
<polygon fill="none" stroke="#000000" points="46.5,-106 46.5,-136 339.5,-136 339.5,-106 46.5,-106"/>
<text text-anchor="start" x="53.5" y="-117.4" font-family="Arial" font-size="14.00" fill="#000000">point_rate </text>
<text text-anchor="start" x="119.6346" y="-117.4" font-family="Arial" font-size="14.00" fill="#666666">[numeric]</text>
<text text-anchor="start" x="177.1914" y="-117.4" font-family="Arial" font-size="14.00" fill="#000000"> ポイント付与率</text>
<polygon fill="none" stroke="#000000" points="46.5,-76 46.5,-106 339.5,-106 339.5,-76 46.5,-76"/>
<text text-anchor="start" x="53.5" y="-87.4" font-family="Arial" font-size="14.00" fill="#000000">tax_rate </text>
<text text-anchor="start" x="107.9628" y="-87.4" font-family="Arial" font-size="14.00" fill="#666666">[numeric]</text>
<text text-anchor="start" x="165.5196" y="-87.4" font-family="Arial" font-size="14.00" fill="#000000"> 【2.13】消費税率</text>
<polygon fill="none" stroke="#000000" points="46.5,-46 46.5,-76 339.5,-76 339.5,-46 46.5,-46"/>
<text text-anchor="start" x="53.5" y="-57.4" font-family="Arial" font-size="14.00" fill="#000000">tax_rule </text>
<text text-anchor="start" x="107.1788" y="-57.4" font-family="Arial" font-size="14.00" fill="#666666">[smallint]</text>
<text text-anchor="start" x="162.3962" y="-57.4" font-family="Arial" font-size="14.00" fill="#000000"> 【2.13】課税規則</text>
<polygon fill="none" stroke="#000000" stroke-width="3" points="44.5,-44.5 44.5,-483.5 340.5,-483.5 340.5,-44.5 44.5,-44.5"/>
</g>
</g>
</svg>
