<?xml version="1.0" encoding="UTF-8" standalone="no"?>
<!DOCTYPE svg PUBLIC "-//W3C//DTD SVG 1.1//EN"
 "http://www.w3.org/Graphics/SVG/1.1/DTD/svg11.dtd">
<!-- Generated by graphviz version 2.40.1 (20161225.0304)
 -->
<!-- Title: public.dtb_news Pages: 1 -->
<svg width="514pt" height="1094pt"
 viewBox="0.00 0.00 513.50 1094.00" xmlns="http://www.w3.org/2000/svg" xmlns:xlink="http://www.w3.org/1999/xlink">
<g id="graph0" class="graph" transform="scale(1 1) rotate(0) translate(4 1090)">
<title>public.dtb_news</title>
<polygon fill="#ffffff" stroke="transparent" points="-4,4 -4,-1090 509.5,-1090 509.5,4 -4,4"/>
<!-- public.dtb_news -->
<g id="node1" class="node">
<title>public.dtb_news</title>
<polygon fill="#efefef" stroke="transparent" points="97,-994 97,-1040 453,-1040 453,-994 97,-994"/>
<polygon fill="none" stroke="#000000" points="97,-994 97,-1040 453,-1040 453,-994 97,-994"/>
<text text-anchor="start" x="161.8548" y="-1017.8" font-family="Arial Bold" font-size="18.00" fill="#000000">public.dtb_news</text>
<text text-anchor="start" x="290.8914" y="-1017.8" font-family="Arial" font-size="14.00" fill="#000000"> </text>
<text text-anchor="start" x="294.782" y="-1017.8" font-family="Arial" font-size="14.00" fill="#666666">[BASE TABLE]</text>
<text text-anchor="start" x="249.7104" y="-1003.4" font-family="Arial" font-size="14.00" fill="#333333">新着情報</text>
<polygon fill="none" stroke="#000000" points="97,-964 97,-994 453,-994 453,-964 97,-964"/>
<text text-anchor="start" x="104" y="-975.4" font-family="Arial" font-size="14.00" fill="#000000">news_id </text>
<text text-anchor="start" x="159.2342" y="-975.4" font-family="Arial" font-size="14.00" fill="#666666">[integer]</text>
<text text-anchor="start" x="209.8036" y="-975.4" font-family="Arial" font-size="14.00" fill="#000000"> 新着情報ID</text>
<polygon fill="none" stroke="#000000" points="97,-934 97,-964 453,-964 453,-934 97,-934"/>
<text text-anchor="start" x="103.8395" y="-945.4" font-family="Arial" font-size="14.00" fill="#000000">news_date </text>
<text text-anchor="start" x="175.4229" y="-945.4" font-family="Arial" font-size="14.00" fill="#666666">[timestamp without time zone]</text>
<text text-anchor="start" x="360.5631" y="-945.4" font-family="Arial" font-size="14.00" fill="#000000"> 新着情報日付</text>
<polygon fill="none" stroke="#000000" points="97,-904 97,-934 453,-934 453,-904 97,-904"/>
<text text-anchor="start" x="104" y="-915.4" font-family="Arial" font-size="14.00" fill="#000000">rank </text>
<text text-anchor="start" x="135.1164" y="-915.4" font-family="Arial" font-size="14.00" fill="#666666">[integer]</text>
<text text-anchor="start" x="185.6858" y="-915.4" font-family="Arial" font-size="14.00" fill="#000000"> 表示順</text>
<polygon fill="none" stroke="#000000" points="97,-874 97,-904 453,-904 453,-874 97,-874"/>
<text text-anchor="start" x="104" y="-885.4" font-family="Arial" font-size="14.00" fill="#000000">news_title </text>
<text text-anchor="start" x="170.122" y="-885.4" font-family="Arial" font-size="14.00" fill="#666666">[text]</text>
<text text-anchor="start" x="200.467" y="-885.4" font-family="Arial" font-size="14.00" fill="#000000"> 新着情報タイトル</text>
<polygon fill="none" stroke="#000000" points="97,-844 97,-874 453,-874 453,-844 97,-844"/>
<text text-anchor="start" x="104" y="-855.4" font-family="Arial" font-size="14.00" fill="#000000">news_comment </text>
<text text-anchor="start" x="205.9046" y="-855.4" font-family="Arial" font-size="14.00" fill="#666666">[text]</text>
<text text-anchor="start" x="236.2496" y="-855.4" font-family="Arial" font-size="14.00" fill="#000000"> 新着情報コメント</text>
<polygon fill="none" stroke="#000000" points="97,-814 97,-844 453,-844 453,-814 97,-814"/>
<text text-anchor="start" x="104" y="-825.4" font-family="Arial" font-size="14.00" fill="#000000">news_url </text>
<text text-anchor="start" x="163.8948" y="-825.4" font-family="Arial" font-size="14.00" fill="#666666">[text]</text>
<text text-anchor="start" x="194.2398" y="-825.4" font-family="Arial" font-size="14.00" fill="#000000"> 新着情報URL</text>
<polygon fill="none" stroke="#000000" points="97,-784 97,-814 453,-814 453,-784 97,-784"/>
<text text-anchor="start" x="104" y="-795.4" font-family="Arial" font-size="14.00" fill="#000000">news_select </text>
<text text-anchor="start" x="184.9074" y="-795.4" font-family="Arial" font-size="14.00" fill="#666666">[smallint]</text>
<text text-anchor="start" x="240.1248" y="-795.4" font-family="Arial" font-size="14.00" fill="#000000"> 不明（未使用？）</text>
<polygon fill="none" stroke="#000000" points="97,-754 97,-784 453,-784 453,-754 97,-754"/>
<text text-anchor="start" x="104" y="-765.4" font-family="Arial" font-size="14.00" fill="#000000">link_method </text>
<text text-anchor="start" x="183.3506" y="-765.4" font-family="Arial" font-size="14.00" fill="#666666">[text]</text>
<text text-anchor="start" x="213.6956" y="-765.4" font-family="Arial" font-size="14.00" fill="#000000"> 別ウィンドウで開くフラグ</text>
<polygon fill="none" stroke="#000000" points="97,-724 97,-754 453,-754 453,-724 97,-724"/>
<text text-anchor="start" x="104" y="-735.4" font-family="Arial" font-size="14.00" fill="#000000">creator_id </text>
<text text-anchor="start" x="170.122" y="-735.4" font-family="Arial" font-size="14.00" fill="#666666">[integer]</text>
<text text-anchor="start" x="220.6914" y="-735.4" font-family="Arial" font-size="14.00" fill="#000000"> 作成者ID</text>
<polygon fill="none" stroke="#000000" points="97,-694 97,-724 453,-724 453,-694 97,-694"/>
<text text-anchor="start" x="104" y="-705.4" font-family="Arial" font-size="14.00" fill="#000000">create_date </text>
<text text-anchor="start" x="181.8106" y="-705.4" font-family="Arial" font-size="14.00" fill="#666666">[timestamp without time zone]</text>
<text text-anchor="start" x="366.9508" y="-705.4" font-family="Arial" font-size="14.00" fill="#000000"> 作成日時</text>
<polygon fill="none" stroke="#000000" points="97,-664 97,-694 453,-694 453,-664 97,-664"/>
<text text-anchor="start" x="104" y="-675.4" font-family="Arial" font-size="14.00" fill="#000000">update_date </text>
<text text-anchor="start" x="185.7152" y="-675.4" font-family="Arial" font-size="14.00" fill="#666666">[timestamp without time zone]</text>
<text text-anchor="start" x="370.8554" y="-675.4" font-family="Arial" font-size="14.00" fill="#000000"> 更新日時</text>
<polygon fill="none" stroke="#000000" points="97,-634 97,-664 453,-664 453,-634 97,-634"/>
<text text-anchor="start" x="104" y="-645.4" font-family="Arial" font-size="14.00" fill="#000000">del_flg </text>
<text text-anchor="start" x="149.1248" y="-645.4" font-family="Arial" font-size="14.00" fill="#666666">[smallint]</text>
<text text-anchor="start" x="204.3422" y="-645.4" font-family="Arial" font-size="14.00" fill="#000000"> 削除フラグ</text>
<polygon fill="none" stroke="#000000" stroke-width="3" points="95.5,-632.5 95.5,-1041.5 454.5,-1041.5 454.5,-632.5 95.5,-632.5"/>
</g>
<!-- public.dtb_member -->
<g id="node2" class="node">
<title>public.dtb_member</title>
<polygon fill="#efefef" stroke="transparent" points="86,-463 86,-509 463,-509 463,-463 86,-463"/>
<polygon fill="none" stroke="#000000" points="86,-463 86,-509 463,-509 463,-463 86,-463"/>
<text text-anchor="start" x="149.3605" y="-486.8" font-family="Arial Bold" font-size="18.00" fill="#000000">public.dtb_member</text>
<text text-anchor="start" x="302.3857" y="-486.8" font-family="Arial" font-size="14.00" fill="#000000"> </text>
<text text-anchor="start" x="306.2763" y="-486.8" font-family="Arial" font-size="14.00" fill="#666666">[BASE TABLE]</text>
<text text-anchor="start" x="194.9016" y="-472.4" font-family="Arial" font-size="14.00" fill="#333333">管理画面メンバー情報</text>
<polygon fill="none" stroke="#000000" points="86,-433 86,-463 463,-463 463,-433 86,-433"/>
<text text-anchor="start" x="93" y="-444.4" font-family="Arial" font-size="14.00" fill="#000000">member_id </text>
<text text-anchor="start" x="166.892" y="-444.4" font-family="Arial" font-size="14.00" fill="#666666">[integer]</text>
<text text-anchor="start" x="217.4614" y="-444.4" font-family="Arial" font-size="14.00" fill="#000000"> メンバーID</text>
<polygon fill="none" stroke="#000000" points="86,-403 86,-433 463,-433 463,-403 86,-403"/>
<text text-anchor="start" x="93" y="-414.4" font-family="Arial" font-size="14.00" fill="#000000">name </text>
<text text-anchor="start" x="131.899" y="-414.4" font-family="Arial" font-size="14.00" fill="#666666">[text]</text>
<text text-anchor="start" x="162.244" y="-414.4" font-family="Arial" font-size="14.00" fill="#000000"> 名前</text>
<polygon fill="none" stroke="#000000" points="86,-373 86,-403 463,-403 463,-373 86,-373"/>
<text text-anchor="start" x="93" y="-384.4" font-family="Arial" font-size="14.00" fill="#000000">department </text>
<text text-anchor="start" x="167.6886" y="-384.4" font-family="Arial" font-size="14.00" fill="#666666">[text]</text>
<text text-anchor="start" x="198.0336" y="-384.4" font-family="Arial" font-size="14.00" fill="#000000"> 部門</text>
<polygon fill="none" stroke="#000000" points="86,-343 86,-373 463,-373 463,-343 86,-343"/>
<text text-anchor="start" x="93" y="-354.4" font-family="Arial" font-size="14.00" fill="#000000">login_id </text>
<text text-anchor="start" x="145.1234" y="-354.4" font-family="Arial" font-size="14.00" fill="#666666">[text]</text>
<text text-anchor="start" x="175.4684" y="-354.4" font-family="Arial" font-size="14.00" fill="#000000"> ログインID</text>
<polygon fill="none" stroke="#000000" points="86,-313 86,-343 463,-343 463,-313 86,-313"/>
<text text-anchor="start" x="93" y="-324.4" font-family="Arial" font-size="14.00" fill="#000000">password </text>
<text text-anchor="start" x="156.7882" y="-324.4" font-family="Arial" font-size="14.00" fill="#666666">[text]</text>
<text text-anchor="start" x="187.1332" y="-324.4" font-family="Arial" font-size="14.00" fill="#000000"> パスワード</text>
<polygon fill="none" stroke="#000000" points="86,-283 86,-313 463,-313 463,-283 86,-283"/>
<text text-anchor="start" x="93" y="-294.4" font-family="Arial" font-size="14.00" fill="#000000">salt </text>
<text text-anchor="start" x="118.6704" y="-294.4" font-family="Arial" font-size="14.00" fill="#666666">[text]</text>
<text text-anchor="start" x="149.0154" y="-294.4" font-family="Arial" font-size="14.00" fill="#000000"> 暗号化付与文字列</text>
<polygon fill="none" stroke="#000000" points="86,-253 86,-283 463,-283 463,-253 86,-253"/>
<text text-anchor="start" x="93" y="-264.4" font-family="Arial" font-size="14.00" fill="#000000">authority </text>
<text text-anchor="start" x="150.5694" y="-264.4" font-family="Arial" font-size="14.00" fill="#666666">[smallint]</text>
<text text-anchor="start" x="205.7868" y="-264.4" font-family="Arial" font-size="14.00" fill="#000000"> 権限</text>
<polygon fill="none" stroke="#000000" points="86,-223 86,-253 463,-253 463,-223 86,-223"/>
<text text-anchor="start" x="93" y="-234.4" font-family="Arial" font-size="14.00" fill="#000000">rank </text>
<text text-anchor="start" x="124.1164" y="-234.4" font-family="Arial" font-size="14.00" fill="#666666">[integer]</text>
<text text-anchor="start" x="174.6858" y="-234.4" font-family="Arial" font-size="14.00" fill="#000000"> 表示順</text>
<polygon fill="none" stroke="#000000" points="86,-193 86,-223 463,-223 463,-193 86,-193"/>
<text text-anchor="start" x="93" y="-204.4" font-family="Arial" font-size="14.00" fill="#000000">work </text>
<text text-anchor="start" x="126.4404" y="-204.4" font-family="Arial" font-size="14.00" fill="#666666">[smallint]</text>
<text text-anchor="start" x="181.6578" y="-204.4" font-family="Arial" font-size="14.00" fill="#000000"> 稼動フラグ</text>
<polygon fill="none" stroke="#000000" points="86,-163 86,-193 463,-193 463,-163 86,-163"/>
<text text-anchor="start" x="93" y="-174.4" font-family="Arial" font-size="14.00" fill="#000000">del_flg </text>
<text text-anchor="start" x="138.1248" y="-174.4" font-family="Arial" font-size="14.00" fill="#666666">[smallint]</text>
<text text-anchor="start" x="193.3422" y="-174.4" font-family="Arial" font-size="14.00" fill="#000000"> 削除フラグ</text>
<polygon fill="none" stroke="#000000" points="86,-133 86,-163 463,-163 463,-133 86,-133"/>
<text text-anchor="start" x="93" y="-144.4" font-family="Arial" font-size="14.00" fill="#000000">creator_id </text>
<text text-anchor="start" x="159.122" y="-144.4" font-family="Arial" font-size="14.00" fill="#666666">[integer]</text>
<text text-anchor="start" x="209.6914" y="-144.4" font-family="Arial" font-size="14.00" fill="#000000"> 作成者ID</text>
<polygon fill="none" stroke="#000000" points="86,-103 86,-133 463,-133 463,-103 86,-103"/>
<text text-anchor="start" x="93" y="-114.4" font-family="Arial" font-size="14.00" fill="#000000">create_date </text>
<text text-anchor="start" x="170.8106" y="-114.4" font-family="Arial" font-size="14.00" fill="#666666">[timestamp without time zone]</text>
<text text-anchor="start" x="355.9508" y="-114.4" font-family="Arial" font-size="14.00" fill="#000000"> 作成日時</text>
<polygon fill="none" stroke="#000000" points="86,-73 86,-103 463,-103 463,-73 86,-73"/>
<text text-anchor="start" x="93" y="-84.4" font-family="Arial" font-size="14.00" fill="#000000">update_date </text>
<text text-anchor="start" x="174.7152" y="-84.4" font-family="Arial" font-size="14.00" fill="#666666">[timestamp without time zone]</text>
<text text-anchor="start" x="359.8554" y="-84.4" font-family="Arial" font-size="14.00" fill="#000000"> 更新日付</text>
<polygon fill="none" stroke="#000000" points="86,-43 86,-73 463,-73 463,-43 86,-43"/>
<text text-anchor="start" x="92.9851" y="-54.4" font-family="Arial" font-size="14.00" fill="#000000">login_date </text>
<text text-anchor="start" x="161.4577" y="-54.4" font-family="Arial" font-size="14.00" fill="#666666">[timestamp without time zone]</text>
<text text-anchor="start" x="346.5979" y="-54.4" font-family="Arial" font-size="14.00" fill="#000000"> 最終ログイン日時</text>
</g>
<!-- public.dtb_news&#45;&gt;public.dtb_member -->
<g id="edge1" class="edge">
<title>public.dtb_news:creator_id&#45;&gt;public.dtb_member:member_id</title>
<path fill="none" stroke="#000000" stroke-dasharray="5,2" d="M86.7786,-738.1163C32.3683,-728.077 54.3926,-635.0039 97,-588 151.8876,-527.4487 408.1124,-612.5513 463,-552 494.0432,-517.7536 509.2222,-448 463,-448"/>
<polygon fill="#000000" stroke="#000000" points="87.0372,-738.1386 96.6124,-743.4833 92.0186,-738.5693 97,-739 97,-739 97,-739 92.0186,-738.5693 97.3876,-734.5167 87.0372,-738.1386 87.0372,-738.1386"/>
<text text-anchor="start" x="7.3245" y="-749" font-family="Arial" font-size="10.00" fill="#000000">Additional Relation</text>
</g>
</g>
</svg>
