<?xml version="1.0" encoding="UTF-8" standalone="no"?>
<!DOCTYPE svg PUBLIC "-//W3C//DTD SVG 1.1//EN"
 "http://www.w3.org/Graphics/SVG/1.1/DTD/svg11.dtd">
<!-- Generated by graphviz version 2.40.1 (20161225.0304)
 -->
<!-- Title: public.dtb_deliv Pages: 1 -->
<svg width="380pt" height="495pt"
 viewBox="0.00 0.00 380.00 495.00" xmlns="http://www.w3.org/2000/svg" xmlns:xlink="http://www.w3.org/1999/xlink">
<g id="graph0" class="graph" transform="scale(1 1) rotate(0) translate(4 491)">
<title>public.dtb_deliv</title>
<polygon fill="#ffffff" stroke="transparent" points="-4,4 -4,-491 376,-491 376,4 -4,4"/>
<!-- public.dtb_deliv -->
<g id="node1" class="node">
<title>public.dtb_deliv</title>
<polygon fill="#efefef" stroke="transparent" points="46,-405.5 46,-440.5 326,-440.5 326,-405.5 46,-405.5"/>
<polygon fill="none" stroke="#000000" points="46,-405.5 46,-440.5 326,-440.5 326,-405.5 46,-405.5"/>
<text text-anchor="start" x="75.3577" y="-418.3" font-family="Arial Bold" font-size="18.00" fill="#000000">public.dtb_deliv</text>
<text text-anchor="start" x="199.3885" y="-418.3" font-family="Arial" font-size="14.00" fill="#000000"> </text>
<text text-anchor="start" x="203.2791" y="-418.3" font-family="Arial" font-size="14.00" fill="#666666">[BASE TABLE]</text>
<polygon fill="none" stroke="#000000" points="46,-375.5 46,-405.5 326,-405.5 326,-375.5 46,-375.5"/>
<text text-anchor="start" x="53" y="-386.9" font-family="Arial" font-size="14.00" fill="#000000">deliv_id </text>
<text text-anchor="start" x="104.3408" y="-386.9" font-family="Arial" font-size="14.00" fill="#666666">[integer]</text>
<polygon fill="none" stroke="#000000" points="46,-345.5 46,-375.5 326,-375.5 326,-345.5 46,-345.5"/>
<text text-anchor="start" x="53" y="-356.9" font-family="Arial" font-size="14.00" fill="#000000">product_type_id </text>
<text text-anchor="start" x="156.4824" y="-356.9" font-family="Arial" font-size="14.00" fill="#666666">[integer]</text>
<polygon fill="none" stroke="#000000" points="46,-315.5 46,-345.5 326,-345.5 326,-315.5 46,-315.5"/>
<text text-anchor="start" x="53" y="-326.9" font-family="Arial" font-size="14.00" fill="#000000">name </text>
<text text-anchor="start" x="91.899" y="-326.9" font-family="Arial" font-size="14.00" fill="#666666">[text]</text>
<polygon fill="none" stroke="#000000" points="46,-285.5 46,-315.5 326,-315.5 326,-285.5 46,-285.5"/>
<text text-anchor="start" x="53" y="-296.9" font-family="Arial" font-size="14.00" fill="#000000">service_name </text>
<text text-anchor="start" x="144.014" y="-296.9" font-family="Arial" font-size="14.00" fill="#666666">[text]</text>
<polygon fill="none" stroke="#000000" points="46,-255.5 46,-285.5 326,-285.5 326,-255.5 46,-255.5"/>
<text text-anchor="start" x="53" y="-266.9" font-family="Arial" font-size="14.00" fill="#000000">remark </text>
<text text-anchor="start" x="100.4376" y="-266.9" font-family="Arial" font-size="14.00" fill="#666666">[text]</text>
<polygon fill="none" stroke="#000000" points="46,-225.5 46,-255.5 326,-255.5 326,-225.5 46,-225.5"/>
<text text-anchor="start" x="53" y="-236.9" font-family="Arial" font-size="14.00" fill="#000000">confirm_url </text>
<text text-anchor="start" x="126.1066" y="-236.9" font-family="Arial" font-size="14.00" fill="#666666">[text]</text>
<polygon fill="none" stroke="#000000" points="46,-195.5 46,-225.5 326,-225.5 326,-195.5 46,-195.5"/>
<text text-anchor="start" x="53" y="-206.9" font-family="Arial" font-size="14.00" fill="#000000">rank </text>
<text text-anchor="start" x="84.1164" y="-206.9" font-family="Arial" font-size="14.00" fill="#666666">[integer]</text>
<polygon fill="none" stroke="#000000" points="46,-165.5 46,-195.5 326,-195.5 326,-165.5 46,-165.5"/>
<text text-anchor="start" x="53" y="-176.9" font-family="Arial" font-size="14.00" fill="#000000">status </text>
<text text-anchor="start" x="94.237" y="-176.9" font-family="Arial" font-size="14.00" fill="#666666">[smallint]</text>
<polygon fill="none" stroke="#000000" points="46,-135.5 46,-165.5 326,-165.5 326,-135.5 46,-135.5"/>
<text text-anchor="start" x="53" y="-146.9" font-family="Arial" font-size="14.00" fill="#000000">del_flg </text>
<text text-anchor="start" x="98.1248" y="-146.9" font-family="Arial" font-size="14.00" fill="#666666">[smallint]</text>
<polygon fill="none" stroke="#000000" points="46,-105.5 46,-135.5 326,-135.5 326,-105.5 46,-105.5"/>
<text text-anchor="start" x="53" y="-116.9" font-family="Arial" font-size="14.00" fill="#000000">creator_id </text>
<text text-anchor="start" x="119.122" y="-116.9" font-family="Arial" font-size="14.00" fill="#666666">[integer]</text>
<polygon fill="none" stroke="#000000" points="46,-75.5 46,-105.5 326,-105.5 326,-75.5 46,-75.5"/>
<text text-anchor="start" x="53" y="-86.9" font-family="Arial" font-size="14.00" fill="#000000">create_date </text>
<text text-anchor="start" x="130.8106" y="-86.9" font-family="Arial" font-size="14.00" fill="#666666">[timestamp without time zone]</text>
<polygon fill="none" stroke="#000000" points="46,-45.5 46,-75.5 326,-75.5 326,-45.5 46,-45.5"/>
<text text-anchor="start" x="52.5723" y="-56.9" font-family="Arial" font-size="14.00" fill="#000000">update_date </text>
<text text-anchor="start" x="134.2875" y="-56.9" font-family="Arial" font-size="14.00" fill="#666666">[timestamp without time zone]</text>
<polygon fill="none" stroke="#000000" stroke-width="3" points="44.5,-44.5 44.5,-442.5 327.5,-442.5 327.5,-44.5 44.5,-44.5"/>
</g>
</g>
</svg>
