<?xml version="1.0" encoding="UTF-8" standalone="no"?>
<!DOCTYPE svg PUBLIC "-//W3C//DTD SVG 1.1//EN"
 "http://www.w3.org/Graphics/SVG/1.1/DTD/svg11.dtd">
<!-- Generated by graphviz version 2.40.1 (20161225.0304)
 -->
<!-- Title: public.dtb_mobile_ext_session_id Pages: 1 -->
<svg width="480pt" height="296pt"
 viewBox="0.00 0.00 480.00 296.00" xmlns="http://www.w3.org/2000/svg" xmlns:xlink="http://www.w3.org/1999/xlink">
<g id="graph0" class="graph" transform="scale(1 1) rotate(0) translate(4 292)">
<title>public.dtb_mobile_ext_session_id</title>
<polygon fill="#ffffff" stroke="transparent" points="-4,4 -4,-292 476,-292 476,4 -4,4"/>
<!-- public.dtb_mobile_ext_session_id -->
<g id="node1" class="node">
<title>public.dtb_mobile_ext_session_id</title>
<polygon fill="#efefef" stroke="transparent" points="46,-196 46,-242 426,-242 426,-196 46,-196"/>
<polygon fill="none" stroke="#000000" points="46,-196 46,-242 426,-242 426,-196 46,-196"/>
<text text-anchor="start" x="52.8384" y="-219.8" font-family="Arial Bold" font-size="18.00" fill="#000000">public.dtb_mobile_ext_session_id</text>
<text text-anchor="start" x="321.9078" y="-219.8" font-family="Arial" font-size="14.00" fill="#000000"> </text>
<text text-anchor="start" x="325.7984" y="-219.8" font-family="Arial" font-size="14.00" fill="#666666">[BASE TABLE]</text>
<text text-anchor="start" x="154.6061" y="-205.4" font-family="Arial" font-size="14.00" fill="#333333">モバイルセッション情報</text>
<polygon fill="none" stroke="#000000" points="46,-166 46,-196 426,-196 426,-166 46,-166"/>
<text text-anchor="start" x="53" y="-177.4" font-family="Arial" font-size="14.00" fill="#000000">session_id </text>
<text text-anchor="start" x="123.0168" y="-177.4" font-family="Arial" font-size="14.00" fill="#666666">[text]</text>
<text text-anchor="start" x="153.3618" y="-177.4" font-family="Arial" font-size="14.00" fill="#000000"> セッションID</text>
<polygon fill="none" stroke="#000000" points="46,-136 46,-166 426,-166 426,-136 46,-136"/>
<text text-anchor="start" x="53" y="-147.4" font-family="Arial" font-size="14.00" fill="#000000">param_key </text>
<text text-anchor="start" x="126.1248" y="-147.4" font-family="Arial" font-size="14.00" fill="#666666">[text]</text>
<text text-anchor="start" x="156.4698" y="-147.4" font-family="Arial" font-size="14.00" fill="#000000"> パラメータキー</text>
<polygon fill="none" stroke="#000000" points="46,-106 46,-136 426,-136 426,-106 46,-106"/>
<text text-anchor="start" x="53" y="-117.4" font-family="Arial" font-size="14.00" fill="#000000">param_value </text>
<text text-anchor="start" x="137.7966" y="-117.4" font-family="Arial" font-size="14.00" fill="#666666">[text]</text>
<text text-anchor="start" x="168.1416" y="-117.4" font-family="Arial" font-size="14.00" fill="#000000"> パラメータ値</text>
<polygon fill="none" stroke="#000000" points="46,-76 46,-106 426,-106 426,-76 46,-76"/>
<text text-anchor="start" x="53" y="-87.4" font-family="Arial" font-size="14.00" fill="#000000">url </text>
<text text-anchor="start" x="72.4404" y="-87.4" font-family="Arial" font-size="14.00" fill="#666666">[text]</text>
<text text-anchor="start" x="102.7854" y="-87.4" font-family="Arial" font-size="14.00" fill="#000000"> URL</text>
<polygon fill="none" stroke="#000000" points="46,-46 46,-76 426,-76 426,-46 46,-46"/>
<text text-anchor="start" x="53" y="-57.4" font-family="Arial" font-size="14.00" fill="#000000">create_date </text>
<text text-anchor="start" x="130.8106" y="-57.4" font-family="Arial" font-size="14.00" fill="#666666">[timestamp without time zone]</text>
<text text-anchor="start" x="315.9508" y="-57.4" font-family="Arial" font-size="14.00" fill="#000000"> 作成日時</text>
<polygon fill="none" stroke="#000000" stroke-width="3" points="44.5,-44.5 44.5,-243.5 427.5,-243.5 427.5,-44.5 44.5,-44.5"/>
</g>
</g>
</svg>
