<?xml version="1.0" encoding="UTF-8" standalone="no"?>
<!DOCTYPE svg PUBLIC "-//W3C//DTD SVG 1.1//EN"
 "http://www.w3.org/Graphics/SVG/1.1/DTD/svg11.dtd">
<!-- Generated by graphviz version 2.40.1 (20161225.0304)
 -->
<!-- Title: public.dtb_session Pages: 1 -->
<svg width="441pt" height="266pt"
 viewBox="0.00 0.00 441.00 266.00" xmlns="http://www.w3.org/2000/svg" xmlns:xlink="http://www.w3.org/1999/xlink">
<g id="graph0" class="graph" transform="scale(1 1) rotate(0) translate(4 262)">
<title>public.dtb_session</title>
<polygon fill="#ffffff" stroke="transparent" points="-4,4 -4,-262 437,-262 437,4 -4,4"/>
<!-- public.dtb_session -->
<g id="node1" class="node">
<title>public.dtb_session</title>
<polygon fill="#efefef" stroke="transparent" points="46.5,-166 46.5,-212 387.5,-212 387.5,-166 46.5,-166"/>
<polygon fill="none" stroke="#000000" points="46.5,-166 46.5,-212 387.5,-212 387.5,-166 46.5,-166"/>
<text text-anchor="start" x="94.3517" y="-189.8" font-family="Arial Bold" font-size="18.00" fill="#000000">public.dtb_session</text>
<text text-anchor="start" x="242.3945" y="-189.8" font-family="Arial" font-size="14.00" fill="#000000"> </text>
<text text-anchor="start" x="246.2851" y="-189.8" font-family="Arial" font-size="14.00" fill="#666666">[BASE TABLE]</text>
<text text-anchor="start" x="164.6407" y="-175.4" font-family="Arial" font-size="14.00" fill="#333333">セッション情報</text>
<polygon fill="none" stroke="#000000" points="46.5,-136 46.5,-166 387.5,-166 387.5,-136 46.5,-136"/>
<text text-anchor="start" x="53.5" y="-147.4" font-family="Arial" font-size="14.00" fill="#000000">sess_id </text>
<text text-anchor="start" x="104.845" y="-147.4" font-family="Arial" font-size="14.00" fill="#666666">[text]</text>
<text text-anchor="start" x="135.19" y="-147.4" font-family="Arial" font-size="14.00" fill="#000000"> セッションID</text>
<polygon fill="none" stroke="#000000" points="46.5,-106 46.5,-136 387.5,-136 387.5,-106 46.5,-106"/>
<text text-anchor="start" x="53.5" y="-117.4" font-family="Arial" font-size="14.00" fill="#000000">sess_data </text>
<text text-anchor="start" x="121.1942" y="-117.4" font-family="Arial" font-size="14.00" fill="#666666">[text]</text>
<text text-anchor="start" x="151.5392" y="-117.4" font-family="Arial" font-size="14.00" fill="#000000"> セッションデータ</text>
<polygon fill="none" stroke="#000000" points="46.5,-76 46.5,-106 387.5,-106 387.5,-76 46.5,-76"/>
<text text-anchor="start" x="53.235" y="-87.4" font-family="Arial" font-size="14.00" fill="#000000">create_date </text>
<text text-anchor="start" x="131.0456" y="-87.4" font-family="Arial" font-size="14.00" fill="#666666">[timestamp without time zone]</text>
<text text-anchor="start" x="316.1858" y="-87.4" font-family="Arial" font-size="14.00" fill="#000000"> 作成日時</text>
<polygon fill="none" stroke="#000000" points="46.5,-46 46.5,-76 387.5,-76 387.5,-46 46.5,-46"/>
<text text-anchor="start" x="53.5" y="-57.4" font-family="Arial" font-size="14.00" fill="#000000">update_date </text>
<text text-anchor="start" x="135.2152" y="-57.4" font-family="Arial" font-size="14.00" fill="#666666">[timestamp without time zone]</text>
<text text-anchor="start" x="320.3554" y="-57.4" font-family="Arial" font-size="14.00" fill="#000000"> 更新日時</text>
<polygon fill="none" stroke="#000000" stroke-width="3" points="44.5,-44.5 44.5,-213.5 388.5,-213.5 388.5,-44.5 44.5,-44.5"/>
</g>
</g>
</svg>
