<?xml version="1.0" encoding="UTF-8" standalone="no"?>
<!DOCTYPE svg PUBLIC "-//W3C//DTD SVG 1.1//EN"
 "http://www.w3.org/Graphics/SVG/1.1/DTD/svg11.dtd">
<!-- Generated by graphviz version 2.40.1 (20161225.0304)
 -->
<!-- Title: public.dtb_blocposition Pages: 1 -->
<svg width="1636pt" height="944pt"
 viewBox="0.00 0.00 1636.00 944.00" xmlns="http://www.w3.org/2000/svg" xmlns:xlink="http://www.w3.org/1999/xlink">
<g id="graph0" class="graph" transform="scale(1 1) rotate(0) translate(4 940)">
<title>public.dtb_blocposition</title>
<polygon fill="#ffffff" stroke="transparent" points="-4,4 -4,-940 1632,-940 1632,4 -4,4"/>
<!-- public.dtb_blocposition -->
<g id="node1" class="node">
<title>public.dtb_blocposition</title>
<polygon fill="#efefef" stroke="transparent" points="653.5,-844 653.5,-890 978.5,-890 978.5,-844 653.5,-844"/>
<polygon fill="none" stroke="#000000" points="653.5,-844 653.5,-890 978.5,-890 978.5,-844 653.5,-844"/>
<text text-anchor="start" x="676.3471" y="-867.8" font-family="Arial Bold" font-size="18.00" fill="#000000">public.dtb_blocposition</text>
<text text-anchor="start" x="858.3991" y="-867.8" font-family="Arial" font-size="14.00" fill="#000000"> </text>
<text text-anchor="start" x="862.2897" y="-867.8" font-family="Arial" font-size="14.00" fill="#666666">[BASE TABLE]</text>
<text text-anchor="start" x="752.7417" y="-853.4" font-family="Arial" font-size="14.00" fill="#333333">ブロック配置情報</text>
<polygon fill="none" stroke="#000000" points="653.5,-814 653.5,-844 978.5,-844 978.5,-814 653.5,-814"/>
<text text-anchor="start" x="660.5" y="-825.4" font-family="Arial" font-size="14.00" fill="#000000">device_type_id </text>
<text text-anchor="start" x="757.7552" y="-825.4" font-family="Arial" font-size="14.00" fill="#666666">[integer]</text>
<text text-anchor="start" x="808.3246" y="-825.4" font-family="Arial" font-size="14.00" fill="#000000"> 端末種別ID</text>
<polygon fill="none" stroke="#000000" points="653.5,-784 653.5,-814 978.5,-814 978.5,-784 653.5,-784"/>
<text text-anchor="start" x="660.5" y="-795.4" font-family="Arial" font-size="14.00" fill="#000000">page_id </text>
<text text-anchor="start" x="714.1928" y="-795.4" font-family="Arial" font-size="14.00" fill="#666666">[integer]</text>
<text text-anchor="start" x="764.7622" y="-795.4" font-family="Arial" font-size="14.00" fill="#000000"> ページID</text>
<polygon fill="none" stroke="#000000" points="653.5,-754 653.5,-784 978.5,-784 978.5,-754 653.5,-754"/>
<text text-anchor="start" x="660.5" y="-765.4" font-family="Arial" font-size="14.00" fill="#000000">target_id </text>
<text text-anchor="start" x="718.852" y="-765.4" font-family="Arial" font-size="14.00" fill="#666666">[integer]</text>
<text text-anchor="start" x="769.4214" y="-765.4" font-family="Arial" font-size="14.00" fill="#000000"> 配置ID</text>
<polygon fill="none" stroke="#000000" points="653.5,-724 653.5,-754 978.5,-754 978.5,-724 653.5,-724"/>
<text text-anchor="start" x="660.5" y="-735.4" font-family="Arial" font-size="14.00" fill="#000000">bloc_id </text>
<text text-anchor="start" x="708.7342" y="-735.4" font-family="Arial" font-size="14.00" fill="#666666">[integer]</text>
<text text-anchor="start" x="759.3036" y="-735.4" font-family="Arial" font-size="14.00" fill="#000000"> ブロックID</text>
<polygon fill="none" stroke="#000000" points="653.5,-694 653.5,-724 978.5,-724 978.5,-694 653.5,-694"/>
<text text-anchor="start" x="660.5" y="-705.4" font-family="Arial" font-size="14.00" fill="#000000">bloc_row </text>
<text text-anchor="start" x="720.3948" y="-705.4" font-family="Arial" font-size="14.00" fill="#666666">[integer]</text>
<text text-anchor="start" x="770.9642" y="-705.4" font-family="Arial" font-size="14.00" fill="#000000"> ブロック配置順序</text>
<polygon fill="none" stroke="#000000" points="653.5,-664 653.5,-694 978.5,-694 978.5,-664 653.5,-664"/>
<text text-anchor="start" x="660.2787" y="-675.4" font-family="Arial" font-size="14.00" fill="#000000">anywhere </text>
<text text-anchor="start" x="724.8495" y="-675.4" font-family="Arial" font-size="14.00" fill="#666666">[smallint]</text>
<text text-anchor="start" x="780.0669" y="-675.4" font-family="Arial" font-size="14.00" fill="#000000"> 全ページに配置するフラグ</text>
<polygon fill="none" stroke="#000000" stroke-width="3" points="651.5,-662.5 651.5,-891.5 979.5,-891.5 979.5,-662.5 651.5,-662.5"/>
</g>
<!-- public.mtb_device_type -->
<g id="node2" class="node">
<title>public.mtb_device_type</title>
<polygon fill="#efefef" stroke="transparent" points="43.5,-313 43.5,-359 342.5,-359 342.5,-313 43.5,-313"/>
<polygon fill="none" stroke="#000000" points="43.5,-313 43.5,-359 342.5,-359 342.5,-313 43.5,-313"/>
<text text-anchor="start" x="50.3483" y="-336.8" font-family="Arial Bold" font-size="18.00" fill="#000000">public.mtb_device_type</text>
<text text-anchor="start" x="238.3979" y="-336.8" font-family="Arial" font-size="14.00" fill="#000000"> </text>
<text text-anchor="start" x="242.2885" y="-336.8" font-family="Arial" font-size="14.00" fill="#666666">[BASE TABLE]</text>
<text text-anchor="start" x="158.763" y="-322.4" font-family="Arial" font-size="14.00" fill="#333333">端末種別</text>
<polygon fill="none" stroke="#000000" points="43.5,-283 43.5,-313 342.5,-313 342.5,-283 43.5,-283"/>
<text text-anchor="start" x="50.5" y="-294.4" font-family="Arial" font-size="14.00" fill="#000000">id </text>
<text text-anchor="start" x="65.2798" y="-294.4" font-family="Arial" font-size="14.00" fill="#666666">[smallint]</text>
<text text-anchor="start" x="120.4972" y="-294.4" font-family="Arial" font-size="14.00" fill="#000000"> ID</text>
<polygon fill="none" stroke="#000000" points="43.5,-253 43.5,-283 342.5,-283 342.5,-253 43.5,-253"/>
<text text-anchor="start" x="50.5" y="-264.4" font-family="Arial" font-size="14.00" fill="#000000">name </text>
<text text-anchor="start" x="89.399" y="-264.4" font-family="Arial" font-size="14.00" fill="#666666">[text]</text>
<text text-anchor="start" x="119.744" y="-264.4" font-family="Arial" font-size="14.00" fill="#000000"> 名称</text>
<polygon fill="none" stroke="#000000" points="43.5,-223 43.5,-253 342.5,-253 342.5,-223 43.5,-223"/>
<text text-anchor="start" x="50.5" y="-234.4" font-family="Arial" font-size="14.00" fill="#000000">rank </text>
<text text-anchor="start" x="81.6164" y="-234.4" font-family="Arial" font-size="14.00" fill="#666666">[smallint]</text>
<text text-anchor="start" x="136.8338" y="-234.4" font-family="Arial" font-size="14.00" fill="#000000"> 表示順</text>
</g>
<!-- public.dtb_blocposition&#45;&gt;public.mtb_device_type -->
<g id="edge1" class="edge">
<title>public.dtb_blocposition:device_type_id&#45;&gt;public.mtb_device_type:id</title>
<path fill="none" stroke="#000000" stroke-dasharray="5,2" d="M643.4113,-828.853C493.0158,-824.3999 467.4992,-719.2898 393.5,-582 363.0769,-525.5563 406.6206,-298 342.5,-298"/>
<polygon fill="#000000" stroke="#000000" points="643.5011,-828.8542 653.4344,-833.4995 648.5005,-828.9271 653.5,-829 653.5,-829 653.5,-829 648.5005,-828.9271 653.5656,-824.5005 643.5011,-828.8542 643.5011,-828.8542"/>
<text text-anchor="start" x="563.8245" y="-839" font-family="Arial" font-size="10.00" fill="#000000">Additional Relation</text>
</g>
<!-- public.dtb_pagelayout -->
<g id="node3" class="node">
<title>public.dtb_pagelayout</title>
<polygon fill="#efefef" stroke="transparent" points="446.5,-493 446.5,-539 787.5,-539 787.5,-493 446.5,-493"/>
<polygon fill="none" stroke="#000000" points="446.5,-493 446.5,-539 787.5,-539 787.5,-493 446.5,-493"/>
<text text-anchor="start" x="480.8382" y="-516.8" font-family="Arial Bold" font-size="18.00" fill="#000000">public.dtb_pagelayout</text>
<text text-anchor="start" x="655.908" y="-516.8" font-family="Arial" font-size="14.00" fill="#000000"> </text>
<text text-anchor="start" x="659.7986" y="-516.8" font-family="Arial" font-size="14.00" fill="#666666">[BASE TABLE]</text>
<text text-anchor="start" x="543.3803" y="-502.4" font-family="Arial" font-size="14.00" fill="#333333">ページレイアウト情報</text>
<polygon fill="none" stroke="#000000" points="446.5,-463 446.5,-493 787.5,-493 787.5,-463 446.5,-463"/>
<text text-anchor="start" x="453.5" y="-474.4" font-family="Arial" font-size="14.00" fill="#000000">device_type_id </text>
<text text-anchor="start" x="550.7552" y="-474.4" font-family="Arial" font-size="14.00" fill="#666666">[integer]</text>
<text text-anchor="start" x="601.3246" y="-474.4" font-family="Arial" font-size="14.00" fill="#000000"> 端末種別ID</text>
<polygon fill="none" stroke="#000000" points="446.5,-433 446.5,-463 787.5,-463 787.5,-433 446.5,-433"/>
<text text-anchor="start" x="453.5" y="-444.4" font-family="Arial" font-size="14.00" fill="#000000">page_id </text>
<text text-anchor="start" x="507.1928" y="-444.4" font-family="Arial" font-size="14.00" fill="#666666">[integer]</text>
<text text-anchor="start" x="557.7622" y="-444.4" font-family="Arial" font-size="14.00" fill="#000000"> ページID</text>
<polygon fill="none" stroke="#000000" points="446.5,-403 446.5,-433 787.5,-433 787.5,-403 446.5,-403"/>
<text text-anchor="start" x="453.5" y="-414.4" font-family="Arial" font-size="14.00" fill="#000000">page_name </text>
<text text-anchor="start" x="531.312" y="-414.4" font-family="Arial" font-size="14.00" fill="#666666">[text]</text>
<text text-anchor="start" x="561.657" y="-414.4" font-family="Arial" font-size="14.00" fill="#000000"> ページ名</text>
<polygon fill="none" stroke="#000000" points="446.5,-373 446.5,-403 787.5,-403 787.5,-373 446.5,-373"/>
<text text-anchor="start" x="453.5" y="-384.4" font-family="Arial" font-size="14.00" fill="#000000">url </text>
<text text-anchor="start" x="472.9404" y="-384.4" font-family="Arial" font-size="14.00" fill="#666666">[text]</text>
<text text-anchor="start" x="503.2854" y="-384.4" font-family="Arial" font-size="14.00" fill="#000000"> ページURL</text>
<polygon fill="none" stroke="#000000" points="446.5,-343 446.5,-373 787.5,-373 787.5,-343 446.5,-343"/>
<text text-anchor="start" x="453.5" y="-354.4" font-family="Arial" font-size="14.00" fill="#000000">filename </text>
<text text-anchor="start" x="510.2854" y="-354.4" font-family="Arial" font-size="14.00" fill="#666666">[text]</text>
<text text-anchor="start" x="540.6304" y="-354.4" font-family="Arial" font-size="14.00" fill="#000000"> ファイル名</text>
<polygon fill="none" stroke="#000000" points="446.5,-313 446.5,-343 787.5,-343 787.5,-313 446.5,-313"/>
<text text-anchor="start" x="453.5" y="-324.4" font-family="Arial" font-size="14.00" fill="#000000">header_chk </text>
<text text-anchor="start" x="530.5294" y="-324.4" font-family="Arial" font-size="14.00" fill="#666666">[smallint]</text>
<text text-anchor="start" x="585.7468" y="-324.4" font-family="Arial" font-size="14.00" fill="#000000"> ヘッダチェックフラグ</text>
<polygon fill="none" stroke="#000000" points="446.5,-283 446.5,-313 787.5,-313 787.5,-283 446.5,-283"/>
<text text-anchor="start" x="453.5" y="-294.4" font-family="Arial" font-size="14.00" fill="#000000">footer_chk </text>
<text text-anchor="start" x="522.7454" y="-294.4" font-family="Arial" font-size="14.00" fill="#666666">[smallint]</text>
<text text-anchor="start" x="577.9628" y="-294.4" font-family="Arial" font-size="14.00" fill="#000000"> フッタチェックフラグ</text>
<polygon fill="none" stroke="#000000" points="446.5,-253 446.5,-283 787.5,-283 787.5,-253 446.5,-253"/>
<text text-anchor="start" x="453.5" y="-264.4" font-family="Arial" font-size="14.00" fill="#000000">edit_flg </text>
<text text-anchor="start" x="502.5154" y="-264.4" font-family="Arial" font-size="14.00" fill="#666666">[smallint]</text>
<text text-anchor="start" x="557.7328" y="-264.4" font-family="Arial" font-size="14.00" fill="#000000"> 修正フラグ</text>
<polygon fill="none" stroke="#000000" points="446.5,-223 446.5,-253 787.5,-253 787.5,-223 446.5,-223"/>
<text text-anchor="start" x="453.5" y="-234.4" font-family="Arial" font-size="14.00" fill="#000000">author </text>
<text text-anchor="start" x="497.0722" y="-234.4" font-family="Arial" font-size="14.00" fill="#666666">[text]</text>
<text text-anchor="start" x="527.4172" y="-234.4" font-family="Arial" font-size="14.00" fill="#000000"> meta タグ(Author)</text>
<polygon fill="none" stroke="#000000" points="446.5,-193 446.5,-223 787.5,-223 787.5,-193 446.5,-193"/>
<text text-anchor="start" x="453.5" y="-204.4" font-family="Arial" font-size="14.00" fill="#000000">description </text>
<text text-anchor="start" x="525.068" y="-204.4" font-family="Arial" font-size="14.00" fill="#666666">[text]</text>
<text text-anchor="start" x="555.413" y="-204.4" font-family="Arial" font-size="14.00" fill="#000000"> meta タグ(Description)</text>
<polygon fill="none" stroke="#000000" points="446.5,-163 446.5,-193 787.5,-193 787.5,-163 446.5,-163"/>
<text text-anchor="start" x="453.5" y="-174.4" font-family="Arial" font-size="14.00" fill="#000000">keyword </text>
<text text-anchor="start" x="509.5056" y="-174.4" font-family="Arial" font-size="14.00" fill="#666666">[text]</text>
<text text-anchor="start" x="539.8506" y="-174.4" font-family="Arial" font-size="14.00" fill="#000000"> meta タグ(keyword)</text>
<polygon fill="none" stroke="#000000" points="446.5,-133 446.5,-163 787.5,-163 787.5,-133 446.5,-133"/>
<text text-anchor="start" x="453.5" y="-144.4" font-family="Arial" font-size="14.00" fill="#000000">update_url </text>
<text text-anchor="start" x="523.5266" y="-144.4" font-family="Arial" font-size="14.00" fill="#666666">[text]</text>
<text text-anchor="start" x="553.8716" y="-144.4" font-family="Arial" font-size="14.00" fill="#000000"> 更新実施URL</text>
<polygon fill="none" stroke="#000000" points="446.5,-103 446.5,-133 787.5,-133 787.5,-103 446.5,-103"/>
<text text-anchor="start" x="453.235" y="-114.4" font-family="Arial" font-size="14.00" fill="#000000">create_date </text>
<text text-anchor="start" x="531.0456" y="-114.4" font-family="Arial" font-size="14.00" fill="#666666">[timestamp without time zone]</text>
<text text-anchor="start" x="716.1858" y="-114.4" font-family="Arial" font-size="14.00" fill="#000000"> 作成日時</text>
<polygon fill="none" stroke="#000000" points="446.5,-73 446.5,-103 787.5,-103 787.5,-73 446.5,-73"/>
<text text-anchor="start" x="453.5" y="-84.4" font-family="Arial" font-size="14.00" fill="#000000">update_date </text>
<text text-anchor="start" x="535.2152" y="-84.4" font-family="Arial" font-size="14.00" fill="#666666">[timestamp without time zone]</text>
<text text-anchor="start" x="720.3554" y="-84.4" font-family="Arial" font-size="14.00" fill="#000000"> 更新日時</text>
<polygon fill="none" stroke="#000000" points="446.5,-43 446.5,-73 787.5,-73 787.5,-43 446.5,-43"/>
<text text-anchor="start" x="453.5" y="-54.4" font-family="Arial" font-size="14.00" fill="#000000">meta_robots </text>
<text text-anchor="start" x="535.1886" y="-54.4" font-family="Arial" font-size="14.00" fill="#666666">[text]</text>
<text text-anchor="start" x="565.5336" y="-54.4" font-family="Arial" font-size="14.00" fill="#000000"> 【2.13】meta タグ(robots)</text>
</g>
<!-- public.dtb_blocposition&#45;&gt;public.dtb_pagelayout -->
<g id="edge2" class="edge">
<title>public.dtb_blocposition:page_id&#45;&gt;public.dtb_pagelayout:page_id</title>
<path fill="none" stroke="#000000" stroke-dasharray="5,2" d="M643.328,-798.3062C575.9203,-788.5812 606.7485,-678.9693 653.5,-618 691.0246,-569.0636 749.9754,-630.9364 787.5,-582 823.7395,-534.7394 847.0556,-448 787.5,-448"/>
<polygon fill="#000000" stroke="#000000" points="643.5232,-798.3194 653.1937,-803.4896 648.5116,-798.6597 653.5,-799 653.5,-799 653.5,-799 648.5116,-798.6597 653.8063,-794.5104 643.5232,-798.3194 643.5232,-798.3194"/>
<text text-anchor="start" x="563.8245" y="-809" font-family="Arial" font-size="10.00" fill="#000000">Additional Relation</text>
</g>
<!-- public.mtb_target -->
<g id="node4" class="node">
<title>public.mtb_target</title>
<polygon fill="#efefef" stroke="transparent" points="891.5,-313 891.5,-359 1140.5,-359 1140.5,-313 891.5,-313"/>
<polygon fill="none" stroke="#000000" points="891.5,-313 891.5,-359 1140.5,-359 1140.5,-313 891.5,-313"/>
<text text-anchor="start" x="898.3575" y="-336.8" font-family="Arial Bold" font-size="18.00" fill="#000000">public.mtb_target</text>
<text text-anchor="start" x="1036.3887" y="-336.8" font-family="Arial" font-size="14.00" fill="#000000"> </text>
<text text-anchor="start" x="1040.2793" y="-336.8" font-family="Arial" font-size="14.00" fill="#666666">[BASE TABLE]</text>
<text text-anchor="start" x="946.4095" y="-322.4" font-family="Arial" font-size="14.00" fill="#333333">ブロックターゲット</text>
<polygon fill="none" stroke="#000000" points="891.5,-283 891.5,-313 1140.5,-313 1140.5,-283 891.5,-283"/>
<text text-anchor="start" x="898.5" y="-294.4" font-family="Arial" font-size="14.00" fill="#000000">id </text>
<text text-anchor="start" x="913.2798" y="-294.4" font-family="Arial" font-size="14.00" fill="#666666">[smallint]</text>
<text text-anchor="start" x="968.4972" y="-294.4" font-family="Arial" font-size="14.00" fill="#000000"> ID</text>
<polygon fill="none" stroke="#000000" points="891.5,-253 891.5,-283 1140.5,-283 1140.5,-253 891.5,-253"/>
<text text-anchor="start" x="898.5" y="-264.4" font-family="Arial" font-size="14.00" fill="#000000">name </text>
<text text-anchor="start" x="937.399" y="-264.4" font-family="Arial" font-size="14.00" fill="#666666">[text]</text>
<text text-anchor="start" x="967.744" y="-264.4" font-family="Arial" font-size="14.00" fill="#000000"> 名称</text>
<polygon fill="none" stroke="#000000" points="891.5,-223 891.5,-253 1140.5,-253 1140.5,-223 891.5,-223"/>
<text text-anchor="start" x="898.5" y="-234.4" font-family="Arial" font-size="14.00" fill="#000000">rank </text>
<text text-anchor="start" x="929.6164" y="-234.4" font-family="Arial" font-size="14.00" fill="#666666">[smallint]</text>
<text text-anchor="start" x="984.8338" y="-234.4" font-family="Arial" font-size="14.00" fill="#000000"> 表示順</text>
</g>
<!-- public.dtb_blocposition&#45;&gt;public.mtb_target -->
<g id="edge3" class="edge">
<title>public.dtb_blocposition:target_id&#45;&gt;public.mtb_target:id</title>
<path fill="none" stroke="#000000" stroke-dasharray="5,2" d="M988.7644,-768.1998C1039.5887,-759.4198 990.5467,-680.1532 978.5,-618 958.8069,-516.3964 911.1931,-503.6036 891.5,-402 882.7047,-356.6223 845.2778,-298 891.5,-298"/>
<polygon fill="#000000" stroke="#000000" points="988.4697,-768.2227 978.1502,-764.5136 983.4849,-768.6113 978.5,-769 978.5,-769 978.5,-769 983.4849,-768.6113 978.8498,-773.4864 988.4697,-768.2227 988.4697,-768.2227"/>
<text text-anchor="start" x="985.8245" y="-779" font-family="Arial" font-size="10.00" fill="#000000">Additional Relation</text>
</g>
<!-- public.dtb_bloc -->
<g id="node5" class="node">
<title>public.dtb_bloc</title>
<polygon fill="#efefef" stroke="transparent" points="1244.5,-418 1244.5,-464 1585.5,-464 1585.5,-418 1244.5,-418"/>
<polygon fill="none" stroke="#000000" points="1244.5,-418 1244.5,-464 1585.5,-464 1585.5,-418 1244.5,-418"/>
<text text-anchor="start" x="1306.3548" y="-441.8" font-family="Arial Bold" font-size="18.00" fill="#000000">public.dtb_bloc</text>
<text text-anchor="start" x="1426.3914" y="-441.8" font-family="Arial" font-size="14.00" fill="#000000"> </text>
<text text-anchor="start" x="1430.282" y="-441.8" font-family="Arial" font-size="14.00" fill="#666666">[BASE TABLE]</text>
<text text-anchor="start" x="1373.5229" y="-427.4" font-family="Arial" font-size="14.00" fill="#333333">ブロック情報</text>
<polygon fill="none" stroke="#000000" points="1244.5,-388 1244.5,-418 1585.5,-418 1585.5,-388 1244.5,-388"/>
<text text-anchor="start" x="1251.5" y="-399.4" font-family="Arial" font-size="14.00" fill="#000000">device_type_id </text>
<text text-anchor="start" x="1348.7552" y="-399.4" font-family="Arial" font-size="14.00" fill="#666666">[integer]</text>
<text text-anchor="start" x="1399.3246" y="-399.4" font-family="Arial" font-size="14.00" fill="#000000"> 端末種別ID</text>
<polygon fill="none" stroke="#000000" points="1244.5,-358 1244.5,-388 1585.5,-388 1585.5,-358 1244.5,-358"/>
<text text-anchor="start" x="1251.5" y="-369.4" font-family="Arial" font-size="14.00" fill="#000000">bloc_id </text>
<text text-anchor="start" x="1299.7342" y="-369.4" font-family="Arial" font-size="14.00" fill="#666666">[integer]</text>
<text text-anchor="start" x="1350.3036" y="-369.4" font-family="Arial" font-size="14.00" fill="#000000"> ブロックID</text>
<polygon fill="none" stroke="#000000" points="1244.5,-328 1244.5,-358 1585.5,-358 1585.5,-328 1244.5,-328"/>
<text text-anchor="start" x="1251.5" y="-339.4" font-family="Arial" font-size="14.00" fill="#000000">bloc_name </text>
<text text-anchor="start" x="1323.8534" y="-339.4" font-family="Arial" font-size="14.00" fill="#666666">[text]</text>
<text text-anchor="start" x="1354.1984" y="-339.4" font-family="Arial" font-size="14.00" fill="#000000"> ブロック名</text>
<polygon fill="none" stroke="#000000" points="1244.5,-298 1244.5,-328 1585.5,-328 1585.5,-298 1244.5,-298"/>
<text text-anchor="start" x="1251.5" y="-309.4" font-family="Arial" font-size="14.00" fill="#000000">tpl_path </text>
<text text-anchor="start" x="1305.1914" y="-309.4" font-family="Arial" font-size="14.00" fill="#666666">[text]</text>
<text text-anchor="start" x="1335.5364" y="-309.4" font-family="Arial" font-size="14.00" fill="#000000"> Smartyテンプレートパス</text>
<polygon fill="none" stroke="#000000" points="1244.5,-268 1244.5,-298 1585.5,-298 1585.5,-268 1244.5,-268"/>
<text text-anchor="start" x="1251.5" y="-279.4" font-family="Arial" font-size="14.00" fill="#000000">filename </text>
<text text-anchor="start" x="1308.2854" y="-279.4" font-family="Arial" font-size="14.00" fill="#666666">[text]</text>
<text text-anchor="start" x="1338.6304" y="-279.4" font-family="Arial" font-size="14.00" fill="#000000"> ファイル名</text>
<polygon fill="none" stroke="#000000" points="1244.5,-238 1244.5,-268 1585.5,-268 1585.5,-238 1244.5,-238"/>
<text text-anchor="start" x="1251.235" y="-249.4" font-family="Arial" font-size="14.00" fill="#000000">create_date </text>
<text text-anchor="start" x="1329.0456" y="-249.4" font-family="Arial" font-size="14.00" fill="#666666">[timestamp without time zone]</text>
<text text-anchor="start" x="1514.1858" y="-249.4" font-family="Arial" font-size="14.00" fill="#000000"> 作成日時</text>
<polygon fill="none" stroke="#000000" points="1244.5,-208 1244.5,-238 1585.5,-238 1585.5,-208 1244.5,-208"/>
<text text-anchor="start" x="1251.5" y="-219.4" font-family="Arial" font-size="14.00" fill="#000000">update_date </text>
<text text-anchor="start" x="1333.2152" y="-219.4" font-family="Arial" font-size="14.00" fill="#666666">[timestamp without time zone]</text>
<text text-anchor="start" x="1518.3554" y="-219.4" font-family="Arial" font-size="14.00" fill="#000000"> 更新日時</text>
<polygon fill="none" stroke="#000000" points="1244.5,-178 1244.5,-208 1585.5,-208 1585.5,-178 1244.5,-178"/>
<text text-anchor="start" x="1251.5" y="-189.4" font-family="Arial" font-size="14.00" fill="#000000">php_path </text>
<text text-anchor="start" x="1313.7594" y="-189.4" font-family="Arial" font-size="14.00" fill="#666666">[text]</text>
<text text-anchor="start" x="1344.1044" y="-189.4" font-family="Arial" font-size="14.00" fill="#000000"> PHPパス</text>
<polygon fill="none" stroke="#000000" points="1244.5,-148 1244.5,-178 1585.5,-178 1585.5,-148 1244.5,-148"/>
<text text-anchor="start" x="1251.5" y="-159.4" font-family="Arial" font-size="14.00" fill="#000000">deletable_flg </text>
<text text-anchor="start" x="1334.7524" y="-159.4" font-family="Arial" font-size="14.00" fill="#666666">[smallint]</text>
<text text-anchor="start" x="1389.9698" y="-159.4" font-family="Arial" font-size="14.00" fill="#000000"> 削除可能フラグ</text>
<polygon fill="none" stroke="#000000" points="1244.5,-118 1244.5,-148 1585.5,-148 1585.5,-118 1244.5,-118"/>
<text text-anchor="start" x="1251.5" y="-129.4" font-family="Arial" font-size="14.00" fill="#000000">plugin_id </text>
<text text-anchor="start" x="1311.406" y="-129.4" font-family="Arial" font-size="14.00" fill="#666666">[integer]</text>
<text text-anchor="start" x="1361.9754" y="-129.4" font-family="Arial" font-size="14.00" fill="#000000"> プラグインID</text>
</g>
<!-- public.dtb_blocposition&#45;&gt;public.dtb_bloc -->
<g id="edge4" class="edge">
<title>public.dtb_blocposition:bloc_id&#45;&gt;public.dtb_bloc:bloc_id</title>
<path fill="none" stroke="#000000" stroke-dasharray="5,2" d="M988.6452,-738.8485C1098.2694,-735.5074 1128.7125,-677.0938 1192.5,-582 1245.8228,-502.5069 1148.7792,-373 1244.5,-373"/>
<polygon fill="#000000" stroke="#000000" points="988.4989,-738.8506 978.4328,-734.5005 983.4994,-738.9253 978.5,-739 978.5,-739 978.5,-739 983.4994,-738.9253 978.5672,-743.4995 988.4989,-738.8506 988.4989,-738.8506"/>
<text text-anchor="start" x="985.8245" y="-749" font-family="Arial" font-size="10.00" fill="#000000">Additional Relation</text>
</g>
</g>
</svg>
