<?xml version="1.0" encoding="UTF-8" standalone="no"?>
<!DOCTYPE svg PUBLIC "-//W3C//DTD SVG 1.1//EN"
 "http://www.w3.org/Graphics/SVG/1.1/DTD/svg11.dtd">
<!-- Generated by graphviz version 2.40.1 (20161225.0304)
 -->
<!-- Title: public.dtb_product_categories Pages: 1 -->
<svg width="451pt" height="236pt"
 viewBox="0.00 0.00 451.00 236.00" xmlns="http://www.w3.org/2000/svg" xmlns:xlink="http://www.w3.org/1999/xlink">
<g id="graph0" class="graph" transform="scale(1 1) rotate(0) translate(4 232)">
<title>public.dtb_product_categories</title>
<polygon fill="#ffffff" stroke="transparent" points="-4,4 -4,-232 447,-232 447,4 -4,4"/>
<!-- public.dtb_product_categories -->
<g id="node1" class="node">
<title>public.dtb_product_categories</title>
<polygon fill="#efefef" stroke="transparent" points="46.5,-136 46.5,-182 397.5,-182 397.5,-136 46.5,-136"/>
<polygon fill="none" stroke="#000000" points="46.5,-136 46.5,-182 397.5,-182 397.5,-136 46.5,-136"/>
<text text-anchor="start" x="53.3356" y="-159.8" font-family="Arial Bold" font-size="18.00" fill="#000000">public.dtb_product_categories</text>
<text text-anchor="start" x="293.4106" y="-159.8" font-family="Arial" font-size="14.00" fill="#000000"> </text>
<text text-anchor="start" x="297.3012" y="-159.8" font-family="Arial" font-size="14.00" fill="#666666">[BASE TABLE]</text>
<text text-anchor="start" x="159.5138" y="-145.4" font-family="Arial" font-size="14.00" fill="#333333">商品カテゴリ関連</text>
<polygon fill="none" stroke="#000000" points="46.5,-106 46.5,-136 397.5,-136 397.5,-106 46.5,-106"/>
<text text-anchor="start" x="53.5" y="-117.4" font-family="Arial" font-size="14.00" fill="#000000">product_id </text>
<text text-anchor="start" x="122.744" y="-117.4" font-family="Arial" font-size="14.00" fill="#666666">[integer]</text>
<text text-anchor="start" x="173.3134" y="-117.4" font-family="Arial" font-size="14.00" fill="#000000"> 商品ID</text>
<polygon fill="none" stroke="#000000" points="46.5,-76 46.5,-106 397.5,-106 397.5,-76 46.5,-76"/>
<text text-anchor="start" x="53.5" y="-87.4" font-family="Arial" font-size="14.00" fill="#000000">category_id </text>
<text text-anchor="start" x="129.744" y="-87.4" font-family="Arial" font-size="14.00" fill="#666666">[integer]</text>
<text text-anchor="start" x="180.3134" y="-87.4" font-family="Arial" font-size="14.00" fill="#000000"> カテゴリID</text>
<polygon fill="none" stroke="#000000" points="46.5,-46 46.5,-76 397.5,-76 397.5,-46 46.5,-46"/>
<text text-anchor="start" x="53.5" y="-57.4" font-family="Arial" font-size="14.00" fill="#000000">rank </text>
<text text-anchor="start" x="84.6164" y="-57.4" font-family="Arial" font-size="14.00" fill="#666666">[integer]</text>
<text text-anchor="start" x="135.1858" y="-57.4" font-family="Arial" font-size="14.00" fill="#000000"> 表示順</text>
<polygon fill="none" stroke="#000000" stroke-width="3" points="44.5,-44.5 44.5,-183.5 398.5,-183.5 398.5,-44.5 44.5,-44.5"/>
</g>
</g>
</svg>
