<?xml version="1.0" encoding="UTF-8" standalone="no"?>
<!DOCTYPE svg PUBLIC "-//W3C//DTD SVG 1.1//EN"
 "http://www.w3.org/Graphics/SVG/1.1/DTD/svg11.dtd">
<!-- Generated by graphviz version 2.40.1 (20161225.0304)
 -->
<!-- Title: public.mtb_status_image Pages: 1 -->
<svg width="490pt" height="584pt"
 viewBox="0.00 0.00 489.50 584.00" xmlns="http://www.w3.org/2000/svg" xmlns:xlink="http://www.w3.org/1999/xlink">
<g id="graph0" class="graph" transform="scale(1 1) rotate(0) translate(4 580)">
<title>public.mtb_status_image</title>
<polygon fill="#ffffff" stroke="transparent" points="-4,4 -4,-580 485.5,-580 485.5,4 -4,4"/>
<!-- public.mtb_status_image -->
<g id="node1" class="node">
<title>public.mtb_status_image</title>
<polygon fill="#efefef" stroke="transparent" points="59.5,-136 59.5,-182 369.5,-182 369.5,-136 59.5,-136"/>
<polygon fill="none" stroke="#000000" points="59.5,-136 59.5,-182 369.5,-182 369.5,-136 59.5,-136"/>
<text text-anchor="start" x="66.3511" y="-159.8" font-family="Arial Bold" font-size="18.00" fill="#000000">public.mtb_status_image</text>
<text text-anchor="start" x="265.3951" y="-159.8" font-family="Arial" font-size="14.00" fill="#000000"> </text>
<text text-anchor="start" x="269.2857" y="-159.8" font-family="Arial" font-size="14.00" fill="#666666">[BASE TABLE]</text>
<text text-anchor="start" x="160.327" y="-145.4" font-family="Arial" font-size="14.00" fill="#333333">ステータス画像</text>
<polygon fill="none" stroke="#000000" points="59.5,-106 59.5,-136 369.5,-136 369.5,-106 59.5,-106"/>
<text text-anchor="start" x="66.5" y="-117.4" font-family="Arial" font-size="14.00" fill="#000000">id </text>
<text text-anchor="start" x="81.2798" y="-117.4" font-family="Arial" font-size="14.00" fill="#666666">[smallint]</text>
<text text-anchor="start" x="136.4972" y="-117.4" font-family="Arial" font-size="14.00" fill="#000000"> ID</text>
<polygon fill="none" stroke="#000000" points="59.5,-76 59.5,-106 369.5,-106 369.5,-76 59.5,-76"/>
<text text-anchor="start" x="66.5" y="-87.4" font-family="Arial" font-size="14.00" fill="#000000">name </text>
<text text-anchor="start" x="105.399" y="-87.4" font-family="Arial" font-size="14.00" fill="#666666">[text]</text>
<text text-anchor="start" x="135.744" y="-87.4" font-family="Arial" font-size="14.00" fill="#000000"> 名称</text>
<polygon fill="none" stroke="#000000" points="59.5,-46 59.5,-76 369.5,-76 369.5,-46 59.5,-46"/>
<text text-anchor="start" x="66.5" y="-57.4" font-family="Arial" font-size="14.00" fill="#000000">rank </text>
<text text-anchor="start" x="97.6164" y="-57.4" font-family="Arial" font-size="14.00" fill="#666666">[smallint]</text>
<text text-anchor="start" x="152.8338" y="-57.4" font-family="Arial" font-size="14.00" fill="#000000"> 表示順</text>
<polygon fill="none" stroke="#000000" stroke-width="3" points="58,-44.5 58,-183.5 371,-183.5 371,-44.5 58,-44.5"/>
</g>
<!-- public.dtb_product_status -->
<g id="node2" class="node">
<title>public.dtb_product_status</title>
<polygon fill="#efefef" stroke="transparent" points="43.5,-487 43.5,-533 384.5,-533 384.5,-487 43.5,-487"/>
<polygon fill="none" stroke="#000000" points="43.5,-487 43.5,-533 384.5,-533 384.5,-487 43.5,-487"/>
<text text-anchor="start" x="62.837" y="-510.8" font-family="Arial Bold" font-size="18.00" fill="#000000">public.dtb_product_status</text>
<text text-anchor="start" x="267.9092" y="-510.8" font-family="Arial" font-size="14.00" fill="#000000"> </text>
<text text-anchor="start" x="271.7998" y="-510.8" font-family="Arial" font-size="14.00" fill="#666666">[BASE TABLE]</text>
<text text-anchor="start" x="148.1552" y="-496.4" font-family="Arial" font-size="14.00" fill="#333333">商品ステータス情報</text>
<polygon fill="none" stroke="#000000" points="43.5,-457 43.5,-487 384.5,-487 384.5,-457 43.5,-457"/>
<text text-anchor="start" x="50.5" y="-468.4" font-family="Arial" font-size="14.00" fill="#000000">product_status_id </text>
<text text-anchor="start" x="164.873" y="-468.4" font-family="Arial" font-size="14.00" fill="#666666">[smallint]</text>
<text text-anchor="start" x="220.0904" y="-468.4" font-family="Arial" font-size="14.00" fill="#000000"> 商品ステータスID</text>
<polygon fill="none" stroke="#000000" points="43.5,-427 43.5,-457 384.5,-457 384.5,-427 43.5,-427"/>
<text text-anchor="start" x="50.5" y="-438.4" font-family="Arial" font-size="14.00" fill="#000000">product_id </text>
<text text-anchor="start" x="119.744" y="-438.4" font-family="Arial" font-size="14.00" fill="#666666">[integer]</text>
<text text-anchor="start" x="170.3134" y="-438.4" font-family="Arial" font-size="14.00" fill="#000000"> 商品ID</text>
<polygon fill="none" stroke="#000000" points="43.5,-397 43.5,-427 384.5,-427 384.5,-397 43.5,-397"/>
<text text-anchor="start" x="50.5" y="-408.4" font-family="Arial" font-size="14.00" fill="#000000">creator_id </text>
<text text-anchor="start" x="116.622" y="-408.4" font-family="Arial" font-size="14.00" fill="#666666">[integer]</text>
<text text-anchor="start" x="167.1914" y="-408.4" font-family="Arial" font-size="14.00" fill="#000000"> 作成者ID</text>
<polygon fill="none" stroke="#000000" points="43.5,-367 43.5,-397 384.5,-397 384.5,-367 43.5,-367"/>
<text text-anchor="start" x="50.235" y="-378.4" font-family="Arial" font-size="14.00" fill="#000000">create_date </text>
<text text-anchor="start" x="128.0456" y="-378.4" font-family="Arial" font-size="14.00" fill="#666666">[timestamp without time zone]</text>
<text text-anchor="start" x="313.1858" y="-378.4" font-family="Arial" font-size="14.00" fill="#000000"> 作成日時</text>
<polygon fill="none" stroke="#000000" points="43.5,-337 43.5,-367 384.5,-367 384.5,-337 43.5,-337"/>
<text text-anchor="start" x="50.5" y="-348.4" font-family="Arial" font-size="14.00" fill="#000000">update_date </text>
<text text-anchor="start" x="132.2152" y="-348.4" font-family="Arial" font-size="14.00" fill="#666666">[timestamp without time zone]</text>
<text text-anchor="start" x="317.3554" y="-348.4" font-family="Arial" font-size="14.00" fill="#000000"> 更新日時</text>
<polygon fill="none" stroke="#000000" points="43.5,-307 43.5,-337 384.5,-337 384.5,-307 43.5,-307"/>
<text text-anchor="start" x="50.5" y="-318.4" font-family="Arial" font-size="14.00" fill="#000000">del_flg </text>
<text text-anchor="start" x="95.6248" y="-318.4" font-family="Arial" font-size="14.00" fill="#666666">[smallint]</text>
<text text-anchor="start" x="150.8422" y="-318.4" font-family="Arial" font-size="14.00" fill="#000000"> 削除フラグ</text>
</g>
<!-- public.dtb_product_status&#45;&gt;public.mtb_status_image -->
<g id="edge1" class="edge">
<title>public.dtb_product_status:product_status_id&#45;&gt;public.mtb_status_image:id</title>
<path fill="none" stroke="#000000" stroke-dasharray="5,2" d="M394.7748,-471.3756C474.4927,-461.2379 443.756,-330.1822 384.5,-264 336.0297,-209.8642 107.9703,-282.1358 59.5,-228 27.7782,-192.5704 11.9444,-121 59.5,-121"/>
<polygon fill="#000000" stroke="#000000" points="394.4816,-471.3933 384.227,-467.5083 389.4908,-471.6967 384.5,-472 384.5,-472 384.5,-472 389.4908,-471.6967 384.773,-476.4917 394.4816,-471.3933 394.4816,-471.3933"/>
<text text-anchor="start" x="391.8245" y="-482" font-family="Arial" font-size="10.00" fill="#000000">Additional Relation</text>
</g>
</g>
</svg>
