<?xml version="1.0" encoding="UTF-8" standalone="no"?>
<!DOCTYPE svg PUBLIC "-//W3C//DTD SVG 1.1//EN"
 "http://www.w3.org/Graphics/SVG/1.1/DTD/svg11.dtd">
<!-- Generated by graphviz version 2.40.1 (20161225.0304)
 -->
<!-- Title: public.dtb_bkup Pages: 1 -->
<svg width="441pt" height="236pt"
 viewBox="0.00 0.00 441.00 236.00" xmlns="http://www.w3.org/2000/svg" xmlns:xlink="http://www.w3.org/1999/xlink">
<g id="graph0" class="graph" transform="scale(1 1) rotate(0) translate(4 232)">
<title>public.dtb_bkup</title>
<polygon fill="#ffffff" stroke="transparent" points="-4,4 -4,-232 437,-232 437,4 -4,4"/>
<!-- public.dtb_bkup -->
<g id="node1" class="node">
<title>public.dtb_bkup</title>
<polygon fill="#efefef" stroke="transparent" points="46.5,-136 46.5,-182 387.5,-182 387.5,-136 46.5,-136"/>
<polygon fill="none" stroke="#000000" points="46.5,-136 46.5,-182 387.5,-182 387.5,-136 46.5,-136"/>
<text text-anchor="start" x="105.3488" y="-159.8" font-family="Arial Bold" font-size="18.00" fill="#000000">public.dtb_bkup</text>
<text text-anchor="start" x="231.3974" y="-159.8" font-family="Arial" font-size="14.00" fill="#000000"> </text>
<text text-anchor="start" x="235.288" y="-159.8" font-family="Arial" font-size="14.00" fill="#666666">[BASE TABLE]</text>
<text text-anchor="start" x="174.6199" y="-145.4" font-family="Arial" font-size="14.00" fill="#333333">バックアップ</text>
<polygon fill="none" stroke="#000000" points="46.5,-106 46.5,-136 387.5,-136 387.5,-106 46.5,-106"/>
<text text-anchor="start" x="53.5" y="-117.4" font-family="Arial" font-size="14.00" fill="#000000">bkup_name </text>
<text text-anchor="start" x="130.5294" y="-117.4" font-family="Arial" font-size="14.00" fill="#666666">[text]</text>
<text text-anchor="start" x="160.8744" y="-117.4" font-family="Arial" font-size="14.00" fill="#000000"> バックアップ名</text>
<polygon fill="none" stroke="#000000" points="46.5,-76 46.5,-106 387.5,-106 387.5,-76 46.5,-76"/>
<text text-anchor="start" x="53.5" y="-87.4" font-family="Arial" font-size="14.00" fill="#000000">bkup_memo </text>
<text text-anchor="start" x="134.4074" y="-87.4" font-family="Arial" font-size="14.00" fill="#666666">[text]</text>
<text text-anchor="start" x="164.7524" y="-87.4" font-family="Arial" font-size="14.00" fill="#000000"> バックアップメモ</text>
<polygon fill="none" stroke="#000000" points="46.5,-46 46.5,-76 387.5,-76 387.5,-46 46.5,-46"/>
<text text-anchor="start" x="53.235" y="-57.4" font-family="Arial" font-size="14.00" fill="#000000">create_date </text>
<text text-anchor="start" x="131.0456" y="-57.4" font-family="Arial" font-size="14.00" fill="#666666">[timestamp without time zone]</text>
<text text-anchor="start" x="316.1858" y="-57.4" font-family="Arial" font-size="14.00" fill="#000000"> 作成日時</text>
<polygon fill="none" stroke="#000000" stroke-width="3" points="44.5,-44.5 44.5,-183.5 388.5,-183.5 388.5,-44.5 44.5,-44.5"/>
</g>
</g>
</svg>
