<?xml version="1.0" encoding="UTF-8" standalone="no"?>
<!DOCTYPE svg PUBLIC "-//W3C//DTD SVG 1.1//EN"
 "http://www.w3.org/Graphics/SVG/1.1/DTD/svg11.dtd">
<!-- Generated by graphviz version 2.40.1 (20161225.0304)
 -->
<!-- Title: public.dtb_csv_sql Pages: 1 -->
<svg width="441pt" height="296pt"
 viewBox="0.00 0.00 441.00 296.00" xmlns="http://www.w3.org/2000/svg" xmlns:xlink="http://www.w3.org/1999/xlink">
<g id="graph0" class="graph" transform="scale(1 1) rotate(0) translate(4 292)">
<title>public.dtb_csv_sql</title>
<polygon fill="#ffffff" stroke="transparent" points="-4,4 -4,-292 437,-292 437,4 -4,4"/>
<!-- public.dtb_csv_sql -->
<g id="node1" class="node">
<title>public.dtb_csv_sql</title>
<polygon fill="#efefef" stroke="transparent" points="46.5,-196 46.5,-242 387.5,-242 387.5,-196 46.5,-196"/>
<polygon fill="none" stroke="#000000" points="46.5,-196 46.5,-242 387.5,-242 387.5,-196 46.5,-196"/>
<text text-anchor="start" x="94.8548" y="-219.8" font-family="Arial Bold" font-size="18.00" fill="#000000">public.dtb_csv_sql</text>
<text text-anchor="start" x="241.8914" y="-219.8" font-family="Arial" font-size="14.00" fill="#000000"> </text>
<text text-anchor="start" x="245.782" y="-219.8" font-family="Arial" font-size="14.00" fill="#666666">[BASE TABLE]</text>
<text text-anchor="start" x="142.5291" y="-205.4" font-family="Arial" font-size="14.00" fill="#333333">CSV詳細設定SQL情報</text>
<polygon fill="none" stroke="#000000" points="46.5,-166 46.5,-196 387.5,-196 387.5,-166 46.5,-166"/>
<text text-anchor="start" x="53.5" y="-177.4" font-family="Arial" font-size="14.00" fill="#000000">sql_id </text>
<text text-anchor="start" x="93.9516" y="-177.4" font-family="Arial" font-size="14.00" fill="#666666">[integer]</text>
<text text-anchor="start" x="144.521" y="-177.4" font-family="Arial" font-size="14.00" fill="#000000"> SQLID</text>
<polygon fill="none" stroke="#000000" points="46.5,-136 46.5,-166 387.5,-166 387.5,-136 46.5,-136"/>
<text text-anchor="start" x="53.5" y="-147.4" font-family="Arial" font-size="14.00" fill="#000000">sql_name </text>
<text text-anchor="start" x="118.0708" y="-147.4" font-family="Arial" font-size="14.00" fill="#666666">[text]</text>
<text text-anchor="start" x="148.4158" y="-147.4" font-family="Arial" font-size="14.00" fill="#000000"> SQL名</text>
<polygon fill="none" stroke="#000000" points="46.5,-106 46.5,-136 387.5,-136 387.5,-106 46.5,-106"/>
<text text-anchor="start" x="53.5" y="-117.4" font-family="Arial" font-size="14.00" fill="#000000">csv_sql </text>
<text text-anchor="start" x="104.0624" y="-117.4" font-family="Arial" font-size="14.00" fill="#666666">[text]</text>
<text text-anchor="start" x="134.4074" y="-117.4" font-family="Arial" font-size="14.00" fill="#000000"> SQL詳細</text>
<polygon fill="none" stroke="#000000" points="46.5,-76 46.5,-106 387.5,-106 387.5,-76 46.5,-76"/>
<text text-anchor="start" x="53.235" y="-87.4" font-family="Arial" font-size="14.00" fill="#000000">create_date </text>
<text text-anchor="start" x="131.0456" y="-87.4" font-family="Arial" font-size="14.00" fill="#666666">[timestamp without time zone]</text>
<text text-anchor="start" x="316.1858" y="-87.4" font-family="Arial" font-size="14.00" fill="#000000"> 作成日時</text>
<polygon fill="none" stroke="#000000" points="46.5,-46 46.5,-76 387.5,-76 387.5,-46 46.5,-46"/>
<text text-anchor="start" x="53.5" y="-57.4" font-family="Arial" font-size="14.00" fill="#000000">update_date </text>
<text text-anchor="start" x="135.2152" y="-57.4" font-family="Arial" font-size="14.00" fill="#666666">[timestamp without time zone]</text>
<text text-anchor="start" x="320.3554" y="-57.4" font-family="Arial" font-size="14.00" fill="#000000"> 更新日時</text>
<polygon fill="none" stroke="#000000" stroke-width="3" points="44.5,-44.5 44.5,-243.5 388.5,-243.5 388.5,-44.5 44.5,-44.5"/>
</g>
</g>
</svg>
