<?xml version="1.0" encoding="UTF-8" standalone="no"?>
<!DOCTYPE svg PUBLIC "-//W3C//DTD SVG 1.1//EN"
 "http://www.w3.org/Graphics/SVG/1.1/DTD/svg11.dtd">
<!-- Generated by graphviz version 2.40.1 (20161225.0304)
 -->
<!-- Title: public.dtb_plugin Pages: 1 -->
<svg width="441pt" height="686pt"
 viewBox="0.00 0.00 441.00 686.00" xmlns="http://www.w3.org/2000/svg" xmlns:xlink="http://www.w3.org/1999/xlink">
<g id="graph0" class="graph" transform="scale(1 1) rotate(0) translate(4 682)">
<title>public.dtb_plugin</title>
<polygon fill="#ffffff" stroke="transparent" points="-4,4 -4,-682 437,-682 437,4 -4,4"/>
<!-- public.dtb_plugin -->
<g id="node1" class="node">
<title>public.dtb_plugin</title>
<polygon fill="#efefef" stroke="transparent" points="46.5,-586 46.5,-632 387.5,-632 387.5,-586 46.5,-586"/>
<polygon fill="none" stroke="#000000" points="46.5,-586 46.5,-632 387.5,-632 387.5,-586 46.5,-586"/>
<text text-anchor="start" x="100.8515" y="-609.8" font-family="Arial Bold" font-size="18.00" fill="#000000">public.dtb_plugin</text>
<text text-anchor="start" x="235.8947" y="-609.8" font-family="Arial" font-size="14.00" fill="#000000"> </text>
<text text-anchor="start" x="239.7853" y="-609.8" font-family="Arial" font-size="14.00" fill="#666666">[BASE TABLE]</text>
<text text-anchor="start" x="170.4227" y="-595.4" font-family="Arial" font-size="14.00" fill="#333333">プラグイン情報</text>
<polygon fill="none" stroke="#000000" points="46.5,-556 46.5,-586 387.5,-586 387.5,-556 46.5,-556"/>
<text text-anchor="start" x="53.5" y="-567.4" font-family="Arial" font-size="14.00" fill="#000000">plugin_id </text>
<text text-anchor="start" x="113.406" y="-567.4" font-family="Arial" font-size="14.00" fill="#666666">[integer]</text>
<text text-anchor="start" x="163.9754" y="-567.4" font-family="Arial" font-size="14.00" fill="#000000"> プラグインID</text>
<polygon fill="none" stroke="#000000" points="46.5,-526 46.5,-556 387.5,-556 387.5,-526 46.5,-526"/>
<text text-anchor="start" x="53.5" y="-537.4" font-family="Arial" font-size="14.00" fill="#000000">plugin_name </text>
<text text-anchor="start" x="137.5252" y="-537.4" font-family="Arial" font-size="14.00" fill="#666666">[text]</text>
<text text-anchor="start" x="167.8702" y="-537.4" font-family="Arial" font-size="14.00" fill="#000000"> プラグイン名</text>
<polygon fill="none" stroke="#000000" points="46.5,-496 46.5,-526 387.5,-526 387.5,-496 46.5,-496"/>
<text text-anchor="start" x="53.5" y="-507.4" font-family="Arial" font-size="14.00" fill="#000000">plugin_code </text>
<text text-anchor="start" x="132.8646" y="-507.4" font-family="Arial" font-size="14.00" fill="#666666">[text]</text>
<text text-anchor="start" x="163.2096" y="-507.4" font-family="Arial" font-size="14.00" fill="#000000"> プラグインコード</text>
<polygon fill="none" stroke="#000000" points="46.5,-466 46.5,-496 387.5,-496 387.5,-466 46.5,-466"/>
<text text-anchor="start" x="53.5" y="-477.4" font-family="Arial" font-size="14.00" fill="#000000">class_name </text>
<text text-anchor="start" x="132.0708" y="-477.4" font-family="Arial" font-size="14.00" fill="#666666">[text]</text>
<text text-anchor="start" x="162.4158" y="-477.4" font-family="Arial" font-size="14.00" fill="#000000"> クラス名</text>
<polygon fill="none" stroke="#000000" points="46.5,-436 46.5,-466 387.5,-466 387.5,-436 46.5,-436"/>
<text text-anchor="start" x="53.5" y="-447.4" font-family="Arial" font-size="14.00" fill="#000000">author </text>
<text text-anchor="start" x="97.0722" y="-447.4" font-family="Arial" font-size="14.00" fill="#666666">[text]</text>
<text text-anchor="start" x="127.4172" y="-447.4" font-family="Arial" font-size="14.00" fill="#000000"> 作成者</text>
<polygon fill="none" stroke="#000000" points="46.5,-406 46.5,-436 387.5,-436 387.5,-406 46.5,-406"/>
<text text-anchor="start" x="53.5" y="-417.4" font-family="Arial" font-size="14.00" fill="#000000">author_site_url </text>
<text text-anchor="start" x="149.967" y="-417.4" font-family="Arial" font-size="14.00" fill="#666666">[text]</text>
<text text-anchor="start" x="180.312" y="-417.4" font-family="Arial" font-size="14.00" fill="#000000"> 作成者サイトURL</text>
<polygon fill="none" stroke="#000000" points="46.5,-376 46.5,-406 387.5,-406 387.5,-376 46.5,-376"/>
<text text-anchor="start" x="53.5" y="-387.4" font-family="Arial" font-size="14.00" fill="#000000">plugin_site_url </text>
<text text-anchor="start" x="147.629" y="-387.4" font-family="Arial" font-size="14.00" fill="#666666">[text]</text>
<text text-anchor="start" x="177.974" y="-387.4" font-family="Arial" font-size="14.00" fill="#000000"> サイトURL</text>
<polygon fill="none" stroke="#000000" points="46.5,-346 46.5,-376 387.5,-376 387.5,-346 46.5,-346"/>
<text text-anchor="start" x="53.5" y="-357.4" font-family="Arial" font-size="14.00" fill="#000000">plugin_version </text>
<text text-anchor="start" x="147.6318" y="-357.4" font-family="Arial" font-size="14.00" fill="#666666">[text]</text>
<text text-anchor="start" x="177.9768" y="-357.4" font-family="Arial" font-size="14.00" fill="#000000"> バージョン</text>
<polygon fill="none" stroke="#000000" points="46.5,-316 46.5,-346 387.5,-346 387.5,-316 46.5,-316"/>
<text text-anchor="start" x="53.5" y="-327.4" font-family="Arial" font-size="14.00" fill="#000000">compliant_version </text>
<text text-anchor="start" x="170.183" y="-327.4" font-family="Arial" font-size="14.00" fill="#666666">[text]</text>
<text text-anchor="start" x="200.528" y="-327.4" font-family="Arial" font-size="14.00" fill="#000000"> 本体対応バージョン</text>
<polygon fill="none" stroke="#000000" points="46.5,-286 46.5,-316 387.5,-316 387.5,-286 46.5,-286"/>
<text text-anchor="start" x="53.5" y="-297.4" font-family="Arial" font-size="14.00" fill="#000000">plugin_description </text>
<text text-anchor="start" x="170.1942" y="-297.4" font-family="Arial" font-size="14.00" fill="#666666">[text]</text>
<text text-anchor="start" x="200.5392" y="-297.4" font-family="Arial" font-size="14.00" fill="#000000"> 詳細説明</text>
<polygon fill="none" stroke="#000000" points="46.5,-256 46.5,-286 387.5,-286 387.5,-256 46.5,-256"/>
<text text-anchor="start" x="53.5" y="-267.4" font-family="Arial" font-size="14.00" fill="#000000">priority </text>
<text text-anchor="start" x="99.3808" y="-267.4" font-family="Arial" font-size="14.00" fill="#666666">[integer]</text>
<text text-anchor="start" x="149.9502" y="-267.4" font-family="Arial" font-size="14.00" fill="#000000"> 優先度</text>
<polygon fill="none" stroke="#000000" points="46.5,-226 46.5,-256 387.5,-256 387.5,-226 46.5,-226"/>
<text text-anchor="start" x="53.5" y="-237.4" font-family="Arial" font-size="14.00" fill="#000000">enable </text>
<text text-anchor="start" x="99.4102" y="-237.4" font-family="Arial" font-size="14.00" fill="#666666">[smallint]</text>
<text text-anchor="start" x="154.6276" y="-237.4" font-family="Arial" font-size="14.00" fill="#000000"> 有効</text>
<polygon fill="none" stroke="#000000" points="46.5,-196 46.5,-226 387.5,-226 387.5,-196 46.5,-196"/>
<text text-anchor="start" x="53.5" y="-207.4" font-family="Arial" font-size="14.00" fill="#000000">free_field1 </text>
<text text-anchor="start" x="122.7412" y="-207.4" font-family="Arial" font-size="14.00" fill="#666666">[text]</text>
<text text-anchor="start" x="153.0862" y="-207.4" font-family="Arial" font-size="14.00" fill="#000000"> 任意項目１</text>
<polygon fill="none" stroke="#000000" points="46.5,-166 46.5,-196 387.5,-196 387.5,-166 46.5,-166"/>
<text text-anchor="start" x="53.5" y="-177.4" font-family="Arial" font-size="14.00" fill="#000000">free_field2 </text>
<text text-anchor="start" x="122.7412" y="-177.4" font-family="Arial" font-size="14.00" fill="#666666">[text]</text>
<text text-anchor="start" x="153.0862" y="-177.4" font-family="Arial" font-size="14.00" fill="#000000"> 任意項目２</text>
<polygon fill="none" stroke="#000000" points="46.5,-136 46.5,-166 387.5,-166 387.5,-136 46.5,-136"/>
<text text-anchor="start" x="53.5" y="-147.4" font-family="Arial" font-size="14.00" fill="#000000">free_field3 </text>
<text text-anchor="start" x="122.7412" y="-147.4" font-family="Arial" font-size="14.00" fill="#666666">[text]</text>
<text text-anchor="start" x="153.0862" y="-147.4" font-family="Arial" font-size="14.00" fill="#000000"> 任意項目３</text>
<polygon fill="none" stroke="#000000" points="46.5,-106 46.5,-136 387.5,-136 387.5,-106 46.5,-106"/>
<text text-anchor="start" x="53.5" y="-117.4" font-family="Arial" font-size="14.00" fill="#000000">free_field4 </text>
<text text-anchor="start" x="122.7412" y="-117.4" font-family="Arial" font-size="14.00" fill="#666666">[text]</text>
<text text-anchor="start" x="153.0862" y="-117.4" font-family="Arial" font-size="14.00" fill="#000000"> 任意項目４</text>
<polygon fill="none" stroke="#000000" points="46.5,-76 46.5,-106 387.5,-106 387.5,-76 46.5,-76"/>
<text text-anchor="start" x="53.235" y="-87.4" font-family="Arial" font-size="14.00" fill="#000000">create_date </text>
<text text-anchor="start" x="131.0456" y="-87.4" font-family="Arial" font-size="14.00" fill="#666666">[timestamp without time zone]</text>
<text text-anchor="start" x="316.1858" y="-87.4" font-family="Arial" font-size="14.00" fill="#000000"> 作成日時</text>
<polygon fill="none" stroke="#000000" points="46.5,-46 46.5,-76 387.5,-76 387.5,-46 46.5,-46"/>
<text text-anchor="start" x="53.5" y="-57.4" font-family="Arial" font-size="14.00" fill="#000000">update_date </text>
<text text-anchor="start" x="135.2152" y="-57.4" font-family="Arial" font-size="14.00" fill="#666666">[timestamp without time zone]</text>
<text text-anchor="start" x="320.3554" y="-57.4" font-family="Arial" font-size="14.00" fill="#000000"> 更新日時</text>
<polygon fill="none" stroke="#000000" stroke-width="3" points="44.5,-44.5 44.5,-633.5 388.5,-633.5 388.5,-44.5 44.5,-44.5"/>
</g>
</g>
</svg>
