<?xml version="1.0" encoding="UTF-8" standalone="no"?>
<!DOCTYPE svg PUBLIC "-//W3C//DTD SVG 1.1//EN"
 "http://www.w3.org/Graphics/SVG/1.1/DTD/svg11.dtd">
<!-- Generated by graphviz version 2.40.1 (20161225.0304)
 -->
<!-- Title: public.dtb_api_account Pages: 1 -->
<svg width="395pt" height="345pt"
 viewBox="0.00 0.00 395.00 345.00" xmlns="http://www.w3.org/2000/svg" xmlns:xlink="http://www.w3.org/1999/xlink">
<g id="graph0" class="graph" transform="scale(1 1) rotate(0) translate(4 341)">
<title>public.dtb_api_account</title>
<polygon fill="#ffffff" stroke="transparent" points="-4,4 -4,-341 391,-341 391,4 -4,4"/>
<!-- public.dtb_api_account -->
<g id="node1" class="node">
<title>public.dtb_api_account</title>
<polygon fill="#efefef" stroke="transparent" points="46.5,-255.5 46.5,-290.5 341.5,-290.5 341.5,-255.5 46.5,-255.5"/>
<polygon fill="none" stroke="#000000" points="46.5,-255.5 46.5,-290.5 341.5,-290.5 341.5,-255.5 46.5,-255.5"/>
<text text-anchor="start" x="53.3382" y="-268.3" font-family="Arial Bold" font-size="18.00" fill="#000000">public.dtb_api_account</text>
<text text-anchor="start" x="237.408" y="-268.3" font-family="Arial" font-size="14.00" fill="#000000"> </text>
<text text-anchor="start" x="241.2986" y="-268.3" font-family="Arial" font-size="14.00" fill="#666666">[BASE TABLE]</text>
<polygon fill="none" stroke="#000000" points="46.5,-225.5 46.5,-255.5 341.5,-255.5 341.5,-225.5 46.5,-225.5"/>
<text text-anchor="start" x="53.5" y="-236.9" font-family="Arial" font-size="14.00" fill="#000000">api_account_id </text>
<text text-anchor="start" x="151.5378" y="-236.9" font-family="Arial" font-size="14.00" fill="#666666">[integer]</text>
<polygon fill="none" stroke="#000000" points="46.5,-195.5 46.5,-225.5 341.5,-225.5 341.5,-195.5 46.5,-195.5"/>
<text text-anchor="start" x="53.5" y="-206.9" font-family="Arial" font-size="14.00" fill="#000000">api_access_key </text>
<text text-anchor="start" x="156.9754" y="-206.9" font-family="Arial" font-size="14.00" fill="#666666">[text]</text>
<polygon fill="none" stroke="#000000" points="46.5,-165.5 46.5,-195.5 341.5,-195.5 341.5,-165.5 46.5,-165.5"/>
<text text-anchor="start" x="53.5" y="-176.9" font-family="Arial" font-size="14.00" fill="#000000">api_secret_key </text>
<text text-anchor="start" x="151.5266" y="-176.9" font-family="Arial" font-size="14.00" fill="#666666">[text]</text>
<polygon fill="none" stroke="#000000" points="46.5,-135.5 46.5,-165.5 341.5,-165.5 341.5,-135.5 46.5,-135.5"/>
<text text-anchor="start" x="53.5" y="-146.9" font-family="Arial" font-size="14.00" fill="#000000">enable </text>
<text text-anchor="start" x="99.4102" y="-146.9" font-family="Arial" font-size="14.00" fill="#666666">[smallint]</text>
<polygon fill="none" stroke="#000000" points="46.5,-105.5 46.5,-135.5 341.5,-135.5 341.5,-105.5 46.5,-105.5"/>
<text text-anchor="start" x="53.5" y="-116.9" font-family="Arial" font-size="14.00" fill="#000000">del_flg </text>
<text text-anchor="start" x="98.6248" y="-116.9" font-family="Arial" font-size="14.00" fill="#666666">[smallint]</text>
<polygon fill="none" stroke="#000000" points="46.5,-75.5 46.5,-105.5 341.5,-105.5 341.5,-75.5 46.5,-75.5"/>
<text text-anchor="start" x="53.5" y="-86.9" font-family="Arial" font-size="14.00" fill="#000000">create_date </text>
<text text-anchor="start" x="131.3106" y="-86.9" font-family="Arial" font-size="14.00" fill="#666666">[timestamp without time zone]</text>
<polygon fill="none" stroke="#000000" points="46.5,-45.5 46.5,-75.5 341.5,-75.5 341.5,-45.5 46.5,-45.5"/>
<text text-anchor="start" x="53.5" y="-56.9" font-family="Arial" font-size="14.00" fill="#000000">update_date </text>
<text text-anchor="start" x="135.2152" y="-56.9" font-family="Arial" font-size="14.00" fill="#666666">[timestamp without time zone]</text>
<polygon fill="none" stroke="#000000" stroke-width="3" points="44.5,-44.5 44.5,-292.5 342.5,-292.5 342.5,-44.5 44.5,-44.5"/>
</g>
</g>
</svg>
