<?xml version="1.0" encoding="UTF-8" standalone="no"?>
<!DOCTYPE svg PUBLIC "-//W3C//DTD SVG 1.1//EN"
 "http://www.w3.org/Graphics/SVG/1.1/DTD/svg11.dtd">
<!-- Generated by graphviz version 2.40.1 (20161225.0304)
 -->
<!-- Title: public.dtb_send_history Pages: 1 -->
<svg width="466pt" height="536pt"
 viewBox="0.00 0.00 466.00 536.00" xmlns="http://www.w3.org/2000/svg" xmlns:xlink="http://www.w3.org/1999/xlink">
<g id="graph0" class="graph" transform="scale(1 1) rotate(0) translate(4 532)">
<title>public.dtb_send_history</title>
<polygon fill="#ffffff" stroke="transparent" points="-4,4 -4,-532 462,-532 462,4 -4,4"/>
<!-- public.dtb_send_history -->
<g id="node1" class="node">
<title>public.dtb_send_history</title>
<polygon fill="#efefef" stroke="transparent" points="46,-436 46,-482 412,-482 412,-436 46,-436"/>
<polygon fill="none" stroke="#000000" points="46,-436 46,-482 412,-482 412,-436 46,-436"/>
<text text-anchor="start" x="85.8452" y="-459.8" font-family="Arial Bold" font-size="18.00" fill="#000000">public.dtb_send_history</text>
<text text-anchor="start" x="274.901" y="-459.8" font-family="Arial" font-size="14.00" fill="#000000"> </text>
<text text-anchor="start" x="278.7916" y="-459.8" font-family="Arial" font-size="14.00" fill="#666666">[BASE TABLE]</text>
<text text-anchor="start" x="168.338" y="-445.4" font-family="Arial" font-size="14.00" fill="#333333">メール送信履歴</text>
<polygon fill="none" stroke="#000000" points="46,-406 46,-436 412,-436 412,-406 46,-406"/>
<text text-anchor="start" x="53" y="-417.4" font-family="Arial" font-size="14.00" fill="#000000">send_id </text>
<text text-anchor="start" x="105.9102" y="-417.4" font-family="Arial" font-size="14.00" fill="#666666">[integer]</text>
<text text-anchor="start" x="156.4796" y="-417.4" font-family="Arial" font-size="14.00" fill="#000000"> 送信ID</text>
<polygon fill="none" stroke="#000000" points="46,-376 46,-406 412,-406 412,-376 46,-376"/>
<text text-anchor="start" x="53" y="-387.4" font-family="Arial" font-size="14.00" fill="#000000">mail_method </text>
<text text-anchor="start" x="137.0112" y="-387.4" font-family="Arial" font-size="14.00" fill="#666666">[smallint]</text>
<text text-anchor="start" x="192.2286" y="-387.4" font-family="Arial" font-size="14.00" fill="#000000"> メール送信方法</text>
<polygon fill="none" stroke="#000000" points="46,-346 46,-376 412,-376 412,-346 46,-346"/>
<text text-anchor="start" x="53" y="-357.4" font-family="Arial" font-size="14.00" fill="#000000">subject </text>
<text text-anchor="start" x="101.2356" y="-357.4" font-family="Arial" font-size="14.00" fill="#666666">[text]</text>
<text text-anchor="start" x="131.5806" y="-357.4" font-family="Arial" font-size="14.00" fill="#000000"> 件名</text>
<polygon fill="none" stroke="#000000" points="46,-316 46,-346 412,-346 412,-316 46,-316"/>
<text text-anchor="start" x="53" y="-327.4" font-family="Arial" font-size="14.00" fill="#000000">body </text>
<text text-anchor="start" x="87.2384" y="-327.4" font-family="Arial" font-size="14.00" fill="#666666">[text]</text>
<text text-anchor="start" x="117.5834" y="-327.4" font-family="Arial" font-size="14.00" fill="#000000"> 本文</text>
<polygon fill="none" stroke="#000000" points="46,-286 46,-316 412,-316 412,-286 46,-286"/>
<text text-anchor="start" x="53" y="-297.4" font-family="Arial" font-size="14.00" fill="#000000">send_count </text>
<text text-anchor="start" x="129.2594" y="-297.4" font-family="Arial" font-size="14.00" fill="#666666">[integer]</text>
<text text-anchor="start" x="179.8288" y="-297.4" font-family="Arial" font-size="14.00" fill="#000000"> 送信数</text>
<polygon fill="none" stroke="#000000" points="46,-256 46,-286 412,-286 412,-256 46,-256"/>
<text text-anchor="start" x="53" y="-267.4" font-family="Arial" font-size="14.00" fill="#000000">complete_count </text>
<text text-anchor="start" x="155.6998" y="-267.4" font-family="Arial" font-size="14.00" fill="#666666">[integer]</text>
<text text-anchor="start" x="206.2692" y="-267.4" font-family="Arial" font-size="14.00" fill="#000000"> 送信完了数</text>
<polygon fill="none" stroke="#000000" points="46,-226 46,-256 412,-256 412,-226 46,-226"/>
<text text-anchor="start" x="52.7932" y="-237.4" font-family="Arial" font-size="14.00" fill="#000000">start_date </text>
<text text-anchor="start" x="118.9292" y="-237.4" font-family="Arial" font-size="14.00" fill="#666666">[timestamp without time zone]</text>
<text text-anchor="start" x="304.0694" y="-237.4" font-family="Arial" font-size="14.00" fill="#000000"> 送信開始日時</text>
<polygon fill="none" stroke="#000000" points="46,-196 46,-226 412,-226 412,-196 46,-196"/>
<text text-anchor="start" x="53" y="-207.4" font-family="Arial" font-size="14.00" fill="#000000">end_date </text>
<text text-anchor="start" x="115.2594" y="-207.4" font-family="Arial" font-size="14.00" fill="#666666">[timestamp without time zone]</text>
<text text-anchor="start" x="300.3996" y="-207.4" font-family="Arial" font-size="14.00" fill="#000000"> 送信完了日時</text>
<polygon fill="none" stroke="#000000" points="46,-166 46,-196 412,-196 412,-166 46,-166"/>
<text text-anchor="start" x="53" y="-177.4" font-family="Arial" font-size="14.00" fill="#000000">search_data </text>
<text text-anchor="start" x="133.92" y="-177.4" font-family="Arial" font-size="14.00" fill="#666666">[text]</text>
<text text-anchor="start" x="164.265" y="-177.4" font-family="Arial" font-size="14.00" fill="#000000"> 検索データ</text>
<polygon fill="none" stroke="#000000" points="46,-136 46,-166 412,-166 412,-136 46,-136"/>
<text text-anchor="start" x="53" y="-147.4" font-family="Arial" font-size="14.00" fill="#000000">del_flg </text>
<text text-anchor="start" x="98.1248" y="-147.4" font-family="Arial" font-size="14.00" fill="#666666">[smallint]</text>
<text text-anchor="start" x="153.3422" y="-147.4" font-family="Arial" font-size="14.00" fill="#000000"> 削除フラグ</text>
<polygon fill="none" stroke="#000000" points="46,-106 46,-136 412,-136 412,-106 46,-106"/>
<text text-anchor="start" x="53" y="-117.4" font-family="Arial" font-size="14.00" fill="#000000">creator_id </text>
<text text-anchor="start" x="119.122" y="-117.4" font-family="Arial" font-size="14.00" fill="#666666">[integer]</text>
<text text-anchor="start" x="169.6914" y="-117.4" font-family="Arial" font-size="14.00" fill="#000000"> 作成者ID</text>
<polygon fill="none" stroke="#000000" points="46,-76 46,-106 412,-106 412,-76 46,-76"/>
<text text-anchor="start" x="53" y="-87.4" font-family="Arial" font-size="14.00" fill="#000000">create_date </text>
<text text-anchor="start" x="130.8106" y="-87.4" font-family="Arial" font-size="14.00" fill="#666666">[timestamp without time zone]</text>
<text text-anchor="start" x="315.9508" y="-87.4" font-family="Arial" font-size="14.00" fill="#000000"> 作成日時</text>
<polygon fill="none" stroke="#000000" points="46,-46 46,-76 412,-76 412,-46 46,-46"/>
<text text-anchor="start" x="53" y="-57.4" font-family="Arial" font-size="14.00" fill="#000000">update_date </text>
<text text-anchor="start" x="134.7152" y="-57.4" font-family="Arial" font-size="14.00" fill="#666666">[timestamp without time zone]</text>
<text text-anchor="start" x="319.8554" y="-57.4" font-family="Arial" font-size="14.00" fill="#000000"> 更新日時</text>
<polygon fill="none" stroke="#000000" stroke-width="3" points="44.5,-44.5 44.5,-483.5 413.5,-483.5 413.5,-44.5 44.5,-44.5"/>
</g>
</g>
</svg>
