<?xml version="1.0" encoding="UTF-8" standalone="no"?>
<!DOCTYPE svg PUBLIC "-//W3C//DTD SVG 1.1//EN"
 "http://www.w3.org/Graphics/SVG/1.1/DTD/svg11.dtd">
<!-- Generated by graphviz version 2.40.1 (20161225.0304)
 -->
<!-- Title: public.dtb_category_total_count Pages: 1 -->
<svg width="465pt" height="225pt"
 viewBox="0.00 0.00 465.00 225.00" xmlns="http://www.w3.org/2000/svg" xmlns:xlink="http://www.w3.org/1999/xlink">
<g id="graph0" class="graph" transform="scale(1 1) rotate(0) translate(4 221)">
<title>public.dtb_category_total_count</title>
<polygon fill="#ffffff" stroke="transparent" points="-4,4 -4,-221 461,-221 461,4 -4,4"/>
<!-- public.dtb_category_total_count -->
<g id="node1" class="node">
<title>public.dtb_category_total_count</title>
<polygon fill="#efefef" stroke="transparent" points="46.5,-135.5 46.5,-170.5 411.5,-170.5 411.5,-135.5 46.5,-135.5"/>
<polygon fill="none" stroke="#000000" points="46.5,-135.5 46.5,-170.5 411.5,-170.5 411.5,-135.5 46.5,-135.5"/>
<text text-anchor="start" x="53.3264" y="-148.3" font-family="Arial Bold" font-size="18.00" fill="#000000">public.dtb_category_total_count</text>
<text text-anchor="start" x="307.4198" y="-148.3" font-family="Arial" font-size="14.00" fill="#000000"> </text>
<text text-anchor="start" x="311.3104" y="-148.3" font-family="Arial" font-size="14.00" fill="#666666">[BASE TABLE]</text>
<polygon fill="none" stroke="#000000" points="46.5,-105.5 46.5,-135.5 411.5,-135.5 411.5,-105.5 46.5,-105.5"/>
<text text-anchor="start" x="53.5" y="-116.9" font-family="Arial" font-size="14.00" fill="#000000">category_id </text>
<text text-anchor="start" x="129.744" y="-116.9" font-family="Arial" font-size="14.00" fill="#666666">[integer]</text>
<polygon fill="none" stroke="#000000" points="46.5,-75.5 46.5,-105.5 411.5,-105.5 411.5,-75.5 46.5,-75.5"/>
<text text-anchor="start" x="53.5" y="-86.9" font-family="Arial" font-size="14.00" fill="#000000">product_count </text>
<text text-anchor="start" x="146.0932" y="-86.9" font-family="Arial" font-size="14.00" fill="#666666">[integer]</text>
<polygon fill="none" stroke="#000000" points="46.5,-45.5 46.5,-75.5 411.5,-75.5 411.5,-45.5 46.5,-45.5"/>
<text text-anchor="start" x="53.5" y="-56.9" font-family="Arial" font-size="14.00" fill="#000000">create_date </text>
<text text-anchor="start" x="131.3106" y="-56.9" font-family="Arial" font-size="14.00" fill="#666666">[timestamp without time zone]</text>
<polygon fill="none" stroke="#000000" stroke-width="3" points="44.5,-44.5 44.5,-172.5 412.5,-172.5 412.5,-44.5 44.5,-44.5"/>
</g>
</g>
</svg>
